<?xml version="1.0" encoding="utf-8"?>
<svg xmlns="http://www.w3.org/2000/svg" xmlns:xlink="http://www.w3.org/1999/xlink" width="600" height="400" viewBox="0 0 2400 1600">
<defs>
  <clipPath id="clip460">
    <rect x="0" y="0" width="2400" height="1600"/>
  </clipPath>
</defs>
<path clip-path="url(#clip460)" d="M0 1600 L2400 1600 L2400 0 L0 0  Z" fill="#ffffff" fill-rule="evenodd" fill-opacity="1"/>
<defs>
  <clipPath id="clip461">
    <rect x="480" y="0" width="1681" height="1600"/>
  </clipPath>
</defs>
<path clip-path="url(#clip460)" d="M186.76 1486.45 L2352.76 1486.45 L2352.76 47.2441 L186.76 47.2441  Z" fill="#ffffff" fill-rule="evenodd" fill-opacity="1"/>
<defs>
  <clipPath id="clip462">
    <rect x="186" y="47" width="2167" height="1440"/>
  </clipPath>
</defs>
<polyline clip-path="url(#clip462)" style="stroke:#000000; stroke-linecap:round; stroke-linejoin:round; stroke-width:2; stroke-opacity:0.1; fill:none" points="248.062,1486.45 248.062,47.2441 "/>
<polyline clip-path="url(#clip462)" style="stroke:#000000; stroke-linecap:round; stroke-linejoin:round; stroke-width:2; stroke-opacity:0.1; fill:none" points="575.839,1486.45 575.839,47.2441 "/>
<polyline clip-path="url(#clip462)" style="stroke:#000000; stroke-linecap:round; stroke-linejoin:round; stroke-width:2; stroke-opacity:0.1; fill:none" points="903.615,1486.45 903.615,47.2441 "/>
<polyline clip-path="url(#clip462)" style="stroke:#000000; stroke-linecap:round; stroke-linejoin:round; stroke-width:2; stroke-opacity:0.1; fill:none" points="1231.39,1486.45 1231.39,47.2441 "/>
<polyline clip-path="url(#clip462)" style="stroke:#000000; stroke-linecap:round; stroke-linejoin:round; stroke-width:2; stroke-opacity:0.1; fill:none" points="1559.17,1486.45 1559.17,47.2441 "/>
<polyline clip-path="url(#clip462)" style="stroke:#000000; stroke-linecap:round; stroke-linejoin:round; stroke-width:2; stroke-opacity:0.1; fill:none" points="1886.95,1486.45 1886.95,47.2441 "/>
<polyline clip-path="url(#clip462)" style="stroke:#000000; stroke-linecap:round; stroke-linejoin:round; stroke-width:2; stroke-opacity:0.1; fill:none" points="2214.72,1486.45 2214.72,47.2441 "/>
<polyline clip-path="url(#clip462)" style="stroke:#000000; stroke-linecap:round; stroke-linejoin:round; stroke-width:2; stroke-opacity:0.1; fill:none" points="186.76,1445.72 2352.76,1445.72 "/>
<polyline clip-path="url(#clip462)" style="stroke:#000000; stroke-linecap:round; stroke-linejoin:round; stroke-width:2; stroke-opacity:0.1; fill:none" points="186.76,1245 2352.76,1245 "/>
<polyline clip-path="url(#clip462)" style="stroke:#000000; stroke-linecap:round; stroke-linejoin:round; stroke-width:2; stroke-opacity:0.1; fill:none" points="186.76,1044.28 2352.76,1044.28 "/>
<polyline clip-path="url(#clip462)" style="stroke:#000000; stroke-linecap:round; stroke-linejoin:round; stroke-width:2; stroke-opacity:0.1; fill:none" points="186.76,843.568 2352.76,843.568 "/>
<polyline clip-path="url(#clip462)" style="stroke:#000000; stroke-linecap:round; stroke-linejoin:round; stroke-width:2; stroke-opacity:0.1; fill:none" points="186.76,642.852 2352.76,642.852 "/>
<polyline clip-path="url(#clip462)" style="stroke:#000000; stroke-linecap:round; stroke-linejoin:round; stroke-width:2; stroke-opacity:0.1; fill:none" points="186.76,442.136 2352.76,442.136 "/>
<polyline clip-path="url(#clip462)" style="stroke:#000000; stroke-linecap:round; stroke-linejoin:round; stroke-width:2; stroke-opacity:0.1; fill:none" points="186.76,241.42 2352.76,241.42 "/>
<polyline clip-path="url(#clip460)" style="stroke:#000000; stroke-linecap:round; stroke-linejoin:round; stroke-width:4; stroke-opacity:1; fill:none" points="186.76,1486.45 2352.76,1486.45 "/>
<polyline clip-path="url(#clip460)" style="stroke:#000000; stroke-linecap:round; stroke-linejoin:round; stroke-width:4; stroke-opacity:1; fill:none" points="248.062,1486.45 248.062,1467.55 "/>
<polyline clip-path="url(#clip460)" style="stroke:#000000; stroke-linecap:round; stroke-linejoin:round; stroke-width:4; stroke-opacity:1; fill:none" points="575.839,1486.45 575.839,1467.55 "/>
<polyline clip-path="url(#clip460)" style="stroke:#000000; stroke-linecap:round; stroke-linejoin:round; stroke-width:4; stroke-opacity:1; fill:none" points="903.615,1486.45 903.615,1467.55 "/>
<polyline clip-path="url(#clip460)" style="stroke:#000000; stroke-linecap:round; stroke-linejoin:round; stroke-width:4; stroke-opacity:1; fill:none" points="1231.39,1486.45 1231.39,1467.55 "/>
<polyline clip-path="url(#clip460)" style="stroke:#000000; stroke-linecap:round; stroke-linejoin:round; stroke-width:4; stroke-opacity:1; fill:none" points="1559.17,1486.45 1559.17,1467.55 "/>
<polyline clip-path="url(#clip460)" style="stroke:#000000; stroke-linecap:round; stroke-linejoin:round; stroke-width:4; stroke-opacity:1; fill:none" points="1886.95,1486.45 1886.95,1467.55 "/>
<polyline clip-path="url(#clip460)" style="stroke:#000000; stroke-linecap:round; stroke-linejoin:round; stroke-width:4; stroke-opacity:1; fill:none" points="2214.72,1486.45 2214.72,1467.55 "/>
<path clip-path="url(#clip460)" d="M248.062 1517.37 Q244.451 1517.37 242.622 1520.93 Q240.817 1524.47 240.817 1531.6 Q240.817 1538.71 242.622 1542.27 Q244.451 1545.82 248.062 1545.82 Q251.696 1545.82 253.502 1542.27 Q255.33 1538.71 255.33 1531.6 Q255.33 1524.47 253.502 1520.93 Q251.696 1517.37 248.062 1517.37 M248.062 1513.66 Q253.872 1513.66 256.928 1518.27 Q260.006 1522.85 260.006 1531.6 Q260.006 1540.33 256.928 1544.94 Q253.872 1549.52 248.062 1549.52 Q242.252 1549.52 239.173 1544.94 Q236.117 1540.33 236.117 1531.6 Q236.117 1522.85 239.173 1518.27 Q242.252 1513.66 248.062 1513.66 Z" fill="#000000" fill-rule="nonzero" fill-opacity="1" /><path clip-path="url(#clip460)" d="M570.491 1544.91 L586.811 1544.91 L586.811 1548.85 L564.866 1548.85 L564.866 1544.91 Q567.528 1542.16 572.112 1537.53 Q576.718 1532.88 577.899 1531.53 Q580.144 1529.01 581.024 1527.27 Q581.927 1525.51 581.927 1523.82 Q581.927 1521.07 579.982 1519.33 Q578.061 1517.6 574.959 1517.6 Q572.76 1517.6 570.306 1518.36 Q567.876 1519.13 565.098 1520.68 L565.098 1515.95 Q567.922 1514.82 570.376 1514.24 Q572.829 1513.66 574.866 1513.66 Q580.237 1513.66 583.431 1516.35 Q586.626 1519.03 586.626 1523.52 Q586.626 1525.65 585.815 1527.57 Q585.028 1529.47 582.922 1532.07 Q582.343 1532.74 579.241 1535.95 Q576.14 1539.15 570.491 1544.91 Z" fill="#000000" fill-rule="nonzero" fill-opacity="1" /><path clip-path="url(#clip460)" d="M906.625 1518.36 L894.819 1536.81 L906.625 1536.81 L906.625 1518.36 M905.398 1514.29 L911.277 1514.29 L911.277 1536.81 L916.208 1536.81 L916.208 1540.7 L911.277 1540.7 L911.277 1548.85 L906.625 1548.85 L906.625 1540.7 L891.023 1540.7 L891.023 1536.19 L905.398 1514.29 Z" fill="#000000" fill-rule="nonzero" fill-opacity="1" /><path clip-path="url(#clip460)" d="M1231.8 1529.7 Q1228.65 1529.7 1226.8 1531.86 Q1224.97 1534.01 1224.97 1537.76 Q1224.97 1541.49 1226.8 1543.66 Q1228.65 1545.82 1231.8 1545.82 Q1234.95 1545.82 1236.77 1543.66 Q1238.63 1541.49 1238.63 1537.76 Q1238.63 1534.01 1236.77 1531.86 Q1234.95 1529.7 1231.8 1529.7 M1241.08 1515.05 L1241.08 1519.31 Q1239.32 1518.48 1237.51 1518.04 Q1235.73 1517.6 1233.97 1517.6 Q1229.34 1517.6 1226.89 1520.72 Q1224.46 1523.85 1224.11 1530.17 Q1225.48 1528.15 1227.54 1527.09 Q1229.6 1526 1232.07 1526 Q1237.28 1526 1240.29 1529.17 Q1243.32 1532.32 1243.32 1537.76 Q1243.32 1543.08 1240.18 1546.3 Q1237.03 1549.52 1231.8 1549.52 Q1225.8 1549.52 1222.63 1544.94 Q1219.46 1540.33 1219.46 1531.6 Q1219.46 1523.41 1223.35 1518.55 Q1227.24 1513.66 1233.79 1513.66 Q1235.55 1513.66 1237.33 1514.01 Q1239.14 1514.36 1241.08 1515.05 Z" fill="#000000" fill-rule="nonzero" fill-opacity="1" /><path clip-path="url(#clip460)" d="M1559.17 1532.44 Q1555.84 1532.44 1553.91 1534.22 Q1552.02 1536 1552.02 1539.13 Q1552.02 1542.25 1553.91 1544.03 Q1555.84 1545.82 1559.17 1545.82 Q1562.5 1545.82 1564.42 1544.03 Q1566.34 1542.23 1566.34 1539.13 Q1566.34 1536 1564.42 1534.22 Q1562.53 1532.44 1559.17 1532.44 M1554.49 1530.45 Q1551.48 1529.7 1549.79 1527.64 Q1548.13 1525.58 1548.13 1522.62 Q1548.13 1518.48 1551.07 1516.07 Q1554.03 1513.66 1559.17 1513.66 Q1564.33 1513.66 1567.27 1516.07 Q1570.21 1518.48 1570.21 1522.62 Q1570.21 1525.58 1568.52 1527.64 Q1566.85 1529.7 1563.87 1530.45 Q1567.25 1531.23 1569.12 1533.52 Q1571.02 1535.82 1571.02 1539.13 Q1571.02 1544.15 1567.94 1546.83 Q1564.89 1549.52 1559.17 1549.52 Q1553.45 1549.52 1550.37 1546.83 Q1547.32 1544.15 1547.32 1539.13 Q1547.32 1535.82 1549.22 1533.52 Q1551.11 1531.23 1554.49 1530.45 M1552.78 1523.06 Q1552.78 1525.75 1554.45 1527.25 Q1556.14 1528.76 1559.17 1528.76 Q1562.18 1528.76 1563.87 1527.25 Q1565.58 1525.75 1565.58 1523.06 Q1565.58 1520.38 1563.87 1518.87 Q1562.18 1517.37 1559.17 1517.37 Q1556.14 1517.37 1554.45 1518.87 Q1552.78 1520.38 1552.78 1523.06 Z" fill="#000000" fill-rule="nonzero" fill-opacity="1" /><path clip-path="url(#clip460)" d="M1861.63 1544.91 L1869.27 1544.91 L1869.27 1518.55 L1860.96 1520.21 L1860.96 1515.95 L1869.23 1514.29 L1873.9 1514.29 L1873.9 1544.91 L1881.54 1544.91 L1881.54 1548.85 L1861.63 1548.85 L1861.63 1544.91 Z" fill="#000000" fill-rule="nonzero" fill-opacity="1" /><path clip-path="url(#clip460)" d="M1900.98 1517.37 Q1897.37 1517.37 1895.55 1520.93 Q1893.74 1524.47 1893.74 1531.6 Q1893.74 1538.71 1895.55 1542.27 Q1897.37 1545.82 1900.98 1545.82 Q1904.62 1545.82 1906.42 1542.27 Q1908.25 1538.71 1908.25 1531.6 Q1908.25 1524.47 1906.42 1520.93 Q1904.62 1517.37 1900.98 1517.37 M1900.98 1513.66 Q1906.79 1513.66 1909.85 1518.27 Q1912.93 1522.85 1912.93 1531.6 Q1912.93 1540.33 1909.85 1544.94 Q1906.79 1549.52 1900.98 1549.52 Q1895.17 1549.52 1892.1 1544.94 Q1889.04 1540.33 1889.04 1531.6 Q1889.04 1522.85 1892.1 1518.27 Q1895.17 1513.66 1900.98 1513.66 Z" fill="#000000" fill-rule="nonzero" fill-opacity="1" /><path clip-path="url(#clip460)" d="M2190.21 1544.91 L2197.85 1544.91 L2197.85 1518.55 L2189.54 1520.21 L2189.54 1515.95 L2197.8 1514.29 L2202.48 1514.29 L2202.48 1544.91 L2210.12 1544.91 L2210.12 1548.85 L2190.21 1548.85 L2190.21 1544.91 Z" fill="#000000" fill-rule="nonzero" fill-opacity="1" /><path clip-path="url(#clip460)" d="M2223.59 1544.91 L2239.91 1544.91 L2239.91 1548.85 L2217.96 1548.85 L2217.96 1544.91 Q2220.63 1542.16 2225.21 1537.53 Q2229.81 1532.88 2231 1531.53 Q2233.24 1529.01 2234.12 1527.27 Q2235.02 1525.51 2235.02 1523.82 Q2235.02 1521.07 2233.08 1519.33 Q2231.16 1517.6 2228.06 1517.6 Q2225.86 1517.6 2223.4 1518.36 Q2220.97 1519.13 2218.19 1520.68 L2218.19 1515.95 Q2221.02 1514.82 2223.47 1514.24 Q2225.93 1513.66 2227.96 1513.66 Q2233.33 1513.66 2236.53 1516.35 Q2239.72 1519.03 2239.72 1523.52 Q2239.72 1525.65 2238.91 1527.57 Q2238.12 1529.47 2236.02 1532.07 Q2235.44 1532.74 2232.34 1535.95 Q2229.24 1539.15 2223.59 1544.91 Z" fill="#000000" fill-rule="nonzero" fill-opacity="1" /><polyline clip-path="url(#clip460)" style="stroke:#000000; stroke-linecap:round; stroke-linejoin:round; stroke-width:4; stroke-opacity:1; fill:none" points="186.76,1486.45 186.76,47.2441 "/>
<polyline clip-path="url(#clip460)" style="stroke:#000000; stroke-linecap:round; stroke-linejoin:round; stroke-width:4; stroke-opacity:1; fill:none" points="186.76,1445.72 205.658,1445.72 "/>
<polyline clip-path="url(#clip460)" style="stroke:#000000; stroke-linecap:round; stroke-linejoin:round; stroke-width:4; stroke-opacity:1; fill:none" points="186.76,1245 205.658,1245 "/>
<polyline clip-path="url(#clip460)" style="stroke:#000000; stroke-linecap:round; stroke-linejoin:round; stroke-width:4; stroke-opacity:1; fill:none" points="186.76,1044.28 205.658,1044.28 "/>
<polyline clip-path="url(#clip460)" style="stroke:#000000; stroke-linecap:round; stroke-linejoin:round; stroke-width:4; stroke-opacity:1; fill:none" points="186.76,843.568 205.658,843.568 "/>
<polyline clip-path="url(#clip460)" style="stroke:#000000; stroke-linecap:round; stroke-linejoin:round; stroke-width:4; stroke-opacity:1; fill:none" points="186.76,642.852 205.658,642.852 "/>
<polyline clip-path="url(#clip460)" style="stroke:#000000; stroke-linecap:round; stroke-linejoin:round; stroke-width:4; stroke-opacity:1; fill:none" points="186.76,442.136 205.658,442.136 "/>
<polyline clip-path="url(#clip460)" style="stroke:#000000; stroke-linecap:round; stroke-linejoin:round; stroke-width:4; stroke-opacity:1; fill:none" points="186.76,241.42 205.658,241.42 "/>
<path clip-path="url(#clip460)" d="M63.4226 1431.51 Q59.8115 1431.51 57.9828 1435.08 Q56.1773 1438.62 56.1773 1445.75 Q56.1773 1452.86 57.9828 1456.42 Q59.8115 1459.96 63.4226 1459.96 Q67.0569 1459.96 68.8624 1456.42 Q70.6911 1452.86 70.6911 1445.75 Q70.6911 1438.62 68.8624 1435.08 Q67.0569 1431.51 63.4226 1431.51 M63.4226 1427.81 Q69.2328 1427.81 72.2883 1432.42 Q75.367 1437 75.367 1445.75 Q75.367 1454.48 72.2883 1459.08 Q69.2328 1463.67 63.4226 1463.67 Q57.6125 1463.67 54.5338 1459.08 Q51.4782 1454.48 51.4782 1445.75 Q51.4782 1437 54.5338 1432.42 Q57.6125 1427.81 63.4226 1427.81 Z" fill="#000000" fill-rule="nonzero" fill-opacity="1" /><path clip-path="url(#clip460)" d="M83.5845 1457.12 L88.4688 1457.12 L88.4688 1463 L83.5845 1463 L83.5845 1457.12 Z" fill="#000000" fill-rule="nonzero" fill-opacity="1" /><path clip-path="url(#clip460)" d="M108.654 1431.51 Q105.043 1431.51 103.214 1435.08 Q101.409 1438.62 101.409 1445.75 Q101.409 1452.86 103.214 1456.42 Q105.043 1459.96 108.654 1459.96 Q112.288 1459.96 114.094 1456.42 Q115.922 1452.86 115.922 1445.75 Q115.922 1438.62 114.094 1435.08 Q112.288 1431.51 108.654 1431.51 M108.654 1427.81 Q114.464 1427.81 117.52 1432.42 Q120.598 1437 120.598 1445.75 Q120.598 1454.48 117.52 1459.08 Q114.464 1463.67 108.654 1463.67 Q102.844 1463.67 99.765 1459.08 Q96.7095 1454.48 96.7095 1445.75 Q96.7095 1437 99.765 1432.42 Q102.844 1427.81 108.654 1427.81 Z" fill="#000000" fill-rule="nonzero" fill-opacity="1" /><path clip-path="url(#clip460)" d="M138.816 1431.51 Q135.205 1431.51 133.376 1435.08 Q131.57 1438.62 131.57 1445.75 Q131.57 1452.86 133.376 1456.42 Q135.205 1459.96 138.816 1459.96 Q142.45 1459.96 144.256 1456.42 Q146.084 1452.86 146.084 1445.75 Q146.084 1438.62 144.256 1435.08 Q142.45 1431.51 138.816 1431.51 M138.816 1427.81 Q144.626 1427.81 147.681 1432.42 Q150.76 1437 150.76 1445.75 Q150.76 1454.48 147.681 1459.08 Q144.626 1463.67 138.816 1463.67 Q133.006 1463.67 129.927 1459.08 Q126.871 1454.48 126.871 1445.75 Q126.871 1437 129.927 1432.42 Q133.006 1427.81 138.816 1427.81 Z" fill="#000000" fill-rule="nonzero" fill-opacity="1" /><path clip-path="url(#clip460)" d="M65.0198 1230.8 Q61.4087 1230.8 59.58 1234.36 Q57.7745 1237.9 57.7745 1245.03 Q57.7745 1252.14 59.58 1255.71 Q61.4087 1259.25 65.0198 1259.25 Q68.6541 1259.25 70.4596 1255.71 Q72.2883 1252.14 72.2883 1245.03 Q72.2883 1237.9 70.4596 1234.36 Q68.6541 1230.8 65.0198 1230.8 M65.0198 1227.09 Q70.83 1227.09 73.8855 1231.7 Q76.9642 1236.28 76.9642 1245.03 Q76.9642 1253.76 73.8855 1258.37 Q70.83 1262.95 65.0198 1262.95 Q59.2097 1262.95 56.131 1258.37 Q53.0754 1253.76 53.0754 1245.03 Q53.0754 1236.28 56.131 1231.7 Q59.2097 1227.09 65.0198 1227.09 Z" fill="#000000" fill-rule="nonzero" fill-opacity="1" /><path clip-path="url(#clip460)" d="M85.1818 1256.4 L90.066 1256.4 L90.066 1262.28 L85.1818 1262.28 L85.1818 1256.4 Z" fill="#000000" fill-rule="nonzero" fill-opacity="1" /><path clip-path="url(#clip460)" d="M110.251 1230.8 Q106.64 1230.8 104.811 1234.36 Q103.006 1237.9 103.006 1245.03 Q103.006 1252.14 104.811 1255.71 Q106.64 1259.25 110.251 1259.25 Q113.885 1259.25 115.691 1255.71 Q117.52 1252.14 117.52 1245.03 Q117.52 1237.9 115.691 1234.36 Q113.885 1230.8 110.251 1230.8 M110.251 1227.09 Q116.061 1227.09 119.117 1231.7 Q122.195 1236.28 122.195 1245.03 Q122.195 1253.76 119.117 1258.37 Q116.061 1262.95 110.251 1262.95 Q104.441 1262.95 101.362 1258.37 Q98.3067 1253.76 98.3067 1245.03 Q98.3067 1236.28 101.362 1231.7 Q104.441 1227.09 110.251 1227.09 Z" fill="#000000" fill-rule="nonzero" fill-opacity="1" /><path clip-path="url(#clip460)" d="M134.441 1258.34 L150.76 1258.34 L150.76 1262.28 L128.816 1262.28 L128.816 1258.34 Q131.478 1255.59 136.061 1250.96 Q140.668 1246.31 141.848 1244.97 Q144.093 1242.44 144.973 1240.71 Q145.876 1238.95 145.876 1237.26 Q145.876 1234.5 143.931 1232.77 Q142.01 1231.03 138.908 1231.03 Q136.709 1231.03 134.256 1231.79 Q131.825 1232.56 129.047 1234.11 L129.047 1229.39 Q131.871 1228.25 134.325 1227.67 Q136.779 1227.09 138.816 1227.09 Q144.186 1227.09 147.38 1229.78 Q150.575 1232.47 150.575 1236.96 Q150.575 1239.09 149.765 1241.01 Q148.978 1242.9 146.871 1245.5 Q146.293 1246.17 143.191 1249.39 Q140.089 1252.58 134.441 1258.34 Z" fill="#000000" fill-rule="nonzero" fill-opacity="1" /><path clip-path="url(#clip460)" d="M62.9365 1030.08 Q59.3254 1030.08 57.4967 1033.65 Q55.6912 1037.19 55.6912 1044.32 Q55.6912 1051.42 57.4967 1054.99 Q59.3254 1058.53 62.9365 1058.53 Q66.5707 1058.53 68.3763 1054.99 Q70.205 1051.42 70.205 1044.32 Q70.205 1037.19 68.3763 1033.65 Q66.5707 1030.08 62.9365 1030.08 M62.9365 1026.38 Q68.7467 1026.38 71.8022 1030.99 Q74.8809 1035.57 74.8809 1044.32 Q74.8809 1053.05 71.8022 1057.65 Q68.7467 1062.24 62.9365 1062.24 Q57.1264 1062.24 54.0477 1057.65 Q50.9921 1053.05 50.9921 1044.32 Q50.9921 1035.57 54.0477 1030.99 Q57.1264 1026.38 62.9365 1026.38 Z" fill="#000000" fill-rule="nonzero" fill-opacity="1" /><path clip-path="url(#clip460)" d="M83.0984 1055.68 L87.9827 1055.68 L87.9827 1061.56 L83.0984 1061.56 L83.0984 1055.68 Z" fill="#000000" fill-rule="nonzero" fill-opacity="1" /><path clip-path="url(#clip460)" d="M108.168 1030.08 Q104.557 1030.08 102.728 1033.65 Q100.922 1037.19 100.922 1044.32 Q100.922 1051.42 102.728 1054.99 Q104.557 1058.53 108.168 1058.53 Q111.802 1058.53 113.608 1054.99 Q115.436 1051.42 115.436 1044.32 Q115.436 1037.19 113.608 1033.65 Q111.802 1030.08 108.168 1030.08 M108.168 1026.38 Q113.978 1026.38 117.033 1030.99 Q120.112 1035.57 120.112 1044.32 Q120.112 1053.05 117.033 1057.65 Q113.978 1062.24 108.168 1062.24 Q102.358 1062.24 99.2789 1057.65 Q96.2234 1053.05 96.2234 1044.32 Q96.2234 1035.57 99.2789 1030.99 Q102.358 1026.38 108.168 1026.38 Z" fill="#000000" fill-rule="nonzero" fill-opacity="1" /><path clip-path="url(#clip460)" d="M141.177 1031.08 L129.371 1049.53 L141.177 1049.53 L141.177 1031.08 M139.95 1027 L145.83 1027 L145.83 1049.53 L150.76 1049.53 L150.76 1053.42 L145.83 1053.42 L145.83 1061.56 L141.177 1061.56 L141.177 1053.42 L125.575 1053.42 L125.575 1048.9 L139.95 1027 Z" fill="#000000" fill-rule="nonzero" fill-opacity="1" /><path clip-path="url(#clip460)" d="M63.2606 829.367 Q59.6495 829.367 57.8208 832.931 Q56.0152 836.473 56.0152 843.603 Q56.0152 850.709 57.8208 854.274 Q59.6495 857.815 63.2606 857.815 Q66.8948 857.815 68.7004 854.274 Q70.5291 850.709 70.5291 843.603 Q70.5291 836.473 68.7004 832.931 Q66.8948 829.367 63.2606 829.367 M63.2606 825.663 Q69.0707 825.663 72.1263 830.269 Q75.205 834.853 75.205 843.603 Q75.205 852.329 72.1263 856.936 Q69.0707 861.519 63.2606 861.519 Q57.4504 861.519 54.3717 856.936 Q51.3162 852.329 51.3162 843.603 Q51.3162 834.853 54.3717 830.269 Q57.4504 825.663 63.2606 825.663 Z" fill="#000000" fill-rule="nonzero" fill-opacity="1" /><path clip-path="url(#clip460)" d="M83.4225 854.968 L88.3067 854.968 L88.3067 860.848 L83.4225 860.848 L83.4225 854.968 Z" fill="#000000" fill-rule="nonzero" fill-opacity="1" /><path clip-path="url(#clip460)" d="M108.492 829.367 Q104.881 829.367 103.052 832.931 Q101.246 836.473 101.246 843.603 Q101.246 850.709 103.052 854.274 Q104.881 857.815 108.492 857.815 Q112.126 857.815 113.932 854.274 Q115.76 850.709 115.76 843.603 Q115.76 836.473 113.932 832.931 Q112.126 829.367 108.492 829.367 M108.492 825.663 Q114.302 825.663 117.358 830.269 Q120.436 834.853 120.436 843.603 Q120.436 852.329 117.358 856.936 Q114.302 861.519 108.492 861.519 Q102.682 861.519 99.603 856.936 Q96.5474 852.329 96.5474 843.603 Q96.5474 834.853 99.603 830.269 Q102.682 825.663 108.492 825.663 Z" fill="#000000" fill-rule="nonzero" fill-opacity="1" /><path clip-path="url(#clip460)" d="M139.232 841.704 Q136.084 841.704 134.232 843.857 Q132.404 846.01 132.404 849.76 Q132.404 853.487 134.232 855.663 Q136.084 857.815 139.232 857.815 Q142.381 857.815 144.209 855.663 Q146.061 853.487 146.061 849.76 Q146.061 846.01 144.209 843.857 Q142.381 841.704 139.232 841.704 M148.515 827.052 L148.515 831.311 Q146.756 830.478 144.95 830.038 Q143.168 829.598 141.408 829.598 Q136.779 829.598 134.325 832.723 Q131.894 835.848 131.547 842.167 Q132.913 840.154 134.973 839.089 Q137.033 838.001 139.51 838.001 Q144.718 838.001 147.728 841.172 Q150.76 844.32 150.76 849.76 Q150.76 855.084 147.612 858.302 Q144.464 861.519 139.232 861.519 Q133.237 861.519 130.066 856.936 Q126.894 852.329 126.894 843.603 Q126.894 835.408 130.783 830.547 Q134.672 825.663 141.223 825.663 Q142.982 825.663 144.765 826.01 Q146.57 826.357 148.515 827.052 Z" fill="#000000" fill-rule="nonzero" fill-opacity="1" /><path clip-path="url(#clip460)" d="M63.5152 628.651 Q59.9041 628.651 58.0754 632.215 Q56.2699 635.757 56.2699 642.887 Q56.2699 649.993 58.0754 653.558 Q59.9041 657.1 63.5152 657.1 Q67.1494 657.1 68.955 653.558 Q70.7837 649.993 70.7837 642.887 Q70.7837 635.757 68.955 632.215 Q67.1494 628.651 63.5152 628.651 M63.5152 624.947 Q69.3254 624.947 72.3809 629.553 Q75.4596 634.137 75.4596 642.887 Q75.4596 651.613 72.3809 656.22 Q69.3254 660.803 63.5152 660.803 Q57.7051 660.803 54.6264 656.22 Q51.5708 651.613 51.5708 642.887 Q51.5708 634.137 54.6264 629.553 Q57.7051 624.947 63.5152 624.947 Z" fill="#000000" fill-rule="nonzero" fill-opacity="1" /><path clip-path="url(#clip460)" d="M83.6771 654.252 L88.5614 654.252 L88.5614 660.132 L83.6771 660.132 L83.6771 654.252 Z" fill="#000000" fill-rule="nonzero" fill-opacity="1" /><path clip-path="url(#clip460)" d="M108.746 628.651 Q105.135 628.651 103.307 632.215 Q101.501 635.757 101.501 642.887 Q101.501 649.993 103.307 653.558 Q105.135 657.1 108.746 657.1 Q112.381 657.1 114.186 653.558 Q116.015 649.993 116.015 642.887 Q116.015 635.757 114.186 632.215 Q112.381 628.651 108.746 628.651 M108.746 624.947 Q114.557 624.947 117.612 629.553 Q120.691 634.137 120.691 642.887 Q120.691 651.613 117.612 656.22 Q114.557 660.803 108.746 660.803 Q102.936 660.803 99.8576 656.22 Q96.8021 651.613 96.8021 642.887 Q96.8021 634.137 99.8576 629.553 Q102.936 624.947 108.746 624.947 Z" fill="#000000" fill-rule="nonzero" fill-opacity="1" /><path clip-path="url(#clip460)" d="M138.908 643.72 Q135.575 643.72 133.654 645.502 Q131.756 647.285 131.756 650.41 Q131.756 653.535 133.654 655.317 Q135.575 657.1 138.908 657.1 Q142.242 657.1 144.163 655.317 Q146.084 653.512 146.084 650.41 Q146.084 647.285 144.163 645.502 Q142.265 643.72 138.908 643.72 M134.232 641.729 Q131.223 640.989 129.533 638.928 Q127.867 636.868 127.867 633.905 Q127.867 629.762 130.807 627.354 Q133.769 624.947 138.908 624.947 Q144.07 624.947 147.01 627.354 Q149.95 629.762 149.95 633.905 Q149.95 636.868 148.26 638.928 Q146.593 640.989 143.607 641.729 Q146.987 642.516 148.862 644.808 Q150.76 647.1 150.76 650.41 Q150.76 655.433 147.681 658.118 Q144.626 660.803 138.908 660.803 Q133.191 660.803 130.112 658.118 Q127.057 655.433 127.057 650.41 Q127.057 647.1 128.955 644.808 Q130.853 642.516 134.232 641.729 M132.519 634.345 Q132.519 637.03 134.186 638.535 Q135.876 640.039 138.908 640.039 Q141.918 640.039 143.607 638.535 Q145.32 637.03 145.32 634.345 Q145.32 631.66 143.607 630.155 Q141.918 628.651 138.908 628.651 Q135.876 628.651 134.186 630.155 Q132.519 631.66 132.519 634.345 Z" fill="#000000" fill-rule="nonzero" fill-opacity="1" /><path clip-path="url(#clip460)" d="M63.4226 427.935 Q59.8115 427.935 57.9828 431.499 Q56.1773 435.041 56.1773 442.171 Q56.1773 449.277 57.9828 452.842 Q59.8115 456.384 63.4226 456.384 Q67.0569 456.384 68.8624 452.842 Q70.6911 449.277 70.6911 442.171 Q70.6911 435.041 68.8624 431.499 Q67.0569 427.935 63.4226 427.935 M63.4226 424.231 Q69.2328 424.231 72.2883 428.837 Q75.367 433.421 75.367 442.171 Q75.367 450.898 72.2883 455.504 Q69.2328 460.087 63.4226 460.087 Q57.6125 460.087 54.5338 455.504 Q51.4782 450.898 51.4782 442.171 Q51.4782 433.421 54.5338 428.837 Q57.6125 424.231 63.4226 424.231 Z" fill="#000000" fill-rule="nonzero" fill-opacity="1" /><path clip-path="url(#clip460)" d="M83.5845 453.536 L88.4688 453.536 L88.4688 459.416 L83.5845 459.416 L83.5845 453.536 Z" fill="#000000" fill-rule="nonzero" fill-opacity="1" /><path clip-path="url(#clip460)" d="M99.4641 455.481 L107.103 455.481 L107.103 429.115 L98.7928 430.782 L98.7928 426.523 L107.057 424.856 L111.733 424.856 L111.733 455.481 L119.371 455.481 L119.371 459.416 L99.4641 459.416 L99.4641 455.481 Z" fill="#000000" fill-rule="nonzero" fill-opacity="1" /><path clip-path="url(#clip460)" d="M138.816 427.935 Q135.205 427.935 133.376 431.499 Q131.57 435.041 131.57 442.171 Q131.57 449.277 133.376 452.842 Q135.205 456.384 138.816 456.384 Q142.45 456.384 144.256 452.842 Q146.084 449.277 146.084 442.171 Q146.084 435.041 144.256 431.499 Q142.45 427.935 138.816 427.935 M138.816 424.231 Q144.626 424.231 147.681 428.837 Q150.76 433.421 150.76 442.171 Q150.76 450.898 147.681 455.504 Q144.626 460.087 138.816 460.087 Q133.006 460.087 129.927 455.504 Q126.871 450.898 126.871 442.171 Q126.871 433.421 129.927 428.837 Q133.006 424.231 138.816 424.231 Z" fill="#000000" fill-rule="nonzero" fill-opacity="1" /><path clip-path="url(#clip460)" d="M65.0198 227.219 Q61.4087 227.219 59.58 230.784 Q57.7745 234.325 57.7745 241.455 Q57.7745 248.561 59.58 252.126 Q61.4087 255.668 65.0198 255.668 Q68.6541 255.668 70.4596 252.126 Q72.2883 248.561 72.2883 241.455 Q72.2883 234.325 70.4596 230.784 Q68.6541 227.219 65.0198 227.219 M65.0198 223.515 Q70.83 223.515 73.8855 228.122 Q76.9642 232.705 76.9642 241.455 Q76.9642 250.182 73.8855 254.788 Q70.83 259.371 65.0198 259.371 Q59.2097 259.371 56.131 254.788 Q53.0754 250.182 53.0754 241.455 Q53.0754 232.705 56.131 228.122 Q59.2097 223.515 65.0198 223.515 Z" fill="#000000" fill-rule="nonzero" fill-opacity="1" /><path clip-path="url(#clip460)" d="M85.1818 252.82 L90.066 252.82 L90.066 258.7 L85.1818 258.7 L85.1818 252.82 Z" fill="#000000" fill-rule="nonzero" fill-opacity="1" /><path clip-path="url(#clip460)" d="M101.061 254.765 L108.7 254.765 L108.7 228.399 L100.39 230.066 L100.39 225.807 L108.654 224.14 L113.33 224.14 L113.33 254.765 L120.969 254.765 L120.969 258.7 L101.061 258.7 L101.061 254.765 Z" fill="#000000" fill-rule="nonzero" fill-opacity="1" /><path clip-path="url(#clip460)" d="M134.441 254.765 L150.76 254.765 L150.76 258.7 L128.816 258.7 L128.816 254.765 Q131.478 252.01 136.061 247.381 Q140.668 242.728 141.848 241.385 Q144.093 238.862 144.973 237.126 Q145.876 235.367 145.876 233.677 Q145.876 230.922 143.931 229.186 Q142.01 227.45 138.908 227.45 Q136.709 227.45 134.256 228.214 Q131.825 228.978 129.047 230.529 L129.047 225.807 Q131.871 224.672 134.325 224.094 Q136.779 223.515 138.816 223.515 Q144.186 223.515 147.38 226.2 Q150.575 228.885 150.575 233.376 Q150.575 235.506 149.765 237.427 Q148.978 239.325 146.871 241.918 Q146.293 242.589 143.191 245.807 Q140.089 249.001 134.441 254.765 Z" fill="#000000" fill-rule="nonzero" fill-opacity="1" /><polyline clip-path="url(#clip462)" style="stroke:#009af9; stroke-linecap:round; stroke-linejoin:round; stroke-width:4; stroke-opacity:1; fill:none" points="248.062,1445.72 264.152,1423.79 280.241,1366.23 296.331,1283.6 312.421,1184.46 328.51,1075.68 344.6,962.686 360.69,849.737 376.78,740.085 392.869,636.162 408.959,539.724 425.049,451.976 441.138,373.671 457.228,305.202 473.318,246.677 489.407,197.98 505.497,158.82 521.587,128.78 537.677,107.349 553.766,93.9532 569.856,87.9763 585.946,88.7831 602.035,95.7328 618.125,108.191 634.215,125.54 650.304,147.184 666.394,172.557 682.484,201.125 698.574,232.387 714.663,265.88 730.753,301.175 746.843,337.88 762.932,375.638 779.022,414.127 795.112,453.058 811.201,492.171 827.291,531.238 843.381,570.057 859.471,608.453 875.56,646.273 891.65,683.389 907.74,719.69 923.829,755.084 939.919,789.498 956.009,822.871 972.099,855.158 988.188,886.324 1004.28,916.345 1020.37,945.209 1036.46,972.91 1052.55,999.45 1068.64,1024.84 1084.73,1049.08 1100.82,1072.21 1116.91,1094.24 1133,1115.2 1149.09,1135.11 1165.17,1154.01 1181.26,1171.93 1197.35,1188.9 1213.44,1204.95 1229.53,1220.13 1245.62,1234.47 1261.71,1247.99 1277.8,1260.75 1293.89,1272.76 1309.98,1284.07 1326.07,1294.72 1342.16,1304.72 1358.25,1314.12 1374.34,1322.94 1390.43,1331.22 1406.52,1338.98 1422.61,1346.25 1438.7,1353.07 1454.79,1359.45 1470.88,1365.41 1486.97,1370.99 1503.06,1376.21 1519.15,1381.08 1535.24,1385.64 1551.33,1389.88 1567.42,1393.85 1583.51,1397.54 1599.6,1400.99 1615.69,1404.2 1631.78,1407.19 1647.87,1409.98 1663.96,1412.57 1680.05,1414.98 1696.14,1417.23 1712.22,1419.31 1728.31,1421.25 1744.4,1423.06 1760.49,1424.73 1776.58,1426.29 1792.67,1427.73 1808.76,1429.07 1824.85,1430.31 1840.94,1431.47 1857.03,1432.54 1873.12,1433.53 1889.21,1434.45 1905.3,1435.3 1921.39,1436.09 1937.48,1436.82 1953.57,1437.5 1969.66,1438.13 1985.75,1438.71 2001.84,1439.25 2017.93,1439.74 2034.02,1440.2 2050.11,1440.63 2066.2,1441.02 2082.29,1441.38 2098.38,1441.72 2114.47,1442.03 2130.56,1442.32 2146.65,1442.58 2162.74,1442.83 2178.83,1443.05 2194.92,1443.26 2211.01,1443.45 2227.1,1443.63 2243.19,1443.8 2259.27,1443.95 2275.36,1444.09 2291.45,1444.22 "/>
<path clip-path="url(#clip460)" d="M1833.26 198.898 L2280.56 198.898 L2280.56 95.2176 L1833.26 95.2176  Z" fill="#ffffff" fill-rule="evenodd" fill-opacity="1"/>
<polyline clip-path="url(#clip460)" style="stroke:#000000; stroke-linecap:round; stroke-linejoin:round; stroke-width:4; stroke-opacity:1; fill:none" points="1833.26,198.898 2280.56,198.898 2280.56,95.2176 1833.26,95.2176 1833.26,198.898 "/>
<polyline clip-path="url(#clip460)" style="stroke:#009af9; stroke-linecap:round; stroke-linejoin:round; stroke-width:4; stroke-opacity:1; fill:none" points="1857.33,147.058 2001.73,147.058 "/>
<path clip-path="url(#clip460)" d="M2044.22 139.176 L2044.22 143.203 Q2042.42 142.277 2040.47 141.815 Q2038.53 141.352 2036.44 141.352 Q2033.27 141.352 2031.68 142.324 Q2030.1 143.296 2030.1 145.24 Q2030.1 146.722 2031.24 147.578 Q2032.37 148.412 2035.8 149.176 L2037.25 149.5 Q2041.79 150.472 2043.69 152.254 Q2045.61 154.014 2045.61 157.185 Q2045.61 160.796 2042.74 162.902 Q2039.89 165.009 2034.89 165.009 Q2032.81 165.009 2030.54 164.592 Q2028.3 164.199 2025.8 163.388 L2025.8 158.99 Q2028.16 160.217 2030.45 160.842 Q2032.74 161.444 2034.99 161.444 Q2038 161.444 2039.62 160.426 Q2041.24 159.384 2041.24 157.509 Q2041.24 155.773 2040.06 154.847 Q2038.9 153.921 2034.94 153.064 L2033.46 152.717 Q2029.5 151.884 2027.74 150.171 Q2025.98 148.435 2025.98 145.426 Q2025.98 141.768 2028.57 139.778 Q2031.17 137.787 2035.94 137.787 Q2038.3 137.787 2040.38 138.134 Q2042.46 138.481 2044.22 139.176 Z" fill="#000000" fill-rule="nonzero" fill-opacity="1" /><path clip-path="url(#clip460)" d="M2073.94 148.689 L2073.94 164.338 L2069.68 164.338 L2069.68 148.828 Q2069.68 145.148 2068.25 143.319 Q2066.81 141.49 2063.94 141.49 Q2060.5 141.49 2058.5 143.69 Q2056.51 145.889 2056.51 149.685 L2056.51 164.338 L2052.23 164.338 L2052.23 128.319 L2056.51 128.319 L2056.51 142.44 Q2058.04 140.102 2060.1 138.944 Q2062.18 137.787 2064.89 137.787 Q2069.36 137.787 2071.65 140.565 Q2073.94 143.319 2073.94 148.689 Z" fill="#000000" fill-rule="nonzero" fill-opacity="1" /><path clip-path="url(#clip460)" d="M2082.44 138.412 L2086.7 138.412 L2086.7 164.338 L2082.44 164.338 L2082.44 138.412 M2082.44 128.319 L2086.7 128.319 L2086.7 133.713 L2082.44 133.713 L2082.44 128.319 Z" fill="#000000" fill-rule="nonzero" fill-opacity="1" /><path clip-path="url(#clip460)" d="M2117.16 148.689 L2117.16 164.338 L2112.9 164.338 L2112.9 148.828 Q2112.9 145.148 2111.47 143.319 Q2110.03 141.49 2107.16 141.49 Q2103.71 141.49 2101.72 143.69 Q2099.73 145.889 2099.73 149.685 L2099.73 164.338 L2095.45 164.338 L2095.45 138.412 L2099.73 138.412 L2099.73 142.44 Q2101.26 140.102 2103.32 138.944 Q2105.4 137.787 2108.11 137.787 Q2112.58 137.787 2114.87 140.565 Q2117.16 143.319 2117.16 148.689 Z" fill="#000000" fill-rule="nonzero" fill-opacity="1" /><path clip-path="url(#clip460)" d="M2135.7 141.398 Q2132.28 141.398 2130.29 144.083 Q2128.3 146.745 2128.3 151.398 Q2128.3 156.051 2130.26 158.736 Q2132.25 161.398 2135.7 161.398 Q2139.11 161.398 2141.1 158.713 Q2143.09 156.027 2143.09 151.398 Q2143.09 146.791 2141.1 144.106 Q2139.11 141.398 2135.7 141.398 M2135.7 137.787 Q2141.26 137.787 2144.43 141.398 Q2147.6 145.009 2147.6 151.398 Q2147.6 157.764 2144.43 161.398 Q2141.26 165.009 2135.7 165.009 Q2130.12 165.009 2126.95 161.398 Q2123.8 157.764 2123.8 151.398 Q2123.8 145.009 2126.95 141.398 Q2130.12 137.787 2135.7 137.787 Z" fill="#000000" fill-rule="nonzero" fill-opacity="1" /><path clip-path="url(#clip460)" d="M2152.81 138.412 L2173.04 138.412 L2173.04 142.301 L2157.02 160.935 L2173.04 160.935 L2173.04 164.338 L2152.23 164.338 L2152.23 160.449 L2168.25 141.815 L2152.81 141.815 L2152.81 138.412 Z" fill="#000000" fill-rule="nonzero" fill-opacity="1" /><path clip-path="url(#clip460)" d="M2179.11 154.106 L2179.11 138.412 L2183.36 138.412 L2183.36 153.944 Q2183.36 157.625 2184.8 159.476 Q2186.24 161.305 2189.11 161.305 Q2192.55 161.305 2194.55 159.106 Q2196.56 156.907 2196.56 153.111 L2196.56 138.412 L2200.82 138.412 L2200.82 164.338 L2196.56 164.338 L2196.56 160.356 Q2195.01 162.717 2192.95 163.875 Q2190.91 165.009 2188.2 165.009 Q2183.74 165.009 2181.42 162.231 Q2179.11 159.453 2179.11 154.106 M2189.82 137.787 L2189.82 137.787 Z" fill="#000000" fill-rule="nonzero" fill-opacity="1" /><path clip-path="url(#clip460)" d="M2209.43 128.319 L2213.71 128.319 L2213.71 149.592 L2226.42 138.412 L2231.86 138.412 L2218.11 150.541 L2232.44 164.338 L2226.88 164.338 L2213.71 151.676 L2213.71 164.338 L2209.43 164.338 L2209.43 128.319 Z" fill="#000000" fill-rule="nonzero" fill-opacity="1" /><path clip-path="url(#clip460)" d="M2247.99 151.305 Q2242.83 151.305 2240.84 152.486 Q2238.85 153.666 2238.85 156.514 Q2238.85 158.782 2240.33 160.125 Q2241.84 161.444 2244.41 161.444 Q2247.95 161.444 2250.08 158.944 Q2252.23 156.421 2252.23 152.254 L2252.23 151.305 L2247.99 151.305 M2256.49 149.546 L2256.49 164.338 L2252.23 164.338 L2252.23 160.402 Q2250.77 162.763 2248.6 163.898 Q2246.42 165.009 2243.27 165.009 Q2239.29 165.009 2236.93 162.787 Q2234.59 160.541 2234.59 156.791 Q2234.59 152.416 2237.51 150.194 Q2240.45 147.972 2246.26 147.972 L2252.23 147.972 L2252.23 147.555 Q2252.23 144.615 2250.29 143.018 Q2248.36 141.398 2244.87 141.398 Q2242.65 141.398 2240.54 141.93 Q2238.43 142.463 2236.49 143.527 L2236.49 139.592 Q2238.83 138.69 2241.03 138.25 Q2243.23 137.787 2245.31 137.787 Q2250.93 137.787 2253.71 140.703 Q2256.49 143.62 2256.49 149.546 Z" fill="#000000" fill-rule="nonzero" fill-opacity="1" /></svg>
