<?xml version="1.0" encoding="utf-8"?>
<svg xmlns="http://www.w3.org/2000/svg" xmlns:xlink="http://www.w3.org/1999/xlink" width="600" height="400" viewBox="0 0 2400 1600">
<defs>
  <clipPath id="clip490">
    <rect x="0" y="0" width="2400" height="1600"/>
  </clipPath>
</defs>
<path clip-path="url(#clip490)" d="M0 1600 L2400 1600 L2400 0 L0 0  Z" fill="#ffffff" fill-rule="evenodd" fill-opacity="1"/>
<defs>
  <clipPath id="clip491">
    <rect x="480" y="0" width="1681" height="1600"/>
  </clipPath>
</defs>
<path clip-path="url(#clip490)" d="M156.112 1486.45 L2352.76 1486.45 L2352.76 47.2441 L156.112 47.2441  Z" fill="#ffffff" fill-rule="evenodd" fill-opacity="1"/>
<defs>
  <clipPath id="clip492">
    <rect x="156" y="47" width="2198" height="1440"/>
  </clipPath>
</defs>
<polyline clip-path="url(#clip492)" style="stroke:#000000; stroke-linecap:round; stroke-linejoin:round; stroke-width:2; stroke-opacity:0.1; fill:none" points="448.736,1486.45 448.736,47.2441 "/>
<polyline clip-path="url(#clip492)" style="stroke:#000000; stroke-linecap:round; stroke-linejoin:round; stroke-width:2; stroke-opacity:0.1; fill:none" points="833.556,1486.45 833.556,47.2441 "/>
<polyline clip-path="url(#clip492)" style="stroke:#000000; stroke-linecap:round; stroke-linejoin:round; stroke-width:2; stroke-opacity:0.1; fill:none" points="1218.38,1486.45 1218.38,47.2441 "/>
<polyline clip-path="url(#clip492)" style="stroke:#000000; stroke-linecap:round; stroke-linejoin:round; stroke-width:2; stroke-opacity:0.1; fill:none" points="1603.2,1486.45 1603.2,47.2441 "/>
<polyline clip-path="url(#clip492)" style="stroke:#000000; stroke-linecap:round; stroke-linejoin:round; stroke-width:2; stroke-opacity:0.1; fill:none" points="1988.02,1486.45 1988.02,47.2441 "/>
<polyline clip-path="url(#clip492)" style="stroke:#000000; stroke-linecap:round; stroke-linejoin:round; stroke-width:2; stroke-opacity:0.1; fill:none" points="156.112,1486.45 2352.76,1486.45 "/>
<polyline clip-path="url(#clip492)" style="stroke:#000000; stroke-linecap:round; stroke-linejoin:round; stroke-width:2; stroke-opacity:0.1; fill:none" points="156.112,1050.33 2352.76,1050.33 "/>
<polyline clip-path="url(#clip492)" style="stroke:#000000; stroke-linecap:round; stroke-linejoin:round; stroke-width:2; stroke-opacity:0.1; fill:none" points="156.112,614.203 2352.76,614.203 "/>
<polyline clip-path="url(#clip492)" style="stroke:#000000; stroke-linecap:round; stroke-linejoin:round; stroke-width:2; stroke-opacity:0.1; fill:none" points="156.112,178.081 2352.76,178.081 "/>
<polyline clip-path="url(#clip490)" style="stroke:#000000; stroke-linecap:round; stroke-linejoin:round; stroke-width:4; stroke-opacity:1; fill:none" points="156.112,1486.45 2352.76,1486.45 "/>
<polyline clip-path="url(#clip490)" style="stroke:#000000; stroke-linecap:round; stroke-linejoin:round; stroke-width:4; stroke-opacity:1; fill:none" points="448.736,1486.45 448.736,1467.55 "/>
<polyline clip-path="url(#clip490)" style="stroke:#000000; stroke-linecap:round; stroke-linejoin:round; stroke-width:4; stroke-opacity:1; fill:none" points="833.556,1486.45 833.556,1467.55 "/>
<polyline clip-path="url(#clip490)" style="stroke:#000000; stroke-linecap:round; stroke-linejoin:round; stroke-width:4; stroke-opacity:1; fill:none" points="1218.38,1486.45 1218.38,1467.55 "/>
<polyline clip-path="url(#clip490)" style="stroke:#000000; stroke-linecap:round; stroke-linejoin:round; stroke-width:4; stroke-opacity:1; fill:none" points="1603.2,1486.45 1603.2,1467.55 "/>
<polyline clip-path="url(#clip490)" style="stroke:#000000; stroke-linecap:round; stroke-linejoin:round; stroke-width:4; stroke-opacity:1; fill:none" points="1988.02,1486.45 1988.02,1467.55 "/>
<path clip-path="url(#clip490)" d="M448.736 1517.37 Q445.125 1517.37 443.296 1520.93 Q441.491 1524.47 441.491 1531.6 Q441.491 1538.71 443.296 1542.27 Q445.125 1545.82 448.736 1545.82 Q452.37 1545.82 454.176 1542.27 Q456.004 1538.71 456.004 1531.6 Q456.004 1524.47 454.176 1520.93 Q452.37 1517.37 448.736 1517.37 M448.736 1513.66 Q454.546 1513.66 457.602 1518.27 Q460.68 1522.85 460.68 1531.6 Q460.68 1540.33 457.602 1544.94 Q454.546 1549.52 448.736 1549.52 Q442.926 1549.52 439.847 1544.94 Q436.791 1540.33 436.791 1531.6 Q436.791 1522.85 439.847 1518.27 Q442.926 1513.66 448.736 1513.66 Z" fill="#000000" fill-rule="nonzero" fill-opacity="1" /><path clip-path="url(#clip490)" d="M837.804 1530.21 Q841.16 1530.93 843.035 1533.2 Q844.933 1535.47 844.933 1538.8 Q844.933 1543.92 841.415 1546.72 Q837.896 1549.52 831.415 1549.52 Q829.239 1549.52 826.924 1549.08 Q824.632 1548.66 822.179 1547.81 L822.179 1543.29 Q824.123 1544.43 826.438 1545.01 Q828.753 1545.58 831.276 1545.58 Q835.674 1545.58 837.966 1543.85 Q840.281 1542.11 840.281 1538.8 Q840.281 1535.75 838.128 1534.03 Q835.998 1532.3 832.179 1532.3 L828.151 1532.3 L828.151 1528.45 L832.364 1528.45 Q835.813 1528.45 837.642 1527.09 Q839.47 1525.7 839.47 1523.11 Q839.47 1520.45 837.572 1519.03 Q835.697 1517.6 832.179 1517.6 Q830.257 1517.6 828.058 1518.01 Q825.859 1518.43 823.22 1519.31 L823.22 1515.14 Q825.882 1514.4 828.197 1514.03 Q830.535 1513.66 832.595 1513.66 Q837.919 1513.66 841.021 1516.09 Q844.123 1518.5 844.123 1522.62 Q844.123 1525.49 842.48 1527.48 Q840.836 1529.45 837.804 1530.21 Z" fill="#000000" fill-rule="nonzero" fill-opacity="1" /><path clip-path="url(#clip490)" d="M1218.78 1529.7 Q1215.63 1529.7 1213.78 1531.86 Q1211.95 1534.01 1211.95 1537.76 Q1211.95 1541.49 1213.78 1543.66 Q1215.63 1545.82 1218.78 1545.82 Q1221.93 1545.82 1223.76 1543.66 Q1225.61 1541.49 1225.61 1537.76 Q1225.61 1534.01 1223.76 1531.86 Q1221.93 1529.7 1218.78 1529.7 M1228.06 1515.05 L1228.06 1519.31 Q1226.3 1518.48 1224.5 1518.04 Q1222.72 1517.6 1220.96 1517.6 Q1216.33 1517.6 1213.87 1520.72 Q1211.44 1523.85 1211.1 1530.17 Q1212.46 1528.15 1214.52 1527.09 Q1216.58 1526 1219.06 1526 Q1224.27 1526 1227.28 1529.17 Q1230.31 1532.32 1230.31 1537.76 Q1230.31 1543.08 1227.16 1546.3 Q1224.01 1549.52 1218.78 1549.52 Q1212.79 1549.52 1209.61 1544.94 Q1206.44 1540.33 1206.44 1531.6 Q1206.44 1523.41 1210.33 1518.55 Q1214.22 1513.66 1220.77 1513.66 Q1222.53 1513.66 1224.31 1514.01 Q1226.12 1514.36 1228.06 1515.05 Z" fill="#000000" fill-rule="nonzero" fill-opacity="1" /><path clip-path="url(#clip490)" d="M1593.5 1548.13 L1593.5 1543.87 Q1595.26 1544.7 1597.06 1545.14 Q1598.87 1545.58 1600.6 1545.58 Q1605.23 1545.58 1607.66 1542.48 Q1610.12 1539.36 1610.46 1533.01 Q1609.12 1535.01 1607.06 1536.07 Q1605 1537.13 1602.5 1537.13 Q1597.32 1537.13 1594.28 1534.01 Q1591.28 1530.86 1591.28 1525.42 Q1591.28 1520.1 1594.42 1516.88 Q1597.57 1513.66 1602.8 1513.66 Q1608.8 1513.66 1611.95 1518.27 Q1615.12 1522.85 1615.12 1531.6 Q1615.12 1539.77 1611.23 1544.66 Q1607.36 1549.52 1600.81 1549.52 Q1599.05 1549.52 1597.25 1549.17 Q1595.44 1548.82 1593.5 1548.13 M1602.8 1533.48 Q1605.95 1533.48 1607.78 1531.32 Q1609.63 1529.17 1609.63 1525.42 Q1609.63 1521.7 1607.78 1519.54 Q1605.95 1517.37 1602.8 1517.37 Q1599.65 1517.37 1597.8 1519.54 Q1595.97 1521.7 1595.97 1525.42 Q1595.97 1529.17 1597.8 1531.32 Q1599.65 1533.48 1602.8 1533.48 Z" fill="#000000" fill-rule="nonzero" fill-opacity="1" /><path clip-path="url(#clip490)" d="M1963.5 1544.91 L1971.14 1544.91 L1971.14 1518.55 L1962.83 1520.21 L1962.83 1515.95 L1971.1 1514.29 L1975.77 1514.29 L1975.77 1544.91 L1983.41 1544.91 L1983.41 1548.85 L1963.5 1548.85 L1963.5 1544.91 Z" fill="#000000" fill-rule="nonzero" fill-opacity="1" /><path clip-path="url(#clip490)" d="M1996.88 1544.91 L2013.2 1544.91 L2013.2 1548.85 L1991.26 1548.85 L1991.26 1544.91 Q1993.92 1542.16 1998.5 1537.53 Q2003.11 1532.88 2004.29 1531.53 Q2006.53 1529.01 2007.41 1527.27 Q2008.32 1525.51 2008.32 1523.82 Q2008.32 1521.07 2006.37 1519.33 Q2004.45 1517.6 2001.35 1517.6 Q1999.15 1517.6 1996.7 1518.36 Q1994.27 1519.13 1991.49 1520.68 L1991.49 1515.95 Q1994.31 1514.82 1996.77 1514.24 Q1999.22 1513.66 2001.26 1513.66 Q2006.63 1513.66 2009.82 1516.35 Q2013.02 1519.03 2013.02 1523.52 Q2013.02 1525.65 2012.21 1527.57 Q2011.42 1529.47 2009.31 1532.07 Q2008.73 1532.74 2005.63 1535.95 Q2002.53 1539.15 1996.88 1544.91 Z" fill="#000000" fill-rule="nonzero" fill-opacity="1" /><polyline clip-path="url(#clip490)" style="stroke:#000000; stroke-linecap:round; stroke-linejoin:round; stroke-width:4; stroke-opacity:1; fill:none" points="156.112,1486.45 156.112,47.2441 "/>
<polyline clip-path="url(#clip490)" style="stroke:#000000; stroke-linecap:round; stroke-linejoin:round; stroke-width:4; stroke-opacity:1; fill:none" points="156.112,1486.45 175.01,1486.45 "/>
<polyline clip-path="url(#clip490)" style="stroke:#000000; stroke-linecap:round; stroke-linejoin:round; stroke-width:4; stroke-opacity:1; fill:none" points="156.112,1050.33 175.01,1050.33 "/>
<polyline clip-path="url(#clip490)" style="stroke:#000000; stroke-linecap:round; stroke-linejoin:round; stroke-width:4; stroke-opacity:1; fill:none" points="156.112,614.203 175.01,614.203 "/>
<polyline clip-path="url(#clip490)" style="stroke:#000000; stroke-linecap:round; stroke-linejoin:round; stroke-width:4; stroke-opacity:1; fill:none" points="156.112,178.081 175.01,178.081 "/>
<path clip-path="url(#clip490)" d="M62.9365 1472.25 Q59.3254 1472.25 57.4967 1475.81 Q55.6912 1479.35 55.6912 1486.48 Q55.6912 1493.59 57.4967 1497.15 Q59.3254 1500.7 62.9365 1500.7 Q66.5707 1500.7 68.3763 1497.15 Q70.205 1493.59 70.205 1486.48 Q70.205 1479.35 68.3763 1475.81 Q66.5707 1472.25 62.9365 1472.25 M62.9365 1468.54 Q68.7467 1468.54 71.8022 1473.15 Q74.8809 1477.73 74.8809 1486.48 Q74.8809 1495.21 71.8022 1499.82 Q68.7467 1504.4 62.9365 1504.4 Q57.1264 1504.4 54.0477 1499.82 Q50.9921 1495.21 50.9921 1486.48 Q50.9921 1477.73 54.0477 1473.15 Q57.1264 1468.54 62.9365 1468.54 Z" fill="#000000" fill-rule="nonzero" fill-opacity="1" /><path clip-path="url(#clip490)" d="M83.0984 1497.85 L87.9827 1497.85 L87.9827 1503.73 L83.0984 1503.73 L83.0984 1497.85 Z" fill="#000000" fill-rule="nonzero" fill-opacity="1" /><path clip-path="url(#clip490)" d="M108.168 1472.25 Q104.557 1472.25 102.728 1475.81 Q100.922 1479.35 100.922 1486.48 Q100.922 1493.59 102.728 1497.15 Q104.557 1500.7 108.168 1500.7 Q111.802 1500.7 113.608 1497.15 Q115.436 1493.59 115.436 1486.48 Q115.436 1479.35 113.608 1475.81 Q111.802 1472.25 108.168 1472.25 M108.168 1468.54 Q113.978 1468.54 117.033 1473.15 Q120.112 1477.73 120.112 1486.48 Q120.112 1495.21 117.033 1499.82 Q113.978 1504.4 108.168 1504.4 Q102.358 1504.4 99.2789 1499.82 Q96.2234 1495.21 96.2234 1486.48 Q96.2234 1477.73 99.2789 1473.15 Q102.358 1468.54 108.168 1468.54 Z" fill="#000000" fill-rule="nonzero" fill-opacity="1" /><path clip-path="url(#clip490)" d="M64.1634 1036.12 Q60.5523 1036.12 58.7236 1039.69 Q56.918 1043.23 56.918 1050.36 Q56.918 1057.47 58.7236 1061.03 Q60.5523 1064.57 64.1634 1064.57 Q67.7976 1064.57 69.6031 1061.03 Q71.4318 1057.47 71.4318 1050.36 Q71.4318 1043.23 69.6031 1039.69 Q67.7976 1036.12 64.1634 1036.12 M64.1634 1032.42 Q69.9735 1032.42 73.029 1037.03 Q76.1077 1041.61 76.1077 1050.36 Q76.1077 1059.09 73.029 1063.69 Q69.9735 1068.28 64.1634 1068.28 Q58.3532 1068.28 55.2745 1063.69 Q52.219 1059.09 52.219 1050.36 Q52.219 1041.61 55.2745 1037.03 Q58.3532 1032.42 64.1634 1032.42 Z" fill="#000000" fill-rule="nonzero" fill-opacity="1" /><path clip-path="url(#clip490)" d="M84.3253 1061.73 L89.2095 1061.73 L89.2095 1067.61 L84.3253 1067.61 L84.3253 1061.73 Z" fill="#000000" fill-rule="nonzero" fill-opacity="1" /><path clip-path="url(#clip490)" d="M100.205 1063.67 L107.844 1063.67 L107.844 1037.3 L99.5335 1038.97 L99.5335 1034.71 L107.797 1033.05 L112.473 1033.05 L112.473 1063.67 L120.112 1063.67 L120.112 1067.61 L100.205 1067.61 L100.205 1063.67 Z" fill="#000000" fill-rule="nonzero" fill-opacity="1" /><path clip-path="url(#clip490)" d="M64.5337 600.002 Q60.9226 600.002 59.0939 603.567 Q57.2884 607.108 57.2884 614.238 Q57.2884 621.344 59.0939 624.909 Q60.9226 628.451 64.5337 628.451 Q68.168 628.451 69.9735 624.909 Q71.8022 621.344 71.8022 614.238 Q71.8022 607.108 69.9735 603.567 Q68.168 600.002 64.5337 600.002 M64.5337 596.298 Q70.3439 596.298 73.3994 600.905 Q76.4781 605.488 76.4781 614.238 Q76.4781 622.965 73.3994 627.571 Q70.3439 632.154 64.5337 632.154 Q58.7236 632.154 55.6449 627.571 Q52.5893 622.965 52.5893 614.238 Q52.5893 605.488 55.6449 600.905 Q58.7236 596.298 64.5337 596.298 Z" fill="#000000" fill-rule="nonzero" fill-opacity="1" /><path clip-path="url(#clip490)" d="M84.6956 625.604 L89.5799 625.604 L89.5799 631.483 L84.6956 631.483 L84.6956 625.604 Z" fill="#000000" fill-rule="nonzero" fill-opacity="1" /><path clip-path="url(#clip490)" d="M103.793 627.548 L120.112 627.548 L120.112 631.483 L98.1678 631.483 L98.1678 627.548 Q100.83 624.793 105.413 620.164 Q110.02 615.511 111.2 614.168 Q113.445 611.645 114.325 609.909 Q115.228 608.15 115.228 606.46 Q115.228 603.706 113.283 601.969 Q111.362 600.233 108.26 600.233 Q106.061 600.233 103.608 600.997 Q101.177 601.761 98.3993 603.312 L98.3993 598.59 Q101.223 597.456 103.677 596.877 Q106.131 596.298 108.168 596.298 Q113.538 596.298 116.733 598.983 Q119.927 601.669 119.927 606.159 Q119.927 608.289 119.117 610.21 Q118.33 612.108 116.223 614.701 Q115.645 615.372 112.543 618.59 Q109.441 621.784 103.793 627.548 Z" fill="#000000" fill-rule="nonzero" fill-opacity="1" /><path clip-path="url(#clip490)" d="M63.5847 163.879 Q59.9736 163.879 58.1449 167.444 Q56.3393 170.986 56.3393 178.116 Q56.3393 185.222 58.1449 188.787 Q59.9736 192.328 63.5847 192.328 Q67.2189 192.328 69.0244 188.787 Q70.8531 185.222 70.8531 178.116 Q70.8531 170.986 69.0244 167.444 Q67.2189 163.879 63.5847 163.879 M63.5847 160.176 Q69.3948 160.176 72.4503 164.782 Q75.529 169.366 75.529 178.116 Q75.529 186.842 72.4503 191.449 Q69.3948 196.032 63.5847 196.032 Q57.7745 196.032 54.6958 191.449 Q51.6403 186.842 51.6403 178.116 Q51.6403 169.366 54.6958 164.782 Q57.7745 160.176 63.5847 160.176 Z" fill="#000000" fill-rule="nonzero" fill-opacity="1" /><path clip-path="url(#clip490)" d="M83.7466 189.481 L88.6308 189.481 L88.6308 195.361 L83.7466 195.361 L83.7466 189.481 Z" fill="#000000" fill-rule="nonzero" fill-opacity="1" /><path clip-path="url(#clip490)" d="M112.983 176.727 Q116.339 177.444 118.214 179.713 Q120.112 181.981 120.112 185.315 Q120.112 190.43 116.594 193.231 Q113.075 196.032 106.594 196.032 Q104.418 196.032 102.103 195.592 Q99.8113 195.176 97.3576 194.319 L97.3576 189.805 Q99.3021 190.94 101.617 191.518 Q103.932 192.097 106.455 192.097 Q110.853 192.097 113.145 190.361 Q115.459 188.625 115.459 185.315 Q115.459 182.259 113.307 180.546 Q111.177 178.81 107.358 178.81 L103.33 178.81 L103.33 174.967 L107.543 174.967 Q110.992 174.967 112.82 173.602 Q114.649 172.213 114.649 169.62 Q114.649 166.958 112.751 165.546 Q110.876 164.111 107.358 164.111 Q105.436 164.111 103.237 164.528 Q101.038 164.944 98.3993 165.824 L98.3993 161.657 Q101.061 160.917 103.376 160.546 Q105.714 160.176 107.774 160.176 Q113.098 160.176 116.2 162.606 Q119.302 165.014 119.302 169.134 Q119.302 172.004 117.658 173.995 Q116.015 175.963 112.983 176.727 Z" fill="#000000" fill-rule="nonzero" fill-opacity="1" /><path clip-path="url(#clip492)" d="M602.664 1442.84 L602.664 1486.45 L615.491 1486.45 L615.491 1442.84 L602.664 1442.84 L602.664 1442.84  Z" fill="#009af9" fill-rule="evenodd" fill-opacity="1"/>
<polyline clip-path="url(#clip492)" style="stroke:#000000; stroke-linecap:round; stroke-linejoin:round; stroke-width:4; stroke-opacity:1; fill:none" points="602.664,1442.84 602.664,1486.45 615.491,1486.45 615.491,1442.84 602.664,1442.84 "/>
<path clip-path="url(#clip492)" d="M615.491 1486.45 L615.491 1486.45 L628.319 1486.45 L628.319 1486.45 L615.491 1486.45 L615.491 1486.45  Z" fill="#009af9" fill-rule="evenodd" fill-opacity="1"/>
<polyline clip-path="url(#clip492)" style="stroke:#000000; stroke-linecap:round; stroke-linejoin:round; stroke-width:4; stroke-opacity:1; fill:none" points="615.491,1486.45 615.491,1486.45 628.319,1486.45 615.491,1486.45 "/>
<path clip-path="url(#clip492)" d="M628.319 1486.45 L628.319 1486.45 L641.146 1486.45 L641.146 1486.45 L628.319 1486.45 L628.319 1486.45  Z" fill="#009af9" fill-rule="evenodd" fill-opacity="1"/>
<polyline clip-path="url(#clip492)" style="stroke:#000000; stroke-linecap:round; stroke-linejoin:round; stroke-width:4; stroke-opacity:1; fill:none" points="628.319,1486.45 628.319,1486.45 641.146,1486.45 628.319,1486.45 "/>
<path clip-path="url(#clip492)" d="M641.146 1486.45 L641.146 1486.45 L653.973 1486.45 L653.973 1486.45 L641.146 1486.45 L641.146 1486.45  Z" fill="#009af9" fill-rule="evenodd" fill-opacity="1"/>
<polyline clip-path="url(#clip492)" style="stroke:#000000; stroke-linecap:round; stroke-linejoin:round; stroke-width:4; stroke-opacity:1; fill:none" points="641.146,1486.45 641.146,1486.45 653.973,1486.45 641.146,1486.45 "/>
<path clip-path="url(#clip492)" d="M653.973 1486.45 L653.973 1486.45 L666.801 1486.45 L666.801 1486.45 L653.973 1486.45 L653.973 1486.45  Z" fill="#009af9" fill-rule="evenodd" fill-opacity="1"/>
<polyline clip-path="url(#clip492)" style="stroke:#000000; stroke-linecap:round; stroke-linejoin:round; stroke-width:4; stroke-opacity:1; fill:none" points="653.973,1486.45 653.973,1486.45 666.801,1486.45 653.973,1486.45 "/>
<path clip-path="url(#clip492)" d="M666.801 1486.45 L666.801 1486.45 L679.628 1486.45 L679.628 1486.45 L666.801 1486.45 L666.801 1486.45  Z" fill="#009af9" fill-rule="evenodd" fill-opacity="1"/>
<polyline clip-path="url(#clip492)" style="stroke:#000000; stroke-linecap:round; stroke-linejoin:round; stroke-width:4; stroke-opacity:1; fill:none" points="666.801,1486.45 666.801,1486.45 679.628,1486.45 666.801,1486.45 "/>
<path clip-path="url(#clip492)" d="M679.628 1486.45 L679.628 1486.45 L692.455 1486.45 L692.455 1486.45 L679.628 1486.45 L679.628 1486.45  Z" fill="#009af9" fill-rule="evenodd" fill-opacity="1"/>
<polyline clip-path="url(#clip492)" style="stroke:#000000; stroke-linecap:round; stroke-linejoin:round; stroke-width:4; stroke-opacity:1; fill:none" points="679.628,1486.45 679.628,1486.45 692.455,1486.45 679.628,1486.45 "/>
<path clip-path="url(#clip492)" d="M692.455 1442.84 L692.455 1486.45 L705.283 1486.45 L705.283 1442.84 L692.455 1442.84 L692.455 1442.84  Z" fill="#009af9" fill-rule="evenodd" fill-opacity="1"/>
<polyline clip-path="url(#clip492)" style="stroke:#000000; stroke-linecap:round; stroke-linejoin:round; stroke-width:4; stroke-opacity:1; fill:none" points="692.455,1442.84 692.455,1486.45 705.283,1486.45 705.283,1442.84 692.455,1442.84 "/>
<path clip-path="url(#clip492)" d="M705.283 1442.84 L705.283 1486.45 L718.11 1486.45 L718.11 1442.84 L705.283 1442.84 L705.283 1442.84  Z" fill="#009af9" fill-rule="evenodd" fill-opacity="1"/>
<polyline clip-path="url(#clip492)" style="stroke:#000000; stroke-linecap:round; stroke-linejoin:round; stroke-width:4; stroke-opacity:1; fill:none" points="705.283,1442.84 705.283,1486.45 718.11,1486.45 718.11,1442.84 705.283,1442.84 "/>
<path clip-path="url(#clip492)" d="M718.11 1486.45 L718.11 1486.45 L730.937 1486.45 L730.937 1486.45 L718.11 1486.45 L718.11 1486.45  Z" fill="#009af9" fill-rule="evenodd" fill-opacity="1"/>
<polyline clip-path="url(#clip492)" style="stroke:#000000; stroke-linecap:round; stroke-linejoin:round; stroke-width:4; stroke-opacity:1; fill:none" points="718.11,1486.45 718.11,1486.45 730.937,1486.45 718.11,1486.45 "/>
<path clip-path="url(#clip492)" d="M730.937 1486.45 L730.937 1486.45 L743.765 1486.45 L743.765 1486.45 L730.937 1486.45 L730.937 1486.45  Z" fill="#009af9" fill-rule="evenodd" fill-opacity="1"/>
<polyline clip-path="url(#clip492)" style="stroke:#000000; stroke-linecap:round; stroke-linejoin:round; stroke-width:4; stroke-opacity:1; fill:none" points="730.937,1486.45 730.937,1486.45 743.765,1486.45 730.937,1486.45 "/>
<path clip-path="url(#clip492)" d="M743.765 1442.84 L743.765 1486.45 L756.592 1486.45 L756.592 1442.84 L743.765 1442.84 L743.765 1442.84  Z" fill="#009af9" fill-rule="evenodd" fill-opacity="1"/>
<polyline clip-path="url(#clip492)" style="stroke:#000000; stroke-linecap:round; stroke-linejoin:round; stroke-width:4; stroke-opacity:1; fill:none" points="743.765,1442.84 743.765,1486.45 756.592,1486.45 756.592,1442.84 743.765,1442.84 "/>
<path clip-path="url(#clip492)" d="M756.592 1355.61 L756.592 1486.45 L769.419 1486.45 L769.419 1355.61 L756.592 1355.61 L756.592 1355.61  Z" fill="#009af9" fill-rule="evenodd" fill-opacity="1"/>
<polyline clip-path="url(#clip492)" style="stroke:#000000; stroke-linecap:round; stroke-linejoin:round; stroke-width:4; stroke-opacity:1; fill:none" points="756.592,1355.61 756.592,1486.45 769.419,1486.45 769.419,1355.61 756.592,1355.61 "/>
<path clip-path="url(#clip492)" d="M769.419 1486.45 L769.419 1486.45 L782.247 1486.45 L782.247 1486.45 L769.419 1486.45 L769.419 1486.45  Z" fill="#009af9" fill-rule="evenodd" fill-opacity="1"/>
<polyline clip-path="url(#clip492)" style="stroke:#000000; stroke-linecap:round; stroke-linejoin:round; stroke-width:4; stroke-opacity:1; fill:none" points="769.419,1486.45 769.419,1486.45 782.247,1486.45 769.419,1486.45 "/>
<path clip-path="url(#clip492)" d="M782.247 1442.84 L782.247 1486.45 L795.074 1486.45 L795.074 1442.84 L782.247 1442.84 L782.247 1442.84  Z" fill="#009af9" fill-rule="evenodd" fill-opacity="1"/>
<polyline clip-path="url(#clip492)" style="stroke:#000000; stroke-linecap:round; stroke-linejoin:round; stroke-width:4; stroke-opacity:1; fill:none" points="782.247,1442.84 782.247,1486.45 795.074,1486.45 795.074,1442.84 782.247,1442.84 "/>
<path clip-path="url(#clip492)" d="M795.074 1486.45 L795.074 1486.45 L807.901 1486.45 L807.901 1486.45 L795.074 1486.45 L795.074 1486.45  Z" fill="#009af9" fill-rule="evenodd" fill-opacity="1"/>
<polyline clip-path="url(#clip492)" style="stroke:#000000; stroke-linecap:round; stroke-linejoin:round; stroke-width:4; stroke-opacity:1; fill:none" points="795.074,1486.45 795.074,1486.45 807.901,1486.45 795.074,1486.45 "/>
<path clip-path="url(#clip492)" d="M807.901 1486.45 L807.901 1486.45 L820.729 1486.45 L820.729 1486.45 L807.901 1486.45 L807.901 1486.45  Z" fill="#009af9" fill-rule="evenodd" fill-opacity="1"/>
<polyline clip-path="url(#clip492)" style="stroke:#000000; stroke-linecap:round; stroke-linejoin:round; stroke-width:4; stroke-opacity:1; fill:none" points="807.901,1486.45 807.901,1486.45 820.729,1486.45 807.901,1486.45 "/>
<path clip-path="url(#clip492)" d="M820.729 1355.61 L820.729 1486.45 L833.556 1486.45 L833.556 1355.61 L820.729 1355.61 L820.729 1355.61  Z" fill="#009af9" fill-rule="evenodd" fill-opacity="1"/>
<polyline clip-path="url(#clip492)" style="stroke:#000000; stroke-linecap:round; stroke-linejoin:round; stroke-width:4; stroke-opacity:1; fill:none" points="820.729,1355.61 820.729,1486.45 833.556,1486.45 833.556,1355.61 820.729,1355.61 "/>
<path clip-path="url(#clip492)" d="M833.556 1355.61 L833.556 1486.45 L846.383 1486.45 L846.383 1355.61 L833.556 1355.61 L833.556 1355.61  Z" fill="#009af9" fill-rule="evenodd" fill-opacity="1"/>
<polyline clip-path="url(#clip492)" style="stroke:#000000; stroke-linecap:round; stroke-linejoin:round; stroke-width:4; stroke-opacity:1; fill:none" points="833.556,1355.61 833.556,1486.45 846.383,1486.45 846.383,1355.61 833.556,1355.61 "/>
<path clip-path="url(#clip492)" d="M846.383 1312 L846.383 1486.45 L859.211 1486.45 L859.211 1312 L846.383 1312 L846.383 1312  Z" fill="#009af9" fill-rule="evenodd" fill-opacity="1"/>
<polyline clip-path="url(#clip492)" style="stroke:#000000; stroke-linecap:round; stroke-linejoin:round; stroke-width:4; stroke-opacity:1; fill:none" points="846.383,1312 846.383,1486.45 859.211,1486.45 859.211,1312 846.383,1312 "/>
<path clip-path="url(#clip492)" d="M859.211 1312 L859.211 1486.45 L872.038 1486.45 L872.038 1312 L859.211 1312 L859.211 1312  Z" fill="#009af9" fill-rule="evenodd" fill-opacity="1"/>
<polyline clip-path="url(#clip492)" style="stroke:#000000; stroke-linecap:round; stroke-linejoin:round; stroke-width:4; stroke-opacity:1; fill:none" points="859.211,1312 859.211,1486.45 872.038,1486.45 872.038,1312 859.211,1312 "/>
<path clip-path="url(#clip492)" d="M872.038 1399.22 L872.038 1486.45 L884.865 1486.45 L884.865 1399.22 L872.038 1399.22 L872.038 1399.22  Z" fill="#009af9" fill-rule="evenodd" fill-opacity="1"/>
<polyline clip-path="url(#clip492)" style="stroke:#000000; stroke-linecap:round; stroke-linejoin:round; stroke-width:4; stroke-opacity:1; fill:none" points="872.038,1399.22 872.038,1486.45 884.865,1486.45 884.865,1399.22 872.038,1399.22 "/>
<path clip-path="url(#clip492)" d="M884.865 1355.61 L884.865 1486.45 L897.693 1486.45 L897.693 1355.61 L884.865 1355.61 L884.865 1355.61  Z" fill="#009af9" fill-rule="evenodd" fill-opacity="1"/>
<polyline clip-path="url(#clip492)" style="stroke:#000000; stroke-linecap:round; stroke-linejoin:round; stroke-width:4; stroke-opacity:1; fill:none" points="884.865,1355.61 884.865,1486.45 897.693,1486.45 897.693,1355.61 884.865,1355.61 "/>
<path clip-path="url(#clip492)" d="M897.693 1137.55 L897.693 1486.45 L910.52 1486.45 L910.52 1137.55 L897.693 1137.55 L897.693 1137.55  Z" fill="#009af9" fill-rule="evenodd" fill-opacity="1"/>
<polyline clip-path="url(#clip492)" style="stroke:#000000; stroke-linecap:round; stroke-linejoin:round; stroke-width:4; stroke-opacity:1; fill:none" points="897.693,1137.55 897.693,1486.45 910.52,1486.45 910.52,1137.55 897.693,1137.55 "/>
<path clip-path="url(#clip492)" d="M910.52 919.489 L910.52 1486.45 L923.347 1486.45 L923.347 919.489 L910.52 919.489 L910.52 919.489  Z" fill="#009af9" fill-rule="evenodd" fill-opacity="1"/>
<polyline clip-path="url(#clip492)" style="stroke:#000000; stroke-linecap:round; stroke-linejoin:round; stroke-width:4; stroke-opacity:1; fill:none" points="910.52,919.489 910.52,1486.45 923.347,1486.45 923.347,919.489 910.52,919.489 "/>
<path clip-path="url(#clip492)" d="M923.347 1181.16 L923.347 1486.45 L936.175 1486.45 L936.175 1181.16 L923.347 1181.16 L923.347 1181.16  Z" fill="#009af9" fill-rule="evenodd" fill-opacity="1"/>
<polyline clip-path="url(#clip492)" style="stroke:#000000; stroke-linecap:round; stroke-linejoin:round; stroke-width:4; stroke-opacity:1; fill:none" points="923.347,1181.16 923.347,1486.45 936.175,1486.45 936.175,1181.16 923.347,1181.16 "/>
<path clip-path="url(#clip492)" d="M936.175 1312 L936.175 1486.45 L949.002 1486.45 L949.002 1312 L936.175 1312 L936.175 1312  Z" fill="#009af9" fill-rule="evenodd" fill-opacity="1"/>
<polyline clip-path="url(#clip492)" style="stroke:#000000; stroke-linecap:round; stroke-linejoin:round; stroke-width:4; stroke-opacity:1; fill:none" points="936.175,1312 936.175,1486.45 949.002,1486.45 949.002,1312 936.175,1312 "/>
<path clip-path="url(#clip492)" d="M949.002 832.264 L949.002 1486.45 L961.829 1486.45 L961.829 832.264 L949.002 832.264 L949.002 832.264  Z" fill="#009af9" fill-rule="evenodd" fill-opacity="1"/>
<polyline clip-path="url(#clip492)" style="stroke:#000000; stroke-linecap:round; stroke-linejoin:round; stroke-width:4; stroke-opacity:1; fill:none" points="949.002,832.264 949.002,1486.45 961.829,1486.45 961.829,832.264 949.002,832.264 "/>
<path clip-path="url(#clip492)" d="M961.829 1006.71 L961.829 1486.45 L974.657 1486.45 L974.657 1006.71 L961.829 1006.71 L961.829 1006.71  Z" fill="#009af9" fill-rule="evenodd" fill-opacity="1"/>
<polyline clip-path="url(#clip492)" style="stroke:#000000; stroke-linecap:round; stroke-linejoin:round; stroke-width:4; stroke-opacity:1; fill:none" points="961.829,1006.71 961.829,1486.45 974.657,1486.45 974.657,1006.71 961.829,1006.71 "/>
<path clip-path="url(#clip492)" d="M974.657 832.264 L974.657 1486.45 L987.484 1486.45 L987.484 832.264 L974.657 832.264 L974.657 832.264  Z" fill="#009af9" fill-rule="evenodd" fill-opacity="1"/>
<polyline clip-path="url(#clip492)" style="stroke:#000000; stroke-linecap:round; stroke-linejoin:round; stroke-width:4; stroke-opacity:1; fill:none" points="974.657,832.264 974.657,1486.45 987.484,1486.45 987.484,832.264 974.657,832.264 "/>
<path clip-path="url(#clip492)" d="M987.484 657.815 L987.484 1486.45 L1000.31 1486.45 L1000.31 657.815 L987.484 657.815 L987.484 657.815  Z" fill="#009af9" fill-rule="evenodd" fill-opacity="1"/>
<polyline clip-path="url(#clip492)" style="stroke:#000000; stroke-linecap:round; stroke-linejoin:round; stroke-width:4; stroke-opacity:1; fill:none" points="987.484,657.815 987.484,1486.45 1000.31,1486.45 1000.31,657.815 987.484,657.815 "/>
<path clip-path="url(#clip492)" d="M1000.31 657.815 L1000.31 1486.45 L1013.14 1486.45 L1013.14 657.815 L1000.31 657.815 L1000.31 657.815  Z" fill="#009af9" fill-rule="evenodd" fill-opacity="1"/>
<polyline clip-path="url(#clip492)" style="stroke:#000000; stroke-linecap:round; stroke-linejoin:round; stroke-width:4; stroke-opacity:1; fill:none" points="1000.31,657.815 1000.31,1486.45 1013.14,1486.45 1013.14,657.815 1000.31,657.815 "/>
<path clip-path="url(#clip492)" d="M1013.14 701.428 L1013.14 1486.45 L1025.97 1486.45 L1025.97 701.428 L1013.14 701.428 L1013.14 701.428  Z" fill="#009af9" fill-rule="evenodd" fill-opacity="1"/>
<polyline clip-path="url(#clip492)" style="stroke:#000000; stroke-linecap:round; stroke-linejoin:round; stroke-width:4; stroke-opacity:1; fill:none" points="1013.14,701.428 1013.14,1486.45 1025.97,1486.45 1025.97,701.428 1013.14,701.428 "/>
<path clip-path="url(#clip492)" d="M1025.97 788.652 L1025.97 1486.45 L1038.79 1486.45 L1038.79 788.652 L1025.97 788.652 L1025.97 788.652  Z" fill="#009af9" fill-rule="evenodd" fill-opacity="1"/>
<polyline clip-path="url(#clip492)" style="stroke:#000000; stroke-linecap:round; stroke-linejoin:round; stroke-width:4; stroke-opacity:1; fill:none" points="1025.97,788.652 1025.97,1486.45 1038.79,1486.45 1038.79,788.652 1025.97,788.652 "/>
<path clip-path="url(#clip492)" d="M1038.79 745.04 L1038.79 1486.45 L1051.62 1486.45 L1051.62 745.04 L1038.79 745.04 L1038.79 745.04  Z" fill="#009af9" fill-rule="evenodd" fill-opacity="1"/>
<polyline clip-path="url(#clip492)" style="stroke:#000000; stroke-linecap:round; stroke-linejoin:round; stroke-width:4; stroke-opacity:1; fill:none" points="1038.79,745.04 1038.79,1486.45 1051.62,1486.45 1051.62,745.04 1038.79,745.04 "/>
<path clip-path="url(#clip492)" d="M1051.62 745.04 L1051.62 1486.45 L1064.45 1486.45 L1064.45 745.04 L1051.62 745.04 L1051.62 745.04  Z" fill="#009af9" fill-rule="evenodd" fill-opacity="1"/>
<polyline clip-path="url(#clip492)" style="stroke:#000000; stroke-linecap:round; stroke-linejoin:round; stroke-width:4; stroke-opacity:1; fill:none" points="1051.62,745.04 1051.62,1486.45 1064.45,1486.45 1064.45,745.04 1051.62,745.04 "/>
<path clip-path="url(#clip492)" d="M1064.45 265.305 L1064.45 1486.45 L1077.28 1486.45 L1077.28 265.305 L1064.45 265.305 L1064.45 265.305  Z" fill="#009af9" fill-rule="evenodd" fill-opacity="1"/>
<polyline clip-path="url(#clip492)" style="stroke:#000000; stroke-linecap:round; stroke-linejoin:round; stroke-width:4; stroke-opacity:1; fill:none" points="1064.45,265.305 1064.45,1486.45 1077.28,1486.45 1077.28,265.305 1064.45,265.305 "/>
<path clip-path="url(#clip492)" d="M1077.28 745.04 L1077.28 1486.45 L1090.1 1486.45 L1090.1 745.04 L1077.28 745.04 L1077.28 745.04  Z" fill="#009af9" fill-rule="evenodd" fill-opacity="1"/>
<polyline clip-path="url(#clip492)" style="stroke:#000000; stroke-linecap:round; stroke-linejoin:round; stroke-width:4; stroke-opacity:1; fill:none" points="1077.28,745.04 1077.28,1486.45 1090.1,1486.45 1090.1,745.04 1077.28,745.04 "/>
<path clip-path="url(#clip492)" d="M1090.1 701.428 L1090.1 1486.45 L1102.93 1486.45 L1102.93 701.428 L1090.1 701.428 L1090.1 701.428  Z" fill="#009af9" fill-rule="evenodd" fill-opacity="1"/>
<polyline clip-path="url(#clip492)" style="stroke:#000000; stroke-linecap:round; stroke-linejoin:round; stroke-width:4; stroke-opacity:1; fill:none" points="1090.1,701.428 1090.1,1486.45 1102.93,1486.45 1102.93,701.428 1090.1,701.428 "/>
<path clip-path="url(#clip492)" d="M1102.93 745.04 L1102.93 1486.45 L1115.76 1486.45 L1115.76 745.04 L1102.93 745.04 L1102.93 745.04  Z" fill="#009af9" fill-rule="evenodd" fill-opacity="1"/>
<polyline clip-path="url(#clip492)" style="stroke:#000000; stroke-linecap:round; stroke-linejoin:round; stroke-width:4; stroke-opacity:1; fill:none" points="1102.93,745.04 1102.93,1486.45 1115.76,1486.45 1115.76,745.04 1102.93,745.04 "/>
<path clip-path="url(#clip492)" d="M1115.76 526.979 L1115.76 1486.45 L1128.58 1486.45 L1128.58 526.979 L1115.76 526.979 L1115.76 526.979  Z" fill="#009af9" fill-rule="evenodd" fill-opacity="1"/>
<polyline clip-path="url(#clip492)" style="stroke:#000000; stroke-linecap:round; stroke-linejoin:round; stroke-width:4; stroke-opacity:1; fill:none" points="1115.76,526.979 1115.76,1486.45 1128.58,1486.45 1128.58,526.979 1115.76,526.979 "/>
<path clip-path="url(#clip492)" d="M1128.58 788.652 L1128.58 1486.45 L1141.41 1486.45 L1141.41 788.652 L1128.58 788.652 L1128.58 788.652  Z" fill="#009af9" fill-rule="evenodd" fill-opacity="1"/>
<polyline clip-path="url(#clip492)" style="stroke:#000000; stroke-linecap:round; stroke-linejoin:round; stroke-width:4; stroke-opacity:1; fill:none" points="1128.58,788.652 1128.58,1486.45 1141.41,1486.45 1141.41,788.652 1128.58,788.652 "/>
<path clip-path="url(#clip492)" d="M1141.41 657.815 L1141.41 1486.45 L1154.24 1486.45 L1154.24 657.815 L1141.41 657.815 L1141.41 657.815  Z" fill="#009af9" fill-rule="evenodd" fill-opacity="1"/>
<polyline clip-path="url(#clip492)" style="stroke:#000000; stroke-linecap:round; stroke-linejoin:round; stroke-width:4; stroke-opacity:1; fill:none" points="1141.41,657.815 1141.41,1486.45 1154.24,1486.45 1154.24,657.815 1141.41,657.815 "/>
<path clip-path="url(#clip492)" d="M1154.24 875.877 L1154.24 1486.45 L1167.07 1486.45 L1167.07 875.877 L1154.24 875.877 L1154.24 875.877  Z" fill="#009af9" fill-rule="evenodd" fill-opacity="1"/>
<polyline clip-path="url(#clip492)" style="stroke:#000000; stroke-linecap:round; stroke-linejoin:round; stroke-width:4; stroke-opacity:1; fill:none" points="1154.24,875.877 1154.24,1486.45 1167.07,1486.45 1167.07,875.877 1154.24,875.877 "/>
<path clip-path="url(#clip492)" d="M1167.07 657.815 L1167.07 1486.45 L1179.89 1486.45 L1179.89 657.815 L1167.07 657.815 L1167.07 657.815  Z" fill="#009af9" fill-rule="evenodd" fill-opacity="1"/>
<polyline clip-path="url(#clip492)" style="stroke:#000000; stroke-linecap:round; stroke-linejoin:round; stroke-width:4; stroke-opacity:1; fill:none" points="1167.07,657.815 1167.07,1486.45 1179.89,1486.45 1179.89,657.815 1167.07,657.815 "/>
<path clip-path="url(#clip492)" d="M1179.89 919.489 L1179.89 1486.45 L1192.72 1486.45 L1192.72 919.489 L1179.89 919.489 L1179.89 919.489  Z" fill="#009af9" fill-rule="evenodd" fill-opacity="1"/>
<polyline clip-path="url(#clip492)" style="stroke:#000000; stroke-linecap:round; stroke-linejoin:round; stroke-width:4; stroke-opacity:1; fill:none" points="1179.89,919.489 1179.89,1486.45 1192.72,1486.45 1192.72,919.489 1179.89,919.489 "/>
<path clip-path="url(#clip492)" d="M1192.72 832.264 L1192.72 1486.45 L1205.55 1486.45 L1205.55 832.264 L1192.72 832.264 L1192.72 832.264  Z" fill="#009af9" fill-rule="evenodd" fill-opacity="1"/>
<polyline clip-path="url(#clip492)" style="stroke:#000000; stroke-linecap:round; stroke-linejoin:round; stroke-width:4; stroke-opacity:1; fill:none" points="1192.72,832.264 1192.72,1486.45 1205.55,1486.45 1205.55,832.264 1192.72,832.264 "/>
<path clip-path="url(#clip492)" d="M1205.55 832.264 L1205.55 1486.45 L1218.38 1486.45 L1218.38 832.264 L1205.55 832.264 L1205.55 832.264  Z" fill="#009af9" fill-rule="evenodd" fill-opacity="1"/>
<polyline clip-path="url(#clip492)" style="stroke:#000000; stroke-linecap:round; stroke-linejoin:round; stroke-width:4; stroke-opacity:1; fill:none" points="1205.55,832.264 1205.55,1486.45 1218.38,1486.45 1218.38,832.264 1205.55,832.264 "/>
<path clip-path="url(#clip492)" d="M1218.38 963.101 L1218.38 1486.45 L1231.2 1486.45 L1231.2 963.101 L1218.38 963.101 L1218.38 963.101  Z" fill="#009af9" fill-rule="evenodd" fill-opacity="1"/>
<polyline clip-path="url(#clip492)" style="stroke:#000000; stroke-linecap:round; stroke-linejoin:round; stroke-width:4; stroke-opacity:1; fill:none" points="1218.38,963.101 1218.38,1486.45 1231.2,1486.45 1231.2,963.101 1218.38,963.101 "/>
<path clip-path="url(#clip492)" d="M1231.2 919.489 L1231.2 1486.45 L1244.03 1486.45 L1244.03 919.489 L1231.2 919.489 L1231.2 919.489  Z" fill="#009af9" fill-rule="evenodd" fill-opacity="1"/>
<polyline clip-path="url(#clip492)" style="stroke:#000000; stroke-linecap:round; stroke-linejoin:round; stroke-width:4; stroke-opacity:1; fill:none" points="1231.2,919.489 1231.2,1486.45 1244.03,1486.45 1244.03,919.489 1231.2,919.489 "/>
<path clip-path="url(#clip492)" d="M1244.03 1093.94 L1244.03 1486.45 L1256.86 1486.45 L1256.86 1093.94 L1244.03 1093.94 L1244.03 1093.94  Z" fill="#009af9" fill-rule="evenodd" fill-opacity="1"/>
<polyline clip-path="url(#clip492)" style="stroke:#000000; stroke-linecap:round; stroke-linejoin:round; stroke-width:4; stroke-opacity:1; fill:none" points="1244.03,1093.94 1244.03,1486.45 1256.86,1486.45 1256.86,1093.94 1244.03,1093.94 "/>
<path clip-path="url(#clip492)" d="M1256.86 1050.33 L1256.86 1486.45 L1269.69 1486.45 L1269.69 1050.33 L1256.86 1050.33 L1256.86 1050.33  Z" fill="#009af9" fill-rule="evenodd" fill-opacity="1"/>
<polyline clip-path="url(#clip492)" style="stroke:#000000; stroke-linecap:round; stroke-linejoin:round; stroke-width:4; stroke-opacity:1; fill:none" points="1256.86,1050.33 1256.86,1486.45 1269.69,1486.45 1269.69,1050.33 1256.86,1050.33 "/>
<path clip-path="url(#clip492)" d="M1269.69 1093.94 L1269.69 1486.45 L1282.51 1486.45 L1282.51 1093.94 L1269.69 1093.94 L1269.69 1093.94  Z" fill="#009af9" fill-rule="evenodd" fill-opacity="1"/>
<polyline clip-path="url(#clip492)" style="stroke:#000000; stroke-linecap:round; stroke-linejoin:round; stroke-width:4; stroke-opacity:1; fill:none" points="1269.69,1093.94 1269.69,1486.45 1282.51,1486.45 1282.51,1093.94 1269.69,1093.94 "/>
<path clip-path="url(#clip492)" d="M1282.51 1224.77 L1282.51 1486.45 L1295.34 1486.45 L1295.34 1224.77 L1282.51 1224.77 L1282.51 1224.77  Z" fill="#009af9" fill-rule="evenodd" fill-opacity="1"/>
<polyline clip-path="url(#clip492)" style="stroke:#000000; stroke-linecap:round; stroke-linejoin:round; stroke-width:4; stroke-opacity:1; fill:none" points="1282.51,1224.77 1282.51,1486.45 1295.34,1486.45 1295.34,1224.77 1282.51,1224.77 "/>
<path clip-path="url(#clip492)" d="M1295.34 1224.77 L1295.34 1486.45 L1308.17 1486.45 L1308.17 1224.77 L1295.34 1224.77 L1295.34 1224.77  Z" fill="#009af9" fill-rule="evenodd" fill-opacity="1"/>
<polyline clip-path="url(#clip492)" style="stroke:#000000; stroke-linecap:round; stroke-linejoin:round; stroke-width:4; stroke-opacity:1; fill:none" points="1295.34,1224.77 1295.34,1486.45 1308.17,1486.45 1308.17,1224.77 1295.34,1224.77 "/>
<path clip-path="url(#clip492)" d="M1308.17 1399.22 L1308.17 1486.45 L1320.99 1486.45 L1320.99 1399.22 L1308.17 1399.22 L1308.17 1399.22  Z" fill="#009af9" fill-rule="evenodd" fill-opacity="1"/>
<polyline clip-path="url(#clip492)" style="stroke:#000000; stroke-linecap:round; stroke-linejoin:round; stroke-width:4; stroke-opacity:1; fill:none" points="1308.17,1399.22 1308.17,1486.45 1320.99,1486.45 1320.99,1399.22 1308.17,1399.22 "/>
<path clip-path="url(#clip492)" d="M1320.99 1268.39 L1320.99 1486.45 L1333.82 1486.45 L1333.82 1268.39 L1320.99 1268.39 L1320.99 1268.39  Z" fill="#009af9" fill-rule="evenodd" fill-opacity="1"/>
<polyline clip-path="url(#clip492)" style="stroke:#000000; stroke-linecap:round; stroke-linejoin:round; stroke-width:4; stroke-opacity:1; fill:none" points="1320.99,1268.39 1320.99,1486.45 1333.82,1486.45 1333.82,1268.39 1320.99,1268.39 "/>
<path clip-path="url(#clip492)" d="M1333.82 1399.22 L1333.82 1486.45 L1346.65 1486.45 L1346.65 1399.22 L1333.82 1399.22 L1333.82 1399.22  Z" fill="#009af9" fill-rule="evenodd" fill-opacity="1"/>
<polyline clip-path="url(#clip492)" style="stroke:#000000; stroke-linecap:round; stroke-linejoin:round; stroke-width:4; stroke-opacity:1; fill:none" points="1333.82,1399.22 1333.82,1486.45 1346.65,1486.45 1346.65,1399.22 1333.82,1399.22 "/>
<path clip-path="url(#clip492)" d="M1346.65 1355.61 L1346.65 1486.45 L1359.48 1486.45 L1359.48 1355.61 L1346.65 1355.61 L1346.65 1355.61  Z" fill="#009af9" fill-rule="evenodd" fill-opacity="1"/>
<polyline clip-path="url(#clip492)" style="stroke:#000000; stroke-linecap:round; stroke-linejoin:round; stroke-width:4; stroke-opacity:1; fill:none" points="1346.65,1355.61 1346.65,1486.45 1359.48,1486.45 1359.48,1355.61 1346.65,1355.61 "/>
<path clip-path="url(#clip492)" d="M1359.48 1486.45 L1359.48 1486.45 L1372.3 1486.45 L1372.3 1486.45 L1359.48 1486.45 L1359.48 1486.45  Z" fill="#009af9" fill-rule="evenodd" fill-opacity="1"/>
<polyline clip-path="url(#clip492)" style="stroke:#000000; stroke-linecap:round; stroke-linejoin:round; stroke-width:4; stroke-opacity:1; fill:none" points="1359.48,1486.45 1359.48,1486.45 1372.3,1486.45 1359.48,1486.45 "/>
<path clip-path="url(#clip492)" d="M1372.3 1355.61 L1372.3 1486.45 L1385.13 1486.45 L1385.13 1355.61 L1372.3 1355.61 L1372.3 1355.61  Z" fill="#009af9" fill-rule="evenodd" fill-opacity="1"/>
<polyline clip-path="url(#clip492)" style="stroke:#000000; stroke-linecap:round; stroke-linejoin:round; stroke-width:4; stroke-opacity:1; fill:none" points="1372.3,1355.61 1372.3,1486.45 1385.13,1486.45 1385.13,1355.61 1372.3,1355.61 "/>
<path clip-path="url(#clip492)" d="M1385.13 1399.22 L1385.13 1486.45 L1397.96 1486.45 L1397.96 1399.22 L1385.13 1399.22 L1385.13 1399.22  Z" fill="#009af9" fill-rule="evenodd" fill-opacity="1"/>
<polyline clip-path="url(#clip492)" style="stroke:#000000; stroke-linecap:round; stroke-linejoin:round; stroke-width:4; stroke-opacity:1; fill:none" points="1385.13,1399.22 1385.13,1486.45 1397.96,1486.45 1397.96,1399.22 1385.13,1399.22 "/>
<path clip-path="url(#clip492)" d="M1397.96 1312 L1397.96 1486.45 L1410.79 1486.45 L1410.79 1312 L1397.96 1312 L1397.96 1312  Z" fill="#009af9" fill-rule="evenodd" fill-opacity="1"/>
<polyline clip-path="url(#clip492)" style="stroke:#000000; stroke-linecap:round; stroke-linejoin:round; stroke-width:4; stroke-opacity:1; fill:none" points="1397.96,1312 1397.96,1486.45 1410.79,1486.45 1410.79,1312 1397.96,1312 "/>
<path clip-path="url(#clip492)" d="M1410.79 1442.84 L1410.79 1486.45 L1423.61 1486.45 L1423.61 1442.84 L1410.79 1442.84 L1410.79 1442.84  Z" fill="#009af9" fill-rule="evenodd" fill-opacity="1"/>
<polyline clip-path="url(#clip492)" style="stroke:#000000; stroke-linecap:round; stroke-linejoin:round; stroke-width:4; stroke-opacity:1; fill:none" points="1410.79,1442.84 1410.79,1486.45 1423.61,1486.45 1423.61,1442.84 1410.79,1442.84 "/>
<path clip-path="url(#clip492)" d="M1423.61 1224.77 L1423.61 1486.45 L1436.44 1486.45 L1436.44 1224.77 L1423.61 1224.77 L1423.61 1224.77  Z" fill="#009af9" fill-rule="evenodd" fill-opacity="1"/>
<polyline clip-path="url(#clip492)" style="stroke:#000000; stroke-linecap:round; stroke-linejoin:round; stroke-width:4; stroke-opacity:1; fill:none" points="1423.61,1224.77 1423.61,1486.45 1436.44,1486.45 1436.44,1224.77 1423.61,1224.77 "/>
<path clip-path="url(#clip492)" d="M1436.44 1442.84 L1436.44 1486.45 L1449.27 1486.45 L1449.27 1442.84 L1436.44 1442.84 L1436.44 1442.84  Z" fill="#009af9" fill-rule="evenodd" fill-opacity="1"/>
<polyline clip-path="url(#clip492)" style="stroke:#000000; stroke-linecap:round; stroke-linejoin:round; stroke-width:4; stroke-opacity:1; fill:none" points="1436.44,1442.84 1436.44,1486.45 1449.27,1486.45 1449.27,1442.84 1436.44,1442.84 "/>
<path clip-path="url(#clip492)" d="M1449.27 1442.84 L1449.27 1486.45 L1462.1 1486.45 L1462.1 1442.84 L1449.27 1442.84 L1449.27 1442.84  Z" fill="#009af9" fill-rule="evenodd" fill-opacity="1"/>
<polyline clip-path="url(#clip492)" style="stroke:#000000; stroke-linecap:round; stroke-linejoin:round; stroke-width:4; stroke-opacity:1; fill:none" points="1449.27,1442.84 1449.27,1486.45 1462.1,1486.45 1462.1,1442.84 1449.27,1442.84 "/>
<path clip-path="url(#clip492)" d="M1462.1 1399.22 L1462.1 1486.45 L1474.92 1486.45 L1474.92 1399.22 L1462.1 1399.22 L1462.1 1399.22  Z" fill="#009af9" fill-rule="evenodd" fill-opacity="1"/>
<polyline clip-path="url(#clip492)" style="stroke:#000000; stroke-linecap:round; stroke-linejoin:round; stroke-width:4; stroke-opacity:1; fill:none" points="1462.1,1399.22 1462.1,1486.45 1474.92,1486.45 1474.92,1399.22 1462.1,1399.22 "/>
<path clip-path="url(#clip492)" d="M1474.92 1355.61 L1474.92 1486.45 L1487.75 1486.45 L1487.75 1355.61 L1474.92 1355.61 L1474.92 1355.61  Z" fill="#009af9" fill-rule="evenodd" fill-opacity="1"/>
<polyline clip-path="url(#clip492)" style="stroke:#000000; stroke-linecap:round; stroke-linejoin:round; stroke-width:4; stroke-opacity:1; fill:none" points="1474.92,1355.61 1474.92,1486.45 1487.75,1486.45 1487.75,1355.61 1474.92,1355.61 "/>
<path clip-path="url(#clip492)" d="M1487.75 1312 L1487.75 1486.45 L1500.58 1486.45 L1500.58 1312 L1487.75 1312 L1487.75 1312  Z" fill="#009af9" fill-rule="evenodd" fill-opacity="1"/>
<polyline clip-path="url(#clip492)" style="stroke:#000000; stroke-linecap:round; stroke-linejoin:round; stroke-width:4; stroke-opacity:1; fill:none" points="1487.75,1312 1487.75,1486.45 1500.58,1486.45 1500.58,1312 1487.75,1312 "/>
<path clip-path="url(#clip492)" d="M1500.58 1442.84 L1500.58 1486.45 L1513.4 1486.45 L1513.4 1442.84 L1500.58 1442.84 L1500.58 1442.84  Z" fill="#009af9" fill-rule="evenodd" fill-opacity="1"/>
<polyline clip-path="url(#clip492)" style="stroke:#000000; stroke-linecap:round; stroke-linejoin:round; stroke-width:4; stroke-opacity:1; fill:none" points="1500.58,1442.84 1500.58,1486.45 1513.4,1486.45 1513.4,1442.84 1500.58,1442.84 "/>
<path clip-path="url(#clip492)" d="M1513.4 1355.61 L1513.4 1486.45 L1526.23 1486.45 L1526.23 1355.61 L1513.4 1355.61 L1513.4 1355.61  Z" fill="#009af9" fill-rule="evenodd" fill-opacity="1"/>
<polyline clip-path="url(#clip492)" style="stroke:#000000; stroke-linecap:round; stroke-linejoin:round; stroke-width:4; stroke-opacity:1; fill:none" points="1513.4,1355.61 1513.4,1486.45 1526.23,1486.45 1526.23,1355.61 1513.4,1355.61 "/>
<path clip-path="url(#clip492)" d="M1526.23 1137.55 L1526.23 1486.45 L1539.06 1486.45 L1539.06 1137.55 L1526.23 1137.55 L1526.23 1137.55  Z" fill="#009af9" fill-rule="evenodd" fill-opacity="1"/>
<polyline clip-path="url(#clip492)" style="stroke:#000000; stroke-linecap:round; stroke-linejoin:round; stroke-width:4; stroke-opacity:1; fill:none" points="1526.23,1137.55 1526.23,1486.45 1539.06,1486.45 1539.06,1137.55 1526.23,1137.55 "/>
<path clip-path="url(#clip492)" d="M1539.06 1093.94 L1539.06 1486.45 L1551.89 1486.45 L1551.89 1093.94 L1539.06 1093.94 L1539.06 1093.94  Z" fill="#009af9" fill-rule="evenodd" fill-opacity="1"/>
<polyline clip-path="url(#clip492)" style="stroke:#000000; stroke-linecap:round; stroke-linejoin:round; stroke-width:4; stroke-opacity:1; fill:none" points="1539.06,1093.94 1539.06,1486.45 1551.89,1486.45 1551.89,1093.94 1539.06,1093.94 "/>
<path clip-path="url(#clip492)" d="M1551.89 1268.39 L1551.89 1486.45 L1564.71 1486.45 L1564.71 1268.39 L1551.89 1268.39 L1551.89 1268.39  Z" fill="#009af9" fill-rule="evenodd" fill-opacity="1"/>
<polyline clip-path="url(#clip492)" style="stroke:#000000; stroke-linecap:round; stroke-linejoin:round; stroke-width:4; stroke-opacity:1; fill:none" points="1551.89,1268.39 1551.89,1486.45 1564.71,1486.45 1564.71,1268.39 1551.89,1268.39 "/>
<path clip-path="url(#clip492)" d="M1564.71 1137.55 L1564.71 1486.45 L1577.54 1486.45 L1577.54 1137.55 L1564.71 1137.55 L1564.71 1137.55  Z" fill="#009af9" fill-rule="evenodd" fill-opacity="1"/>
<polyline clip-path="url(#clip492)" style="stroke:#000000; stroke-linecap:round; stroke-linejoin:round; stroke-width:4; stroke-opacity:1; fill:none" points="1564.71,1137.55 1564.71,1486.45 1577.54,1486.45 1577.54,1137.55 1564.71,1137.55 "/>
<path clip-path="url(#clip492)" d="M1577.54 1268.39 L1577.54 1486.45 L1590.37 1486.45 L1590.37 1268.39 L1577.54 1268.39 L1577.54 1268.39  Z" fill="#009af9" fill-rule="evenodd" fill-opacity="1"/>
<polyline clip-path="url(#clip492)" style="stroke:#000000; stroke-linecap:round; stroke-linejoin:round; stroke-width:4; stroke-opacity:1; fill:none" points="1577.54,1268.39 1577.54,1486.45 1590.37,1486.45 1590.37,1268.39 1577.54,1268.39 "/>
<path clip-path="url(#clip492)" d="M1590.37 1093.94 L1590.37 1486.45 L1603.2 1486.45 L1603.2 1093.94 L1590.37 1093.94 L1590.37 1093.94  Z" fill="#009af9" fill-rule="evenodd" fill-opacity="1"/>
<polyline clip-path="url(#clip492)" style="stroke:#000000; stroke-linecap:round; stroke-linejoin:round; stroke-width:4; stroke-opacity:1; fill:none" points="1590.37,1093.94 1590.37,1486.45 1603.2,1486.45 1603.2,1093.94 1590.37,1093.94 "/>
<path clip-path="url(#clip492)" d="M1603.2 1050.33 L1603.2 1486.45 L1616.02 1486.45 L1616.02 1050.33 L1603.2 1050.33 L1603.2 1050.33  Z" fill="#009af9" fill-rule="evenodd" fill-opacity="1"/>
<polyline clip-path="url(#clip492)" style="stroke:#000000; stroke-linecap:round; stroke-linejoin:round; stroke-width:4; stroke-opacity:1; fill:none" points="1603.2,1050.33 1603.2,1486.45 1616.02,1486.45 1616.02,1050.33 1603.2,1050.33 "/>
<path clip-path="url(#clip492)" d="M1616.02 919.489 L1616.02 1486.45 L1628.85 1486.45 L1628.85 919.489 L1616.02 919.489 L1616.02 919.489  Z" fill="#009af9" fill-rule="evenodd" fill-opacity="1"/>
<polyline clip-path="url(#clip492)" style="stroke:#000000; stroke-linecap:round; stroke-linejoin:round; stroke-width:4; stroke-opacity:1; fill:none" points="1616.02,919.489 1616.02,1486.45 1628.85,1486.45 1628.85,919.489 1616.02,919.489 "/>
<path clip-path="url(#clip492)" d="M1628.85 832.264 L1628.85 1486.45 L1641.68 1486.45 L1641.68 832.264 L1628.85 832.264 L1628.85 832.264  Z" fill="#009af9" fill-rule="evenodd" fill-opacity="1"/>
<polyline clip-path="url(#clip492)" style="stroke:#000000; stroke-linecap:round; stroke-linejoin:round; stroke-width:4; stroke-opacity:1; fill:none" points="1628.85,832.264 1628.85,1486.45 1641.68,1486.45 1641.68,832.264 1628.85,832.264 "/>
<path clip-path="url(#clip492)" d="M1641.68 745.04 L1641.68 1486.45 L1654.51 1486.45 L1654.51 745.04 L1641.68 745.04 L1641.68 745.04  Z" fill="#009af9" fill-rule="evenodd" fill-opacity="1"/>
<polyline clip-path="url(#clip492)" style="stroke:#000000; stroke-linecap:round; stroke-linejoin:round; stroke-width:4; stroke-opacity:1; fill:none" points="1641.68,745.04 1641.68,1486.45 1654.51,1486.45 1654.51,745.04 1641.68,745.04 "/>
<path clip-path="url(#clip492)" d="M1654.51 788.652 L1654.51 1486.45 L1667.33 1486.45 L1667.33 788.652 L1654.51 788.652 L1654.51 788.652  Z" fill="#009af9" fill-rule="evenodd" fill-opacity="1"/>
<polyline clip-path="url(#clip492)" style="stroke:#000000; stroke-linecap:round; stroke-linejoin:round; stroke-width:4; stroke-opacity:1; fill:none" points="1654.51,788.652 1654.51,1486.45 1667.33,1486.45 1667.33,788.652 1654.51,788.652 "/>
<path clip-path="url(#clip492)" d="M1667.33 701.428 L1667.33 1486.45 L1680.16 1486.45 L1680.16 701.428 L1667.33 701.428 L1667.33 701.428  Z" fill="#009af9" fill-rule="evenodd" fill-opacity="1"/>
<polyline clip-path="url(#clip492)" style="stroke:#000000; stroke-linecap:round; stroke-linejoin:round; stroke-width:4; stroke-opacity:1; fill:none" points="1667.33,701.428 1667.33,1486.45 1680.16,1486.45 1680.16,701.428 1667.33,701.428 "/>
<path clip-path="url(#clip492)" d="M1680.16 614.203 L1680.16 1486.45 L1692.99 1486.45 L1692.99 614.203 L1680.16 614.203 L1680.16 614.203  Z" fill="#009af9" fill-rule="evenodd" fill-opacity="1"/>
<polyline clip-path="url(#clip492)" style="stroke:#000000; stroke-linecap:round; stroke-linejoin:round; stroke-width:4; stroke-opacity:1; fill:none" points="1680.16,614.203 1680.16,1486.45 1692.99,1486.45 1692.99,614.203 1680.16,614.203 "/>
<path clip-path="url(#clip492)" d="M1692.99 963.101 L1692.99 1486.45 L1705.82 1486.45 L1705.82 963.101 L1692.99 963.101 L1692.99 963.101  Z" fill="#009af9" fill-rule="evenodd" fill-opacity="1"/>
<polyline clip-path="url(#clip492)" style="stroke:#000000; stroke-linecap:round; stroke-linejoin:round; stroke-width:4; stroke-opacity:1; fill:none" points="1692.99,963.101 1692.99,1486.45 1705.82,1486.45 1705.82,963.101 1692.99,963.101 "/>
<path clip-path="url(#clip492)" d="M1705.82 47.2441 L1705.82 1486.45 L1718.64 1486.45 L1718.64 47.2441 L1705.82 47.2441 L1705.82 47.2441  Z" fill="#009af9" fill-rule="evenodd" fill-opacity="1"/>
<polyline clip-path="url(#clip492)" style="stroke:#000000; stroke-linecap:round; stroke-linejoin:round; stroke-width:4; stroke-opacity:1; fill:none" points="1705.82,47.2441 1705.82,1486.45 1718.64,1486.45 1718.64,47.2441 1705.82,47.2441 "/>
<path clip-path="url(#clip492)" d="M1718.64 745.04 L1718.64 1486.45 L1731.47 1486.45 L1731.47 745.04 L1718.64 745.04 L1718.64 745.04  Z" fill="#009af9" fill-rule="evenodd" fill-opacity="1"/>
<polyline clip-path="url(#clip492)" style="stroke:#000000; stroke-linecap:round; stroke-linejoin:round; stroke-width:4; stroke-opacity:1; fill:none" points="1718.64,745.04 1718.64,1486.45 1731.47,1486.45 1731.47,745.04 1718.64,745.04 "/>
<path clip-path="url(#clip492)" d="M1731.47 352.53 L1731.47 1486.45 L1744.3 1486.45 L1744.3 352.53 L1731.47 352.53 L1731.47 352.53  Z" fill="#009af9" fill-rule="evenodd" fill-opacity="1"/>
<polyline clip-path="url(#clip492)" style="stroke:#000000; stroke-linecap:round; stroke-linejoin:round; stroke-width:4; stroke-opacity:1; fill:none" points="1731.47,352.53 1731.47,1486.45 1744.3,1486.45 1744.3,352.53 1731.47,352.53 "/>
<path clip-path="url(#clip492)" d="M1744.3 788.652 L1744.3 1486.45 L1757.12 1486.45 L1757.12 788.652 L1744.3 788.652 L1744.3 788.652  Z" fill="#009af9" fill-rule="evenodd" fill-opacity="1"/>
<polyline clip-path="url(#clip492)" style="stroke:#000000; stroke-linecap:round; stroke-linejoin:round; stroke-width:4; stroke-opacity:1; fill:none" points="1744.3,788.652 1744.3,1486.45 1757.12,1486.45 1757.12,788.652 1744.3,788.652 "/>
<path clip-path="url(#clip492)" d="M1757.12 701.428 L1757.12 1486.45 L1769.95 1486.45 L1769.95 701.428 L1757.12 701.428 L1757.12 701.428  Z" fill="#009af9" fill-rule="evenodd" fill-opacity="1"/>
<polyline clip-path="url(#clip492)" style="stroke:#000000; stroke-linecap:round; stroke-linejoin:round; stroke-width:4; stroke-opacity:1; fill:none" points="1757.12,701.428 1757.12,1486.45 1769.95,1486.45 1769.95,701.428 1757.12,701.428 "/>
<path clip-path="url(#clip492)" d="M1769.95 439.754 L1769.95 1486.45 L1782.78 1486.45 L1782.78 439.754 L1769.95 439.754 L1769.95 439.754  Z" fill="#009af9" fill-rule="evenodd" fill-opacity="1"/>
<polyline clip-path="url(#clip492)" style="stroke:#000000; stroke-linecap:round; stroke-linejoin:round; stroke-width:4; stroke-opacity:1; fill:none" points="1769.95,439.754 1769.95,1486.45 1782.78,1486.45 1782.78,439.754 1769.95,439.754 "/>
<path clip-path="url(#clip492)" d="M1782.78 745.04 L1782.78 1486.45 L1795.61 1486.45 L1795.61 745.04 L1782.78 745.04 L1782.78 745.04  Z" fill="#009af9" fill-rule="evenodd" fill-opacity="1"/>
<polyline clip-path="url(#clip492)" style="stroke:#000000; stroke-linecap:round; stroke-linejoin:round; stroke-width:4; stroke-opacity:1; fill:none" points="1782.78,745.04 1782.78,1486.45 1795.61,1486.45 1795.61,745.04 1782.78,745.04 "/>
<path clip-path="url(#clip492)" d="M1795.61 701.428 L1795.61 1486.45 L1808.43 1486.45 L1808.43 701.428 L1795.61 701.428 L1795.61 701.428  Z" fill="#009af9" fill-rule="evenodd" fill-opacity="1"/>
<polyline clip-path="url(#clip492)" style="stroke:#000000; stroke-linecap:round; stroke-linejoin:round; stroke-width:4; stroke-opacity:1; fill:none" points="1795.61,701.428 1795.61,1486.45 1808.43,1486.45 1808.43,701.428 1795.61,701.428 "/>
<path clip-path="url(#clip492)" d="M1808.43 657.815 L1808.43 1486.45 L1821.26 1486.45 L1821.26 657.815 L1808.43 657.815 L1808.43 657.815  Z" fill="#009af9" fill-rule="evenodd" fill-opacity="1"/>
<polyline clip-path="url(#clip492)" style="stroke:#000000; stroke-linecap:round; stroke-linejoin:round; stroke-width:4; stroke-opacity:1; fill:none" points="1808.43,657.815 1808.43,1486.45 1821.26,1486.45 1821.26,657.815 1808.43,657.815 "/>
<path clip-path="url(#clip492)" d="M1821.26 832.264 L1821.26 1486.45 L1834.09 1486.45 L1834.09 832.264 L1821.26 832.264 L1821.26 832.264  Z" fill="#009af9" fill-rule="evenodd" fill-opacity="1"/>
<polyline clip-path="url(#clip492)" style="stroke:#000000; stroke-linecap:round; stroke-linejoin:round; stroke-width:4; stroke-opacity:1; fill:none" points="1821.26,832.264 1821.26,1486.45 1834.09,1486.45 1834.09,832.264 1821.26,832.264 "/>
<path clip-path="url(#clip492)" d="M1834.09 1006.71 L1834.09 1486.45 L1846.92 1486.45 L1846.92 1006.71 L1834.09 1006.71 L1834.09 1006.71  Z" fill="#009af9" fill-rule="evenodd" fill-opacity="1"/>
<polyline clip-path="url(#clip492)" style="stroke:#000000; stroke-linecap:round; stroke-linejoin:round; stroke-width:4; stroke-opacity:1; fill:none" points="1834.09,1006.71 1834.09,1486.45 1846.92,1486.45 1846.92,1006.71 1834.09,1006.71 "/>
<path clip-path="url(#clip492)" d="M1846.92 963.101 L1846.92 1486.45 L1859.74 1486.45 L1859.74 963.101 L1846.92 963.101 L1846.92 963.101  Z" fill="#009af9" fill-rule="evenodd" fill-opacity="1"/>
<polyline clip-path="url(#clip492)" style="stroke:#000000; stroke-linecap:round; stroke-linejoin:round; stroke-width:4; stroke-opacity:1; fill:none" points="1846.92,963.101 1846.92,1486.45 1859.74,1486.45 1859.74,963.101 1846.92,963.101 "/>
<path clip-path="url(#clip492)" d="M1859.74 1093.94 L1859.74 1486.45 L1872.57 1486.45 L1872.57 1093.94 L1859.74 1093.94 L1859.74 1093.94  Z" fill="#009af9" fill-rule="evenodd" fill-opacity="1"/>
<polyline clip-path="url(#clip492)" style="stroke:#000000; stroke-linecap:round; stroke-linejoin:round; stroke-width:4; stroke-opacity:1; fill:none" points="1859.74,1093.94 1859.74,1486.45 1872.57,1486.45 1872.57,1093.94 1859.74,1093.94 "/>
<path clip-path="url(#clip492)" d="M1872.57 745.04 L1872.57 1486.45 L1885.4 1486.45 L1885.4 745.04 L1872.57 745.04 L1872.57 745.04  Z" fill="#009af9" fill-rule="evenodd" fill-opacity="1"/>
<polyline clip-path="url(#clip492)" style="stroke:#000000; stroke-linecap:round; stroke-linejoin:round; stroke-width:4; stroke-opacity:1; fill:none" points="1872.57,745.04 1872.57,1486.45 1885.4,1486.45 1885.4,745.04 1872.57,745.04 "/>
<path clip-path="url(#clip492)" d="M1885.4 1093.94 L1885.4 1486.45 L1898.23 1486.45 L1898.23 1093.94 L1885.4 1093.94 L1885.4 1093.94  Z" fill="#009af9" fill-rule="evenodd" fill-opacity="1"/>
<polyline clip-path="url(#clip492)" style="stroke:#000000; stroke-linecap:round; stroke-linejoin:round; stroke-width:4; stroke-opacity:1; fill:none" points="1885.4,1093.94 1885.4,1486.45 1898.23,1486.45 1898.23,1093.94 1885.4,1093.94 "/>
<path clip-path="url(#clip492)" d="M1898.23 1268.39 L1898.23 1486.45 L1911.05 1486.45 L1911.05 1268.39 L1898.23 1268.39 L1898.23 1268.39  Z" fill="#009af9" fill-rule="evenodd" fill-opacity="1"/>
<polyline clip-path="url(#clip492)" style="stroke:#000000; stroke-linecap:round; stroke-linejoin:round; stroke-width:4; stroke-opacity:1; fill:none" points="1898.23,1268.39 1898.23,1486.45 1911.05,1486.45 1911.05,1268.39 1898.23,1268.39 "/>
<path clip-path="url(#clip492)" d="M1911.05 1093.94 L1911.05 1486.45 L1923.88 1486.45 L1923.88 1093.94 L1911.05 1093.94 L1911.05 1093.94  Z" fill="#009af9" fill-rule="evenodd" fill-opacity="1"/>
<polyline clip-path="url(#clip492)" style="stroke:#000000; stroke-linecap:round; stroke-linejoin:round; stroke-width:4; stroke-opacity:1; fill:none" points="1911.05,1093.94 1911.05,1486.45 1923.88,1486.45 1923.88,1093.94 1911.05,1093.94 "/>
<path clip-path="url(#clip492)" d="M1923.88 1268.39 L1923.88 1486.45 L1936.71 1486.45 L1936.71 1268.39 L1923.88 1268.39 L1923.88 1268.39  Z" fill="#009af9" fill-rule="evenodd" fill-opacity="1"/>
<polyline clip-path="url(#clip492)" style="stroke:#000000; stroke-linecap:round; stroke-linejoin:round; stroke-width:4; stroke-opacity:1; fill:none" points="1923.88,1268.39 1923.88,1486.45 1936.71,1486.45 1936.71,1268.39 1923.88,1268.39 "/>
<path clip-path="url(#clip492)" d="M1936.71 1181.16 L1936.71 1486.45 L1949.53 1486.45 L1949.53 1181.16 L1936.71 1181.16 L1936.71 1181.16  Z" fill="#009af9" fill-rule="evenodd" fill-opacity="1"/>
<polyline clip-path="url(#clip492)" style="stroke:#000000; stroke-linecap:round; stroke-linejoin:round; stroke-width:4; stroke-opacity:1; fill:none" points="1936.71,1181.16 1936.71,1486.45 1949.53,1486.45 1949.53,1181.16 1936.71,1181.16 "/>
<path clip-path="url(#clip492)" d="M1949.53 1355.61 L1949.53 1486.45 L1962.36 1486.45 L1962.36 1355.61 L1949.53 1355.61 L1949.53 1355.61  Z" fill="#009af9" fill-rule="evenodd" fill-opacity="1"/>
<polyline clip-path="url(#clip492)" style="stroke:#000000; stroke-linecap:round; stroke-linejoin:round; stroke-width:4; stroke-opacity:1; fill:none" points="1949.53,1355.61 1949.53,1486.45 1962.36,1486.45 1962.36,1355.61 1949.53,1355.61 "/>
<path clip-path="url(#clip492)" d="M1962.36 1181.16 L1962.36 1486.45 L1975.19 1486.45 L1975.19 1181.16 L1962.36 1181.16 L1962.36 1181.16  Z" fill="#009af9" fill-rule="evenodd" fill-opacity="1"/>
<polyline clip-path="url(#clip492)" style="stroke:#000000; stroke-linecap:round; stroke-linejoin:round; stroke-width:4; stroke-opacity:1; fill:none" points="1962.36,1181.16 1962.36,1486.45 1975.19,1486.45 1975.19,1181.16 1962.36,1181.16 "/>
<path clip-path="url(#clip492)" d="M1975.19 1442.84 L1975.19 1486.45 L1988.02 1486.45 L1988.02 1442.84 L1975.19 1442.84 L1975.19 1442.84  Z" fill="#009af9" fill-rule="evenodd" fill-opacity="1"/>
<polyline clip-path="url(#clip492)" style="stroke:#000000; stroke-linecap:round; stroke-linejoin:round; stroke-width:4; stroke-opacity:1; fill:none" points="1975.19,1442.84 1975.19,1486.45 1988.02,1486.45 1988.02,1442.84 1975.19,1442.84 "/>
<path clip-path="url(#clip492)" d="M1988.02 1355.61 L1988.02 1486.45 L2000.84 1486.45 L2000.84 1355.61 L1988.02 1355.61 L1988.02 1355.61  Z" fill="#009af9" fill-rule="evenodd" fill-opacity="1"/>
<polyline clip-path="url(#clip492)" style="stroke:#000000; stroke-linecap:round; stroke-linejoin:round; stroke-width:4; stroke-opacity:1; fill:none" points="1988.02,1355.61 1988.02,1486.45 2000.84,1486.45 2000.84,1355.61 1988.02,1355.61 "/>
<path clip-path="url(#clip492)" d="M2000.84 1399.22 L2000.84 1486.45 L2013.67 1486.45 L2013.67 1399.22 L2000.84 1399.22 L2000.84 1399.22  Z" fill="#009af9" fill-rule="evenodd" fill-opacity="1"/>
<polyline clip-path="url(#clip492)" style="stroke:#000000; stroke-linecap:round; stroke-linejoin:round; stroke-width:4; stroke-opacity:1; fill:none" points="2000.84,1399.22 2000.84,1486.45 2013.67,1486.45 2013.67,1399.22 2000.84,1399.22 "/>
<path clip-path="url(#clip492)" d="M2013.67 1399.22 L2013.67 1486.45 L2026.5 1486.45 L2026.5 1399.22 L2013.67 1399.22 L2013.67 1399.22  Z" fill="#009af9" fill-rule="evenodd" fill-opacity="1"/>
<polyline clip-path="url(#clip492)" style="stroke:#000000; stroke-linecap:round; stroke-linejoin:round; stroke-width:4; stroke-opacity:1; fill:none" points="2013.67,1399.22 2013.67,1486.45 2026.5,1486.45 2026.5,1399.22 2013.67,1399.22 "/>
<path clip-path="url(#clip492)" d="M2026.5 1486.45 L2026.5 1486.45 L2039.33 1486.45 L2039.33 1486.45 L2026.5 1486.45 L2026.5 1486.45  Z" fill="#009af9" fill-rule="evenodd" fill-opacity="1"/>
<polyline clip-path="url(#clip492)" style="stroke:#000000; stroke-linecap:round; stroke-linejoin:round; stroke-width:4; stroke-opacity:1; fill:none" points="2026.5,1486.45 2026.5,1486.45 2039.33,1486.45 2026.5,1486.45 "/>
<path clip-path="url(#clip492)" d="M2039.33 1442.84 L2039.33 1486.45 L2052.15 1486.45 L2052.15 1442.84 L2039.33 1442.84 L2039.33 1442.84  Z" fill="#009af9" fill-rule="evenodd" fill-opacity="1"/>
<polyline clip-path="url(#clip492)" style="stroke:#000000; stroke-linecap:round; stroke-linejoin:round; stroke-width:4; stroke-opacity:1; fill:none" points="2039.33,1442.84 2039.33,1486.45 2052.15,1486.45 2052.15,1442.84 2039.33,1442.84 "/>
<path clip-path="url(#clip492)" d="M2052.15 1399.22 L2052.15 1486.45 L2064.98 1486.45 L2064.98 1399.22 L2052.15 1399.22 L2052.15 1399.22  Z" fill="#009af9" fill-rule="evenodd" fill-opacity="1"/>
<polyline clip-path="url(#clip492)" style="stroke:#000000; stroke-linecap:round; stroke-linejoin:round; stroke-width:4; stroke-opacity:1; fill:none" points="2052.15,1399.22 2052.15,1486.45 2064.98,1486.45 2064.98,1399.22 2052.15,1399.22 "/>
<circle clip-path="url(#clip492)" style="fill:#009af9; stroke:none; fill-opacity:0" cx="609.078" cy="1442.84" r="2"/>
<circle clip-path="url(#clip492)" style="fill:#009af9; stroke:none; fill-opacity:0" cx="621.905" cy="1486.45" r="2"/>
<circle clip-path="url(#clip492)" style="fill:#009af9; stroke:none; fill-opacity:0" cx="634.732" cy="1486.45" r="2"/>
<circle clip-path="url(#clip492)" style="fill:#009af9; stroke:none; fill-opacity:0" cx="647.56" cy="1486.45" r="2"/>
<circle clip-path="url(#clip492)" style="fill:#009af9; stroke:none; fill-opacity:0" cx="660.387" cy="1486.45" r="2"/>
<circle clip-path="url(#clip492)" style="fill:#009af9; stroke:none; fill-opacity:0" cx="673.214" cy="1486.45" r="2"/>
<circle clip-path="url(#clip492)" style="fill:#009af9; stroke:none; fill-opacity:0" cx="686.042" cy="1486.45" r="2"/>
<circle clip-path="url(#clip492)" style="fill:#009af9; stroke:none; fill-opacity:0" cx="698.869" cy="1442.84" r="2"/>
<circle clip-path="url(#clip492)" style="fill:#009af9; stroke:none; fill-opacity:0" cx="711.696" cy="1442.84" r="2"/>
<circle clip-path="url(#clip492)" style="fill:#009af9; stroke:none; fill-opacity:0" cx="724.524" cy="1486.45" r="2"/>
<circle clip-path="url(#clip492)" style="fill:#009af9; stroke:none; fill-opacity:0" cx="737.351" cy="1486.45" r="2"/>
<circle clip-path="url(#clip492)" style="fill:#009af9; stroke:none; fill-opacity:0" cx="750.178" cy="1442.84" r="2"/>
<circle clip-path="url(#clip492)" style="fill:#009af9; stroke:none; fill-opacity:0" cx="763.006" cy="1355.61" r="2"/>
<circle clip-path="url(#clip492)" style="fill:#009af9; stroke:none; fill-opacity:0" cx="775.833" cy="1486.45" r="2"/>
<circle clip-path="url(#clip492)" style="fill:#009af9; stroke:none; fill-opacity:0" cx="788.66" cy="1442.84" r="2"/>
<circle clip-path="url(#clip492)" style="fill:#009af9; stroke:none; fill-opacity:0" cx="801.488" cy="1486.45" r="2"/>
<circle clip-path="url(#clip492)" style="fill:#009af9; stroke:none; fill-opacity:0" cx="814.315" cy="1486.45" r="2"/>
<circle clip-path="url(#clip492)" style="fill:#009af9; stroke:none; fill-opacity:0" cx="827.142" cy="1355.61" r="2"/>
<circle clip-path="url(#clip492)" style="fill:#009af9; stroke:none; fill-opacity:0" cx="839.97" cy="1355.61" r="2"/>
<circle clip-path="url(#clip492)" style="fill:#009af9; stroke:none; fill-opacity:0" cx="852.797" cy="1312" r="2"/>
<circle clip-path="url(#clip492)" style="fill:#009af9; stroke:none; fill-opacity:0" cx="865.624" cy="1312" r="2"/>
<circle clip-path="url(#clip492)" style="fill:#009af9; stroke:none; fill-opacity:0" cx="878.452" cy="1399.22" r="2"/>
<circle clip-path="url(#clip492)" style="fill:#009af9; stroke:none; fill-opacity:0" cx="891.279" cy="1355.61" r="2"/>
<circle clip-path="url(#clip492)" style="fill:#009af9; stroke:none; fill-opacity:0" cx="904.106" cy="1137.55" r="2"/>
<circle clip-path="url(#clip492)" style="fill:#009af9; stroke:none; fill-opacity:0" cx="916.934" cy="919.489" r="2"/>
<circle clip-path="url(#clip492)" style="fill:#009af9; stroke:none; fill-opacity:0" cx="929.761" cy="1181.16" r="2"/>
<circle clip-path="url(#clip492)" style="fill:#009af9; stroke:none; fill-opacity:0" cx="942.588" cy="1312" r="2"/>
<circle clip-path="url(#clip492)" style="fill:#009af9; stroke:none; fill-opacity:0" cx="955.416" cy="832.264" r="2"/>
<circle clip-path="url(#clip492)" style="fill:#009af9; stroke:none; fill-opacity:0" cx="968.243" cy="1006.71" r="2"/>
<circle clip-path="url(#clip492)" style="fill:#009af9; stroke:none; fill-opacity:0" cx="981.07" cy="832.264" r="2"/>
<circle clip-path="url(#clip492)" style="fill:#009af9; stroke:none; fill-opacity:0" cx="993.898" cy="657.815" r="2"/>
<circle clip-path="url(#clip492)" style="fill:#009af9; stroke:none; fill-opacity:0" cx="1006.73" cy="657.815" r="2"/>
<circle clip-path="url(#clip492)" style="fill:#009af9; stroke:none; fill-opacity:0" cx="1019.55" cy="701.428" r="2"/>
<circle clip-path="url(#clip492)" style="fill:#009af9; stroke:none; fill-opacity:0" cx="1032.38" cy="788.652" r="2"/>
<circle clip-path="url(#clip492)" style="fill:#009af9; stroke:none; fill-opacity:0" cx="1045.21" cy="745.04" r="2"/>
<circle clip-path="url(#clip492)" style="fill:#009af9; stroke:none; fill-opacity:0" cx="1058.03" cy="745.04" r="2"/>
<circle clip-path="url(#clip492)" style="fill:#009af9; stroke:none; fill-opacity:0" cx="1070.86" cy="265.305" r="2"/>
<circle clip-path="url(#clip492)" style="fill:#009af9; stroke:none; fill-opacity:0" cx="1083.69" cy="745.04" r="2"/>
<circle clip-path="url(#clip492)" style="fill:#009af9; stroke:none; fill-opacity:0" cx="1096.52" cy="701.428" r="2"/>
<circle clip-path="url(#clip492)" style="fill:#009af9; stroke:none; fill-opacity:0" cx="1109.34" cy="745.04" r="2"/>
<circle clip-path="url(#clip492)" style="fill:#009af9; stroke:none; fill-opacity:0" cx="1122.17" cy="526.979" r="2"/>
<circle clip-path="url(#clip492)" style="fill:#009af9; stroke:none; fill-opacity:0" cx="1135" cy="788.652" r="2"/>
<circle clip-path="url(#clip492)" style="fill:#009af9; stroke:none; fill-opacity:0" cx="1147.83" cy="657.815" r="2"/>
<circle clip-path="url(#clip492)" style="fill:#009af9; stroke:none; fill-opacity:0" cx="1160.65" cy="875.877" r="2"/>
<circle clip-path="url(#clip492)" style="fill:#009af9; stroke:none; fill-opacity:0" cx="1173.48" cy="657.815" r="2"/>
<circle clip-path="url(#clip492)" style="fill:#009af9; stroke:none; fill-opacity:0" cx="1186.31" cy="919.489" r="2"/>
<circle clip-path="url(#clip492)" style="fill:#009af9; stroke:none; fill-opacity:0" cx="1199.14" cy="832.264" r="2"/>
<circle clip-path="url(#clip492)" style="fill:#009af9; stroke:none; fill-opacity:0" cx="1211.96" cy="832.264" r="2"/>
<circle clip-path="url(#clip492)" style="fill:#009af9; stroke:none; fill-opacity:0" cx="1224.79" cy="963.101" r="2"/>
<circle clip-path="url(#clip492)" style="fill:#009af9; stroke:none; fill-opacity:0" cx="1237.62" cy="919.489" r="2"/>
<circle clip-path="url(#clip492)" style="fill:#009af9; stroke:none; fill-opacity:0" cx="1250.44" cy="1093.94" r="2"/>
<circle clip-path="url(#clip492)" style="fill:#009af9; stroke:none; fill-opacity:0" cx="1263.27" cy="1050.33" r="2"/>
<circle clip-path="url(#clip492)" style="fill:#009af9; stroke:none; fill-opacity:0" cx="1276.1" cy="1093.94" r="2"/>
<circle clip-path="url(#clip492)" style="fill:#009af9; stroke:none; fill-opacity:0" cx="1288.93" cy="1224.77" r="2"/>
<circle clip-path="url(#clip492)" style="fill:#009af9; stroke:none; fill-opacity:0" cx="1301.75" cy="1224.77" r="2"/>
<circle clip-path="url(#clip492)" style="fill:#009af9; stroke:none; fill-opacity:0" cx="1314.58" cy="1399.22" r="2"/>
<circle clip-path="url(#clip492)" style="fill:#009af9; stroke:none; fill-opacity:0" cx="1327.41" cy="1268.39" r="2"/>
<circle clip-path="url(#clip492)" style="fill:#009af9; stroke:none; fill-opacity:0" cx="1340.24" cy="1399.22" r="2"/>
<circle clip-path="url(#clip492)" style="fill:#009af9; stroke:none; fill-opacity:0" cx="1353.06" cy="1355.61" r="2"/>
<circle clip-path="url(#clip492)" style="fill:#009af9; stroke:none; fill-opacity:0" cx="1365.89" cy="1486.45" r="2"/>
<circle clip-path="url(#clip492)" style="fill:#009af9; stroke:none; fill-opacity:0" cx="1378.72" cy="1355.61" r="2"/>
<circle clip-path="url(#clip492)" style="fill:#009af9; stroke:none; fill-opacity:0" cx="1391.55" cy="1399.22" r="2"/>
<circle clip-path="url(#clip492)" style="fill:#009af9; stroke:none; fill-opacity:0" cx="1404.37" cy="1312" r="2"/>
<circle clip-path="url(#clip492)" style="fill:#009af9; stroke:none; fill-opacity:0" cx="1417.2" cy="1442.84" r="2"/>
<circle clip-path="url(#clip492)" style="fill:#009af9; stroke:none; fill-opacity:0" cx="1430.03" cy="1224.77" r="2"/>
<circle clip-path="url(#clip492)" style="fill:#009af9; stroke:none; fill-opacity:0" cx="1442.85" cy="1442.84" r="2"/>
<circle clip-path="url(#clip492)" style="fill:#009af9; stroke:none; fill-opacity:0" cx="1455.68" cy="1442.84" r="2"/>
<circle clip-path="url(#clip492)" style="fill:#009af9; stroke:none; fill-opacity:0" cx="1468.51" cy="1399.22" r="2"/>
<circle clip-path="url(#clip492)" style="fill:#009af9; stroke:none; fill-opacity:0" cx="1481.34" cy="1355.61" r="2"/>
<circle clip-path="url(#clip492)" style="fill:#009af9; stroke:none; fill-opacity:0" cx="1494.16" cy="1312" r="2"/>
<circle clip-path="url(#clip492)" style="fill:#009af9; stroke:none; fill-opacity:0" cx="1506.99" cy="1442.84" r="2"/>
<circle clip-path="url(#clip492)" style="fill:#009af9; stroke:none; fill-opacity:0" cx="1519.82" cy="1355.61" r="2"/>
<circle clip-path="url(#clip492)" style="fill:#009af9; stroke:none; fill-opacity:0" cx="1532.65" cy="1137.55" r="2"/>
<circle clip-path="url(#clip492)" style="fill:#009af9; stroke:none; fill-opacity:0" cx="1545.47" cy="1093.94" r="2"/>
<circle clip-path="url(#clip492)" style="fill:#009af9; stroke:none; fill-opacity:0" cx="1558.3" cy="1268.39" r="2"/>
<circle clip-path="url(#clip492)" style="fill:#009af9; stroke:none; fill-opacity:0" cx="1571.13" cy="1137.55" r="2"/>
<circle clip-path="url(#clip492)" style="fill:#009af9; stroke:none; fill-opacity:0" cx="1583.96" cy="1268.39" r="2"/>
<circle clip-path="url(#clip492)" style="fill:#009af9; stroke:none; fill-opacity:0" cx="1596.78" cy="1093.94" r="2"/>
<circle clip-path="url(#clip492)" style="fill:#009af9; stroke:none; fill-opacity:0" cx="1609.61" cy="1050.33" r="2"/>
<circle clip-path="url(#clip492)" style="fill:#009af9; stroke:none; fill-opacity:0" cx="1622.44" cy="919.489" r="2"/>
<circle clip-path="url(#clip492)" style="fill:#009af9; stroke:none; fill-opacity:0" cx="1635.26" cy="832.264" r="2"/>
<circle clip-path="url(#clip492)" style="fill:#009af9; stroke:none; fill-opacity:0" cx="1648.09" cy="745.04" r="2"/>
<circle clip-path="url(#clip492)" style="fill:#009af9; stroke:none; fill-opacity:0" cx="1660.92" cy="788.652" r="2"/>
<circle clip-path="url(#clip492)" style="fill:#009af9; stroke:none; fill-opacity:0" cx="1673.75" cy="701.428" r="2"/>
<circle clip-path="url(#clip492)" style="fill:#009af9; stroke:none; fill-opacity:0" cx="1686.57" cy="614.203" r="2"/>
<circle clip-path="url(#clip492)" style="fill:#009af9; stroke:none; fill-opacity:0" cx="1699.4" cy="963.101" r="2"/>
<circle clip-path="url(#clip492)" style="fill:#009af9; stroke:none; fill-opacity:0" cx="1712.23" cy="47.2441" r="2"/>
<circle clip-path="url(#clip492)" style="fill:#009af9; stroke:none; fill-opacity:0" cx="1725.06" cy="745.04" r="2"/>
<circle clip-path="url(#clip492)" style="fill:#009af9; stroke:none; fill-opacity:0" cx="1737.88" cy="352.53" r="2"/>
<circle clip-path="url(#clip492)" style="fill:#009af9; stroke:none; fill-opacity:0" cx="1750.71" cy="788.652" r="2"/>
<circle clip-path="url(#clip492)" style="fill:#009af9; stroke:none; fill-opacity:0" cx="1763.54" cy="701.428" r="2"/>
<circle clip-path="url(#clip492)" style="fill:#009af9; stroke:none; fill-opacity:0" cx="1776.37" cy="439.754" r="2"/>
<circle clip-path="url(#clip492)" style="fill:#009af9; stroke:none; fill-opacity:0" cx="1789.19" cy="745.04" r="2"/>
<circle clip-path="url(#clip492)" style="fill:#009af9; stroke:none; fill-opacity:0" cx="1802.02" cy="701.428" r="2"/>
<circle clip-path="url(#clip492)" style="fill:#009af9; stroke:none; fill-opacity:0" cx="1814.85" cy="657.815" r="2"/>
<circle clip-path="url(#clip492)" style="fill:#009af9; stroke:none; fill-opacity:0" cx="1827.67" cy="832.264" r="2"/>
<circle clip-path="url(#clip492)" style="fill:#009af9; stroke:none; fill-opacity:0" cx="1840.5" cy="1006.71" r="2"/>
<circle clip-path="url(#clip492)" style="fill:#009af9; stroke:none; fill-opacity:0" cx="1853.33" cy="963.101" r="2"/>
<circle clip-path="url(#clip492)" style="fill:#009af9; stroke:none; fill-opacity:0" cx="1866.16" cy="1093.94" r="2"/>
<circle clip-path="url(#clip492)" style="fill:#009af9; stroke:none; fill-opacity:0" cx="1878.98" cy="745.04" r="2"/>
<circle clip-path="url(#clip492)" style="fill:#009af9; stroke:none; fill-opacity:0" cx="1891.81" cy="1093.94" r="2"/>
<circle clip-path="url(#clip492)" style="fill:#009af9; stroke:none; fill-opacity:0" cx="1904.64" cy="1268.39" r="2"/>
<circle clip-path="url(#clip492)" style="fill:#009af9; stroke:none; fill-opacity:0" cx="1917.47" cy="1093.94" r="2"/>
<circle clip-path="url(#clip492)" style="fill:#009af9; stroke:none; fill-opacity:0" cx="1930.29" cy="1268.39" r="2"/>
<circle clip-path="url(#clip492)" style="fill:#009af9; stroke:none; fill-opacity:0" cx="1943.12" cy="1181.16" r="2"/>
<circle clip-path="url(#clip492)" style="fill:#009af9; stroke:none; fill-opacity:0" cx="1955.95" cy="1355.61" r="2"/>
<circle clip-path="url(#clip492)" style="fill:#009af9; stroke:none; fill-opacity:0" cx="1968.78" cy="1181.16" r="2"/>
<circle clip-path="url(#clip492)" style="fill:#009af9; stroke:none; fill-opacity:0" cx="1981.6" cy="1442.84" r="2"/>
<circle clip-path="url(#clip492)" style="fill:#009af9; stroke:none; fill-opacity:0" cx="1994.43" cy="1355.61" r="2"/>
<circle clip-path="url(#clip492)" style="fill:#009af9; stroke:none; fill-opacity:0" cx="2007.26" cy="1399.22" r="2"/>
<circle clip-path="url(#clip492)" style="fill:#009af9; stroke:none; fill-opacity:0" cx="2020.08" cy="1399.22" r="2"/>
<circle clip-path="url(#clip492)" style="fill:#009af9; stroke:none; fill-opacity:0" cx="2032.91" cy="1486.45" r="2"/>
<circle clip-path="url(#clip492)" style="fill:#009af9; stroke:none; fill-opacity:0" cx="2045.74" cy="1442.84" r="2"/>
<circle clip-path="url(#clip492)" style="fill:#009af9; stroke:none; fill-opacity:0" cx="2058.57" cy="1399.22" r="2"/>
<polyline clip-path="url(#clip492)" style="stroke:#e26f46; stroke-linecap:round; stroke-linejoin:round; stroke-width:8; stroke-opacity:1; fill:none" points="218.281,1486.45 220.356,1486.45 222.43,1486.45 224.504,1486.45 226.579,1486.45 228.653,1486.45 230.728,1486.45 232.802,1486.45 234.876,1486.45 236.951,1486.45 239.025,1486.45 241.099,1486.45 243.174,1486.45 245.248,1486.45 247.323,1486.45 249.397,1486.45 251.471,1486.45 253.546,1486.45 255.62,1486.45 257.695,1486.45 259.769,1486.45 261.843,1486.45 263.918,1486.45 265.992,1486.45 268.066,1486.45 270.141,1486.45 272.215,1486.45 274.29,1486.45 276.364,1486.45 278.438,1486.45 280.513,1486.45 282.587,1486.45 284.661,1486.45 286.736,1486.45 288.81,1486.45 290.885,1486.45 292.959,1486.45 295.033,1486.45 297.108,1486.45 299.182,1486.45 301.256,1486.45 303.331,1486.45 305.405,1486.45 307.48,1486.45 309.554,1486.45 311.628,1486.45 313.703,1486.45 315.777,1486.45 317.852,1486.45 319.926,1486.45 322,1486.45 324.075,1486.45 326.149,1486.45 328.223,1486.45 330.298,1486.45 332.372,1486.45 334.447,1486.45 336.521,1486.45 338.595,1486.45 340.67,1486.45 342.744,1486.45 344.818,1486.45 346.893,1486.45 348.967,1486.45 351.042,1486.45 353.116,1486.45 355.19,1486.45 357.265,1486.45 359.339,1486.45 361.413,1486.45 363.488,1486.45 365.562,1486.45 367.637,1486.45 369.711,1486.45 371.785,1486.45 373.86,1486.45 375.934,1486.45 378.009,1486.45 380.083,1486.45 382.157,1486.45 384.232,1486.45 386.306,1486.45 388.38,1486.45 390.455,1486.45 392.529,1486.45 394.604,1486.45 396.678,1486.45 398.752,1486.45 400.827,1486.45 402.901,1486.45 404.975,1486.45 407.05,1486.45 409.124,1486.45 411.199,1486.45 413.273,1486.45 415.347,1486.45 417.422,1486.45 419.496,1486.45 421.571,1486.45 423.645,1486.45 425.719,1486.45 427.794,1486.45 429.868,1486.45 431.942,1486.45 434.017,1486.45 436.091,1486.45 438.166,1486.45 440.24,1486.45 442.314,1486.45 444.389,1486.45 446.463,1486.45 448.537,1486.45 450.612,1486.45 452.686,1486.45 454.761,1486.45 456.835,1486.45 458.909,1486.45 460.984,1486.45 463.058,1486.45 465.132,1486.45 467.207,1486.45 469.281,1486.45 471.356,1486.45 473.43,1486.45 475.504,1486.45 477.579,1486.45 479.653,1486.45 481.728,1486.45 483.802,1486.45 485.876,1486.44 487.951,1486.44 490.025,1486.44 492.099,1486.44 494.174,1486.44 496.248,1486.44 498.323,1486.44 500.397,1486.43 502.471,1486.43 504.546,1486.42 506.62,1486.42 508.694,1486.41 510.769,1486.4 512.843,1486.39 514.918,1486.38 516.992,1486.37 519.066,1486.35 521.141,1486.33 523.215,1486.3 525.29,1486.28 527.364,1486.24 529.438,1486.2 531.513,1486.16 533.587,1486.11 535.661,1486.05 537.736,1485.99 539.81,1485.91 541.885,1485.83 543.959,1485.74 546.033,1485.64 548.108,1485.52 550.182,1485.4 552.256,1485.26 554.331,1485.11 556.405,1484.94 558.48,1484.77 560.554,1484.58 562.628,1484.37 564.703,1484.16 566.777,1483.93 568.851,1483.7 570.926,1483.45 573,1483.19 575.075,1482.93 577.149,1482.66 579.223,1482.39 581.298,1482.12 583.372,1481.84 585.447,1481.57 587.521,1481.31 589.595,1481.05 591.67,1480.8 593.744,1480.56 595.818,1480.34 597.893,1480.14 599.967,1479.95 602.042,1479.79 604.116,1479.64 606.19,1479.52 608.265,1479.42 610.339,1479.35 612.413,1479.3 614.488,1479.27 616.562,1479.26 618.637,1479.28 620.711,1479.31 622.785,1479.36 624.86,1479.42 626.934,1479.49 629.008,1479.57 631.083,1479.65 633.157,1479.73 635.232,1479.81 637.306,1479.88 639.38,1479.93 641.455,1479.97 643.529,1479.98 645.604,1479.98 647.678,1479.94 649.752,1479.87 651.827,1479.77 653.901,1479.63 655.975,1479.45 658.05,1479.22 660.124,1478.96 662.199,1478.65 664.273,1478.3 666.347,1477.91 668.422,1477.47 670.496,1476.99 672.57,1476.48 674.645,1475.92 676.719,1475.33 678.794,1474.7 680.868,1474.05 682.942,1473.36 685.017,1472.65 687.091,1471.92 689.166,1471.17 691.24,1470.4 693.314,1469.61 695.389,1468.82 697.463,1468.01 699.537,1467.2 701.612,1466.38 703.686,1465.56 705.761,1464.74 707.835,1463.91 709.909,1463.09 711.984,1462.26 714.058,1461.44 716.132,1460.62 718.207,1459.81 720.281,1458.99 722.356,1458.19 724.43,1457.39 726.504,1456.6 728.579,1455.82 730.653,1455.05 732.727,1454.3 734.802,1453.56 736.876,1452.84 738.951,1452.14 741.025,1451.47 743.099,1450.82 745.174,1450.19 747.248,1449.59 749.323,1449.02 751.397,1448.48 753.471,1447.97 755.546,1447.49 757.62,1447.03 759.694,1446.59 761.769,1446.17 763.843,1445.76 765.918,1445.36 767.992,1444.95 770.066,1444.54 772.141,1444.11 774.215,1443.65 776.289,1443.15 778.364,1442.6 780.438,1441.99 782.513,1441.31 784.587,1440.54 786.661,1439.67 788.736,1438.7 790.81,1437.61 792.885,1436.4 794.959,1435.04 797.033,1433.55 799.108,1431.91 801.182,1430.11 803.256,1428.16 805.331,1426.06 807.405,1423.79 809.48,1421.37 811.554,1418.79 813.628,1416.07 815.703,1413.2 817.777,1410.19 819.851,1407.05 821.926,1403.78 824,1400.4 826.075,1396.91 828.149,1393.32 830.223,1389.63 832.298,1385.85 834.372,1382 836.446,1378.06 838.521,1374.05 840.595,1369.97 842.67,1365.82 844.744,1361.6 846.818,1357.3 848.893,1352.94 850.967,1348.49 853.042,1343.97 855.116,1339.35 857.19,1334.64 859.265,1329.84 861.339,1324.92 863.413,1319.9 865.488,1314.76 867.562,1309.5 869.637,1304.12 871.711,1298.6 873.785,1292.96 875.86,1287.19 877.934,1281.3 880.008,1275.27 882.083,1269.13 884.157,1262.88 886.232,1256.51 888.306,1250.04 890.38,1243.48 892.455,1236.82 894.529,1230.09 896.603,1223.29 898.678,1216.41 900.752,1209.48 902.827,1202.48 904.901,1195.43 906.975,1188.32 909.05,1181.15 911.124,1173.91 913.199,1166.6 915.273,1159.21 917.347,1151.74 919.422,1144.16 921.496,1136.46 923.57,1128.64 925.645,1120.67 927.719,1112.54 929.794,1104.23 931.868,1095.74 933.942,1087.06 936.017,1078.16 938.091,1069.04 940.165,1059.71 942.24,1050.15 944.314,1040.37 946.389,1030.37 948.463,1020.17 950.537,1009.77 952.612,999.188 954.686,988.453 956.761,977.583 958.835,966.606 960.909,955.552 962.984,944.451 965.058,933.339 967.132,922.251 969.207,911.222 971.281,900.29 973.356,889.491 975.43,878.86 977.504,868.432 979.579,858.239 981.653,848.311 983.727,838.677 985.802,829.359 987.876,820.38 989.951,811.756 992.025,803.5 994.099,795.622 996.174,788.126 998.248,781.014 1000.32,774.282 1002.4,767.923 1004.47,761.926 1006.55,756.276 1008.62,750.957 1010.69,745.947 1012.77,741.225 1014.84,736.765 1016.92,732.542 1018.99,728.529 1021.07,724.699 1023.14,721.026 1025.22,717.482 1027.29,714.044 1029.36,710.689 1031.44,707.396 1033.51,704.146 1035.59,700.924 1037.66,697.719 1039.74,694.522 1041.81,691.327 1043.88,688.134 1045.96,684.943 1048.03,681.761 1050.11,678.596 1052.18,675.46 1054.26,672.365 1056.33,669.33 1058.41,666.371 1060.48,663.508 1062.55,660.762 1064.63,658.153 1066.7,655.703 1068.78,653.431 1070.85,651.357 1072.93,649.499 1075,647.874 1077.07,646.497 1079.15,645.382 1081.22,644.537 1083.3,643.973 1085.37,643.695 1087.45,643.707 1089.52,644.011 1091.6,644.606 1093.67,645.491 1095.74,646.661 1097.82,648.11 1099.89,649.832 1101.97,651.818 1104.04,654.059 1106.12,656.544 1108.19,659.264 1110.26,662.207 1112.34,665.36 1114.41,668.714 1116.49,672.255 1118.56,675.973 1120.64,679.854 1122.71,683.889 1124.79,688.064 1126.86,692.369 1128.93,696.792 1131.01,701.323 1133.08,705.95 1135.16,710.664 1137.23,715.454 1139.31,720.309 1141.38,725.222 1143.45,730.181 1145.53,735.18 1147.6,740.208 1149.68,745.259 1151.75,750.325 1153.83,755.4 1155.9,760.478 1157.98,765.552 1160.05,770.62 1162.12,775.677 1164.2,780.721 1166.27,785.749 1168.35,790.76 1170.42,795.756 1172.5,800.735 1174.57,805.7 1176.64,810.655 1178.72,815.601 1180.79,820.545 1182.87,825.491 1184.94,830.446 1187.02,835.416 1189.09,840.409 1191.17,845.434 1193.24,850.497 1195.31,855.61 1197.39,860.781 1199.46,866.019 1201.54,871.333 1203.61,876.733 1205.69,882.229 1207.76,887.827 1209.83,893.538 1211.91,899.367 1213.98,905.323 1216.06,911.41 1218.13,917.635 1220.21,924 1222.28,930.51 1224.36,937.166 1226.43,943.969 1228.5,950.92 1230.58,958.016 1232.65,965.256 1234.73,972.636 1236.8,980.153 1238.88,987.802 1240.95,995.575 1243.02,1003.47 1245.1,1011.47 1247.17,1019.58 1249.25,1027.79 1251.32,1036.08 1253.4,1044.45 1255.47,1052.89 1257.55,1061.39 1259.62,1069.94 1261.69,1078.52 1263.77,1087.14 1265.84,1095.78 1267.92,1104.43 1269.99,1113.08 1272.07,1121.71 1274.14,1130.33 1276.22,1138.92 1278.29,1147.46 1280.36,1155.96 1282.44,1164.39 1284.51,1172.76 1286.59,1181.04 1288.66,1189.24 1290.74,1197.33 1292.81,1205.32 1294.88,1213.19 1296.96,1220.94 1299.03,1228.55 1301.11,1236.02 1303.18,1243.33 1305.26,1250.49 1307.33,1257.49 1309.41,1264.31 1311.48,1270.95 1313.55,1277.4 1315.63,1283.67 1317.7,1289.74 1319.78,1295.61 1321.85,1301.27 1323.93,1306.72 1326,1311.96 1328.07,1316.98 1330.15,1321.78 1332.22,1326.36 1334.3,1330.71 1336.37,1334.83 1338.45,1338.73 1340.52,1342.39 1342.6,1345.82 1344.67,1349.02 1346.74,1351.99 1348.82,1354.73 1350.89,1357.25 1352.97,1359.54 1355.04,1361.61 1357.12,1363.47 1359.19,1365.12 1361.26,1366.56 1363.34,1367.81 1365.41,1368.88 1367.49,1369.76 1369.56,1370.49 1371.64,1371.06 1373.71,1371.49 1375.79,1371.79 1377.86,1371.98 1379.93,1372.07 1382.01,1372.07 1384.08,1372.01 1386.16,1371.9 1388.23,1371.74 1390.31,1371.57 1392.38,1371.38 1394.45,1371.2 1396.53,1371.04 1398.6,1370.91 1400.68,1370.82 1402.75,1370.79 1404.83,1370.81 1406.9,1370.9 1408.98,1371.06 1411.05,1371.3 1413.12,1371.61 1415.2,1372 1417.27,1372.47 1419.35,1373 1421.42,1373.6 1423.5,1374.26 1425.57,1374.97 1427.64,1375.72 1429.72,1376.49 1431.79,1377.29 1433.87,1378.08 1435.94,1378.86 1438.02,1379.62 1440.09,1380.34 1442.17,1381 1444.24,1381.59 1446.31,1382.1 1448.39,1382.5 1450.46,1382.79 1452.54,1382.95 1454.61,1382.98 1456.69,1382.85 1458.76,1382.56 1460.83,1382.1 1462.91,1381.45 1464.98,1380.62 1467.06,1379.58 1469.13,1378.34 1471.21,1376.9 1473.28,1375.24 1475.36,1373.36 1477.43,1371.25 1479.5,1368.93 1481.58,1366.38 1483.65,1363.6 1485.73,1360.59 1487.8,1357.36 1489.88,1353.91 1491.95,1350.24 1494.02,1346.35 1496.1,1342.25 1498.17,1337.94 1500.25,1333.44 1502.32,1328.76 1504.4,1323.9 1506.47,1318.89 1508.55,1313.72 1510.62,1308.42 1512.69,1303.01 1514.77,1297.51 1516.84,1291.93 1518.92,1286.29 1520.99,1280.61 1523.07,1274.91 1525.14,1269.22 1527.21,1263.54 1529.29,1257.9 1531.36,1252.32 1533.44,1246.8 1535.51,1241.37 1537.59,1236.02 1539.66,1230.76 1541.74,1225.6 1543.81,1220.54 1545.88,1215.57 1547.96,1210.68 1550.03,1205.87 1552.11,1201.11 1554.18,1196.4 1556.26,1191.7 1558.33,1187.01 1560.41,1182.28 1562.48,1177.5 1564.55,1172.63 1566.63,1167.65 1568.7,1162.53 1570.78,1157.24 1572.85,1151.74 1574.93,1146.02 1577,1140.05 1579.07,1133.81 1581.15,1127.27 1583.22,1120.42 1585.3,1113.26 1587.37,1105.77 1589.45,1097.95 1591.52,1089.8 1593.6,1081.32 1595.67,1072.52 1597.74,1063.42 1599.82,1054.04 1601.89,1044.38 1603.97,1034.49 1606.04,1024.38 1608.12,1014.09 1610.19,1003.64 1612.26,993.072 1614.34,982.416 1616.41,971.707 1618.49,960.978 1620.56,950.264 1622.64,939.595 1624.71,929.001 1626.79,918.51 1628.86,908.148 1630.93,897.935 1633.01,887.891 1635.08,878.03 1637.16,868.364 1639.23,858.899 1641.31,849.639 1643.38,840.584 1645.45,831.73 1647.53,823.071 1649.6,814.595 1651.68,806.292 1653.75,798.146 1655.83,790.141 1657.9,782.26 1659.98,774.485 1662.05,766.799 1664.12,759.184 1666.2,751.626 1668.27,744.109 1670.35,736.623 1672.42,729.158 1674.5,721.71 1676.57,714.274 1678.64,706.853 1680.72,699.451 1682.79,692.077 1684.87,684.744 1686.94,677.467 1689.02,670.267 1691.09,663.164 1693.17,656.185 1695.24,649.356 1697.31,642.707 1699.39,636.266 1701.46,630.064 1703.54,624.132 1705.61,618.497 1707.69,613.189 1709.76,608.234 1711.83,603.654 1713.91,599.47 1715.98,595.701 1718.06,592.36 1720.13,589.457 1722.21,587 1724.28,584.99 1726.36,583.428 1728.43,582.308 1730.5,581.624 1732.58,581.363 1734.65,581.515 1736.73,582.062 1738.8,582.987 1740.88,584.274 1742.95,585.902 1745.02,587.853 1747.1,590.107 1749.17,592.646 1751.25,595.453 1753.32,598.511 1755.4,601.806 1757.47,605.325 1759.55,609.057 1761.62,612.993 1763.69,617.126 1765.77,621.45 1767.84,625.963 1769.92,630.662 1771.99,635.546 1774.07,640.616 1776.14,645.873 1778.21,651.319 1780.29,656.956 1782.36,662.784 1784.44,668.807 1786.51,675.023 1788.59,681.434 1790.66,688.038 1792.74,694.832 1794.81,701.812 1796.88,708.973 1798.96,716.308 1801.03,723.807 1803.11,731.461 1805.18,739.258 1807.26,747.185 1809.33,755.227 1811.41,763.37 1813.48,771.598 1815.55,779.894 1817.63,788.241 1819.7,796.623 1821.78,805.023 1823.85,813.426 1825.93,821.816 1828,830.179 1830.07,838.504 1832.15,846.779 1834.22,854.996 1836.3,863.147 1838.37,871.226 1840.45,879.232 1842.52,887.163 1844.6,895.021 1846.67,902.809 1848.74,910.531 1850.82,918.194 1852.89,925.807 1854.97,933.378 1857.04,940.917 1859.12,948.435 1861.19,955.942 1863.26,963.449 1865.34,970.964 1867.41,978.496 1869.49,986.054 1871.56,993.642 1873.64,1001.27 1875.71,1008.93 1877.79,1016.63 1879.86,1024.37 1881.93,1032.14 1884.01,1039.94 1886.08,1047.77 1888.16,1055.6 1890.23,1063.44 1892.31,1071.28 1894.38,1079.09 1896.45,1086.88 1898.53,1094.62 1900.6,1102.31 1902.68,1109.93 1904.75,1117.47 1906.83,1124.92 1908.9,1132.28 1910.98,1139.54 1913.05,1146.68 1915.12,1153.71 1917.2,1160.62 1919.27,1167.41 1921.35,1174.09 1923.42,1180.65 1925.5,1187.09 1927.57,1193.42 1929.64,1199.65 1931.72,1205.78 1933.79,1211.82 1935.87,1217.77 1937.94,1223.64 1940.02,1229.43 1942.09,1235.16 1944.17,1240.83 1946.24,1246.44 1948.31,1252 1950.39,1257.52 1952.46,1262.98 1954.54,1268.41 1956.61,1273.8 1958.69,1279.14 1960.76,1284.45 1962.83,1289.71 1964.91,1294.92 1966.98,1300.09 1969.06,1305.21 1971.13,1310.27 1973.21,1315.28 1975.28,1320.23 1977.36,1325.1 1979.43,1329.91 1981.5,1334.65 1983.58,1339.31 1985.65,1343.88 1987.73,1348.38 1989.8,1352.79 1991.88,1357.1 1993.95,1361.33 1996.02,1365.47 1998.1,1369.51 2000.17,1373.46 2002.25,1377.32 2004.32,1381.08 2006.4,1384.75 2008.47,1388.33 2010.55,1391.82 2012.62,1395.22 2014.69,1398.53 2016.77,1401.75 2018.84,1404.89 2020.92,1407.95 2022.99,1410.92 2025.07,1413.82 2027.14,1416.64 2029.21,1419.38 2031.29,1422.05 2033.36,1424.65 2035.44,1427.18 2037.51,1429.65 2039.59,1432.05 2041.66,1434.38 2043.74,1436.66 2045.81,1438.88 2047.88,1441.04 2049.96,1443.15 2052.03,1445.2 2054.11,1447.21 2056.18,1449.16 2058.26,1451.06 2060.33,1452.91 2062.4,1454.72 2064.48,1456.47 2066.55,1458.18 2068.63,1459.84 2070.7,1461.45 2072.78,1463.01 2074.85,1464.52 2076.93,1465.98 2079,1467.39 2081.07,1468.74 2083.15,1470.04 2085.22,1471.28 2087.3,1472.47 2089.37,1473.6 2091.45,1474.67 2093.52,1475.68 2095.6,1476.64 2097.67,1477.54 2099.74,1478.38 2101.82,1479.17 2103.89,1479.9 2105.97,1480.58 2108.04,1481.2 2110.12,1481.78 2112.19,1482.3 2114.26,1482.78 2116.34,1483.22 2118.41,1483.61 2120.49,1483.97 2122.56,1484.29 2124.64,1484.57 2126.71,1484.82 2128.79,1485.05 2130.86,1485.25 2132.93,1485.42 2135.01,1485.57 2137.08,1485.7 2139.16,1485.82 2141.23,1485.92 2143.31,1486 2145.38,1486.08 2147.45,1486.14 2149.53,1486.19 2151.6,1486.24 2153.68,1486.27 2155.75,1486.31 2157.83,1486.33 2159.9,1486.35 2161.98,1486.37 2164.05,1486.39 2166.12,1486.4 2168.2,1486.41 2170.27,1486.42 2172.35,1486.42 2174.42,1486.43 2176.5,1486.43 2178.57,1486.44 2180.64,1486.44 2182.72,1486.44 2184.79,1486.44 2186.87,1486.44 2188.94,1486.44 2191.02,1486.45 2193.09,1486.45 2195.17,1486.45 2197.24,1486.45 2199.31,1486.45 2201.39,1486.45 2203.46,1486.45 2205.54,1486.45 2207.61,1486.45 2209.69,1486.45 2211.76,1486.45 2213.83,1486.45 2215.91,1486.45 2217.98,1486.45 2220.06,1486.45 2222.13,1486.45 2224.21,1486.45 2226.28,1486.45 2228.36,1486.45 2230.43,1486.45 2232.5,1486.45 2234.58,1486.45 2236.65,1486.45 2238.73,1486.45 2240.8,1486.45 2242.88,1486.45 2244.95,1486.45 2247.02,1486.45 2249.1,1486.45 2251.17,1486.45 2253.25,1486.45 2255.32,1486.45 2257.4,1486.45 2259.47,1486.45 2261.55,1486.45 2263.62,1486.45 2265.69,1486.45 2267.77,1486.45 2269.84,1486.45 2271.92,1486.45 2273.99,1486.45 2276.07,1486.45 2278.14,1486.45 2280.21,1486.45 2282.29,1486.45 2284.36,1486.45 2286.44,1486.45 2288.51,1486.45 2290.59,1486.45 "/>
<path clip-path="url(#clip490)" d="M1955.63 250.738 L2279.53 250.738 L2279.53 95.2176 L1955.63 95.2176  Z" fill="#ffffff" fill-rule="evenodd" fill-opacity="1"/>
<polyline clip-path="url(#clip490)" style="stroke:#000000; stroke-linecap:round; stroke-linejoin:round; stroke-width:4; stroke-opacity:1; fill:none" points="1955.63,250.738 2279.53,250.738 2279.53,95.2176 1955.63,95.2176 1955.63,250.738 "/>
<path clip-path="url(#clip490)" d="M1980.04 167.794 L2126.48 167.794 L2126.48 126.322 L1980.04 126.322 L1980.04 167.794  Z" fill="#009af9" fill-rule="evenodd" fill-opacity="1"/>
<polyline clip-path="url(#clip490)" style="stroke:#000000; stroke-linecap:round; stroke-linejoin:round; stroke-width:4; stroke-opacity:1; fill:none" points="1980.04,167.794 2126.48,167.794 2126.48,126.322 1980.04,126.322 1980.04,167.794 "/>
<path clip-path="url(#clip490)" d="M2155.57 133.62 L2155.57 160.495 L2161.22 160.495 Q2168.37 160.495 2171.68 157.254 Q2175.01 154.014 2175.01 147.023 Q2175.01 140.078 2171.68 136.861 Q2168.37 133.62 2161.22 133.62 L2155.57 133.62 M2150.89 129.778 L2160.5 129.778 Q2170.54 129.778 2175.24 133.967 Q2179.94 138.134 2179.94 147.023 Q2179.94 155.958 2175.22 160.148 Q2170.5 164.338 2160.5 164.338 L2150.89 164.338 L2150.89 129.778 Z" fill="#000000" fill-rule="nonzero" fill-opacity="1" /><path clip-path="url(#clip490)" d="M2198.99 151.305 Q2193.83 151.305 2191.84 152.486 Q2189.85 153.666 2189.85 156.514 Q2189.85 158.782 2191.33 160.125 Q2192.84 161.444 2195.41 161.444 Q2198.95 161.444 2201.08 158.944 Q2203.23 156.421 2203.23 152.254 L2203.23 151.305 L2198.99 151.305 M2207.49 149.546 L2207.49 164.338 L2203.23 164.338 L2203.23 160.402 Q2201.77 162.763 2199.6 163.898 Q2197.42 165.009 2194.27 165.009 Q2190.29 165.009 2187.93 162.787 Q2185.59 160.541 2185.59 156.791 Q2185.59 152.416 2188.51 150.194 Q2191.45 147.972 2197.26 147.972 L2203.23 147.972 L2203.23 147.555 Q2203.23 144.615 2201.28 143.018 Q2199.36 141.398 2195.87 141.398 Q2193.65 141.398 2191.54 141.93 Q2189.43 142.463 2187.49 143.527 L2187.49 139.592 Q2189.83 138.69 2192.03 138.25 Q2194.22 137.787 2196.31 137.787 Q2201.93 137.787 2204.71 140.703 Q2207.49 143.62 2207.49 149.546 Z" fill="#000000" fill-rule="nonzero" fill-opacity="1" /><path clip-path="url(#clip490)" d="M2220.47 131.051 L2220.47 138.412 L2229.25 138.412 L2229.25 141.722 L2220.47 141.722 L2220.47 155.796 Q2220.47 158.967 2221.33 159.87 Q2222.21 160.773 2224.87 160.773 L2229.25 160.773 L2229.25 164.338 L2224.87 164.338 Q2219.94 164.338 2218.07 162.509 Q2216.19 160.657 2216.19 155.796 L2216.19 141.722 L2213.07 141.722 L2213.07 138.412 L2216.19 138.412 L2216.19 131.051 L2220.47 131.051 Z" fill="#000000" fill-rule="nonzero" fill-opacity="1" /><path clip-path="url(#clip490)" d="M2246.63 151.305 Q2241.47 151.305 2239.48 152.486 Q2237.49 153.666 2237.49 156.514 Q2237.49 158.782 2238.97 160.125 Q2240.47 161.444 2243.04 161.444 Q2246.59 161.444 2248.72 158.944 Q2250.87 156.421 2250.87 152.254 L2250.87 151.305 L2246.63 151.305 M2255.13 149.546 L2255.13 164.338 L2250.87 164.338 L2250.87 160.402 Q2249.41 162.763 2247.23 163.898 Q2245.06 165.009 2241.91 165.009 Q2237.93 165.009 2235.57 162.787 Q2233.23 160.541 2233.23 156.791 Q2233.23 152.416 2236.15 150.194 Q2239.09 147.972 2244.9 147.972 L2250.87 147.972 L2250.87 147.555 Q2250.87 144.615 2248.92 143.018 Q2247 141.398 2243.51 141.398 Q2241.28 141.398 2239.18 141.93 Q2237.07 142.463 2235.13 143.527 L2235.13 139.592 Q2237.47 138.69 2239.66 138.25 Q2241.86 137.787 2243.95 137.787 Q2249.57 137.787 2252.35 140.703 Q2255.13 143.62 2255.13 149.546 Z" fill="#000000" fill-rule="nonzero" fill-opacity="1" /><polyline clip-path="url(#clip490)" style="stroke:#e26f46; stroke-linecap:round; stroke-linejoin:round; stroke-width:8; stroke-opacity:1; fill:none" points="1980.04,198.898 2126.48,198.898 "/>
<path clip-path="url(#clip490)" d="M2155.57 185.46 L2155.57 198.446 L2161.45 198.446 Q2164.71 198.446 2166.49 196.756 Q2168.28 195.067 2168.28 191.942 Q2168.28 188.84 2166.49 187.15 Q2164.71 185.46 2161.45 185.46 L2155.57 185.46 M2150.89 181.618 L2161.45 181.618 Q2167.26 181.618 2170.22 184.256 Q2173.21 186.872 2173.21 191.942 Q2173.21 197.057 2170.22 199.673 Q2167.26 202.289 2161.45 202.289 L2155.57 202.289 L2155.57 216.178 L2150.89 216.178 L2150.89 181.618 Z" fill="#000000" fill-rule="nonzero" fill-opacity="1" /><path clip-path="url(#clip490)" d="M2184.16 185.46 L2184.16 212.335 L2189.8 212.335 Q2196.96 212.335 2200.27 209.094 Q2203.6 205.854 2203.6 198.863 Q2203.6 191.918 2200.27 188.701 Q2196.96 185.46 2189.8 185.46 L2184.16 185.46 M2179.48 181.618 L2189.09 181.618 Q2199.13 181.618 2203.83 185.807 Q2208.53 189.974 2208.53 198.863 Q2208.53 207.798 2203.81 211.988 Q2199.09 216.178 2189.09 216.178 L2179.48 216.178 L2179.48 181.618 Z" fill="#000000" fill-rule="nonzero" fill-opacity="1" /><path clip-path="url(#clip490)" d="M2215.98 181.618 L2235.84 181.618 L2235.84 185.553 L2220.66 185.553 L2220.66 195.738 L2234.36 195.738 L2234.36 199.673 L2220.66 199.673 L2220.66 216.178 L2215.98 216.178 L2215.98 181.618 Z" fill="#000000" fill-rule="nonzero" fill-opacity="1" /></svg>
