<?xml version="1.0" encoding="utf-8"?>
<svg xmlns="http://www.w3.org/2000/svg" xmlns:xlink="http://www.w3.org/1999/xlink" width="600" height="400" viewBox="0 0 2400 1600">
<defs>
  <clipPath id="clip750">
    <rect x="0" y="0" width="2400" height="1600"/>
  </clipPath>
</defs>
<path clip-path="url(#clip750)" d="M0 1600 L2400 1600 L2400 0 L0 0  Z" fill="#ffffff" fill-rule="evenodd" fill-opacity="1"/>
<defs>
  <clipPath id="clip751">
    <rect x="480" y="0" width="1681" height="1600"/>
  </clipPath>
</defs>
<path clip-path="url(#clip750)" d="M112.177 1423.18 L2352.76 1423.18 L2352.76 47.2441 L112.177 47.2441  Z" fill="#ffffff" fill-rule="evenodd" fill-opacity="1"/>
<defs>
  <clipPath id="clip752">
    <rect x="112" y="47" width="2242" height="1377"/>
  </clipPath>
</defs>
<polyline clip-path="url(#clip752)" style="stroke:#000000; stroke-linecap:round; stroke-linejoin:round; stroke-width:2; stroke-opacity:0.1; fill:none" points="112.177,1423.18 112.177,47.2441 "/>
<polyline clip-path="url(#clip752)" style="stroke:#000000; stroke-linecap:round; stroke-linejoin:round; stroke-width:2; stroke-opacity:0.1; fill:none" points="560.293,1423.18 560.293,47.2441 "/>
<polyline clip-path="url(#clip752)" style="stroke:#000000; stroke-linecap:round; stroke-linejoin:round; stroke-width:2; stroke-opacity:0.1; fill:none" points="1008.41,1423.18 1008.41,47.2441 "/>
<polyline clip-path="url(#clip752)" style="stroke:#000000; stroke-linecap:round; stroke-linejoin:round; stroke-width:2; stroke-opacity:0.1; fill:none" points="1456.52,1423.18 1456.52,47.2441 "/>
<polyline clip-path="url(#clip752)" style="stroke:#000000; stroke-linecap:round; stroke-linejoin:round; stroke-width:2; stroke-opacity:0.1; fill:none" points="1904.64,1423.18 1904.64,47.2441 "/>
<polyline clip-path="url(#clip752)" style="stroke:#000000; stroke-linecap:round; stroke-linejoin:round; stroke-width:2; stroke-opacity:0.1; fill:none" points="2352.76,1423.18 2352.76,47.2441 "/>
<polyline clip-path="url(#clip752)" style="stroke:#000000; stroke-linecap:round; stroke-linejoin:round; stroke-width:2; stroke-opacity:0.1; fill:none" points="112.177,1423.18 2352.76,1423.18 "/>
<polyline clip-path="url(#clip752)" style="stroke:#000000; stroke-linecap:round; stroke-linejoin:round; stroke-width:2; stroke-opacity:0.1; fill:none" points="112.177,1142.38 2352.76,1142.38 "/>
<polyline clip-path="url(#clip752)" style="stroke:#000000; stroke-linecap:round; stroke-linejoin:round; stroke-width:2; stroke-opacity:0.1; fill:none" points="112.177,861.573 2352.76,861.573 "/>
<polyline clip-path="url(#clip752)" style="stroke:#000000; stroke-linecap:round; stroke-linejoin:round; stroke-width:2; stroke-opacity:0.1; fill:none" points="112.177,580.77 2352.76,580.77 "/>
<polyline clip-path="url(#clip752)" style="stroke:#000000; stroke-linecap:round; stroke-linejoin:round; stroke-width:2; stroke-opacity:0.1; fill:none" points="112.177,299.967 2352.76,299.967 "/>
<polyline clip-path="url(#clip750)" style="stroke:#000000; stroke-linecap:round; stroke-linejoin:round; stroke-width:4; stroke-opacity:1; fill:none" points="112.177,1423.18 2352.76,1423.18 "/>
<polyline clip-path="url(#clip750)" style="stroke:#000000; stroke-linecap:round; stroke-linejoin:round; stroke-width:4; stroke-opacity:1; fill:none" points="112.177,1423.18 112.177,1404.28 "/>
<polyline clip-path="url(#clip750)" style="stroke:#000000; stroke-linecap:round; stroke-linejoin:round; stroke-width:4; stroke-opacity:1; fill:none" points="560.293,1423.18 560.293,1404.28 "/>
<polyline clip-path="url(#clip750)" style="stroke:#000000; stroke-linecap:round; stroke-linejoin:round; stroke-width:4; stroke-opacity:1; fill:none" points="1008.41,1423.18 1008.41,1404.28 "/>
<polyline clip-path="url(#clip750)" style="stroke:#000000; stroke-linecap:round; stroke-linejoin:round; stroke-width:4; stroke-opacity:1; fill:none" points="1456.52,1423.18 1456.52,1404.28 "/>
<polyline clip-path="url(#clip750)" style="stroke:#000000; stroke-linecap:round; stroke-linejoin:round; stroke-width:4; stroke-opacity:1; fill:none" points="1904.64,1423.18 1904.64,1404.28 "/>
<polyline clip-path="url(#clip750)" style="stroke:#000000; stroke-linecap:round; stroke-linejoin:round; stroke-width:4; stroke-opacity:1; fill:none" points="2352.76,1423.18 2352.76,1404.28 "/>
<path clip-path="url(#clip750)" d="M90.0592 1454.1 Q86.4481 1454.1 84.6195 1457.66 Q82.8139 1461.2 82.8139 1468.33 Q82.8139 1475.44 84.6195 1479.01 Q86.4481 1482.55 90.0592 1482.55 Q93.6935 1482.55 95.499 1479.01 Q97.3277 1475.44 97.3277 1468.33 Q97.3277 1461.2 95.499 1457.66 Q93.6935 1454.1 90.0592 1454.1 M90.0592 1450.39 Q95.8694 1450.39 98.9249 1455 Q102.004 1459.58 102.004 1468.33 Q102.004 1477.06 98.9249 1481.67 Q95.8694 1486.25 90.0592 1486.25 Q84.2491 1486.25 81.1704 1481.67 Q78.1149 1477.06 78.1149 1468.33 Q78.1149 1459.58 81.1704 1455 Q84.2491 1450.39 90.0592 1450.39 Z" fill="#000000" fill-rule="nonzero" fill-opacity="1" /><path clip-path="url(#clip750)" d="M110.221 1479.7 L115.105 1479.7 L115.105 1485.58 L110.221 1485.58 L110.221 1479.7 Z" fill="#000000" fill-rule="nonzero" fill-opacity="1" /><path clip-path="url(#clip750)" d="M125.337 1451.02 L143.693 1451.02 L143.693 1454.96 L129.619 1454.96 L129.619 1463.43 Q130.638 1463.08 131.656 1462.92 Q132.675 1462.73 133.693 1462.73 Q139.48 1462.73 142.86 1465.9 Q146.239 1469.08 146.239 1474.49 Q146.239 1480.07 142.767 1483.17 Q139.295 1486.25 132.976 1486.25 Q130.8 1486.25 128.531 1485.88 Q126.286 1485.51 123.879 1484.77 L123.879 1480.07 Q125.962 1481.2 128.184 1481.76 Q130.406 1482.32 132.883 1482.32 Q136.888 1482.32 139.226 1480.21 Q141.564 1478.1 141.564 1474.49 Q141.564 1470.88 139.226 1468.77 Q136.888 1466.67 132.883 1466.67 Q131.008 1466.67 129.133 1467.08 Q127.281 1467.5 125.337 1468.38 L125.337 1451.02 Z" fill="#000000" fill-rule="nonzero" fill-opacity="1" /><path clip-path="url(#clip750)" d="M537.596 1454.1 Q533.985 1454.1 532.156 1457.66 Q530.351 1461.2 530.351 1468.33 Q530.351 1475.44 532.156 1479.01 Q533.985 1482.55 537.596 1482.55 Q541.231 1482.55 543.036 1479.01 Q544.865 1475.44 544.865 1468.33 Q544.865 1461.2 543.036 1457.66 Q541.231 1454.1 537.596 1454.1 M537.596 1450.39 Q543.406 1450.39 546.462 1455 Q549.541 1459.58 549.541 1468.33 Q549.541 1477.06 546.462 1481.67 Q543.406 1486.25 537.596 1486.25 Q531.786 1486.25 528.707 1481.67 Q525.652 1477.06 525.652 1468.33 Q525.652 1459.58 528.707 1455 Q531.786 1450.39 537.596 1450.39 Z" fill="#000000" fill-rule="nonzero" fill-opacity="1" /><path clip-path="url(#clip750)" d="M557.758 1479.7 L562.642 1479.7 L562.642 1485.58 L557.758 1485.58 L557.758 1479.7 Z" fill="#000000" fill-rule="nonzero" fill-opacity="1" /><path clip-path="url(#clip750)" d="M583.406 1466.44 Q580.258 1466.44 578.406 1468.59 Q576.578 1470.74 576.578 1474.49 Q576.578 1478.22 578.406 1480.39 Q580.258 1482.55 583.406 1482.55 Q586.554 1482.55 588.383 1480.39 Q590.235 1478.22 590.235 1474.49 Q590.235 1470.74 588.383 1468.59 Q586.554 1466.44 583.406 1466.44 M592.689 1451.78 L592.689 1456.04 Q590.929 1455.21 589.124 1454.77 Q587.341 1454.33 585.582 1454.33 Q580.953 1454.33 578.499 1457.45 Q576.068 1460.58 575.721 1466.9 Q577.087 1464.89 579.147 1463.82 Q581.207 1462.73 583.684 1462.73 Q588.892 1462.73 591.902 1465.9 Q594.934 1469.05 594.934 1474.49 Q594.934 1479.82 591.786 1483.03 Q588.638 1486.25 583.406 1486.25 Q577.411 1486.25 574.24 1481.67 Q571.068 1477.06 571.068 1468.33 Q571.068 1460.14 574.957 1455.28 Q578.846 1450.39 585.397 1450.39 Q587.156 1450.39 588.939 1450.74 Q590.744 1451.09 592.689 1451.78 Z" fill="#000000" fill-rule="nonzero" fill-opacity="1" /><path clip-path="url(#clip750)" d="M986.244 1454.1 Q982.633 1454.1 980.805 1457.66 Q978.999 1461.2 978.999 1468.33 Q978.999 1475.44 980.805 1479.01 Q982.633 1482.55 986.244 1482.55 Q989.879 1482.55 991.684 1479.01 Q993.513 1475.44 993.513 1468.33 Q993.513 1461.2 991.684 1457.66 Q989.879 1454.1 986.244 1454.1 M986.244 1450.39 Q992.055 1450.39 995.11 1455 Q998.189 1459.58 998.189 1468.33 Q998.189 1477.06 995.11 1481.67 Q992.055 1486.25 986.244 1486.25 Q980.434 1486.25 977.356 1481.67 Q974.3 1477.06 974.3 1468.33 Q974.3 1459.58 977.356 1455 Q980.434 1450.39 986.244 1450.39 Z" fill="#000000" fill-rule="nonzero" fill-opacity="1" /><path clip-path="url(#clip750)" d="M1006.41 1479.7 L1011.29 1479.7 L1011.29 1485.58 L1006.41 1485.58 L1006.41 1479.7 Z" fill="#000000" fill-rule="nonzero" fill-opacity="1" /><path clip-path="url(#clip750)" d="M1020.3 1451.02 L1042.52 1451.02 L1042.52 1453.01 L1029.97 1485.58 L1025.09 1485.58 L1036.89 1454.96 L1020.3 1454.96 L1020.3 1451.02 Z" fill="#000000" fill-rule="nonzero" fill-opacity="1" /><path clip-path="url(#clip750)" d="M1433.96 1454.1 Q1430.34 1454.1 1428.52 1457.66 Q1426.71 1461.2 1426.71 1468.33 Q1426.71 1475.44 1428.52 1479.01 Q1430.34 1482.55 1433.96 1482.55 Q1437.59 1482.55 1439.39 1479.01 Q1441.22 1475.44 1441.22 1468.33 Q1441.22 1461.2 1439.39 1457.66 Q1437.59 1454.1 1433.96 1454.1 M1433.96 1450.39 Q1439.77 1450.39 1442.82 1455 Q1445.9 1459.58 1445.9 1468.33 Q1445.9 1477.06 1442.82 1481.67 Q1439.77 1486.25 1433.96 1486.25 Q1428.14 1486.25 1425.07 1481.67 Q1422.01 1477.06 1422.01 1468.33 Q1422.01 1459.58 1425.07 1455 Q1428.14 1450.39 1433.96 1450.39 Z" fill="#000000" fill-rule="nonzero" fill-opacity="1" /><path clip-path="url(#clip750)" d="M1454.12 1479.7 L1459 1479.7 L1459 1485.58 L1454.12 1485.58 L1454.12 1479.7 Z" fill="#000000" fill-rule="nonzero" fill-opacity="1" /><path clip-path="url(#clip750)" d="M1479.19 1469.17 Q1475.85 1469.17 1473.93 1470.95 Q1472.03 1472.73 1472.03 1475.86 Q1472.03 1478.98 1473.93 1480.77 Q1475.85 1482.55 1479.19 1482.55 Q1482.52 1482.55 1484.44 1480.77 Q1486.36 1478.96 1486.36 1475.86 Q1486.36 1472.73 1484.44 1470.95 Q1482.54 1469.17 1479.19 1469.17 M1474.51 1467.18 Q1471.5 1466.44 1469.81 1464.38 Q1468.14 1462.32 1468.14 1459.35 Q1468.14 1455.21 1471.08 1452.8 Q1474.05 1450.39 1479.19 1450.39 Q1484.35 1450.39 1487.29 1452.8 Q1490.23 1455.21 1490.23 1459.35 Q1490.23 1462.32 1488.54 1464.38 Q1486.87 1466.44 1483.89 1467.18 Q1487.26 1467.96 1489.14 1470.26 Q1491.04 1472.55 1491.04 1475.86 Q1491.04 1480.88 1487.96 1483.57 Q1484.9 1486.25 1479.19 1486.25 Q1473.47 1486.25 1470.39 1483.57 Q1467.33 1480.88 1467.33 1475.86 Q1467.33 1472.55 1469.23 1470.26 Q1471.13 1467.96 1474.51 1467.18 M1472.8 1459.79 Q1472.8 1462.48 1474.46 1463.98 Q1476.15 1465.49 1479.19 1465.49 Q1482.2 1465.49 1483.89 1463.98 Q1485.6 1462.48 1485.6 1459.79 Q1485.6 1457.11 1483.89 1455.6 Q1482.2 1454.1 1479.19 1454.1 Q1476.15 1454.1 1474.46 1455.6 Q1472.8 1457.11 1472.8 1459.79 Z" fill="#000000" fill-rule="nonzero" fill-opacity="1" /><path clip-path="url(#clip750)" d="M1882.12 1454.1 Q1878.51 1454.1 1876.68 1457.66 Q1874.87 1461.2 1874.87 1468.33 Q1874.87 1475.44 1876.68 1479.01 Q1878.51 1482.55 1882.12 1482.55 Q1885.75 1482.55 1887.56 1479.01 Q1889.39 1475.44 1889.39 1468.33 Q1889.39 1461.2 1887.56 1457.66 Q1885.75 1454.1 1882.12 1454.1 M1882.12 1450.39 Q1887.93 1450.39 1890.98 1455 Q1894.06 1459.58 1894.06 1468.33 Q1894.06 1477.06 1890.98 1481.67 Q1887.93 1486.25 1882.12 1486.25 Q1876.31 1486.25 1873.23 1481.67 Q1870.17 1477.06 1870.17 1468.33 Q1870.17 1459.58 1873.23 1455 Q1876.31 1450.39 1882.12 1450.39 Z" fill="#000000" fill-rule="nonzero" fill-opacity="1" /><path clip-path="url(#clip750)" d="M1902.28 1479.7 L1907.16 1479.7 L1907.16 1485.58 L1902.28 1485.58 L1902.28 1479.7 Z" fill="#000000" fill-rule="nonzero" fill-opacity="1" /><path clip-path="url(#clip750)" d="M1917.49 1484.86 L1917.49 1480.6 Q1919.25 1481.44 1921.05 1481.88 Q1922.86 1482.32 1924.59 1482.32 Q1929.22 1482.32 1931.65 1479.21 Q1934.11 1476.09 1934.45 1469.75 Q1933.11 1471.74 1931.05 1472.8 Q1928.99 1473.87 1926.49 1473.87 Q1921.31 1473.87 1918.27 1470.74 Q1915.27 1467.59 1915.27 1462.15 Q1915.27 1456.83 1918.41 1453.61 Q1921.56 1450.39 1926.79 1450.39 Q1932.79 1450.39 1935.94 1455 Q1939.11 1459.58 1939.11 1468.33 Q1939.11 1476.51 1935.22 1481.39 Q1931.35 1486.25 1924.8 1486.25 Q1923.04 1486.25 1921.24 1485.9 Q1919.43 1485.56 1917.49 1484.86 M1926.79 1470.21 Q1929.94 1470.21 1931.77 1468.06 Q1933.62 1465.9 1933.62 1462.15 Q1933.62 1458.43 1931.77 1456.27 Q1929.94 1454.1 1926.79 1454.1 Q1923.64 1454.1 1921.79 1456.27 Q1919.96 1458.43 1919.96 1462.15 Q1919.96 1465.9 1921.79 1468.06 Q1923.64 1470.21 1926.79 1470.21 Z" fill="#000000" fill-rule="nonzero" fill-opacity="1" /><path clip-path="url(#clip750)" d="M2319.91 1481.64 L2327.55 1481.64 L2327.55 1455.28 L2319.24 1456.95 L2319.24 1452.69 L2327.5 1451.02 L2332.18 1451.02 L2332.18 1481.64 L2339.82 1481.64 L2339.82 1485.58 L2319.91 1485.58 L2319.91 1481.64 Z" fill="#000000" fill-rule="nonzero" fill-opacity="1" /><path clip-path="url(#clip750)" d="M2349.26 1479.7 L2354.14 1479.7 L2354.14 1485.58 L2349.26 1485.58 L2349.26 1479.7 Z" fill="#000000" fill-rule="nonzero" fill-opacity="1" /><path clip-path="url(#clip750)" d="M2374.33 1454.1 Q2370.72 1454.1 2368.89 1457.66 Q2367.08 1461.2 2367.08 1468.33 Q2367.08 1475.44 2368.89 1479.01 Q2370.72 1482.55 2374.33 1482.55 Q2377.96 1482.55 2379.77 1479.01 Q2381.6 1475.44 2381.6 1468.33 Q2381.6 1461.2 2379.77 1457.66 Q2377.96 1454.1 2374.33 1454.1 M2374.33 1450.39 Q2380.14 1450.39 2383.2 1455 Q2386.27 1459.58 2386.27 1468.33 Q2386.27 1477.06 2383.2 1481.67 Q2380.14 1486.25 2374.33 1486.25 Q2368.52 1486.25 2365.44 1481.67 Q2362.39 1477.06 2362.39 1468.33 Q2362.39 1459.58 2365.44 1455 Q2368.52 1450.39 2374.33 1450.39 Z" fill="#000000" fill-rule="nonzero" fill-opacity="1" /><path clip-path="url(#clip750)" d="M1222.41 1562.7 L1222.41 1581.6 L1216.52 1581.6 L1216.52 1532.4 L1222.41 1532.4 L1222.41 1537.81 Q1224.25 1534.62 1227.06 1533.1 Q1229.89 1531.54 1233.8 1531.54 Q1240.3 1531.54 1244.34 1536.69 Q1248.41 1541.85 1248.41 1550.25 Q1248.41 1558.65 1244.34 1563.81 Q1240.3 1568.97 1233.8 1568.97 Q1229.89 1568.97 1227.06 1567.44 Q1224.25 1565.88 1222.41 1562.7 M1242.33 1550.25 Q1242.33 1543.79 1239.66 1540.13 Q1237.02 1536.44 1232.37 1536.44 Q1227.72 1536.44 1225.05 1540.13 Q1222.41 1543.79 1222.41 1550.25 Q1222.41 1556.71 1225.05 1560.4 Q1227.72 1564.07 1232.37 1564.07 Q1237.02 1564.07 1239.66 1560.4 Q1242.33 1556.71 1242.33 1550.25 Z" fill="#000000" fill-rule="nonzero" fill-opacity="1" /><polyline clip-path="url(#clip750)" style="stroke:#000000; stroke-linecap:round; stroke-linejoin:round; stroke-width:4; stroke-opacity:1; fill:none" points="112.177,1423.18 112.177,47.2441 "/>
<polyline clip-path="url(#clip750)" style="stroke:#000000; stroke-linecap:round; stroke-linejoin:round; stroke-width:4; stroke-opacity:1; fill:none" points="112.177,1423.18 131.075,1423.18 "/>
<polyline clip-path="url(#clip750)" style="stroke:#000000; stroke-linecap:round; stroke-linejoin:round; stroke-width:4; stroke-opacity:1; fill:none" points="112.177,1142.38 131.075,1142.38 "/>
<polyline clip-path="url(#clip750)" style="stroke:#000000; stroke-linecap:round; stroke-linejoin:round; stroke-width:4; stroke-opacity:1; fill:none" points="112.177,861.573 131.075,861.573 "/>
<polyline clip-path="url(#clip750)" style="stroke:#000000; stroke-linecap:round; stroke-linejoin:round; stroke-width:4; stroke-opacity:1; fill:none" points="112.177,580.77 131.075,580.77 "/>
<polyline clip-path="url(#clip750)" style="stroke:#000000; stroke-linecap:round; stroke-linejoin:round; stroke-width:4; stroke-opacity:1; fill:none" points="112.177,299.967 131.075,299.967 "/>
<path clip-path="url(#clip750)" d="M64.2328 1408.98 Q60.6217 1408.98 58.793 1412.54 Q56.9875 1416.08 56.9875 1423.21 Q56.9875 1430.32 58.793 1433.89 Q60.6217 1437.43 64.2328 1437.43 Q67.867 1437.43 69.6726 1433.89 Q71.5013 1430.32 71.5013 1423.21 Q71.5013 1416.08 69.6726 1412.54 Q67.867 1408.98 64.2328 1408.98 M64.2328 1405.27 Q70.0429 1405.27 73.0985 1409.88 Q76.1772 1414.46 76.1772 1423.21 Q76.1772 1431.94 73.0985 1436.55 Q70.0429 1441.13 64.2328 1441.13 Q58.4226 1441.13 55.344 1436.55 Q52.2884 1431.94 52.2884 1423.21 Q52.2884 1414.46 55.344 1409.88 Q58.4226 1405.27 64.2328 1405.27 Z" fill="#000000" fill-rule="nonzero" fill-opacity="1" /><path clip-path="url(#clip750)" d="M59.8578 1155.72 L76.1772 1155.72 L76.1772 1159.66 L54.2328 1159.66 L54.2328 1155.72 Q56.8949 1152.97 61.4782 1148.34 Q66.0846 1143.68 67.2652 1142.34 Q69.5105 1139.82 70.3902 1138.08 Q71.2929 1136.32 71.2929 1134.63 Q71.2929 1131.88 69.3485 1130.14 Q67.4272 1128.41 64.3254 1128.41 Q62.1263 1128.41 59.6726 1129.17 Q57.2421 1129.93 54.4643 1131.49 L54.4643 1126.76 Q57.2884 1125.63 59.7421 1125.05 Q62.1958 1124.47 64.2328 1124.47 Q69.6031 1124.47 72.7976 1127.16 Q75.992 1129.84 75.992 1134.33 Q75.992 1136.46 75.1818 1138.38 Q74.3948 1140.28 72.2883 1142.87 Q71.7096 1143.55 68.6078 1146.76 Q65.5059 1149.96 59.8578 1155.72 Z" fill="#000000" fill-rule="nonzero" fill-opacity="1" /><path clip-path="url(#clip750)" d="M66.5939 848.367 L54.7884 866.816 L66.5939 866.816 L66.5939 848.367 M65.367 844.293 L71.2466 844.293 L71.2466 866.816 L76.1772 866.816 L76.1772 870.705 L71.2466 870.705 L71.2466 878.853 L66.5939 878.853 L66.5939 870.705 L50.9921 870.705 L50.9921 866.191 L65.367 844.293 Z" fill="#000000" fill-rule="nonzero" fill-opacity="1" /><path clip-path="url(#clip750)" d="M64.6495 578.907 Q61.5013 578.907 59.6495 581.06 Q57.8208 583.212 57.8208 586.962 Q57.8208 590.689 59.6495 592.865 Q61.5013 595.018 64.6495 595.018 Q67.7976 595.018 69.6263 592.865 Q71.4781 590.689 71.4781 586.962 Q71.4781 583.212 69.6263 581.06 Q67.7976 578.907 64.6495 578.907 M73.9318 564.254 L73.9318 568.513 Q72.1726 567.68 70.367 567.24 Q68.5846 566.8 66.8254 566.8 Q62.1958 566.8 59.7421 569.925 Q57.3115 573.05 56.9643 579.37 Q58.33 577.356 60.3902 576.291 Q62.4504 575.203 64.9272 575.203 Q70.1355 575.203 73.1448 578.374 Q76.1772 581.523 76.1772 586.962 Q76.1772 592.286 73.029 595.504 Q69.8809 598.721 64.6495 598.721 Q58.6541 598.721 55.4828 594.138 Q52.3116 589.532 52.3116 580.805 Q52.3116 572.611 56.2004 567.749 Q60.0893 562.865 66.6402 562.865 Q68.3994 562.865 70.1818 563.212 Q71.9874 563.56 73.9318 564.254 Z" fill="#000000" fill-rule="nonzero" fill-opacity="1" /><path clip-path="url(#clip750)" d="M64.3254 300.835 Q60.9921 300.835 59.0708 302.617 Q57.1726 304.4 57.1726 307.525 Q57.1726 310.65 59.0708 312.432 Q60.9921 314.215 64.3254 314.215 Q67.6587 314.215 69.58 312.432 Q71.5013 310.627 71.5013 307.525 Q71.5013 304.4 69.58 302.617 Q67.6819 300.835 64.3254 300.835 M59.6495 298.844 Q56.6402 298.104 54.9504 296.043 Q53.2838 293.983 53.2838 291.02 Q53.2838 286.877 56.2236 284.469 Q59.1865 282.062 64.3254 282.062 Q69.4874 282.062 72.4272 284.469 Q75.367 286.877 75.367 291.02 Q75.367 293.983 73.6772 296.043 Q72.0105 298.104 69.0244 298.844 Q72.404 299.631 74.279 301.923 Q76.1772 304.215 76.1772 307.525 Q76.1772 312.548 73.0985 315.233 Q70.0429 317.918 64.3254 317.918 Q58.6078 317.918 55.5291 315.233 Q52.4736 312.548 52.4736 307.525 Q52.4736 304.215 54.3717 301.923 Q56.2699 299.631 59.6495 298.844 M57.9365 291.46 Q57.9365 294.145 59.6032 295.65 Q61.293 297.155 64.3254 297.155 Q67.3346 297.155 69.0244 295.65 Q70.7374 294.145 70.7374 291.46 Q70.7374 288.775 69.0244 287.27 Q67.3346 285.766 64.3254 285.766 Q61.293 285.766 59.6032 287.27 Q57.9365 288.775 57.9365 291.46 Z" fill="#000000" fill-rule="nonzero" fill-opacity="1" /><path clip-path="url(#clip752)" d="M89.7714 1416.16 L89.7714 1423.18 L112.177 1423.18 L112.177 1416.16 L89.7714 1416.16 L89.7714 1416.16  Z" fill="#009af9" fill-rule="evenodd" fill-opacity="1"/>
<polyline clip-path="url(#clip752)" style="stroke:#000000; stroke-linecap:round; stroke-linejoin:round; stroke-width:4; stroke-opacity:1; fill:none" points="89.7714,1416.16 89.7714,1423.18 112.177,1423.18 112.177,1416.16 89.7714,1416.16 "/>
<path clip-path="url(#clip752)" d="M112.177 1423.18 L112.177 1423.18 L134.583 1423.18 L134.583 1423.18 L112.177 1423.18 L112.177 1423.18  Z" fill="#009af9" fill-rule="evenodd" fill-opacity="1"/>
<polyline clip-path="url(#clip752)" style="stroke:#000000; stroke-linecap:round; stroke-linejoin:round; stroke-width:4; stroke-opacity:1; fill:none" points="112.177,1423.18 112.177,1423.18 134.583,1423.18 112.177,1423.18 "/>
<path clip-path="url(#clip752)" d="M134.583 1423.18 L134.583 1423.18 L156.989 1423.18 L156.989 1423.18 L134.583 1423.18 L134.583 1423.18  Z" fill="#009af9" fill-rule="evenodd" fill-opacity="1"/>
<polyline clip-path="url(#clip752)" style="stroke:#000000; stroke-linecap:round; stroke-linejoin:round; stroke-width:4; stroke-opacity:1; fill:none" points="134.583,1423.18 134.583,1423.18 156.989,1423.18 134.583,1423.18 "/>
<path clip-path="url(#clip752)" d="M156.989 1409.14 L156.989 1423.18 L179.395 1423.18 L179.395 1409.14 L156.989 1409.14 L156.989 1409.14  Z" fill="#009af9" fill-rule="evenodd" fill-opacity="1"/>
<polyline clip-path="url(#clip752)" style="stroke:#000000; stroke-linecap:round; stroke-linejoin:round; stroke-width:4; stroke-opacity:1; fill:none" points="156.989,1409.14 156.989,1423.18 179.395,1423.18 179.395,1409.14 156.989,1409.14 "/>
<path clip-path="url(#clip752)" d="M179.395 1409.14 L179.395 1423.18 L201.8 1423.18 L201.8 1409.14 L179.395 1409.14 L179.395 1409.14  Z" fill="#009af9" fill-rule="evenodd" fill-opacity="1"/>
<polyline clip-path="url(#clip752)" style="stroke:#000000; stroke-linecap:round; stroke-linejoin:round; stroke-width:4; stroke-opacity:1; fill:none" points="179.395,1409.14 179.395,1423.18 201.8,1423.18 201.8,1409.14 179.395,1409.14 "/>
<path clip-path="url(#clip752)" d="M201.8 1423.18 L201.8 1423.18 L224.206 1423.18 L224.206 1423.18 L201.8 1423.18 L201.8 1423.18  Z" fill="#009af9" fill-rule="evenodd" fill-opacity="1"/>
<polyline clip-path="url(#clip752)" style="stroke:#000000; stroke-linecap:round; stroke-linejoin:round; stroke-width:4; stroke-opacity:1; fill:none" points="201.8,1423.18 201.8,1423.18 224.206,1423.18 201.8,1423.18 "/>
<path clip-path="url(#clip752)" d="M224.206 1416.16 L224.206 1423.18 L246.612 1423.18 L246.612 1416.16 L224.206 1416.16 L224.206 1416.16  Z" fill="#009af9" fill-rule="evenodd" fill-opacity="1"/>
<polyline clip-path="url(#clip752)" style="stroke:#000000; stroke-linecap:round; stroke-linejoin:round; stroke-width:4; stroke-opacity:1; fill:none" points="224.206,1416.16 224.206,1423.18 246.612,1423.18 246.612,1416.16 224.206,1416.16 "/>
<path clip-path="url(#clip752)" d="M246.612 1395.1 L246.612 1423.18 L269.018 1423.18 L269.018 1395.1 L246.612 1395.1 L246.612 1395.1  Z" fill="#009af9" fill-rule="evenodd" fill-opacity="1"/>
<polyline clip-path="url(#clip752)" style="stroke:#000000; stroke-linecap:round; stroke-linejoin:round; stroke-width:4; stroke-opacity:1; fill:none" points="246.612,1395.1 246.612,1423.18 269.018,1423.18 269.018,1395.1 246.612,1395.1 "/>
<path clip-path="url(#clip752)" d="M269.018 1423.18 L269.018 1423.18 L291.423 1423.18 L291.423 1423.18 L269.018 1423.18 L269.018 1423.18  Z" fill="#009af9" fill-rule="evenodd" fill-opacity="1"/>
<polyline clip-path="url(#clip752)" style="stroke:#000000; stroke-linecap:round; stroke-linejoin:round; stroke-width:4; stroke-opacity:1; fill:none" points="269.018,1423.18 269.018,1423.18 291.423,1423.18 269.018,1423.18 "/>
<path clip-path="url(#clip752)" d="M291.423 1345.96 L291.423 1423.18 L313.829 1423.18 L313.829 1345.96 L291.423 1345.96 L291.423 1345.96  Z" fill="#009af9" fill-rule="evenodd" fill-opacity="1"/>
<polyline clip-path="url(#clip752)" style="stroke:#000000; stroke-linecap:round; stroke-linejoin:round; stroke-width:4; stroke-opacity:1; fill:none" points="291.423,1345.96 291.423,1423.18 313.829,1423.18 313.829,1345.96 291.423,1345.96 "/>
<path clip-path="url(#clip752)" d="M313.829 1374.04 L313.829 1423.18 L336.235 1423.18 L336.235 1374.04 L313.829 1374.04 L313.829 1374.04  Z" fill="#009af9" fill-rule="evenodd" fill-opacity="1"/>
<polyline clip-path="url(#clip752)" style="stroke:#000000; stroke-linecap:round; stroke-linejoin:round; stroke-width:4; stroke-opacity:1; fill:none" points="313.829,1374.04 313.829,1423.18 336.235,1423.18 336.235,1374.04 313.829,1374.04 "/>
<path clip-path="url(#clip752)" d="M336.235 1317.88 L336.235 1423.18 L358.641 1423.18 L358.641 1317.88 L336.235 1317.88 L336.235 1317.88  Z" fill="#009af9" fill-rule="evenodd" fill-opacity="1"/>
<polyline clip-path="url(#clip752)" style="stroke:#000000; stroke-linecap:round; stroke-linejoin:round; stroke-width:4; stroke-opacity:1; fill:none" points="336.235,1317.88 336.235,1423.18 358.641,1423.18 358.641,1317.88 336.235,1317.88 "/>
<path clip-path="url(#clip752)" d="M358.641 1289.8 L358.641 1423.18 L381.047 1423.18 L381.047 1289.8 L358.641 1289.8 L358.641 1289.8  Z" fill="#009af9" fill-rule="evenodd" fill-opacity="1"/>
<polyline clip-path="url(#clip752)" style="stroke:#000000; stroke-linecap:round; stroke-linejoin:round; stroke-width:4; stroke-opacity:1; fill:none" points="358.641,1289.8 358.641,1423.18 381.047,1423.18 381.047,1289.8 358.641,1289.8 "/>
<path clip-path="url(#clip752)" d="M381.047 1296.82 L381.047 1423.18 L403.452 1423.18 L403.452 1296.82 L381.047 1296.82 L381.047 1296.82  Z" fill="#009af9" fill-rule="evenodd" fill-opacity="1"/>
<polyline clip-path="url(#clip752)" style="stroke:#000000; stroke-linecap:round; stroke-linejoin:round; stroke-width:4; stroke-opacity:1; fill:none" points="381.047,1296.82 381.047,1423.18 403.452,1423.18 403.452,1296.82 381.047,1296.82 "/>
<path clip-path="url(#clip752)" d="M403.452 1226.62 L403.452 1423.18 L425.858 1423.18 L425.858 1226.62 L403.452 1226.62 L403.452 1226.62  Z" fill="#009af9" fill-rule="evenodd" fill-opacity="1"/>
<polyline clip-path="url(#clip752)" style="stroke:#000000; stroke-linecap:round; stroke-linejoin:round; stroke-width:4; stroke-opacity:1; fill:none" points="403.452,1226.62 403.452,1423.18 425.858,1423.18 425.858,1226.62 403.452,1226.62 "/>
<path clip-path="url(#clip752)" d="M425.858 1191.52 L425.858 1423.18 L448.264 1423.18 L448.264 1191.52 L425.858 1191.52 L425.858 1191.52  Z" fill="#009af9" fill-rule="evenodd" fill-opacity="1"/>
<polyline clip-path="url(#clip752)" style="stroke:#000000; stroke-linecap:round; stroke-linejoin:round; stroke-width:4; stroke-opacity:1; fill:none" points="425.858,1191.52 425.858,1423.18 448.264,1423.18 448.264,1191.52 425.858,1191.52 "/>
<path clip-path="url(#clip752)" d="M448.264 1149.4 L448.264 1423.18 L470.67 1423.18 L470.67 1149.4 L448.264 1149.4 L448.264 1149.4  Z" fill="#009af9" fill-rule="evenodd" fill-opacity="1"/>
<polyline clip-path="url(#clip752)" style="stroke:#000000; stroke-linecap:round; stroke-linejoin:round; stroke-width:4; stroke-opacity:1; fill:none" points="448.264,1149.4 448.264,1423.18 470.67,1423.18 470.67,1149.4 448.264,1149.4 "/>
<path clip-path="url(#clip752)" d="M470.67 1219.6 L470.67 1423.18 L493.076 1423.18 L493.076 1219.6 L470.67 1219.6 L470.67 1219.6  Z" fill="#009af9" fill-rule="evenodd" fill-opacity="1"/>
<polyline clip-path="url(#clip752)" style="stroke:#000000; stroke-linecap:round; stroke-linejoin:round; stroke-width:4; stroke-opacity:1; fill:none" points="470.67,1219.6 470.67,1423.18 493.076,1423.18 493.076,1219.6 470.67,1219.6 "/>
<path clip-path="url(#clip752)" d="M493.076 959.855 L493.076 1423.18 L515.481 1423.18 L515.481 959.855 L493.076 959.855 L493.076 959.855  Z" fill="#009af9" fill-rule="evenodd" fill-opacity="1"/>
<polyline clip-path="url(#clip752)" style="stroke:#000000; stroke-linecap:round; stroke-linejoin:round; stroke-width:4; stroke-opacity:1; fill:none" points="493.076,959.855 493.076,1423.18 515.481,1423.18 515.481,959.855 493.076,959.855 "/>
<path clip-path="url(#clip752)" d="M515.481 994.955 L515.481 1423.18 L537.887 1423.18 L537.887 994.955 L515.481 994.955 L515.481 994.955  Z" fill="#009af9" fill-rule="evenodd" fill-opacity="1"/>
<polyline clip-path="url(#clip752)" style="stroke:#000000; stroke-linecap:round; stroke-linejoin:round; stroke-width:4; stroke-opacity:1; fill:none" points="515.481,994.955 515.481,1423.18 537.887,1423.18 537.887,994.955 515.481,994.955 "/>
<path clip-path="url(#clip752)" d="M537.887 1107.28 L537.887 1423.18 L560.293 1423.18 L560.293 1107.28 L537.887 1107.28 L537.887 1107.28  Z" fill="#009af9" fill-rule="evenodd" fill-opacity="1"/>
<polyline clip-path="url(#clip752)" style="stroke:#000000; stroke-linecap:round; stroke-linejoin:round; stroke-width:4; stroke-opacity:1; fill:none" points="537.887,1107.28 537.887,1423.18 560.293,1423.18 560.293,1107.28 537.887,1107.28 "/>
<path clip-path="url(#clip752)" d="M560.293 945.814 L560.293 1423.18 L582.699 1423.18 L582.699 945.814 L560.293 945.814 L560.293 945.814  Z" fill="#009af9" fill-rule="evenodd" fill-opacity="1"/>
<polyline clip-path="url(#clip752)" style="stroke:#000000; stroke-linecap:round; stroke-linejoin:round; stroke-width:4; stroke-opacity:1; fill:none" points="560.293,945.814 560.293,1423.18 582.699,1423.18 582.699,945.814 560.293,945.814 "/>
<path clip-path="url(#clip752)" d="M582.699 770.312 L582.699 1423.18 L605.104 1423.18 L605.104 770.312 L582.699 770.312 L582.699 770.312  Z" fill="#009af9" fill-rule="evenodd" fill-opacity="1"/>
<polyline clip-path="url(#clip752)" style="stroke:#000000; stroke-linecap:round; stroke-linejoin:round; stroke-width:4; stroke-opacity:1; fill:none" points="582.699,770.312 582.699,1423.18 605.104,1423.18 605.104,770.312 582.699,770.312 "/>
<path clip-path="url(#clip752)" d="M605.104 931.774 L605.104 1423.18 L627.51 1423.18 L627.51 931.774 L605.104 931.774 L605.104 931.774  Z" fill="#009af9" fill-rule="evenodd" fill-opacity="1"/>
<polyline clip-path="url(#clip752)" style="stroke:#000000; stroke-linecap:round; stroke-linejoin:round; stroke-width:4; stroke-opacity:1; fill:none" points="605.104,931.774 605.104,1423.18 627.51,1423.18 627.51,931.774 605.104,931.774 "/>
<path clip-path="url(#clip752)" d="M627.51 840.513 L627.51 1423.18 L649.916 1423.18 L649.916 840.513 L627.51 840.513 L627.51 840.513  Z" fill="#009af9" fill-rule="evenodd" fill-opacity="1"/>
<polyline clip-path="url(#clip752)" style="stroke:#000000; stroke-linecap:round; stroke-linejoin:round; stroke-width:4; stroke-opacity:1; fill:none" points="627.51,840.513 627.51,1423.18 649.916,1423.18 649.916,840.513 627.51,840.513 "/>
<path clip-path="url(#clip752)" d="M649.916 468.449 L649.916 1423.18 L672.322 1423.18 L672.322 468.449 L649.916 468.449 L649.916 468.449  Z" fill="#009af9" fill-rule="evenodd" fill-opacity="1"/>
<polyline clip-path="url(#clip752)" style="stroke:#000000; stroke-linecap:round; stroke-linejoin:round; stroke-width:4; stroke-opacity:1; fill:none" points="649.916,468.449 649.916,1423.18 672.322,1423.18 672.322,468.449 649.916,468.449 "/>
<path clip-path="url(#clip752)" d="M672.322 475.469 L672.322 1423.18 L694.728 1423.18 L694.728 475.469 L672.322 475.469 L672.322 475.469  Z" fill="#009af9" fill-rule="evenodd" fill-opacity="1"/>
<polyline clip-path="url(#clip752)" style="stroke:#000000; stroke-linecap:round; stroke-linejoin:round; stroke-width:4; stroke-opacity:1; fill:none" points="672.322,475.469 672.322,1423.18 694.728,1423.18 694.728,475.469 672.322,475.469 "/>
<path clip-path="url(#clip752)" d="M694.728 377.188 L694.728 1423.18 L717.133 1423.18 L717.133 377.188 L694.728 377.188 L694.728 377.188  Z" fill="#009af9" fill-rule="evenodd" fill-opacity="1"/>
<polyline clip-path="url(#clip752)" style="stroke:#000000; stroke-linecap:round; stroke-linejoin:round; stroke-width:4; stroke-opacity:1; fill:none" points="694.728,377.188 694.728,1423.18 717.133,1423.18 717.133,377.188 694.728,377.188 "/>
<path clip-path="url(#clip752)" d="M717.133 384.208 L717.133 1423.18 L739.539 1423.18 L739.539 384.208 L717.133 384.208 L717.133 384.208  Z" fill="#009af9" fill-rule="evenodd" fill-opacity="1"/>
<polyline clip-path="url(#clip752)" style="stroke:#000000; stroke-linecap:round; stroke-linejoin:round; stroke-width:4; stroke-opacity:1; fill:none" points="717.133,384.208 717.133,1423.18 739.539,1423.18 739.539,384.208 717.133,384.208 "/>
<path clip-path="url(#clip752)" d="M739.539 559.71 L739.539 1423.18 L761.945 1423.18 L761.945 559.71 L739.539 559.71 L739.539 559.71  Z" fill="#009af9" fill-rule="evenodd" fill-opacity="1"/>
<polyline clip-path="url(#clip752)" style="stroke:#000000; stroke-linecap:round; stroke-linejoin:round; stroke-width:4; stroke-opacity:1; fill:none" points="739.539,559.71 739.539,1423.18 761.945,1423.18 761.945,559.71 739.539,559.71 "/>
<path clip-path="url(#clip752)" d="M761.945 356.128 L761.945 1423.18 L784.351 1423.18 L784.351 356.128 L761.945 356.128 L761.945 356.128  Z" fill="#009af9" fill-rule="evenodd" fill-opacity="1"/>
<polyline clip-path="url(#clip752)" style="stroke:#000000; stroke-linecap:round; stroke-linejoin:round; stroke-width:4; stroke-opacity:1; fill:none" points="761.945,356.128 761.945,1423.18 784.351,1423.18 784.351,356.128 761.945,356.128 "/>
<path clip-path="url(#clip752)" d="M784.351 166.585 L784.351 1423.18 L806.757 1423.18 L806.757 166.585 L784.351 166.585 L784.351 166.585  Z" fill="#009af9" fill-rule="evenodd" fill-opacity="1"/>
<polyline clip-path="url(#clip752)" style="stroke:#000000; stroke-linecap:round; stroke-linejoin:round; stroke-width:4; stroke-opacity:1; fill:none" points="784.351,166.585 784.351,1423.18 806.757,1423.18 806.757,166.585 784.351,166.585 "/>
<path clip-path="url(#clip752)" d="M806.757 194.666 L806.757 1423.18 L829.162 1423.18 L829.162 194.666 L806.757 194.666 L806.757 194.666  Z" fill="#009af9" fill-rule="evenodd" fill-opacity="1"/>
<polyline clip-path="url(#clip752)" style="stroke:#000000; stroke-linecap:round; stroke-linejoin:round; stroke-width:4; stroke-opacity:1; fill:none" points="806.757,194.666 806.757,1423.18 829.162,1423.18 829.162,194.666 806.757,194.666 "/>
<path clip-path="url(#clip752)" d="M829.162 405.268 L829.162 1423.18 L851.568 1423.18 L851.568 405.268 L829.162 405.268 L829.162 405.268  Z" fill="#009af9" fill-rule="evenodd" fill-opacity="1"/>
<polyline clip-path="url(#clip752)" style="stroke:#000000; stroke-linecap:round; stroke-linejoin:round; stroke-width:4; stroke-opacity:1; fill:none" points="829.162,405.268 829.162,1423.18 851.568,1423.18 851.568,405.268 829.162,405.268 "/>
<path clip-path="url(#clip752)" d="M851.568 643.951 L851.568 1423.18 L873.974 1423.18 L873.974 643.951 L851.568 643.951 L851.568 643.951  Z" fill="#009af9" fill-rule="evenodd" fill-opacity="1"/>
<polyline clip-path="url(#clip752)" style="stroke:#000000; stroke-linecap:round; stroke-linejoin:round; stroke-width:4; stroke-opacity:1; fill:none" points="851.568,643.951 851.568,1423.18 873.974,1423.18 873.974,643.951 851.568,643.951 "/>
<path clip-path="url(#clip752)" d="M873.974 384.208 L873.974 1423.18 L896.38 1423.18 L896.38 384.208 L873.974 384.208 L873.974 384.208  Z" fill="#009af9" fill-rule="evenodd" fill-opacity="1"/>
<polyline clip-path="url(#clip752)" style="stroke:#000000; stroke-linecap:round; stroke-linejoin:round; stroke-width:4; stroke-opacity:1; fill:none" points="873.974,384.208 873.974,1423.18 896.38,1423.18 896.38,384.208 873.974,384.208 "/>
<path clip-path="url(#clip752)" d="M896.38 47.2441 L896.38 1423.18 L918.786 1423.18 L918.786 47.2441 L896.38 47.2441 L896.38 47.2441  Z" fill="#009af9" fill-rule="evenodd" fill-opacity="1"/>
<polyline clip-path="url(#clip752)" style="stroke:#000000; stroke-linecap:round; stroke-linejoin:round; stroke-width:4; stroke-opacity:1; fill:none" points="896.38,47.2441 896.38,1423.18 918.786,1423.18 918.786,47.2441 896.38,47.2441 "/>
<path clip-path="url(#clip752)" d="M918.786 349.108 L918.786 1423.18 L941.191 1423.18 L941.191 349.108 L918.786 349.108 L918.786 349.108  Z" fill="#009af9" fill-rule="evenodd" fill-opacity="1"/>
<polyline clip-path="url(#clip752)" style="stroke:#000000; stroke-linecap:round; stroke-linejoin:round; stroke-width:4; stroke-opacity:1; fill:none" points="918.786,349.108 918.786,1423.18 941.191,1423.18 941.191,349.108 918.786,349.108 "/>
<path clip-path="url(#clip752)" d="M941.191 545.67 L941.191 1423.18 L963.597 1423.18 L963.597 545.67 L941.191 545.67 L941.191 545.67  Z" fill="#009af9" fill-rule="evenodd" fill-opacity="1"/>
<polyline clip-path="url(#clip752)" style="stroke:#000000; stroke-linecap:round; stroke-linejoin:round; stroke-width:4; stroke-opacity:1; fill:none" points="941.191,545.67 941.191,1423.18 963.597,1423.18 963.597,545.67 941.191,545.67 "/>
<path clip-path="url(#clip752)" d="M963.597 370.168 L963.597 1423.18 L986.003 1423.18 L986.003 370.168 L963.597 370.168 L963.597 370.168  Z" fill="#009af9" fill-rule="evenodd" fill-opacity="1"/>
<polyline clip-path="url(#clip752)" style="stroke:#000000; stroke-linecap:round; stroke-linejoin:round; stroke-width:4; stroke-opacity:1; fill:none" points="963.597,370.168 963.597,1423.18 986.003,1423.18 986.003,370.168 963.597,370.168 "/>
<path clip-path="url(#clip752)" d="M986.003 257.847 L986.003 1423.18 L1008.41 1423.18 L1008.41 257.847 L986.003 257.847 L986.003 257.847  Z" fill="#009af9" fill-rule="evenodd" fill-opacity="1"/>
<polyline clip-path="url(#clip752)" style="stroke:#000000; stroke-linecap:round; stroke-linejoin:round; stroke-width:4; stroke-opacity:1; fill:none" points="986.003,257.847 986.003,1423.18 1008.41,1423.18 1008.41,257.847 986.003,257.847 "/>
<path clip-path="url(#clip752)" d="M1008.41 728.192 L1008.41 1423.18 L1030.81 1423.18 L1030.81 728.192 L1008.41 728.192 L1008.41 728.192  Z" fill="#009af9" fill-rule="evenodd" fill-opacity="1"/>
<polyline clip-path="url(#clip752)" style="stroke:#000000; stroke-linecap:round; stroke-linejoin:round; stroke-width:4; stroke-opacity:1; fill:none" points="1008.41,728.192 1008.41,1423.18 1030.81,1423.18 1030.81,728.192 1008.41,728.192 "/>
<path clip-path="url(#clip752)" d="M1030.81 805.413 L1030.81 1423.18 L1053.22 1423.18 L1053.22 805.413 L1030.81 805.413 L1030.81 805.413  Z" fill="#009af9" fill-rule="evenodd" fill-opacity="1"/>
<polyline clip-path="url(#clip752)" style="stroke:#000000; stroke-linecap:round; stroke-linejoin:round; stroke-width:4; stroke-opacity:1; fill:none" points="1030.81,805.413 1030.81,1423.18 1053.22,1423.18 1053.22,805.413 1030.81,805.413 "/>
<path clip-path="url(#clip752)" d="M1053.22 629.911 L1053.22 1423.18 L1075.63 1423.18 L1075.63 629.911 L1053.22 629.911 L1053.22 629.911  Z" fill="#009af9" fill-rule="evenodd" fill-opacity="1"/>
<polyline clip-path="url(#clip752)" style="stroke:#000000; stroke-linecap:round; stroke-linejoin:round; stroke-width:4; stroke-opacity:1; fill:none" points="1053.22,629.911 1053.22,1423.18 1075.63,1423.18 1075.63,629.911 1053.22,629.911 "/>
<path clip-path="url(#clip752)" d="M1075.63 510.569 L1075.63 1423.18 L1098.03 1423.18 L1098.03 510.569 L1075.63 510.569 L1075.63 510.569  Z" fill="#009af9" fill-rule="evenodd" fill-opacity="1"/>
<polyline clip-path="url(#clip752)" style="stroke:#000000; stroke-linecap:round; stroke-linejoin:round; stroke-width:4; stroke-opacity:1; fill:none" points="1075.63,510.569 1075.63,1423.18 1098.03,1423.18 1098.03,510.569 1075.63,510.569 "/>
<path clip-path="url(#clip752)" d="M1098.03 742.232 L1098.03 1423.18 L1120.44 1423.18 L1120.44 742.232 L1098.03 742.232 L1098.03 742.232  Z" fill="#009af9" fill-rule="evenodd" fill-opacity="1"/>
<polyline clip-path="url(#clip752)" style="stroke:#000000; stroke-linecap:round; stroke-linejoin:round; stroke-width:4; stroke-opacity:1; fill:none" points="1098.03,742.232 1098.03,1423.18 1120.44,1423.18 1120.44,742.232 1098.03,742.232 "/>
<path clip-path="url(#clip752)" d="M1120.44 798.393 L1120.44 1423.18 L1142.84 1423.18 L1142.84 798.393 L1120.44 798.393 L1120.44 798.393  Z" fill="#009af9" fill-rule="evenodd" fill-opacity="1"/>
<polyline clip-path="url(#clip752)" style="stroke:#000000; stroke-linecap:round; stroke-linejoin:round; stroke-width:4; stroke-opacity:1; fill:none" points="1120.44,798.393 1120.44,1423.18 1142.84,1423.18 1142.84,798.393 1120.44,798.393 "/>
<path clip-path="url(#clip752)" d="M1142.84 1065.16 L1142.84 1423.18 L1165.25 1423.18 L1165.25 1065.16 L1142.84 1065.16 L1142.84 1065.16  Z" fill="#009af9" fill-rule="evenodd" fill-opacity="1"/>
<polyline clip-path="url(#clip752)" style="stroke:#000000; stroke-linecap:round; stroke-linejoin:round; stroke-width:4; stroke-opacity:1; fill:none" points="1142.84,1065.16 1142.84,1423.18 1165.25,1423.18 1165.25,1065.16 1142.84,1065.16 "/>
<path clip-path="url(#clip752)" d="M1165.25 1142.38 L1165.25 1423.18 L1187.65 1423.18 L1187.65 1142.38 L1165.25 1142.38 L1165.25 1142.38  Z" fill="#009af9" fill-rule="evenodd" fill-opacity="1"/>
<polyline clip-path="url(#clip752)" style="stroke:#000000; stroke-linecap:round; stroke-linejoin:round; stroke-width:4; stroke-opacity:1; fill:none" points="1165.25,1142.38 1165.25,1423.18 1187.65,1423.18 1187.65,1142.38 1165.25,1142.38 "/>
<path clip-path="url(#clip752)" d="M1187.65 1093.24 L1187.65 1423.18 L1210.06 1423.18 L1210.06 1093.24 L1187.65 1093.24 L1187.65 1093.24  Z" fill="#009af9" fill-rule="evenodd" fill-opacity="1"/>
<polyline clip-path="url(#clip752)" style="stroke:#000000; stroke-linecap:round; stroke-linejoin:round; stroke-width:4; stroke-opacity:1; fill:none" points="1187.65,1093.24 1187.65,1423.18 1210.06,1423.18 1210.06,1093.24 1187.65,1093.24 "/>
<path clip-path="url(#clip752)" d="M1210.06 1142.38 L1210.06 1423.18 L1232.47 1423.18 L1232.47 1142.38 L1210.06 1142.38 L1210.06 1142.38  Z" fill="#009af9" fill-rule="evenodd" fill-opacity="1"/>
<polyline clip-path="url(#clip752)" style="stroke:#000000; stroke-linecap:round; stroke-linejoin:round; stroke-width:4; stroke-opacity:1; fill:none" points="1210.06,1142.38 1210.06,1423.18 1232.47,1423.18 1232.47,1142.38 1210.06,1142.38 "/>
<path clip-path="url(#clip752)" d="M1232.47 1324.9 L1232.47 1423.18 L1254.87 1423.18 L1254.87 1324.9 L1232.47 1324.9 L1232.47 1324.9  Z" fill="#009af9" fill-rule="evenodd" fill-opacity="1"/>
<polyline clip-path="url(#clip752)" style="stroke:#000000; stroke-linecap:round; stroke-linejoin:round; stroke-width:4; stroke-opacity:1; fill:none" points="1232.47,1324.9 1232.47,1423.18 1254.87,1423.18 1254.87,1324.9 1232.47,1324.9 "/>
<path clip-path="url(#clip752)" d="M1254.87 1247.68 L1254.87 1423.18 L1277.28 1423.18 L1277.28 1247.68 L1254.87 1247.68 L1254.87 1247.68  Z" fill="#009af9" fill-rule="evenodd" fill-opacity="1"/>
<polyline clip-path="url(#clip752)" style="stroke:#000000; stroke-linecap:round; stroke-linejoin:round; stroke-width:4; stroke-opacity:1; fill:none" points="1254.87,1247.68 1254.87,1423.18 1277.28,1423.18 1277.28,1247.68 1254.87,1247.68 "/>
<path clip-path="url(#clip752)" d="M1277.28 1240.66 L1277.28 1423.18 L1299.68 1423.18 L1299.68 1240.66 L1277.28 1240.66 L1277.28 1240.66  Z" fill="#009af9" fill-rule="evenodd" fill-opacity="1"/>
<polyline clip-path="url(#clip752)" style="stroke:#000000; stroke-linecap:round; stroke-linejoin:round; stroke-width:4; stroke-opacity:1; fill:none" points="1277.28,1240.66 1277.28,1423.18 1299.68,1423.18 1299.68,1240.66 1277.28,1240.66 "/>
<path clip-path="url(#clip752)" d="M1299.68 1317.88 L1299.68 1423.18 L1322.09 1423.18 L1322.09 1317.88 L1299.68 1317.88 L1299.68 1317.88  Z" fill="#009af9" fill-rule="evenodd" fill-opacity="1"/>
<polyline clip-path="url(#clip752)" style="stroke:#000000; stroke-linecap:round; stroke-linejoin:round; stroke-width:4; stroke-opacity:1; fill:none" points="1299.68,1317.88 1299.68,1423.18 1322.09,1423.18 1322.09,1317.88 1299.68,1317.88 "/>
<path clip-path="url(#clip752)" d="M1322.09 1352.98 L1322.09 1423.18 L1344.5 1423.18 L1344.5 1352.98 L1322.09 1352.98 L1322.09 1352.98  Z" fill="#009af9" fill-rule="evenodd" fill-opacity="1"/>
<polyline clip-path="url(#clip752)" style="stroke:#000000; stroke-linecap:round; stroke-linejoin:round; stroke-width:4; stroke-opacity:1; fill:none" points="1322.09,1352.98 1322.09,1423.18 1344.5,1423.18 1344.5,1352.98 1322.09,1352.98 "/>
<path clip-path="url(#clip752)" d="M1344.5 1338.94 L1344.5 1423.18 L1366.9 1423.18 L1366.9 1338.94 L1344.5 1338.94 L1344.5 1338.94  Z" fill="#009af9" fill-rule="evenodd" fill-opacity="1"/>
<polyline clip-path="url(#clip752)" style="stroke:#000000; stroke-linecap:round; stroke-linejoin:round; stroke-width:4; stroke-opacity:1; fill:none" points="1344.5,1338.94 1344.5,1423.18 1366.9,1423.18 1366.9,1338.94 1344.5,1338.94 "/>
<path clip-path="url(#clip752)" d="M1366.9 1402.12 L1366.9 1423.18 L1389.31 1423.18 L1389.31 1402.12 L1366.9 1402.12 L1366.9 1402.12  Z" fill="#009af9" fill-rule="evenodd" fill-opacity="1"/>
<polyline clip-path="url(#clip752)" style="stroke:#000000; stroke-linecap:round; stroke-linejoin:round; stroke-width:4; stroke-opacity:1; fill:none" points="1366.9,1402.12 1366.9,1423.18 1389.31,1423.18 1389.31,1402.12 1366.9,1402.12 "/>
<path clip-path="url(#clip752)" d="M1389.31 1409.14 L1389.31 1423.18 L1411.71 1423.18 L1411.71 1409.14 L1389.31 1409.14 L1389.31 1409.14  Z" fill="#009af9" fill-rule="evenodd" fill-opacity="1"/>
<polyline clip-path="url(#clip752)" style="stroke:#000000; stroke-linecap:round; stroke-linejoin:round; stroke-width:4; stroke-opacity:1; fill:none" points="1389.31,1409.14 1389.31,1423.18 1411.71,1423.18 1411.71,1409.14 1389.31,1409.14 "/>
<path clip-path="url(#clip752)" d="M1411.71 1352.98 L1411.71 1423.18 L1434.12 1423.18 L1434.12 1352.98 L1411.71 1352.98 L1411.71 1352.98  Z" fill="#009af9" fill-rule="evenodd" fill-opacity="1"/>
<polyline clip-path="url(#clip752)" style="stroke:#000000; stroke-linecap:round; stroke-linejoin:round; stroke-width:4; stroke-opacity:1; fill:none" points="1411.71,1352.98 1411.71,1423.18 1434.12,1423.18 1434.12,1352.98 1411.71,1352.98 "/>
<path clip-path="url(#clip752)" d="M1434.12 1402.12 L1434.12 1423.18 L1456.52 1423.18 L1456.52 1402.12 L1434.12 1402.12 L1434.12 1402.12  Z" fill="#009af9" fill-rule="evenodd" fill-opacity="1"/>
<polyline clip-path="url(#clip752)" style="stroke:#000000; stroke-linecap:round; stroke-linejoin:round; stroke-width:4; stroke-opacity:1; fill:none" points="1434.12,1402.12 1434.12,1423.18 1456.52,1423.18 1456.52,1402.12 1434.12,1402.12 "/>
<circle clip-path="url(#clip752)" style="fill:#009af9; stroke:none; fill-opacity:0" cx="123.38" cy="1423.18" r="2"/>
<circle clip-path="url(#clip752)" style="fill:#009af9; stroke:none; fill-opacity:0" cx="145.786" cy="1423.18" r="2"/>
<circle clip-path="url(#clip752)" style="fill:#009af9; stroke:none; fill-opacity:0" cx="168.192" cy="1409.14" r="2"/>
<circle clip-path="url(#clip752)" style="fill:#009af9; stroke:none; fill-opacity:0" cx="190.597" cy="1409.14" r="2"/>
<circle clip-path="url(#clip752)" style="fill:#009af9; stroke:none; fill-opacity:0" cx="213.003" cy="1423.18" r="2"/>
<circle clip-path="url(#clip752)" style="fill:#009af9; stroke:none; fill-opacity:0" cx="235.409" cy="1416.16" r="2"/>
<circle clip-path="url(#clip752)" style="fill:#009af9; stroke:none; fill-opacity:0" cx="257.815" cy="1395.1" r="2"/>
<circle clip-path="url(#clip752)" style="fill:#009af9; stroke:none; fill-opacity:0" cx="280.221" cy="1423.18" r="2"/>
<circle clip-path="url(#clip752)" style="fill:#009af9; stroke:none; fill-opacity:0" cx="302.626" cy="1345.96" r="2"/>
<circle clip-path="url(#clip752)" style="fill:#009af9; stroke:none; fill-opacity:0" cx="325.032" cy="1374.04" r="2"/>
<circle clip-path="url(#clip752)" style="fill:#009af9; stroke:none; fill-opacity:0" cx="347.438" cy="1317.88" r="2"/>
<circle clip-path="url(#clip752)" style="fill:#009af9; stroke:none; fill-opacity:0" cx="369.844" cy="1289.8" r="2"/>
<circle clip-path="url(#clip752)" style="fill:#009af9; stroke:none; fill-opacity:0" cx="392.25" cy="1296.82" r="2"/>
<circle clip-path="url(#clip752)" style="fill:#009af9; stroke:none; fill-opacity:0" cx="414.655" cy="1226.62" r="2"/>
<circle clip-path="url(#clip752)" style="fill:#009af9; stroke:none; fill-opacity:0" cx="437.061" cy="1191.52" r="2"/>
<circle clip-path="url(#clip752)" style="fill:#009af9; stroke:none; fill-opacity:0" cx="459.467" cy="1149.4" r="2"/>
<circle clip-path="url(#clip752)" style="fill:#009af9; stroke:none; fill-opacity:0" cx="481.873" cy="1219.6" r="2"/>
<circle clip-path="url(#clip752)" style="fill:#009af9; stroke:none; fill-opacity:0" cx="504.278" cy="959.855" r="2"/>
<circle clip-path="url(#clip752)" style="fill:#009af9; stroke:none; fill-opacity:0" cx="526.684" cy="994.955" r="2"/>
<circle clip-path="url(#clip752)" style="fill:#009af9; stroke:none; fill-opacity:0" cx="549.09" cy="1107.28" r="2"/>
<circle clip-path="url(#clip752)" style="fill:#009af9; stroke:none; fill-opacity:0" cx="571.496" cy="945.814" r="2"/>
<circle clip-path="url(#clip752)" style="fill:#009af9; stroke:none; fill-opacity:0" cx="593.902" cy="770.312" r="2"/>
<circle clip-path="url(#clip752)" style="fill:#009af9; stroke:none; fill-opacity:0" cx="616.307" cy="931.774" r="2"/>
<circle clip-path="url(#clip752)" style="fill:#009af9; stroke:none; fill-opacity:0" cx="638.713" cy="840.513" r="2"/>
<circle clip-path="url(#clip752)" style="fill:#009af9; stroke:none; fill-opacity:0" cx="661.119" cy="468.449" r="2"/>
<circle clip-path="url(#clip752)" style="fill:#009af9; stroke:none; fill-opacity:0" cx="683.525" cy="475.469" r="2"/>
<circle clip-path="url(#clip752)" style="fill:#009af9; stroke:none; fill-opacity:0" cx="705.931" cy="377.188" r="2"/>
<circle clip-path="url(#clip752)" style="fill:#009af9; stroke:none; fill-opacity:0" cx="728.336" cy="384.208" r="2"/>
<circle clip-path="url(#clip752)" style="fill:#009af9; stroke:none; fill-opacity:0" cx="750.742" cy="559.71" r="2"/>
<circle clip-path="url(#clip752)" style="fill:#009af9; stroke:none; fill-opacity:0" cx="773.148" cy="356.128" r="2"/>
<circle clip-path="url(#clip752)" style="fill:#009af9; stroke:none; fill-opacity:0" cx="795.554" cy="166.585" r="2"/>
<circle clip-path="url(#clip752)" style="fill:#009af9; stroke:none; fill-opacity:0" cx="817.959" cy="194.666" r="2"/>
<circle clip-path="url(#clip752)" style="fill:#009af9; stroke:none; fill-opacity:0" cx="840.365" cy="405.268" r="2"/>
<circle clip-path="url(#clip752)" style="fill:#009af9; stroke:none; fill-opacity:0" cx="862.771" cy="643.951" r="2"/>
<circle clip-path="url(#clip752)" style="fill:#009af9; stroke:none; fill-opacity:0" cx="885.177" cy="384.208" r="2"/>
<circle clip-path="url(#clip752)" style="fill:#009af9; stroke:none; fill-opacity:0" cx="907.583" cy="47.2441" r="2"/>
<circle clip-path="url(#clip752)" style="fill:#009af9; stroke:none; fill-opacity:0" cx="929.988" cy="349.108" r="2"/>
<circle clip-path="url(#clip752)" style="fill:#009af9; stroke:none; fill-opacity:0" cx="952.394" cy="545.67" r="2"/>
<circle clip-path="url(#clip752)" style="fill:#009af9; stroke:none; fill-opacity:0" cx="974.8" cy="370.168" r="2"/>
<circle clip-path="url(#clip752)" style="fill:#009af9; stroke:none; fill-opacity:0" cx="997.206" cy="257.847" r="2"/>
<circle clip-path="url(#clip752)" style="fill:#009af9; stroke:none; fill-opacity:0" cx="1019.61" cy="728.192" r="2"/>
<circle clip-path="url(#clip752)" style="fill:#009af9; stroke:none; fill-opacity:0" cx="1042.02" cy="805.413" r="2"/>
<circle clip-path="url(#clip752)" style="fill:#009af9; stroke:none; fill-opacity:0" cx="1064.42" cy="629.911" r="2"/>
<circle clip-path="url(#clip752)" style="fill:#009af9; stroke:none; fill-opacity:0" cx="1086.83" cy="510.569" r="2"/>
<circle clip-path="url(#clip752)" style="fill:#009af9; stroke:none; fill-opacity:0" cx="1109.23" cy="742.232" r="2"/>
<circle clip-path="url(#clip752)" style="fill:#009af9; stroke:none; fill-opacity:0" cx="1131.64" cy="798.393" r="2"/>
<circle clip-path="url(#clip752)" style="fill:#009af9; stroke:none; fill-opacity:0" cx="1154.05" cy="1065.16" r="2"/>
<circle clip-path="url(#clip752)" style="fill:#009af9; stroke:none; fill-opacity:0" cx="1176.45" cy="1142.38" r="2"/>
<circle clip-path="url(#clip752)" style="fill:#009af9; stroke:none; fill-opacity:0" cx="1198.86" cy="1093.24" r="2"/>
<circle clip-path="url(#clip752)" style="fill:#009af9; stroke:none; fill-opacity:0" cx="1221.26" cy="1142.38" r="2"/>
<circle clip-path="url(#clip752)" style="fill:#009af9; stroke:none; fill-opacity:0" cx="1243.67" cy="1324.9" r="2"/>
<circle clip-path="url(#clip752)" style="fill:#009af9; stroke:none; fill-opacity:0" cx="1266.08" cy="1247.68" r="2"/>
<circle clip-path="url(#clip752)" style="fill:#009af9; stroke:none; fill-opacity:0" cx="1288.48" cy="1240.66" r="2"/>
<circle clip-path="url(#clip752)" style="fill:#009af9; stroke:none; fill-opacity:0" cx="1310.89" cy="1317.88" r="2"/>
<circle clip-path="url(#clip752)" style="fill:#009af9; stroke:none; fill-opacity:0" cx="1333.29" cy="1352.98" r="2"/>
<circle clip-path="url(#clip752)" style="fill:#009af9; stroke:none; fill-opacity:0" cx="1355.7" cy="1338.94" r="2"/>
<circle clip-path="url(#clip752)" style="fill:#009af9; stroke:none; fill-opacity:0" cx="1378.1" cy="1402.12" r="2"/>
<circle clip-path="url(#clip752)" style="fill:#009af9; stroke:none; fill-opacity:0" cx="1400.51" cy="1409.14" r="2"/>
<circle clip-path="url(#clip752)" style="fill:#009af9; stroke:none; fill-opacity:0" cx="1422.92" cy="1352.98" r="2"/>
<circle clip-path="url(#clip752)" style="fill:#009af9; stroke:none; fill-opacity:0" cx="1445.32" cy="1402.12" r="2"/>
<polyline clip-path="url(#clip752)" style="stroke:#e26f46; stroke-linecap:round; stroke-linejoin:round; stroke-width:8; stroke-opacity:1; fill:none" points="-2128.4,1423.18 -2105.88,1423.18 -2083.36,1423.18 -2060.85,1423.18 -2038.33,1423.18 -2015.81,1423.18 -1993.29,1423.18 -1970.77,1423.18 -1948.25,1423.18 -1925.74,1423.18 -1903.22,1423.18 -1880.7,1423.18 -1858.18,1423.18 -1835.66,1423.18 -1813.14,1423.18 -1790.63,1423.18 -1768.11,1423.18 -1745.59,1423.18 -1723.07,1423.18 -1700.55,1423.18 -1678.03,1423.18 -1655.52,1423.18 -1633,1423.18 -1610.48,1423.18 -1587.96,1423.18 -1565.44,1423.18 -1542.92,1423.18 -1520.41,1423.18 -1497.89,1423.18 -1475.37,1423.18 -1452.85,1423.18 -1430.33,1423.18 -1407.81,1423.18 -1385.3,1423.18 -1362.78,1423.18 -1340.26,1423.18 -1317.74,1423.18 -1295.22,1423.18 -1272.7,1423.18 -1250.18,1423.18 -1227.67,1423.18 -1205.15,1423.18 -1182.63,1423.18 -1160.11,1423.18 -1137.59,1423.18 -1115.07,1423.18 -1092.56,1423.18 -1070.04,1423.18 -1047.52,1423.18 -1025,1423.18 -1002.48,1423.18 -979.964,1423.18 -957.446,1423.18 -934.927,1423.18 -912.409,1423.18 -889.891,1423.18 -867.372,1423.18 -844.854,1423.18 -822.336,1423.18 -799.817,1423.18 -777.299,1423.18 -754.78,1423.18 -732.262,1423.18 -709.744,1423.18 -687.225,1423.18 -664.707,1423.18 -642.189,1423.18 -619.67,1423.18 -597.152,1423.18 -574.633,1423.18 -552.115,1423.18 -529.597,1423.18 -507.078,1423.18 -484.56,1423.18 -462.041,1423.18 -439.523,1423.18 -417.005,1423.18 -394.486,1423.18 -371.968,1423.18 -349.45,1423.18 -326.931,1423.18 -304.413,1423.18 -281.894,1423.18 -259.376,1423.18 -236.858,1423.18 -214.339,1423.17 -191.821,1423.17 -169.303,1423.16 -146.784,1423.15 -124.266,1423.13 -101.747,1423.1 -79.229,1423.06 -56.7107,1422.99 -34.1923,1422.89 -11.6739,1422.75 10.8445,1422.54 33.3628,1422.24 55.8812,1421.82 78.3996,1421.23 100.918,1420.4 123.436,1419.27 145.955,1417.74 168.473,1415.67 190.992,1412.93 213.51,1409.32 236.028,1404.62 258.547,1398.57 281.065,1390.86 303.583,1381.15 326.102,1369.06 348.62,1354.17 371.139,1336.02 393.657,1314.16 416.175,1288.14 438.694,1257.52 461.212,1221.93 483.73,1181.07 506.249,1134.73 528.767,1082.89 551.286,1025.65 573.804,963.355 596.322,896.561 618.841,826.066 641.359,752.916 663.877,678.397 686.396,604.013 708.914,531.445 731.433,462.505 753.951,399.066 776.469,342.988 798.988,296.036 821.506,259.789 844.024,235.562 866.543,224.331 889.061,226.668 911.58,242.706 934.098,272.115 956.616,314.111 979.135,367.486 1001.65,430.663 1024.17,501.777 1046.69,578.759 1069.21,659.442 1091.73,741.667 1114.25,823.374 1136.76,902.699 1159.28,978.037 1181.8,1048.1 1204.32,1111.93 1226.84,1168.94 1249.36,1218.85 1271.87,1261.68 1294.39,1297.72 1316.91,1327.44 1339.43,1351.46 1361.95,1370.47 1384.47,1385.2 1406.98,1396.37 1429.5,1404.66 1452.02,1410.67 1474.54,1414.92 1497.06,1417.86 1519.58,1419.84 1542.09,1421.14 1564.61,1421.96 1587.13,1422.48 1609.65,1422.79 1632.17,1422.97 1654.69,1423.07 1677.2,1423.12 1699.72,1423.15 1722.24,1423.17 1744.76,1423.17 1767.28,1423.18 1789.8,1423.18 1812.31,1423.18 1834.83,1423.18 1857.35,1423.18 1879.87,1423.18 1902.39,1423.18 1924.91,1423.18 1947.43,1423.18 1969.94,1423.18 1992.46,1423.18 2014.98,1423.18 2037.5,1423.18 2060.02,1423.18 2082.54,1423.18 2105.05,1423.18 2127.57,1423.18 2150.09,1423.18 2172.61,1423.18 2195.13,1423.18 2217.65,1423.18 2240.16,1423.18 2262.68,1423.18 2285.2,1423.18 2307.72,1423.18 2330.24,1423.18 2352.76,1423.18 "/>
<path clip-path="url(#clip750)" d="M1599.66 248.629 L2278.07 248.629 L2278.07 93.1086 L1599.66 93.1086  Z" fill="#ffffff" fill-rule="evenodd" fill-opacity="1"/>
<polyline clip-path="url(#clip750)" style="stroke:#000000; stroke-linecap:round; stroke-linejoin:round; stroke-width:4; stroke-opacity:1; fill:none" points="1599.66,248.629 2278.07,248.629 2278.07,93.1086 1599.66,93.1086 1599.66,248.629 "/>
<path clip-path="url(#clip750)" d="M1624.56 165.685 L1773.93 165.685 L1773.93 124.213 L1624.56 124.213 L1624.56 165.685  Z" fill="#009af9" fill-rule="evenodd" fill-opacity="1"/>
<polyline clip-path="url(#clip750)" style="stroke:#000000; stroke-linecap:round; stroke-linejoin:round; stroke-width:4; stroke-opacity:1; fill:none" points="1624.56,165.685 1773.93,165.685 1773.93,124.213 1624.56,124.213 1624.56,165.685 "/>
<path clip-path="url(#clip750)" d="M1798.83 127.669 L1805.79 127.669 L1814.61 151.187 L1823.48 127.669 L1830.45 127.669 L1830.45 162.229 L1825.89 162.229 L1825.89 131.882 L1816.97 155.585 L1812.27 155.585 L1803.36 131.882 L1803.36 162.229 L1798.83 162.229 L1798.83 127.669 Z" fill="#000000" fill-rule="nonzero" fill-opacity="1" /><path clip-path="url(#clip750)" d="M1839.73 127.669 L1844.4 127.669 L1844.4 141.835 L1861.39 141.835 L1861.39 127.669 L1866.07 127.669 L1866.07 162.229 L1861.39 162.229 L1861.39 145.77 L1844.4 145.77 L1844.4 162.229 L1839.73 162.229 L1839.73 127.669 Z" fill="#000000" fill-rule="nonzero" fill-opacity="1" /><polyline clip-path="url(#clip750)" style="stroke:#e26f46; stroke-linecap:round; stroke-linejoin:round; stroke-width:8; stroke-opacity:1; fill:none" points="1624.56,196.789 1773.93,196.789 "/>
<path clip-path="url(#clip750)" d="M1812.23 201.036 Q1807.07 201.036 1805.08 202.217 Q1803.08 203.397 1803.08 206.245 Q1803.08 208.513 1804.57 209.856 Q1806.07 211.175 1808.64 211.175 Q1812.18 211.175 1814.31 208.675 Q1816.46 206.152 1816.46 201.985 L1816.46 201.036 L1812.23 201.036 M1820.72 199.277 L1820.72 214.069 L1816.46 214.069 L1816.46 210.133 Q1815.01 212.495 1812.83 213.629 Q1810.65 214.74 1807.51 214.74 Q1803.52 214.74 1801.16 212.518 Q1798.83 210.272 1798.83 206.522 Q1798.83 202.147 1801.74 199.925 Q1804.68 197.703 1810.49 197.703 L1816.46 197.703 L1816.46 197.286 Q1816.46 194.347 1814.52 192.749 Q1812.6 191.129 1809.1 191.129 Q1806.88 191.129 1804.77 191.661 Q1802.67 192.194 1800.72 193.259 L1800.72 189.323 Q1803.06 188.421 1805.26 187.981 Q1807.46 187.518 1809.54 187.518 Q1815.17 187.518 1817.95 190.434 Q1820.72 193.351 1820.72 199.277 Z" fill="#000000" fill-rule="nonzero" fill-opacity="1" /><path clip-path="url(#clip750)" d="M1851.05 198.421 L1851.05 214.069 L1846.79 214.069 L1846.79 198.559 Q1846.79 194.879 1845.35 193.05 Q1843.92 191.222 1841.05 191.222 Q1837.6 191.222 1835.61 193.421 Q1833.62 195.62 1833.62 199.416 L1833.62 214.069 L1829.33 214.069 L1829.33 188.143 L1833.62 188.143 L1833.62 192.171 Q1835.14 189.833 1837.2 188.675 Q1839.29 187.518 1842 187.518 Q1846.46 187.518 1848.76 190.296 Q1851.05 193.05 1851.05 198.421 Z" fill="#000000" fill-rule="nonzero" fill-opacity="1" /><path clip-path="url(#clip750)" d="M1871.32 201.036 Q1866.16 201.036 1864.17 202.217 Q1862.18 203.397 1862.18 206.245 Q1862.18 208.513 1863.66 209.856 Q1865.17 211.175 1867.74 211.175 Q1871.28 211.175 1873.41 208.675 Q1875.56 206.152 1875.56 201.985 L1875.56 201.036 L1871.32 201.036 M1879.82 199.277 L1879.82 214.069 L1875.56 214.069 L1875.56 210.133 Q1874.1 212.495 1871.93 213.629 Q1869.75 214.74 1866.6 214.74 Q1862.62 214.74 1860.26 212.518 Q1857.92 210.272 1857.92 206.522 Q1857.92 202.147 1860.84 199.925 Q1863.78 197.703 1869.59 197.703 L1875.56 197.703 L1875.56 197.286 Q1875.56 194.347 1873.62 192.749 Q1871.7 191.129 1868.2 191.129 Q1865.98 191.129 1863.87 191.661 Q1861.76 192.194 1859.82 193.259 L1859.82 189.323 Q1862.16 188.421 1864.36 187.981 Q1866.56 187.518 1868.64 187.518 Q1874.26 187.518 1877.04 190.434 Q1879.82 193.351 1879.82 199.277 Z" fill="#000000" fill-rule="nonzero" fill-opacity="1" /><path clip-path="url(#clip750)" d="M1888.59 178.05 L1892.85 178.05 L1892.85 214.069 L1888.59 214.069 L1888.59 178.05 Z" fill="#000000" fill-rule="nonzero" fill-opacity="1" /><path clip-path="url(#clip750)" d="M1912.55 216.476 Q1910.75 221.106 1909.03 222.518 Q1907.32 223.93 1904.45 223.93 L1901.05 223.93 L1901.05 220.365 L1903.55 220.365 Q1905.31 220.365 1906.28 219.532 Q1907.25 218.698 1908.43 215.596 L1909.19 213.652 L1898.71 188.143 L1903.22 188.143 L1911.32 208.421 L1919.43 188.143 L1923.94 188.143 L1912.55 216.476 Z" fill="#000000" fill-rule="nonzero" fill-opacity="1" /><path clip-path="url(#clip750)" d="M1934.03 180.782 L1934.03 188.143 L1942.81 188.143 L1942.81 191.453 L1934.03 191.453 L1934.03 205.527 Q1934.03 208.698 1934.89 209.601 Q1935.77 210.504 1938.43 210.504 L1942.81 210.504 L1942.81 214.069 L1938.43 214.069 Q1933.5 214.069 1931.63 212.24 Q1929.75 210.388 1929.75 205.527 L1929.75 191.453 L1926.63 191.453 L1926.63 188.143 L1929.75 188.143 L1929.75 180.782 L1934.03 180.782 Z" fill="#000000" fill-rule="nonzero" fill-opacity="1" /><path clip-path="url(#clip750)" d="M1948.41 188.143 L1952.67 188.143 L1952.67 214.069 L1948.41 214.069 L1948.41 188.143 M1948.41 178.05 L1952.67 178.05 L1952.67 183.444 L1948.41 183.444 L1948.41 178.05 Z" fill="#000000" fill-rule="nonzero" fill-opacity="1" /><path clip-path="url(#clip750)" d="M1980.24 189.138 L1980.24 193.12 Q1978.43 192.124 1976.6 191.638 Q1974.8 191.129 1972.94 191.129 Q1968.8 191.129 1966.51 193.768 Q1964.22 196.384 1964.22 201.129 Q1964.22 205.874 1966.51 208.513 Q1968.8 211.129 1972.94 211.129 Q1974.8 211.129 1976.6 210.643 Q1978.43 210.133 1980.24 209.138 L1980.24 213.073 Q1978.45 213.907 1976.53 214.323 Q1974.63 214.74 1972.48 214.74 Q1966.63 214.74 1963.18 211.059 Q1959.73 207.379 1959.73 201.129 Q1959.73 194.786 1963.2 191.152 Q1966.69 187.518 1972.76 187.518 Q1974.73 187.518 1976.6 187.935 Q1978.48 188.328 1980.24 189.138 Z" fill="#000000" fill-rule="nonzero" fill-opacity="1" /><path clip-path="url(#clip750)" d="M1999.43 201.036 Q1994.26 201.036 1992.27 202.217 Q1990.28 203.397 1990.28 206.245 Q1990.28 208.513 1991.76 209.856 Q1993.27 211.175 1995.84 211.175 Q1999.38 211.175 2001.51 208.675 Q2003.66 206.152 2003.66 201.985 L2003.66 201.036 L1999.43 201.036 M2007.92 199.277 L2007.92 214.069 L2003.66 214.069 L2003.66 210.133 Q2002.2 212.495 2000.03 213.629 Q1997.85 214.74 1994.7 214.74 Q1990.72 214.74 1988.36 212.518 Q1986.02 210.272 1986.02 206.522 Q1986.02 202.147 1988.94 199.925 Q1991.88 197.703 1997.69 197.703 L2003.66 197.703 L2003.66 197.286 Q2003.66 194.347 2001.72 192.749 Q1999.8 191.129 1996.3 191.129 Q1994.08 191.129 1991.97 191.661 Q1989.87 192.194 1987.92 193.259 L1987.92 189.323 Q1990.26 188.421 1992.46 187.981 Q1994.66 187.518 1996.74 187.518 Q2002.37 187.518 2005.14 190.434 Q2007.92 193.351 2007.92 199.277 Z" fill="#000000" fill-rule="nonzero" fill-opacity="1" /><path clip-path="url(#clip750)" d="M2016.69 178.05 L2020.95 178.05 L2020.95 214.069 L2016.69 214.069 L2016.69 178.05 Z" fill="#000000" fill-rule="nonzero" fill-opacity="1" /><path clip-path="url(#clip750)" d="M2049.06 210.18 L2049.06 223.93 L2044.77 223.93 L2044.77 188.143 L2049.06 188.143 L2049.06 192.078 Q2050.4 189.763 2052.43 188.652 Q2054.5 187.518 2057.34 187.518 Q2062.06 187.518 2065 191.268 Q2067.97 195.018 2067.97 201.129 Q2067.97 207.24 2065 210.99 Q2062.06 214.74 2057.34 214.74 Q2054.5 214.74 2052.43 213.629 Q2050.4 212.495 2049.06 210.18 M2063.55 201.129 Q2063.55 196.43 2061.6 193.768 Q2059.68 191.083 2056.3 191.083 Q2052.92 191.083 2050.98 193.768 Q2049.06 196.43 2049.06 201.129 Q2049.06 205.828 2050.98 208.513 Q2052.92 211.175 2056.3 211.175 Q2059.68 211.175 2061.6 208.513 Q2063.55 205.828 2063.55 201.129 Z" fill="#000000" fill-rule="nonzero" fill-opacity="1" /><path clip-path="url(#clip750)" d="M2085.07 191.129 Q2081.65 191.129 2079.66 193.814 Q2077.67 196.476 2077.67 201.129 Q2077.67 205.782 2079.63 208.467 Q2081.62 211.129 2085.07 211.129 Q2088.48 211.129 2090.47 208.444 Q2092.46 205.758 2092.46 201.129 Q2092.46 196.522 2090.47 193.837 Q2088.48 191.129 2085.07 191.129 M2085.07 187.518 Q2090.63 187.518 2093.8 191.129 Q2096.97 194.74 2096.97 201.129 Q2096.97 207.495 2093.8 211.129 Q2090.63 214.74 2085.07 214.74 Q2079.5 214.74 2076.32 211.129 Q2073.18 207.495 2073.18 201.129 Q2073.18 194.74 2076.32 191.129 Q2079.5 187.518 2085.07 187.518 Z" fill="#000000" fill-rule="nonzero" fill-opacity="1" /><path clip-path="url(#clip750)" d="M2120.56 188.907 L2120.56 192.934 Q2118.75 192.009 2116.81 191.546 Q2114.87 191.083 2112.78 191.083 Q2109.61 191.083 2108.01 192.055 Q2106.44 193.027 2106.44 194.971 Q2106.44 196.453 2107.57 197.309 Q2108.71 198.143 2112.13 198.907 L2113.59 199.231 Q2118.13 200.203 2120.03 201.985 Q2121.95 203.745 2121.95 206.916 Q2121.95 210.527 2119.08 212.633 Q2116.23 214.74 2111.23 214.74 Q2109.15 214.74 2106.88 214.323 Q2104.63 213.93 2102.13 213.12 L2102.13 208.721 Q2104.49 209.948 2106.79 210.573 Q2109.08 211.175 2111.32 211.175 Q2114.33 211.175 2115.95 210.157 Q2117.57 209.115 2117.57 207.24 Q2117.57 205.504 2116.39 204.578 Q2115.24 203.652 2111.28 202.796 L2109.8 202.448 Q2105.84 201.615 2104.08 199.902 Q2102.32 198.166 2102.32 195.157 Q2102.32 191.499 2104.91 189.509 Q2107.5 187.518 2112.27 187.518 Q2114.63 187.518 2116.72 187.865 Q2118.8 188.212 2120.56 188.907 Z" fill="#000000" fill-rule="nonzero" fill-opacity="1" /><path clip-path="url(#clip750)" d="M2132.94 180.782 L2132.94 188.143 L2141.72 188.143 L2141.72 191.453 L2132.94 191.453 L2132.94 205.527 Q2132.94 208.698 2133.8 209.601 Q2134.68 210.504 2137.34 210.504 L2141.72 210.504 L2141.72 214.069 L2137.34 214.069 Q2132.41 214.069 2130.54 212.24 Q2128.66 210.388 2128.66 205.527 L2128.66 191.453 L2125.54 191.453 L2125.54 188.143 L2128.66 188.143 L2128.66 180.782 L2132.94 180.782 Z" fill="#000000" fill-rule="nonzero" fill-opacity="1" /><path clip-path="url(#clip750)" d="M2169.49 200.041 L2169.49 202.124 L2149.91 202.124 Q2150.19 206.522 2152.55 208.837 Q2154.93 211.129 2159.17 211.129 Q2161.62 211.129 2163.92 210.527 Q2166.23 209.925 2168.5 208.721 L2168.5 212.749 Q2166.21 213.721 2163.8 214.231 Q2161.39 214.74 2158.92 214.74 Q2152.71 214.74 2149.08 211.129 Q2145.47 207.518 2145.47 201.36 Q2145.47 194.995 2148.89 191.268 Q2152.34 187.518 2158.18 187.518 Q2163.41 187.518 2166.44 190.897 Q2169.49 194.254 2169.49 200.041 M2165.24 198.791 Q2165.19 195.296 2163.27 193.212 Q2161.37 191.129 2158.22 191.129 Q2154.66 191.129 2152.5 193.143 Q2150.37 195.157 2150.05 198.814 L2165.24 198.791 Z" fill="#000000" fill-rule="nonzero" fill-opacity="1" /><path clip-path="url(#clip750)" d="M2191.51 192.124 Q2190.79 191.708 2189.93 191.522 Q2189.1 191.314 2188.08 191.314 Q2184.47 191.314 2182.53 193.675 Q2180.61 196.013 2180.61 200.411 L2180.61 214.069 L2176.32 214.069 L2176.32 188.143 L2180.61 188.143 L2180.61 192.171 Q2181.95 189.809 2184.1 188.675 Q2186.25 187.518 2189.33 187.518 Q2189.77 187.518 2190.3 187.587 Q2190.84 187.634 2191.49 187.749 L2191.51 192.124 Z" fill="#000000" fill-rule="nonzero" fill-opacity="1" /><path clip-path="url(#clip750)" d="M2195.98 188.143 L2200.24 188.143 L2200.24 214.069 L2195.98 214.069 L2195.98 188.143 M2195.98 178.05 L2200.24 178.05 L2200.24 183.444 L2195.98 183.444 L2195.98 178.05 Z" fill="#000000" fill-rule="nonzero" fill-opacity="1" /><path clip-path="url(#clip750)" d="M2219.19 191.129 Q2215.77 191.129 2213.78 193.814 Q2211.79 196.476 2211.79 201.129 Q2211.79 205.782 2213.75 208.467 Q2215.74 211.129 2219.19 211.129 Q2222.6 211.129 2224.59 208.444 Q2226.58 205.758 2226.58 201.129 Q2226.58 196.522 2224.59 193.837 Q2222.6 191.129 2219.19 191.129 M2219.19 187.518 Q2224.75 187.518 2227.92 191.129 Q2231.09 194.74 2231.09 201.129 Q2231.09 207.495 2227.92 211.129 Q2224.75 214.74 2219.19 214.74 Q2213.61 214.74 2210.44 211.129 Q2207.3 207.495 2207.3 201.129 Q2207.3 194.74 2210.44 191.129 Q2213.61 187.518 2219.19 187.518 Z" fill="#000000" fill-rule="nonzero" fill-opacity="1" /><path clip-path="url(#clip750)" d="M2253.17 192.124 Q2252.46 191.708 2251.6 191.522 Q2250.77 191.314 2249.75 191.314 Q2246.14 191.314 2244.19 193.675 Q2242.27 196.013 2242.27 200.411 L2242.27 214.069 L2237.99 214.069 L2237.99 188.143 L2242.27 188.143 L2242.27 192.171 Q2243.61 189.809 2245.77 188.675 Q2247.92 187.518 2251 187.518 Q2251.44 187.518 2251.97 187.587 Q2252.5 187.634 2253.15 187.749 L2253.17 192.124 Z" fill="#000000" fill-rule="nonzero" fill-opacity="1" /></svg>
