<?xml version="1.0" encoding="utf-8"?>
<svg xmlns="http://www.w3.org/2000/svg" xmlns:xlink="http://www.w3.org/1999/xlink" width="600" height="400" viewBox="0 0 2400 1600">
<defs>
  <clipPath id="clip400">
    <rect x="0" y="0" width="2400" height="1600"/>
  </clipPath>
</defs>
<path clip-path="url(#clip400)" d="M0 1600 L2400 1600 L2400 0 L0 0  Z" fill="#ffffff" fill-rule="evenodd" fill-opacity="1"/>
<defs>
  <clipPath id="clip401">
    <rect x="480" y="0" width="1681" height="1600"/>
  </clipPath>
</defs>
<path clip-path="url(#clip400)" d="M147.478 1486.45 L2112.76 1486.45 L2112.76 47.2441 L147.478 47.2441  Z" fill="#ffffff" fill-rule="evenodd" fill-opacity="1"/>
<defs>
  <clipPath id="clip402">
    <rect x="147" y="47" width="1966" height="1440"/>
  </clipPath>
</defs>
<polyline clip-path="url(#clip402)" style="stroke:#000000; stroke-linecap:round; stroke-linejoin:round; stroke-width:2; stroke-opacity:0.1; fill:none" points="147.478,1486.45 147.478,47.2441 "/>
<polyline clip-path="url(#clip402)" style="stroke:#000000; stroke-linecap:round; stroke-linejoin:round; stroke-width:2; stroke-opacity:0.1; fill:none" points="638.797,1486.45 638.797,47.2441 "/>
<polyline clip-path="url(#clip402)" style="stroke:#000000; stroke-linecap:round; stroke-linejoin:round; stroke-width:2; stroke-opacity:0.1; fill:none" points="1130.12,1486.45 1130.12,47.2441 "/>
<polyline clip-path="url(#clip402)" style="stroke:#000000; stroke-linecap:round; stroke-linejoin:round; stroke-width:2; stroke-opacity:0.1; fill:none" points="1621.44,1486.45 1621.44,47.2441 "/>
<polyline clip-path="url(#clip402)" style="stroke:#000000; stroke-linecap:round; stroke-linejoin:round; stroke-width:2; stroke-opacity:0.1; fill:none" points="2112.76,1486.45 2112.76,47.2441 "/>
<polyline clip-path="url(#clip402)" style="stroke:#000000; stroke-linecap:round; stroke-linejoin:round; stroke-width:2; stroke-opacity:0.1; fill:none" points="147.478,1486.45 2112.76,1486.45 "/>
<polyline clip-path="url(#clip402)" style="stroke:#000000; stroke-linecap:round; stroke-linejoin:round; stroke-width:2; stroke-opacity:0.1; fill:none" points="147.478,1126.65 2112.76,1126.65 "/>
<polyline clip-path="url(#clip402)" style="stroke:#000000; stroke-linecap:round; stroke-linejoin:round; stroke-width:2; stroke-opacity:0.1; fill:none" points="147.478,766.846 2112.76,766.846 "/>
<polyline clip-path="url(#clip402)" style="stroke:#000000; stroke-linecap:round; stroke-linejoin:round; stroke-width:2; stroke-opacity:0.1; fill:none" points="147.478,407.045 2112.76,407.045 "/>
<polyline clip-path="url(#clip402)" style="stroke:#000000; stroke-linecap:round; stroke-linejoin:round; stroke-width:2; stroke-opacity:0.1; fill:none" points="147.478,47.2441 2112.76,47.2441 "/>
<polyline clip-path="url(#clip400)" style="stroke:#000000; stroke-linecap:round; stroke-linejoin:round; stroke-width:4; stroke-opacity:1; fill:none" points="147.478,1486.45 2112.76,1486.45 "/>
<polyline clip-path="url(#clip400)" style="stroke:#000000; stroke-linecap:round; stroke-linejoin:round; stroke-width:4; stroke-opacity:1; fill:none" points="147.478,1486.45 147.478,1467.55 "/>
<polyline clip-path="url(#clip400)" style="stroke:#000000; stroke-linecap:round; stroke-linejoin:round; stroke-width:4; stroke-opacity:1; fill:none" points="638.797,1486.45 638.797,1467.55 "/>
<polyline clip-path="url(#clip400)" style="stroke:#000000; stroke-linecap:round; stroke-linejoin:round; stroke-width:4; stroke-opacity:1; fill:none" points="1130.12,1486.45 1130.12,1467.55 "/>
<polyline clip-path="url(#clip400)" style="stroke:#000000; stroke-linecap:round; stroke-linejoin:round; stroke-width:4; stroke-opacity:1; fill:none" points="1621.44,1486.45 1621.44,1467.55 "/>
<polyline clip-path="url(#clip400)" style="stroke:#000000; stroke-linecap:round; stroke-linejoin:round; stroke-width:4; stroke-opacity:1; fill:none" points="2112.76,1486.45 2112.76,1467.55 "/>
<path clip-path="url(#clip400)" d="M117.42 1532.02 L147.096 1532.02 L147.096 1535.95 L117.42 1535.95 L117.42 1532.02 Z" fill="#000000" fill-rule="nonzero" fill-opacity="1" /><path clip-path="url(#clip400)" d="M161.216 1544.91 L177.536 1544.91 L177.536 1548.85 L155.591 1548.85 L155.591 1544.91 Q158.253 1542.16 162.837 1537.53 Q167.443 1532.88 168.624 1531.53 Q170.869 1529.01 171.749 1527.27 Q172.651 1525.51 172.651 1523.82 Q172.651 1521.07 170.707 1519.33 Q168.786 1517.6 165.684 1517.6 Q163.485 1517.6 161.031 1518.36 Q158.601 1519.13 155.823 1520.68 L155.823 1515.95 Q158.647 1514.82 161.101 1514.24 Q163.554 1513.66 165.591 1513.66 Q170.962 1513.66 174.156 1516.35 Q177.35 1519.03 177.35 1523.52 Q177.35 1525.65 176.54 1527.57 Q175.753 1529.47 173.647 1532.07 Q173.068 1532.74 169.966 1535.95 Q166.864 1539.15 161.216 1544.91 Z" fill="#000000" fill-rule="nonzero" fill-opacity="1" /><path clip-path="url(#clip400)" d="M608.555 1532.02 L638.23 1532.02 L638.23 1535.95 L608.555 1535.95 L608.555 1532.02 Z" fill="#000000" fill-rule="nonzero" fill-opacity="1" /><path clip-path="url(#clip400)" d="M649.133 1544.91 L656.772 1544.91 L656.772 1518.55 L648.462 1520.21 L648.462 1515.95 L656.726 1514.29 L661.401 1514.29 L661.401 1544.91 L669.04 1544.91 L669.04 1548.85 L649.133 1548.85 L649.133 1544.91 Z" fill="#000000" fill-rule="nonzero" fill-opacity="1" /><path clip-path="url(#clip400)" d="M1130.12 1517.37 Q1126.51 1517.37 1124.68 1520.93 Q1122.87 1524.47 1122.87 1531.6 Q1122.87 1538.71 1124.68 1542.27 Q1126.51 1545.82 1130.12 1545.82 Q1133.75 1545.82 1135.56 1542.27 Q1137.39 1538.71 1137.39 1531.6 Q1137.39 1524.47 1135.56 1520.93 Q1133.75 1517.37 1130.12 1517.37 M1130.12 1513.66 Q1135.93 1513.66 1138.98 1518.27 Q1142.06 1522.85 1142.06 1531.6 Q1142.06 1540.33 1138.98 1544.94 Q1135.93 1549.52 1130.12 1549.52 Q1124.31 1549.52 1121.23 1544.94 Q1118.17 1540.33 1118.17 1531.6 Q1118.17 1522.85 1121.23 1518.27 Q1124.31 1513.66 1130.12 1513.66 Z" fill="#000000" fill-rule="nonzero" fill-opacity="1" /><path clip-path="url(#clip400)" d="M1611.82 1544.91 L1619.46 1544.91 L1619.46 1518.55 L1611.15 1520.21 L1611.15 1515.95 L1619.41 1514.29 L1624.09 1514.29 L1624.09 1544.91 L1631.73 1544.91 L1631.73 1548.85 L1611.82 1548.85 L1611.82 1544.91 Z" fill="#000000" fill-rule="nonzero" fill-opacity="1" /><path clip-path="url(#clip400)" d="M2107.41 1544.91 L2123.73 1544.91 L2123.73 1548.85 L2101.78 1548.85 L2101.78 1544.91 Q2104.45 1542.16 2109.03 1537.53 Q2113.64 1532.88 2114.82 1531.53 Q2117.06 1529.01 2117.94 1527.27 Q2118.84 1525.51 2118.84 1523.82 Q2118.84 1521.07 2116.9 1519.33 Q2114.98 1517.6 2111.88 1517.6 Q2109.68 1517.6 2107.22 1518.36 Q2104.79 1519.13 2102.02 1520.68 L2102.02 1515.95 Q2104.84 1514.82 2107.29 1514.24 Q2109.75 1513.66 2111.78 1513.66 Q2117.15 1513.66 2120.35 1516.35 Q2123.54 1519.03 2123.54 1523.52 Q2123.54 1525.65 2122.73 1527.57 Q2121.95 1529.47 2119.84 1532.07 Q2119.26 1532.74 2116.16 1535.95 Q2113.06 1539.15 2107.41 1544.91 Z" fill="#000000" fill-rule="nonzero" fill-opacity="1" /><polyline clip-path="url(#clip400)" style="stroke:#000000; stroke-linecap:round; stroke-linejoin:round; stroke-width:4; stroke-opacity:1; fill:none" points="147.478,1486.45 147.478,47.2441 "/>
<polyline clip-path="url(#clip400)" style="stroke:#000000; stroke-linecap:round; stroke-linejoin:round; stroke-width:4; stroke-opacity:1; fill:none" points="147.478,1486.45 164.319,1486.45 "/>
<polyline clip-path="url(#clip400)" style="stroke:#000000; stroke-linecap:round; stroke-linejoin:round; stroke-width:4; stroke-opacity:1; fill:none" points="147.478,1126.65 164.319,1126.65 "/>
<polyline clip-path="url(#clip400)" style="stroke:#000000; stroke-linecap:round; stroke-linejoin:round; stroke-width:4; stroke-opacity:1; fill:none" points="147.478,766.846 164.319,766.846 "/>
<polyline clip-path="url(#clip400)" style="stroke:#000000; stroke-linecap:round; stroke-linejoin:round; stroke-width:4; stroke-opacity:1; fill:none" points="147.478,407.045 164.319,407.045 "/>
<polyline clip-path="url(#clip400)" style="stroke:#000000; stroke-linecap:round; stroke-linejoin:round; stroke-width:4; stroke-opacity:1; fill:none" points="147.478,47.2441 164.319,47.2441 "/>
<path clip-path="url(#clip400)" d="M51.3625 1486.9 L81.0383 1486.9 L81.0383 1490.83 L51.3625 1490.83 L51.3625 1486.9 Z" fill="#000000" fill-rule="nonzero" fill-opacity="1" /><path clip-path="url(#clip400)" d="M95.1586 1499.79 L111.478 1499.79 L111.478 1503.73 L89.5336 1503.73 L89.5336 1499.79 Q92.1956 1497.04 96.7789 1492.41 Q101.385 1487.76 102.566 1486.41 Q104.811 1483.89 105.691 1482.15 Q106.594 1480.39 106.594 1478.7 Q106.594 1475.95 104.649 1474.21 Q102.728 1472.48 99.6261 1472.48 Q97.4271 1472.48 94.9734 1473.24 Q92.5428 1474.01 89.7651 1475.56 L89.7651 1470.83 Q92.5891 1469.7 95.0428 1469.12 Q97.4965 1468.54 99.5335 1468.54 Q104.904 1468.54 108.098 1471.23 Q111.293 1473.91 111.293 1478.4 Q111.293 1480.53 110.483 1482.45 Q109.696 1484.35 107.589 1486.95 Q107.01 1487.62 103.909 1490.83 Q100.807 1494.03 95.1586 1499.79 Z" fill="#000000" fill-rule="nonzero" fill-opacity="1" /><path clip-path="url(#clip400)" d="M50.9921 1127.1 L80.6679 1127.1 L80.6679 1131.03 L50.9921 1131.03 L50.9921 1127.1 Z" fill="#000000" fill-rule="nonzero" fill-opacity="1" /><path clip-path="url(#clip400)" d="M91.5706 1139.99 L99.2095 1139.99 L99.2095 1113.63 L90.8993 1115.29 L90.8993 1111.03 L99.1632 1109.37 L103.839 1109.37 L103.839 1139.99 L111.478 1139.99 L111.478 1143.93 L91.5706 1143.93 L91.5706 1139.99 Z" fill="#000000" fill-rule="nonzero" fill-opacity="1" /><path clip-path="url(#clip400)" d="M99.5335 752.645 Q95.9224 752.645 94.0937 756.209 Q92.2882 759.751 92.2882 766.881 Q92.2882 773.987 94.0937 777.552 Q95.9224 781.094 99.5335 781.094 Q103.168 781.094 104.973 777.552 Q106.802 773.987 106.802 766.881 Q106.802 759.751 104.973 756.209 Q103.168 752.645 99.5335 752.645 M99.5335 748.941 Q105.344 748.941 108.399 753.547 Q111.478 758.131 111.478 766.881 Q111.478 775.608 108.399 780.214 Q105.344 784.797 99.5335 784.797 Q93.7234 784.797 90.6447 780.214 Q87.5892 775.608 87.5892 766.881 Q87.5892 758.131 90.6447 753.547 Q93.7234 748.941 99.5335 748.941 Z" fill="#000000" fill-rule="nonzero" fill-opacity="1" /><path clip-path="url(#clip400)" d="M91.5706 420.39 L99.2095 420.39 L99.2095 394.024 L90.8993 395.691 L90.8993 391.432 L99.1632 389.765 L103.839 389.765 L103.839 420.39 L111.478 420.39 L111.478 424.325 L91.5706 424.325 L91.5706 420.39 Z" fill="#000000" fill-rule="nonzero" fill-opacity="1" /><path clip-path="url(#clip400)" d="M95.1586 60.5889 L111.478 60.5889 L111.478 64.5241 L89.5336 64.5241 L89.5336 60.5889 Q92.1956 57.8343 96.7789 53.2047 Q101.385 48.552 102.566 47.2094 Q104.811 44.6862 105.691 42.9501 Q106.594 41.1909 106.594 39.5011 Q106.594 36.7465 104.649 35.0104 Q102.728 33.2743 99.6261 33.2743 Q97.4271 33.2743 94.9734 34.0381 Q92.5428 34.802 89.7651 36.3529 L89.7651 31.6308 Q92.5891 30.4965 95.0428 29.9178 Q97.4965 29.3391 99.5335 29.3391 Q104.904 29.3391 108.098 32.0243 Q111.293 34.7094 111.293 39.2002 Q111.293 41.3298 110.483 43.2511 Q109.696 45.1492 107.589 47.7418 Q107.01 48.4131 103.909 51.6306 Q100.807 54.8251 95.1586 60.5889 Z" fill="#000000" fill-rule="nonzero" fill-opacity="1" /><polyline clip-path="url(#clip402)" style="stroke:#ff0000; stroke-linecap:round; stroke-linejoin:round; stroke-width:4; stroke-opacity:1; fill:none" points="802.636,1006.71 822.422,1018.92 829.117,1021.25 842.273,1026.84 862.124,1031.18 881.976,1032.56 901.827,1031.75 921.678,1028.3 939.668,1021.25 941.53,1020.68 961.381,1010.78 967.152,1006.71 981.232,993.395 982.505,992.176 993.905,977.638 998.871,963.101 1000.46,948.564 999.524,934.026 995.576,919.489 986.274,904.951 981.232,899.859 972.14,890.414 961.381,882.535 948.483,875.877 941.53,872.184 921.678,865.373 901.827,862.481 881.976,861.799 862.124,862.96 842.273,866.596 822.422,874.944 820.757,875.877 802.571,886.188 797.013,890.414 783.501,904.951 782.719,906.315 773.096,919.489 768.387,934.026 767.276,948.564 769.167,963.101 775.087,977.638 782.719,987.273 785.896,992.176 802.571,1006.67 802.636,1006.71 "/>
<polyline clip-path="url(#clip402)" style="stroke:#ff0000; stroke-linecap:round; stroke-linejoin:round; stroke-width:4; stroke-opacity:1; fill:none" points="826.489,1006.71 842.273,1014.31 862.124,1018.93 881.976,1020.41 901.827,1019.54 921.678,1015.87 941.53,1007.21 942.385,1006.71 961.381,994.048 963.618,992.176 976.393,977.638 981.232,965.477 982.527,963.101 985.697,948.564 983.834,934.026 981.232,928.491 978.265,919.489 967.842,904.951 961.381,899.25 949.315,890.414 941.53,885.682 921.678,878.049 909.386,875.877 901.827,873.971 881.976,872.607 862.124,874.929 858.879,875.877 842.273,879.42 822.422,888.776 819.865,890.414 802.571,904.325 801.887,904.951 790.069,919.489 785.052,934.026 783.868,948.564 785.882,963.101 792.191,977.638 802.571,989.197 805.266,992.176 822.422,1004.74 826.489,1006.71 "/>
<polyline clip-path="url(#clip402)" style="stroke:#ff0000; stroke-linecap:round; stroke-linejoin:round; stroke-width:4; stroke-opacity:1; fill:none" points="822.422,994.747 818.91,992.176 804.644,977.638 802.571,973.604 796.265,963.101 793.244,948.564 795.02,934.026 802.545,919.489 802.571,919.458 814.193,904.951 822.422,898.598 837.773,890.414 842.273,888.164 862.124,882.052 881.976,880.1 901.827,881.247 921.678,886.108 931.017,890.414 941.53,895.375 954.606,904.951 961.381,912.65 967.261,919.489 973.898,934.026 975.465,948.564 972.8,963.101 964.454,977.638 961.381,980.934 950.206,992.176 941.53,998.202 921.72,1006.71 921.678,1006.73 901.827,1012.24 881.976,1013.54 862.124,1011.33 847.783,1006.71 842.273,1005.19 822.422,994.747 "/>
<polyline clip-path="url(#clip402)" style="stroke:#ff0000; stroke-linecap:round; stroke-linejoin:round; stroke-width:4; stroke-opacity:1; fill:none" points="842.273,998.685 830.882,992.176 822.422,985.981 813.533,977.638 805.248,963.101 802.603,948.564 804.158,934.026 810.746,919.489 822.422,907.606 825.631,904.951 842.273,894.924 857.171,890.414 862.124,888.758 881.976,886.156 901.827,887.685 911.286,890.414 921.678,893.02 941.53,903.622 943.344,904.951 957.822,919.489 961.381,927.099 965.107,934.026 967.195,948.564 963.642,963.101 961.381,966.728 955.223,977.638 941.53,989.826 937.905,992.176 921.678,1000.73 901.827,1005.55 881.976,1006.69 862.124,1004.75 842.273,998.685 "/>
<polyline clip-path="url(#clip402)" style="stroke:#ff0000; stroke-linecap:round; stroke-linejoin:round; stroke-width:4; stroke-opacity:1; fill:none" points="842.273,992.176 842.273,992.176 822.422,977.639 822.422,977.638 812.066,963.101 808.759,948.564 810.703,934.026 818.938,919.489 822.422,915.943 835.709,904.951 842.273,900.997 862.124,893.922 881.976,891.663 901.827,892.99 921.678,898.617 933.08,904.951 941.53,911.139 950.18,919.489 957.863,934.026 959.676,948.564 956.591,963.101 946.93,977.638 941.53,982.445 926.52,992.176 921.678,994.727 901.827,1000.76 881.976,1002.18 862.124,999.76 842.273,992.176 "/>
<polyline clip-path="url(#clip402)" style="stroke:#ff0000; stroke-linecap:round; stroke-linejoin:round; stroke-width:4; stroke-opacity:1; fill:none" points="862.124,994.767 855.342,992.176 842.273,986.741 829.843,977.638 822.422,968.068 818.884,963.101 814.916,948.564 817.248,934.026 822.422,925.608 826.353,919.489 842.273,906.846 846.306,904.951 862.124,898.579 881.976,895.869 901.827,897.462 921.678,904.213 923.007,904.951 941.53,918.516 942.538,919.489 951.757,934.026 953.933,948.564 950.231,963.101 941.53,974.685 938.943,977.638 921.678,989.297 913.322,992.176 901.827,995.965 881.976,997.673 862.124,994.767 "/>
<polyline clip-path="url(#clip402)" style="stroke:#ff0000; stroke-linecap:round; stroke-linejoin:round; stroke-width:4; stroke-opacity:1; fill:none" points="881.976,993.164 875.76,992.176 862.124,990.171 842.273,981.307 837.264,977.638 825.16,963.101 822.422,953.115 821.072,948.564 822.422,941.129 823.566,934.026 833.192,919.489 842.273,912.277 857.868,904.951 862.124,903.237 881.976,900.074 901.827,901.933 910.511,904.951 921.678,909.297 935.596,919.489 941.53,927.667 945.651,934.026 948.189,948.564 943.871,963.101 941.53,966.218 931.526,977.638 921.678,984.289 901.827,991.338 892.129,992.176 881.976,993.164 "/>
<polyline clip-path="url(#clip402)" style="stroke:#ff0000; stroke-linecap:round; stroke-linejoin:round; stroke-width:4; stroke-opacity:1; fill:none" points="901.827,987.336 881.976,989.237 862.124,986.003 845.04,977.638 842.273,975.612 830.852,963.101 826.435,948.564 829.031,934.026 840.032,919.489 842.273,917.709 862.124,907.584 877.974,904.951 881.976,904.28 888.512,904.951 901.827,906.251 921.678,914.303 928.76,919.489 939.755,934.026 941.53,943.777 942.446,948.564 941.53,951.494 937.935,963.101 924.109,977.638 921.678,979.28 901.827,987.336 "/>
<polyline clip-path="url(#clip402)" style="stroke:#ff0000; stroke-linecap:round; stroke-linejoin:round; stroke-width:4; stroke-opacity:1; fill:none" points="901.827,983.335 881.976,985.473 862.124,981.834 853.554,977.638 842.273,969.377 836.543,963.101 831.575,948.564 834.495,934.026 842.273,924.152 847.548,919.489 862.124,911.75 881.976,908.113 901.827,910.25 921.678,919.309 921.925,919.489 934.294,934.026 937.212,948.564 932.246,963.101 921.678,973.776 915.311,977.638 901.827,983.335 "/>
<polyline clip-path="url(#clip402)" style="stroke:#ff0000; stroke-linecap:round; stroke-linejoin:round; stroke-width:4; stroke-opacity:1; fill:none" points="901.827,979.333 881.976,981.709 862.124,977.666 862.068,977.638 842.273,963.142 842.235,963.101 836.714,948.564 839.959,934.026 842.273,931.089 855.395,919.489 862.124,915.916 881.976,911.875 901.827,914.25 913.263,919.489 921.678,925.652 928.832,934.026 932.075,948.564 926.557,963.101 921.678,968.029 905.838,977.638 901.827,979.333 "/>
<polyline clip-path="url(#clip402)" style="stroke:#ff0000; stroke-linecap:round; stroke-linejoin:round; stroke-width:4; stroke-opacity:1; fill:none" points="901.827,974.992 884.435,977.638 881.976,977.945 880.47,977.638 862.124,972.888 848.76,963.101 842.273,949.666 841.854,948.564 842.273,946.763 845.887,934.026 862.124,920.246 864.547,919.489 881.976,915.637 901.827,918.249 904.533,919.489 921.678,932.045 923.371,934.026 926.938,948.564 921.678,961.327 920.644,963.101 901.827,974.992 "/>
<polyline clip-path="url(#clip402)" style="stroke:#ff0000; stroke-linecap:round; stroke-linejoin:round; stroke-width:4; stroke-opacity:1; fill:none" points="901.827,970.401 881.976,973.672 862.124,968.106 855.29,963.101 847.689,948.564 852.156,934.026 862.124,925.566 881.567,919.489 881.976,919.399 882.643,919.489 901.827,923.013 916.866,934.026 921.678,948.075 921.802,948.564 921.678,948.863 913.379,963.101 901.827,970.401 "/>
<polyline clip-path="url(#clip402)" style="stroke:#ff0000; stroke-linecap:round; stroke-linejoin:round; stroke-width:4; stroke-opacity:1; fill:none" points="901.827,965.81 881.976,969.354 862.124,963.324 861.82,963.101 853.586,948.564 858.425,934.026 862.124,930.887 881.976,924.178 901.827,928.121 909.891,934.026 915.275,948.564 906.114,963.101 901.827,965.81 "/>
<polyline clip-path="url(#clip402)" style="stroke:#ff0000; stroke-linecap:round; stroke-linejoin:round; stroke-width:4; stroke-opacity:1; fill:none" points="901.827,959.019 892.342,963.101 881.976,965.036 875.629,963.101 862.124,953.211 859.483,948.564 862.124,940.972 867.699,934.026 881.976,928.982 901.827,933.228 902.916,934.026 908.715,948.564 901.827,959.019 "/>
<polyline clip-path="url(#clip402)" style="stroke:#ff0000; stroke-linecap:round; stroke-linejoin:round; stroke-width:4; stroke-opacity:1; fill:none" points="901.827,949.06 881.976,957.931 869.185,948.564 881.297,934.026 881.976,933.787 883.084,934.026 901.827,947.752 902.154,948.564 901.827,949.06 "/>
<polyline clip-path="url(#clip402)" style="stroke:#ff0000; stroke-linecap:round; stroke-linejoin:round; stroke-width:4; stroke-opacity:1; fill:none" points="1318.7,661.508 1311.75,657.815 1298.85,651.157 1288.09,643.278 1279,633.833 1273.96,628.741 1264.66,614.203 1260.71,599.666 1259.78,585.128 1261.36,570.591 1266.33,556.054 1277.73,541.516 1279,540.297 1293.08,526.979 1298.85,522.909 1318.7,513.014 1320.57,512.441 1338.56,505.394 1358.41,501.946 1378.26,501.132 1398.11,502.516 1417.96,506.852 1431.12,512.441 1437.81,514.767 1457.6,526.979 1457.66,527.026 1474.34,541.516 1477.51,546.419 1485.15,556.054 1491.07,570.591 1492.96,585.128 1491.85,599.666 1487.14,614.203 1477.51,627.377 1476.73,628.741 1463.22,643.278 1457.66,647.504 1439.48,657.815 1437.81,658.747 1417.96,667.096 1398.11,670.732 1378.26,671.893 1358.41,671.211 1338.56,668.319 1318.7,661.508 "/>
<polyline clip-path="url(#clip402)" style="stroke:#ff0000; stroke-linecap:round; stroke-linejoin:round; stroke-width:4; stroke-opacity:1; fill:none" points="1350.85,657.815 1358.41,659.721 1378.26,661.085 1398.11,658.763 1401.35,657.815 1417.96,654.272 1437.81,644.916 1440.37,643.278 1457.66,629.367 1458.35,628.741 1470.17,614.203 1475.18,599.666 1476.37,585.128 1474.35,570.591 1468.04,556.054 1457.66,544.495 1454.97,541.516 1437.81,528.953 1433.74,526.979 1417.96,519.377 1398.11,514.757 1378.26,513.282 1358.41,514.149 1338.56,517.823 1318.7,526.478 1317.85,526.979 1298.85,539.644 1296.62,541.516 1283.84,556.054 1279,568.215 1277.71,570.591 1274.54,585.128 1276.4,599.666 1279,605.201 1281.97,614.203 1292.39,628.741 1298.85,634.442 1310.92,643.278 1318.7,648.01 1338.56,655.643 1350.85,657.815 "/>
<polyline clip-path="url(#clip402)" style="stroke:#ff0000; stroke-linecap:round; stroke-linejoin:round; stroke-width:4; stroke-opacity:1; fill:none" points="1338.56,647.584 1329.22,643.278 1318.7,638.317 1305.63,628.741 1298.85,621.042 1292.97,614.203 1286.34,599.666 1284.77,585.128 1287.43,570.591 1295.78,556.054 1298.85,552.758 1310.03,541.516 1318.7,535.49 1338.51,526.979 1338.56,526.96 1358.41,521.449 1378.26,520.149 1398.11,522.361 1412.45,526.979 1417.96,528.497 1437.81,538.945 1441.32,541.516 1455.59,556.054 1457.66,560.088 1463.97,570.591 1466.99,585.128 1465.21,599.666 1457.69,614.203 1457.66,614.234 1446.04,628.741 1437.81,635.094 1422.46,643.278 1417.96,645.528 1398.11,651.64 1378.26,653.592 1358.41,652.445 1338.56,647.584 "/>
<polyline clip-path="url(#clip402)" style="stroke:#ff0000; stroke-linecap:round; stroke-linejoin:round; stroke-width:4; stroke-opacity:1; fill:none" points="1358.41,646.007 1348.95,643.278 1338.56,640.672 1318.7,630.069 1316.89,628.741 1302.41,614.203 1298.85,606.593 1295.13,599.666 1293.04,585.128 1296.59,570.591 1298.85,566.964 1305.01,556.054 1318.7,543.866 1322.33,541.516 1338.56,532.966 1358.41,528.141 1378.26,527.002 1398.11,528.94 1417.96,535.007 1429.35,541.516 1437.81,547.711 1446.7,556.054 1454.99,570.591 1457.63,585.128 1456.08,599.666 1449.49,614.203 1437.81,626.086 1434.6,628.741 1417.96,638.768 1403.06,643.278 1398.11,644.934 1378.26,647.536 1358.41,646.007 "/>
<polyline clip-path="url(#clip402)" style="stroke:#ff0000; stroke-linecap:round; stroke-linejoin:round; stroke-width:4; stroke-opacity:1; fill:none" points="1378.26,642.029 1358.41,640.702 1338.56,635.075 1327.15,628.741 1318.7,622.553 1310.05,614.203 1302.37,599.666 1300.56,585.128 1303.64,570.591 1313.3,556.054 1318.7,551.247 1333.71,541.516 1338.56,538.965 1358.41,532.934 1378.26,531.511 1398.11,533.932 1417.96,541.516 1417.96,541.516 1437.81,556.053 1437.81,556.054 1448.17,570.591 1451.47,585.128 1449.53,599.666 1441.3,614.203 1437.81,617.749 1424.52,628.741 1417.96,632.695 1398.11,639.77 1378.26,642.029 "/>
<polyline clip-path="url(#clip402)" style="stroke:#ff0000; stroke-linecap:round; stroke-linejoin:round; stroke-width:4; stroke-opacity:1; fill:none" points="1378.26,637.823 1358.41,636.23 1338.56,629.479 1337.23,628.741 1318.7,615.176 1317.7,614.203 1308.48,599.666 1306.3,585.128 1310,570.591 1318.7,559.007 1321.29,556.054 1338.56,544.395 1346.91,541.516 1358.41,537.727 1378.26,536.019 1398.11,538.925 1404.89,541.516 1417.96,546.951 1430.39,556.054 1437.81,565.624 1441.35,570.591 1445.32,585.128 1442.99,599.666 1437.81,608.083 1433.88,614.203 1417.96,626.846 1413.93,628.741 1398.11,635.113 1378.26,637.823 "/>
<polyline clip-path="url(#clip402)" style="stroke:#ff0000; stroke-linecap:round; stroke-linejoin:round; stroke-width:4; stroke-opacity:1; fill:none" points="1378.26,633.617 1358.41,631.759 1349.72,628.741 1338.56,624.395 1324.64,614.203 1318.7,606.025 1314.58,599.666 1312.04,585.128 1316.36,570.591 1318.7,567.474 1328.71,556.054 1338.56,549.403 1358.41,542.354 1368.11,541.516 1378.26,540.528 1384.47,541.516 1398.11,543.521 1417.96,552.385 1422.97,556.054 1435.07,570.591 1437.81,580.577 1439.16,585.128 1437.81,592.563 1436.67,599.666 1427.04,614.203 1417.96,621.415 1402.37,628.741 1398.11,630.455 1378.26,633.617 "/>
<polyline clip-path="url(#clip402)" style="stroke:#ff0000; stroke-linecap:round; stroke-linejoin:round; stroke-width:4; stroke-opacity:1; fill:none" points="1378.26,629.412 1371.72,628.741 1358.41,627.441 1338.56,619.389 1331.47,614.203 1320.48,599.666 1318.7,589.915 1317.79,585.128 1318.7,582.198 1322.3,570.591 1336.12,556.054 1338.56,554.412 1358.41,546.356 1378.26,544.455 1398.11,547.689 1415.19,556.054 1417.96,558.08 1429.38,570.591 1433.8,585.128 1431.2,599.666 1420.2,614.203 1417.96,615.983 1398.11,626.108 1382.26,628.741 1378.26,629.412 "/>
<polyline clip-path="url(#clip402)" style="stroke:#ff0000; stroke-linecap:round; stroke-linejoin:round; stroke-width:4; stroke-opacity:1; fill:none" points="1398.11,621.942 1378.26,625.579 1358.41,623.442 1338.56,614.383 1338.31,614.203 1325.94,599.666 1323.02,585.128 1327.99,570.591 1338.56,559.916 1344.92,556.054 1358.41,550.357 1378.26,548.219 1398.11,551.858 1406.68,556.054 1417.96,564.315 1423.69,570.591 1428.66,585.128 1425.74,599.666 1417.96,609.54 1412.69,614.203 1398.11,621.942 "/>
<polyline clip-path="url(#clip402)" style="stroke:#ff0000; stroke-linecap:round; stroke-linejoin:round; stroke-width:4; stroke-opacity:1; fill:none" points="1398.11,617.776 1378.26,621.817 1358.41,619.442 1346.97,614.203 1338.56,608.04 1331.4,599.666 1328.16,585.128 1333.68,570.591 1338.56,565.663 1354.4,556.054 1358.41,554.359 1378.26,551.983 1398.11,556.026 1398.17,556.054 1417.96,570.55 1418,570.591 1423.52,585.128 1420.27,599.666 1417.96,602.603 1404.84,614.203 1398.11,617.776 "/>
<polyline clip-path="url(#clip402)" style="stroke:#ff0000; stroke-linecap:round; stroke-linejoin:round; stroke-width:4; stroke-opacity:1; fill:none" points="1398.11,613.446 1395.69,614.203 1378.26,618.055 1358.41,615.443 1355.7,614.203 1338.56,601.647 1336.86,599.666 1333.3,585.128 1338.56,572.365 1339.59,570.591 1358.41,558.7 1375.8,556.054 1378.26,555.747 1379.76,556.054 1398.11,560.804 1411.47,570.591 1417.96,584.026 1418.38,585.128 1417.96,586.929 1414.35,599.666 1398.11,613.446 "/>
<polyline clip-path="url(#clip402)" style="stroke:#ff0000; stroke-linecap:round; stroke-linejoin:round; stroke-width:4; stroke-opacity:1; fill:none" points="1398.11,608.126 1378.67,614.203 1378.26,614.293 1377.59,614.203 1358.41,610.679 1343.37,599.666 1338.56,585.617 1338.43,585.128 1338.56,584.829 1346.85,570.591 1358.41,563.291 1378.26,560.02 1398.11,565.586 1404.94,570.591 1412.54,585.128 1408.08,599.666 1398.11,608.126 "/>
<polyline clip-path="url(#clip402)" style="stroke:#ff0000; stroke-linecap:round; stroke-linejoin:round; stroke-width:4; stroke-opacity:1; fill:none" points="1398.11,602.805 1378.26,609.514 1358.41,605.571 1350.34,599.666 1344.96,585.128 1354.12,570.591 1358.41,567.882 1378.26,564.338 1398.11,570.368 1398.41,570.591 1406.65,585.128 1401.81,599.666 1398.11,602.805 "/>
<polyline clip-path="url(#clip402)" style="stroke:#ff0000; stroke-linecap:round; stroke-linejoin:round; stroke-width:4; stroke-opacity:1; fill:none" points="1398.11,592.72 1392.54,599.666 1378.26,604.71 1358.41,600.464 1357.32,599.666 1351.52,585.128 1358.41,574.673 1367.89,570.591 1378.26,568.656 1384.6,570.591 1398.11,580.481 1400.75,585.128 1398.11,592.72 "/>
<polyline clip-path="url(#clip402)" style="stroke:#ff0000; stroke-linecap:round; stroke-linejoin:round; stroke-width:4; stroke-opacity:1; fill:none" points="1391.05,585.128 1378.94,599.666 1378.26,599.905 1377.15,599.666 1358.41,585.94 1358.08,585.128 1358.41,584.632 1378.26,575.761 1391.05,585.128 "/>
<polyline clip-path="url(#clip402)" style="stroke:#0000ff; stroke-linecap:round; stroke-linejoin:round; stroke-width:4; stroke-opacity:1; fill:none" points="995.535,875.877 1001.08,879.502 1020.93,890.05 1021.78,890.414 1040.79,898.77 1060.64,904.634 1062.11,904.951 1080.49,909.579 1100.34,912.617 1120.19,914.045 1140.04,914.045 1159.89,912.617 1179.75,909.579 1198.12,904.951 1199.6,904.634 1219.45,898.77 1238.45,890.414 1239.3,890.05 1259.15,879.502 1264.7,875.877 1279,865.403 1283.95,861.339 1298.36,846.802 1298.85,846.18 1310.26,832.264 1318.27,817.727 1318.7,816.647 1325.02,803.19 1329.17,788.652 1331.12,774.115 1331.12,759.577 1329.17,745.04 1325.02,730.502 1318.7,717.045 1318.27,715.965 1310.26,701.428 1298.85,687.512 1298.36,686.89 1283.95,672.353 1279,668.289 1264.7,657.815 1259.15,654.19 1239.3,643.642 1238.45,643.278 1219.45,634.922 1199.6,629.058 1198.12,628.741 1179.75,624.113 1159.89,621.075 1140.04,619.647 1120.19,619.647 1100.34,621.075 1080.49,624.113 1062.11,628.741 1060.64,629.058 1040.79,634.922 1021.78,643.278 1020.93,643.642 1001.08,654.19 995.535,657.815 981.232,668.289 976.282,672.353 961.878,686.89 961.381,687.512 949.97,701.428 941.962,715.965 941.53,717.045 935.21,730.502 931.062,745.04 929.112,759.577 929.112,774.115 931.062,788.652 935.21,803.19 941.53,816.647 941.962,817.727 949.97,832.264 961.381,846.18 961.878,846.802 976.282,861.339 981.232,865.403 995.535,875.877 "/>
<polyline clip-path="url(#clip402)" style="stroke:#0000ff; stroke-linecap:round; stroke-linejoin:round; stroke-width:4; stroke-opacity:1; fill:none" points="1029.25,861.339 1040.79,867.614 1060.64,875.48 1062.01,875.877 1080.49,881.475 1100.34,885.126 1120.19,886.844 1140.04,886.844 1159.89,885.126 1179.75,881.475 1198.22,875.877 1199.6,875.48 1219.45,867.614 1230.98,861.339 1239.3,856.371 1252.37,846.802 1259.15,840.712 1267.72,832.264 1278.46,817.727 1279,816.721 1286.65,803.19 1291.63,788.652 1293.98,774.115 1293.98,759.577 1291.63,745.04 1286.65,730.502 1279,716.971 1278.46,715.965 1267.72,701.428 1259.15,692.98 1252.37,686.89 1239.3,677.321 1230.98,672.353 1219.45,666.078 1199.6,658.212 1198.22,657.815 1179.75,652.217 1159.89,648.565 1140.04,646.848 1120.19,646.848 1100.34,648.565 1080.49,652.217 1062.01,657.815 1060.64,658.212 1040.79,666.078 1029.25,672.353 1020.93,677.321 1007.87,686.89 1001.08,692.98 992.515,701.428 981.773,715.965 981.232,716.971 973.588,730.502 968.601,745.04 966.256,759.577 966.256,774.115 968.601,788.652 973.588,803.19 981.232,816.721 981.773,817.727 992.515,832.264 1001.08,840.712 1007.87,846.802 1020.93,856.371 1029.25,861.339 "/>
<polyline clip-path="url(#clip402)" style="stroke:#0000ff; stroke-linecap:round; stroke-linejoin:round; stroke-width:4; stroke-opacity:1; fill:none" points="1046.19,846.802 1060.64,854.14 1080.49,861.007 1081.97,861.339 1100.34,865.583 1120.19,867.753 1140.04,867.753 1159.89,865.583 1178.27,861.339 1179.75,861.007 1199.6,854.14 1214.05,846.802 1219.45,843.703 1235.07,832.264 1239.3,828.308 1249.32,817.727 1258.7,803.19 1259.15,802.107 1264.95,788.652 1267.91,774.115 1267.91,759.577 1264.95,745.04 1259.15,731.585 1258.7,730.502 1249.32,715.965 1239.3,705.384 1235.07,701.428 1219.45,689.989 1214.05,686.89 1199.6,679.552 1179.75,672.685 1178.27,672.353 1159.89,668.109 1140.04,665.939 1120.19,665.939 1100.34,668.109 1081.97,672.353 1080.49,672.685 1060.64,679.552 1046.19,686.89 1040.79,689.989 1025.17,701.428 1020.93,705.384 1010.91,715.965 1001.54,730.502 1001.08,731.585 995.288,745.04 992.326,759.577 992.326,774.115 995.288,788.652 1001.08,802.107 1001.54,803.19 1010.91,817.727 1020.93,828.308 1025.17,832.264 1040.79,843.703 1046.19,846.802 "/>
<polyline clip-path="url(#clip402)" style="stroke:#0000ff; stroke-linecap:round; stroke-linejoin:round; stroke-width:4; stroke-opacity:1; fill:none" points="1060.64,834.783 1056.42,832.264 1040.79,820.813 1037.35,817.727 1025.35,803.19 1020.93,794.583 1018.01,788.652 1014.47,774.115 1014.47,759.577 1018.01,745.04 1020.93,739.109 1025.35,730.502 1037.35,715.965 1040.79,712.879 1056.42,701.428 1060.64,698.909 1080.49,690.124 1092.24,686.89 1100.34,684.75 1120.19,682.159 1140.04,682.159 1159.89,684.75 1167.99,686.89 1179.75,690.124 1199.6,698.909 1203.81,701.428 1219.45,712.879 1222.89,715.965 1234.88,730.502 1239.3,739.109 1242.22,745.04 1245.76,759.577 1245.76,774.115 1242.22,788.652 1239.3,794.583 1234.88,803.19 1222.89,817.727 1219.45,820.813 1203.81,832.264 1199.6,834.783 1179.75,843.568 1167.99,846.802 1159.89,848.942 1140.04,851.533 1120.19,851.533 1100.34,848.942 1092.24,846.802 1080.49,843.568 1060.64,834.783 "/>
<polyline clip-path="url(#clip402)" style="stroke:#0000ff; stroke-linecap:round; stroke-linejoin:round; stroke-width:4; stroke-opacity:1; fill:none" points="1096.96,832.264 1100.34,833.314 1120.19,836.422 1140.04,836.422 1159.89,833.314 1163.27,832.264 1179.75,826.478 1195.36,817.727 1199.6,814.627 1211.55,803.19 1219.45,791.124 1220.88,788.652 1225.12,774.115 1225.12,759.577 1220.88,745.04 1219.45,742.568 1211.55,730.502 1199.6,719.065 1195.36,715.965 1179.75,707.214 1163.27,701.428 1159.89,700.378 1140.04,697.27 1120.19,697.27 1100.34,700.378 1096.96,701.428 1080.49,707.214 1064.87,715.965 1060.64,719.065 1048.69,730.502 1040.79,742.568 1039.35,745.04 1035.11,759.577 1035.11,774.115 1039.35,788.652 1040.79,791.124 1048.69,803.19 1060.64,814.627 1064.87,817.727 1080.49,826.478 1096.96,832.264 "/>
<polyline clip-path="url(#clip402)" style="stroke:#0000ff; stroke-linecap:round; stroke-linejoin:round; stroke-width:4; stroke-opacity:1; fill:none" points="1103.04,817.727 1120.19,821.061 1140.04,821.061 1157.19,817.727 1159.89,817.094 1179.75,807.548 1185.7,803.19 1198.73,788.652 1199.6,786.673 1204.15,774.115 1204.15,759.577 1199.6,747.019 1198.73,745.04 1185.7,730.502 1179.75,726.144 1159.89,716.598 1157.19,715.965 1140.04,712.631 1120.19,712.631 1103.04,715.965 1100.34,716.598 1080.49,726.144 1074.54,730.502 1061.5,745.04 1060.64,747.019 1056.08,759.577 1056.08,774.115 1060.64,786.673 1061.5,788.652 1074.54,803.19 1080.49,807.548 1100.34,817.094 1103.04,817.727 "/>
<polyline clip-path="url(#clip402)" style="stroke:#0000ff; stroke-linecap:round; stroke-linejoin:round; stroke-width:4; stroke-opacity:1; fill:none" points="1120.19,803.623 1118.49,803.19 1100.34,796.681 1089.38,788.652 1080.49,775.364 1079.9,774.115 1079.9,759.577 1080.49,758.328 1089.38,745.04 1100.34,737.011 1118.49,730.502 1120.19,730.069 1140.04,730.069 1141.75,730.502 1159.89,737.011 1170.86,745.04 1179.75,758.328 1180.34,759.577 1180.34,774.115 1179.75,775.364 1170.86,788.652 1159.89,796.681 1141.75,803.19 1140.04,803.623 1120.19,803.623 "/>
<polyline clip-path="url(#clip402)" style="stroke:#000000; stroke-linecap:round; stroke-linejoin:round; stroke-width:4; stroke-opacity:1; fill:none" points="876.45,963.101 881.976,966.448 901.827,974.22 921.678,977.141 941.53,977.375 961.381,975.083 981.232,968.611 990.78,963.101 1001.08,956.2 1009.99,948.564 1019.49,934.026 1020.93,928.924 1025.03,919.489 1025.58,904.951 1020.93,892.123 1020.55,890.414 1012.64,875.877 1001.08,865.483 995.425,861.339 981.232,852.88 961.381,847.085 959.048,846.802 941.53,843.397 921.678,843.8 908.794,846.802 901.827,847.857 881.976,854.817 871.549,861.339 862.124,868.884 854.601,875.877 845.763,890.414 842.633,904.951 842.953,919.489 846.941,934.026 857.554,948.564 862.124,952.61 876.45,963.101 "/>
<polyline clip-path="url(#clip402)" style="stroke:#000000; stroke-linecap:round; stroke-linejoin:round; stroke-width:4; stroke-opacity:1; fill:none" points="881.976,950.927 878.748,948.564 865.114,934.026 862.124,926.348 858.802,919.489 858.162,904.951 862.124,895.147 863.601,890.414 874.954,875.877 881.976,870.48 900.808,861.339 901.827,860.865 921.678,855.635 941.53,855.215 961.381,859.32 966.088,861.339 981.232,867.846 992.198,875.877 1001.08,886.967 1003.84,890.414 1009.45,904.951 1008.87,919.489 1001.73,934.026 1001.08,934.773 988.602,948.564 981.232,953.706 961.381,962.02 954.918,963.101 941.53,966.003 921.678,965.534 912.311,963.101 901.827,960.912 881.976,950.927 "/>
<polyline clip-path="url(#clip402)" style="stroke:#000000; stroke-linecap:round; stroke-linejoin:round; stroke-width:4; stroke-opacity:1; fill:none" points="901.827,951.58 896.287,948.564 881.976,938.084 877.857,934.026 870.171,919.489 869.554,904.951 875.587,890.414 881.976,883.589 891.299,875.877 901.827,869.861 921.678,864.526 941.53,864.098 961.381,868.285 975.787,875.877 981.232,879.864 991.598,890.414 997.316,904.951 996.731,919.489 989.447,934.026 981.232,941.736 970.7,948.564 961.381,953.243 941.53,957.66 921.678,957.209 901.827,951.58 "/>
<polyline clip-path="url(#clip402)" style="stroke:#000000; stroke-linecap:round; stroke-linejoin:round; stroke-width:4; stroke-opacity:1; fill:none" points="921.678,949.753 917.89,948.564 901.827,943.03 889.532,934.026 881.976,922.263 880.351,919.489 879.529,904.951 881.976,899.944 886.88,890.414 901.827,878.544 908.681,875.877 921.678,871.592 941.53,871.021 959.181,875.877 961.381,876.562 980.296,890.414 981.232,892.025 987.862,904.951 987.083,919.489 981.232,929.007 977.59,934.026 961.381,944.972 948.367,948.564 941.53,950.356 921.678,949.753 "/>
<polyline clip-path="url(#clip402)" style="stroke:#000000; stroke-linecap:round; stroke-linejoin:round; stroke-width:4; stroke-opacity:1; fill:none" points="941.53,943.733 921.678,943.073 901.827,934.854 900.697,934.026 889.473,919.489 888.572,904.951 897.382,890.414 901.827,886.884 921.678,878.499 941.53,877.826 961.381,884.408 969.583,890.414 978.57,904.951 977.651,919.489 966.201,934.026 961.381,937.281 941.53,943.733 "/>
<polyline clip-path="url(#clip402)" style="stroke:#000000; stroke-linecap:round; stroke-linejoin:round; stroke-width:4; stroke-opacity:1; fill:none" points="941.53,937.333 921.678,936.541 915.726,934.026 901.827,923.848 898.393,919.489 897.312,904.951 901.827,898.083 910.216,890.414 921.678,885.163 941.53,884.355 957.378,890.414 961.381,893.345 969.654,904.951 968.551,919.489 961.381,927.883 950.909,934.026 941.53,937.333 "/>
<polyline clip-path="url(#clip402)" style="stroke:#000000; stroke-linecap:round; stroke-linejoin:round; stroke-width:4; stroke-opacity:1; fill:none" points="941.53,929.741 921.678,928.461 909.426,919.489 907.679,904.951 921.678,892.666 941.53,891.164 960.357,904.951 958.306,919.489 941.53,929.741 "/>
<polyline clip-path="url(#clip402)" style="stroke:#000000; stroke-linecap:round; stroke-linejoin:round; stroke-width:4; stroke-opacity:1; fill:none" points="941.53,920.876 922.673,919.489 921.678,918.76 919.784,904.951 921.678,903.289 941.53,901.572 946.144,904.951 943.8,919.489 941.53,920.876 "/>
<polyline clip-path="url(#clip402)" style="stroke:#000000; stroke-linecap:round; stroke-linejoin:round; stroke-width:4; stroke-opacity:1; fill:none" points="1279,680.812 1264.81,672.353 1259.15,668.209 1247.6,657.815 1239.69,643.278 1239.3,641.569 1234.65,628.741 1235.2,614.203 1239.3,604.768 1240.74,599.666 1250.24,585.128 1259.15,577.492 1269.45,570.591 1279,565.081 1298.85,558.609 1318.7,556.317 1338.56,556.551 1358.41,559.472 1378.26,567.244 1383.78,570.591 1398.11,581.082 1402.68,585.128 1413.29,599.666 1417.28,614.203 1417.6,628.741 1414.47,643.278 1405.63,657.815 1398.11,664.808 1388.69,672.353 1378.26,678.875 1358.41,685.835 1351.44,686.89 1338.56,689.891 1318.7,690.295 1301.19,686.89 1298.85,686.607 1279,680.812 "/>
<polyline clip-path="url(#clip402)" style="stroke:#000000; stroke-linecap:round; stroke-linejoin:round; stroke-width:4; stroke-opacity:1; fill:none" points="1298.85,674.372 1294.15,672.353 1279,665.846 1268.04,657.815 1259.15,646.725 1256.39,643.278 1250.79,628.741 1251.36,614.203 1258.5,599.666 1259.15,598.919 1271.63,585.128 1279,579.986 1298.85,571.672 1305.32,570.591 1318.7,567.689 1338.56,568.158 1347.92,570.591 1358.41,572.78 1378.26,582.765 1381.49,585.128 1395.12,599.666 1398.11,607.344 1401.43,614.203 1402.07,628.741 1398.11,638.545 1396.63,643.278 1385.28,657.815 1378.26,663.212 1359.43,672.353 1358.41,672.827 1338.56,678.057 1318.7,678.477 1298.85,674.372 "/>
<polyline clip-path="url(#clip402)" style="stroke:#000000; stroke-linecap:round; stroke-linejoin:round; stroke-width:4; stroke-opacity:1; fill:none" points="1318.7,669.594 1298.85,665.407 1284.45,657.815 1279,653.828 1268.64,643.278 1262.92,628.741 1263.5,614.203 1270.79,599.666 1279,591.956 1289.53,585.128 1298.85,580.449 1318.7,576.032 1338.56,576.483 1358.41,582.112 1363.95,585.128 1378.26,595.608 1382.38,599.666 1390.06,614.203 1390.68,628.741 1384.65,643.278 1378.26,650.103 1368.93,657.815 1358.41,663.831 1338.56,669.166 1318.7,669.594 "/>
<polyline clip-path="url(#clip402)" style="stroke:#000000; stroke-linecap:round; stroke-linejoin:round; stroke-width:4; stroke-opacity:1; fill:none" points="1318.7,662.671 1301.05,657.815 1298.85,657.13 1279.94,643.278 1279,641.667 1272.37,628.741 1273.15,614.203 1279,604.685 1282.64,599.666 1298.85,588.72 1311.87,585.128 1318.7,583.336 1338.56,583.939 1342.34,585.128 1358.41,590.662 1370.7,599.666 1378.26,611.429 1379.88,614.203 1380.71,628.741 1378.26,633.748 1373.35,643.278 1358.41,655.148 1351.55,657.815 1338.56,662.1 1318.7,662.671 "/>
<polyline clip-path="url(#clip402)" style="stroke:#000000; stroke-linecap:round; stroke-linejoin:round; stroke-width:4; stroke-opacity:1; fill:none" points="1338.56,655.193 1318.7,655.866 1298.85,649.284 1290.65,643.278 1281.66,628.741 1282.58,614.203 1294.03,599.666 1298.85,596.411 1318.7,589.959 1338.56,590.618 1358.41,598.838 1359.54,599.666 1370.76,614.203 1371.66,628.741 1362.85,643.278 1358.41,646.808 1338.56,655.193 "/>
<polyline clip-path="url(#clip402)" style="stroke:#000000; stroke-linecap:round; stroke-linejoin:round; stroke-width:4; stroke-opacity:1; fill:none" points="1338.56,648.529 1318.7,649.337 1302.86,643.278 1298.85,640.347 1290.58,628.741 1291.68,614.203 1298.85,605.809 1309.33,599.666 1318.7,596.359 1338.56,597.151 1344.51,599.666 1358.41,609.844 1361.84,614.203 1362.92,628.741 1358.41,635.609 1350.02,643.278 1338.56,648.529 "/>
<polyline clip-path="url(#clip402)" style="stroke:#000000; stroke-linecap:round; stroke-linejoin:round; stroke-width:4; stroke-opacity:1; fill:none" points="1338.56,641.026 1318.7,642.528 1299.88,628.741 1301.93,614.203 1318.7,603.951 1338.56,605.23 1350.81,614.203 1352.55,628.741 1338.56,641.026 "/>
<polyline clip-path="url(#clip402)" style="stroke:#000000; stroke-linecap:round; stroke-linejoin:round; stroke-width:4; stroke-opacity:1; fill:none" points="1338.56,630.403 1318.7,632.12 1314.09,628.741 1316.43,614.203 1318.7,612.816 1337.56,614.203 1338.56,614.932 1340.45,628.741 1338.56,630.403 "/>
<circle clip-path="url(#clip402)" cx="1326.64" cy="622.926" r="14.4" fill="#000000" fill-rule="evenodd" fill-opacity="1" stroke="none"/>
<circle clip-path="url(#clip402)" cx="933.589" cy="910.766" r="14.4" fill="#000000" fill-rule="evenodd" fill-opacity="1" stroke="none"/>
<circle clip-path="url(#clip402)" cx="1375.78" cy="586.946" r="14.4" fill="#ff0000" fill-rule="evenodd" fill-opacity="1" stroke="#000000" stroke-opacity="1" stroke-width="3.2"/>
<circle clip-path="url(#clip402)" cx="884.457" cy="946.746" r="14.4" fill="#ff0000" fill-rule="evenodd" fill-opacity="1" stroke="#000000" stroke-opacity="1" stroke-width="3.2"/>
<polyline clip-path="url(#clip402)" style="stroke:#ff0000; stroke-linecap:round; stroke-linejoin:round; stroke-width:4; stroke-opacity:1; fill:none" points="1130.12,766.846 1130.12,766.846 "/>
<polyline clip-path="url(#clip402)" style="stroke:#0000ff; stroke-linecap:round; stroke-linejoin:round; stroke-width:4; stroke-opacity:1; fill:none" points="1130.12,766.846 1130.12,766.846 "/>
<polyline clip-path="url(#clip402)" style="stroke:#000000; stroke-linecap:round; stroke-linejoin:round; stroke-width:4; stroke-opacity:1; fill:none" points="1130.12,766.846 1130.12,766.846 "/>
<defs>
  <clipPath id="clip403">
    <rect x="2160" y="47" width="73" height="1440"/>
  </clipPath>
</defs>
<polyline clip-path="url(#clip403)" style="stroke:#000000; stroke-linecap:round; stroke-linejoin:round; stroke-width:4; stroke-opacity:1; fill:none" points="2160.76,1396.5 2232.76,1396.5 "/>
<polyline clip-path="url(#clip403)" style="stroke:#000000; stroke-linecap:round; stroke-linejoin:round; stroke-width:4; stroke-opacity:1; fill:none" points="2160.76,1306.55 2232.76,1306.55 "/>
<polyline clip-path="url(#clip403)" style="stroke:#000000; stroke-linecap:round; stroke-linejoin:round; stroke-width:4; stroke-opacity:1; fill:none" points="2160.76,1216.6 2232.76,1216.6 "/>
<polyline clip-path="url(#clip403)" style="stroke:#000000; stroke-linecap:round; stroke-linejoin:round; stroke-width:4; stroke-opacity:1; fill:none" points="2160.76,1126.65 2232.76,1126.65 "/>
<polyline clip-path="url(#clip403)" style="stroke:#000000; stroke-linecap:round; stroke-linejoin:round; stroke-width:4; stroke-opacity:1; fill:none" points="2160.76,1036.7 2232.76,1036.7 "/>
<polyline clip-path="url(#clip403)" style="stroke:#000000; stroke-linecap:round; stroke-linejoin:round; stroke-width:4; stroke-opacity:1; fill:none" points="2160.76,946.746 2232.76,946.746 "/>
<polyline clip-path="url(#clip403)" style="stroke:#000000; stroke-linecap:round; stroke-linejoin:round; stroke-width:4; stroke-opacity:1; fill:none" points="2160.76,856.796 2232.76,856.796 "/>
<polyline clip-path="url(#clip403)" style="stroke:#000000; stroke-linecap:round; stroke-linejoin:round; stroke-width:4; stroke-opacity:1; fill:none" points="2160.76,766.846 2232.76,766.846 "/>
<polyline clip-path="url(#clip403)" style="stroke:#000000; stroke-linecap:round; stroke-linejoin:round; stroke-width:4; stroke-opacity:1; fill:none" points="2160.76,676.896 2232.76,676.896 "/>
<polyline clip-path="url(#clip403)" style="stroke:#000000; stroke-linecap:round; stroke-linejoin:round; stroke-width:4; stroke-opacity:1; fill:none" points="2160.76,586.946 2232.76,586.946 "/>
<polyline clip-path="url(#clip403)" style="stroke:#000000; stroke-linecap:round; stroke-linejoin:round; stroke-width:4; stroke-opacity:1; fill:none" points="2160.76,496.995 2232.76,496.995 "/>
<polyline clip-path="url(#clip403)" style="stroke:#000000; stroke-linecap:round; stroke-linejoin:round; stroke-width:4; stroke-opacity:1; fill:none" points="2160.76,407.045 2232.76,407.045 "/>
<polyline clip-path="url(#clip403)" style="stroke:#000000; stroke-linecap:round; stroke-linejoin:round; stroke-width:4; stroke-opacity:1; fill:none" points="2160.76,317.095 2232.76,317.095 "/>
<polyline clip-path="url(#clip403)" style="stroke:#000000; stroke-linecap:round; stroke-linejoin:round; stroke-width:4; stroke-opacity:1; fill:none" points="2160.76,227.145 2232.76,227.145 "/>
<polyline clip-path="url(#clip403)" style="stroke:#000000; stroke-linecap:round; stroke-linejoin:round; stroke-width:4; stroke-opacity:1; fill:none" points="2160.76,137.194 2232.76,137.194 "/>
<path clip-path="url(#clip400)" d="M2269.43 1314.85 L2277.07 1314.85 L2277.07 1288.48 L2268.76 1290.15 L2268.76 1285.89 L2277.02 1284.22 L2281.7 1284.22 L2281.7 1314.85 L2289.33 1314.85 L2289.33 1318.78 L2269.43 1318.78 L2269.43 1314.85 Z" fill="#000000" fill-rule="nonzero" fill-opacity="1" /><polyline clip-path="url(#clip400)" style="stroke:#000000; stroke-linecap:round; stroke-linejoin:round; stroke-width:4; stroke-opacity:1; fill:none" points="2232.76,1305.13 2256.76,1305.13 "/>
<path clip-path="url(#clip400)" d="M2274.38 1133.53 L2290.7 1133.53 L2290.7 1137.46 L2268.76 1137.46 L2268.76 1133.53 Q2271.42 1130.77 2276 1126.14 Q2280.61 1121.49 2281.79 1120.15 Q2284.03 1117.63 2284.91 1115.89 Q2285.82 1114.13 2285.82 1112.44 Q2285.82 1109.69 2283.87 1107.95 Q2281.95 1106.21 2278.85 1106.21 Q2276.65 1106.21 2274.2 1106.98 Q2271.77 1107.74 2268.99 1109.29 L2268.99 1104.57 Q2271.81 1103.44 2274.27 1102.86 Q2276.72 1102.28 2278.76 1102.28 Q2284.13 1102.28 2287.32 1104.96 Q2290.52 1107.65 2290.52 1112.14 Q2290.52 1114.27 2289.7 1116.19 Q2288.92 1118.09 2286.81 1120.68 Q2286.23 1121.35 2283.13 1124.57 Q2280.03 1127.76 2274.38 1133.53 Z" fill="#000000" fill-rule="nonzero" fill-opacity="1" /><polyline clip-path="url(#clip400)" style="stroke:#000000; stroke-linecap:round; stroke-linejoin:round; stroke-width:4; stroke-opacity:1; fill:none" points="2232.76,1123.81 2256.76,1123.81 "/>
<path clip-path="url(#clip400)" d="M2284.38 937.512 Q2287.74 938.23 2289.61 940.498 Q2291.51 942.767 2291.51 946.1 Q2291.51 951.216 2287.99 954.017 Q2284.47 956.818 2277.99 956.818 Q2275.82 956.818 2273.5 956.378 Q2271.21 955.961 2268.76 955.105 L2268.76 950.591 Q2270.7 951.725 2273.02 952.304 Q2275.33 952.882 2277.85 952.882 Q2282.25 952.882 2284.54 951.146 Q2286.86 949.41 2286.86 946.1 Q2286.86 943.045 2284.7 941.332 Q2282.58 939.595 2278.76 939.595 L2274.73 939.595 L2274.73 935.753 L2278.94 935.753 Q2282.39 935.753 2284.22 934.387 Q2286.05 932.998 2286.05 930.406 Q2286.05 927.744 2284.15 926.332 Q2282.27 924.896 2278.76 924.896 Q2276.83 924.896 2274.64 925.313 Q2272.44 925.73 2269.8 926.609 L2269.8 922.443 Q2272.46 921.702 2274.77 921.332 Q2277.11 920.961 2279.17 920.961 Q2284.5 920.961 2287.6 923.392 Q2290.7 925.799 2290.7 929.92 Q2290.7 932.79 2289.06 934.781 Q2287.41 936.748 2284.38 937.512 Z" fill="#000000" fill-rule="nonzero" fill-opacity="1" /><polyline clip-path="url(#clip400)" style="stroke:#000000; stroke-linecap:round; stroke-linejoin:round; stroke-width:4; stroke-opacity:1; fill:none" points="2232.76,942.495 2256.76,942.495 "/>
<path clip-path="url(#clip400)" d="M2284.36 744.343 L2272.55 762.792 L2284.36 762.792 L2284.36 744.343 M2283.13 740.269 L2289.01 740.269 L2289.01 762.792 L2293.94 762.792 L2293.94 766.681 L2289.01 766.681 L2289.01 774.829 L2284.36 774.829 L2284.36 766.681 L2268.76 766.681 L2268.76 762.167 L2283.13 740.269 Z" fill="#000000" fill-rule="nonzero" fill-opacity="1" /><polyline clip-path="url(#clip400)" style="stroke:#000000; stroke-linecap:round; stroke-linejoin:round; stroke-width:4; stroke-opacity:1; fill:none" points="2232.76,761.178 2256.76,761.178 "/>
<path clip-path="url(#clip400)" d="M2270.21 558.951 L2288.57 558.951 L2288.57 562.886 L2274.5 562.886 L2274.5 571.358 Q2275.52 571.011 2276.53 570.849 Q2277.55 570.664 2278.57 570.664 Q2284.36 570.664 2287.74 573.835 Q2291.12 577.007 2291.12 582.423 Q2291.12 588.002 2287.64 591.104 Q2284.17 594.182 2277.85 594.182 Q2275.68 594.182 2273.41 593.812 Q2271.16 593.442 2268.76 592.701 L2268.76 588.002 Q2270.84 589.136 2273.06 589.692 Q2275.28 590.247 2277.76 590.247 Q2281.77 590.247 2284.1 588.141 Q2286.44 586.034 2286.44 582.423 Q2286.44 578.812 2284.1 576.706 Q2281.77 574.599 2277.76 574.599 Q2275.89 574.599 2274.01 575.016 Q2272.16 575.433 2270.21 576.312 L2270.21 558.951 Z" fill="#000000" fill-rule="nonzero" fill-opacity="1" /><polyline clip-path="url(#clip400)" style="stroke:#000000; stroke-linecap:round; stroke-linejoin:round; stroke-width:4; stroke-opacity:1; fill:none" points="2232.76,579.86 2256.76,579.86 "/>
<path clip-path="url(#clip400)" d="M2281.09 393.05 Q2277.95 393.05 2276.09 395.203 Q2274.27 397.356 2274.27 401.106 Q2274.27 404.832 2276.09 407.008 Q2277.95 409.161 2281.09 409.161 Q2284.24 409.161 2286.07 407.008 Q2287.92 404.832 2287.92 401.106 Q2287.92 397.356 2286.07 395.203 Q2284.24 393.05 2281.09 393.05 M2290.38 378.397 L2290.38 382.657 Q2288.62 381.823 2286.81 381.384 Q2285.03 380.944 2283.27 380.944 Q2278.64 380.944 2276.19 384.069 Q2273.76 387.194 2273.41 393.513 Q2274.77 391.499 2276.83 390.434 Q2278.89 389.346 2281.37 389.346 Q2286.58 389.346 2289.59 392.518 Q2292.62 395.666 2292.62 401.106 Q2292.62 406.43 2289.47 409.647 Q2286.33 412.865 2281.09 412.865 Q2275.1 412.865 2271.93 408.282 Q2268.76 403.675 2268.76 394.948 Q2268.76 386.754 2272.64 381.893 Q2276.53 377.009 2283.08 377.009 Q2284.84 377.009 2286.63 377.356 Q2288.43 377.703 2290.38 378.397 Z" fill="#000000" fill-rule="nonzero" fill-opacity="1" /><polyline clip-path="url(#clip400)" style="stroke:#000000; stroke-linecap:round; stroke-linejoin:round; stroke-width:4; stroke-opacity:1; fill:none" points="2232.76,398.542 2256.76,398.542 "/>
<path clip-path="url(#clip400)" d="M2268.76 196.316 L2290.98 196.316 L2290.98 198.307 L2278.43 230.876 L2273.55 230.876 L2285.35 200.251 L2268.76 200.251 L2268.76 196.316 Z" fill="#000000" fill-rule="nonzero" fill-opacity="1" /><polyline clip-path="url(#clip400)" style="stroke:#000000; stroke-linecap:round; stroke-linejoin:round; stroke-width:4; stroke-opacity:1; fill:none" points="2232.76,217.225 2256.76,217.225 "/>
<polyline clip-path="url(#clip400)" style="stroke:#000000; stroke-linecap:round; stroke-linejoin:round; stroke-width:4; stroke-opacity:1; fill:none" points="2232.76,1486.45 2232.76,47.2441 "/>
<path clip-path="url(#clip400)" d="M212.987 406.258 L727.939 406.258 L727.939 95.2176 L212.987 95.2176  Z" fill="#ffffff" fill-rule="evenodd" fill-opacity="1"/>
<polyline clip-path="url(#clip400)" style="stroke:#000000; stroke-linecap:round; stroke-linejoin:round; stroke-width:4; stroke-opacity:1; fill:none" points="212.987,406.258 727.939,406.258 727.939,95.2176 212.987,95.2176 212.987,406.258 "/>
<circle clip-path="url(#clip400)" cx="300.333" cy="147.058" r="20.48" fill="#000000" fill-rule="evenodd" fill-opacity="1" stroke="none"/>
<path clip-path="url(#clip400)" d="M387.679 129.778 L394.646 129.778 L403.466 153.296 L412.331 129.778 L419.299 129.778 L419.299 164.338 L414.739 164.338 L414.739 133.99 L405.827 157.694 L401.128 157.694 L392.216 133.99 L392.216 164.338 L387.679 164.338 L387.679 129.778 Z" fill="#000000" fill-rule="nonzero" fill-opacity="1" /><path clip-path="url(#clip400)" d="M440.132 134.384 L433.789 151.583 L446.498 151.583 L440.132 134.384 M437.493 129.778 L442.794 129.778 L455.965 164.338 L451.104 164.338 L447.956 155.472 L432.377 155.472 L429.229 164.338 L424.299 164.338 L437.493 129.778 Z" fill="#000000" fill-rule="nonzero" fill-opacity="1" /><path clip-path="url(#clip400)" d="M465.687 133.62 L465.687 146.606 L471.567 146.606 Q474.831 146.606 476.613 144.916 Q478.396 143.227 478.396 140.102 Q478.396 137 476.613 135.31 Q474.831 133.62 471.567 133.62 L465.687 133.62 M461.011 129.778 L471.567 129.778 Q477.377 129.778 480.34 132.416 Q483.326 135.032 483.326 140.102 Q483.326 145.217 480.34 147.833 Q477.377 150.449 471.567 150.449 L465.687 150.449 L465.687 164.338 L461.011 164.338 L461.011 129.778 Z" fill="#000000" fill-rule="nonzero" fill-opacity="1" /><path clip-path="url(#clip400)" d="M526.659 150.31 L526.659 152.393 L507.076 152.393 Q507.354 156.791 509.715 159.106 Q512.099 161.398 516.335 161.398 Q518.789 161.398 521.081 160.796 Q523.395 160.194 525.664 158.99 L525.664 163.018 Q523.372 163.99 520.965 164.5 Q518.557 165.009 516.081 165.009 Q509.877 165.009 506.243 161.398 Q502.632 157.787 502.632 151.629 Q502.632 145.264 506.058 141.537 Q509.507 137.787 515.34 137.787 Q520.571 137.787 523.604 141.166 Q526.659 144.523 526.659 150.31 M522.4 149.06 Q522.354 145.565 520.432 143.481 Q518.534 141.398 515.386 141.398 Q511.821 141.398 509.669 143.412 Q507.539 145.426 507.215 149.083 L522.4 149.06 Z" fill="#000000" fill-rule="nonzero" fill-opacity="1" /><path clip-path="url(#clip400)" d="M550.178 139.176 L550.178 143.203 Q548.372 142.277 546.428 141.815 Q544.483 141.352 542.4 141.352 Q539.229 141.352 537.631 142.324 Q536.057 143.296 536.057 145.24 Q536.057 146.722 537.192 147.578 Q538.326 148.412 541.752 149.176 L543.21 149.5 Q547.747 150.472 549.645 152.254 Q551.567 154.014 551.567 157.185 Q551.567 160.796 548.696 162.902 Q545.849 165.009 540.849 165.009 Q538.766 165.009 536.497 164.592 Q534.252 164.199 531.752 163.388 L531.752 158.99 Q534.113 160.217 536.405 160.842 Q538.696 161.444 540.942 161.444 Q543.951 161.444 545.571 160.426 Q547.192 159.384 547.192 157.509 Q547.192 155.773 546.011 154.847 Q544.854 153.921 540.895 153.064 L539.414 152.717 Q535.456 151.884 533.696 150.171 Q531.937 148.435 531.937 145.426 Q531.937 141.768 534.53 139.778 Q537.122 137.787 541.891 137.787 Q544.252 137.787 546.335 138.134 Q548.418 138.481 550.178 139.176 Z" fill="#000000" fill-rule="nonzero" fill-opacity="1" /><path clip-path="url(#clip400)" d="M562.562 131.051 L562.562 138.412 L571.335 138.412 L571.335 141.722 L562.562 141.722 L562.562 155.796 Q562.562 158.967 563.418 159.87 Q564.298 160.773 566.96 160.773 L571.335 160.773 L571.335 164.338 L566.96 164.338 Q562.029 164.338 560.154 162.509 Q558.279 160.657 558.279 155.796 L558.279 141.722 L555.155 141.722 L555.155 138.412 L558.279 138.412 L558.279 131.051 L562.562 131.051 Z" fill="#000000" fill-rule="nonzero" fill-opacity="1" /><path clip-path="url(#clip400)" d="M576.937 138.412 L581.196 138.412 L581.196 164.338 L576.937 164.338 L576.937 138.412 M576.937 128.319 L581.196 128.319 L581.196 133.713 L576.937 133.713 L576.937 128.319 Z" fill="#000000" fill-rule="nonzero" fill-opacity="1" /><path clip-path="url(#clip400)" d="M610.293 143.389 Q611.89 140.518 614.113 139.153 Q616.335 137.787 619.344 137.787 Q623.395 137.787 625.594 140.634 Q627.793 143.458 627.793 148.689 L627.793 164.338 L623.511 164.338 L623.511 148.828 Q623.511 145.102 622.191 143.296 Q620.872 141.49 618.163 141.49 Q614.853 141.49 612.932 143.69 Q611.011 145.889 611.011 149.685 L611.011 164.338 L606.728 164.338 L606.728 148.828 Q606.728 145.078 605.409 143.296 Q604.089 141.49 601.335 141.49 Q598.071 141.49 596.15 143.713 Q594.228 145.912 594.228 149.685 L594.228 164.338 L589.946 164.338 L589.946 138.412 L594.228 138.412 L594.228 142.44 Q595.687 140.055 597.724 138.921 Q599.761 137.787 602.562 137.787 Q605.386 137.787 607.353 139.222 Q609.344 140.657 610.293 143.389 Z" fill="#000000" fill-rule="nonzero" fill-opacity="1" /><path clip-path="url(#clip400)" d="M648.071 151.305 Q642.909 151.305 640.918 152.486 Q638.927 153.666 638.927 156.514 Q638.927 158.782 640.409 160.125 Q641.913 161.444 644.483 161.444 Q648.024 161.444 650.154 158.944 Q652.307 156.421 652.307 152.254 L652.307 151.305 L648.071 151.305 M656.566 149.546 L656.566 164.338 L652.307 164.338 L652.307 160.402 Q650.848 162.763 648.673 163.898 Q646.497 165.009 643.348 165.009 Q639.367 165.009 637.006 162.787 Q634.668 160.541 634.668 156.791 Q634.668 152.416 637.585 150.194 Q640.524 147.972 646.335 147.972 L652.307 147.972 L652.307 147.555 Q652.307 144.615 650.362 143.018 Q648.441 141.398 644.946 141.398 Q642.723 141.398 640.617 141.93 Q638.511 142.463 636.566 143.527 L636.566 139.592 Q638.904 138.69 641.103 138.25 Q643.302 137.787 645.386 137.787 Q651.01 137.787 653.788 140.703 Q656.566 143.62 656.566 149.546 Z" fill="#000000" fill-rule="nonzero" fill-opacity="1" /><path clip-path="url(#clip400)" d="M669.552 131.051 L669.552 138.412 L678.325 138.412 L678.325 141.722 L669.552 141.722 L669.552 155.796 Q669.552 158.967 670.409 159.87 Q671.288 160.773 673.95 160.773 L678.325 160.773 L678.325 164.338 L673.95 164.338 Q669.02 164.338 667.145 162.509 Q665.27 160.657 665.27 155.796 L665.27 141.722 L662.145 141.722 L662.145 138.412 L665.27 138.412 L665.27 131.051 L669.552 131.051 Z" fill="#000000" fill-rule="nonzero" fill-opacity="1" /><path clip-path="url(#clip400)" d="M706.103 150.31 L706.103 152.393 L686.52 152.393 Q686.797 156.791 689.158 159.106 Q691.543 161.398 695.779 161.398 Q698.232 161.398 700.524 160.796 Q702.839 160.194 705.107 158.99 L705.107 163.018 Q702.816 163.99 700.408 164.5 Q698.001 165.009 695.524 165.009 Q689.32 165.009 685.686 161.398 Q682.075 157.787 682.075 151.629 Q682.075 145.264 685.501 141.537 Q688.95 137.787 694.783 137.787 Q700.015 137.787 703.047 141.166 Q706.103 144.523 706.103 150.31 M701.844 149.06 Q701.797 145.565 699.876 143.481 Q697.978 141.398 694.83 141.398 Q691.265 141.398 689.112 143.412 Q686.983 145.426 686.658 149.083 L701.844 149.06 Z" fill="#000000" fill-rule="nonzero" fill-opacity="1" /><circle clip-path="url(#clip400)" cx="300.333" cy="198.898" r="20.48" fill="#ff0000" fill-rule="evenodd" fill-opacity="1" stroke="#000000" stroke-opacity="1" stroke-width="4.55111"/>
<path clip-path="url(#clip400)" d="M387.679 181.618 L394.646 181.618 L403.466 205.136 L412.331 181.618 L419.299 181.618 L419.299 216.178 L414.739 216.178 L414.739 185.83 L405.827 209.534 L401.128 209.534 L392.216 185.83 L392.216 216.178 L387.679 216.178 L387.679 181.618 Z" fill="#000000" fill-rule="nonzero" fill-opacity="1" /><path clip-path="url(#clip400)" d="M428.581 181.618 L433.257 181.618 L433.257 212.242 L450.086 212.242 L450.086 216.178 L428.581 216.178 L428.581 181.618 Z" fill="#000000" fill-rule="nonzero" fill-opacity="1" /><path clip-path="url(#clip400)" d="M492.053 202.15 L492.053 204.233 L472.47 204.233 Q472.748 208.631 475.109 210.946 Q477.493 213.238 481.729 213.238 Q484.183 213.238 486.474 212.636 Q488.789 212.034 491.058 210.83 L491.058 214.858 Q488.766 215.83 486.359 216.34 Q483.951 216.849 481.474 216.849 Q475.271 216.849 471.636 213.238 Q468.025 209.627 468.025 203.469 Q468.025 197.104 471.451 193.377 Q474.9 189.627 480.734 189.627 Q485.965 189.627 488.997 193.006 Q492.053 196.363 492.053 202.15 M487.794 200.9 Q487.747 197.405 485.826 195.321 Q483.928 193.238 480.78 193.238 Q477.215 193.238 475.062 195.252 Q472.933 197.266 472.609 200.923 L487.794 200.9 Z" fill="#000000" fill-rule="nonzero" fill-opacity="1" /><path clip-path="url(#clip400)" d="M515.571 191.016 L515.571 195.043 Q513.766 194.117 511.821 193.655 Q509.877 193.192 507.794 193.192 Q504.622 193.192 503.025 194.164 Q501.451 195.136 501.451 197.08 Q501.451 198.562 502.585 199.418 Q503.72 200.252 507.146 201.016 L508.604 201.34 Q513.141 202.312 515.039 204.094 Q516.96 205.854 516.96 209.025 Q516.96 212.636 514.09 214.742 Q511.243 216.849 506.243 216.849 Q504.159 216.849 501.891 216.432 Q499.646 216.039 497.146 215.228 L497.146 210.83 Q499.507 212.057 501.798 212.682 Q504.09 213.284 506.335 213.284 Q509.345 213.284 510.965 212.266 Q512.585 211.224 512.585 209.349 Q512.585 207.613 511.405 206.687 Q510.247 205.761 506.289 204.904 L504.808 204.557 Q500.849 203.724 499.09 202.011 Q497.331 200.275 497.331 197.266 Q497.331 193.608 499.923 191.618 Q502.516 189.627 507.284 189.627 Q509.645 189.627 511.729 189.974 Q513.812 190.321 515.571 191.016 Z" fill="#000000" fill-rule="nonzero" fill-opacity="1" /><path clip-path="url(#clip400)" d="M527.956 182.891 L527.956 190.252 L536.729 190.252 L536.729 193.562 L527.956 193.562 L527.956 207.636 Q527.956 210.807 528.812 211.71 Q529.692 212.613 532.354 212.613 L536.729 212.613 L536.729 216.178 L532.354 216.178 Q527.423 216.178 525.548 214.349 Q523.673 212.497 523.673 207.636 L523.673 193.562 L520.548 193.562 L520.548 190.252 L523.673 190.252 L523.673 182.891 L527.956 182.891 Z" fill="#000000" fill-rule="nonzero" fill-opacity="1" /><path clip-path="url(#clip400)" d="M542.331 190.252 L546.59 190.252 L546.59 216.178 L542.331 216.178 L542.331 190.252 M542.331 180.159 L546.59 180.159 L546.59 185.553 L542.331 185.553 L542.331 180.159 Z" fill="#000000" fill-rule="nonzero" fill-opacity="1" /><path clip-path="url(#clip400)" d="M575.687 195.229 Q577.284 192.358 579.506 190.993 Q581.728 189.627 584.738 189.627 Q588.789 189.627 590.988 192.474 Q593.187 195.298 593.187 200.529 L593.187 216.178 L588.904 216.178 L588.904 200.668 Q588.904 196.942 587.585 195.136 Q586.265 193.33 583.557 193.33 Q580.247 193.33 578.326 195.53 Q576.404 197.729 576.404 201.525 L576.404 216.178 L572.122 216.178 L572.122 200.668 Q572.122 196.918 570.803 195.136 Q569.483 193.33 566.729 193.33 Q563.465 193.33 561.543 195.553 Q559.622 197.752 559.622 201.525 L559.622 216.178 L555.34 216.178 L555.34 190.252 L559.622 190.252 L559.622 194.28 Q561.08 191.895 563.117 190.761 Q565.154 189.627 567.955 189.627 Q570.779 189.627 572.747 191.062 Q574.738 192.497 575.687 195.229 Z" fill="#000000" fill-rule="nonzero" fill-opacity="1" /><path clip-path="url(#clip400)" d="M613.464 203.145 Q608.302 203.145 606.312 204.326 Q604.321 205.506 604.321 208.354 Q604.321 210.622 605.802 211.965 Q607.307 213.284 609.876 213.284 Q613.418 213.284 615.548 210.784 Q617.7 208.261 617.7 204.094 L617.7 203.145 L613.464 203.145 M621.96 201.386 L621.96 216.178 L617.7 216.178 L617.7 212.242 Q616.242 214.603 614.066 215.738 Q611.89 216.849 608.742 216.849 Q604.761 216.849 602.4 214.627 Q600.062 212.381 600.062 208.631 Q600.062 204.256 602.978 202.034 Q605.918 199.812 611.728 199.812 L617.7 199.812 L617.7 199.395 Q617.7 196.455 615.756 194.858 Q613.835 193.238 610.339 193.238 Q608.117 193.238 606.011 193.77 Q603.904 194.303 601.96 195.367 L601.96 191.432 Q604.298 190.53 606.497 190.09 Q608.696 189.627 610.779 189.627 Q616.404 189.627 619.182 192.543 Q621.96 195.46 621.96 201.386 Z" fill="#000000" fill-rule="nonzero" fill-opacity="1" /><path clip-path="url(#clip400)" d="M634.946 182.891 L634.946 190.252 L643.719 190.252 L643.719 193.562 L634.946 193.562 L634.946 207.636 Q634.946 210.807 635.802 211.71 Q636.682 212.613 639.344 212.613 L643.719 212.613 L643.719 216.178 L639.344 216.178 Q634.413 216.178 632.538 214.349 Q630.663 212.497 630.663 207.636 L630.663 193.562 L627.538 193.562 L627.538 190.252 L630.663 190.252 L630.663 182.891 L634.946 182.891 Z" fill="#000000" fill-rule="nonzero" fill-opacity="1" /><path clip-path="url(#clip400)" d="M671.496 202.15 L671.496 204.233 L651.913 204.233 Q652.191 208.631 654.552 210.946 Q656.936 213.238 661.172 213.238 Q663.626 213.238 665.918 212.636 Q668.233 212.034 670.501 210.83 L670.501 214.858 Q668.209 215.83 665.802 216.34 Q663.395 216.849 660.918 216.849 Q654.714 216.849 651.08 213.238 Q647.469 209.627 647.469 203.469 Q647.469 197.104 650.895 193.377 Q654.344 189.627 660.177 189.627 Q665.409 189.627 668.441 193.006 Q671.496 196.363 671.496 202.15 M667.237 200.9 Q667.191 197.405 665.27 195.321 Q663.372 193.238 660.223 193.238 Q656.659 193.238 654.506 195.252 Q652.376 197.266 652.052 200.923 L667.237 200.9 Z" fill="#000000" fill-rule="nonzero" fill-opacity="1" /><polyline clip-path="url(#clip400)" style="stroke:#ff0000; stroke-linecap:round; stroke-linejoin:round; stroke-width:4; stroke-opacity:1; fill:none" points="234.824,250.738 365.842,250.738 "/>
<path clip-path="url(#clip400)" d="M387.679 233.458 L392.354 233.458 L392.354 264.082 L409.183 264.082 L409.183 268.018 L387.679 268.018 L387.679 233.458 Z" fill="#000000" fill-rule="nonzero" fill-opacity="1" /><path clip-path="url(#clip400)" d="M413.905 242.092 L418.165 242.092 L418.165 268.018 L413.905 268.018 L413.905 242.092 M413.905 231.999 L418.165 231.999 L418.165 237.393 L413.905 237.393 L413.905 231.999 Z" fill="#000000" fill-rule="nonzero" fill-opacity="1" /><path clip-path="url(#clip400)" d="M426.914 231.999 L431.197 231.999 L431.197 253.272 L443.905 242.092 L449.345 242.092 L435.595 254.221 L449.924 268.018 L444.368 268.018 L431.197 255.356 L431.197 268.018 L426.914 268.018 L426.914 231.999 Z" fill="#000000" fill-rule="nonzero" fill-opacity="1" /><path clip-path="url(#clip400)" d="M475.016 253.99 L475.016 256.073 L455.433 256.073 Q455.711 260.471 458.072 262.786 Q460.456 265.078 464.692 265.078 Q467.146 265.078 469.437 264.476 Q471.752 263.874 474.021 262.67 L474.021 266.698 Q471.729 267.67 469.322 268.18 Q466.914 268.689 464.437 268.689 Q458.234 268.689 454.599 265.078 Q450.988 261.467 450.988 255.309 Q450.988 248.944 454.414 245.217 Q457.863 241.467 463.697 241.467 Q468.928 241.467 471.961 244.846 Q475.016 248.203 475.016 253.99 M470.757 252.74 Q470.711 249.245 468.789 247.161 Q466.891 245.078 463.743 245.078 Q460.178 245.078 458.025 247.092 Q455.896 249.106 455.572 252.763 L470.757 252.74 Z" fill="#000000" fill-rule="nonzero" fill-opacity="1" /><path clip-path="url(#clip400)" d="M482.007 231.999 L486.266 231.999 L486.266 268.018 L482.007 268.018 L482.007 231.999 Z" fill="#000000" fill-rule="nonzero" fill-opacity="1" /><path clip-path="url(#clip400)" d="M495.178 242.092 L499.437 242.092 L499.437 268.018 L495.178 268.018 L495.178 242.092 M495.178 231.999 L499.437 231.999 L499.437 237.393 L495.178 237.393 L495.178 231.999 Z" fill="#000000" fill-rule="nonzero" fill-opacity="1" /><path clip-path="url(#clip400)" d="M529.9 252.369 L529.9 268.018 L525.641 268.018 L525.641 252.508 Q525.641 248.828 524.206 246.999 Q522.77 245.17 519.9 245.17 Q516.451 245.17 514.46 247.37 Q512.47 249.569 512.47 253.365 L512.47 268.018 L508.187 268.018 L508.187 231.999 L512.47 231.999 L512.47 246.12 Q513.997 243.782 516.057 242.624 Q518.141 241.467 520.849 241.467 Q525.317 241.467 527.608 244.245 Q529.9 246.999 529.9 252.369 Z" fill="#000000" fill-rule="nonzero" fill-opacity="1" /><path clip-path="url(#clip400)" d="M548.442 245.078 Q545.016 245.078 543.025 247.763 Q541.034 250.425 541.034 255.078 Q541.034 259.731 543.002 262.416 Q544.993 265.078 548.442 265.078 Q551.844 265.078 553.835 262.393 Q555.826 259.707 555.826 255.078 Q555.826 250.471 553.835 247.786 Q551.844 245.078 548.442 245.078 M548.442 241.467 Q553.997 241.467 557.168 245.078 Q560.34 248.689 560.34 255.078 Q560.34 261.444 557.168 265.078 Q553.997 268.689 548.442 268.689 Q542.863 268.689 539.692 265.078 Q536.543 261.444 536.543 255.078 Q536.543 248.689 539.692 245.078 Q542.863 241.467 548.442 241.467 Z" fill="#000000" fill-rule="nonzero" fill-opacity="1" /><path clip-path="url(#clip400)" d="M577.446 245.078 Q574.02 245.078 572.029 247.763 Q570.039 250.425 570.039 255.078 Q570.039 259.731 572.006 262.416 Q573.997 265.078 577.446 265.078 Q580.849 265.078 582.84 262.393 Q584.83 259.707 584.83 255.078 Q584.83 250.471 582.84 247.786 Q580.849 245.078 577.446 245.078 M577.446 241.467 Q583.002 241.467 586.173 245.078 Q589.344 248.689 589.344 255.078 Q589.344 261.444 586.173 265.078 Q583.002 268.689 577.446 268.689 Q571.867 268.689 568.696 265.078 Q565.548 261.444 565.548 255.078 Q565.548 248.689 568.696 245.078 Q571.867 241.467 577.446 241.467 Z" fill="#000000" fill-rule="nonzero" fill-opacity="1" /><path clip-path="url(#clip400)" d="M613.464 246.027 L613.464 231.999 L617.724 231.999 L617.724 268.018 L613.464 268.018 L613.464 264.129 Q612.122 266.443 610.062 267.578 Q608.025 268.689 605.154 268.689 Q600.455 268.689 597.492 264.939 Q594.552 261.189 594.552 255.078 Q594.552 248.967 597.492 245.217 Q600.455 241.467 605.154 241.467 Q608.025 241.467 610.062 242.601 Q612.122 243.712 613.464 246.027 M598.951 255.078 Q598.951 259.777 600.872 262.462 Q602.816 265.124 606.196 265.124 Q609.576 265.124 611.52 262.462 Q613.464 259.777 613.464 255.078 Q613.464 250.379 611.52 247.717 Q609.576 245.032 606.196 245.032 Q602.816 245.032 600.872 247.717 Q598.951 250.379 598.951 255.078 Z" fill="#000000" fill-rule="nonzero" fill-opacity="1" /><polyline clip-path="url(#clip400)" style="stroke:#0000ff; stroke-linecap:round; stroke-linejoin:round; stroke-width:4; stroke-opacity:1; fill:none" points="234.824,302.578 365.842,302.578 "/>
<path clip-path="url(#clip400)" d="M392.354 289.14 L392.354 302.126 L398.234 302.126 Q401.498 302.126 403.28 300.436 Q405.063 298.747 405.063 295.622 Q405.063 292.52 403.28 290.83 Q401.498 289.14 398.234 289.14 L392.354 289.14 M387.679 285.298 L398.234 285.298 Q404.044 285.298 407.007 287.936 Q409.993 290.552 409.993 295.622 Q409.993 300.737 407.007 303.353 Q404.044 305.969 398.234 305.969 L392.354 305.969 L392.354 319.858 L387.679 319.858 L387.679 285.298 Z" fill="#000000" fill-rule="nonzero" fill-opacity="1" /><path clip-path="url(#clip400)" d="M430.271 297.913 Q429.553 297.497 428.697 297.311 Q427.864 297.103 426.845 297.103 Q423.234 297.103 421.289 299.464 Q419.368 301.802 419.368 306.2 L419.368 319.858 L415.086 319.858 L415.086 293.932 L419.368 293.932 L419.368 297.96 Q420.711 295.598 422.864 294.464 Q425.016 293.307 428.095 293.307 Q428.535 293.307 429.067 293.376 Q429.6 293.423 430.248 293.538 L430.271 297.913 Z" fill="#000000" fill-rule="nonzero" fill-opacity="1" /><path clip-path="url(#clip400)" d="M434.738 293.932 L438.998 293.932 L438.998 319.858 L434.738 319.858 L434.738 293.932 M434.738 283.839 L438.998 283.839 L438.998 289.233 L434.738 289.233 L434.738 283.839 Z" fill="#000000" fill-rule="nonzero" fill-opacity="1" /><path clip-path="url(#clip400)" d="M457.956 296.918 Q454.53 296.918 452.539 299.603 Q450.549 302.265 450.549 306.918 Q450.549 311.571 452.516 314.256 Q454.507 316.918 457.956 316.918 Q461.359 316.918 463.349 314.233 Q465.34 311.547 465.34 306.918 Q465.34 302.311 463.349 299.626 Q461.359 296.918 457.956 296.918 M457.956 293.307 Q463.511 293.307 466.683 296.918 Q469.854 300.529 469.854 306.918 Q469.854 313.284 466.683 316.918 Q463.511 320.529 457.956 320.529 Q452.377 320.529 449.206 316.918 Q446.058 313.284 446.058 306.918 Q446.058 300.529 449.206 296.918 Q452.377 293.307 457.956 293.307 Z" fill="#000000" fill-rule="nonzero" fill-opacity="1" /><path clip-path="url(#clip400)" d="M491.937 297.913 Q491.22 297.497 490.363 297.311 Q489.53 297.103 488.511 297.103 Q484.9 297.103 482.956 299.464 Q481.035 301.802 481.035 306.2 L481.035 319.858 L476.752 319.858 L476.752 293.932 L481.035 293.932 L481.035 297.96 Q482.377 295.598 484.53 294.464 Q486.683 293.307 489.761 293.307 Q490.201 293.307 490.734 293.376 Q491.266 293.423 491.914 293.538 L491.937 297.913 Z" fill="#000000" fill-rule="nonzero" fill-opacity="1" /><polyline clip-path="url(#clip400)" style="stroke:#000000; stroke-linecap:round; stroke-linejoin:round; stroke-width:4; stroke-opacity:1; fill:none" points="234.824,354.418 365.842,354.418 "/>
<path clip-path="url(#clip400)" d="M392.354 340.98 L392.354 353.966 L398.234 353.966 Q401.498 353.966 403.28 352.276 Q405.063 350.587 405.063 347.462 Q405.063 344.36 403.28 342.67 Q401.498 340.98 398.234 340.98 L392.354 340.98 M387.679 337.138 L398.234 337.138 Q404.044 337.138 407.007 339.776 Q409.993 342.392 409.993 347.462 Q409.993 352.577 407.007 355.193 Q404.044 357.809 398.234 357.809 L392.354 357.809 L392.354 371.698 L387.679 371.698 L387.679 337.138 Z" fill="#000000" fill-rule="nonzero" fill-opacity="1" /><path clip-path="url(#clip400)" d="M424.438 348.758 Q421.012 348.758 419.021 351.443 Q417.03 354.105 417.03 358.758 Q417.03 363.411 418.998 366.096 Q420.989 368.758 424.438 368.758 Q427.84 368.758 429.831 366.073 Q431.822 363.387 431.822 358.758 Q431.822 354.151 429.831 351.466 Q427.84 348.758 424.438 348.758 M424.438 345.147 Q429.993 345.147 433.164 348.758 Q436.336 352.369 436.336 358.758 Q436.336 365.124 433.164 368.758 Q429.993 372.369 424.438 372.369 Q418.859 372.369 415.688 368.758 Q412.54 365.124 412.54 358.758 Q412.54 352.369 415.688 348.758 Q418.859 345.147 424.438 345.147 Z" fill="#000000" fill-rule="nonzero" fill-opacity="1" /><path clip-path="url(#clip400)" d="M459.924 346.536 L459.924 350.563 Q458.118 349.637 456.174 349.175 Q454.229 348.712 452.146 348.712 Q448.975 348.712 447.377 349.684 Q445.803 350.656 445.803 352.6 Q445.803 354.082 446.937 354.938 Q448.072 355.772 451.498 356.536 L452.956 356.86 Q457.493 357.832 459.391 359.614 Q461.312 361.374 461.312 364.545 Q461.312 368.156 458.442 370.262 Q455.595 372.369 450.595 372.369 Q448.512 372.369 446.243 371.952 Q443.998 371.559 441.498 370.748 L441.498 366.35 Q443.859 367.577 446.15 368.202 Q448.442 368.804 450.687 368.804 Q453.697 368.804 455.317 367.786 Q456.937 366.744 456.937 364.869 Q456.937 363.133 455.757 362.207 Q454.599 361.281 450.641 360.424 L449.16 360.077 Q445.201 359.244 443.442 357.531 Q441.683 355.795 441.683 352.786 Q441.683 349.128 444.275 347.138 Q446.868 345.147 451.637 345.147 Q453.998 345.147 456.081 345.494 Q458.164 345.841 459.924 346.536 Z" fill="#000000" fill-rule="nonzero" fill-opacity="1" /><path clip-path="url(#clip400)" d="M472.308 338.411 L472.308 345.772 L481.081 345.772 L481.081 349.082 L472.308 349.082 L472.308 363.156 Q472.308 366.327 473.164 367.23 Q474.044 368.133 476.706 368.133 L481.081 368.133 L481.081 371.698 L476.706 371.698 Q471.775 371.698 469.9 369.869 Q468.025 368.017 468.025 363.156 L468.025 349.082 L464.9 349.082 L464.9 345.772 L468.025 345.772 L468.025 338.411 L472.308 338.411 Z" fill="#000000" fill-rule="nonzero" fill-opacity="1" /><path clip-path="url(#clip400)" d="M508.858 357.67 L508.858 359.753 L489.275 359.753 Q489.553 364.151 491.914 366.466 Q494.298 368.758 498.534 368.758 Q500.988 368.758 503.28 368.156 Q505.595 367.554 507.863 366.35 L507.863 370.378 Q505.571 371.35 503.164 371.86 Q500.757 372.369 498.28 372.369 Q492.076 372.369 488.442 368.758 Q484.831 365.147 484.831 358.989 Q484.831 352.624 488.257 348.897 Q491.706 345.147 497.539 345.147 Q502.771 345.147 505.803 348.526 Q508.858 351.883 508.858 357.67 M504.599 356.42 Q504.553 352.925 502.632 350.841 Q500.734 348.758 497.585 348.758 Q494.021 348.758 491.868 350.772 Q489.738 352.786 489.414 356.443 L504.599 356.42 Z" fill="#000000" fill-rule="nonzero" fill-opacity="1" /><path clip-path="url(#clip400)" d="M530.872 349.753 Q530.155 349.337 529.298 349.151 Q528.465 348.943 527.446 348.943 Q523.835 348.943 521.891 351.304 Q519.97 353.642 519.97 358.04 L519.97 371.698 L515.687 371.698 L515.687 345.772 L519.97 345.772 L519.97 349.8 Q521.312 347.438 523.465 346.304 Q525.618 345.147 528.696 345.147 Q529.136 345.147 529.669 345.216 Q530.201 345.263 530.849 345.378 L530.872 349.753 Z" fill="#000000" fill-rule="nonzero" fill-opacity="1" /><path clip-path="url(#clip400)" d="M535.34 345.772 L539.599 345.772 L539.599 371.698 L535.34 371.698 L535.34 345.772 M535.34 335.679 L539.599 335.679 L539.599 341.073 L535.34 341.073 L535.34 335.679 Z" fill="#000000" fill-rule="nonzero" fill-opacity="1" /><path clip-path="url(#clip400)" d="M558.557 348.758 Q555.131 348.758 553.141 351.443 Q551.15 354.105 551.15 358.758 Q551.15 363.411 553.117 366.096 Q555.108 368.758 558.557 368.758 Q561.96 368.758 563.951 366.073 Q565.941 363.387 565.941 358.758 Q565.941 354.151 563.951 351.466 Q561.96 348.758 558.557 348.758 M558.557 345.147 Q564.113 345.147 567.284 348.758 Q570.455 352.369 570.455 358.758 Q570.455 365.124 567.284 368.758 Q564.113 372.369 558.557 372.369 Q552.979 372.369 549.807 368.758 Q546.659 365.124 546.659 358.758 Q546.659 352.369 549.807 348.758 Q552.979 345.147 558.557 345.147 Z" fill="#000000" fill-rule="nonzero" fill-opacity="1" /><path clip-path="url(#clip400)" d="M592.539 349.753 Q591.821 349.337 590.965 349.151 Q590.131 348.943 589.113 348.943 Q585.502 348.943 583.557 351.304 Q581.636 353.642 581.636 358.04 L581.636 371.698 L577.353 371.698 L577.353 345.772 L581.636 345.772 L581.636 349.8 Q582.978 347.438 585.131 346.304 Q587.284 345.147 590.363 345.147 Q590.802 345.147 591.335 345.216 Q591.867 345.263 592.515 345.378 L592.539 349.753 Z" fill="#000000" fill-rule="nonzero" fill-opacity="1" /></svg>
