<?xml version="1.0" encoding="utf-8"?>
<svg xmlns="http://www.w3.org/2000/svg" xmlns:xlink="http://www.w3.org/1999/xlink" width="600" height="400" viewBox="0 0 2400 1600">
<defs>
  <clipPath id="clip510">
    <rect x="0" y="0" width="2400" height="1600"/>
  </clipPath>
</defs>
<path clip-path="url(#clip510)" d="M0 1600 L2400 1600 L2400 0 L0 0  Z" fill="#ffffff" fill-rule="evenodd" fill-opacity="1"/>
<defs>
  <clipPath id="clip511">
    <rect x="480" y="0" width="1681" height="1600"/>
  </clipPath>
</defs>
<path clip-path="url(#clip510)" d="M211.325 1423.18 L2352.76 1423.18 L2352.76 47.2441 L211.325 47.2441  Z" fill="#ffffff" fill-rule="evenodd" fill-opacity="1"/>
<defs>
  <clipPath id="clip512">
    <rect x="211" y="47" width="2142" height="1377"/>
  </clipPath>
</defs>
<polyline clip-path="url(#clip512)" style="stroke:#000000; stroke-linecap:round; stroke-linejoin:round; stroke-width:2; stroke-opacity:0.1; fill:none" points="264.009,1423.18 264.009,47.2441 "/>
<polyline clip-path="url(#clip512)" style="stroke:#000000; stroke-linecap:round; stroke-linejoin:round; stroke-width:2; stroke-opacity:0.1; fill:none" points="580.906,1423.18 580.906,47.2441 "/>
<polyline clip-path="url(#clip512)" style="stroke:#000000; stroke-linecap:round; stroke-linejoin:round; stroke-width:2; stroke-opacity:0.1; fill:none" points="897.803,1423.18 897.803,47.2441 "/>
<polyline clip-path="url(#clip512)" style="stroke:#000000; stroke-linecap:round; stroke-linejoin:round; stroke-width:2; stroke-opacity:0.1; fill:none" points="1214.7,1423.18 1214.7,47.2441 "/>
<polyline clip-path="url(#clip512)" style="stroke:#000000; stroke-linecap:round; stroke-linejoin:round; stroke-width:2; stroke-opacity:0.1; fill:none" points="1531.6,1423.18 1531.6,47.2441 "/>
<polyline clip-path="url(#clip512)" style="stroke:#000000; stroke-linecap:round; stroke-linejoin:round; stroke-width:2; stroke-opacity:0.1; fill:none" points="1848.49,1423.18 1848.49,47.2441 "/>
<polyline clip-path="url(#clip512)" style="stroke:#000000; stroke-linecap:round; stroke-linejoin:round; stroke-width:2; stroke-opacity:0.1; fill:none" points="2165.39,1423.18 2165.39,47.2441 "/>
<polyline clip-path="url(#clip512)" style="stroke:#000000; stroke-linecap:round; stroke-linejoin:round; stroke-width:2; stroke-opacity:0.1; fill:none" points="211.325,1299.08 2352.76,1299.08 "/>
<polyline clip-path="url(#clip512)" style="stroke:#000000; stroke-linecap:round; stroke-linejoin:round; stroke-width:2; stroke-opacity:0.1; fill:none" points="211.325,1097.87 2352.76,1097.87 "/>
<polyline clip-path="url(#clip512)" style="stroke:#000000; stroke-linecap:round; stroke-linejoin:round; stroke-width:2; stroke-opacity:0.1; fill:none" points="211.325,896.659 2352.76,896.659 "/>
<polyline clip-path="url(#clip512)" style="stroke:#000000; stroke-linecap:round; stroke-linejoin:round; stroke-width:2; stroke-opacity:0.1; fill:none" points="211.325,695.451 2352.76,695.451 "/>
<polyline clip-path="url(#clip512)" style="stroke:#000000; stroke-linecap:round; stroke-linejoin:round; stroke-width:2; stroke-opacity:0.1; fill:none" points="211.325,494.243 2352.76,494.243 "/>
<polyline clip-path="url(#clip512)" style="stroke:#000000; stroke-linecap:round; stroke-linejoin:round; stroke-width:2; stroke-opacity:0.1; fill:none" points="211.325,293.034 2352.76,293.034 "/>
<polyline clip-path="url(#clip512)" style="stroke:#000000; stroke-linecap:round; stroke-linejoin:round; stroke-width:2; stroke-opacity:0.1; fill:none" points="211.325,91.8263 2352.76,91.8263 "/>
<polyline clip-path="url(#clip510)" style="stroke:#000000; stroke-linecap:round; stroke-linejoin:round; stroke-width:4; stroke-opacity:1; fill:none" points="211.325,1423.18 2352.76,1423.18 "/>
<polyline clip-path="url(#clip510)" style="stroke:#000000; stroke-linecap:round; stroke-linejoin:round; stroke-width:4; stroke-opacity:1; fill:none" points="264.009,1423.18 264.009,1404.28 "/>
<polyline clip-path="url(#clip510)" style="stroke:#000000; stroke-linecap:round; stroke-linejoin:round; stroke-width:4; stroke-opacity:1; fill:none" points="580.906,1423.18 580.906,1404.28 "/>
<polyline clip-path="url(#clip510)" style="stroke:#000000; stroke-linecap:round; stroke-linejoin:round; stroke-width:4; stroke-opacity:1; fill:none" points="897.803,1423.18 897.803,1404.28 "/>
<polyline clip-path="url(#clip510)" style="stroke:#000000; stroke-linecap:round; stroke-linejoin:round; stroke-width:4; stroke-opacity:1; fill:none" points="1214.7,1423.18 1214.7,1404.28 "/>
<polyline clip-path="url(#clip510)" style="stroke:#000000; stroke-linecap:round; stroke-linejoin:round; stroke-width:4; stroke-opacity:1; fill:none" points="1531.6,1423.18 1531.6,1404.28 "/>
<polyline clip-path="url(#clip510)" style="stroke:#000000; stroke-linecap:round; stroke-linejoin:round; stroke-width:4; stroke-opacity:1; fill:none" points="1848.49,1423.18 1848.49,1404.28 "/>
<polyline clip-path="url(#clip510)" style="stroke:#000000; stroke-linecap:round; stroke-linejoin:round; stroke-width:4; stroke-opacity:1; fill:none" points="2165.39,1423.18 2165.39,1404.28 "/>
<path clip-path="url(#clip510)" d="M264.009 1454.1 Q260.398 1454.1 258.569 1457.66 Q256.763 1461.2 256.763 1468.33 Q256.763 1475.44 258.569 1479.01 Q260.398 1482.55 264.009 1482.55 Q267.643 1482.55 269.449 1479.01 Q271.277 1475.44 271.277 1468.33 Q271.277 1461.2 269.449 1457.66 Q267.643 1454.1 264.009 1454.1 M264.009 1450.39 Q269.819 1450.39 272.874 1455 Q275.953 1459.58 275.953 1468.33 Q275.953 1477.06 272.874 1481.67 Q269.819 1486.25 264.009 1486.25 Q258.199 1486.25 255.12 1481.67 Q252.064 1477.06 252.064 1468.33 Q252.064 1459.58 255.12 1455 Q258.199 1450.39 264.009 1450.39 Z" fill="#000000" fill-rule="nonzero" fill-opacity="1" /><path clip-path="url(#clip510)" d="M555.593 1481.64 L563.232 1481.64 L563.232 1455.28 L554.922 1456.95 L554.922 1452.69 L563.186 1451.02 L567.862 1451.02 L567.862 1481.64 L575.501 1481.64 L575.501 1485.58 L555.593 1485.58 L555.593 1481.64 Z" fill="#000000" fill-rule="nonzero" fill-opacity="1" /><path clip-path="url(#clip510)" d="M594.945 1454.1 Q591.334 1454.1 589.505 1457.66 Q587.7 1461.2 587.7 1468.33 Q587.7 1475.44 589.505 1479.01 Q591.334 1482.55 594.945 1482.55 Q598.579 1482.55 600.385 1479.01 Q602.213 1475.44 602.213 1468.33 Q602.213 1461.2 600.385 1457.66 Q598.579 1454.1 594.945 1454.1 M594.945 1450.39 Q600.755 1450.39 603.811 1455 Q606.889 1459.58 606.889 1468.33 Q606.889 1477.06 603.811 1481.67 Q600.755 1486.25 594.945 1486.25 Q589.135 1486.25 586.056 1481.67 Q583.001 1477.06 583.001 1468.33 Q583.001 1459.58 586.056 1455 Q589.135 1450.39 594.945 1450.39 Z" fill="#000000" fill-rule="nonzero" fill-opacity="1" /><path clip-path="url(#clip510)" d="M876.576 1481.64 L892.895 1481.64 L892.895 1485.58 L870.951 1485.58 L870.951 1481.64 Q873.613 1478.89 878.196 1474.26 Q882.803 1469.61 883.983 1468.27 Q886.229 1465.74 887.108 1464.01 Q888.011 1462.25 888.011 1460.56 Q888.011 1457.8 886.067 1456.07 Q884.145 1454.33 881.044 1454.33 Q878.844 1454.33 876.391 1455.09 Q873.96 1455.86 871.182 1457.41 L871.182 1452.69 Q874.007 1451.55 876.46 1450.97 Q878.914 1450.39 880.951 1450.39 Q886.321 1450.39 889.516 1453.08 Q892.71 1455.77 892.71 1460.26 Q892.71 1462.39 891.9 1464.31 Q891.113 1466.2 889.006 1468.8 Q888.428 1469.47 885.326 1472.69 Q882.224 1475.88 876.576 1481.64 Z" fill="#000000" fill-rule="nonzero" fill-opacity="1" /><path clip-path="url(#clip510)" d="M912.71 1454.1 Q909.099 1454.1 907.27 1457.66 Q905.465 1461.2 905.465 1468.33 Q905.465 1475.44 907.27 1479.01 Q909.099 1482.55 912.71 1482.55 Q916.344 1482.55 918.15 1479.01 Q919.979 1475.44 919.979 1468.33 Q919.979 1461.2 918.15 1457.66 Q916.344 1454.1 912.71 1454.1 M912.71 1450.39 Q918.52 1450.39 921.576 1455 Q924.654 1459.58 924.654 1468.33 Q924.654 1477.06 921.576 1481.67 Q918.52 1486.25 912.71 1486.25 Q906.9 1486.25 903.821 1481.67 Q900.766 1477.06 900.766 1468.33 Q900.766 1459.58 903.821 1455 Q906.9 1450.39 912.71 1450.39 Z" fill="#000000" fill-rule="nonzero" fill-opacity="1" /><path clip-path="url(#clip510)" d="M1203.54 1466.95 Q1206.9 1467.66 1208.77 1469.93 Q1210.67 1472.2 1210.67 1475.53 Q1210.67 1480.65 1207.15 1483.45 Q1203.63 1486.25 1197.15 1486.25 Q1194.98 1486.25 1192.66 1485.81 Q1190.37 1485.39 1187.92 1484.54 L1187.92 1480.02 Q1189.86 1481.16 1192.18 1481.74 Q1194.49 1482.32 1197.01 1482.32 Q1201.41 1482.32 1203.7 1480.58 Q1206.02 1478.84 1206.02 1475.53 Q1206.02 1472.48 1203.87 1470.77 Q1201.74 1469.03 1197.92 1469.03 L1193.89 1469.03 L1193.89 1465.19 L1198.1 1465.19 Q1201.55 1465.19 1203.38 1463.82 Q1205.21 1462.43 1205.21 1459.84 Q1205.21 1457.18 1203.31 1455.77 Q1201.44 1454.33 1197.92 1454.33 Q1196 1454.33 1193.8 1454.75 Q1191.6 1455.16 1188.96 1456.04 L1188.96 1451.88 Q1191.62 1451.14 1193.94 1450.77 Q1196.27 1450.39 1198.33 1450.39 Q1203.66 1450.39 1206.76 1452.83 Q1209.86 1455.23 1209.86 1459.35 Q1209.86 1462.22 1208.22 1464.21 Q1206.57 1466.18 1203.54 1466.95 Z" fill="#000000" fill-rule="nonzero" fill-opacity="1" /><path clip-path="url(#clip510)" d="M1229.54 1454.1 Q1225.93 1454.1 1224.1 1457.66 Q1222.29 1461.2 1222.29 1468.33 Q1222.29 1475.44 1224.1 1479.01 Q1225.93 1482.55 1229.54 1482.55 Q1233.17 1482.55 1234.98 1479.01 Q1236.81 1475.44 1236.81 1468.33 Q1236.81 1461.2 1234.98 1457.66 Q1233.17 1454.1 1229.54 1454.1 M1229.54 1450.39 Q1235.35 1450.39 1238.4 1455 Q1241.48 1459.58 1241.48 1468.33 Q1241.48 1477.06 1238.4 1481.67 Q1235.35 1486.25 1229.54 1486.25 Q1223.73 1486.25 1220.65 1481.67 Q1217.59 1477.06 1217.59 1468.33 Q1217.59 1459.58 1220.65 1455 Q1223.73 1450.39 1229.54 1450.39 Z" fill="#000000" fill-rule="nonzero" fill-opacity="1" /><path clip-path="url(#clip510)" d="M1519.77 1455.09 L1507.96 1473.54 L1519.77 1473.54 L1519.77 1455.09 M1518.54 1451.02 L1524.42 1451.02 L1524.42 1473.54 L1529.35 1473.54 L1529.35 1477.43 L1524.42 1477.43 L1524.42 1485.58 L1519.77 1485.58 L1519.77 1477.43 L1504.17 1477.43 L1504.17 1472.92 L1518.54 1451.02 Z" fill="#000000" fill-rule="nonzero" fill-opacity="1" /><path clip-path="url(#clip510)" d="M1547.08 1454.1 Q1543.47 1454.1 1541.64 1457.66 Q1539.84 1461.2 1539.84 1468.33 Q1539.84 1475.44 1541.64 1479.01 Q1543.47 1482.55 1547.08 1482.55 Q1550.72 1482.55 1552.52 1479.01 Q1554.35 1475.44 1554.35 1468.33 Q1554.35 1461.2 1552.52 1457.66 Q1550.72 1454.1 1547.08 1454.1 M1547.08 1450.39 Q1552.89 1450.39 1555.95 1455 Q1559.03 1459.58 1559.03 1468.33 Q1559.03 1477.06 1555.95 1481.67 Q1552.89 1486.25 1547.08 1486.25 Q1541.27 1486.25 1538.19 1481.67 Q1535.14 1477.06 1535.14 1468.33 Q1535.14 1459.58 1538.19 1455 Q1541.27 1450.39 1547.08 1450.39 Z" fill="#000000" fill-rule="nonzero" fill-opacity="1" /><path clip-path="url(#clip510)" d="M1823.19 1451.02 L1841.55 1451.02 L1841.55 1454.96 L1827.48 1454.96 L1827.48 1463.43 Q1828.49 1463.08 1829.51 1462.92 Q1830.53 1462.73 1831.55 1462.73 Q1837.34 1462.73 1840.72 1465.9 Q1844.1 1469.08 1844.1 1474.49 Q1844.1 1480.07 1840.62 1483.17 Q1837.15 1486.25 1830.83 1486.25 Q1828.66 1486.25 1826.39 1485.88 Q1824.14 1485.51 1821.73 1484.77 L1821.73 1480.07 Q1823.82 1481.2 1826.04 1481.76 Q1828.26 1482.32 1830.74 1482.32 Q1834.74 1482.32 1837.08 1480.21 Q1839.42 1478.1 1839.42 1474.49 Q1839.42 1470.88 1837.08 1468.77 Q1834.74 1466.67 1830.74 1466.67 Q1828.86 1466.67 1826.99 1467.08 Q1825.14 1467.5 1823.19 1468.38 L1823.19 1451.02 Z" fill="#000000" fill-rule="nonzero" fill-opacity="1" /><path clip-path="url(#clip510)" d="M1863.31 1454.1 Q1859.7 1454.1 1857.87 1457.66 Q1856.06 1461.2 1856.06 1468.33 Q1856.06 1475.44 1857.87 1479.01 Q1859.7 1482.55 1863.31 1482.55 Q1866.94 1482.55 1868.75 1479.01 Q1870.58 1475.44 1870.58 1468.33 Q1870.58 1461.2 1868.75 1457.66 Q1866.94 1454.1 1863.31 1454.1 M1863.31 1450.39 Q1869.12 1450.39 1872.17 1455 Q1875.25 1459.58 1875.25 1468.33 Q1875.25 1477.06 1872.17 1481.67 Q1869.12 1486.25 1863.31 1486.25 Q1857.5 1486.25 1854.42 1481.67 Q1851.36 1477.06 1851.36 1468.33 Q1851.36 1459.58 1854.42 1455 Q1857.5 1450.39 1863.31 1450.39 Z" fill="#000000" fill-rule="nonzero" fill-opacity="1" /><path clip-path="url(#clip510)" d="M2150.8 1466.44 Q2147.65 1466.44 2145.8 1468.59 Q2143.97 1470.74 2143.97 1474.49 Q2143.97 1478.22 2145.8 1480.39 Q2147.65 1482.55 2150.8 1482.55 Q2153.94 1482.55 2155.77 1480.39 Q2157.62 1478.22 2157.62 1474.49 Q2157.62 1470.74 2155.77 1468.59 Q2153.94 1466.44 2150.8 1466.44 M2160.08 1451.78 L2160.08 1456.04 Q2158.32 1455.21 2156.51 1454.77 Q2154.73 1454.33 2152.97 1454.33 Q2148.34 1454.33 2145.89 1457.45 Q2143.46 1460.58 2143.11 1466.9 Q2144.48 1464.89 2146.54 1463.82 Q2148.6 1462.73 2151.07 1462.73 Q2156.28 1462.73 2159.29 1465.9 Q2162.32 1469.05 2162.32 1474.49 Q2162.32 1479.82 2159.18 1483.03 Q2156.03 1486.25 2150.8 1486.25 Q2144.8 1486.25 2141.63 1481.67 Q2138.46 1477.06 2138.46 1468.33 Q2138.46 1460.14 2142.35 1455.28 Q2146.24 1450.39 2152.79 1450.39 Q2154.55 1450.39 2156.33 1450.74 Q2158.13 1451.09 2160.08 1451.78 Z" fill="#000000" fill-rule="nonzero" fill-opacity="1" /><path clip-path="url(#clip510)" d="M2180.38 1454.1 Q2176.77 1454.1 2174.94 1457.66 Q2173.13 1461.2 2173.13 1468.33 Q2173.13 1475.44 2174.94 1479.01 Q2176.77 1482.55 2180.38 1482.55 Q2184.01 1482.55 2185.82 1479.01 Q2187.65 1475.44 2187.65 1468.33 Q2187.65 1461.2 2185.82 1457.66 Q2184.01 1454.1 2180.38 1454.1 M2180.38 1450.39 Q2186.19 1450.39 2189.24 1455 Q2192.32 1459.58 2192.32 1468.33 Q2192.32 1477.06 2189.24 1481.67 Q2186.19 1486.25 2180.38 1486.25 Q2174.57 1486.25 2171.49 1481.67 Q2168.43 1477.06 2168.43 1468.33 Q2168.43 1459.58 2171.49 1455 Q2174.57 1450.39 2180.38 1450.39 Z" fill="#000000" fill-rule="nonzero" fill-opacity="1" /><path clip-path="url(#clip510)" d="M1197.11 1522.27 L1197.11 1532.4 L1209.17 1532.4 L1209.17 1536.95 L1197.11 1536.95 L1197.11 1556.3 Q1197.11 1560.66 1198.28 1561.9 Q1199.49 1563.14 1203.15 1563.14 L1209.17 1563.14 L1209.17 1568.04 L1203.15 1568.04 Q1196.37 1568.04 1193.8 1565.53 Q1191.22 1562.98 1191.22 1556.3 L1191.22 1536.95 L1186.92 1536.95 L1186.92 1532.4 L1191.22 1532.4 L1191.22 1522.27 L1197.11 1522.27 Z" fill="#000000" fill-rule="nonzero" fill-opacity="1" /><path clip-path="url(#clip510)" d="M1216.87 1532.4 L1222.73 1532.4 L1222.73 1568.04 L1216.87 1568.04 L1216.87 1532.4 M1216.87 1518.52 L1222.73 1518.52 L1222.73 1525.93 L1216.87 1525.93 L1216.87 1518.52 Z" fill="#000000" fill-rule="nonzero" fill-opacity="1" /><path clip-path="url(#clip510)" d="M1262.74 1539.24 Q1264.93 1535.29 1267.99 1533.41 Q1271.04 1531.54 1275.18 1531.54 Q1280.75 1531.54 1283.77 1535.45 Q1286.8 1539.33 1286.8 1546.53 L1286.8 1568.04 L1280.91 1568.04 L1280.91 1546.72 Q1280.91 1541.59 1279.1 1539.11 Q1277.28 1536.63 1273.56 1536.63 Q1269.01 1536.63 1266.36 1539.65 Q1263.72 1542.68 1263.72 1547.9 L1263.72 1568.04 L1257.83 1568.04 L1257.83 1546.72 Q1257.83 1541.56 1256.02 1539.11 Q1254.21 1536.63 1250.42 1536.63 Q1245.93 1536.63 1243.29 1539.68 Q1240.65 1542.71 1240.65 1547.9 L1240.65 1568.04 L1234.76 1568.04 L1234.76 1532.4 L1240.65 1532.4 L1240.65 1537.93 Q1242.65 1534.66 1245.45 1533.1 Q1248.25 1531.54 1252.11 1531.54 Q1255.99 1531.54 1258.69 1533.51 Q1261.43 1535.48 1262.74 1539.24 Z" fill="#000000" fill-rule="nonzero" fill-opacity="1" /><path clip-path="url(#clip510)" d="M1328.97 1548.76 L1328.97 1551.62 L1302.04 1551.62 Q1302.43 1557.67 1305.67 1560.85 Q1308.95 1564 1314.78 1564 Q1318.15 1564 1321.3 1563.17 Q1324.48 1562.35 1327.6 1560.69 L1327.6 1566.23 Q1324.45 1567.57 1321.14 1568.27 Q1317.83 1568.97 1314.43 1568.97 Q1305.9 1568.97 1300.9 1564 Q1295.93 1559.04 1295.93 1550.57 Q1295.93 1541.82 1300.64 1536.69 Q1305.39 1531.54 1313.41 1531.54 Q1320.6 1531.54 1324.77 1536.18 Q1328.97 1540.8 1328.97 1548.76 M1323.11 1547.04 Q1323.05 1542.23 1320.41 1539.37 Q1317.8 1536.5 1313.47 1536.5 Q1308.57 1536.5 1305.61 1539.27 Q1302.68 1542.04 1302.24 1547.07 L1323.11 1547.04 Z" fill="#000000" fill-rule="nonzero" fill-opacity="1" /><path clip-path="url(#clip510)" d="M1365.1 1522.27 L1365.1 1532.4 L1377.16 1532.4 L1377.16 1536.95 L1365.1 1536.95 L1365.1 1556.3 Q1365.1 1560.66 1366.27 1561.9 Q1367.48 1563.14 1371.14 1563.14 L1377.16 1563.14 L1377.16 1568.04 L1371.14 1568.04 Q1364.36 1568.04 1361.79 1565.53 Q1359.21 1562.98 1359.21 1556.3 L1359.21 1536.95 L1354.91 1536.95 L1354.91 1532.4 L1359.21 1532.4 L1359.21 1522.27 L1365.1 1522.27 Z" fill="#000000" fill-rule="nonzero" fill-opacity="1" /><polyline clip-path="url(#clip510)" style="stroke:#000000; stroke-linecap:round; stroke-linejoin:round; stroke-width:4; stroke-opacity:1; fill:none" points="211.325,1423.18 211.325,47.2441 "/>
<polyline clip-path="url(#clip510)" style="stroke:#000000; stroke-linecap:round; stroke-linejoin:round; stroke-width:4; stroke-opacity:1; fill:none" points="211.325,1299.08 230.222,1299.08 "/>
<polyline clip-path="url(#clip510)" style="stroke:#000000; stroke-linecap:round; stroke-linejoin:round; stroke-width:4; stroke-opacity:1; fill:none" points="211.325,1097.87 230.222,1097.87 "/>
<polyline clip-path="url(#clip510)" style="stroke:#000000; stroke-linecap:round; stroke-linejoin:round; stroke-width:4; stroke-opacity:1; fill:none" points="211.325,896.659 230.222,896.659 "/>
<polyline clip-path="url(#clip510)" style="stroke:#000000; stroke-linecap:round; stroke-linejoin:round; stroke-width:4; stroke-opacity:1; fill:none" points="211.325,695.451 230.222,695.451 "/>
<polyline clip-path="url(#clip510)" style="stroke:#000000; stroke-linecap:round; stroke-linejoin:round; stroke-width:4; stroke-opacity:1; fill:none" points="211.325,494.243 230.222,494.243 "/>
<polyline clip-path="url(#clip510)" style="stroke:#000000; stroke-linecap:round; stroke-linejoin:round; stroke-width:4; stroke-opacity:1; fill:none" points="211.325,293.034 230.222,293.034 "/>
<polyline clip-path="url(#clip510)" style="stroke:#000000; stroke-linecap:round; stroke-linejoin:round; stroke-width:4; stroke-opacity:1; fill:none" points="211.325,91.8263 230.222,91.8263 "/>
<path clip-path="url(#clip510)" d="M114.26 1299.53 L143.936 1299.53 L143.936 1303.46 L114.26 1303.46 L114.26 1299.53 Z" fill="#000000" fill-rule="nonzero" fill-opacity="1" /><path clip-path="url(#clip510)" d="M168.195 1297.72 Q171.552 1298.44 173.427 1300.71 Q175.325 1302.98 175.325 1306.31 Q175.325 1311.42 171.806 1314.23 Q168.288 1317.03 161.806 1317.03 Q159.63 1317.03 157.315 1316.59 Q155.024 1316.17 152.57 1315.31 L152.57 1310.8 Q154.515 1311.93 156.829 1312.51 Q159.144 1313.09 161.667 1313.09 Q166.065 1313.09 168.357 1311.36 Q170.672 1309.62 170.672 1306.31 Q170.672 1303.25 168.519 1301.54 Q166.39 1299.8 162.57 1299.8 L158.542 1299.8 L158.542 1295.96 L162.755 1295.96 Q166.204 1295.96 168.033 1294.6 Q169.862 1293.21 169.862 1290.61 Q169.862 1287.95 167.964 1286.54 Q166.089 1285.11 162.57 1285.11 Q160.649 1285.11 158.45 1285.52 Q156.251 1285.94 153.612 1286.82 L153.612 1282.65 Q156.274 1281.91 158.589 1281.54 Q160.927 1281.17 162.987 1281.17 Q168.311 1281.17 171.413 1283.6 Q174.514 1286.01 174.514 1290.13 Q174.514 1293 172.871 1294.99 Q171.227 1296.96 168.195 1297.72 Z" fill="#000000" fill-rule="nonzero" fill-opacity="1" /><path clip-path="url(#clip510)" d="M115.209 1098.32 L144.885 1098.32 L144.885 1102.25 L115.209 1102.25 L115.209 1098.32 Z" fill="#000000" fill-rule="nonzero" fill-opacity="1" /><path clip-path="url(#clip510)" d="M159.005 1111.21 L175.325 1111.21 L175.325 1115.15 L153.38 1115.15 L153.38 1111.21 Q156.042 1108.46 160.626 1103.83 Q165.232 1099.17 166.413 1097.83 Q168.658 1095.31 169.538 1093.57 Q170.44 1091.81 170.44 1090.12 Q170.44 1087.37 168.496 1085.63 Q166.575 1083.9 163.473 1083.9 Q161.274 1083.9 158.82 1084.66 Q156.39 1085.42 153.612 1086.98 L153.612 1082.25 Q156.436 1081.12 158.89 1080.54 Q161.343 1079.96 163.38 1079.96 Q168.751 1079.96 171.945 1082.65 Q175.139 1085.33 175.139 1089.82 Q175.139 1091.95 174.329 1093.87 Q173.542 1095.77 171.436 1098.36 Q170.857 1099.04 167.755 1102.25 Q164.653 1105.45 159.005 1111.21 Z" fill="#000000" fill-rule="nonzero" fill-opacity="1" /><path clip-path="url(#clip510)" d="M114.839 897.11 L144.515 897.11 L144.515 901.045 L114.839 901.045 L114.839 897.11 Z" fill="#000000" fill-rule="nonzero" fill-opacity="1" /><path clip-path="url(#clip510)" d="M155.417 910.004 L163.056 910.004 L163.056 883.638 L154.746 885.305 L154.746 881.045 L163.01 879.379 L167.686 879.379 L167.686 910.004 L175.325 910.004 L175.325 913.939 L155.417 913.939 L155.417 910.004 Z" fill="#000000" fill-rule="nonzero" fill-opacity="1" /><path clip-path="url(#clip510)" d="M163.38 681.249 Q159.769 681.249 157.94 684.814 Q156.135 688.356 156.135 695.485 Q156.135 702.592 157.94 706.157 Q159.769 709.698 163.38 709.698 Q167.015 709.698 168.82 706.157 Q170.649 702.592 170.649 695.485 Q170.649 688.356 168.82 684.814 Q167.015 681.249 163.38 681.249 M163.38 677.546 Q169.19 677.546 172.246 682.152 Q175.325 686.735 175.325 695.485 Q175.325 704.212 172.246 708.819 Q169.19 713.402 163.38 713.402 Q157.57 713.402 154.491 708.819 Q151.436 704.212 151.436 695.485 Q151.436 686.735 154.491 682.152 Q157.57 677.546 163.38 677.546 Z" fill="#000000" fill-rule="nonzero" fill-opacity="1" /><path clip-path="url(#clip510)" d="M155.417 507.587 L163.056 507.587 L163.056 481.222 L154.746 482.888 L154.746 478.629 L163.01 476.963 L167.686 476.963 L167.686 507.587 L175.325 507.587 L175.325 511.523 L155.417 511.523 L155.417 507.587 Z" fill="#000000" fill-rule="nonzero" fill-opacity="1" /><path clip-path="url(#clip510)" d="M159.005 306.379 L175.325 306.379 L175.325 310.314 L153.38 310.314 L153.38 306.379 Q156.042 303.625 160.626 298.995 Q165.232 294.342 166.413 293 Q168.658 290.477 169.538 288.74 Q170.44 286.981 170.44 285.291 Q170.44 282.537 168.496 280.801 Q166.575 279.065 163.473 279.065 Q161.274 279.065 158.82 279.829 Q156.39 280.592 153.612 282.143 L153.612 277.421 Q156.436 276.287 158.89 275.708 Q161.343 275.129 163.38 275.129 Q168.751 275.129 171.945 277.815 Q175.139 280.5 175.139 284.991 Q175.139 287.12 174.329 289.041 Q173.542 290.94 171.436 293.532 Q170.857 294.203 167.755 297.421 Q164.653 300.615 159.005 306.379 Z" fill="#000000" fill-rule="nonzero" fill-opacity="1" /><path clip-path="url(#clip510)" d="M168.195 90.4722 Q171.552 91.1898 173.427 93.4583 Q175.325 95.7268 175.325 99.0601 Q175.325 104.176 171.806 106.977 Q168.288 109.778 161.806 109.778 Q159.63 109.778 157.315 109.338 Q155.024 108.921 152.57 108.065 L152.57 103.551 Q154.515 104.685 156.829 105.264 Q159.144 105.842 161.667 105.842 Q166.065 105.842 168.357 104.106 Q170.672 102.37 170.672 99.0601 Q170.672 96.0046 168.519 94.2916 Q166.39 92.5555 162.57 92.5555 L158.542 92.5555 L158.542 88.7129 L162.755 88.7129 Q166.204 88.7129 168.033 87.3472 Q169.862 85.9583 169.862 83.3657 Q169.862 80.7037 167.964 79.2917 Q166.089 77.8565 162.57 77.8565 Q160.649 77.8565 158.45 78.2732 Q156.251 78.6898 153.612 79.5695 L153.612 75.4028 Q156.274 74.6621 158.589 74.2917 Q160.927 73.9213 162.987 73.9213 Q168.311 73.9213 171.413 76.3519 Q174.514 78.7593 174.514 82.8796 Q174.514 85.75 172.871 87.7407 Q171.227 89.7083 168.195 90.4722 Z" fill="#000000" fill-rule="nonzero" fill-opacity="1" /><path clip-path="url(#clip510)" d="M58.657 955.481 L77.5631 955.481 L77.5631 961.37 L28.3562 961.37 L28.3562 955.481 L33.7671 955.481 Q30.5842 953.635 29.0564 950.834 Q27.4968 948.002 27.4968 944.087 Q27.4968 937.594 32.6531 933.551 Q37.8093 929.477 46.212 929.477 Q54.6147 929.477 59.771 933.551 Q64.9272 937.594 64.9272 944.087 Q64.9272 948.002 63.3994 950.834 Q61.8398 953.635 58.657 955.481 M46.212 935.557 Q39.7508 935.557 36.0905 938.23 Q32.3984 940.872 32.3984 945.519 Q32.3984 950.166 36.0905 952.84 Q39.7508 955.481 46.212 955.481 Q52.6732 955.481 56.3653 952.84 Q60.0256 950.166 60.0256 945.519 Q60.0256 940.872 56.3653 938.23 Q52.6732 935.557 46.212 935.557 Z" fill="#000000" fill-rule="nonzero" fill-opacity="1" /><path clip-path="url(#clip510)" d="M42.4881 890.137 L64.0042 890.137 L64.0042 895.994 L42.679 895.994 Q37.6183 895.994 35.1038 897.967 Q32.5894 899.941 32.5894 903.887 Q32.5894 908.63 35.6131 911.367 Q38.6368 914.104 43.8567 914.104 L64.0042 914.104 L64.0042 919.993 L14.479 919.993 L14.479 914.104 L33.8944 914.104 Q30.6797 912.004 29.0883 909.171 Q27.4968 906.306 27.4968 902.582 Q27.4968 896.439 31.3163 893.288 Q35.1038 890.137 42.4881 890.137 Z" fill="#000000" fill-rule="nonzero" fill-opacity="1" /><path clip-path="url(#clip510)" d="M46.0847 862.256 Q46.0847 869.353 47.7079 872.091 Q49.3312 874.828 53.2461 874.828 Q56.3653 874.828 58.2114 872.791 Q60.0256 870.722 60.0256 867.189 Q60.0256 862.319 56.5881 859.391 Q53.1188 856.431 47.3897 856.431 L46.0847 856.431 L46.0847 862.256 M43.6657 850.574 L64.0042 850.574 L64.0042 856.431 L58.5933 856.431 Q61.8398 858.436 63.3994 861.428 Q64.9272 864.42 64.9272 868.749 Q64.9272 874.223 61.8716 877.47 Q58.7843 880.684 53.6281 880.684 Q47.6125 880.684 44.5569 876.674 Q41.5014 872.632 41.5014 864.643 L41.5014 856.431 L40.9285 856.431 Q36.8862 856.431 34.6901 859.105 Q32.4621 861.746 32.4621 866.552 Q32.4621 869.608 33.1941 872.504 Q33.9262 875.401 35.3903 878.074 L29.9795 878.074 Q28.7381 874.86 28.1334 871.836 Q27.4968 868.812 27.4968 865.948 Q27.4968 858.213 31.5072 854.394 Q35.5176 850.574 43.6657 850.574 Z" fill="#000000" fill-rule="nonzero" fill-opacity="1" /><path clip-path="url(#clip510)" d="M29.4065 815.786 L34.9447 815.786 Q33.6716 818.269 33.035 820.942 Q32.3984 823.616 32.3984 826.48 Q32.3984 830.841 33.7352 833.037 Q35.072 835.201 37.7456 835.201 Q39.7826 835.201 40.9603 833.642 Q42.1061 832.082 43.1565 827.371 L43.6021 825.366 Q44.9389 819.128 47.3897 816.518 Q49.8086 813.876 54.1691 813.876 Q59.1344 813.876 62.0308 817.823 Q64.9272 821.738 64.9272 828.613 Q64.9272 831.477 64.3543 834.597 Q63.8132 837.684 62.6992 841.121 L56.6518 841.121 Q58.3387 837.875 59.198 834.724 Q60.0256 831.573 60.0256 828.485 Q60.0256 824.348 58.6251 822.12 Q57.1929 819.892 54.6147 819.892 Q52.2276 819.892 50.9545 821.515 Q49.6813 823.106 48.5037 828.549 L48.0262 830.586 Q46.8804 836.029 44.5251 838.448 Q42.138 840.867 38.0002 840.867 Q32.9713 840.867 30.2341 837.302 Q27.4968 833.737 27.4968 827.181 Q27.4968 823.934 27.9743 821.069 Q28.4517 818.205 29.4065 815.786 Z" fill="#000000" fill-rule="nonzero" fill-opacity="1" /><path clip-path="url(#clip510)" d="M44.7161 774.059 L47.5806 774.059 L47.5806 800.986 Q53.6281 800.604 56.8109 797.357 Q59.9619 794.079 59.9619 788.254 Q59.9619 784.88 59.1344 781.729 Q58.3069 778.547 56.6518 775.427 L62.1899 775.427 Q63.5267 778.578 64.227 781.889 Q64.9272 785.199 64.9272 788.604 Q64.9272 797.134 59.9619 802.131 Q54.9967 807.097 46.5303 807.097 Q37.7774 807.097 32.6531 802.386 Q27.4968 797.644 27.4968 789.623 Q27.4968 782.43 32.1438 778.26 Q36.7589 774.059 44.7161 774.059 M42.9973 779.915 Q38.1912 779.979 35.3266 782.621 Q32.4621 785.231 32.4621 789.559 Q32.4621 794.461 35.2312 797.421 Q38.0002 800.349 43.0292 800.795 L42.9973 779.915 Z" fill="#000000" fill-rule="nonzero" fill-opacity="1" /><path clip-path="url(#clip510)" d="M46.0847 727.525 Q46.0847 734.623 47.7079 737.36 Q49.3312 740.098 53.2461 740.098 Q56.3653 740.098 58.2114 738.061 Q60.0256 735.992 60.0256 732.459 Q60.0256 727.589 56.5881 724.661 Q53.1188 721.701 47.3897 721.701 L46.0847 721.701 L46.0847 727.525 M43.6657 715.844 L64.0042 715.844 L64.0042 721.701 L58.5933 721.701 Q61.8398 723.706 63.3994 726.698 Q64.9272 729.69 64.9272 734.018 Q64.9272 739.493 61.8716 742.739 Q58.7843 745.954 53.6281 745.954 Q47.6125 745.954 44.5569 741.944 Q41.5014 737.901 41.5014 729.913 L41.5014 721.701 L40.9285 721.701 Q36.8862 721.701 34.6901 724.374 Q32.4621 727.016 32.4621 731.822 Q32.4621 734.878 33.1941 737.774 Q33.9262 740.671 35.3903 743.344 L29.9795 743.344 Q28.7381 740.129 28.1334 737.106 Q27.4968 734.082 27.4968 731.217 Q27.4968 723.483 31.5072 719.664 Q35.5176 715.844 43.6657 715.844 Z" fill="#000000" fill-rule="nonzero" fill-opacity="1" /><path clip-path="url(#clip510)" d="M42.4881 674.149 L64.0042 674.149 L64.0042 680.005 L42.679 680.005 Q37.6183 680.005 35.1038 681.979 Q32.5894 683.952 32.5894 687.899 Q32.5894 692.641 35.6131 695.379 Q38.6368 698.116 43.8567 698.116 L64.0042 698.116 L64.0042 704.004 L28.3562 704.004 L28.3562 698.116 L33.8944 698.116 Q30.6797 696.015 29.0883 693.182 Q27.4968 690.318 27.4968 686.594 Q27.4968 680.451 31.3163 677.3 Q35.1038 674.149 42.4881 674.149 Z" fill="#000000" fill-rule="nonzero" fill-opacity="1" /><path clip-path="url(#clip510)" d="M45.7664 639.01 Q39.4007 639.01 35.8996 641.652 Q32.3984 644.262 32.3984 649.004 Q32.3984 653.715 35.8996 656.357 Q39.4007 658.967 45.7664 658.967 Q52.1003 658.967 55.6014 656.357 Q59.1026 653.715 59.1026 649.004 Q59.1026 644.262 55.6014 641.652 Q52.1003 639.01 45.7664 639.01 M59.58 633.154 Q68.683 633.154 73.1071 637.196 Q77.5631 641.238 77.5631 649.577 Q77.5631 652.665 77.0857 655.402 Q76.6401 658.139 75.6852 660.717 L69.9879 660.717 Q71.3884 658.139 72.0568 655.625 Q72.7252 653.11 72.7252 650.5 Q72.7252 644.739 69.7015 641.875 Q66.7096 639.01 60.6303 639.01 L57.7339 639.01 Q60.885 640.824 62.4446 643.657 Q64.0042 646.49 64.0042 650.437 Q64.0042 656.993 59.0071 661.004 Q54.01 665.014 45.7664 665.014 Q37.491 665.014 32.4939 661.004 Q27.4968 656.993 27.4968 650.437 Q27.4968 646.49 29.0564 643.657 Q30.616 640.824 33.7671 639.01 L28.3562 639.01 L28.3562 633.154 L59.58 633.154 Z" fill="#000000" fill-rule="nonzero" fill-opacity="1" /><path clip-path="url(#clip510)" d="M14.479 621.091 L14.479 615.234 L64.0042 615.234 L64.0042 621.091 L14.479 621.091 Z" fill="#000000" fill-rule="nonzero" fill-opacity="1" /><path clip-path="url(#clip510)" d="M44.7161 572.489 L47.5806 572.489 L47.5806 599.416 Q53.6281 599.034 56.8109 595.787 Q59.9619 592.509 59.9619 586.684 Q59.9619 583.31 59.1344 580.159 Q58.3069 576.976 56.6518 573.857 L62.1899 573.857 Q63.5267 577.008 64.227 580.318 Q64.9272 583.629 64.9272 587.034 Q64.9272 595.564 59.9619 600.561 Q54.9967 605.527 46.5303 605.527 Q37.7774 605.527 32.6531 600.816 Q27.4968 596.074 27.4968 588.053 Q27.4968 580.859 32.1438 576.69 Q36.7589 572.489 44.7161 572.489 M42.9973 578.345 Q38.1912 578.409 35.3266 581.05 Q32.4621 583.66 32.4621 587.989 Q32.4621 592.891 35.2312 595.851 Q38.0002 598.779 43.0292 599.225 L42.9973 578.345 Z" fill="#000000" fill-rule="nonzero" fill-opacity="1" /><path clip-path="url(#clip510)" d="M14.479 523.982 L27.6241 523.982 Q27.6241 517.648 32.4939 513.415 Q37.4592 509.054 46.212 509.054 Q54.9649 509.054 59.9301 513.415 Q64.7999 517.648 64.7999 523.982 L77.5631 523.982 L77.5631 529.807 L64.7999 529.807 Q64.7999 536.14 59.9301 540.405 Q54.9649 544.734 46.212 544.734 Q37.4592 544.734 32.4939 540.405 Q27.6241 536.14 27.6241 529.807 L14.479 529.807 L14.479 523.982 M59.58 523.982 Q59.58 520.385 56.3017 517.934 Q52.6414 515.261 46.212 515.229 Q39.8463 515.197 36.1224 517.934 Q32.844 520.385 32.844 523.982 L59.58 523.982 M59.58 529.807 L32.844 529.807 Q32.844 533.403 36.1224 535.822 Q39.8463 538.591 46.212 538.559 Q52.6414 538.528 56.3017 535.822 Q59.58 533.403 59.58 529.807 Z" fill="#000000" fill-rule="nonzero" fill-opacity="1" /><polyline clip-path="url(#clip512)" style="stroke:#009af9; stroke-linecap:round; stroke-linejoin:round; stroke-width:4; stroke-opacity:1; fill:none" points="271.931,732.232 279.854,716.482 287.776,817.547 295.698,878.227 303.621,751.811 311.543,583.23 319.466,409.365 327.388,370.629 335.311,573.773 343.233,770.578 351.155,805.492 359.078,823.957 367,912.391 374.923,806.896 382.845,688.564 390.768,724.553 398.69,597.573 406.612,325.485 414.535,391.198 422.457,736.844 430.38,727.477 438.302,746.746 446.225,891.692 454.147,905.766 462.069,769.002 469.992,666.919 477.914,795.44 485.837,833.901 493.759,818.863 501.681,889.854 509.604,958.857 517.526,876.42 525.449,588.395 533.371,343.435 541.294,504.382 549.216,738.181 557.138,906.625 565.061,1052.85 572.983,884.476 580.906,422.493 588.828,293.985 596.751,583.738 604.673,814.848 612.595,799.967 620.518,769.207 628.44,644.01 636.363,612.643 644.285,683.171 652.208,625.72 660.13,776.881 668.052,710.378 675.975,764.311 683.897,879.544 691.82,682.208 699.742,527.425 707.665,572.744 715.587,846.109 723.509,860.644 731.432,822.681 739.354,964.345 747.277,919.88 755.199,552.467 763.121,86.1857 771.044,152.289 778.966,439.374 786.889,626.346 794.811,749.805 802.734,678.248 810.656,507.026 818.578,561.966 826.501,774.527 834.423,748.768 842.346,646.148 850.268,596.556 858.191,663.444 866.113,753.282 874.035,735.06 881.958,770.841 889.88,811.694 897.803,588.882 905.725,534.807 913.648,520.898 921.57,620.032 929.492,789.986 937.415,781.37 945.337,733.455 953.26,709.832 961.182,667.486 969.105,634.046 977.027,667.066 984.949,830.661 992.872,898.886 1000.79,908.869 1008.72,878.624 1016.64,760.548 1024.56,587.672 1032.48,431.494 1040.41,527.547 1048.33,598.423 1056.25,235.665 1064.17,110.237 1072.1,390.999 1080.02,740.172 1087.94,1137.93 1095.86,1384.24 1103.79,1170.08 1111.71,955.294 1119.63,966.193 1127.55,939.507 1135.48,747.012 1143.4,694.149 1151.32,803.078 1159.24,740.346 1167.17,704.848 1175.09,554.098 1183.01,362.892 1190.93,379.606 1198.85,597.766 1206.78,672.321 1214.7,551.248 1222.62,553.037 1230.54,608.71 1238.47,624.352 1246.39,661.233 1254.31,601.917 1262.23,640.769 1270.16,806.372 1278.08,876.415 1286,943.014 1293.92,944.196 1301.85,761.971 1309.77,621.418 1317.69,548.278 1325.61,490.555 1333.54,604.411 1341.46,721.424 1349.38,684.099 1357.3,644.781 1365.23,593.226 1373.15,620.478 1381.07,627.896 1388.99,751.677 1396.92,915.02 1404.84,855.101 1412.76,683.276 1420.68,685.711 1428.61,750.309 1436.53,927.329 1444.45,787.123 1452.37,516.294 1460.29,636.972 1468.22,855.107 1476.14,933.456 1484.06,777.639 1491.98,581.342 1499.91,630.547 1507.83,795.887 1515.75,955.002 1523.67,779.862 1531.6,451.277 1539.52,451.672 1547.44,684.681 1555.36,795.261 1563.29,805.193 1571.21,505.227 1579.13,175.953 1587.05,303.339 1594.98,515.058 1602.9,713.144 1610.82,963.433 1618.74,1083.85 1626.67,1146.01 1634.59,1017.23 1642.51,645.962 1650.43,442.042 1658.36,190.855 1666.28,216.517 1674.2,591.543 1682.12,671.255 1690.05,688.627 1697.97,961.707 1705.89,1080.33 1713.81,993.573 1721.73,952.944 1729.66,923.389 1737.58,859.474 1745.5,717.707 1753.42,650.9 1761.35,669.731 1769.27,807.437 1777.19,788.447 1785.11,671.989 1793.04,693.078 1800.96,857.878 1808.88,891.606 1816.8,739.142 1824.73,574.251 1832.65,716.477 1840.57,771.97 1848.49,516.168 1856.42,400.9 1864.34,600.837 1872.26,724.993 1880.18,661.93 1888.11,528.951 1896.03,327.441 1903.95,299.319 1911.87,522.305 1919.8,602.9 1927.72,588.493 1935.64,831.458 1943.56,787.13 1951.49,718.755 1959.41,882.355 1967.33,1012.88 1975.25,1061.13 1983.17,786.251 1991.1,330.587 1999.02,236.339 2006.94,810.458 2014.86,1068.37 2022.79,950.346 2030.71,826.596 2038.63,705.308 2046.55,597.051 2054.48,508.82 2062.4,563.304 2070.32,680.248 2078.24,682.149 2086.17,604.138 2094.09,643.865 2102.01,710.447 2109.93,855.286 2117.86,749.995 2125.78,553.324 2133.7,512.157 2141.62,546.441 2149.55,593.288 2157.47,679.155 2165.39,799.713 2173.31,876.562 2181.24,806.022 2189.16,880.378 2197.08,981.882 2205,970.093 2212.93,718.035 2220.85,610.611 2228.77,578.433 2236.69,400.214 2244.61,298.176 2252.54,594.524 2260.46,978.609 2268.38,937.809 2276.3,584.593 2284.23,451.503 2292.15,674.665 "/>
<path clip-path="url(#clip510)" d="M1934.01 1377.32 L2281.37 1377.32 L2281.37 1273.64 L1934.01 1273.64  Z" fill="#ffffff" fill-rule="evenodd" fill-opacity="1"/>
<polyline clip-path="url(#clip510)" style="stroke:#000000; stroke-linecap:round; stroke-linejoin:round; stroke-width:4; stroke-opacity:1; fill:none" points="1934.01,1377.32 2281.37,1377.32 2281.37,1273.64 1934.01,1273.64 1934.01,1377.32 "/>
<polyline clip-path="url(#clip510)" style="stroke:#009af9; stroke-linecap:round; stroke-linejoin:round; stroke-width:4; stroke-opacity:1; fill:none" points="1957.81,1325.48 2100.57,1325.48 "/>
<path clip-path="url(#clip510)" d="M2142.79 1317.59 L2142.79 1321.62 Q2140.98 1320.7 2139.04 1320.23 Q2137.1 1319.77 2135.01 1319.77 Q2131.84 1319.77 2130.24 1320.74 Q2128.67 1321.71 2128.67 1323.66 Q2128.67 1325.14 2129.8 1326 Q2130.94 1326.83 2134.36 1327.59 L2135.82 1327.92 Q2140.36 1328.89 2142.26 1330.67 Q2144.18 1332.43 2144.18 1335.6 Q2144.18 1339.21 2141.31 1341.32 Q2138.46 1343.43 2133.46 1343.43 Q2131.38 1343.43 2129.11 1343.01 Q2126.86 1342.62 2124.36 1341.81 L2124.36 1337.41 Q2126.73 1338.63 2129.02 1339.26 Q2131.31 1339.86 2133.55 1339.86 Q2136.56 1339.86 2138.18 1338.84 Q2139.8 1337.8 2139.8 1335.93 Q2139.8 1334.19 2138.62 1333.26 Q2137.47 1332.34 2133.51 1331.48 L2132.03 1331.14 Q2128.07 1330.3 2126.31 1328.59 Q2124.55 1326.85 2124.55 1323.84 Q2124.55 1320.19 2127.14 1318.2 Q2129.73 1316.2 2134.5 1316.2 Q2136.86 1316.2 2138.95 1316.55 Q2141.03 1316.9 2142.79 1317.59 Z" fill="#000000" fill-rule="nonzero" fill-opacity="1" /><path clip-path="url(#clip510)" d="M2150.96 1316.83 L2155.22 1316.83 L2155.22 1342.76 L2150.96 1342.76 L2150.96 1316.83 M2150.96 1306.74 L2155.22 1306.74 L2155.22 1312.13 L2150.96 1312.13 L2150.96 1306.74 Z" fill="#000000" fill-rule="nonzero" fill-opacity="1" /><path clip-path="url(#clip510)" d="M2181.19 1329.49 Q2181.19 1324.86 2179.27 1322.32 Q2177.37 1319.77 2173.92 1319.77 Q2170.5 1319.77 2168.58 1322.32 Q2166.68 1324.86 2166.68 1329.49 Q2166.68 1334.1 2168.58 1336.64 Q2170.5 1339.19 2173.92 1339.19 Q2177.37 1339.19 2179.27 1336.64 Q2181.19 1334.1 2181.19 1329.49 M2185.45 1339.54 Q2185.45 1346.16 2182.51 1349.38 Q2179.57 1352.62 2173.51 1352.62 Q2171.26 1352.62 2169.27 1352.27 Q2167.28 1351.95 2165.41 1351.25 L2165.41 1347.11 Q2167.28 1348.13 2169.11 1348.61 Q2170.94 1349.1 2172.84 1349.1 Q2177.03 1349.1 2179.11 1346.9 Q2181.19 1344.72 2181.19 1340.3 L2181.19 1338.2 Q2179.87 1340.49 2177.81 1341.62 Q2175.75 1342.76 2172.88 1342.76 Q2168.11 1342.76 2165.2 1339.12 Q2162.28 1335.49 2162.28 1329.49 Q2162.28 1323.47 2165.2 1319.84 Q2168.11 1316.2 2172.88 1316.2 Q2175.75 1316.2 2177.81 1317.34 Q2179.87 1318.47 2181.19 1320.76 L2181.19 1316.83 L2185.45 1316.83 L2185.45 1339.54 Z" fill="#000000" fill-rule="nonzero" fill-opacity="1" /><path clip-path="url(#clip510)" d="M2215.78 1327.11 L2215.78 1342.76 L2211.52 1342.76 L2211.52 1327.25 Q2211.52 1323.57 2210.08 1321.74 Q2208.65 1319.91 2205.78 1319.91 Q2202.33 1319.91 2200.34 1322.11 Q2198.35 1324.31 2198.35 1328.1 L2198.35 1342.76 L2194.06 1342.76 L2194.06 1316.83 L2198.35 1316.83 L2198.35 1320.86 Q2199.87 1318.52 2201.93 1317.36 Q2204.02 1316.2 2206.72 1316.2 Q2211.19 1316.2 2213.48 1318.98 Q2215.78 1321.74 2215.78 1327.11 Z" fill="#000000" fill-rule="nonzero" fill-opacity="1" /><path clip-path="url(#clip510)" d="M2236.05 1329.72 Q2230.89 1329.72 2228.9 1330.9 Q2226.91 1332.08 2226.91 1334.93 Q2226.91 1337.2 2228.39 1338.54 Q2229.9 1339.86 2232.47 1339.86 Q2236.01 1339.86 2238.14 1337.36 Q2240.29 1334.84 2240.29 1330.67 L2240.29 1329.72 L2236.05 1329.72 M2244.55 1327.96 L2244.55 1342.76 L2240.29 1342.76 L2240.29 1338.82 Q2238.83 1341.18 2236.66 1342.32 Q2234.48 1343.43 2231.33 1343.43 Q2227.35 1343.43 2224.99 1341.2 Q2222.65 1338.96 2222.65 1335.21 Q2222.65 1330.83 2225.57 1328.61 Q2228.51 1326.39 2234.32 1326.39 L2240.29 1326.39 L2240.29 1325.97 Q2240.29 1323.03 2238.35 1321.44 Q2236.42 1319.82 2232.93 1319.82 Q2230.71 1319.82 2228.6 1320.35 Q2226.49 1320.88 2224.55 1321.95 L2224.55 1318.01 Q2226.89 1317.11 2229.09 1316.67 Q2231.29 1316.2 2233.37 1316.2 Q2238.99 1316.2 2241.77 1319.12 Q2244.55 1322.04 2244.55 1327.96 Z" fill="#000000" fill-rule="nonzero" fill-opacity="1" /><path clip-path="url(#clip510)" d="M2253.32 1306.74 L2257.58 1306.74 L2257.58 1342.76 L2253.32 1342.76 L2253.32 1306.74 Z" fill="#000000" fill-rule="nonzero" fill-opacity="1" /></svg>
