<?xml version="1.0" encoding="utf-8"?>
<svg xmlns="http://www.w3.org/2000/svg" xmlns:xlink="http://www.w3.org/1999/xlink" width="600" height="400" viewBox="0 0 2400 1600">
<defs>
  <clipPath id="clip900">
    <rect x="0" y="0" width="2400" height="1600"/>
  </clipPath>
</defs>
<path clip-path="url(#clip900)" d="M0 1600 L2400 1600 L2400 0 L0 0  Z" fill="#ffffff" fill-rule="evenodd" fill-opacity="1"/>
<defs>
  <clipPath id="clip901">
    <rect x="480" y="0" width="1681" height="1600"/>
  </clipPath>
</defs>
<path clip-path="url(#clip900)" d="M148.057 1486.45 L2352.76 1486.45 L2352.76 47.2441 L148.057 47.2441  Z" fill="#ffffff" fill-rule="evenodd" fill-opacity="1"/>
<defs>
  <clipPath id="clip902">
    <rect x="148" y="47" width="2206" height="1440"/>
  </clipPath>
</defs>
<polyline clip-path="url(#clip902)" style="stroke:#000000; stroke-linecap:round; stroke-linejoin:round; stroke-width:2; stroke-opacity:0.1; fill:none" points="202.297,1486.45 202.297,47.2441 "/>
<polyline clip-path="url(#clip902)" style="stroke:#000000; stroke-linecap:round; stroke-linejoin:round; stroke-width:2; stroke-opacity:0.1; fill:none" points="528.557,1486.45 528.557,47.2441 "/>
<polyline clip-path="url(#clip902)" style="stroke:#000000; stroke-linecap:round; stroke-linejoin:round; stroke-width:2; stroke-opacity:0.1; fill:none" points="854.816,1486.45 854.816,47.2441 "/>
<polyline clip-path="url(#clip902)" style="stroke:#000000; stroke-linecap:round; stroke-linejoin:round; stroke-width:2; stroke-opacity:0.1; fill:none" points="1181.08,1486.45 1181.08,47.2441 "/>
<polyline clip-path="url(#clip902)" style="stroke:#000000; stroke-linecap:round; stroke-linejoin:round; stroke-width:2; stroke-opacity:0.1; fill:none" points="1507.34,1486.45 1507.34,47.2441 "/>
<polyline clip-path="url(#clip902)" style="stroke:#000000; stroke-linecap:round; stroke-linejoin:round; stroke-width:2; stroke-opacity:0.1; fill:none" points="1833.6,1486.45 1833.6,47.2441 "/>
<polyline clip-path="url(#clip902)" style="stroke:#000000; stroke-linecap:round; stroke-linejoin:round; stroke-width:2; stroke-opacity:0.1; fill:none" points="2159.85,1486.45 2159.85,47.2441 "/>
<polyline clip-path="url(#clip902)" style="stroke:#000000; stroke-linecap:round; stroke-linejoin:round; stroke-width:2; stroke-opacity:0.1; fill:none" points="148.057,1448.33 2352.76,1448.33 "/>
<polyline clip-path="url(#clip902)" style="stroke:#000000; stroke-linecap:round; stroke-linejoin:round; stroke-width:2; stroke-opacity:0.1; fill:none" points="148.057,1216.68 2352.76,1216.68 "/>
<polyline clip-path="url(#clip902)" style="stroke:#000000; stroke-linecap:round; stroke-linejoin:round; stroke-width:2; stroke-opacity:0.1; fill:none" points="148.057,985.02 2352.76,985.02 "/>
<polyline clip-path="url(#clip902)" style="stroke:#000000; stroke-linecap:round; stroke-linejoin:round; stroke-width:2; stroke-opacity:0.1; fill:none" points="148.057,753.364 2352.76,753.364 "/>
<polyline clip-path="url(#clip902)" style="stroke:#000000; stroke-linecap:round; stroke-linejoin:round; stroke-width:2; stroke-opacity:0.1; fill:none" points="148.057,521.709 2352.76,521.709 "/>
<polyline clip-path="url(#clip902)" style="stroke:#000000; stroke-linecap:round; stroke-linejoin:round; stroke-width:2; stroke-opacity:0.1; fill:none" points="148.057,290.054 2352.76,290.054 "/>
<polyline clip-path="url(#clip902)" style="stroke:#000000; stroke-linecap:round; stroke-linejoin:round; stroke-width:2; stroke-opacity:0.1; fill:none" points="148.057,58.3981 2352.76,58.3981 "/>
<polyline clip-path="url(#clip900)" style="stroke:#000000; stroke-linecap:round; stroke-linejoin:round; stroke-width:4; stroke-opacity:1; fill:none" points="148.057,1486.45 2352.76,1486.45 "/>
<polyline clip-path="url(#clip900)" style="stroke:#000000; stroke-linecap:round; stroke-linejoin:round; stroke-width:4; stroke-opacity:1; fill:none" points="202.297,1486.45 202.297,1467.55 "/>
<polyline clip-path="url(#clip900)" style="stroke:#000000; stroke-linecap:round; stroke-linejoin:round; stroke-width:4; stroke-opacity:1; fill:none" points="528.557,1486.45 528.557,1467.55 "/>
<polyline clip-path="url(#clip900)" style="stroke:#000000; stroke-linecap:round; stroke-linejoin:round; stroke-width:4; stroke-opacity:1; fill:none" points="854.816,1486.45 854.816,1467.55 "/>
<polyline clip-path="url(#clip900)" style="stroke:#000000; stroke-linecap:round; stroke-linejoin:round; stroke-width:4; stroke-opacity:1; fill:none" points="1181.08,1486.45 1181.08,1467.55 "/>
<polyline clip-path="url(#clip900)" style="stroke:#000000; stroke-linecap:round; stroke-linejoin:round; stroke-width:4; stroke-opacity:1; fill:none" points="1507.34,1486.45 1507.34,1467.55 "/>
<polyline clip-path="url(#clip900)" style="stroke:#000000; stroke-linecap:round; stroke-linejoin:round; stroke-width:4; stroke-opacity:1; fill:none" points="1833.6,1486.45 1833.6,1467.55 "/>
<polyline clip-path="url(#clip900)" style="stroke:#000000; stroke-linecap:round; stroke-linejoin:round; stroke-width:4; stroke-opacity:1; fill:none" points="2159.85,1486.45 2159.85,1467.55 "/>
<path clip-path="url(#clip900)" d="M202.297 1517.37 Q198.686 1517.37 196.857 1520.93 Q195.052 1524.47 195.052 1531.6 Q195.052 1538.71 196.857 1542.27 Q198.686 1545.82 202.297 1545.82 Q205.932 1545.82 207.737 1542.27 Q209.566 1538.71 209.566 1531.6 Q209.566 1524.47 207.737 1520.93 Q205.932 1517.37 202.297 1517.37 M202.297 1513.66 Q208.107 1513.66 211.163 1518.27 Q214.242 1522.85 214.242 1531.6 Q214.242 1540.33 211.163 1544.94 Q208.107 1549.52 202.297 1549.52 Q196.487 1549.52 193.408 1544.94 Q190.353 1540.33 190.353 1531.6 Q190.353 1522.85 193.408 1518.27 Q196.487 1513.66 202.297 1513.66 Z" fill="#000000" fill-rule="nonzero" fill-opacity="1" /><path clip-path="url(#clip900)" d="M503.245 1544.91 L510.883 1544.91 L510.883 1518.55 L502.573 1520.21 L502.573 1515.95 L510.837 1514.29 L515.513 1514.29 L515.513 1544.91 L523.152 1544.91 L523.152 1548.85 L503.245 1548.85 L503.245 1544.91 Z" fill="#000000" fill-rule="nonzero" fill-opacity="1" /><path clip-path="url(#clip900)" d="M542.596 1517.37 Q538.985 1517.37 537.156 1520.93 Q535.351 1524.47 535.351 1531.6 Q535.351 1538.71 537.156 1542.27 Q538.985 1545.82 542.596 1545.82 Q546.23 1545.82 548.036 1542.27 Q549.865 1538.71 549.865 1531.6 Q549.865 1524.47 548.036 1520.93 Q546.23 1517.37 542.596 1517.37 M542.596 1513.66 Q548.406 1513.66 551.462 1518.27 Q554.541 1522.85 554.541 1531.6 Q554.541 1540.33 551.462 1544.94 Q548.406 1549.52 542.596 1549.52 Q536.786 1549.52 533.707 1544.94 Q530.652 1540.33 530.652 1531.6 Q530.652 1522.85 533.707 1518.27 Q536.786 1513.66 542.596 1513.66 Z" fill="#000000" fill-rule="nonzero" fill-opacity="1" /><path clip-path="url(#clip900)" d="M833.59 1544.91 L849.909 1544.91 L849.909 1548.85 L827.965 1548.85 L827.965 1544.91 Q830.627 1542.16 835.21 1537.53 Q839.817 1532.88 840.997 1531.53 Q843.242 1529.01 844.122 1527.27 Q845.025 1525.51 845.025 1523.82 Q845.025 1521.07 843.08 1519.33 Q841.159 1517.6 838.057 1517.6 Q835.858 1517.6 833.405 1518.36 Q830.974 1519.13 828.196 1520.68 L828.196 1515.95 Q831.02 1514.82 833.474 1514.24 Q835.928 1513.66 837.965 1513.66 Q843.335 1513.66 846.529 1516.35 Q849.724 1519.03 849.724 1523.52 Q849.724 1525.65 848.914 1527.57 Q848.127 1529.47 846.02 1532.07 Q845.442 1532.74 842.34 1535.95 Q839.238 1539.15 833.59 1544.91 Z" fill="#000000" fill-rule="nonzero" fill-opacity="1" /><path clip-path="url(#clip900)" d="M869.724 1517.37 Q866.113 1517.37 864.284 1520.93 Q862.478 1524.47 862.478 1531.6 Q862.478 1538.71 864.284 1542.27 Q866.113 1545.82 869.724 1545.82 Q873.358 1545.82 875.164 1542.27 Q876.992 1538.71 876.992 1531.6 Q876.992 1524.47 875.164 1520.93 Q873.358 1517.37 869.724 1517.37 M869.724 1513.66 Q875.534 1513.66 878.59 1518.27 Q881.668 1522.85 881.668 1531.6 Q881.668 1540.33 878.59 1544.94 Q875.534 1549.52 869.724 1549.52 Q863.914 1549.52 860.835 1544.94 Q857.779 1540.33 857.779 1531.6 Q857.779 1522.85 860.835 1518.27 Q863.914 1513.66 869.724 1513.66 Z" fill="#000000" fill-rule="nonzero" fill-opacity="1" /><path clip-path="url(#clip900)" d="M1169.92 1530.21 Q1173.28 1530.93 1175.15 1533.2 Q1177.05 1535.47 1177.05 1538.8 Q1177.05 1543.92 1173.53 1546.72 Q1170.01 1549.52 1163.53 1549.52 Q1161.35 1549.52 1159.04 1549.08 Q1156.75 1548.66 1154.29 1547.81 L1154.29 1543.29 Q1156.24 1544.43 1158.55 1545.01 Q1160.87 1545.58 1163.39 1545.58 Q1167.79 1545.58 1170.08 1543.85 Q1172.4 1542.11 1172.4 1538.8 Q1172.4 1535.75 1170.24 1534.03 Q1168.11 1532.3 1164.29 1532.3 L1160.27 1532.3 L1160.27 1528.45 L1164.48 1528.45 Q1167.93 1528.45 1169.76 1527.09 Q1171.59 1525.7 1171.59 1523.11 Q1171.59 1520.45 1169.69 1519.03 Q1167.81 1517.6 1164.29 1517.6 Q1162.37 1517.6 1160.17 1518.01 Q1157.97 1518.43 1155.34 1519.31 L1155.34 1515.14 Q1158 1514.4 1160.31 1514.03 Q1162.65 1513.66 1164.71 1513.66 Q1170.03 1513.66 1173.14 1516.09 Q1176.24 1518.5 1176.24 1522.62 Q1176.24 1525.49 1174.59 1527.48 Q1172.95 1529.45 1169.92 1530.21 Z" fill="#000000" fill-rule="nonzero" fill-opacity="1" /><path clip-path="url(#clip900)" d="M1195.91 1517.37 Q1192.3 1517.37 1190.47 1520.93 Q1188.67 1524.47 1188.67 1531.6 Q1188.67 1538.71 1190.47 1542.27 Q1192.3 1545.82 1195.91 1545.82 Q1199.55 1545.82 1201.35 1542.27 Q1203.18 1538.71 1203.18 1531.6 Q1203.18 1524.47 1201.35 1520.93 Q1199.55 1517.37 1195.91 1517.37 M1195.91 1513.66 Q1201.72 1513.66 1204.78 1518.27 Q1207.86 1522.85 1207.86 1531.6 Q1207.86 1540.33 1204.78 1544.94 Q1201.72 1549.52 1195.91 1549.52 Q1190.1 1549.52 1187.03 1544.94 Q1183.97 1540.33 1183.97 1531.6 Q1183.97 1522.85 1187.03 1518.27 Q1190.1 1513.66 1195.91 1513.66 Z" fill="#000000" fill-rule="nonzero" fill-opacity="1" /><path clip-path="url(#clip900)" d="M1495.51 1518.36 L1483.7 1536.81 L1495.51 1536.81 L1495.51 1518.36 M1494.28 1514.29 L1500.16 1514.29 L1500.16 1536.81 L1505.09 1536.81 L1505.09 1540.7 L1500.16 1540.7 L1500.16 1548.85 L1495.51 1548.85 L1495.51 1540.7 L1479.91 1540.7 L1479.91 1536.19 L1494.28 1514.29 Z" fill="#000000" fill-rule="nonzero" fill-opacity="1" /><path clip-path="url(#clip900)" d="M1522.82 1517.37 Q1519.21 1517.37 1517.38 1520.93 Q1515.58 1524.47 1515.58 1531.6 Q1515.58 1538.71 1517.38 1542.27 Q1519.21 1545.82 1522.82 1545.82 Q1526.46 1545.82 1528.26 1542.27 Q1530.09 1538.71 1530.09 1531.6 Q1530.09 1524.47 1528.26 1520.93 Q1526.46 1517.37 1522.82 1517.37 M1522.82 1513.66 Q1528.63 1513.66 1531.69 1518.27 Q1534.77 1522.85 1534.77 1531.6 Q1534.77 1540.33 1531.69 1544.94 Q1528.63 1549.52 1522.82 1549.52 Q1517.01 1549.52 1513.93 1544.94 Q1510.88 1540.33 1510.88 1531.6 Q1510.88 1522.85 1513.93 1518.27 Q1517.01 1513.66 1522.82 1513.66 Z" fill="#000000" fill-rule="nonzero" fill-opacity="1" /><path clip-path="url(#clip900)" d="M1808.29 1514.29 L1826.65 1514.29 L1826.65 1518.22 L1812.58 1518.22 L1812.58 1526.7 Q1813.6 1526.35 1814.61 1526.19 Q1815.63 1526 1816.65 1526 Q1822.44 1526 1825.82 1529.17 Q1829.2 1532.34 1829.2 1537.76 Q1829.2 1543.34 1825.72 1546.44 Q1822.25 1549.52 1815.93 1549.52 Q1813.76 1549.52 1811.49 1549.15 Q1809.24 1548.78 1806.84 1548.04 L1806.84 1543.34 Q1808.92 1544.47 1811.14 1545.03 Q1813.36 1545.58 1815.84 1545.58 Q1819.85 1545.58 1822.18 1543.48 Q1824.52 1541.37 1824.52 1537.76 Q1824.52 1534.15 1822.18 1532.04 Q1819.85 1529.94 1815.84 1529.94 Q1813.97 1529.94 1812.09 1530.35 Q1810.24 1530.77 1808.29 1531.65 L1808.29 1514.29 Z" fill="#000000" fill-rule="nonzero" fill-opacity="1" /><path clip-path="url(#clip900)" d="M1848.41 1517.37 Q1844.8 1517.37 1842.97 1520.93 Q1841.16 1524.47 1841.16 1531.6 Q1841.16 1538.71 1842.97 1542.27 Q1844.8 1545.82 1848.41 1545.82 Q1852.04 1545.82 1853.85 1542.27 Q1855.68 1538.71 1855.68 1531.6 Q1855.68 1524.47 1853.85 1520.93 Q1852.04 1517.37 1848.41 1517.37 M1848.41 1513.66 Q1854.22 1513.66 1857.28 1518.27 Q1860.35 1522.85 1860.35 1531.6 Q1860.35 1540.33 1857.28 1544.94 Q1854.22 1549.52 1848.41 1549.52 Q1842.6 1549.52 1839.52 1544.94 Q1836.47 1540.33 1836.47 1531.6 Q1836.47 1522.85 1839.52 1518.27 Q1842.6 1513.66 1848.41 1513.66 Z" fill="#000000" fill-rule="nonzero" fill-opacity="1" /><path clip-path="url(#clip900)" d="M2145.26 1529.7 Q2142.11 1529.7 2140.26 1531.86 Q2138.43 1534.01 2138.43 1537.76 Q2138.43 1541.49 2140.26 1543.66 Q2142.11 1545.82 2145.26 1545.82 Q2148.41 1545.82 2150.24 1543.66 Q2152.09 1541.49 2152.09 1537.76 Q2152.09 1534.01 2150.24 1531.86 Q2148.41 1529.7 2145.26 1529.7 M2154.54 1515.05 L2154.54 1519.31 Q2152.78 1518.48 2150.98 1518.04 Q2149.2 1517.6 2147.44 1517.6 Q2142.81 1517.6 2140.35 1520.72 Q2137.92 1523.85 2137.57 1530.17 Q2138.94 1528.15 2141 1527.09 Q2143.06 1526 2145.54 1526 Q2150.75 1526 2153.76 1529.17 Q2156.79 1532.32 2156.79 1537.76 Q2156.79 1543.08 2153.64 1546.3 Q2150.49 1549.52 2145.26 1549.52 Q2139.26 1549.52 2136.09 1544.94 Q2132.92 1540.33 2132.92 1531.6 Q2132.92 1523.41 2136.81 1518.55 Q2140.7 1513.66 2147.25 1513.66 Q2149.01 1513.66 2150.79 1514.01 Q2152.6 1514.36 2154.54 1515.05 Z" fill="#000000" fill-rule="nonzero" fill-opacity="1" /><path clip-path="url(#clip900)" d="M2174.84 1517.37 Q2171.23 1517.37 2169.4 1520.93 Q2167.6 1524.47 2167.6 1531.6 Q2167.6 1538.71 2169.4 1542.27 Q2171.23 1545.82 2174.84 1545.82 Q2178.48 1545.82 2180.28 1542.27 Q2182.11 1538.71 2182.11 1531.6 Q2182.11 1524.47 2180.28 1520.93 Q2178.48 1517.37 2174.84 1517.37 M2174.84 1513.66 Q2180.65 1513.66 2183.71 1518.27 Q2186.79 1522.85 2186.79 1531.6 Q2186.79 1540.33 2183.71 1544.94 Q2180.65 1549.52 2174.84 1549.52 Q2169.03 1549.52 2165.95 1544.94 Q2162.9 1540.33 2162.9 1531.6 Q2162.9 1522.85 2165.95 1518.27 Q2169.03 1513.66 2174.84 1513.66 Z" fill="#000000" fill-rule="nonzero" fill-opacity="1" /><polyline clip-path="url(#clip900)" style="stroke:#000000; stroke-linecap:round; stroke-linejoin:round; stroke-width:4; stroke-opacity:1; fill:none" points="148.057,1486.45 148.057,47.2441 "/>
<polyline clip-path="url(#clip900)" style="stroke:#000000; stroke-linecap:round; stroke-linejoin:round; stroke-width:4; stroke-opacity:1; fill:none" points="148.057,1448.33 166.954,1448.33 "/>
<polyline clip-path="url(#clip900)" style="stroke:#000000; stroke-linecap:round; stroke-linejoin:round; stroke-width:4; stroke-opacity:1; fill:none" points="148.057,1216.68 166.954,1216.68 "/>
<polyline clip-path="url(#clip900)" style="stroke:#000000; stroke-linecap:round; stroke-linejoin:round; stroke-width:4; stroke-opacity:1; fill:none" points="148.057,985.02 166.954,985.02 "/>
<polyline clip-path="url(#clip900)" style="stroke:#000000; stroke-linecap:round; stroke-linejoin:round; stroke-width:4; stroke-opacity:1; fill:none" points="148.057,753.364 166.954,753.364 "/>
<polyline clip-path="url(#clip900)" style="stroke:#000000; stroke-linecap:round; stroke-linejoin:round; stroke-width:4; stroke-opacity:1; fill:none" points="148.057,521.709 166.954,521.709 "/>
<polyline clip-path="url(#clip900)" style="stroke:#000000; stroke-linecap:round; stroke-linejoin:round; stroke-width:4; stroke-opacity:1; fill:none" points="148.057,290.054 166.954,290.054 "/>
<polyline clip-path="url(#clip900)" style="stroke:#000000; stroke-linecap:round; stroke-linejoin:round; stroke-width:4; stroke-opacity:1; fill:none" points="148.057,58.3981 166.954,58.3981 "/>
<path clip-path="url(#clip900)" d="M50.9921 1448.78 L80.6679 1448.78 L80.6679 1452.72 L50.9921 1452.72 L50.9921 1448.78 Z" fill="#000000" fill-rule="nonzero" fill-opacity="1" /><path clip-path="url(#clip900)" d="M104.927 1446.98 Q108.283 1447.69 110.158 1449.96 Q112.057 1452.23 112.057 1455.56 Q112.057 1460.68 108.538 1463.48 Q105.02 1466.28 98.5382 1466.28 Q96.3623 1466.28 94.0475 1465.84 Q91.7558 1465.43 89.3021 1464.57 L89.3021 1460.06 Q91.2465 1461.19 93.5613 1461.77 Q95.8761 1462.35 98.3993 1462.35 Q102.797 1462.35 105.089 1460.61 Q107.404 1458.87 107.404 1455.56 Q107.404 1452.51 105.251 1450.8 Q103.121 1449.06 99.3021 1449.06 L95.2743 1449.06 L95.2743 1445.22 L99.4872 1445.22 Q102.936 1445.22 104.765 1443.85 Q106.594 1442.46 106.594 1439.87 Q106.594 1437.21 104.696 1435.8 Q102.821 1434.36 99.3021 1434.36 Q97.3808 1434.36 95.1817 1434.78 Q92.9826 1435.19 90.3438 1436.07 L90.3438 1431.91 Q93.0058 1431.17 95.3206 1430.8 Q97.6585 1430.43 99.7187 1430.43 Q105.043 1430.43 108.145 1432.86 Q111.246 1435.26 111.246 1439.38 Q111.246 1442.25 109.603 1444.25 Q107.959 1446.21 104.927 1446.98 Z" fill="#000000" fill-rule="nonzero" fill-opacity="1" /><path clip-path="url(#clip900)" d="M51.9412 1217.13 L81.617 1217.13 L81.617 1221.06 L51.9412 1221.06 L51.9412 1217.13 Z" fill="#000000" fill-rule="nonzero" fill-opacity="1" /><path clip-path="url(#clip900)" d="M95.7373 1230.02 L112.057 1230.02 L112.057 1233.96 L90.1123 1233.96 L90.1123 1230.02 Q92.7743 1227.27 97.3576 1222.64 Q101.964 1217.98 103.145 1216.64 Q105.39 1214.12 106.27 1212.38 Q107.172 1210.62 107.172 1208.93 Q107.172 1206.18 105.228 1204.44 Q103.307 1202.71 100.205 1202.71 Q98.0058 1202.71 95.5521 1203.47 Q93.1215 1204.23 90.3438 1205.78 L90.3438 1201.06 Q93.1678 1199.93 95.6215 1199.35 Q98.0752 1198.77 100.112 1198.77 Q105.483 1198.77 108.677 1201.46 Q111.871 1204.14 111.871 1208.63 Q111.871 1210.76 111.061 1212.68 Q110.274 1214.58 108.168 1217.17 Q107.589 1217.84 104.487 1221.06 Q101.385 1224.26 95.7373 1230.02 Z" fill="#000000" fill-rule="nonzero" fill-opacity="1" /><path clip-path="url(#clip900)" d="M51.5708 985.471 L81.2466 985.471 L81.2466 989.406 L51.5708 989.406 L51.5708 985.471 Z" fill="#000000" fill-rule="nonzero" fill-opacity="1" /><path clip-path="url(#clip900)" d="M92.1493 998.365 L99.7882 998.365 L99.7882 971.999 L91.478 973.666 L91.478 969.406 L99.7419 967.74 L104.418 967.74 L104.418 998.365 L112.057 998.365 L112.057 1002.3 L92.1493 1002.3 L92.1493 998.365 Z" fill="#000000" fill-rule="nonzero" fill-opacity="1" /><path clip-path="url(#clip900)" d="M100.112 739.163 Q96.5011 739.163 94.6724 742.728 Q92.8669 746.27 92.8669 753.399 Q92.8669 760.506 94.6724 764.07 Q96.5011 767.612 100.112 767.612 Q103.746 767.612 105.552 764.07 Q107.381 760.506 107.381 753.399 Q107.381 746.27 105.552 742.728 Q103.746 739.163 100.112 739.163 M100.112 735.459 Q105.922 735.459 108.978 740.066 Q112.057 744.649 112.057 753.399 Q112.057 762.126 108.978 766.732 Q105.922 771.316 100.112 771.316 Q94.3021 771.316 91.2234 766.732 Q88.1679 762.126 88.1679 753.399 Q88.1679 744.649 91.2234 740.066 Q94.3021 735.459 100.112 735.459 Z" fill="#000000" fill-rule="nonzero" fill-opacity="1" /><path clip-path="url(#clip900)" d="M92.1493 535.054 L99.7882 535.054 L99.7882 508.688 L91.478 510.355 L91.478 506.096 L99.7419 504.429 L104.418 504.429 L104.418 535.054 L112.057 535.054 L112.057 538.989 L92.1493 538.989 L92.1493 535.054 Z" fill="#000000" fill-rule="nonzero" fill-opacity="1" /><path clip-path="url(#clip900)" d="M95.7373 303.398 L112.057 303.398 L112.057 307.334 L90.1123 307.334 L90.1123 303.398 Q92.7743 300.644 97.3576 296.014 Q101.964 291.361 103.145 290.019 Q105.39 287.496 106.27 285.76 Q107.172 284 107.172 282.31 Q107.172 279.556 105.228 277.82 Q103.307 276.084 100.205 276.084 Q98.0058 276.084 95.5521 276.848 Q93.1215 277.611 90.3438 279.162 L90.3438 274.44 Q93.1678 273.306 95.6215 272.727 Q98.0752 272.149 100.112 272.149 Q105.483 272.149 108.677 274.834 Q111.871 277.519 111.871 282.01 Q111.871 284.139 111.061 286.06 Q110.274 287.959 108.168 290.551 Q107.589 291.222 104.487 294.44 Q101.385 297.634 95.7373 303.398 Z" fill="#000000" fill-rule="nonzero" fill-opacity="1" /><path clip-path="url(#clip900)" d="M104.927 57.0439 Q108.283 57.7615 110.158 60.03 Q112.057 62.2985 112.057 65.6318 Q112.057 70.7475 108.538 73.5485 Q105.02 76.3494 98.5382 76.3494 Q96.3623 76.3494 94.0475 75.9096 Q91.7558 75.4929 89.3021 74.6364 L89.3021 70.1225 Q91.2465 71.2568 93.5613 71.8355 Q95.8761 72.4142 98.3993 72.4142 Q102.797 72.4142 105.089 70.6781 Q107.404 68.942 107.404 65.6318 Q107.404 62.5763 105.251 60.8633 Q103.121 59.1272 99.3021 59.1272 L95.2743 59.1272 L95.2743 55.2847 L99.4872 55.2847 Q102.936 55.2847 104.765 53.9189 Q106.594 52.5301 106.594 49.9375 Q106.594 47.2754 104.696 45.8634 Q102.821 44.4282 99.3021 44.4282 Q97.3808 44.4282 95.1817 44.8449 Q92.9826 45.2616 90.3438 46.1412 L90.3438 41.9746 Q93.0058 41.2338 95.3206 40.8634 Q97.6585 40.4931 99.7187 40.4931 Q105.043 40.4931 108.145 42.9236 Q111.246 45.331 111.246 49.4514 Q111.246 52.3217 109.603 54.3124 Q107.959 56.28 104.927 57.0439 Z" fill="#000000" fill-rule="nonzero" fill-opacity="1" /><polyline clip-path="url(#clip902)" style="stroke:#009af9; stroke-linecap:round; stroke-linejoin:round; stroke-width:4; stroke-opacity:1; fill:none" points="210.454,755.409 218.61,777.173 226.767,987.205 234.923,835.01 243.08,727.721 251.236,830.172 259.393,663.587 267.549,515.952 275.706,434.456 283.862,701.491 292.019,922.177 300.175,848.186 308.332,803.378 316.488,819.038 324.645,863.56 332.801,725.736 340.958,454.75 349.114,535.131 357.271,777.342 365.427,810.337 373.584,805.963 381.74,744.063 389.897,702.648 398.053,862.697 406.21,1006.56 414.366,825.325 422.523,630.135 430.679,678.942 438.835,613.543 446.992,447.975 455.148,327.016 463.305,661.053 471.461,917.83 479.618,769.999 487.774,832.369 495.931,1013.99 504.087,800.736 512.244,686.069 520.4,1031.89 528.557,1069.43 536.713,733.654 544.87,562.474 553.026,330.214 561.183,87.9763 569.339,324.519 577.496,777.74 585.652,976.015 593.809,938.005 601.965,714.839 610.122,841.102 618.278,1196.44 626.435,1392.27 634.591,1153.95 642.748,952.212 650.904,999.293 659.061,821.347 667.217,442.511 675.374,299.874 683.53,561.372 691.687,931.042 699.843,951.399 708,602.238 716.156,473.702 724.313,683.224 732.469,736.393 740.626,782.8 748.782,857.523 756.939,966.01 765.095,1118.84 773.252,1159.17 781.408,1116.35 789.565,878.565 797.721,748.169 805.878,464.03 814.034,252.117 822.191,277.745 830.347,525.567 838.504,537.367 846.66,573.064 854.816,810.511 862.973,845.725 871.129,713.734 879.286,683.275 887.442,642.972 895.599,606.021 903.755,497.462 911.912,491.117 920.068,711.523 928.225,937.465 936.381,1067.87 944.538,1184.28 952.694,1445.72 960.851,1216.71 969.007,726.037 977.164,563.624 985.32,847.611 993.477,941.421 1001.63,995.513 1009.79,1136.18 1017.95,957.84 1026.1,687.501 1034.26,736.751 1042.42,695.56 1050.57,447.252 1058.73,358.007 1066.89,389.718 1075.04,985.42 1083.2,1315.92 1091.35,852.774 1099.51,642.135 1107.67,565.195 1115.82,583.95 1123.98,674.057 1132.14,664.199 1140.29,505.121 1148.45,460.515 1156.61,674.016 1164.76,908.342 1172.92,986.058 1181.08,782.681 1189.23,610.466 1197.39,736.106 1205.55,846.957 1213.7,972.375 1221.86,941.897 1230.02,797.822 1238.17,579.131 1246.33,385.795 1254.48,308.627 1262.64,505.124 1270.8,970.114 1278.95,1019.87 1287.11,739.262 1295.27,671.25 1303.42,702.787 1311.58,633.691 1319.74,526.211 1327.89,599.887 1336.05,835.774 1344.21,885.199 1352.36,699.401 1360.52,578.305 1368.68,567.393 1376.83,680.682 1384.99,1030.42 1393.14,1134.26 1401.3,1049.93 1409.46,912.041 1417.61,605.979 1425.77,674.782 1433.93,751.762 1442.08,600.676 1450.24,638.849 1458.4,752.011 1466.55,905.089 1474.71,1066.71 1482.87,1051.93 1491.02,794.734 1499.18,449.817 1507.34,344.487 1515.49,664.667 1523.65,919.95 1531.81,875.912 1539.96,824.84 1548.12,704.931 1556.27,414.978 1564.43,311.018 1572.59,477.387 1580.74,737.528 1588.9,809.45 1597.06,959.054 1605.21,1003.32 1613.37,875.521 1621.53,939.397 1629.68,1034.82 1637.84,893.454 1646,752.895 1654.15,748.453 1662.31,659.561 1670.47,624.942 1678.62,801.403 1686.78,745.505 1694.93,629.398 1703.09,648.769 1711.25,738.14 1719.4,771.21 1727.56,664.649 1735.72,632.101 1743.87,697.783 1752.03,845.05 1760.19,863.635 1768.34,783.217 1776.5,609.069 1784.66,642.292 1792.81,884.448 1800.97,973.831 1809.13,996.972 1817.28,1021.35 1825.44,813.799 1833.6,687.357 1841.75,664.378 1849.91,364.191 1858.06,229.974 1866.22,271.069 1874.38,508.902 1882.53,729.697 1890.69,973.263 1898.85,942.217 1907,655.832 1915.16,569.141 1923.32,736.875 1931.47,924.855 1939.63,944.076 1947.79,1098.07 1955.94,1281.83 1964.1,1029.31 1972.26,583.67 1980.41,355.176 1988.57,545.694 1996.73,909.274 2004.88,977.464 2013.04,625.106 2021.19,467.428 2029.35,555.873 2037.51,937.115 2045.66,1114.38 2053.82,817.532 2061.98,456.934 2070.13,392.721 2078.29,487.221 2086.45,521.771 2094.6,683.457 2102.76,903.97 2110.92,1005.57 2119.07,1003.53 2127.23,1006.8 2135.39,929.113 2143.54,874.422 2151.7,761.49 2159.85,623.28 2168.01,675.993 2176.17,845.262 2184.32,954.263 2192.48,884.119 2200.64,749.643 2208.79,845.353 2216.95,949.297 2225.11,1000.22 2233.26,1171.33 2241.42,1100.17 2249.58,722.816 2257.73,253.518 2265.89,225.959 2274.05,532.615 2282.2,623.999 2290.36,729.48 "/>
<path clip-path="url(#clip900)" d="M1925.58 1438.47 L2279.27 1438.47 L2279.27 1334.79 L1925.58 1334.79  Z" fill="#ffffff" fill-rule="evenodd" fill-opacity="1"/>
<polyline clip-path="url(#clip900)" style="stroke:#000000; stroke-linecap:round; stroke-linejoin:round; stroke-width:4; stroke-opacity:1; fill:none" points="1925.58,1438.47 2279.27,1438.47 2279.27,1334.79 1925.58,1334.79 1925.58,1438.47 "/>
<polyline clip-path="url(#clip900)" style="stroke:#009af9; stroke-linecap:round; stroke-linejoin:round; stroke-width:4; stroke-opacity:1; fill:none" points="1950.08,1386.63 2097.06,1386.63 "/>
<path clip-path="url(#clip900)" d="M2139.98 1378.75 L2139.98 1382.78 Q2138.17 1381.85 2136.23 1381.39 Q2134.28 1380.93 2132.2 1380.93 Q2129.03 1380.93 2127.43 1381.9 Q2125.86 1382.87 2125.86 1384.82 Q2125.86 1386.3 2126.99 1387.16 Q2128.13 1387.99 2131.55 1388.75 L2133.01 1389.08 Q2137.55 1390.05 2139.45 1391.83 Q2141.37 1393.59 2141.37 1396.76 Q2141.37 1400.37 2138.5 1402.48 Q2135.65 1404.59 2130.65 1404.59 Q2128.57 1404.59 2126.3 1404.17 Q2124.05 1403.78 2121.55 1402.97 L2121.55 1398.57 Q2123.91 1399.79 2126.21 1400.42 Q2128.5 1401.02 2130.74 1401.02 Q2133.75 1401.02 2135.37 1400 Q2136.99 1398.96 2136.99 1397.09 Q2136.99 1395.35 2135.81 1394.42 Q2134.65 1393.5 2130.7 1392.64 L2129.21 1392.29 Q2125.26 1391.46 2123.5 1389.75 Q2121.74 1388.01 2121.74 1385 Q2121.74 1381.35 2124.33 1379.35 Q2126.92 1377.36 2131.69 1377.36 Q2134.05 1377.36 2136.14 1377.71 Q2138.22 1378.06 2139.98 1378.75 Z" fill="#000000" fill-rule="nonzero" fill-opacity="1" /><path clip-path="url(#clip900)" d="M2148.15 1377.99 L2152.41 1377.99 L2152.41 1403.91 L2148.15 1403.91 L2148.15 1377.99 M2148.15 1367.9 L2152.41 1367.9 L2152.41 1373.29 L2148.15 1373.29 L2148.15 1367.9 Z" fill="#000000" fill-rule="nonzero" fill-opacity="1" /><path clip-path="url(#clip900)" d="M2178.38 1390.65 Q2178.38 1386.02 2176.46 1383.47 Q2174.56 1380.93 2171.11 1380.93 Q2167.69 1380.93 2165.77 1383.47 Q2163.87 1386.02 2163.87 1390.65 Q2163.87 1395.26 2165.77 1397.8 Q2167.69 1400.35 2171.11 1400.35 Q2174.56 1400.35 2176.46 1397.8 Q2178.38 1395.26 2178.38 1390.65 M2182.64 1400.7 Q2182.64 1407.32 2179.7 1410.53 Q2176.76 1413.78 2170.7 1413.78 Q2168.45 1413.78 2166.46 1413.43 Q2164.47 1413.1 2162.59 1412.41 L2162.59 1408.27 Q2164.47 1409.28 2166.3 1409.77 Q2168.13 1410.26 2170.02 1410.26 Q2174.21 1410.26 2176.3 1408.06 Q2178.38 1405.88 2178.38 1401.46 L2178.38 1399.35 Q2177.06 1401.65 2175 1402.78 Q2172.94 1403.91 2170.07 1403.91 Q2165.3 1403.91 2162.39 1400.28 Q2159.47 1396.65 2159.47 1390.65 Q2159.47 1384.63 2162.39 1381 Q2165.3 1377.36 2170.07 1377.36 Q2172.94 1377.36 2175 1378.5 Q2177.06 1379.63 2178.38 1381.92 L2178.38 1377.99 L2182.64 1377.99 L2182.64 1400.7 Z" fill="#000000" fill-rule="nonzero" fill-opacity="1" /><path clip-path="url(#clip900)" d="M2212.96 1388.27 L2212.96 1403.91 L2208.7 1403.91 L2208.7 1388.41 Q2208.7 1384.72 2207.27 1382.9 Q2205.83 1381.07 2202.96 1381.07 Q2199.51 1381.07 2197.52 1383.27 Q2195.53 1385.47 2195.53 1389.26 L2195.53 1403.91 L2191.25 1403.91 L2191.25 1377.99 L2195.53 1377.99 L2195.53 1382.02 Q2197.06 1379.68 2199.12 1378.52 Q2201.2 1377.36 2203.91 1377.36 Q2208.38 1377.36 2210.67 1380.14 Q2212.96 1382.9 2212.96 1388.27 Z" fill="#000000" fill-rule="nonzero" fill-opacity="1" /><path clip-path="url(#clip900)" d="M2233.24 1390.88 Q2228.08 1390.88 2226.09 1392.06 Q2224.1 1393.24 2224.1 1396.09 Q2224.1 1398.36 2225.58 1399.7 Q2227.08 1401.02 2229.65 1401.02 Q2233.2 1401.02 2235.32 1398.52 Q2237.48 1396 2237.48 1391.83 L2237.48 1390.88 L2233.24 1390.88 M2241.74 1389.12 L2241.74 1403.91 L2237.48 1403.91 L2237.48 1399.98 Q2236.02 1402.34 2233.84 1403.47 Q2231.67 1404.59 2228.52 1404.59 Q2224.54 1404.59 2222.18 1402.36 Q2219.84 1400.12 2219.84 1396.37 Q2219.84 1391.99 2222.76 1389.77 Q2225.7 1387.55 2231.51 1387.55 L2237.48 1387.55 L2237.48 1387.13 Q2237.48 1384.19 2235.53 1382.6 Q2233.61 1380.97 2230.12 1380.97 Q2227.89 1380.97 2225.79 1381.51 Q2223.68 1382.04 2221.74 1383.1 L2221.74 1379.17 Q2224.07 1378.27 2226.27 1377.83 Q2228.47 1377.36 2230.56 1377.36 Q2236.18 1377.36 2238.96 1380.28 Q2241.74 1383.2 2241.74 1389.12 Z" fill="#000000" fill-rule="nonzero" fill-opacity="1" /><path clip-path="url(#clip900)" d="M2250.51 1367.9 L2254.77 1367.9 L2254.77 1403.91 L2250.51 1403.91 L2250.51 1367.9 Z" fill="#000000" fill-rule="nonzero" fill-opacity="1" /></svg>
