<?xml version="1.0" encoding="utf-8"?>
<svg xmlns="http://www.w3.org/2000/svg" xmlns:xlink="http://www.w3.org/1999/xlink" width="600" height="400" viewBox="0 0 2400 1600">
<defs>
  <clipPath id="clip300">
    <rect x="0" y="0" width="2400" height="1600"/>
  </clipPath>
</defs>
<path clip-path="url(#clip300)" d="M0 1600 L2400 1600 L2400 0 L0 0  Z" fill="#ffffff" fill-rule="evenodd" fill-opacity="1"/>
<defs>
  <clipPath id="clip301">
    <rect x="480" y="0" width="1681" height="1600"/>
  </clipPath>
</defs>
<path clip-path="url(#clip300)" d="M147.478 1486.45 L2352.76 1486.45 L2352.76 47.2441 L147.478 47.2441  Z" fill="#ffffff" fill-rule="evenodd" fill-opacity="1"/>
<defs>
  <clipPath id="clip302">
    <rect x="147" y="47" width="2206" height="1440"/>
  </clipPath>
</defs>
<polyline clip-path="url(#clip302)" style="stroke:#000000; stroke-linecap:round; stroke-linejoin:round; stroke-width:2; stroke-opacity:0.1; fill:none" points="201.733,1486.45 201.733,47.2441 "/>
<polyline clip-path="url(#clip302)" style="stroke:#000000; stroke-linecap:round; stroke-linejoin:round; stroke-width:2; stroke-opacity:0.1; fill:none" points="528.078,1486.45 528.078,47.2441 "/>
<polyline clip-path="url(#clip302)" style="stroke:#000000; stroke-linecap:round; stroke-linejoin:round; stroke-width:2; stroke-opacity:0.1; fill:none" points="854.423,1486.45 854.423,47.2441 "/>
<polyline clip-path="url(#clip302)" style="stroke:#000000; stroke-linecap:round; stroke-linejoin:round; stroke-width:2; stroke-opacity:0.1; fill:none" points="1180.77,1486.45 1180.77,47.2441 "/>
<polyline clip-path="url(#clip302)" style="stroke:#000000; stroke-linecap:round; stroke-linejoin:round; stroke-width:2; stroke-opacity:0.1; fill:none" points="1507.11,1486.45 1507.11,47.2441 "/>
<polyline clip-path="url(#clip302)" style="stroke:#000000; stroke-linecap:round; stroke-linejoin:round; stroke-width:2; stroke-opacity:0.1; fill:none" points="1833.46,1486.45 1833.46,47.2441 "/>
<polyline clip-path="url(#clip302)" style="stroke:#000000; stroke-linecap:round; stroke-linejoin:round; stroke-width:2; stroke-opacity:0.1; fill:none" points="2159.8,1486.45 2159.8,47.2441 "/>
<polyline clip-path="url(#clip302)" style="stroke:#000000; stroke-linecap:round; stroke-linejoin:round; stroke-width:2; stroke-opacity:0.1; fill:none" points="147.478,1354.79 2352.76,1354.79 "/>
<polyline clip-path="url(#clip302)" style="stroke:#000000; stroke-linecap:round; stroke-linejoin:round; stroke-width:2; stroke-opacity:0.1; fill:none" points="147.478,1141.31 2352.76,1141.31 "/>
<polyline clip-path="url(#clip302)" style="stroke:#000000; stroke-linecap:round; stroke-linejoin:round; stroke-width:2; stroke-opacity:0.1; fill:none" points="147.478,927.838 2352.76,927.838 "/>
<polyline clip-path="url(#clip302)" style="stroke:#000000; stroke-linecap:round; stroke-linejoin:round; stroke-width:2; stroke-opacity:0.1; fill:none" points="147.478,714.362 2352.76,714.362 "/>
<polyline clip-path="url(#clip302)" style="stroke:#000000; stroke-linecap:round; stroke-linejoin:round; stroke-width:2; stroke-opacity:0.1; fill:none" points="147.478,500.887 2352.76,500.887 "/>
<polyline clip-path="url(#clip302)" style="stroke:#000000; stroke-linecap:round; stroke-linejoin:round; stroke-width:2; stroke-opacity:0.1; fill:none" points="147.478,287.412 2352.76,287.412 "/>
<polyline clip-path="url(#clip302)" style="stroke:#000000; stroke-linecap:round; stroke-linejoin:round; stroke-width:2; stroke-opacity:0.1; fill:none" points="147.478,73.937 2352.76,73.937 "/>
<polyline clip-path="url(#clip300)" style="stroke:#000000; stroke-linecap:round; stroke-linejoin:round; stroke-width:4; stroke-opacity:1; fill:none" points="147.478,1486.45 2352.76,1486.45 "/>
<polyline clip-path="url(#clip300)" style="stroke:#000000; stroke-linecap:round; stroke-linejoin:round; stroke-width:4; stroke-opacity:1; fill:none" points="201.733,1486.45 201.733,1467.55 "/>
<polyline clip-path="url(#clip300)" style="stroke:#000000; stroke-linecap:round; stroke-linejoin:round; stroke-width:4; stroke-opacity:1; fill:none" points="528.078,1486.45 528.078,1467.55 "/>
<polyline clip-path="url(#clip300)" style="stroke:#000000; stroke-linecap:round; stroke-linejoin:round; stroke-width:4; stroke-opacity:1; fill:none" points="854.423,1486.45 854.423,1467.55 "/>
<polyline clip-path="url(#clip300)" style="stroke:#000000; stroke-linecap:round; stroke-linejoin:round; stroke-width:4; stroke-opacity:1; fill:none" points="1180.77,1486.45 1180.77,1467.55 "/>
<polyline clip-path="url(#clip300)" style="stroke:#000000; stroke-linecap:round; stroke-linejoin:round; stroke-width:4; stroke-opacity:1; fill:none" points="1507.11,1486.45 1507.11,1467.55 "/>
<polyline clip-path="url(#clip300)" style="stroke:#000000; stroke-linecap:round; stroke-linejoin:round; stroke-width:4; stroke-opacity:1; fill:none" points="1833.46,1486.45 1833.46,1467.55 "/>
<polyline clip-path="url(#clip300)" style="stroke:#000000; stroke-linecap:round; stroke-linejoin:round; stroke-width:4; stroke-opacity:1; fill:none" points="2159.8,1486.45 2159.8,1467.55 "/>
<path clip-path="url(#clip300)" d="M201.733 1517.37 Q198.122 1517.37 196.293 1520.93 Q194.487 1524.47 194.487 1531.6 Q194.487 1538.71 196.293 1542.27 Q198.122 1545.82 201.733 1545.82 Q205.367 1545.82 207.173 1542.27 Q209.001 1538.71 209.001 1531.6 Q209.001 1524.47 207.173 1520.93 Q205.367 1517.37 201.733 1517.37 M201.733 1513.66 Q207.543 1513.66 210.599 1518.27 Q213.677 1522.85 213.677 1531.6 Q213.677 1540.33 210.599 1544.94 Q207.543 1549.52 201.733 1549.52 Q195.923 1549.52 192.844 1544.94 Q189.788 1540.33 189.788 1531.6 Q189.788 1522.85 192.844 1518.27 Q195.923 1513.66 201.733 1513.66 Z" fill="#000000" fill-rule="nonzero" fill-opacity="1" /><path clip-path="url(#clip300)" d="M502.766 1544.91 L510.405 1544.91 L510.405 1518.55 L502.094 1520.21 L502.094 1515.95 L510.358 1514.29 L515.034 1514.29 L515.034 1544.91 L522.673 1544.91 L522.673 1548.85 L502.766 1548.85 L502.766 1544.91 Z" fill="#000000" fill-rule="nonzero" fill-opacity="1" /><path clip-path="url(#clip300)" d="M542.117 1517.37 Q538.506 1517.37 536.678 1520.93 Q534.872 1524.47 534.872 1531.6 Q534.872 1538.71 536.678 1542.27 Q538.506 1545.82 542.117 1545.82 Q545.752 1545.82 547.557 1542.27 Q549.386 1538.71 549.386 1531.6 Q549.386 1524.47 547.557 1520.93 Q545.752 1517.37 542.117 1517.37 M542.117 1513.66 Q547.927 1513.66 550.983 1518.27 Q554.062 1522.85 554.062 1531.6 Q554.062 1540.33 550.983 1544.94 Q547.927 1549.52 542.117 1549.52 Q536.307 1549.52 533.228 1544.94 Q530.173 1540.33 530.173 1531.6 Q530.173 1522.85 533.228 1518.27 Q536.307 1513.66 542.117 1513.66 Z" fill="#000000" fill-rule="nonzero" fill-opacity="1" /><path clip-path="url(#clip300)" d="M833.197 1544.91 L849.516 1544.91 L849.516 1548.85 L827.572 1548.85 L827.572 1544.91 Q830.234 1542.16 834.817 1537.53 Q839.423 1532.88 840.604 1531.53 Q842.849 1529.01 843.729 1527.27 Q844.632 1525.51 844.632 1523.82 Q844.632 1521.07 842.687 1519.33 Q840.766 1517.6 837.664 1517.6 Q835.465 1517.6 833.011 1518.36 Q830.581 1519.13 827.803 1520.68 L827.803 1515.95 Q830.627 1514.82 833.081 1514.24 Q835.535 1513.66 837.572 1513.66 Q842.942 1513.66 846.136 1516.35 Q849.331 1519.03 849.331 1523.52 Q849.331 1525.65 848.521 1527.57 Q847.734 1529.47 845.627 1532.07 Q845.048 1532.74 841.947 1535.95 Q838.845 1539.15 833.197 1544.91 Z" fill="#000000" fill-rule="nonzero" fill-opacity="1" /><path clip-path="url(#clip300)" d="M869.331 1517.37 Q865.72 1517.37 863.891 1520.93 Q862.085 1524.47 862.085 1531.6 Q862.085 1538.71 863.891 1542.27 Q865.72 1545.82 869.331 1545.82 Q872.965 1545.82 874.77 1542.27 Q876.599 1538.71 876.599 1531.6 Q876.599 1524.47 874.77 1520.93 Q872.965 1517.37 869.331 1517.37 M869.331 1513.66 Q875.141 1513.66 878.196 1518.27 Q881.275 1522.85 881.275 1531.6 Q881.275 1540.33 878.196 1544.94 Q875.141 1549.52 869.331 1549.52 Q863.52 1549.52 860.442 1544.94 Q857.386 1540.33 857.386 1531.6 Q857.386 1522.85 860.442 1518.27 Q863.52 1513.66 869.331 1513.66 Z" fill="#000000" fill-rule="nonzero" fill-opacity="1" /><path clip-path="url(#clip300)" d="M1169.61 1530.21 Q1172.97 1530.93 1174.84 1533.2 Q1176.74 1535.47 1176.74 1538.8 Q1176.74 1543.92 1173.22 1546.72 Q1169.7 1549.52 1163.22 1549.52 Q1161.05 1549.52 1158.73 1549.08 Q1156.44 1548.66 1153.99 1547.81 L1153.99 1543.29 Q1155.93 1544.43 1158.25 1545.01 Q1160.56 1545.58 1163.08 1545.58 Q1167.48 1545.58 1169.77 1543.85 Q1172.09 1542.11 1172.09 1538.8 Q1172.09 1535.75 1169.94 1534.03 Q1167.81 1532.3 1163.99 1532.3 L1159.96 1532.3 L1159.96 1528.45 L1164.17 1528.45 Q1167.62 1528.45 1169.45 1527.09 Q1171.28 1525.7 1171.28 1523.11 Q1171.28 1520.45 1169.38 1519.03 Q1167.5 1517.6 1163.99 1517.6 Q1162.06 1517.6 1159.87 1518.01 Q1157.67 1518.43 1155.03 1519.31 L1155.03 1515.14 Q1157.69 1514.4 1160 1514.03 Q1162.34 1513.66 1164.4 1513.66 Q1169.73 1513.66 1172.83 1516.09 Q1175.93 1518.5 1175.93 1522.62 Q1175.93 1525.49 1174.29 1527.48 Q1172.64 1529.45 1169.61 1530.21 Z" fill="#000000" fill-rule="nonzero" fill-opacity="1" /><path clip-path="url(#clip300)" d="M1195.61 1517.37 Q1192 1517.37 1190.17 1520.93 Q1188.36 1524.47 1188.36 1531.6 Q1188.36 1538.71 1190.17 1542.27 Q1192 1545.82 1195.61 1545.82 Q1199.24 1545.82 1201.05 1542.27 Q1202.87 1538.71 1202.87 1531.6 Q1202.87 1524.47 1201.05 1520.93 Q1199.24 1517.37 1195.61 1517.37 M1195.61 1513.66 Q1201.42 1513.66 1204.47 1518.27 Q1207.55 1522.85 1207.55 1531.6 Q1207.55 1540.33 1204.47 1544.94 Q1201.42 1549.52 1195.61 1549.52 Q1189.8 1549.52 1186.72 1544.94 Q1183.66 1540.33 1183.66 1531.6 Q1183.66 1522.85 1186.72 1518.27 Q1189.8 1513.66 1195.61 1513.66 Z" fill="#000000" fill-rule="nonzero" fill-opacity="1" /><path clip-path="url(#clip300)" d="M1495.29 1518.36 L1483.48 1536.81 L1495.29 1536.81 L1495.29 1518.36 M1494.06 1514.29 L1499.94 1514.29 L1499.94 1536.81 L1504.87 1536.81 L1504.87 1540.7 L1499.94 1540.7 L1499.94 1548.85 L1495.29 1548.85 L1495.29 1540.7 L1479.68 1540.7 L1479.68 1536.19 L1494.06 1514.29 Z" fill="#000000" fill-rule="nonzero" fill-opacity="1" /><path clip-path="url(#clip300)" d="M1522.6 1517.37 Q1518.99 1517.37 1517.16 1520.93 Q1515.35 1524.47 1515.35 1531.6 Q1515.35 1538.71 1517.16 1542.27 Q1518.99 1545.82 1522.6 1545.82 Q1526.23 1545.82 1528.04 1542.27 Q1529.87 1538.71 1529.87 1531.6 Q1529.87 1524.47 1528.04 1520.93 Q1526.23 1517.37 1522.6 1517.37 M1522.6 1513.66 Q1528.41 1513.66 1531.47 1518.27 Q1534.54 1522.85 1534.54 1531.6 Q1534.54 1540.33 1531.47 1544.94 Q1528.41 1549.52 1522.6 1549.52 Q1516.79 1549.52 1513.71 1544.94 Q1510.66 1540.33 1510.66 1531.6 Q1510.66 1522.85 1513.71 1518.27 Q1516.79 1513.66 1522.6 1513.66 Z" fill="#000000" fill-rule="nonzero" fill-opacity="1" /><path clip-path="url(#clip300)" d="M1808.16 1514.29 L1826.51 1514.29 L1826.51 1518.22 L1812.44 1518.22 L1812.44 1526.7 Q1813.46 1526.35 1814.48 1526.19 Q1815.5 1526 1816.51 1526 Q1822.3 1526 1825.68 1529.17 Q1829.06 1532.34 1829.06 1537.76 Q1829.06 1543.34 1825.59 1546.44 Q1822.12 1549.52 1815.8 1549.52 Q1813.62 1549.52 1811.35 1549.15 Q1809.11 1548.78 1806.7 1548.04 L1806.7 1543.34 Q1808.78 1544.47 1811.01 1545.03 Q1813.23 1545.58 1815.7 1545.58 Q1819.71 1545.58 1822.05 1543.48 Q1824.39 1541.37 1824.39 1537.76 Q1824.39 1534.15 1822.05 1532.04 Q1819.71 1529.94 1815.7 1529.94 Q1813.83 1529.94 1811.95 1530.35 Q1810.1 1530.77 1808.16 1531.65 L1808.16 1514.29 Z" fill="#000000" fill-rule="nonzero" fill-opacity="1" /><path clip-path="url(#clip300)" d="M1848.27 1517.37 Q1844.66 1517.37 1842.83 1520.93 Q1841.03 1524.47 1841.03 1531.6 Q1841.03 1538.71 1842.83 1542.27 Q1844.66 1545.82 1848.27 1545.82 Q1851.91 1545.82 1853.71 1542.27 Q1855.54 1538.71 1855.54 1531.6 Q1855.54 1524.47 1853.71 1520.93 Q1851.91 1517.37 1848.27 1517.37 M1848.27 1513.66 Q1854.08 1513.66 1857.14 1518.27 Q1860.22 1522.85 1860.22 1531.6 Q1860.22 1540.33 1857.14 1544.94 Q1854.08 1549.52 1848.27 1549.52 Q1842.46 1549.52 1839.38 1544.94 Q1836.33 1540.33 1836.33 1531.6 Q1836.33 1522.85 1839.38 1518.27 Q1842.46 1513.66 1848.27 1513.66 Z" fill="#000000" fill-rule="nonzero" fill-opacity="1" /><path clip-path="url(#clip300)" d="M2145.21 1529.7 Q2142.06 1529.7 2140.21 1531.86 Q2138.38 1534.01 2138.38 1537.76 Q2138.38 1541.49 2140.21 1543.66 Q2142.06 1545.82 2145.21 1545.82 Q2148.36 1545.82 2150.19 1543.66 Q2152.04 1541.49 2152.04 1537.76 Q2152.04 1534.01 2150.19 1531.86 Q2148.36 1529.7 2145.21 1529.7 M2154.49 1515.05 L2154.49 1519.31 Q2152.73 1518.48 2150.93 1518.04 Q2149.14 1517.6 2147.39 1517.6 Q2142.76 1517.6 2140.3 1520.72 Q2137.87 1523.85 2137.52 1530.17 Q2138.89 1528.15 2140.95 1527.09 Q2143.01 1526 2145.49 1526 Q2150.7 1526 2153.7 1529.17 Q2156.74 1532.32 2156.74 1537.76 Q2156.74 1543.08 2153.59 1546.3 Q2150.44 1549.52 2145.21 1549.52 Q2139.21 1549.52 2136.04 1544.94 Q2132.87 1540.33 2132.87 1531.6 Q2132.87 1523.41 2136.76 1518.55 Q2140.65 1513.66 2147.2 1513.66 Q2148.96 1513.66 2150.74 1514.01 Q2152.55 1514.36 2154.49 1515.05 Z" fill="#000000" fill-rule="nonzero" fill-opacity="1" /><path clip-path="url(#clip300)" d="M2174.79 1517.37 Q2171.18 1517.37 2169.35 1520.93 Q2167.55 1524.47 2167.55 1531.6 Q2167.55 1538.71 2169.35 1542.27 Q2171.18 1545.82 2174.79 1545.82 Q2178.43 1545.82 2180.23 1542.27 Q2182.06 1538.71 2182.06 1531.6 Q2182.06 1524.47 2180.23 1520.93 Q2178.43 1517.37 2174.79 1517.37 M2174.79 1513.66 Q2180.6 1513.66 2183.66 1518.27 Q2186.74 1522.85 2186.74 1531.6 Q2186.74 1540.33 2183.66 1544.94 Q2180.6 1549.52 2174.79 1549.52 Q2168.98 1549.52 2165.9 1544.94 Q2162.85 1540.33 2162.85 1531.6 Q2162.85 1522.85 2165.9 1518.27 Q2168.98 1513.66 2174.79 1513.66 Z" fill="#000000" fill-rule="nonzero" fill-opacity="1" /><polyline clip-path="url(#clip300)" style="stroke:#000000; stroke-linecap:round; stroke-linejoin:round; stroke-width:4; stroke-opacity:1; fill:none" points="147.478,1486.45 147.478,47.2441 "/>
<polyline clip-path="url(#clip300)" style="stroke:#000000; stroke-linecap:round; stroke-linejoin:round; stroke-width:4; stroke-opacity:1; fill:none" points="147.478,1354.79 166.376,1354.79 "/>
<polyline clip-path="url(#clip300)" style="stroke:#000000; stroke-linecap:round; stroke-linejoin:round; stroke-width:4; stroke-opacity:1; fill:none" points="147.478,1141.31 166.376,1141.31 "/>
<polyline clip-path="url(#clip300)" style="stroke:#000000; stroke-linecap:round; stroke-linejoin:round; stroke-width:4; stroke-opacity:1; fill:none" points="147.478,927.838 166.376,927.838 "/>
<polyline clip-path="url(#clip300)" style="stroke:#000000; stroke-linecap:round; stroke-linejoin:round; stroke-width:4; stroke-opacity:1; fill:none" points="147.478,714.362 166.376,714.362 "/>
<polyline clip-path="url(#clip300)" style="stroke:#000000; stroke-linecap:round; stroke-linejoin:round; stroke-width:4; stroke-opacity:1; fill:none" points="147.478,500.887 166.376,500.887 "/>
<polyline clip-path="url(#clip300)" style="stroke:#000000; stroke-linecap:round; stroke-linejoin:round; stroke-width:4; stroke-opacity:1; fill:none" points="147.478,287.412 166.376,287.412 "/>
<polyline clip-path="url(#clip300)" style="stroke:#000000; stroke-linecap:round; stroke-linejoin:round; stroke-width:4; stroke-opacity:1; fill:none" points="147.478,73.937 166.376,73.937 "/>
<path clip-path="url(#clip300)" d="M51.3625 1355.24 L81.0383 1355.24 L81.0383 1359.17 L51.3625 1359.17 L51.3625 1355.24 Z" fill="#000000" fill-rule="nonzero" fill-opacity="1" /><path clip-path="url(#clip300)" d="M95.1586 1368.13 L111.478 1368.13 L111.478 1372.07 L89.5336 1372.07 L89.5336 1368.13 Q92.1956 1365.38 96.7789 1360.75 Q101.385 1356.1 102.566 1354.75 Q104.811 1352.23 105.691 1350.49 Q106.594 1348.73 106.594 1347.04 Q106.594 1344.29 104.649 1342.55 Q102.728 1340.82 99.6261 1340.82 Q97.4271 1340.82 94.9734 1341.58 Q92.5428 1342.35 89.7651 1343.9 L89.7651 1339.17 Q92.5891 1338.04 95.0428 1337.46 Q97.4965 1336.88 99.5335 1336.88 Q104.904 1336.88 108.098 1339.57 Q111.293 1342.25 111.293 1346.74 Q111.293 1348.87 110.483 1350.79 Q109.696 1352.69 107.589 1355.29 Q107.01 1355.96 103.909 1359.17 Q100.807 1362.37 95.1586 1368.13 Z" fill="#000000" fill-rule="nonzero" fill-opacity="1" /><path clip-path="url(#clip300)" d="M50.9921 1141.76 L80.6679 1141.76 L80.6679 1145.7 L50.9921 1145.7 L50.9921 1141.76 Z" fill="#000000" fill-rule="nonzero" fill-opacity="1" /><path clip-path="url(#clip300)" d="M91.5706 1154.66 L99.2095 1154.66 L99.2095 1128.29 L90.8993 1129.96 L90.8993 1125.7 L99.1632 1124.03 L103.839 1124.03 L103.839 1154.66 L111.478 1154.66 L111.478 1158.59 L91.5706 1158.59 L91.5706 1154.66 Z" fill="#000000" fill-rule="nonzero" fill-opacity="1" /><path clip-path="url(#clip300)" d="M99.5335 913.636 Q95.9224 913.636 94.0937 917.201 Q92.2882 920.743 92.2882 927.872 Q92.2882 934.979 94.0937 938.544 Q95.9224 942.085 99.5335 942.085 Q103.168 942.085 104.973 938.544 Q106.802 934.979 106.802 927.872 Q106.802 920.743 104.973 917.201 Q103.168 913.636 99.5335 913.636 M99.5335 909.933 Q105.344 909.933 108.399 914.539 Q111.478 919.122 111.478 927.872 Q111.478 936.599 108.399 941.206 Q105.344 945.789 99.5335 945.789 Q93.7234 945.789 90.6447 941.206 Q87.5892 936.599 87.5892 927.872 Q87.5892 919.122 90.6447 914.539 Q93.7234 909.933 99.5335 909.933 Z" fill="#000000" fill-rule="nonzero" fill-opacity="1" /><path clip-path="url(#clip300)" d="M91.5706 727.707 L99.2095 727.707 L99.2095 701.342 L90.8993 703.008 L90.8993 698.749 L99.1632 697.082 L103.839 697.082 L103.839 727.707 L111.478 727.707 L111.478 731.642 L91.5706 731.642 L91.5706 727.707 Z" fill="#000000" fill-rule="nonzero" fill-opacity="1" /><path clip-path="url(#clip300)" d="M95.1586 514.232 L111.478 514.232 L111.478 518.167 L89.5336 518.167 L89.5336 514.232 Q92.1956 511.477 96.7789 506.848 Q101.385 502.195 102.566 500.853 Q104.811 498.329 105.691 496.593 Q106.594 494.834 106.594 493.144 Q106.594 490.39 104.649 488.654 Q102.728 486.917 99.6261 486.917 Q97.4271 486.917 94.9734 487.681 Q92.5428 488.445 89.7651 489.996 L89.7651 485.274 Q92.5891 484.14 95.0428 483.561 Q97.4965 482.982 99.5335 482.982 Q104.904 482.982 108.098 485.667 Q111.293 488.353 111.293 492.843 Q111.293 494.973 110.483 496.894 Q109.696 498.792 107.589 501.385 Q107.01 502.056 103.909 505.274 Q100.807 508.468 95.1586 514.232 Z" fill="#000000" fill-rule="nonzero" fill-opacity="1" /><path clip-path="url(#clip300)" d="M104.348 286.058 Q107.705 286.776 109.58 289.044 Q111.478 291.313 111.478 294.646 Q111.478 299.762 107.959 302.562 Q104.441 305.363 97.9595 305.363 Q95.7836 305.363 93.4688 304.924 Q91.1771 304.507 88.7234 303.65 L88.7234 299.137 Q90.6678 300.271 92.9826 300.85 Q95.2974 301.428 97.8206 301.428 Q102.219 301.428 104.51 299.692 Q106.825 297.956 106.825 294.646 Q106.825 291.59 104.672 289.877 Q102.543 288.141 98.7234 288.141 L94.6956 288.141 L94.6956 284.299 L98.9085 284.299 Q102.358 284.299 104.186 282.933 Q106.015 281.544 106.015 278.952 Q106.015 276.289 104.117 274.877 Q102.242 273.442 98.7234 273.442 Q96.8021 273.442 94.603 273.859 Q92.4039 274.276 89.7651 275.155 L89.7651 270.989 Q92.4271 270.248 94.7419 269.877 Q97.0798 269.507 99.14 269.507 Q104.464 269.507 107.566 271.938 Q110.668 274.345 110.668 278.465 Q110.668 281.336 109.024 283.326 Q107.381 285.294 104.348 286.058 Z" fill="#000000" fill-rule="nonzero" fill-opacity="1" /><path clip-path="url(#clip300)" d="M101.895 60.731 L90.0891 79.18 L101.895 79.18 L101.895 60.731 M100.668 56.657 L106.547 56.657 L106.547 79.18 L111.478 79.18 L111.478 83.0689 L106.547 83.0689 L106.547 91.217 L101.895 91.217 L101.895 83.0689 L86.2929 83.0689 L86.2929 78.555 L100.668 56.657 Z" fill="#000000" fill-rule="nonzero" fill-opacity="1" /><polyline clip-path="url(#clip302)" style="stroke:#009af9; stroke-linecap:round; stroke-linejoin:round; stroke-width:4; stroke-opacity:1; fill:none" points="209.891,861.827 218.05,1316.72 226.209,1339.02 234.367,1211.46 242.526,961.524 250.685,877.968 258.843,882.613 267.002,809.622 275.16,934.588 283.319,1236.3 291.478,1004.94 299.636,777.461 307.795,773.056 315.954,757.695 324.112,761.974 332.271,768.095 340.43,715.705 348.588,782.977 356.747,907.448 364.905,1125.74 373.064,1143.7 381.223,1184.88 389.381,1211.09 397.54,981.491 405.699,843.585 413.857,862.758 422.016,747.455 430.174,584.404 438.333,799.462 446.492,1009.7 454.65,1056.17 462.809,1100.2 470.968,1067.96 479.126,1005.96 487.285,956.528 495.444,864.81 503.602,983.891 511.761,1167.18 519.919,1133.04 528.078,961.563 536.237,981.728 544.395,1107.46 552.554,1080.39 560.713,1012.33 568.871,796.728 577.03,841.572 585.188,994.673 593.347,871.675 601.506,1009.1 609.664,1180.21 617.823,1195.99 625.982,1054.38 634.14,799.525 642.299,815.535 650.458,853.415 658.616,767.59 666.775,821.031 674.933,1058.69 683.092,1010.54 691.251,830.296 699.409,742.711 707.568,767.914 715.727,988.744 723.885,1165.39 732.044,1069.02 740.202,850.842 748.361,732.308 756.52,762.178 764.678,728.722 772.837,543.378 780.996,590.245 789.154,1014.66 797.313,1044.61 805.472,1033.86 813.63,1089.3 821.789,850.196 829.947,811.64 838.106,981.622 846.265,917.599 854.423,912.537 862.582,1002.64 870.741,1086.05 878.899,992.111 887.058,986.382 895.216,1196.73 903.375,1204.89 911.534,1058.65 919.692,993.545 927.851,1008.97 936.01,1154.66 944.168,980.695 952.327,635.827 960.486,531.183 968.644,459.89 976.803,681.613 984.961,970.195 993.12,914.438 1001.28,781.89 1009.44,847.555 1017.6,792.954 1025.75,855.344 1033.91,1157.75 1042.07,1157.88 1050.23,960.346 1058.39,946.023 1066.55,1207.37 1074.71,1115.52 1082.86,866.963 1091.02,787.91 1099.18,941.449 1107.34,1027.96 1115.5,972.861 1123.66,992.448 1131.82,1070.85 1139.98,1319.03 1148.13,1265.58 1156.29,1155.5 1164.45,1154.33 1172.61,1116.63 1180.77,949.519 1188.93,793.47 1197.09,648.855 1205.24,590.197 1213.4,558.677 1221.56,581.743 1229.72,759.521 1237.88,840.763 1246.04,922.94 1254.2,1080.84 1262.35,1103.29 1270.51,889.883 1278.67,580.559 1286.83,498.69 1294.99,650.299 1303.15,755.168 1311.31,838.802 1319.47,1184.52 1327.62,1445.72 1335.78,1409.57 1343.94,1230.6 1352.1,1105.14 1360.26,948.09 1368.42,747.427 1376.58,533.464 1384.73,425.997 1392.89,422.227 1401.05,706.098 1409.21,1189.51 1417.37,1433.53 1425.53,1220.66 1433.69,742.941 1441.84,731.822 1450,1007.25 1458.16,1141.88 1466.32,1024.56 1474.48,1102.22 1482.64,1287.71 1490.8,1068.99 1498.96,861.334 1507.11,759.106 1515.27,677.293 1523.43,904.001 1531.59,1064.05 1539.75,1106.88 1547.91,1202.83 1556.07,1152.69 1564.22,774.952 1572.38,481.893 1580.54,609.413 1588.7,878.837 1596.86,1089.29 1605.02,1124.58 1613.18,917.232 1621.33,804.273 1629.49,997.206 1637.65,1052.07 1645.81,830.587 1653.97,635.918 1662.13,738.289 1670.29,1004.2 1678.45,1055.65 1686.6,866.561 1694.76,794.825 1702.92,858.606 1711.08,832.6 1719.24,934.643 1727.4,1231.91 1735.56,1309.59 1743.71,1046.58 1751.87,810.05 1760.03,798.564 1768.19,958.493 1776.35,907.187 1784.51,755.307 1792.67,762.302 1800.82,721.851 1808.98,827.616 1817.14,1038.93 1825.3,1104.23 1833.46,1000.27 1841.62,1084.28 1849.78,1301.7 1857.93,1230.49 1866.09,1017.61 1874.25,854.22 1882.41,830.87 1890.57,928.672 1898.73,939.005 1906.89,932.163 1915.05,981.093 1923.2,791.439 1931.36,692.911 1939.52,780.296 1947.68,610.31 1955.84,663.574 1964,971.028 1972.16,1158.72 1980.31,965.7 1988.47,990.013 1996.63,1268.05 2004.79,1325.79 2012.95,1235.56 2021.11,1020.39 2029.27,820.78 2037.42,618.863 2045.58,646.29 2053.74,914.064 2061.9,904.534 2070.06,798.583 2078.22,657.271 2086.38,813.145 2094.54,1065.81 2102.69,995.039 2110.85,781.802 2119.01,581.138 2127.17,694.005 2135.33,869.616 2143.49,888.919 2151.65,955.871 2159.8,925.321 2167.96,920.289 2176.12,1026.1 2184.28,1005.11 2192.44,928.911 2200.6,1164.29 2208.76,1377.09 2216.91,1260.95 2225.07,846.387 2233.23,711.668 2241.39,813.285 2249.55,975.98 2257.71,1149.53 2265.87,1068.75 2274.03,516.046 2282.18,87.9763 2290.34,227.78 "/>
<path clip-path="url(#clip300)" d="M220.987 198.898 L574.732 198.898 L574.732 95.2176 L220.987 95.2176  Z" fill="#ffffff" fill-rule="evenodd" fill-opacity="1"/>
<polyline clip-path="url(#clip300)" style="stroke:#000000; stroke-linecap:round; stroke-linejoin:round; stroke-width:4; stroke-opacity:1; fill:none" points="220.987,198.898 574.732,198.898 574.732,95.2176 220.987,95.2176 220.987,198.898 "/>
<polyline clip-path="url(#clip300)" style="stroke:#009af9; stroke-linecap:round; stroke-linejoin:round; stroke-width:4; stroke-opacity:1; fill:none" points="245.49,147.058 392.509,147.058 "/>
<path clip-path="url(#clip300)" d="M435.438 139.176 L435.438 143.203 Q433.632 142.277 431.688 141.815 Q429.743 141.352 427.66 141.352 Q424.489 141.352 422.891 142.324 Q421.317 143.296 421.317 145.24 Q421.317 146.722 422.452 147.578 Q423.586 148.412 427.012 149.176 L428.47 149.5 Q433.007 150.472 434.905 152.254 Q436.827 154.014 436.827 157.185 Q436.827 160.796 433.956 162.902 Q431.109 165.009 426.109 165.009 Q424.026 165.009 421.757 164.592 Q419.512 164.199 417.012 163.388 L417.012 158.99 Q419.373 160.217 421.665 160.842 Q423.956 161.444 426.202 161.444 Q429.211 161.444 430.831 160.426 Q432.452 159.384 432.452 157.509 Q432.452 155.773 431.271 154.847 Q430.114 153.921 426.155 153.064 L424.674 152.717 Q420.716 151.884 418.956 150.171 Q417.197 148.435 417.197 145.426 Q417.197 141.768 419.79 139.778 Q422.382 137.787 427.151 137.787 Q429.512 137.787 431.595 138.134 Q433.678 138.481 435.438 139.176 Z" fill="#000000" fill-rule="nonzero" fill-opacity="1" /><path clip-path="url(#clip300)" d="M443.609 138.412 L447.868 138.412 L447.868 164.338 L443.609 164.338 L443.609 138.412 M443.609 128.319 L447.868 128.319 L447.868 133.713 L443.609 133.713 L443.609 128.319 Z" fill="#000000" fill-rule="nonzero" fill-opacity="1" /><path clip-path="url(#clip300)" d="M473.84 151.074 Q473.84 146.444 471.919 143.898 Q470.021 141.352 466.572 141.352 Q463.146 141.352 461.225 143.898 Q459.326 146.444 459.326 151.074 Q459.326 155.68 461.225 158.226 Q463.146 160.773 466.572 160.773 Q470.021 160.773 471.919 158.226 Q473.84 155.68 473.84 151.074 M478.1 161.12 Q478.1 167.74 475.16 170.958 Q472.22 174.199 466.155 174.199 Q463.91 174.199 461.919 173.851 Q459.928 173.527 458.053 172.833 L458.053 168.689 Q459.928 169.708 461.757 170.194 Q463.586 170.68 465.484 170.68 Q469.674 170.68 471.757 168.481 Q473.84 166.305 473.84 161.884 L473.84 159.777 Q472.521 162.069 470.461 163.203 Q468.401 164.338 465.53 164.338 Q460.762 164.338 457.845 160.703 Q454.928 157.069 454.928 151.074 Q454.928 145.055 457.845 141.421 Q460.762 137.787 465.53 137.787 Q468.401 137.787 470.461 138.921 Q472.521 140.055 473.84 142.347 L473.84 138.412 L478.1 138.412 L478.1 161.12 Z" fill="#000000" fill-rule="nonzero" fill-opacity="1" /><path clip-path="url(#clip300)" d="M508.423 148.689 L508.423 164.338 L504.164 164.338 L504.164 148.828 Q504.164 145.148 502.729 143.319 Q501.294 141.49 498.423 141.49 Q494.974 141.49 492.984 143.69 Q490.993 145.889 490.993 149.685 L490.993 164.338 L486.711 164.338 L486.711 138.412 L490.993 138.412 L490.993 142.44 Q492.521 140.102 494.581 138.944 Q496.664 137.787 499.373 137.787 Q503.84 137.787 506.132 140.565 Q508.423 143.319 508.423 148.689 Z" fill="#000000" fill-rule="nonzero" fill-opacity="1" /><path clip-path="url(#clip300)" d="M528.701 151.305 Q523.539 151.305 521.548 152.486 Q519.558 153.666 519.558 156.514 Q519.558 158.782 521.039 160.125 Q522.544 161.444 525.113 161.444 Q528.655 161.444 530.784 158.944 Q532.937 156.421 532.937 152.254 L532.937 151.305 L528.701 151.305 M537.196 149.546 L537.196 164.338 L532.937 164.338 L532.937 160.402 Q531.479 162.763 529.303 163.898 Q527.127 165.009 523.979 165.009 Q519.997 165.009 517.636 162.787 Q515.298 160.541 515.298 156.791 Q515.298 152.416 518.215 150.194 Q521.155 147.972 526.965 147.972 L532.937 147.972 L532.937 147.555 Q532.937 144.615 530.993 143.018 Q529.071 141.398 525.576 141.398 Q523.354 141.398 521.247 141.93 Q519.141 142.463 517.197 143.527 L517.197 139.592 Q519.534 138.69 521.734 138.25 Q523.933 137.787 526.016 137.787 Q531.641 137.787 534.419 140.703 Q537.196 143.62 537.196 149.546 Z" fill="#000000" fill-rule="nonzero" fill-opacity="1" /><path clip-path="url(#clip300)" d="M545.97 128.319 L550.229 128.319 L550.229 164.338 L545.97 164.338 L545.97 128.319 Z" fill="#000000" fill-rule="nonzero" fill-opacity="1" /></svg>
