<?xml version="1.0" encoding="utf-8"?>
<svg xmlns="http://www.w3.org/2000/svg" xmlns:xlink="http://www.w3.org/1999/xlink" width="600" height="400" viewBox="0 0 2400 1600">
<defs>
  <clipPath id="clip650">
    <rect x="0" y="0" width="2400" height="1600"/>
  </clipPath>
</defs>
<path clip-path="url(#clip650)" d="M0 1600 L2400 1600 L2400 0 L0 0  Z" fill="#ffffff" fill-rule="evenodd" fill-opacity="1"/>
<defs>
  <clipPath id="clip651">
    <rect x="480" y="0" width="1681" height="1600"/>
  </clipPath>
</defs>
<path clip-path="url(#clip650)" d="M148.057 1486.45 L2352.76 1486.45 L2352.76 47.2441 L148.057 47.2441  Z" fill="#ffffff" fill-rule="evenodd" fill-opacity="1"/>
<defs>
  <clipPath id="clip652">
    <rect x="148" y="47" width="2206" height="1440"/>
  </clipPath>
</defs>
<polyline clip-path="url(#clip652)" style="stroke:#000000; stroke-linecap:round; stroke-linejoin:round; stroke-width:2; stroke-opacity:0.1; fill:none" points="202.297,1486.45 202.297,47.2441 "/>
<polyline clip-path="url(#clip652)" style="stroke:#000000; stroke-linecap:round; stroke-linejoin:round; stroke-width:2; stroke-opacity:0.1; fill:none" points="528.557,1486.45 528.557,47.2441 "/>
<polyline clip-path="url(#clip652)" style="stroke:#000000; stroke-linecap:round; stroke-linejoin:round; stroke-width:2; stroke-opacity:0.1; fill:none" points="854.816,1486.45 854.816,47.2441 "/>
<polyline clip-path="url(#clip652)" style="stroke:#000000; stroke-linecap:round; stroke-linejoin:round; stroke-width:2; stroke-opacity:0.1; fill:none" points="1181.08,1486.45 1181.08,47.2441 "/>
<polyline clip-path="url(#clip652)" style="stroke:#000000; stroke-linecap:round; stroke-linejoin:round; stroke-width:2; stroke-opacity:0.1; fill:none" points="1507.34,1486.45 1507.34,47.2441 "/>
<polyline clip-path="url(#clip652)" style="stroke:#000000; stroke-linecap:round; stroke-linejoin:round; stroke-width:2; stroke-opacity:0.1; fill:none" points="1833.6,1486.45 1833.6,47.2441 "/>
<polyline clip-path="url(#clip652)" style="stroke:#000000; stroke-linecap:round; stroke-linejoin:round; stroke-width:2; stroke-opacity:0.1; fill:none" points="2159.85,1486.45 2159.85,47.2441 "/>
<polyline clip-path="url(#clip652)" style="stroke:#000000; stroke-linecap:round; stroke-linejoin:round; stroke-width:2; stroke-opacity:0.1; fill:none" points="148.057,1356.64 2352.76,1356.64 "/>
<polyline clip-path="url(#clip652)" style="stroke:#000000; stroke-linecap:round; stroke-linejoin:round; stroke-width:2; stroke-opacity:0.1; fill:none" points="148.057,1146.18 2352.76,1146.18 "/>
<polyline clip-path="url(#clip652)" style="stroke:#000000; stroke-linecap:round; stroke-linejoin:round; stroke-width:2; stroke-opacity:0.1; fill:none" points="148.057,935.716 2352.76,935.716 "/>
<polyline clip-path="url(#clip652)" style="stroke:#000000; stroke-linecap:round; stroke-linejoin:round; stroke-width:2; stroke-opacity:0.1; fill:none" points="148.057,725.256 2352.76,725.256 "/>
<polyline clip-path="url(#clip652)" style="stroke:#000000; stroke-linecap:round; stroke-linejoin:round; stroke-width:2; stroke-opacity:0.1; fill:none" points="148.057,514.796 2352.76,514.796 "/>
<polyline clip-path="url(#clip652)" style="stroke:#000000; stroke-linecap:round; stroke-linejoin:round; stroke-width:2; stroke-opacity:0.1; fill:none" points="148.057,304.336 2352.76,304.336 "/>
<polyline clip-path="url(#clip652)" style="stroke:#000000; stroke-linecap:round; stroke-linejoin:round; stroke-width:2; stroke-opacity:0.1; fill:none" points="148.057,93.8763 2352.76,93.8763 "/>
<polyline clip-path="url(#clip650)" style="stroke:#000000; stroke-linecap:round; stroke-linejoin:round; stroke-width:4; stroke-opacity:1; fill:none" points="148.057,1486.45 2352.76,1486.45 "/>
<polyline clip-path="url(#clip650)" style="stroke:#000000; stroke-linecap:round; stroke-linejoin:round; stroke-width:4; stroke-opacity:1; fill:none" points="202.297,1486.45 202.297,1467.55 "/>
<polyline clip-path="url(#clip650)" style="stroke:#000000; stroke-linecap:round; stroke-linejoin:round; stroke-width:4; stroke-opacity:1; fill:none" points="528.557,1486.45 528.557,1467.55 "/>
<polyline clip-path="url(#clip650)" style="stroke:#000000; stroke-linecap:round; stroke-linejoin:round; stroke-width:4; stroke-opacity:1; fill:none" points="854.816,1486.45 854.816,1467.55 "/>
<polyline clip-path="url(#clip650)" style="stroke:#000000; stroke-linecap:round; stroke-linejoin:round; stroke-width:4; stroke-opacity:1; fill:none" points="1181.08,1486.45 1181.08,1467.55 "/>
<polyline clip-path="url(#clip650)" style="stroke:#000000; stroke-linecap:round; stroke-linejoin:round; stroke-width:4; stroke-opacity:1; fill:none" points="1507.34,1486.45 1507.34,1467.55 "/>
<polyline clip-path="url(#clip650)" style="stroke:#000000; stroke-linecap:round; stroke-linejoin:round; stroke-width:4; stroke-opacity:1; fill:none" points="1833.6,1486.45 1833.6,1467.55 "/>
<polyline clip-path="url(#clip650)" style="stroke:#000000; stroke-linecap:round; stroke-linejoin:round; stroke-width:4; stroke-opacity:1; fill:none" points="2159.85,1486.45 2159.85,1467.55 "/>
<path clip-path="url(#clip650)" d="M202.297 1517.37 Q198.686 1517.37 196.857 1520.93 Q195.052 1524.47 195.052 1531.6 Q195.052 1538.71 196.857 1542.27 Q198.686 1545.82 202.297 1545.82 Q205.932 1545.82 207.737 1542.27 Q209.566 1538.71 209.566 1531.6 Q209.566 1524.47 207.737 1520.93 Q205.932 1517.37 202.297 1517.37 M202.297 1513.66 Q208.107 1513.66 211.163 1518.27 Q214.242 1522.85 214.242 1531.6 Q214.242 1540.33 211.163 1544.94 Q208.107 1549.52 202.297 1549.52 Q196.487 1549.52 193.408 1544.94 Q190.353 1540.33 190.353 1531.6 Q190.353 1522.85 193.408 1518.27 Q196.487 1513.66 202.297 1513.66 Z" fill="#000000" fill-rule="nonzero" fill-opacity="1" /><path clip-path="url(#clip650)" d="M503.245 1544.91 L510.883 1544.91 L510.883 1518.55 L502.573 1520.21 L502.573 1515.95 L510.837 1514.29 L515.513 1514.29 L515.513 1544.91 L523.152 1544.91 L523.152 1548.85 L503.245 1548.85 L503.245 1544.91 Z" fill="#000000" fill-rule="nonzero" fill-opacity="1" /><path clip-path="url(#clip650)" d="M542.596 1517.37 Q538.985 1517.37 537.156 1520.93 Q535.351 1524.47 535.351 1531.6 Q535.351 1538.71 537.156 1542.27 Q538.985 1545.82 542.596 1545.82 Q546.23 1545.82 548.036 1542.27 Q549.865 1538.71 549.865 1531.6 Q549.865 1524.47 548.036 1520.93 Q546.23 1517.37 542.596 1517.37 M542.596 1513.66 Q548.406 1513.66 551.462 1518.27 Q554.541 1522.85 554.541 1531.6 Q554.541 1540.33 551.462 1544.94 Q548.406 1549.52 542.596 1549.52 Q536.786 1549.52 533.707 1544.94 Q530.652 1540.33 530.652 1531.6 Q530.652 1522.85 533.707 1518.27 Q536.786 1513.66 542.596 1513.66 Z" fill="#000000" fill-rule="nonzero" fill-opacity="1" /><path clip-path="url(#clip650)" d="M833.59 1544.91 L849.909 1544.91 L849.909 1548.85 L827.965 1548.85 L827.965 1544.91 Q830.627 1542.16 835.21 1537.53 Q839.817 1532.88 840.997 1531.53 Q843.242 1529.01 844.122 1527.27 Q845.025 1525.51 845.025 1523.82 Q845.025 1521.07 843.08 1519.33 Q841.159 1517.6 838.057 1517.6 Q835.858 1517.6 833.405 1518.36 Q830.974 1519.13 828.196 1520.68 L828.196 1515.95 Q831.02 1514.82 833.474 1514.24 Q835.928 1513.66 837.965 1513.66 Q843.335 1513.66 846.529 1516.35 Q849.724 1519.03 849.724 1523.52 Q849.724 1525.65 848.914 1527.57 Q848.127 1529.47 846.02 1532.07 Q845.442 1532.74 842.34 1535.95 Q839.238 1539.15 833.59 1544.91 Z" fill="#000000" fill-rule="nonzero" fill-opacity="1" /><path clip-path="url(#clip650)" d="M869.724 1517.37 Q866.113 1517.37 864.284 1520.93 Q862.478 1524.47 862.478 1531.6 Q862.478 1538.71 864.284 1542.27 Q866.113 1545.82 869.724 1545.82 Q873.358 1545.82 875.164 1542.27 Q876.992 1538.71 876.992 1531.6 Q876.992 1524.47 875.164 1520.93 Q873.358 1517.37 869.724 1517.37 M869.724 1513.66 Q875.534 1513.66 878.59 1518.27 Q881.668 1522.85 881.668 1531.6 Q881.668 1540.33 878.59 1544.94 Q875.534 1549.52 869.724 1549.52 Q863.914 1549.52 860.835 1544.94 Q857.779 1540.33 857.779 1531.6 Q857.779 1522.85 860.835 1518.27 Q863.914 1513.66 869.724 1513.66 Z" fill="#000000" fill-rule="nonzero" fill-opacity="1" /><path clip-path="url(#clip650)" d="M1169.92 1530.21 Q1173.28 1530.93 1175.15 1533.2 Q1177.05 1535.47 1177.05 1538.8 Q1177.05 1543.92 1173.53 1546.72 Q1170.01 1549.52 1163.53 1549.52 Q1161.35 1549.52 1159.04 1549.08 Q1156.75 1548.66 1154.29 1547.81 L1154.29 1543.29 Q1156.24 1544.43 1158.55 1545.01 Q1160.87 1545.58 1163.39 1545.58 Q1167.79 1545.58 1170.08 1543.85 Q1172.4 1542.11 1172.4 1538.8 Q1172.4 1535.75 1170.24 1534.03 Q1168.11 1532.3 1164.29 1532.3 L1160.27 1532.3 L1160.27 1528.45 L1164.48 1528.45 Q1167.93 1528.45 1169.76 1527.09 Q1171.59 1525.7 1171.59 1523.11 Q1171.59 1520.45 1169.69 1519.03 Q1167.81 1517.6 1164.29 1517.6 Q1162.37 1517.6 1160.17 1518.01 Q1157.97 1518.43 1155.34 1519.31 L1155.34 1515.14 Q1158 1514.4 1160.31 1514.03 Q1162.65 1513.66 1164.71 1513.66 Q1170.03 1513.66 1173.14 1516.09 Q1176.24 1518.5 1176.24 1522.62 Q1176.24 1525.49 1174.59 1527.48 Q1172.95 1529.45 1169.92 1530.21 Z" fill="#000000" fill-rule="nonzero" fill-opacity="1" /><path clip-path="url(#clip650)" d="M1195.91 1517.37 Q1192.3 1517.37 1190.47 1520.93 Q1188.67 1524.47 1188.67 1531.6 Q1188.67 1538.71 1190.47 1542.27 Q1192.3 1545.82 1195.91 1545.82 Q1199.55 1545.82 1201.35 1542.27 Q1203.18 1538.71 1203.18 1531.6 Q1203.18 1524.47 1201.35 1520.93 Q1199.55 1517.37 1195.91 1517.37 M1195.91 1513.66 Q1201.72 1513.66 1204.78 1518.27 Q1207.86 1522.85 1207.86 1531.6 Q1207.86 1540.33 1204.78 1544.94 Q1201.72 1549.52 1195.91 1549.52 Q1190.1 1549.52 1187.03 1544.94 Q1183.97 1540.33 1183.97 1531.6 Q1183.97 1522.85 1187.03 1518.27 Q1190.1 1513.66 1195.91 1513.66 Z" fill="#000000" fill-rule="nonzero" fill-opacity="1" /><path clip-path="url(#clip650)" d="M1495.51 1518.36 L1483.7 1536.81 L1495.51 1536.81 L1495.51 1518.36 M1494.28 1514.29 L1500.16 1514.29 L1500.16 1536.81 L1505.09 1536.81 L1505.09 1540.7 L1500.16 1540.7 L1500.16 1548.85 L1495.51 1548.85 L1495.51 1540.7 L1479.91 1540.7 L1479.91 1536.19 L1494.28 1514.29 Z" fill="#000000" fill-rule="nonzero" fill-opacity="1" /><path clip-path="url(#clip650)" d="M1522.82 1517.37 Q1519.21 1517.37 1517.38 1520.93 Q1515.58 1524.47 1515.58 1531.6 Q1515.58 1538.71 1517.38 1542.27 Q1519.21 1545.82 1522.82 1545.82 Q1526.46 1545.82 1528.26 1542.27 Q1530.09 1538.71 1530.09 1531.6 Q1530.09 1524.47 1528.26 1520.93 Q1526.46 1517.37 1522.82 1517.37 M1522.82 1513.66 Q1528.63 1513.66 1531.69 1518.27 Q1534.77 1522.85 1534.77 1531.6 Q1534.77 1540.33 1531.69 1544.94 Q1528.63 1549.52 1522.82 1549.52 Q1517.01 1549.52 1513.93 1544.94 Q1510.88 1540.33 1510.88 1531.6 Q1510.88 1522.85 1513.93 1518.27 Q1517.01 1513.66 1522.82 1513.66 Z" fill="#000000" fill-rule="nonzero" fill-opacity="1" /><path clip-path="url(#clip650)" d="M1808.29 1514.29 L1826.65 1514.29 L1826.65 1518.22 L1812.58 1518.22 L1812.58 1526.7 Q1813.6 1526.35 1814.61 1526.19 Q1815.63 1526 1816.65 1526 Q1822.44 1526 1825.82 1529.17 Q1829.2 1532.34 1829.2 1537.76 Q1829.2 1543.34 1825.72 1546.44 Q1822.25 1549.52 1815.93 1549.52 Q1813.76 1549.52 1811.49 1549.15 Q1809.24 1548.78 1806.84 1548.04 L1806.84 1543.34 Q1808.92 1544.47 1811.14 1545.03 Q1813.36 1545.58 1815.84 1545.58 Q1819.85 1545.58 1822.18 1543.48 Q1824.52 1541.37 1824.52 1537.76 Q1824.52 1534.15 1822.18 1532.04 Q1819.85 1529.94 1815.84 1529.94 Q1813.97 1529.94 1812.09 1530.35 Q1810.24 1530.77 1808.29 1531.65 L1808.29 1514.29 Z" fill="#000000" fill-rule="nonzero" fill-opacity="1" /><path clip-path="url(#clip650)" d="M1848.41 1517.37 Q1844.8 1517.37 1842.97 1520.93 Q1841.16 1524.47 1841.16 1531.6 Q1841.16 1538.71 1842.97 1542.27 Q1844.8 1545.82 1848.41 1545.82 Q1852.04 1545.82 1853.85 1542.27 Q1855.68 1538.71 1855.68 1531.6 Q1855.68 1524.47 1853.85 1520.93 Q1852.04 1517.37 1848.41 1517.37 M1848.41 1513.66 Q1854.22 1513.66 1857.28 1518.27 Q1860.35 1522.85 1860.35 1531.6 Q1860.35 1540.33 1857.28 1544.94 Q1854.22 1549.52 1848.41 1549.52 Q1842.6 1549.52 1839.52 1544.94 Q1836.47 1540.33 1836.47 1531.6 Q1836.47 1522.85 1839.52 1518.27 Q1842.6 1513.66 1848.41 1513.66 Z" fill="#000000" fill-rule="nonzero" fill-opacity="1" /><path clip-path="url(#clip650)" d="M2145.26 1529.7 Q2142.11 1529.7 2140.26 1531.86 Q2138.43 1534.01 2138.43 1537.76 Q2138.43 1541.49 2140.26 1543.66 Q2142.11 1545.82 2145.26 1545.82 Q2148.41 1545.82 2150.24 1543.66 Q2152.09 1541.49 2152.09 1537.76 Q2152.09 1534.01 2150.24 1531.86 Q2148.41 1529.7 2145.26 1529.7 M2154.54 1515.05 L2154.54 1519.31 Q2152.78 1518.48 2150.98 1518.04 Q2149.2 1517.6 2147.44 1517.6 Q2142.81 1517.6 2140.35 1520.72 Q2137.92 1523.85 2137.57 1530.17 Q2138.94 1528.15 2141 1527.09 Q2143.06 1526 2145.54 1526 Q2150.75 1526 2153.76 1529.17 Q2156.79 1532.32 2156.79 1537.76 Q2156.79 1543.08 2153.64 1546.3 Q2150.49 1549.52 2145.26 1549.52 Q2139.26 1549.52 2136.09 1544.94 Q2132.92 1540.33 2132.92 1531.6 Q2132.92 1523.41 2136.81 1518.55 Q2140.7 1513.66 2147.25 1513.66 Q2149.01 1513.66 2150.79 1514.01 Q2152.6 1514.36 2154.54 1515.05 Z" fill="#000000" fill-rule="nonzero" fill-opacity="1" /><path clip-path="url(#clip650)" d="M2174.84 1517.37 Q2171.23 1517.37 2169.4 1520.93 Q2167.6 1524.47 2167.6 1531.6 Q2167.6 1538.71 2169.4 1542.27 Q2171.23 1545.82 2174.84 1545.82 Q2178.48 1545.82 2180.28 1542.27 Q2182.11 1538.71 2182.11 1531.6 Q2182.11 1524.47 2180.28 1520.93 Q2178.48 1517.37 2174.84 1517.37 M2174.84 1513.66 Q2180.65 1513.66 2183.71 1518.27 Q2186.79 1522.85 2186.79 1531.6 Q2186.79 1540.33 2183.71 1544.94 Q2180.65 1549.52 2174.84 1549.52 Q2169.03 1549.52 2165.95 1544.94 Q2162.9 1540.33 2162.9 1531.6 Q2162.9 1522.85 2165.95 1518.27 Q2169.03 1513.66 2174.84 1513.66 Z" fill="#000000" fill-rule="nonzero" fill-opacity="1" /><polyline clip-path="url(#clip650)" style="stroke:#000000; stroke-linecap:round; stroke-linejoin:round; stroke-width:4; stroke-opacity:1; fill:none" points="148.057,1486.45 148.057,47.2441 "/>
<polyline clip-path="url(#clip650)" style="stroke:#000000; stroke-linecap:round; stroke-linejoin:round; stroke-width:4; stroke-opacity:1; fill:none" points="148.057,1356.64 166.954,1356.64 "/>
<polyline clip-path="url(#clip650)" style="stroke:#000000; stroke-linecap:round; stroke-linejoin:round; stroke-width:4; stroke-opacity:1; fill:none" points="148.057,1146.18 166.954,1146.18 "/>
<polyline clip-path="url(#clip650)" style="stroke:#000000; stroke-linecap:round; stroke-linejoin:round; stroke-width:4; stroke-opacity:1; fill:none" points="148.057,935.716 166.954,935.716 "/>
<polyline clip-path="url(#clip650)" style="stroke:#000000; stroke-linecap:round; stroke-linejoin:round; stroke-width:4; stroke-opacity:1; fill:none" points="148.057,725.256 166.954,725.256 "/>
<polyline clip-path="url(#clip650)" style="stroke:#000000; stroke-linecap:round; stroke-linejoin:round; stroke-width:4; stroke-opacity:1; fill:none" points="148.057,514.796 166.954,514.796 "/>
<polyline clip-path="url(#clip650)" style="stroke:#000000; stroke-linecap:round; stroke-linejoin:round; stroke-width:4; stroke-opacity:1; fill:none" points="148.057,304.336 166.954,304.336 "/>
<polyline clip-path="url(#clip650)" style="stroke:#000000; stroke-linecap:round; stroke-linejoin:round; stroke-width:4; stroke-opacity:1; fill:none" points="148.057,93.8763 166.954,93.8763 "/>
<path clip-path="url(#clip650)" d="M50.9921 1357.09 L80.6679 1357.09 L80.6679 1361.02 L50.9921 1361.02 L50.9921 1357.09 Z" fill="#000000" fill-rule="nonzero" fill-opacity="1" /><path clip-path="url(#clip650)" d="M104.927 1355.28 Q108.283 1356 110.158 1358.27 Q112.057 1360.54 112.057 1363.87 Q112.057 1368.99 108.538 1371.79 Q105.02 1374.59 98.5382 1374.59 Q96.3623 1374.59 94.0475 1374.15 Q91.7558 1373.73 89.3021 1372.87 L89.3021 1368.36 Q91.2465 1369.5 93.5613 1370.07 Q95.8761 1370.65 98.3993 1370.65 Q102.797 1370.65 105.089 1368.92 Q107.404 1367.18 107.404 1363.87 Q107.404 1360.81 105.251 1359.1 Q103.121 1357.37 99.3021 1357.37 L95.2743 1357.37 L95.2743 1353.52 L99.4872 1353.52 Q102.936 1353.52 104.765 1352.16 Q106.594 1350.77 106.594 1348.18 Q106.594 1345.51 104.696 1344.1 Q102.821 1342.67 99.3021 1342.67 Q97.3808 1342.67 95.1817 1343.08 Q92.9826 1343.5 90.3438 1344.38 L90.3438 1340.21 Q93.0058 1339.47 95.3206 1339.1 Q97.6585 1338.73 99.7187 1338.73 Q105.043 1338.73 108.145 1341.16 Q111.246 1343.57 111.246 1347.69 Q111.246 1350.56 109.603 1352.55 Q107.959 1354.52 104.927 1355.28 Z" fill="#000000" fill-rule="nonzero" fill-opacity="1" /><path clip-path="url(#clip650)" d="M51.9412 1146.63 L81.617 1146.63 L81.617 1150.56 L51.9412 1150.56 L51.9412 1146.63 Z" fill="#000000" fill-rule="nonzero" fill-opacity="1" /><path clip-path="url(#clip650)" d="M95.7373 1159.52 L112.057 1159.52 L112.057 1163.46 L90.1123 1163.46 L90.1123 1159.52 Q92.7743 1156.77 97.3576 1152.14 Q101.964 1147.48 103.145 1146.14 Q105.39 1143.62 106.27 1141.88 Q107.172 1140.12 107.172 1138.43 Q107.172 1135.68 105.228 1133.94 Q103.307 1132.21 100.205 1132.21 Q98.0058 1132.21 95.5521 1132.97 Q93.1215 1133.73 90.3438 1135.29 L90.3438 1130.56 Q93.1678 1129.43 95.6215 1128.85 Q98.0752 1128.27 100.112 1128.27 Q105.483 1128.27 108.677 1130.96 Q111.871 1133.64 111.871 1138.13 Q111.871 1140.26 111.061 1142.18 Q110.274 1144.08 108.168 1146.67 Q107.589 1147.35 104.487 1150.56 Q101.385 1153.76 95.7373 1159.52 Z" fill="#000000" fill-rule="nonzero" fill-opacity="1" /><path clip-path="url(#clip650)" d="M51.5708 936.168 L81.2466 936.168 L81.2466 940.103 L51.5708 940.103 L51.5708 936.168 Z" fill="#000000" fill-rule="nonzero" fill-opacity="1" /><path clip-path="url(#clip650)" d="M92.1493 949.061 L99.7882 949.061 L99.7882 922.696 L91.478 924.362 L91.478 920.103 L99.7419 918.436 L104.418 918.436 L104.418 949.061 L112.057 949.061 L112.057 952.996 L92.1493 952.996 L92.1493 949.061 Z" fill="#000000" fill-rule="nonzero" fill-opacity="1" /><path clip-path="url(#clip650)" d="M100.112 711.055 Q96.5011 711.055 94.6724 714.62 Q92.8669 718.162 92.8669 725.291 Q92.8669 732.398 94.6724 735.962 Q96.5011 739.504 100.112 739.504 Q103.746 739.504 105.552 735.962 Q107.381 732.398 107.381 725.291 Q107.381 718.162 105.552 714.62 Q103.746 711.055 100.112 711.055 M100.112 707.351 Q105.922 707.351 108.978 711.958 Q112.057 716.541 112.057 725.291 Q112.057 734.018 108.978 738.624 Q105.922 743.208 100.112 743.208 Q94.3021 743.208 91.2234 738.624 Q88.1679 734.018 88.1679 725.291 Q88.1679 716.541 91.2234 711.958 Q94.3021 707.351 100.112 707.351 Z" fill="#000000" fill-rule="nonzero" fill-opacity="1" /><path clip-path="url(#clip650)" d="M92.1493 528.141 L99.7882 528.141 L99.7882 501.776 L91.478 503.442 L91.478 499.183 L99.7419 497.516 L104.418 497.516 L104.418 528.141 L112.057 528.141 L112.057 532.076 L92.1493 532.076 L92.1493 528.141 Z" fill="#000000" fill-rule="nonzero" fill-opacity="1" /><path clip-path="url(#clip650)" d="M95.7373 317.681 L112.057 317.681 L112.057 321.616 L90.1123 321.616 L90.1123 317.681 Q92.7743 314.927 97.3576 310.297 Q101.964 305.644 103.145 304.302 Q105.39 301.778 106.27 300.042 Q107.172 298.283 107.172 296.593 Q107.172 293.839 105.228 292.103 Q103.307 290.367 100.205 290.367 Q98.0058 290.367 95.5521 291.13 Q93.1215 291.894 90.3438 293.445 L90.3438 288.723 Q93.1678 287.589 95.6215 287.01 Q98.0752 286.431 100.112 286.431 Q105.483 286.431 108.677 289.117 Q111.871 291.802 111.871 296.292 Q111.871 298.422 111.061 300.343 Q110.274 302.241 108.168 304.834 Q107.589 305.505 104.487 308.723 Q101.385 311.917 95.7373 317.681 Z" fill="#000000" fill-rule="nonzero" fill-opacity="1" /><path clip-path="url(#clip650)" d="M104.927 92.5222 Q108.283 93.2397 110.158 95.5083 Q112.057 97.7768 112.057 101.11 Q112.057 106.226 108.538 109.027 Q105.02 111.828 98.5382 111.828 Q96.3623 111.828 94.0475 111.388 Q91.7558 110.971 89.3021 110.115 L89.3021 105.601 Q91.2465 106.735 93.5613 107.314 Q95.8761 107.892 98.3993 107.892 Q102.797 107.892 105.089 106.156 Q107.404 104.42 107.404 101.11 Q107.404 98.0545 105.251 96.3416 Q103.121 94.6055 99.3021 94.6055 L95.2743 94.6055 L95.2743 90.7629 L99.4872 90.7629 Q102.936 90.7629 104.765 89.3972 Q106.594 88.0083 106.594 85.4157 Q106.594 82.7537 104.696 81.3417 Q102.821 79.9065 99.3021 79.9065 Q97.3808 79.9065 95.1817 80.3231 Q92.9826 80.7398 90.3438 81.6194 L90.3438 77.4528 Q93.0058 76.7121 95.3206 76.3417 Q97.6585 75.9713 99.7187 75.9713 Q105.043 75.9713 108.145 78.4019 Q111.246 80.8093 111.246 84.9296 Q111.246 87.8 109.603 89.7907 Q107.959 91.7583 104.927 92.5222 Z" fill="#000000" fill-rule="nonzero" fill-opacity="1" /><polyline clip-path="url(#clip652)" style="stroke:#009af9; stroke-linecap:round; stroke-linejoin:round; stroke-width:4; stroke-opacity:1; fill:none" points="210.454,763.729 218.61,747.254 226.767,852.967 234.923,916.437 243.08,784.209 251.236,607.876 259.393,426.016 267.549,385.499 275.706,597.984 283.862,803.838 292.019,840.357 300.175,859.672 308.332,952.172 316.488,841.827 324.645,718.053 332.801,755.697 340.958,622.879 349.114,338.279 357.271,407.014 365.427,768.553 373.584,758.755 381.74,778.91 389.897,930.521 398.053,945.243 406.21,802.19 414.366,695.413 422.523,829.843 430.679,870.073 438.835,854.343 446.992,928.598 455.148,1000.77 463.305,914.547 471.461,613.279 479.618,357.054 487.774,525.402 495.931,769.951 504.087,946.141 512.244,1099.09 520.4,922.974 528.557,439.748 536.713,305.331 544.87,608.407 553.026,850.144 561.183,834.579 569.339,802.404 577.496,671.45 585.652,638.641 593.809,712.412 601.965,652.32 610.122,810.431 618.278,740.87 626.435,797.283 634.591,917.814 642.748,711.405 650.904,549.504 659.061,596.908 667.217,882.843 675.374,898.046 683.53,858.337 691.687,1006.51 699.843,960.006 708,575.698 716.156,87.9763 724.313,157.119 732.469,457.405 740.626,652.974 748.782,782.11 756.939,707.263 765.095,528.168 773.252,585.634 781.408,807.969 789.565,781.025 797.721,673.687 805.878,621.814 814.034,691.778 822.191,785.747 830.347,766.687 838.504,804.113 846.66,846.845 854.816,613.788 862.973,557.226 871.129,542.678 879.286,646.37 887.442,824.139 895.599,815.126 903.755,765.008 911.912,740.299 920.068,696.006 928.225,661.028 936.381,695.566 944.538,866.684 952.694,938.046 960.851,948.488 969.007,916.852 977.164,793.347 985.32,612.522 993.477,449.162 1001.63,549.632 1009.79,623.767 1017.95,244.329 1026.1,113.133 1034.26,406.806 1042.42,772.034 1050.57,1188.08 1058.73,1445.72 1066.89,1221.71 1075.04,997.048 1083.2,1008.45 1091.35,980.535 1099.51,779.188 1107.67,723.895 1115.82,837.833 1123.98,772.216 1132.14,735.085 1140.29,577.404 1148.45,377.406 1156.61,394.888 1164.76,623.08 1172.92,701.063 1181.08,574.423 1189.23,576.294 1197.39,634.527 1205.55,650.888 1213.7,689.466 1221.86,627.422 1230.02,668.061 1238.17,841.278 1246.33,914.542 1254.48,984.203 1262.64,985.44 1270.8,794.836 1278.95,647.819 1287.11,571.316 1295.27,510.939 1303.42,630.031 1311.58,752.424 1319.74,713.383 1327.89,672.257 1336.05,618.331 1344.21,646.837 1352.36,654.595 1360.52,784.068 1368.68,954.922 1376.83,892.248 1384.99,712.522 1393.14,715.069 1401.3,782.637 1409.46,967.797 1417.61,821.144 1425.77,537.862 1433.93,664.089 1442.08,892.254 1450.24,974.206 1458.4,811.224 1466.55,605.901 1474.71,657.368 1482.87,830.311 1491.02,996.742 1499.18,813.549 1507.34,469.855 1515.49,470.268 1523.65,713.992 1531.81,829.656 1539.96,840.045 1548.12,526.286 1556.27,181.871 1564.43,315.115 1572.59,536.569 1580.74,743.763 1588.9,1005.56 1597.06,1131.52 1605.21,1196.53 1613.37,1061.83 1621.53,673.492 1629.68,460.195 1637.84,197.458 1646,224.301 1654.15,616.571 1662.31,699.948 1670.47,718.119 1678.62,1003.76 1686.78,1127.83 1694.93,1037.09 1703.09,994.59 1711.25,963.676 1719.4,896.822 1727.56,748.536 1735.72,678.657 1743.87,698.354 1752.03,842.392 1760.19,822.529 1768.34,700.716 1776.5,722.775 1784.66,895.152 1792.81,930.432 1800.97,770.957 1809.13,598.484 1817.28,747.249 1825.44,805.294 1833.6,537.729 1841.75,417.162 1849.91,626.292 1858.06,756.157 1866.22,690.194 1874.38,551.101 1882.53,340.325 1890.69,310.91 1898.85,544.149 1907,628.45 1915.16,613.381 1923.32,867.517 1931.47,821.151 1939.63,749.632 1947.79,920.755 1955.94,1057.28 1964.1,1107.75 1972.26,820.232 1980.41,343.616 1988.57,245.034 1996.73,845.552 2004.88,1115.32 2013.04,991.872 2021.19,862.432 2029.35,735.567 2037.51,622.333 2045.66,530.044 2053.82,587.033 2061.98,709.355 2070.13,711.344 2078.29,629.746 2086.45,671.299 2094.6,740.942 2102.76,892.442 2110.92,782.309 2119.07,576.594 2127.23,533.535 2135.39,569.395 2143.54,618.396 2151.7,708.211 2159.85,834.313 2168.01,914.695 2176.17,840.912 2184.32,918.687 2192.48,1024.86 2200.64,1012.53 2208.79,748.879 2216.95,636.516 2225.11,602.858 2233.26,416.444 2241.42,309.715 2249.58,619.688 2257.73,1021.43 2265.89,978.758 2274.05,609.301 2282.2,470.092 2290.36,703.515 "/>
<path clip-path="url(#clip650)" d="M1925.58 1438.47 L2279.27 1438.47 L2279.27 1334.79 L1925.58 1334.79  Z" fill="#ffffff" fill-rule="evenodd" fill-opacity="1"/>
<polyline clip-path="url(#clip650)" style="stroke:#000000; stroke-linecap:round; stroke-linejoin:round; stroke-width:4; stroke-opacity:1; fill:none" points="1925.58,1438.47 2279.27,1438.47 2279.27,1334.79 1925.58,1334.79 1925.58,1438.47 "/>
<polyline clip-path="url(#clip650)" style="stroke:#009af9; stroke-linecap:round; stroke-linejoin:round; stroke-width:4; stroke-opacity:1; fill:none" points="1950.08,1386.63 2097.06,1386.63 "/>
<path clip-path="url(#clip650)" d="M2139.98 1378.75 L2139.98 1382.78 Q2138.17 1381.85 2136.23 1381.39 Q2134.28 1380.93 2132.2 1380.93 Q2129.03 1380.93 2127.43 1381.9 Q2125.86 1382.87 2125.86 1384.82 Q2125.86 1386.3 2126.99 1387.16 Q2128.13 1387.99 2131.55 1388.75 L2133.01 1389.08 Q2137.55 1390.05 2139.45 1391.83 Q2141.37 1393.59 2141.37 1396.76 Q2141.37 1400.37 2138.5 1402.48 Q2135.65 1404.59 2130.65 1404.59 Q2128.57 1404.59 2126.3 1404.17 Q2124.05 1403.78 2121.55 1402.97 L2121.55 1398.57 Q2123.91 1399.79 2126.21 1400.42 Q2128.5 1401.02 2130.74 1401.02 Q2133.75 1401.02 2135.37 1400 Q2136.99 1398.96 2136.99 1397.09 Q2136.99 1395.35 2135.81 1394.42 Q2134.65 1393.5 2130.7 1392.64 L2129.21 1392.29 Q2125.26 1391.46 2123.5 1389.75 Q2121.74 1388.01 2121.74 1385 Q2121.74 1381.35 2124.33 1379.35 Q2126.92 1377.36 2131.69 1377.36 Q2134.05 1377.36 2136.14 1377.71 Q2138.22 1378.06 2139.98 1378.75 Z" fill="#000000" fill-rule="nonzero" fill-opacity="1" /><path clip-path="url(#clip650)" d="M2148.15 1377.99 L2152.41 1377.99 L2152.41 1403.91 L2148.15 1403.91 L2148.15 1377.99 M2148.15 1367.9 L2152.41 1367.9 L2152.41 1373.29 L2148.15 1373.29 L2148.15 1367.9 Z" fill="#000000" fill-rule="nonzero" fill-opacity="1" /><path clip-path="url(#clip650)" d="M2178.38 1390.65 Q2178.38 1386.02 2176.46 1383.47 Q2174.56 1380.93 2171.11 1380.93 Q2167.69 1380.93 2165.77 1383.47 Q2163.87 1386.02 2163.87 1390.65 Q2163.87 1395.26 2165.77 1397.8 Q2167.69 1400.35 2171.11 1400.35 Q2174.56 1400.35 2176.46 1397.8 Q2178.38 1395.26 2178.38 1390.65 M2182.64 1400.7 Q2182.64 1407.32 2179.7 1410.53 Q2176.76 1413.78 2170.7 1413.78 Q2168.45 1413.78 2166.46 1413.43 Q2164.47 1413.1 2162.59 1412.41 L2162.59 1408.27 Q2164.47 1409.28 2166.3 1409.77 Q2168.13 1410.26 2170.02 1410.26 Q2174.21 1410.26 2176.3 1408.06 Q2178.38 1405.88 2178.38 1401.46 L2178.38 1399.35 Q2177.06 1401.65 2175 1402.78 Q2172.94 1403.91 2170.07 1403.91 Q2165.3 1403.91 2162.39 1400.28 Q2159.47 1396.65 2159.47 1390.65 Q2159.47 1384.63 2162.39 1381 Q2165.3 1377.36 2170.07 1377.36 Q2172.94 1377.36 2175 1378.5 Q2177.06 1379.63 2178.38 1381.92 L2178.38 1377.99 L2182.64 1377.99 L2182.64 1400.7 Z" fill="#000000" fill-rule="nonzero" fill-opacity="1" /><path clip-path="url(#clip650)" d="M2212.96 1388.27 L2212.96 1403.91 L2208.7 1403.91 L2208.7 1388.41 Q2208.7 1384.72 2207.27 1382.9 Q2205.83 1381.07 2202.96 1381.07 Q2199.51 1381.07 2197.52 1383.27 Q2195.53 1385.47 2195.53 1389.26 L2195.53 1403.91 L2191.25 1403.91 L2191.25 1377.99 L2195.53 1377.99 L2195.53 1382.02 Q2197.06 1379.68 2199.12 1378.52 Q2201.2 1377.36 2203.91 1377.36 Q2208.38 1377.36 2210.67 1380.14 Q2212.96 1382.9 2212.96 1388.27 Z" fill="#000000" fill-rule="nonzero" fill-opacity="1" /><path clip-path="url(#clip650)" d="M2233.24 1390.88 Q2228.08 1390.88 2226.09 1392.06 Q2224.1 1393.24 2224.1 1396.09 Q2224.1 1398.36 2225.58 1399.7 Q2227.08 1401.02 2229.65 1401.02 Q2233.2 1401.02 2235.32 1398.52 Q2237.48 1396 2237.48 1391.83 L2237.48 1390.88 L2233.24 1390.88 M2241.74 1389.12 L2241.74 1403.91 L2237.48 1403.91 L2237.48 1399.98 Q2236.02 1402.34 2233.84 1403.47 Q2231.67 1404.59 2228.52 1404.59 Q2224.54 1404.59 2222.18 1402.36 Q2219.84 1400.12 2219.84 1396.37 Q2219.84 1391.99 2222.76 1389.77 Q2225.7 1387.55 2231.51 1387.55 L2237.48 1387.55 L2237.48 1387.13 Q2237.48 1384.19 2235.53 1382.6 Q2233.61 1380.97 2230.12 1380.97 Q2227.89 1380.97 2225.79 1381.51 Q2223.68 1382.04 2221.74 1383.1 L2221.74 1379.17 Q2224.07 1378.27 2226.27 1377.83 Q2228.47 1377.36 2230.56 1377.36 Q2236.18 1377.36 2238.96 1380.28 Q2241.74 1383.2 2241.74 1389.12 Z" fill="#000000" fill-rule="nonzero" fill-opacity="1" /><path clip-path="url(#clip650)" d="M2250.51 1367.9 L2254.77 1367.9 L2254.77 1403.91 L2250.51 1403.91 L2250.51 1367.9 Z" fill="#000000" fill-rule="nonzero" fill-opacity="1" /></svg>
