<?xml version="1.0" encoding="utf-8"?>
<svg xmlns="http://www.w3.org/2000/svg" xmlns:xlink="http://www.w3.org/1999/xlink" width="600" height="400" viewBox="0 0 2400 1600">
<defs>
  <clipPath id="clip800">
    <rect x="0" y="0" width="2400" height="1600"/>
  </clipPath>
</defs>
<path clip-path="url(#clip800)" d="M0 1600 L2400 1600 L2400 0 L0 0  Z" fill="#ffffff" fill-rule="evenodd" fill-opacity="1"/>
<defs>
  <clipPath id="clip801">
    <rect x="480" y="0" width="1681" height="1600"/>
  </clipPath>
</defs>
<path clip-path="url(#clip800)" d="M210.746 1423.18 L2352.76 1423.18 L2352.76 47.2441 L210.746 47.2441  Z" fill="#ffffff" fill-rule="evenodd" fill-opacity="1"/>
<defs>
  <clipPath id="clip802">
    <rect x="210" y="47" width="2143" height="1377"/>
  </clipPath>
</defs>
<polyline clip-path="url(#clip802)" style="stroke:#000000; stroke-linecap:round; stroke-linejoin:round; stroke-width:2; stroke-opacity:0.1; fill:none" points="263.444,1423.18 263.444,47.2441 "/>
<polyline clip-path="url(#clip802)" style="stroke:#000000; stroke-linecap:round; stroke-linejoin:round; stroke-width:2; stroke-opacity:0.1; fill:none" points="580.427,1423.18 580.427,47.2441 "/>
<polyline clip-path="url(#clip802)" style="stroke:#000000; stroke-linecap:round; stroke-linejoin:round; stroke-width:2; stroke-opacity:0.1; fill:none" points="897.41,1423.18 897.41,47.2441 "/>
<polyline clip-path="url(#clip802)" style="stroke:#000000; stroke-linecap:round; stroke-linejoin:round; stroke-width:2; stroke-opacity:0.1; fill:none" points="1214.39,1423.18 1214.39,47.2441 "/>
<polyline clip-path="url(#clip802)" style="stroke:#000000; stroke-linecap:round; stroke-linejoin:round; stroke-width:2; stroke-opacity:0.1; fill:none" points="1531.37,1423.18 1531.37,47.2441 "/>
<polyline clip-path="url(#clip802)" style="stroke:#000000; stroke-linecap:round; stroke-linejoin:round; stroke-width:2; stroke-opacity:0.1; fill:none" points="1848.36,1423.18 1848.36,47.2441 "/>
<polyline clip-path="url(#clip802)" style="stroke:#000000; stroke-linecap:round; stroke-linejoin:round; stroke-width:2; stroke-opacity:0.1; fill:none" points="2165.34,1423.18 2165.34,47.2441 "/>
<polyline clip-path="url(#clip802)" style="stroke:#000000; stroke-linecap:round; stroke-linejoin:round; stroke-width:2; stroke-opacity:0.1; fill:none" points="210.746,1273.26 2352.76,1273.26 "/>
<polyline clip-path="url(#clip802)" style="stroke:#000000; stroke-linecap:round; stroke-linejoin:round; stroke-width:2; stroke-opacity:0.1; fill:none" points="210.746,1041.41 2352.76,1041.41 "/>
<polyline clip-path="url(#clip802)" style="stroke:#000000; stroke-linecap:round; stroke-linejoin:round; stroke-width:2; stroke-opacity:0.1; fill:none" points="210.746,809.559 2352.76,809.559 "/>
<polyline clip-path="url(#clip802)" style="stroke:#000000; stroke-linecap:round; stroke-linejoin:round; stroke-width:2; stroke-opacity:0.1; fill:none" points="210.746,577.707 2352.76,577.707 "/>
<polyline clip-path="url(#clip802)" style="stroke:#000000; stroke-linecap:round; stroke-linejoin:round; stroke-width:2; stroke-opacity:0.1; fill:none" points="210.746,345.856 2352.76,345.856 "/>
<polyline clip-path="url(#clip802)" style="stroke:#000000; stroke-linecap:round; stroke-linejoin:round; stroke-width:2; stroke-opacity:0.1; fill:none" points="210.746,114.004 2352.76,114.004 "/>
<polyline clip-path="url(#clip800)" style="stroke:#000000; stroke-linecap:round; stroke-linejoin:round; stroke-width:4; stroke-opacity:1; fill:none" points="210.746,1423.18 2352.76,1423.18 "/>
<polyline clip-path="url(#clip800)" style="stroke:#000000; stroke-linecap:round; stroke-linejoin:round; stroke-width:4; stroke-opacity:1; fill:none" points="263.444,1423.18 263.444,1404.28 "/>
<polyline clip-path="url(#clip800)" style="stroke:#000000; stroke-linecap:round; stroke-linejoin:round; stroke-width:4; stroke-opacity:1; fill:none" points="580.427,1423.18 580.427,1404.28 "/>
<polyline clip-path="url(#clip800)" style="stroke:#000000; stroke-linecap:round; stroke-linejoin:round; stroke-width:4; stroke-opacity:1; fill:none" points="897.41,1423.18 897.41,1404.28 "/>
<polyline clip-path="url(#clip800)" style="stroke:#000000; stroke-linecap:round; stroke-linejoin:round; stroke-width:4; stroke-opacity:1; fill:none" points="1214.39,1423.18 1214.39,1404.28 "/>
<polyline clip-path="url(#clip800)" style="stroke:#000000; stroke-linecap:round; stroke-linejoin:round; stroke-width:4; stroke-opacity:1; fill:none" points="1531.37,1423.18 1531.37,1404.28 "/>
<polyline clip-path="url(#clip800)" style="stroke:#000000; stroke-linecap:round; stroke-linejoin:round; stroke-width:4; stroke-opacity:1; fill:none" points="1848.36,1423.18 1848.36,1404.28 "/>
<polyline clip-path="url(#clip800)" style="stroke:#000000; stroke-linecap:round; stroke-linejoin:round; stroke-width:4; stroke-opacity:1; fill:none" points="2165.34,1423.18 2165.34,1404.28 "/>
<path clip-path="url(#clip800)" d="M263.444 1454.1 Q259.833 1454.1 258.005 1457.66 Q256.199 1461.2 256.199 1468.33 Q256.199 1475.44 258.005 1479.01 Q259.833 1482.55 263.444 1482.55 Q267.079 1482.55 268.884 1479.01 Q270.713 1475.44 270.713 1468.33 Q270.713 1461.2 268.884 1457.66 Q267.079 1454.1 263.444 1454.1 M263.444 1450.39 Q269.254 1450.39 272.31 1455 Q275.389 1459.58 275.389 1468.33 Q275.389 1477.06 272.31 1481.67 Q269.254 1486.25 263.444 1486.25 Q257.634 1486.25 254.555 1481.67 Q251.5 1477.06 251.5 1468.33 Q251.5 1459.58 254.555 1455 Q257.634 1450.39 263.444 1450.39 Z" fill="#000000" fill-rule="nonzero" fill-opacity="1" /><path clip-path="url(#clip800)" d="M555.115 1481.64 L562.753 1481.64 L562.753 1455.28 L554.443 1456.95 L554.443 1452.69 L562.707 1451.02 L567.383 1451.02 L567.383 1481.64 L575.022 1481.64 L575.022 1485.58 L555.115 1485.58 L555.115 1481.64 Z" fill="#000000" fill-rule="nonzero" fill-opacity="1" /><path clip-path="url(#clip800)" d="M594.466 1454.1 Q590.855 1454.1 589.026 1457.66 Q587.221 1461.2 587.221 1468.33 Q587.221 1475.44 589.026 1479.01 Q590.855 1482.55 594.466 1482.55 Q598.1 1482.55 599.906 1479.01 Q601.735 1475.44 601.735 1468.33 Q601.735 1461.2 599.906 1457.66 Q598.1 1454.1 594.466 1454.1 M594.466 1450.39 Q600.276 1450.39 603.332 1455 Q606.411 1459.58 606.411 1468.33 Q606.411 1477.06 603.332 1481.67 Q600.276 1486.25 594.466 1486.25 Q588.656 1486.25 585.577 1481.67 Q582.522 1477.06 582.522 1468.33 Q582.522 1459.58 585.577 1455 Q588.656 1450.39 594.466 1450.39 Z" fill="#000000" fill-rule="nonzero" fill-opacity="1" /><path clip-path="url(#clip800)" d="M876.183 1481.64 L892.502 1481.64 L892.502 1485.58 L870.558 1485.58 L870.558 1481.64 Q873.22 1478.89 877.803 1474.26 Q882.41 1469.61 883.59 1468.27 Q885.836 1465.74 886.715 1464.01 Q887.618 1462.25 887.618 1460.56 Q887.618 1457.8 885.673 1456.07 Q883.752 1454.33 880.65 1454.33 Q878.451 1454.33 875.998 1455.09 Q873.567 1455.86 870.789 1457.41 L870.789 1452.69 Q873.613 1451.55 876.067 1450.97 Q878.521 1450.39 880.558 1450.39 Q885.928 1450.39 889.123 1453.08 Q892.317 1455.77 892.317 1460.26 Q892.317 1462.39 891.507 1464.31 Q890.72 1466.2 888.613 1468.8 Q888.035 1469.47 884.933 1472.69 Q881.831 1475.88 876.183 1481.64 Z" fill="#000000" fill-rule="nonzero" fill-opacity="1" /><path clip-path="url(#clip800)" d="M912.317 1454.1 Q908.706 1454.1 906.877 1457.66 Q905.072 1461.2 905.072 1468.33 Q905.072 1475.44 906.877 1479.01 Q908.706 1482.55 912.317 1482.55 Q915.951 1482.55 917.757 1479.01 Q919.585 1475.44 919.585 1468.33 Q919.585 1461.2 917.757 1457.66 Q915.951 1454.1 912.317 1454.1 M912.317 1450.39 Q918.127 1450.39 921.183 1455 Q924.261 1459.58 924.261 1468.33 Q924.261 1477.06 921.183 1481.67 Q918.127 1486.25 912.317 1486.25 Q906.507 1486.25 903.428 1481.67 Q900.372 1477.06 900.372 1468.33 Q900.372 1459.58 903.428 1455 Q906.507 1450.39 912.317 1450.39 Z" fill="#000000" fill-rule="nonzero" fill-opacity="1" /><path clip-path="url(#clip800)" d="M1203.23 1466.95 Q1206.59 1467.66 1208.47 1469.93 Q1210.36 1472.2 1210.36 1475.53 Q1210.36 1480.65 1206.85 1483.45 Q1203.33 1486.25 1196.85 1486.25 Q1194.67 1486.25 1192.36 1485.81 Q1190.06 1485.39 1187.61 1484.54 L1187.61 1480.02 Q1189.55 1481.16 1191.87 1481.74 Q1194.18 1482.32 1196.71 1482.32 Q1201.11 1482.32 1203.4 1480.58 Q1205.71 1478.84 1205.71 1475.53 Q1205.71 1472.48 1203.56 1470.77 Q1201.43 1469.03 1197.61 1469.03 L1193.58 1469.03 L1193.58 1465.19 L1197.79 1465.19 Q1201.24 1465.19 1203.07 1463.82 Q1204.9 1462.43 1204.9 1459.84 Q1204.9 1457.18 1203 1455.77 Q1201.13 1454.33 1197.61 1454.33 Q1195.69 1454.33 1193.49 1454.75 Q1191.29 1455.16 1188.65 1456.04 L1188.65 1451.88 Q1191.31 1451.14 1193.63 1450.77 Q1195.97 1450.39 1198.03 1450.39 Q1203.35 1450.39 1206.45 1452.83 Q1209.55 1455.23 1209.55 1459.35 Q1209.55 1462.22 1207.91 1464.21 Q1206.27 1466.18 1203.23 1466.95 Z" fill="#000000" fill-rule="nonzero" fill-opacity="1" /><path clip-path="url(#clip800)" d="M1229.23 1454.1 Q1225.62 1454.1 1223.79 1457.66 Q1221.98 1461.2 1221.98 1468.33 Q1221.98 1475.44 1223.79 1479.01 Q1225.62 1482.55 1229.23 1482.55 Q1232.86 1482.55 1234.67 1479.01 Q1236.5 1475.44 1236.5 1468.33 Q1236.5 1461.2 1234.67 1457.66 Q1232.86 1454.1 1229.23 1454.1 M1229.23 1450.39 Q1235.04 1450.39 1238.1 1455 Q1241.17 1459.58 1241.17 1468.33 Q1241.17 1477.06 1238.1 1481.67 Q1235.04 1486.25 1229.23 1486.25 Q1223.42 1486.25 1220.34 1481.67 Q1217.29 1477.06 1217.29 1468.33 Q1217.29 1459.58 1220.34 1455 Q1223.42 1450.39 1229.23 1450.39 Z" fill="#000000" fill-rule="nonzero" fill-opacity="1" /><path clip-path="url(#clip800)" d="M1519.55 1455.09 L1507.74 1473.54 L1519.55 1473.54 L1519.55 1455.09 M1518.32 1451.02 L1524.2 1451.02 L1524.2 1473.54 L1529.13 1473.54 L1529.13 1477.43 L1524.2 1477.43 L1524.2 1485.58 L1519.55 1485.58 L1519.55 1477.43 L1503.94 1477.43 L1503.94 1472.92 L1518.32 1451.02 Z" fill="#000000" fill-rule="nonzero" fill-opacity="1" /><path clip-path="url(#clip800)" d="M1546.86 1454.1 Q1543.25 1454.1 1541.42 1457.66 Q1539.62 1461.2 1539.62 1468.33 Q1539.62 1475.44 1541.42 1479.01 Q1543.25 1482.55 1546.86 1482.55 Q1550.49 1482.55 1552.3 1479.01 Q1554.13 1475.44 1554.13 1468.33 Q1554.13 1461.2 1552.3 1457.66 Q1550.49 1454.1 1546.86 1454.1 M1546.86 1450.39 Q1552.67 1450.39 1555.73 1455 Q1558.81 1459.58 1558.81 1468.33 Q1558.81 1477.06 1555.73 1481.67 Q1552.67 1486.25 1546.86 1486.25 Q1541.05 1486.25 1537.97 1481.67 Q1534.92 1477.06 1534.92 1468.33 Q1534.92 1459.58 1537.97 1455 Q1541.05 1450.39 1546.86 1450.39 Z" fill="#000000" fill-rule="nonzero" fill-opacity="1" /><path clip-path="url(#clip800)" d="M1823.06 1451.02 L1841.41 1451.02 L1841.41 1454.96 L1827.34 1454.96 L1827.34 1463.43 Q1828.36 1463.08 1829.38 1462.92 Q1830.39 1462.73 1831.41 1462.73 Q1837.2 1462.73 1840.58 1465.9 Q1843.96 1469.08 1843.96 1474.49 Q1843.96 1480.07 1840.49 1483.17 Q1837.01 1486.25 1830.7 1486.25 Q1828.52 1486.25 1826.25 1485.88 Q1824.01 1485.51 1821.6 1484.77 L1821.6 1480.07 Q1823.68 1481.2 1825.9 1481.76 Q1828.13 1482.32 1830.6 1482.32 Q1834.61 1482.32 1836.95 1480.21 Q1839.28 1478.1 1839.28 1474.49 Q1839.28 1470.88 1836.95 1468.77 Q1834.61 1466.67 1830.6 1466.67 Q1828.73 1466.67 1826.85 1467.08 Q1825 1467.5 1823.06 1468.38 L1823.06 1451.02 Z" fill="#000000" fill-rule="nonzero" fill-opacity="1" /><path clip-path="url(#clip800)" d="M1863.17 1454.1 Q1859.56 1454.1 1857.73 1457.66 Q1855.93 1461.2 1855.93 1468.33 Q1855.93 1475.44 1857.73 1479.01 Q1859.56 1482.55 1863.17 1482.55 Q1866.81 1482.55 1868.61 1479.01 Q1870.44 1475.44 1870.44 1468.33 Q1870.44 1461.2 1868.61 1457.66 Q1866.81 1454.1 1863.17 1454.1 M1863.17 1450.39 Q1868.98 1450.39 1872.04 1455 Q1875.12 1459.58 1875.12 1468.33 Q1875.12 1477.06 1872.04 1481.67 Q1868.98 1486.25 1863.17 1486.25 Q1857.36 1486.25 1854.28 1481.67 Q1851.23 1477.06 1851.23 1468.33 Q1851.23 1459.58 1854.28 1455 Q1857.36 1450.39 1863.17 1450.39 Z" fill="#000000" fill-rule="nonzero" fill-opacity="1" /><path clip-path="url(#clip800)" d="M2150.75 1466.44 Q2147.6 1466.44 2145.75 1468.59 Q2143.92 1470.74 2143.92 1474.49 Q2143.92 1478.22 2145.75 1480.39 Q2147.6 1482.55 2150.75 1482.55 Q2153.89 1482.55 2155.72 1480.39 Q2157.57 1478.22 2157.57 1474.49 Q2157.57 1470.74 2155.72 1468.59 Q2153.89 1466.44 2150.75 1466.44 M2160.03 1451.78 L2160.03 1456.04 Q2158.27 1455.21 2156.46 1454.77 Q2154.68 1454.33 2152.92 1454.33 Q2148.29 1454.33 2145.84 1457.45 Q2143.41 1460.58 2143.06 1466.9 Q2144.43 1464.89 2146.49 1463.82 Q2148.55 1462.73 2151.02 1462.73 Q2156.23 1462.73 2159.24 1465.9 Q2162.27 1469.05 2162.27 1474.49 Q2162.27 1479.82 2159.12 1483.03 Q2155.98 1486.25 2150.75 1486.25 Q2144.75 1486.25 2141.58 1481.67 Q2138.41 1477.06 2138.41 1468.33 Q2138.41 1460.14 2142.3 1455.28 Q2146.18 1450.39 2152.74 1450.39 Q2154.5 1450.39 2156.28 1450.74 Q2158.08 1451.09 2160.03 1451.78 Z" fill="#000000" fill-rule="nonzero" fill-opacity="1" /><path clip-path="url(#clip800)" d="M2180.33 1454.1 Q2176.72 1454.1 2174.89 1457.66 Q2173.08 1461.2 2173.08 1468.33 Q2173.08 1475.44 2174.89 1479.01 Q2176.72 1482.55 2180.33 1482.55 Q2183.96 1482.55 2185.77 1479.01 Q2187.6 1475.44 2187.6 1468.33 Q2187.6 1461.2 2185.77 1457.66 Q2183.96 1454.1 2180.33 1454.1 M2180.33 1450.39 Q2186.14 1450.39 2189.19 1455 Q2192.27 1459.58 2192.27 1468.33 Q2192.27 1477.06 2189.19 1481.67 Q2186.14 1486.25 2180.33 1486.25 Q2174.52 1486.25 2171.44 1481.67 Q2168.38 1477.06 2168.38 1468.33 Q2168.38 1459.58 2171.44 1455 Q2174.52 1450.39 2180.33 1450.39 Z" fill="#000000" fill-rule="nonzero" fill-opacity="1" /><path clip-path="url(#clip800)" d="M1196.82 1522.27 L1196.82 1532.4 L1208.88 1532.4 L1208.88 1536.95 L1196.82 1536.95 L1196.82 1556.3 Q1196.82 1560.66 1197.99 1561.9 Q1199.2 1563.14 1202.86 1563.14 L1208.88 1563.14 L1208.88 1568.04 L1202.86 1568.04 Q1196.08 1568.04 1193.51 1565.53 Q1190.93 1562.98 1190.93 1556.3 L1190.93 1536.95 L1186.63 1536.95 L1186.63 1532.4 L1190.93 1532.4 L1190.93 1522.27 L1196.82 1522.27 Z" fill="#000000" fill-rule="nonzero" fill-opacity="1" /><path clip-path="url(#clip800)" d="M1216.58 1532.4 L1222.44 1532.4 L1222.44 1568.04 L1216.58 1568.04 L1216.58 1532.4 M1216.58 1518.52 L1222.44 1518.52 L1222.44 1525.93 L1216.58 1525.93 L1216.58 1518.52 Z" fill="#000000" fill-rule="nonzero" fill-opacity="1" /><path clip-path="url(#clip800)" d="M1262.45 1539.24 Q1264.64 1535.29 1267.7 1533.41 Q1270.75 1531.54 1274.89 1531.54 Q1280.46 1531.54 1283.49 1535.45 Q1286.51 1539.33 1286.51 1546.53 L1286.51 1568.04 L1280.62 1568.04 L1280.62 1546.72 Q1280.62 1541.59 1278.81 1539.11 Q1276.99 1536.63 1273.27 1536.63 Q1268.72 1536.63 1266.08 1539.65 Q1263.43 1542.68 1263.43 1547.9 L1263.43 1568.04 L1257.55 1568.04 L1257.55 1546.72 Q1257.55 1541.56 1255.73 1539.11 Q1253.92 1536.63 1250.13 1536.63 Q1245.64 1536.63 1243 1539.68 Q1240.36 1542.71 1240.36 1547.9 L1240.36 1568.04 L1234.47 1568.04 L1234.47 1532.4 L1240.36 1532.4 L1240.36 1537.93 Q1242.36 1534.66 1245.16 1533.1 Q1247.96 1531.54 1251.82 1531.54 Q1255.7 1531.54 1258.4 1533.51 Q1261.14 1535.48 1262.45 1539.24 Z" fill="#000000" fill-rule="nonzero" fill-opacity="1" /><path clip-path="url(#clip800)" d="M1328.68 1548.76 L1328.68 1551.62 L1301.76 1551.62 Q1302.14 1557.67 1305.38 1560.85 Q1308.66 1564 1314.49 1564 Q1317.86 1564 1321.01 1563.17 Q1324.19 1562.35 1327.31 1560.69 L1327.31 1566.23 Q1324.16 1567.57 1320.85 1568.27 Q1317.54 1568.97 1314.14 1568.97 Q1305.61 1568.97 1300.61 1564 Q1295.64 1559.04 1295.64 1550.57 Q1295.64 1541.82 1300.35 1536.69 Q1305.1 1531.54 1313.12 1531.54 Q1320.31 1531.54 1324.48 1536.18 Q1328.68 1540.8 1328.68 1548.76 M1322.83 1547.04 Q1322.76 1542.23 1320.12 1539.37 Q1317.51 1536.5 1313.18 1536.5 Q1308.28 1536.5 1305.32 1539.27 Q1302.39 1542.04 1301.95 1547.07 L1322.83 1547.04 Z" fill="#000000" fill-rule="nonzero" fill-opacity="1" /><path clip-path="url(#clip800)" d="M1364.81 1522.27 L1364.81 1532.4 L1376.87 1532.4 L1376.87 1536.95 L1364.81 1536.95 L1364.81 1556.3 Q1364.81 1560.66 1365.99 1561.9 Q1367.19 1563.14 1370.85 1563.14 L1376.87 1563.14 L1376.87 1568.04 L1370.85 1568.04 Q1364.08 1568.04 1361.5 1565.53 Q1358.92 1562.98 1358.92 1556.3 L1358.92 1536.95 L1354.62 1536.95 L1354.62 1532.4 L1358.92 1532.4 L1358.92 1522.27 L1364.81 1522.27 Z" fill="#000000" fill-rule="nonzero" fill-opacity="1" /><polyline clip-path="url(#clip800)" style="stroke:#000000; stroke-linecap:round; stroke-linejoin:round; stroke-width:4; stroke-opacity:1; fill:none" points="210.746,1423.18 210.746,47.2441 "/>
<polyline clip-path="url(#clip800)" style="stroke:#000000; stroke-linecap:round; stroke-linejoin:round; stroke-width:4; stroke-opacity:1; fill:none" points="210.746,1273.26 229.644,1273.26 "/>
<polyline clip-path="url(#clip800)" style="stroke:#000000; stroke-linecap:round; stroke-linejoin:round; stroke-width:4; stroke-opacity:1; fill:none" points="210.746,1041.41 229.644,1041.41 "/>
<polyline clip-path="url(#clip800)" style="stroke:#000000; stroke-linecap:round; stroke-linejoin:round; stroke-width:4; stroke-opacity:1; fill:none" points="210.746,809.559 229.644,809.559 "/>
<polyline clip-path="url(#clip800)" style="stroke:#000000; stroke-linecap:round; stroke-linejoin:round; stroke-width:4; stroke-opacity:1; fill:none" points="210.746,577.707 229.644,577.707 "/>
<polyline clip-path="url(#clip800)" style="stroke:#000000; stroke-linecap:round; stroke-linejoin:round; stroke-width:4; stroke-opacity:1; fill:none" points="210.746,345.856 229.644,345.856 "/>
<polyline clip-path="url(#clip800)" style="stroke:#000000; stroke-linecap:round; stroke-linejoin:round; stroke-width:4; stroke-opacity:1; fill:none" points="210.746,114.004 229.644,114.004 "/>
<path clip-path="url(#clip800)" d="M114.631 1273.71 L144.306 1273.71 L144.306 1277.65 L114.631 1277.65 L114.631 1273.71 Z" fill="#000000" fill-rule="nonzero" fill-opacity="1" /><path clip-path="url(#clip800)" d="M158.427 1286.61 L174.746 1286.61 L174.746 1290.54 L152.802 1290.54 L152.802 1286.61 Q155.464 1283.85 160.047 1279.22 Q164.653 1274.57 165.834 1273.23 Q168.079 1270.71 168.959 1268.97 Q169.862 1267.21 169.862 1265.52 Q169.862 1262.77 167.917 1261.03 Q165.996 1259.29 162.894 1259.29 Q160.695 1259.29 158.241 1260.06 Q155.811 1260.82 153.033 1262.37 L153.033 1257.65 Q155.857 1256.52 158.311 1255.94 Q160.765 1255.36 162.802 1255.36 Q168.172 1255.36 171.366 1258.04 Q174.561 1260.73 174.561 1265.22 Q174.561 1267.35 173.751 1269.27 Q172.964 1271.17 170.857 1273.76 Q170.278 1274.43 167.177 1277.65 Q164.075 1280.84 158.427 1286.61 Z" fill="#000000" fill-rule="nonzero" fill-opacity="1" /><path clip-path="url(#clip800)" d="M114.26 1041.86 L143.936 1041.86 L143.936 1045.8 L114.26 1045.8 L114.26 1041.86 Z" fill="#000000" fill-rule="nonzero" fill-opacity="1" /><path clip-path="url(#clip800)" d="M154.839 1054.76 L162.477 1054.76 L162.477 1028.39 L154.167 1030.06 L154.167 1025.8 L162.431 1024.13 L167.107 1024.13 L167.107 1054.76 L174.746 1054.76 L174.746 1058.69 L154.839 1058.69 L154.839 1054.76 Z" fill="#000000" fill-rule="nonzero" fill-opacity="1" /><path clip-path="url(#clip800)" d="M162.802 795.358 Q159.19 795.358 157.362 798.923 Q155.556 802.464 155.556 809.594 Q155.556 816.7 157.362 820.265 Q159.19 823.807 162.802 823.807 Q166.436 823.807 168.241 820.265 Q170.07 816.7 170.07 809.594 Q170.07 802.464 168.241 798.923 Q166.436 795.358 162.802 795.358 M162.802 791.654 Q168.612 791.654 171.667 796.261 Q174.746 800.844 174.746 809.594 Q174.746 818.321 171.667 822.927 Q168.612 827.511 162.802 827.511 Q156.991 827.511 153.913 822.927 Q150.857 818.321 150.857 809.594 Q150.857 800.844 153.913 796.261 Q156.991 791.654 162.802 791.654 Z" fill="#000000" fill-rule="nonzero" fill-opacity="1" /><path clip-path="url(#clip800)" d="M154.839 591.052 L162.477 591.052 L162.477 564.687 L154.167 566.353 L154.167 562.094 L162.431 560.427 L167.107 560.427 L167.107 591.052 L174.746 591.052 L174.746 594.987 L154.839 594.987 L154.839 591.052 Z" fill="#000000" fill-rule="nonzero" fill-opacity="1" /><path clip-path="url(#clip800)" d="M158.427 359.2 L174.746 359.2 L174.746 363.136 L152.802 363.136 L152.802 359.2 Q155.464 356.446 160.047 351.816 Q164.653 347.163 165.834 345.821 Q168.079 343.298 168.959 341.562 Q169.862 339.802 169.862 338.113 Q169.862 335.358 167.917 333.622 Q165.996 331.886 162.894 331.886 Q160.695 331.886 158.241 332.65 Q155.811 333.414 153.033 334.964 L153.033 330.242 Q155.857 329.108 158.311 328.529 Q160.765 327.951 162.802 327.951 Q168.172 327.951 171.366 330.636 Q174.561 333.321 174.561 337.812 Q174.561 339.941 173.751 341.863 Q172.964 343.761 170.857 346.353 Q170.278 347.025 167.177 350.242 Q164.075 353.437 158.427 359.2 Z" fill="#000000" fill-rule="nonzero" fill-opacity="1" /><path clip-path="url(#clip800)" d="M167.616 112.65 Q170.973 113.367 172.848 115.636 Q174.746 117.904 174.746 121.238 Q174.746 126.353 171.227 129.154 Q167.709 131.955 161.227 131.955 Q159.052 131.955 156.737 131.515 Q154.445 131.099 151.991 130.242 L151.991 125.728 Q153.936 126.862 156.251 127.441 Q158.565 128.02 161.089 128.02 Q165.487 128.02 167.778 126.284 Q170.093 124.548 170.093 121.238 Q170.093 118.182 167.94 116.469 Q165.811 114.733 161.991 114.733 L157.964 114.733 L157.964 110.89 L162.177 110.89 Q165.626 110.89 167.454 109.525 Q169.283 108.136 169.283 105.543 Q169.283 102.881 167.385 101.469 Q165.51 100.034 161.991 100.034 Q160.07 100.034 157.871 100.451 Q155.672 100.867 153.033 101.747 L153.033 97.5802 Q155.695 96.8395 158.01 96.4691 Q160.348 96.0988 162.408 96.0988 Q167.732 96.0988 170.834 98.5293 Q173.936 100.937 173.936 105.057 Q173.936 107.927 172.292 109.918 Q170.649 111.886 167.616 112.65 Z" fill="#000000" fill-rule="nonzero" fill-opacity="1" /><path clip-path="url(#clip800)" d="M58.657 955.481 L77.5631 955.481 L77.5631 961.37 L28.3562 961.37 L28.3562 955.481 L33.7671 955.481 Q30.5842 953.635 29.0564 950.834 Q27.4968 948.002 27.4968 944.087 Q27.4968 937.594 32.6531 933.551 Q37.8093 929.477 46.212 929.477 Q54.6147 929.477 59.771 933.551 Q64.9272 937.594 64.9272 944.087 Q64.9272 948.002 63.3994 950.834 Q61.8398 953.635 58.657 955.481 M46.212 935.557 Q39.7508 935.557 36.0905 938.23 Q32.3984 940.872 32.3984 945.519 Q32.3984 950.166 36.0905 952.84 Q39.7508 955.481 46.212 955.481 Q52.6732 955.481 56.3653 952.84 Q60.0256 950.166 60.0256 945.519 Q60.0256 940.872 56.3653 938.23 Q52.6732 935.557 46.212 935.557 Z" fill="#000000" fill-rule="nonzero" fill-opacity="1" /><path clip-path="url(#clip800)" d="M42.4881 890.137 L64.0042 890.137 L64.0042 895.994 L42.679 895.994 Q37.6183 895.994 35.1038 897.967 Q32.5894 899.941 32.5894 903.887 Q32.5894 908.63 35.6131 911.367 Q38.6368 914.104 43.8567 914.104 L64.0042 914.104 L64.0042 919.993 L14.479 919.993 L14.479 914.104 L33.8944 914.104 Q30.6797 912.004 29.0883 909.171 Q27.4968 906.306 27.4968 902.582 Q27.4968 896.439 31.3163 893.288 Q35.1038 890.137 42.4881 890.137 Z" fill="#000000" fill-rule="nonzero" fill-opacity="1" /><path clip-path="url(#clip800)" d="M46.0847 862.256 Q46.0847 869.353 47.7079 872.091 Q49.3312 874.828 53.2461 874.828 Q56.3653 874.828 58.2114 872.791 Q60.0256 870.722 60.0256 867.189 Q60.0256 862.319 56.5881 859.391 Q53.1188 856.431 47.3897 856.431 L46.0847 856.431 L46.0847 862.256 M43.6657 850.574 L64.0042 850.574 L64.0042 856.431 L58.5933 856.431 Q61.8398 858.436 63.3994 861.428 Q64.9272 864.42 64.9272 868.749 Q64.9272 874.223 61.8716 877.47 Q58.7843 880.684 53.6281 880.684 Q47.6125 880.684 44.5569 876.674 Q41.5014 872.632 41.5014 864.643 L41.5014 856.431 L40.9285 856.431 Q36.8862 856.431 34.6901 859.105 Q32.4621 861.746 32.4621 866.552 Q32.4621 869.608 33.1941 872.504 Q33.9262 875.401 35.3903 878.074 L29.9795 878.074 Q28.7381 874.86 28.1334 871.836 Q27.4968 868.812 27.4968 865.948 Q27.4968 858.213 31.5072 854.394 Q35.5176 850.574 43.6657 850.574 Z" fill="#000000" fill-rule="nonzero" fill-opacity="1" /><path clip-path="url(#clip800)" d="M29.4065 815.786 L34.9447 815.786 Q33.6716 818.269 33.035 820.942 Q32.3984 823.616 32.3984 826.48 Q32.3984 830.841 33.7352 833.037 Q35.072 835.201 37.7456 835.201 Q39.7826 835.201 40.9603 833.642 Q42.1061 832.082 43.1565 827.371 L43.6021 825.366 Q44.9389 819.128 47.3897 816.518 Q49.8086 813.876 54.1691 813.876 Q59.1344 813.876 62.0308 817.823 Q64.9272 821.738 64.9272 828.613 Q64.9272 831.477 64.3543 834.597 Q63.8132 837.684 62.6992 841.121 L56.6518 841.121 Q58.3387 837.875 59.198 834.724 Q60.0256 831.573 60.0256 828.485 Q60.0256 824.348 58.6251 822.12 Q57.1929 819.892 54.6147 819.892 Q52.2276 819.892 50.9545 821.515 Q49.6813 823.106 48.5037 828.549 L48.0262 830.586 Q46.8804 836.029 44.5251 838.448 Q42.138 840.867 38.0002 840.867 Q32.9713 840.867 30.2341 837.302 Q27.4968 833.737 27.4968 827.181 Q27.4968 823.934 27.9743 821.069 Q28.4517 818.205 29.4065 815.786 Z" fill="#000000" fill-rule="nonzero" fill-opacity="1" /><path clip-path="url(#clip800)" d="M44.7161 774.059 L47.5806 774.059 L47.5806 800.986 Q53.6281 800.604 56.8109 797.357 Q59.9619 794.079 59.9619 788.254 Q59.9619 784.88 59.1344 781.729 Q58.3069 778.547 56.6518 775.427 L62.1899 775.427 Q63.5267 778.578 64.227 781.889 Q64.9272 785.199 64.9272 788.604 Q64.9272 797.134 59.9619 802.131 Q54.9967 807.097 46.5303 807.097 Q37.7774 807.097 32.6531 802.386 Q27.4968 797.644 27.4968 789.623 Q27.4968 782.43 32.1438 778.26 Q36.7589 774.059 44.7161 774.059 M42.9973 779.915 Q38.1912 779.979 35.3266 782.621 Q32.4621 785.231 32.4621 789.559 Q32.4621 794.461 35.2312 797.421 Q38.0002 800.349 43.0292 800.795 L42.9973 779.915 Z" fill="#000000" fill-rule="nonzero" fill-opacity="1" /><path clip-path="url(#clip800)" d="M46.0847 727.525 Q46.0847 734.623 47.7079 737.36 Q49.3312 740.098 53.2461 740.098 Q56.3653 740.098 58.2114 738.061 Q60.0256 735.992 60.0256 732.459 Q60.0256 727.589 56.5881 724.661 Q53.1188 721.701 47.3897 721.701 L46.0847 721.701 L46.0847 727.525 M43.6657 715.844 L64.0042 715.844 L64.0042 721.701 L58.5933 721.701 Q61.8398 723.706 63.3994 726.698 Q64.9272 729.69 64.9272 734.018 Q64.9272 739.493 61.8716 742.739 Q58.7843 745.954 53.6281 745.954 Q47.6125 745.954 44.5569 741.944 Q41.5014 737.901 41.5014 729.913 L41.5014 721.701 L40.9285 721.701 Q36.8862 721.701 34.6901 724.374 Q32.4621 727.016 32.4621 731.822 Q32.4621 734.878 33.1941 737.774 Q33.9262 740.671 35.3903 743.344 L29.9795 743.344 Q28.7381 740.129 28.1334 737.106 Q27.4968 734.082 27.4968 731.217 Q27.4968 723.483 31.5072 719.664 Q35.5176 715.844 43.6657 715.844 Z" fill="#000000" fill-rule="nonzero" fill-opacity="1" /><path clip-path="url(#clip800)" d="M42.4881 674.149 L64.0042 674.149 L64.0042 680.005 L42.679 680.005 Q37.6183 680.005 35.1038 681.979 Q32.5894 683.952 32.5894 687.899 Q32.5894 692.641 35.6131 695.379 Q38.6368 698.116 43.8567 698.116 L64.0042 698.116 L64.0042 704.004 L28.3562 704.004 L28.3562 698.116 L33.8944 698.116 Q30.6797 696.015 29.0883 693.182 Q27.4968 690.318 27.4968 686.594 Q27.4968 680.451 31.3163 677.3 Q35.1038 674.149 42.4881 674.149 Z" fill="#000000" fill-rule="nonzero" fill-opacity="1" /><path clip-path="url(#clip800)" d="M45.7664 639.01 Q39.4007 639.01 35.8996 641.652 Q32.3984 644.262 32.3984 649.004 Q32.3984 653.715 35.8996 656.357 Q39.4007 658.967 45.7664 658.967 Q52.1003 658.967 55.6014 656.357 Q59.1026 653.715 59.1026 649.004 Q59.1026 644.262 55.6014 641.652 Q52.1003 639.01 45.7664 639.01 M59.58 633.154 Q68.683 633.154 73.1071 637.196 Q77.5631 641.238 77.5631 649.577 Q77.5631 652.665 77.0857 655.402 Q76.6401 658.139 75.6852 660.717 L69.9879 660.717 Q71.3884 658.139 72.0568 655.625 Q72.7252 653.11 72.7252 650.5 Q72.7252 644.739 69.7015 641.875 Q66.7096 639.01 60.6303 639.01 L57.7339 639.01 Q60.885 640.824 62.4446 643.657 Q64.0042 646.49 64.0042 650.437 Q64.0042 656.993 59.0071 661.004 Q54.01 665.014 45.7664 665.014 Q37.491 665.014 32.4939 661.004 Q27.4968 656.993 27.4968 650.437 Q27.4968 646.49 29.0564 643.657 Q30.616 640.824 33.7671 639.01 L28.3562 639.01 L28.3562 633.154 L59.58 633.154 Z" fill="#000000" fill-rule="nonzero" fill-opacity="1" /><path clip-path="url(#clip800)" d="M14.479 621.091 L14.479 615.234 L64.0042 615.234 L64.0042 621.091 L14.479 621.091 Z" fill="#000000" fill-rule="nonzero" fill-opacity="1" /><path clip-path="url(#clip800)" d="M44.7161 572.489 L47.5806 572.489 L47.5806 599.416 Q53.6281 599.034 56.8109 595.787 Q59.9619 592.509 59.9619 586.684 Q59.9619 583.31 59.1344 580.159 Q58.3069 576.976 56.6518 573.857 L62.1899 573.857 Q63.5267 577.008 64.227 580.318 Q64.9272 583.629 64.9272 587.034 Q64.9272 595.564 59.9619 600.561 Q54.9967 605.527 46.5303 605.527 Q37.7774 605.527 32.6531 600.816 Q27.4968 596.074 27.4968 588.053 Q27.4968 580.859 32.1438 576.69 Q36.7589 572.489 44.7161 572.489 M42.9973 578.345 Q38.1912 578.409 35.3266 581.05 Q32.4621 583.66 32.4621 587.989 Q32.4621 592.891 35.2312 595.851 Q38.0002 598.779 43.0292 599.225 L42.9973 578.345 Z" fill="#000000" fill-rule="nonzero" fill-opacity="1" /><path clip-path="url(#clip800)" d="M14.479 523.982 L27.6241 523.982 Q27.6241 517.648 32.4939 513.415 Q37.4592 509.054 46.212 509.054 Q54.9649 509.054 59.9301 513.415 Q64.7999 517.648 64.7999 523.982 L77.5631 523.982 L77.5631 529.807 L64.7999 529.807 Q64.7999 536.14 59.9301 540.405 Q54.9649 544.734 46.212 544.734 Q37.4592 544.734 32.4939 540.405 Q27.6241 536.14 27.6241 529.807 L14.479 529.807 L14.479 523.982 M59.58 523.982 Q59.58 520.385 56.3017 517.934 Q52.6414 515.261 46.212 515.229 Q39.8463 515.197 36.1224 517.934 Q32.844 520.385 32.844 523.982 L59.58 523.982 M59.58 529.807 L32.844 529.807 Q32.844 533.403 36.1224 535.822 Q39.8463 538.591 46.212 538.559 Q52.6414 538.528 56.3017 535.822 Q59.58 533.403 59.58 529.807 Z" fill="#000000" fill-rule="nonzero" fill-opacity="1" /><polyline clip-path="url(#clip802)" style="stroke:#009af9; stroke-linecap:round; stroke-linejoin:round; stroke-width:4; stroke-opacity:1; fill:none" points="271.369,709.423 279.293,746.53 287.218,643.017 295.143,598.157 303.067,813.572 310.992,981.464 318.916,831.848 326.841,724.249 334.765,763.422 342.69,820.612 350.615,866.758 358.539,906.432 366.464,838.482 374.388,827.907 382.313,754.362 390.237,658.687 398.162,876.011 406.086,1173.33 414.011,1283.19 421.936,1275.09 429.86,1062.93 437.785,558.154 445.709,436.093 453.634,687.508 461.558,752.394 469.483,793.639 477.408,631.723 485.332,733.722 493.257,869.475 501.181,851.688 509.106,1057.72 517.03,1124.07 524.955,951.134 532.88,670.843 540.804,806.357 548.729,995.512 556.653,986.021 564.578,944.872 572.502,1136.91 580.427,1314.05 588.351,1106.1 596.276,838.318 604.201,587.976 612.125,176.408 620.05,86.1857 627.974,241.807 635.899,416.06 643.823,621.397 651.748,679.822 659.673,702.227 667.597,861.784 675.522,1145.17 683.446,1111.55 691.371,1141.99 699.295,1031.01 707.22,500.842 715.145,383.584 723.069,668.068 730.994,1008.83 738.918,987.85 746.843,802.826 754.767,774.831 762.692,982.384 770.616,885.202 778.541,558.416 786.466,469.014 794.39,646.194 802.315,796.782 810.239,699.447 818.164,453.999 826.088,422.091 834.013,658.92 841.938,760.545 849.862,647.257 857.787,635.751 865.711,948.788 873.636,1225.1 881.56,1242.55 889.485,992.641 897.41,714.734 905.334,627.177 913.259,722.983 921.183,900.411 929.108,1009.64 937.032,1149.49 944.957,1224.46 952.881,1173.41 960.806,1065.69 968.731,965.569 976.655,657.65 984.58,560.48 992.504,602.68 1000.43,637.391 1008.35,924.471 1016.28,1173.75 1024.2,851.605 1032.13,444.074 1040.05,421.802 1047.98,762.657 1055.9,947.766 1063.83,894.112 1071.75,664.48 1079.67,375.44 1087.6,447.026 1095.52,933.843 1103.45,1078.95 1111.37,908.213 1119.3,1066.47 1127.22,1090.44 1135.15,709.841 1143.07,361.022 1151,508.127 1158.92,741.662 1166.84,849.582 1174.77,1004.1 1182.69,1120.5 1190.62,819.919 1198.54,615.407 1206.47,827.626 1214.39,1035.77 1222.32,979.068 1230.24,973.571 1238.17,1313.02 1246.09,1384.24 1254.01,1084.54 1261.94,845.19 1269.86,633.199 1277.79,327.578 1285.71,239.022 1293.64,373.033 1301.56,535.267 1309.49,720.145 1317.41,847.093 1325.34,975.031 1333.26,983.62 1341.19,778.746 1349.11,645.412 1357.03,711.245 1364.96,1039.73 1372.88,1174.69 1380.81,906.663 1388.73,620.77 1396.66,534.349 1404.58,471.741 1412.51,603.931 1420.43,661.672 1428.36,649.811 1436.28,886.512 1444.2,1071.7 1452.13,1089.21 1460.05,1126.91 1467.98,938.963 1475.9,717.951 1483.83,781.827 1491.75,824.707 1499.68,873.229 1507.6,717.321 1515.53,475.524 1523.45,492.487 1531.37,749.498 1539.3,991.482 1547.22,1023.61 1555.15,886.33 1563.07,898.861 1571,885.272 1578.92,931.747 1586.85,1064.09 1594.77,1023.89 1602.7,707.484 1610.62,524.937 1618.54,358.409 1626.47,497.193 1634.39,837.779 1642.32,1000.57 1650.24,1040.3 1658.17,861.692 1666.09,637.737 1674.02,624.248 1681.94,818.254 1689.87,938.669 1697.79,919.691 1705.72,816.087 1713.64,828.414 1721.56,967.53 1729.49,908.343 1737.41,756.251 1745.34,706.613 1753.26,764.342 1761.19,701.451 1769.11,782.927 1777.04,789.882 1784.96,645.644 1792.89,795.564 1800.81,795.058 1808.73,687.546 1816.66,554.339 1824.58,601.454 1832.51,950.79 1840.43,1148.5 1848.36,1180.35 1856.28,1041.61 1864.21,838.585 1872.13,900.332 1880.06,834.501 1887.98,767.063 1895.9,899.913 1903.83,719.497 1911.75,594.566 1919.68,659.768 1927.6,667.181 1935.53,745.647 1943.45,814.031 1951.38,908.791 1959.3,693.195 1967.23,709.911 1975.15,1035.81 1983.07,1158.9 1991,1036.31 1998.92,808.272 2006.85,542.037 2014.77,303.364 2022.7,451.456 2030.62,954.79 2038.55,1148.23 2046.47,1043.55 2054.4,897.102 2062.32,628.636 2070.25,753.515 2078.17,943.532 2086.09,549.806 2094.02,437.525 2101.94,866.004 2109.87,1054.25 2117.79,903.553 2125.72,700.639 2133.64,829.796 2141.57,1052.81 2149.49,1233.98 2157.42,1029.83 2165.34,814.648 2173.26,805.148 2181.19,800.001 2189.11,816.82 2197.04,994.821 2204.96,1178.63 2212.89,1002.75 2220.81,657.18 2228.74,452.42 2236.66,510.687 2244.59,679.251 2252.51,552.898 2260.43,637.904 2268.36,982.913 2276.28,1002.7 2284.21,870.261 2292.13,770.799 "/>
<path clip-path="url(#clip800)" d="M1933.94 196.789 L2281.36 196.789 L2281.36 93.1086 L1933.94 93.1086  Z" fill="#ffffff" fill-rule="evenodd" fill-opacity="1"/>
<polyline clip-path="url(#clip800)" style="stroke:#000000; stroke-linecap:round; stroke-linejoin:round; stroke-width:4; stroke-opacity:1; fill:none" points="1933.94,196.789 2281.36,196.789 2281.36,93.1086 1933.94,93.1086 1933.94,196.789 "/>
<polyline clip-path="url(#clip800)" style="stroke:#009af9; stroke-linecap:round; stroke-linejoin:round; stroke-width:4; stroke-opacity:1; fill:none" points="1957.74,144.949 2100.54,144.949 "/>
<path clip-path="url(#clip800)" d="M2142.76 137.067 L2142.76 141.094 Q2140.96 140.169 2139.01 139.706 Q2137.07 139.243 2134.99 139.243 Q2131.82 139.243 2130.22 140.215 Q2128.64 141.187 2128.64 143.131 Q2128.64 144.613 2129.78 145.469 Q2130.91 146.303 2134.34 147.067 L2135.8 147.391 Q2140.33 148.363 2142.23 150.145 Q2144.15 151.905 2144.15 155.076 Q2144.15 158.687 2141.28 160.793 Q2138.44 162.9 2133.44 162.9 Q2131.35 162.9 2129.08 162.483 Q2126.84 162.09 2124.34 161.28 L2124.34 156.881 Q2126.7 158.108 2128.99 158.733 Q2131.28 159.335 2133.53 159.335 Q2136.54 159.335 2138.16 158.317 Q2139.78 157.275 2139.78 155.4 Q2139.78 153.664 2138.6 152.738 Q2137.44 151.812 2133.48 150.956 L2132 150.608 Q2128.04 149.775 2126.28 148.062 Q2124.52 146.326 2124.52 143.317 Q2124.52 139.659 2127.12 137.669 Q2129.71 135.678 2134.48 135.678 Q2136.84 135.678 2138.92 136.025 Q2141.01 136.372 2142.76 137.067 Z" fill="#000000" fill-rule="nonzero" fill-opacity="1" /><path clip-path="url(#clip800)" d="M2150.94 136.303 L2155.19 136.303 L2155.19 162.229 L2150.94 162.229 L2150.94 136.303 M2150.94 126.21 L2155.19 126.21 L2155.19 131.604 L2150.94 131.604 L2150.94 126.21 Z" fill="#000000" fill-rule="nonzero" fill-opacity="1" /><path clip-path="url(#clip800)" d="M2181.17 148.965 Q2181.17 144.335 2179.25 141.789 Q2177.35 139.243 2173.9 139.243 Q2170.47 139.243 2168.55 141.789 Q2166.65 144.335 2166.65 148.965 Q2166.65 153.571 2168.55 156.118 Q2170.47 158.664 2173.9 158.664 Q2177.35 158.664 2179.25 156.118 Q2181.17 153.571 2181.17 148.965 M2185.43 159.011 Q2185.43 165.631 2182.49 168.849 Q2179.55 172.09 2173.48 172.09 Q2171.24 172.09 2169.25 171.742 Q2167.26 171.418 2165.38 170.724 L2165.38 166.58 Q2167.26 167.599 2169.08 168.085 Q2170.91 168.571 2172.81 168.571 Q2177 168.571 2179.08 166.372 Q2181.17 164.196 2181.17 159.775 L2181.17 157.668 Q2179.85 159.96 2177.79 161.094 Q2175.73 162.229 2172.86 162.229 Q2168.09 162.229 2165.17 158.594 Q2162.26 154.96 2162.26 148.965 Q2162.26 142.946 2165.17 139.312 Q2168.09 135.678 2172.86 135.678 Q2175.73 135.678 2177.79 136.812 Q2179.85 137.946 2181.17 140.238 L2181.17 136.303 L2185.43 136.303 L2185.43 159.011 Z" fill="#000000" fill-rule="nonzero" fill-opacity="1" /><path clip-path="url(#clip800)" d="M2215.75 146.581 L2215.75 162.229 L2211.49 162.229 L2211.49 146.719 Q2211.49 143.039 2210.06 141.21 Q2208.62 139.382 2205.75 139.382 Q2202.3 139.382 2200.31 141.581 Q2198.32 143.78 2198.32 147.576 L2198.32 162.229 L2194.04 162.229 L2194.04 136.303 L2198.32 136.303 L2198.32 140.331 Q2199.85 137.993 2201.91 136.835 Q2203.99 135.678 2206.7 135.678 Q2211.17 135.678 2213.46 138.456 Q2215.75 141.21 2215.75 146.581 Z" fill="#000000" fill-rule="nonzero" fill-opacity="1" /><path clip-path="url(#clip800)" d="M2236.03 149.196 Q2230.87 149.196 2228.88 150.377 Q2226.88 151.557 2226.88 154.405 Q2226.88 156.673 2228.37 158.016 Q2229.87 159.335 2232.44 159.335 Q2235.98 159.335 2238.11 156.835 Q2240.26 154.312 2240.26 150.145 L2240.26 149.196 L2236.03 149.196 M2244.52 147.437 L2244.52 162.229 L2240.26 162.229 L2240.26 158.293 Q2238.81 160.655 2236.63 161.789 Q2234.45 162.9 2231.31 162.9 Q2227.32 162.9 2224.96 160.678 Q2222.63 158.432 2222.63 154.682 Q2222.63 150.307 2225.54 148.085 Q2228.48 145.863 2234.29 145.863 L2240.26 145.863 L2240.26 145.446 Q2240.26 142.507 2238.32 140.909 Q2236.4 139.289 2232.9 139.289 Q2230.68 139.289 2228.57 139.821 Q2226.47 140.354 2224.52 141.419 L2224.52 137.483 Q2226.86 136.581 2229.06 136.141 Q2231.26 135.678 2233.34 135.678 Q2238.97 135.678 2241.75 138.594 Q2244.52 141.511 2244.52 147.437 Z" fill="#000000" fill-rule="nonzero" fill-opacity="1" /><path clip-path="url(#clip800)" d="M2253.3 126.21 L2257.56 126.21 L2257.56 162.229 L2253.3 162.229 L2253.3 126.21 Z" fill="#000000" fill-rule="nonzero" fill-opacity="1" /></svg>
