<?xml version="1.0" encoding="utf-8"?>
<svg xmlns="http://www.w3.org/2000/svg" xmlns:xlink="http://www.w3.org/1999/xlink" width="600" height="400" viewBox="0 0 2400 1600">
<defs>
  <clipPath id="clip540">
    <rect x="0" y="0" width="2400" height="1600"/>
  </clipPath>
</defs>
<path clip-path="url(#clip540)" d="M0 1600 L2400 1600 L2400 0 L0 0  Z" fill="#ffffff" fill-rule="evenodd" fill-opacity="1"/>
<defs>
  <clipPath id="clip541">
    <rect x="480" y="0" width="1681" height="1600"/>
  </clipPath>
</defs>
<path clip-path="url(#clip540)" d="M250.028 1423.18 L2352.76 1423.18 L2352.76 47.2441 L250.028 47.2441  Z" fill="#ffffff" fill-rule="evenodd" fill-opacity="1"/>
<defs>
  <clipPath id="clip542">
    <rect x="250" y="47" width="2104" height="1377"/>
  </clipPath>
</defs>
<polyline clip-path="url(#clip542)" style="stroke:#000000; stroke-linecap:round; stroke-linejoin:round; stroke-width:2; stroke-opacity:0.1; fill:none" points="309.539,1423.18 309.539,47.2441 "/>
<polyline clip-path="url(#clip542)" style="stroke:#000000; stroke-linecap:round; stroke-linejoin:round; stroke-width:2; stroke-opacity:0.1; fill:none" points="627.742,1423.18 627.742,47.2441 "/>
<polyline clip-path="url(#clip542)" style="stroke:#000000; stroke-linecap:round; stroke-linejoin:round; stroke-width:2; stroke-opacity:0.1; fill:none" points="945.944,1423.18 945.944,47.2441 "/>
<polyline clip-path="url(#clip542)" style="stroke:#000000; stroke-linecap:round; stroke-linejoin:round; stroke-width:2; stroke-opacity:0.1; fill:none" points="1264.15,1423.18 1264.15,47.2441 "/>
<polyline clip-path="url(#clip542)" style="stroke:#000000; stroke-linecap:round; stroke-linejoin:round; stroke-width:2; stroke-opacity:0.1; fill:none" points="1582.35,1423.18 1582.35,47.2441 "/>
<polyline clip-path="url(#clip542)" style="stroke:#000000; stroke-linecap:round; stroke-linejoin:round; stroke-width:2; stroke-opacity:0.1; fill:none" points="1900.55,1423.18 1900.55,47.2441 "/>
<polyline clip-path="url(#clip542)" style="stroke:#000000; stroke-linecap:round; stroke-linejoin:round; stroke-width:2; stroke-opacity:0.1; fill:none" points="2218.75,1423.18 2218.75,47.2441 "/>
<polyline clip-path="url(#clip542)" style="stroke:#000000; stroke-linecap:round; stroke-linejoin:round; stroke-width:2; stroke-opacity:0.1; fill:none" points="250.028,1384.24 2352.76,1384.24 "/>
<polyline clip-path="url(#clip542)" style="stroke:#000000; stroke-linecap:round; stroke-linejoin:round; stroke-width:2; stroke-opacity:0.1; fill:none" points="250.028,1192.35 2352.76,1192.35 "/>
<polyline clip-path="url(#clip542)" style="stroke:#000000; stroke-linecap:round; stroke-linejoin:round; stroke-width:2; stroke-opacity:0.1; fill:none" points="250.028,1000.45 2352.76,1000.45 "/>
<polyline clip-path="url(#clip542)" style="stroke:#000000; stroke-linecap:round; stroke-linejoin:round; stroke-width:2; stroke-opacity:0.1; fill:none" points="250.028,808.561 2352.76,808.561 "/>
<polyline clip-path="url(#clip542)" style="stroke:#000000; stroke-linecap:round; stroke-linejoin:round; stroke-width:2; stroke-opacity:0.1; fill:none" points="250.028,616.669 2352.76,616.669 "/>
<polyline clip-path="url(#clip542)" style="stroke:#000000; stroke-linecap:round; stroke-linejoin:round; stroke-width:2; stroke-opacity:0.1; fill:none" points="250.028,424.776 2352.76,424.776 "/>
<polyline clip-path="url(#clip542)" style="stroke:#000000; stroke-linecap:round; stroke-linejoin:round; stroke-width:2; stroke-opacity:0.1; fill:none" points="250.028,232.884 2352.76,232.884 "/>
<polyline clip-path="url(#clip540)" style="stroke:#000000; stroke-linecap:round; stroke-linejoin:round; stroke-width:4; stroke-opacity:1; fill:none" points="250.028,1423.18 2352.76,1423.18 "/>
<polyline clip-path="url(#clip540)" style="stroke:#000000; stroke-linecap:round; stroke-linejoin:round; stroke-width:4; stroke-opacity:1; fill:none" points="309.539,1423.18 309.539,1404.28 "/>
<polyline clip-path="url(#clip540)" style="stroke:#000000; stroke-linecap:round; stroke-linejoin:round; stroke-width:4; stroke-opacity:1; fill:none" points="627.742,1423.18 627.742,1404.28 "/>
<polyline clip-path="url(#clip540)" style="stroke:#000000; stroke-linecap:round; stroke-linejoin:round; stroke-width:4; stroke-opacity:1; fill:none" points="945.944,1423.18 945.944,1404.28 "/>
<polyline clip-path="url(#clip540)" style="stroke:#000000; stroke-linecap:round; stroke-linejoin:round; stroke-width:4; stroke-opacity:1; fill:none" points="1264.15,1423.18 1264.15,1404.28 "/>
<polyline clip-path="url(#clip540)" style="stroke:#000000; stroke-linecap:round; stroke-linejoin:round; stroke-width:4; stroke-opacity:1; fill:none" points="1582.35,1423.18 1582.35,1404.28 "/>
<polyline clip-path="url(#clip540)" style="stroke:#000000; stroke-linecap:round; stroke-linejoin:round; stroke-width:4; stroke-opacity:1; fill:none" points="1900.55,1423.18 1900.55,1404.28 "/>
<polyline clip-path="url(#clip540)" style="stroke:#000000; stroke-linecap:round; stroke-linejoin:round; stroke-width:4; stroke-opacity:1; fill:none" points="2218.75,1423.18 2218.75,1404.28 "/>
<path clip-path="url(#clip540)" d="M309.539 1454.1 Q305.928 1454.1 304.1 1457.66 Q302.294 1461.2 302.294 1468.33 Q302.294 1475.44 304.1 1479.01 Q305.928 1482.55 309.539 1482.55 Q313.174 1482.55 314.979 1479.01 Q316.808 1475.44 316.808 1468.33 Q316.808 1461.2 314.979 1457.66 Q313.174 1454.1 309.539 1454.1 M309.539 1450.39 Q315.349 1450.39 318.405 1455 Q321.484 1459.58 321.484 1468.33 Q321.484 1477.06 318.405 1481.67 Q315.349 1486.25 309.539 1486.25 Q303.729 1486.25 300.65 1481.67 Q297.595 1477.06 297.595 1468.33 Q297.595 1459.58 300.65 1455 Q303.729 1450.39 309.539 1450.39 Z" fill="#000000" fill-rule="nonzero" fill-opacity="1" /><path clip-path="url(#clip540)" d="M622.395 1481.64 L638.714 1481.64 L638.714 1485.58 L616.77 1485.58 L616.77 1481.64 Q619.432 1478.89 624.015 1474.26 Q628.621 1469.61 629.802 1468.27 Q632.047 1465.74 632.927 1464.01 Q633.83 1462.25 633.83 1460.56 Q633.83 1457.8 631.885 1456.07 Q629.964 1454.33 626.862 1454.33 Q624.663 1454.33 622.209 1455.09 Q619.779 1455.86 617.001 1457.41 L617.001 1452.69 Q619.825 1451.55 622.279 1450.97 Q624.733 1450.39 626.77 1450.39 Q632.14 1450.39 635.334 1453.08 Q638.529 1455.77 638.529 1460.26 Q638.529 1462.39 637.719 1464.31 Q636.932 1466.2 634.825 1468.8 Q634.246 1469.47 631.145 1472.69 Q628.043 1475.88 622.395 1481.64 Z" fill="#000000" fill-rule="nonzero" fill-opacity="1" /><path clip-path="url(#clip540)" d="M948.954 1455.09 L937.148 1473.54 L948.954 1473.54 L948.954 1455.09 M947.727 1451.02 L953.606 1451.02 L953.606 1473.54 L958.537 1473.54 L958.537 1477.43 L953.606 1477.43 L953.606 1485.58 L948.954 1485.58 L948.954 1477.43 L933.352 1477.43 L933.352 1472.92 L947.727 1451.02 Z" fill="#000000" fill-rule="nonzero" fill-opacity="1" /><path clip-path="url(#clip540)" d="M1264.55 1466.44 Q1261.4 1466.44 1259.55 1468.59 Q1257.72 1470.74 1257.72 1474.49 Q1257.72 1478.22 1259.55 1480.39 Q1261.4 1482.55 1264.55 1482.55 Q1267.7 1482.55 1269.53 1480.39 Q1271.38 1478.22 1271.38 1474.49 Q1271.38 1470.74 1269.53 1468.59 Q1267.7 1466.44 1264.55 1466.44 M1273.83 1451.78 L1273.83 1456.04 Q1272.07 1455.21 1270.27 1454.77 Q1268.49 1454.33 1266.73 1454.33 Q1262.1 1454.33 1259.64 1457.45 Q1257.21 1460.58 1256.87 1466.9 Q1258.23 1464.89 1260.29 1463.82 Q1262.35 1462.73 1264.83 1462.73 Q1270.04 1462.73 1273.05 1465.9 Q1276.08 1469.05 1276.08 1474.49 Q1276.08 1479.82 1272.93 1483.03 Q1269.78 1486.25 1264.55 1486.25 Q1258.56 1486.25 1255.39 1481.67 Q1252.21 1477.06 1252.21 1468.33 Q1252.21 1460.14 1256.1 1455.28 Q1259.99 1450.39 1266.54 1450.39 Q1268.3 1450.39 1270.08 1450.74 Q1271.89 1451.09 1273.83 1451.78 Z" fill="#000000" fill-rule="nonzero" fill-opacity="1" /><path clip-path="url(#clip540)" d="M1582.35 1469.17 Q1579.02 1469.17 1577.09 1470.95 Q1575.2 1472.73 1575.2 1475.86 Q1575.2 1478.98 1577.09 1480.77 Q1579.02 1482.55 1582.35 1482.55 Q1585.68 1482.55 1587.6 1480.77 Q1589.53 1478.96 1589.53 1475.86 Q1589.53 1472.73 1587.6 1470.95 Q1585.71 1469.17 1582.35 1469.17 M1577.67 1467.18 Q1574.66 1466.44 1572.97 1464.38 Q1571.31 1462.32 1571.31 1459.35 Q1571.31 1455.21 1574.25 1452.8 Q1577.21 1450.39 1582.35 1450.39 Q1587.51 1450.39 1590.45 1452.8 Q1593.39 1455.21 1593.39 1459.35 Q1593.39 1462.32 1591.7 1464.38 Q1590.03 1466.44 1587.05 1467.18 Q1590.43 1467.96 1592.3 1470.26 Q1594.2 1472.55 1594.2 1475.86 Q1594.2 1480.88 1591.12 1483.57 Q1588.07 1486.25 1582.35 1486.25 Q1576.63 1486.25 1573.55 1483.57 Q1570.5 1480.88 1570.5 1475.86 Q1570.5 1472.55 1572.4 1470.26 Q1574.29 1467.96 1577.67 1467.18 M1575.96 1459.79 Q1575.96 1462.48 1577.63 1463.98 Q1579.32 1465.49 1582.35 1465.49 Q1585.36 1465.49 1587.05 1463.98 Q1588.76 1462.48 1588.76 1459.79 Q1588.76 1457.11 1587.05 1455.6 Q1585.36 1454.1 1582.35 1454.1 Q1579.32 1454.1 1577.63 1455.6 Q1575.96 1457.11 1575.96 1459.79 Z" fill="#000000" fill-rule="nonzero" fill-opacity="1" /><path clip-path="url(#clip540)" d="M1875.24 1481.64 L1882.88 1481.64 L1882.88 1455.28 L1874.57 1456.95 L1874.57 1452.69 L1882.83 1451.02 L1887.51 1451.02 L1887.51 1481.64 L1895.15 1481.64 L1895.15 1485.58 L1875.24 1485.58 L1875.24 1481.64 Z" fill="#000000" fill-rule="nonzero" fill-opacity="1" /><path clip-path="url(#clip540)" d="M1914.59 1454.1 Q1910.98 1454.1 1909.15 1457.66 Q1907.35 1461.2 1907.35 1468.33 Q1907.35 1475.44 1909.15 1479.01 Q1910.98 1482.55 1914.59 1482.55 Q1918.23 1482.55 1920.03 1479.01 Q1921.86 1475.44 1921.86 1468.33 Q1921.86 1461.2 1920.03 1457.66 Q1918.23 1454.1 1914.59 1454.1 M1914.59 1450.39 Q1920.4 1450.39 1923.46 1455 Q1926.54 1459.58 1926.54 1468.33 Q1926.54 1477.06 1923.46 1481.67 Q1920.4 1486.25 1914.59 1486.25 Q1908.78 1486.25 1905.7 1481.67 Q1902.65 1477.06 1902.65 1468.33 Q1902.65 1459.58 1905.7 1455 Q1908.78 1450.39 1914.59 1450.39 Z" fill="#000000" fill-rule="nonzero" fill-opacity="1" /><path clip-path="url(#clip540)" d="M2194.24 1481.64 L2201.88 1481.64 L2201.88 1455.28 L2193.57 1456.95 L2193.57 1452.69 L2201.83 1451.02 L2206.51 1451.02 L2206.51 1481.64 L2214.15 1481.64 L2214.15 1485.58 L2194.24 1485.58 L2194.24 1481.64 Z" fill="#000000" fill-rule="nonzero" fill-opacity="1" /><path clip-path="url(#clip540)" d="M2227.62 1481.64 L2243.94 1481.64 L2243.94 1485.58 L2221.99 1485.58 L2221.99 1481.64 Q2224.66 1478.89 2229.24 1474.26 Q2233.85 1469.61 2235.03 1468.27 Q2237.27 1465.74 2238.15 1464.01 Q2239.06 1462.25 2239.06 1460.56 Q2239.06 1457.8 2237.11 1456.07 Q2235.19 1454.33 2232.09 1454.33 Q2229.89 1454.33 2227.43 1455.09 Q2225 1455.86 2222.23 1457.41 L2222.23 1452.69 Q2225.05 1451.55 2227.5 1450.97 Q2229.96 1450.39 2231.99 1450.39 Q2237.37 1450.39 2240.56 1453.08 Q2243.75 1455.77 2243.75 1460.26 Q2243.75 1462.39 2242.94 1464.31 Q2242.16 1466.2 2240.05 1468.8 Q2239.47 1469.47 2236.37 1472.69 Q2233.27 1475.88 2227.62 1481.64 Z" fill="#000000" fill-rule="nonzero" fill-opacity="1" /><path clip-path="url(#clip540)" d="M1100.79 1520.52 L1128.1 1520.52 L1128.1 1525.93 L1107.22 1525.93 L1107.22 1539.94 L1126.06 1539.94 L1126.06 1545.35 L1107.22 1545.35 L1107.22 1568.04 L1100.79 1568.04 L1100.79 1520.52 Z" fill="#000000" fill-rule="nonzero" fill-opacity="1" /><path clip-path="url(#clip540)" d="M1153.95 1537.87 Q1152.96 1537.3 1151.78 1537.04 Q1150.64 1536.76 1149.24 1536.76 Q1144.27 1536.76 1141.6 1540 Q1138.96 1543.22 1138.96 1549.27 L1138.96 1568.04 L1133.07 1568.04 L1133.07 1532.4 L1138.96 1532.4 L1138.96 1537.93 Q1140.8 1534.69 1143.76 1533.13 Q1146.72 1531.54 1150.95 1531.54 Q1151.56 1531.54 1152.29 1531.63 Q1153.02 1531.7 1153.91 1531.85 L1153.95 1537.87 Z" fill="#000000" fill-rule="nonzero" fill-opacity="1" /><path clip-path="url(#clip540)" d="M1189.15 1548.76 L1189.15 1551.62 L1162.22 1551.62 Q1162.6 1557.67 1165.85 1560.85 Q1169.13 1564 1174.95 1564 Q1178.33 1564 1181.48 1563.17 Q1184.66 1562.35 1187.78 1560.69 L1187.78 1566.23 Q1184.63 1567.57 1181.32 1568.27 Q1178.01 1568.97 1174.6 1568.97 Q1166.07 1568.97 1161.08 1564 Q1156.11 1559.04 1156.11 1550.57 Q1156.11 1541.82 1160.82 1536.69 Q1165.56 1531.54 1173.58 1531.54 Q1180.78 1531.54 1184.95 1536.18 Q1189.15 1540.8 1189.15 1548.76 M1183.29 1547.04 Q1183.23 1542.23 1180.59 1539.37 Q1177.98 1536.5 1173.65 1536.5 Q1168.75 1536.5 1165.79 1539.27 Q1162.86 1542.04 1162.41 1547.07 L1183.29 1547.04 Z" fill="#000000" fill-rule="nonzero" fill-opacity="1" /><path clip-path="url(#clip540)" d="M1202.26 1550.25 Q1202.26 1556.71 1204.9 1560.4 Q1207.58 1564.07 1212.22 1564.07 Q1216.87 1564.07 1219.54 1560.4 Q1222.22 1556.71 1222.22 1550.25 Q1222.22 1543.79 1219.54 1540.13 Q1216.87 1536.44 1212.22 1536.44 Q1207.58 1536.44 1204.9 1540.13 Q1202.26 1543.79 1202.26 1550.25 M1222.22 1562.7 Q1220.37 1565.88 1217.54 1567.44 Q1214.74 1568.97 1210.79 1568.97 Q1204.33 1568.97 1200.26 1563.81 Q1196.21 1558.65 1196.21 1550.25 Q1196.21 1541.85 1200.26 1536.69 Q1204.33 1531.54 1210.79 1531.54 Q1214.74 1531.54 1217.54 1533.1 Q1220.37 1534.62 1222.22 1537.81 L1222.22 1532.4 L1228.07 1532.4 L1228.07 1581.6 L1222.22 1581.6 L1222.22 1562.7 Z" fill="#000000" fill-rule="nonzero" fill-opacity="1" /><path clip-path="url(#clip540)" d="M1239.53 1553.98 L1239.53 1532.4 L1245.39 1532.4 L1245.39 1553.75 Q1245.39 1558.81 1247.36 1561.36 Q1249.34 1563.87 1253.28 1563.87 Q1258.03 1563.87 1260.76 1560.85 Q1263.53 1557.83 1263.53 1552.61 L1263.53 1532.4 L1269.39 1532.4 L1269.39 1568.04 L1263.53 1568.04 L1263.53 1562.57 Q1261.4 1565.82 1258.57 1567.41 Q1255.77 1568.97 1252.04 1568.97 Q1245.9 1568.97 1242.72 1565.15 Q1239.53 1561.33 1239.53 1553.98 M1254.27 1531.54 L1254.27 1531.54 Z" fill="#000000" fill-rule="nonzero" fill-opacity="1" /><path clip-path="url(#clip540)" d="M1311.94 1548.76 L1311.94 1551.62 L1285.02 1551.62 Q1285.4 1557.67 1288.64 1560.85 Q1291.92 1564 1297.75 1564 Q1301.12 1564 1304.27 1563.17 Q1307.46 1562.35 1310.57 1560.69 L1310.57 1566.23 Q1307.42 1567.57 1304.11 1568.27 Q1300.8 1568.97 1297.4 1568.97 Q1288.87 1568.97 1283.87 1564 Q1278.91 1559.04 1278.91 1550.57 Q1278.91 1541.82 1283.62 1536.69 Q1288.36 1531.54 1296.38 1531.54 Q1303.57 1531.54 1307.74 1536.18 Q1311.94 1540.8 1311.94 1548.76 M1306.09 1547.04 Q1306.02 1542.23 1303.38 1539.37 Q1300.77 1536.5 1296.44 1536.5 Q1291.54 1536.5 1288.58 1539.27 Q1285.65 1542.04 1285.21 1547.07 L1306.09 1547.04 Z" fill="#000000" fill-rule="nonzero" fill-opacity="1" /><path clip-path="url(#clip540)" d="M1351.19 1546.53 L1351.19 1568.04 L1345.33 1568.04 L1345.33 1546.72 Q1345.33 1541.66 1343.36 1539.14 Q1341.38 1536.63 1337.44 1536.63 Q1332.7 1536.63 1329.96 1539.65 Q1327.22 1542.68 1327.22 1547.9 L1327.22 1568.04 L1321.33 1568.04 L1321.33 1532.4 L1327.22 1532.4 L1327.22 1537.93 Q1329.32 1534.72 1332.15 1533.13 Q1335.02 1531.54 1338.74 1531.54 Q1344.89 1531.54 1348.04 1535.36 Q1351.19 1539.14 1351.19 1546.53 Z" fill="#000000" fill-rule="nonzero" fill-opacity="1" /><path clip-path="url(#clip540)" d="M1388.52 1533.76 L1388.52 1539.24 Q1386.04 1537.87 1383.53 1537.2 Q1381.04 1536.5 1378.5 1536.5 Q1372.8 1536.5 1369.65 1540.13 Q1366.5 1543.73 1366.5 1550.25 Q1366.5 1556.78 1369.65 1560.4 Q1372.8 1564 1378.5 1564 Q1381.04 1564 1383.53 1563.33 Q1386.04 1562.63 1388.52 1561.26 L1388.52 1566.68 Q1386.07 1567.82 1383.43 1568.39 Q1380.82 1568.97 1377.86 1568.97 Q1369.81 1568.97 1365.07 1563.91 Q1360.32 1558.85 1360.32 1550.25 Q1360.32 1541.53 1365.1 1536.53 Q1369.9 1531.54 1378.24 1531.54 Q1380.95 1531.54 1383.53 1532.11 Q1386.1 1532.65 1388.52 1533.76 Z" fill="#000000" fill-rule="nonzero" fill-opacity="1" /><path clip-path="url(#clip540)" d="M1413.54 1571.35 Q1411.06 1577.72 1408.7 1579.66 Q1406.35 1581.6 1402.4 1581.6 L1397.72 1581.6 L1397.72 1576.7 L1401.16 1576.7 Q1403.58 1576.7 1404.91 1575.56 Q1406.25 1574.41 1407.87 1570.14 L1408.92 1567.47 L1394.51 1532.4 L1400.71 1532.4 L1411.85 1560.28 L1422.99 1532.4 L1429.2 1532.4 L1413.54 1571.35 Z" fill="#000000" fill-rule="nonzero" fill-opacity="1" /><path clip-path="url(#clip540)" d="M1469.37 1568.97 Q1456.16 1568.97 1456.16 1550.06 Q1456.16 1542.58 1461.09 1532.4 L1467.39 1532.4 Q1462.84 1542.58 1462.84 1550.22 Q1462.84 1564 1469.91 1564 Q1476.37 1564 1476.37 1546.88 L1481.78 1546.88 Q1481.78 1564 1488.24 1564 Q1495.31 1564 1495.31 1550.22 Q1495.31 1542.58 1490.76 1532.4 L1497.06 1532.4 Q1501.99 1542.58 1501.99 1550.06 Q1501.99 1568.97 1488.78 1568.97 Q1480.13 1568.97 1479.07 1559.45 Q1477.77 1568.97 1469.37 1568.97 Z" fill="#000000" fill-rule="nonzero" fill-opacity="1" /><polyline clip-path="url(#clip540)" style="stroke:#000000; stroke-linecap:round; stroke-linejoin:round; stroke-width:4; stroke-opacity:1; fill:none" points="250.028,1423.18 250.028,47.2441 "/>
<polyline clip-path="url(#clip540)" style="stroke:#000000; stroke-linecap:round; stroke-linejoin:round; stroke-width:4; stroke-opacity:1; fill:none" points="250.028,1384.24 268.926,1384.24 "/>
<polyline clip-path="url(#clip540)" style="stroke:#000000; stroke-linecap:round; stroke-linejoin:round; stroke-width:4; stroke-opacity:1; fill:none" points="250.028,1192.35 268.926,1192.35 "/>
<polyline clip-path="url(#clip540)" style="stroke:#000000; stroke-linecap:round; stroke-linejoin:round; stroke-width:4; stroke-opacity:1; fill:none" points="250.028,1000.45 268.926,1000.45 "/>
<polyline clip-path="url(#clip540)" style="stroke:#000000; stroke-linecap:round; stroke-linejoin:round; stroke-width:4; stroke-opacity:1; fill:none" points="250.028,808.561 268.926,808.561 "/>
<polyline clip-path="url(#clip540)" style="stroke:#000000; stroke-linecap:round; stroke-linejoin:round; stroke-width:4; stroke-opacity:1; fill:none" points="250.028,616.669 268.926,616.669 "/>
<polyline clip-path="url(#clip540)" style="stroke:#000000; stroke-linecap:round; stroke-linejoin:round; stroke-width:4; stroke-opacity:1; fill:none" points="250.028,424.776 268.926,424.776 "/>
<polyline clip-path="url(#clip540)" style="stroke:#000000; stroke-linecap:round; stroke-linejoin:round; stroke-width:4; stroke-opacity:1; fill:none" points="250.028,232.884 268.926,232.884 "/>
<path clip-path="url(#clip540)" d="M126.691 1370.04 Q123.08 1370.04 121.251 1373.6 Q119.445 1377.14 119.445 1384.27 Q119.445 1391.38 121.251 1394.94 Q123.08 1398.49 126.691 1398.49 Q130.325 1398.49 132.13 1394.94 Q133.959 1391.38 133.959 1384.27 Q133.959 1377.14 132.13 1373.6 Q130.325 1370.04 126.691 1370.04 M126.691 1366.33 Q132.501 1366.33 135.556 1370.94 Q138.635 1375.52 138.635 1384.27 Q138.635 1393 135.556 1397.61 Q132.501 1402.19 126.691 1402.19 Q120.88 1402.19 117.802 1397.61 Q114.746 1393 114.746 1384.27 Q114.746 1375.52 117.802 1370.94 Q120.88 1366.33 126.691 1366.33 Z" fill="#000000" fill-rule="nonzero" fill-opacity="1" /><path clip-path="url(#clip540)" d="M146.853 1395.64 L151.737 1395.64 L151.737 1401.52 L146.853 1401.52 L146.853 1395.64 Z" fill="#000000" fill-rule="nonzero" fill-opacity="1" /><path clip-path="url(#clip540)" d="M171.922 1370.04 Q168.311 1370.04 166.482 1373.6 Q164.677 1377.14 164.677 1384.27 Q164.677 1391.38 166.482 1394.94 Q168.311 1398.49 171.922 1398.49 Q175.556 1398.49 177.362 1394.94 Q179.19 1391.38 179.19 1384.27 Q179.19 1377.14 177.362 1373.6 Q175.556 1370.04 171.922 1370.04 M171.922 1366.33 Q177.732 1366.33 180.788 1370.94 Q183.866 1375.52 183.866 1384.27 Q183.866 1393 180.788 1397.61 Q177.732 1402.19 171.922 1402.19 Q166.112 1402.19 163.033 1397.61 Q159.978 1393 159.978 1384.27 Q159.978 1375.52 163.033 1370.94 Q166.112 1366.33 171.922 1366.33 Z" fill="#000000" fill-rule="nonzero" fill-opacity="1" /><path clip-path="url(#clip540)" d="M202.084 1370.04 Q198.473 1370.04 196.644 1373.6 Q194.838 1377.14 194.838 1384.27 Q194.838 1391.38 196.644 1394.94 Q198.473 1398.49 202.084 1398.49 Q205.718 1398.49 207.524 1394.94 Q209.352 1391.38 209.352 1384.27 Q209.352 1377.14 207.524 1373.6 Q205.718 1370.04 202.084 1370.04 M202.084 1366.33 Q207.894 1366.33 210.949 1370.94 Q214.028 1375.52 214.028 1384.27 Q214.028 1393 210.949 1397.61 Q207.894 1402.19 202.084 1402.19 Q196.274 1402.19 193.195 1397.61 Q190.139 1393 190.139 1384.27 Q190.139 1375.52 193.195 1370.94 Q196.274 1366.33 202.084 1366.33 Z" fill="#000000" fill-rule="nonzero" fill-opacity="1" /><path clip-path="url(#clip540)" d="M128.288 1178.14 Q124.677 1178.14 122.848 1181.71 Q121.043 1185.25 121.043 1192.38 Q121.043 1199.49 122.848 1203.05 Q124.677 1206.59 128.288 1206.59 Q131.922 1206.59 133.728 1203.05 Q135.556 1199.49 135.556 1192.38 Q135.556 1185.25 133.728 1181.71 Q131.922 1178.14 128.288 1178.14 M128.288 1174.44 Q134.098 1174.44 137.154 1179.05 Q140.232 1183.63 140.232 1192.38 Q140.232 1201.11 137.154 1205.71 Q134.098 1210.3 128.288 1210.3 Q122.478 1210.3 119.399 1205.71 Q116.343 1201.11 116.343 1192.38 Q116.343 1183.63 119.399 1179.05 Q122.478 1174.44 128.288 1174.44 Z" fill="#000000" fill-rule="nonzero" fill-opacity="1" /><path clip-path="url(#clip540)" d="M148.45 1203.75 L153.334 1203.75 L153.334 1209.63 L148.45 1209.63 L148.45 1203.75 Z" fill="#000000" fill-rule="nonzero" fill-opacity="1" /><path clip-path="url(#clip540)" d="M173.519 1178.14 Q169.908 1178.14 168.079 1181.71 Q166.274 1185.25 166.274 1192.38 Q166.274 1199.49 168.079 1203.05 Q169.908 1206.59 173.519 1206.59 Q177.153 1206.59 178.959 1203.05 Q180.788 1199.49 180.788 1192.38 Q180.788 1185.25 178.959 1181.71 Q177.153 1178.14 173.519 1178.14 M173.519 1174.44 Q179.329 1174.44 182.385 1179.05 Q185.463 1183.63 185.463 1192.38 Q185.463 1201.11 182.385 1205.71 Q179.329 1210.3 173.519 1210.3 Q167.709 1210.3 164.63 1205.71 Q161.575 1201.11 161.575 1192.38 Q161.575 1183.63 164.63 1179.05 Q167.709 1174.44 173.519 1174.44 Z" fill="#000000" fill-rule="nonzero" fill-opacity="1" /><path clip-path="url(#clip540)" d="M197.709 1205.69 L214.028 1205.69 L214.028 1209.63 L192.084 1209.63 L192.084 1205.69 Q194.746 1202.94 199.329 1198.31 Q203.936 1193.65 205.116 1192.31 Q207.362 1189.79 208.241 1188.05 Q209.144 1186.29 209.144 1184.6 Q209.144 1181.85 207.199 1180.11 Q205.278 1178.38 202.176 1178.38 Q199.977 1178.38 197.524 1179.14 Q195.093 1179.9 192.315 1181.45 L192.315 1176.73 Q195.139 1175.6 197.593 1175.02 Q200.047 1174.44 202.084 1174.44 Q207.454 1174.44 210.649 1177.13 Q213.843 1179.81 213.843 1184.3 Q213.843 1186.43 213.033 1188.35 Q212.246 1190.25 210.139 1192.84 Q209.561 1193.51 206.459 1196.73 Q203.357 1199.93 197.709 1205.69 Z" fill="#000000" fill-rule="nonzero" fill-opacity="1" /><path clip-path="url(#clip540)" d="M126.205 986.252 Q122.593 986.252 120.765 989.817 Q118.959 993.359 118.959 1000.49 Q118.959 1007.59 120.765 1011.16 Q122.593 1014.7 126.205 1014.7 Q129.839 1014.7 131.644 1011.16 Q133.473 1007.59 133.473 1000.49 Q133.473 993.359 131.644 989.817 Q129.839 986.252 126.205 986.252 M126.205 982.549 Q132.015 982.549 135.07 987.155 Q138.149 991.738 138.149 1000.49 Q138.149 1009.22 135.07 1013.82 Q132.015 1018.4 126.205 1018.4 Q120.394 1018.4 117.316 1013.82 Q114.26 1009.22 114.26 1000.49 Q114.26 991.738 117.316 987.155 Q120.394 982.549 126.205 982.549 Z" fill="#000000" fill-rule="nonzero" fill-opacity="1" /><path clip-path="url(#clip540)" d="M146.366 1011.85 L151.251 1011.85 L151.251 1017.73 L146.366 1017.73 L146.366 1011.85 Z" fill="#000000" fill-rule="nonzero" fill-opacity="1" /><path clip-path="url(#clip540)" d="M171.436 986.252 Q167.825 986.252 165.996 989.817 Q164.19 993.359 164.19 1000.49 Q164.19 1007.59 165.996 1011.16 Q167.825 1014.7 171.436 1014.7 Q175.07 1014.7 176.876 1011.16 Q178.704 1007.59 178.704 1000.49 Q178.704 993.359 176.876 989.817 Q175.07 986.252 171.436 986.252 M171.436 982.549 Q177.246 982.549 180.301 987.155 Q183.38 991.738 183.38 1000.49 Q183.38 1009.22 180.301 1013.82 Q177.246 1018.4 171.436 1018.4 Q165.626 1018.4 162.547 1013.82 Q159.491 1009.22 159.491 1000.49 Q159.491 991.738 162.547 987.155 Q165.626 982.549 171.436 982.549 Z" fill="#000000" fill-rule="nonzero" fill-opacity="1" /><path clip-path="url(#clip540)" d="M204.445 987.248 L192.639 1005.7 L204.445 1005.7 L204.445 987.248 M203.218 983.174 L209.098 983.174 L209.098 1005.7 L214.028 1005.7 L214.028 1009.59 L209.098 1009.59 L209.098 1017.73 L204.445 1017.73 L204.445 1009.59 L188.843 1009.59 L188.843 1005.07 L203.218 983.174 Z" fill="#000000" fill-rule="nonzero" fill-opacity="1" /><path clip-path="url(#clip540)" d="M126.529 794.36 Q122.918 794.36 121.089 797.925 Q119.283 801.466 119.283 808.596 Q119.283 815.702 121.089 819.267 Q122.918 822.809 126.529 822.809 Q130.163 822.809 131.968 819.267 Q133.797 815.702 133.797 808.596 Q133.797 801.466 131.968 797.925 Q130.163 794.36 126.529 794.36 M126.529 790.656 Q132.339 790.656 135.394 795.263 Q138.473 799.846 138.473 808.596 Q138.473 817.323 135.394 821.929 Q132.339 826.512 126.529 826.512 Q120.718 826.512 117.64 821.929 Q114.584 817.323 114.584 808.596 Q114.584 799.846 117.64 795.263 Q120.718 790.656 126.529 790.656 Z" fill="#000000" fill-rule="nonzero" fill-opacity="1" /><path clip-path="url(#clip540)" d="M146.691 819.962 L151.575 819.962 L151.575 825.841 L146.691 825.841 L146.691 819.962 Z" fill="#000000" fill-rule="nonzero" fill-opacity="1" /><path clip-path="url(#clip540)" d="M171.76 794.36 Q168.149 794.36 166.32 797.925 Q164.515 801.466 164.515 808.596 Q164.515 815.702 166.32 819.267 Q168.149 822.809 171.76 822.809 Q175.394 822.809 177.2 819.267 Q179.028 815.702 179.028 808.596 Q179.028 801.466 177.2 797.925 Q175.394 794.36 171.76 794.36 M171.76 790.656 Q177.57 790.656 180.626 795.263 Q183.704 799.846 183.704 808.596 Q183.704 817.323 180.626 821.929 Q177.57 826.512 171.76 826.512 Q165.95 826.512 162.871 821.929 Q159.815 817.323 159.815 808.596 Q159.815 799.846 162.871 795.263 Q165.95 790.656 171.76 790.656 Z" fill="#000000" fill-rule="nonzero" fill-opacity="1" /><path clip-path="url(#clip540)" d="M202.5 806.698 Q199.352 806.698 197.5 808.85 Q195.672 811.003 195.672 814.753 Q195.672 818.48 197.5 820.656 Q199.352 822.809 202.5 822.809 Q205.649 822.809 207.477 820.656 Q209.329 818.48 209.329 814.753 Q209.329 811.003 207.477 808.85 Q205.649 806.698 202.5 806.698 M211.783 792.045 L211.783 796.304 Q210.024 795.471 208.218 795.031 Q206.436 794.591 204.676 794.591 Q200.047 794.591 197.593 797.716 Q195.163 800.841 194.815 807.161 Q196.181 805.147 198.241 804.082 Q200.301 802.994 202.778 802.994 Q207.987 802.994 210.996 806.165 Q214.028 809.313 214.028 814.753 Q214.028 820.077 210.88 823.295 Q207.732 826.512 202.5 826.512 Q196.505 826.512 193.334 821.929 Q190.163 817.323 190.163 808.596 Q190.163 800.401 194.051 795.54 Q197.94 790.656 204.491 790.656 Q206.25 790.656 208.033 791.003 Q209.838 791.351 211.783 792.045 Z" fill="#000000" fill-rule="nonzero" fill-opacity="1" /><path clip-path="url(#clip540)" d="M126.783 602.467 Q123.172 602.467 121.343 606.032 Q119.538 609.574 119.538 616.703 Q119.538 623.81 121.343 627.375 Q123.172 630.916 126.783 630.916 Q130.417 630.916 132.223 627.375 Q134.052 623.81 134.052 616.703 Q134.052 609.574 132.223 606.032 Q130.417 602.467 126.783 602.467 M126.783 598.764 Q132.593 598.764 135.649 603.37 Q138.728 607.954 138.728 616.703 Q138.728 625.43 135.649 630.037 Q132.593 634.62 126.783 634.62 Q120.973 634.62 117.894 630.037 Q114.839 625.43 114.839 616.703 Q114.839 607.954 117.894 603.37 Q120.973 598.764 126.783 598.764 Z" fill="#000000" fill-rule="nonzero" fill-opacity="1" /><path clip-path="url(#clip540)" d="M146.945 628.069 L151.829 628.069 L151.829 633.949 L146.945 633.949 L146.945 628.069 Z" fill="#000000" fill-rule="nonzero" fill-opacity="1" /><path clip-path="url(#clip540)" d="M172.014 602.467 Q168.403 602.467 166.575 606.032 Q164.769 609.574 164.769 616.703 Q164.769 623.81 166.575 627.375 Q168.403 630.916 172.014 630.916 Q175.649 630.916 177.454 627.375 Q179.283 623.81 179.283 616.703 Q179.283 609.574 177.454 606.032 Q175.649 602.467 172.014 602.467 M172.014 598.764 Q177.825 598.764 180.88 603.37 Q183.959 607.954 183.959 616.703 Q183.959 625.43 180.88 630.037 Q177.825 634.62 172.014 634.62 Q166.204 634.62 163.126 630.037 Q160.07 625.43 160.07 616.703 Q160.07 607.954 163.126 603.37 Q166.204 598.764 172.014 598.764 Z" fill="#000000" fill-rule="nonzero" fill-opacity="1" /><path clip-path="url(#clip540)" d="M202.176 617.537 Q198.843 617.537 196.922 619.319 Q195.024 621.102 195.024 624.227 Q195.024 627.352 196.922 629.134 Q198.843 630.916 202.176 630.916 Q205.51 630.916 207.431 629.134 Q209.352 627.328 209.352 624.227 Q209.352 621.102 207.431 619.319 Q205.533 617.537 202.176 617.537 M197.5 615.546 Q194.491 614.805 192.801 612.745 Q191.135 610.685 191.135 607.722 Q191.135 603.579 194.075 601.171 Q197.037 598.764 202.176 598.764 Q207.338 598.764 210.278 601.171 Q213.218 603.579 213.218 607.722 Q213.218 610.685 211.528 612.745 Q209.861 614.805 206.875 615.546 Q210.255 616.333 212.13 618.625 Q214.028 620.916 214.028 624.227 Q214.028 629.25 210.949 631.935 Q207.894 634.62 202.176 634.62 Q196.459 634.62 193.38 631.935 Q190.325 629.25 190.325 624.227 Q190.325 620.916 192.223 618.625 Q194.121 616.333 197.5 615.546 M195.787 608.162 Q195.787 610.847 197.454 612.352 Q199.144 613.856 202.176 613.856 Q205.186 613.856 206.875 612.352 Q208.588 610.847 208.588 608.162 Q208.588 605.477 206.875 603.972 Q205.186 602.467 202.176 602.467 Q199.144 602.467 197.454 603.972 Q195.787 605.477 195.787 608.162 Z" fill="#000000" fill-rule="nonzero" fill-opacity="1" /><path clip-path="url(#clip540)" d="M126.691 410.575 Q123.08 410.575 121.251 414.14 Q119.445 417.682 119.445 424.811 Q119.445 431.918 121.251 435.482 Q123.08 439.024 126.691 439.024 Q130.325 439.024 132.13 435.482 Q133.959 431.918 133.959 424.811 Q133.959 417.682 132.13 414.14 Q130.325 410.575 126.691 410.575 M126.691 406.871 Q132.501 406.871 135.556 411.478 Q138.635 416.061 138.635 424.811 Q138.635 433.538 135.556 438.144 Q132.501 442.728 126.691 442.728 Q120.88 442.728 117.802 438.144 Q114.746 433.538 114.746 424.811 Q114.746 416.061 117.802 411.478 Q120.88 406.871 126.691 406.871 Z" fill="#000000" fill-rule="nonzero" fill-opacity="1" /><path clip-path="url(#clip540)" d="M146.853 436.177 L151.737 436.177 L151.737 442.056 L146.853 442.056 L146.853 436.177 Z" fill="#000000" fill-rule="nonzero" fill-opacity="1" /><path clip-path="url(#clip540)" d="M162.732 438.121 L170.371 438.121 L170.371 411.756 L162.061 413.422 L162.061 409.163 L170.325 407.496 L175.001 407.496 L175.001 438.121 L182.639 438.121 L182.639 442.056 L162.732 442.056 L162.732 438.121 Z" fill="#000000" fill-rule="nonzero" fill-opacity="1" /><path clip-path="url(#clip540)" d="M202.084 410.575 Q198.473 410.575 196.644 414.14 Q194.838 417.682 194.838 424.811 Q194.838 431.918 196.644 435.482 Q198.473 439.024 202.084 439.024 Q205.718 439.024 207.524 435.482 Q209.352 431.918 209.352 424.811 Q209.352 417.682 207.524 414.14 Q205.718 410.575 202.084 410.575 M202.084 406.871 Q207.894 406.871 210.949 411.478 Q214.028 416.061 214.028 424.811 Q214.028 433.538 210.949 438.144 Q207.894 442.728 202.084 442.728 Q196.274 442.728 193.195 438.144 Q190.139 433.538 190.139 424.811 Q190.139 416.061 193.195 411.478 Q196.274 406.871 202.084 406.871 Z" fill="#000000" fill-rule="nonzero" fill-opacity="1" /><path clip-path="url(#clip540)" d="M128.288 218.683 Q124.677 218.683 122.848 222.248 Q121.043 225.789 121.043 232.919 Q121.043 240.025 122.848 243.59 Q124.677 247.132 128.288 247.132 Q131.922 247.132 133.728 243.59 Q135.556 240.025 135.556 232.919 Q135.556 225.789 133.728 222.248 Q131.922 218.683 128.288 218.683 M128.288 214.979 Q134.098 214.979 137.154 219.585 Q140.232 224.169 140.232 232.919 Q140.232 241.646 137.154 246.252 Q134.098 250.835 128.288 250.835 Q122.478 250.835 119.399 246.252 Q116.343 241.646 116.343 232.919 Q116.343 224.169 119.399 219.585 Q122.478 214.979 128.288 214.979 Z" fill="#000000" fill-rule="nonzero" fill-opacity="1" /><path clip-path="url(#clip540)" d="M148.45 244.284 L153.334 244.284 L153.334 250.164 L148.45 250.164 L148.45 244.284 Z" fill="#000000" fill-rule="nonzero" fill-opacity="1" /><path clip-path="url(#clip540)" d="M164.329 246.229 L171.968 246.229 L171.968 219.863 L163.658 221.53 L163.658 217.271 L171.922 215.604 L176.598 215.604 L176.598 246.229 L184.237 246.229 L184.237 250.164 L164.329 250.164 L164.329 246.229 Z" fill="#000000" fill-rule="nonzero" fill-opacity="1" /><path clip-path="url(#clip540)" d="M197.709 246.229 L214.028 246.229 L214.028 250.164 L192.084 250.164 L192.084 246.229 Q194.746 243.474 199.329 238.845 Q203.936 234.192 205.116 232.849 Q207.362 230.326 208.241 228.59 Q209.144 226.831 209.144 225.141 Q209.144 222.386 207.199 220.65 Q205.278 218.914 202.176 218.914 Q199.977 218.914 197.524 219.678 Q195.093 220.442 192.315 221.993 L192.315 217.271 Q195.139 216.136 197.593 215.558 Q200.047 214.979 202.084 214.979 Q207.454 214.979 210.649 217.664 Q213.843 220.349 213.843 224.84 Q213.843 226.97 213.033 228.891 Q212.246 230.789 210.139 233.382 Q209.561 234.053 206.459 237.271 Q203.357 240.465 197.709 246.229 Z" fill="#000000" fill-rule="nonzero" fill-opacity="1" /><path clip-path="url(#clip540)" d="M21.7677 1183.25 L39.6235 1183.25 L39.6235 1175.16 Q39.6235 1170.67 37.3 1168.22 Q34.9765 1165.77 30.6797 1165.77 Q26.4147 1165.77 24.0912 1168.22 Q21.7677 1170.67 21.7677 1175.16 L21.7677 1183.25 M16.4842 1189.68 L16.4842 1175.16 Q16.4842 1167.17 20.1126 1163.1 Q23.7092 1158.99 30.6797 1158.99 Q37.7138 1158.99 41.3104 1163.1 Q44.907 1167.17 44.907 1175.16 L44.907 1183.25 L64.0042 1183.25 L64.0042 1189.68 L16.4842 1189.68 Z" fill="#000000" fill-rule="nonzero" fill-opacity="1" /><path clip-path="url(#clip540)" d="M32.4621 1139.13 Q32.4621 1143.84 36.1542 1146.58 Q39.8145 1149.32 46.212 1149.32 Q52.6095 1149.32 56.3017 1146.61 Q59.9619 1143.87 59.9619 1139.13 Q59.9619 1134.45 56.2698 1131.72 Q52.5777 1128.98 46.212 1128.98 Q39.8781 1128.98 36.186 1131.72 Q32.4621 1134.45 32.4621 1139.13 M27.4968 1139.13 Q27.4968 1131.49 32.4621 1127.13 Q37.4273 1122.77 46.212 1122.77 Q54.9649 1122.77 59.9619 1127.13 Q64.9272 1131.49 64.9272 1139.13 Q64.9272 1146.8 59.9619 1151.16 Q54.9649 1155.49 46.212 1155.49 Q37.4273 1155.49 32.4621 1151.16 Q27.4968 1146.8 27.4968 1139.13 Z" fill="#000000" fill-rule="nonzero" fill-opacity="1" /><path clip-path="url(#clip540)" d="M28.3562 1116.47 L28.3562 1110.61 L56.1743 1103.29 L28.3562 1096 L28.3562 1089.1 L56.1743 1081.78 L28.3562 1074.49 L28.3562 1068.63 L64.0042 1077.96 L64.0042 1084.86 L34.7856 1092.53 L64.0042 1100.24 L64.0042 1107.14 L28.3562 1116.47 Z" fill="#000000" fill-rule="nonzero" fill-opacity="1" /><path clip-path="url(#clip540)" d="M44.7161 1029.26 L47.5806 1029.26 L47.5806 1056.19 Q53.6281 1055.8 56.8109 1052.56 Q59.9619 1049.28 59.9619 1043.46 Q59.9619 1040.08 59.1344 1036.93 Q58.3069 1033.75 56.6518 1030.63 L62.1899 1030.63 Q63.5267 1033.78 64.227 1037.09 Q64.9272 1040.4 64.9272 1043.81 Q64.9272 1052.34 59.9619 1057.33 Q54.9967 1062.3 46.5303 1062.3 Q37.7774 1062.3 32.6531 1057.59 Q27.4968 1052.84 27.4968 1044.82 Q27.4968 1037.63 32.1438 1033.46 Q36.7589 1029.26 44.7161 1029.26 M42.9973 1035.12 Q38.1912 1035.18 35.3266 1037.82 Q32.4621 1040.43 32.4621 1044.76 Q32.4621 1049.66 35.2312 1052.62 Q38.0002 1055.55 43.0292 1056 L42.9973 1035.12 Z" fill="#000000" fill-rule="nonzero" fill-opacity="1" /><path clip-path="url(#clip540)" d="M33.8307 998.991 Q33.2578 999.978 33.0032 1001.16 Q32.7167 1002.3 32.7167 1003.7 Q32.7167 1008.67 35.9632 1011.34 Q39.1779 1013.98 45.2253 1013.98 L64.0042 1013.98 L64.0042 1019.87 L28.3562 1019.87 L28.3562 1013.98 L33.8944 1013.98 Q30.6479 1012.14 29.0883 1009.18 Q27.4968 1006.22 27.4968 1001.98 Q27.4968 1001.38 27.5923 1000.65 Q27.656 999.914 27.8151 999.023 L33.8307 998.991 Z" fill="#000000" fill-rule="nonzero" fill-opacity="1" /><path clip-path="url(#clip540)" d="M18.0438 943.386 L24.314 943.386 Q22.5634 947.047 21.704 950.293 Q20.8447 953.54 20.8447 956.564 Q20.8447 961.815 22.8817 964.68 Q24.9187 967.513 28.6745 967.513 Q31.8255 967.513 33.4488 965.635 Q35.0402 963.725 36.0269 958.441 L36.8226 954.558 Q38.1912 947.365 41.6605 943.959 Q45.098 940.522 50.8908 940.522 Q57.7976 940.522 61.3624 945.169 Q64.9272 949.784 64.9272 958.728 Q64.9272 962.102 64.1633 965.921 Q63.3994 969.709 61.9035 973.783 L55.2831 973.783 Q57.4793 969.868 58.5933 966.112 Q59.7073 962.356 59.7073 958.728 Q59.7073 953.222 57.543 950.23 Q55.3786 947.238 51.3682 947.238 Q47.8671 947.238 45.8937 949.402 Q43.9204 951.535 42.9337 956.436 L42.1698 960.351 Q40.7375 967.544 37.682 970.759 Q34.6264 973.974 29.1837 973.974 Q22.8817 973.974 19.2532 969.55 Q15.6248 965.094 15.6248 957.296 Q15.6248 953.954 16.2295 950.484 Q16.8343 947.015 18.0438 943.386 Z" fill="#000000" fill-rule="nonzero" fill-opacity="1" /><path clip-path="url(#clip540)" d="M58.657 925.085 L77.5631 925.085 L77.5631 930.973 L28.3562 930.973 L28.3562 925.085 L33.7671 925.085 Q30.5842 923.239 29.0564 920.438 Q27.4968 917.605 27.4968 913.69 Q27.4968 907.197 32.6531 903.155 Q37.8093 899.081 46.212 899.081 Q54.6147 899.081 59.771 903.155 Q64.9272 907.197 64.9272 913.69 Q64.9272 917.605 63.3994 920.438 Q61.8398 923.239 58.657 925.085 M46.212 905.16 Q39.7508 905.16 36.0905 907.834 Q32.3984 910.476 32.3984 915.123 Q32.3984 919.77 36.0905 922.443 Q39.7508 925.085 46.212 925.085 Q52.6732 925.085 56.3653 922.443 Q60.0256 919.77 60.0256 915.123 Q60.0256 910.476 56.3653 907.834 Q52.6732 905.16 46.212 905.16 Z" fill="#000000" fill-rule="nonzero" fill-opacity="1" /><path clip-path="url(#clip540)" d="M44.7161 858.882 L47.5806 858.882 L47.5806 885.809 Q53.6281 885.427 56.8109 882.18 Q59.9619 878.902 59.9619 873.077 Q59.9619 869.703 59.1344 866.552 Q58.3069 863.37 56.6518 860.25 L62.1899 860.25 Q63.5267 863.401 64.227 866.712 Q64.9272 870.022 64.9272 873.427 Q64.9272 881.957 59.9619 886.955 Q54.9967 891.92 46.5303 891.92 Q37.7774 891.92 32.6531 887.209 Q27.4968 882.467 27.4968 874.446 Q27.4968 867.253 32.1438 863.083 Q36.7589 858.882 44.7161 858.882 M42.9973 864.738 Q38.1912 864.802 35.3266 867.444 Q32.4621 870.054 32.4621 874.382 Q32.4621 879.284 35.2312 882.244 Q38.0002 885.172 43.0292 885.618 L42.9973 864.738 Z" fill="#000000" fill-rule="nonzero" fill-opacity="1" /><path clip-path="url(#clip540)" d="M29.7248 823.616 L35.1993 823.616 Q33.8307 826.098 33.1623 828.613 Q32.4621 831.095 32.4621 833.642 Q32.4621 839.339 36.0905 842.49 Q39.6872 845.641 46.212 845.641 Q52.7369 845.641 56.3653 842.49 Q59.9619 839.339 59.9619 833.642 Q59.9619 831.095 59.2935 828.613 Q58.5933 826.098 57.2247 823.616 L62.6355 823.616 Q63.7814 826.067 64.3543 828.708 Q64.9272 831.318 64.9272 834.278 Q64.9272 842.331 59.8664 847.073 Q54.8057 851.816 46.212 851.816 Q37.491 851.816 32.4939 847.042 Q27.4968 842.235 27.4968 833.896 Q27.4968 831.191 28.0697 828.613 Q28.6108 826.035 29.7248 823.616 Z" fill="#000000" fill-rule="nonzero" fill-opacity="1" /><path clip-path="url(#clip540)" d="M18.2347 807.638 L28.3562 807.638 L28.3562 795.575 L32.9077 795.575 L32.9077 807.638 L52.2594 807.638 Q56.6199 807.638 57.8613 806.46 Q59.1026 805.251 59.1026 801.59 L59.1026 795.575 L64.0042 795.575 L64.0042 801.59 Q64.0042 808.37 61.4897 810.948 Q58.9434 813.526 52.2594 813.526 L32.9077 813.526 L32.9077 817.823 L28.3562 817.823 L28.3562 813.526 L18.2347 813.526 L18.2347 807.638 Z" fill="#000000" fill-rule="nonzero" fill-opacity="1" /><path clip-path="url(#clip540)" d="M33.8307 767.216 Q33.2578 768.202 33.0032 769.38 Q32.7167 770.526 32.7167 771.926 Q32.7167 776.891 35.9632 779.565 Q39.1779 782.207 45.2253 782.207 L64.0042 782.207 L64.0042 788.095 L28.3562 788.095 L28.3562 782.207 L33.8944 782.207 Q30.6479 780.361 29.0883 777.401 Q27.4968 774.441 27.4968 770.207 Q27.4968 769.603 27.5923 768.871 Q27.656 768.139 27.8151 767.247 L33.8307 767.216 Z" fill="#000000" fill-rule="nonzero" fill-opacity="1" /><path clip-path="url(#clip540)" d="M46.0847 744.872 Q46.0847 751.97 47.7079 754.707 Q49.3312 757.444 53.2461 757.444 Q56.3653 757.444 58.2114 755.407 Q60.0256 753.338 60.0256 749.805 Q60.0256 744.936 56.5881 742.007 Q53.1188 739.047 47.3897 739.047 L46.0847 739.047 L46.0847 744.872 M43.6657 733.191 L64.0042 733.191 L64.0042 739.047 L58.5933 739.047 Q61.8398 741.053 63.3994 744.044 Q64.9272 747.036 64.9272 751.365 Q64.9272 756.839 61.8716 760.086 Q58.7843 763.301 53.6281 763.301 Q47.6125 763.301 44.5569 759.29 Q41.5014 755.248 41.5014 747.259 L41.5014 739.047 L40.9285 739.047 Q36.8862 739.047 34.6901 741.721 Q32.4621 744.363 32.4621 749.169 Q32.4621 752.224 33.1941 755.121 Q33.9262 758.017 35.3903 760.691 L29.9795 760.691 Q28.7381 757.476 28.1334 754.452 Q27.4968 751.429 27.4968 748.564 Q27.4968 740.83 31.5072 737.01 Q35.5176 733.191 43.6657 733.191 Z" fill="#000000" fill-rule="nonzero" fill-opacity="1" /><path clip-path="url(#clip540)" d="M14.479 721.128 L14.479 715.271 L64.0042 715.271 L64.0042 721.128 L14.479 721.128 Z" fill="#000000" fill-rule="nonzero" fill-opacity="1" /><path clip-path="url(#clip540)" d="M21.7677 675.613 L58.7206 675.613 L58.7206 667.847 Q58.7206 658.012 54.2646 653.46 Q49.8086 648.877 40.1964 648.877 Q30.6479 648.877 26.2237 653.46 Q21.7677 658.012 21.7677 667.847 L21.7677 675.613 M16.4842 682.042 L16.4842 668.834 Q16.4842 655.02 22.2451 648.559 Q27.9743 642.098 40.1964 642.098 Q52.4822 642.098 58.2432 648.591 Q64.0042 655.084 64.0042 668.834 L64.0042 682.042 L16.4842 682.042 Z" fill="#000000" fill-rule="nonzero" fill-opacity="1" /><path clip-path="url(#clip540)" d="M44.7161 601.612 L47.5806 601.612 L47.5806 628.539 Q53.6281 628.157 56.8109 624.91 Q59.9619 621.632 59.9619 615.807 Q59.9619 612.433 59.1344 609.282 Q58.3069 606.1 56.6518 602.98 L62.1899 602.98 Q63.5267 606.131 64.227 609.442 Q64.9272 612.752 64.9272 616.157 Q64.9272 624.687 59.9619 629.684 Q54.9967 634.65 46.5303 634.65 Q37.7774 634.65 32.6531 629.939 Q27.4968 625.197 27.4968 617.176 Q27.4968 609.983 32.1438 605.813 Q36.7589 601.612 44.7161 601.612 M42.9973 607.468 Q38.1912 607.532 35.3266 610.174 Q32.4621 612.784 32.4621 617.112 Q32.4621 622.014 35.2312 624.974 Q38.0002 627.902 43.0292 628.348 L42.9973 607.468 Z" fill="#000000" fill-rule="nonzero" fill-opacity="1" /><path clip-path="url(#clip540)" d="M42.4881 562.367 L64.0042 562.367 L64.0042 568.224 L42.679 568.224 Q37.6183 568.224 35.1038 570.197 Q32.5894 572.17 32.5894 576.117 Q32.5894 580.859 35.6131 583.597 Q38.6368 586.334 43.8567 586.334 L64.0042 586.334 L64.0042 592.222 L28.3562 592.222 L28.3562 586.334 L33.8944 586.334 Q30.6797 584.233 29.0883 581.401 Q27.4968 578.536 27.4968 574.812 Q27.4968 568.669 31.3163 565.518 Q35.1038 562.367 42.4881 562.367 Z" fill="#000000" fill-rule="nonzero" fill-opacity="1" /><path clip-path="url(#clip540)" d="M29.4065 527.96 L34.9447 527.96 Q33.6716 530.443 33.035 533.117 Q32.3984 535.79 32.3984 538.655 Q32.3984 543.015 33.7352 545.212 Q35.072 547.376 37.7456 547.376 Q39.7826 547.376 40.9603 545.816 Q42.1061 544.257 43.1565 539.546 L43.6021 537.541 Q44.9389 531.302 47.3897 528.693 Q49.8086 526.051 54.1691 526.051 Q59.1344 526.051 62.0308 529.998 Q64.9272 533.912 64.9272 540.787 Q64.9272 543.652 64.3543 546.771 Q63.8132 549.859 62.6992 553.296 L56.6518 553.296 Q58.3387 550.049 59.198 546.898 Q60.0256 543.747 60.0256 540.66 Q60.0256 536.522 58.6251 534.294 Q57.1929 532.066 54.6147 532.066 Q52.2276 532.066 50.9545 533.69 Q49.6813 535.281 48.5037 540.724 L48.0262 542.761 Q46.8804 548.203 44.5251 550.622 Q42.138 553.041 38.0002 553.041 Q32.9713 553.041 30.2341 549.477 Q27.4968 545.912 27.4968 539.355 Q27.4968 536.109 27.9743 533.244 Q28.4517 530.379 29.4065 527.96 Z" fill="#000000" fill-rule="nonzero" fill-opacity="1" /><path clip-path="url(#clip540)" d="M28.3562 516.725 L28.3562 510.869 L64.0042 510.869 L64.0042 516.725 L28.3562 516.725 M14.479 516.725 L14.479 510.869 L21.895 510.869 L21.895 516.725 L14.479 516.725 Z" fill="#000000" fill-rule="nonzero" fill-opacity="1" /><path clip-path="url(#clip540)" d="M18.2347 492.822 L28.3562 492.822 L28.3562 480.759 L32.9077 480.759 L32.9077 492.822 L52.2594 492.822 Q56.6199 492.822 57.8613 491.644 Q59.1026 490.435 59.1026 486.774 L59.1026 480.759 L64.0042 480.759 L64.0042 486.774 Q64.0042 493.554 61.4897 496.132 Q58.9434 498.71 52.2594 498.71 L32.9077 498.71 L32.9077 503.007 L28.3562 503.007 L28.3562 498.71 L18.2347 498.71 L18.2347 492.822 Z" fill="#000000" fill-rule="nonzero" fill-opacity="1" /><path clip-path="url(#clip540)" d="M67.3143 458.224 Q73.68 460.707 75.6216 463.062 Q77.5631 465.417 77.5631 469.364 L77.5631 474.043 L72.6615 474.043 L72.6615 470.605 Q72.6615 468.186 71.5157 466.85 Q70.3699 465.513 66.1048 463.89 L63.4312 462.839 L28.3562 477.258 L28.3562 471.051 L56.238 459.911 L28.3562 448.771 L28.3562 442.565 L67.3143 458.224 Z" fill="#000000" fill-rule="nonzero" fill-opacity="1" /><path clip-path="url(#clip540)" d="M21.7677 407.076 L39.6235 407.076 L39.6235 398.991 Q39.6235 394.503 37.3 392.053 Q34.9765 389.602 30.6797 389.602 Q26.4147 389.602 24.0912 392.053 Q21.7677 394.503 21.7677 398.991 L21.7677 407.076 M16.4842 413.505 L16.4842 398.991 Q16.4842 391.002 20.1126 386.928 Q23.7092 382.822 30.6797 382.822 Q37.7138 382.822 41.3104 386.928 Q44.907 391.002 44.907 398.991 L44.907 407.076 L64.0042 407.076 L64.0042 413.505 L16.4842 413.505 Z" fill="#000000" fill-rule="nonzero" fill-opacity="1" /><path clip-path="url(#clip540)" d="M14.5426 360.383 Q21.8632 364.648 29.0246 366.717 Q36.186 368.786 43.5384 368.786 Q50.8908 368.786 58.1159 366.717 Q65.3091 364.616 72.5979 360.383 L72.5979 365.476 Q65.1182 370.25 57.8931 372.637 Q50.668 374.993 43.5384 374.993 Q36.4406 374.993 29.2474 372.637 Q22.0542 370.282 14.5426 365.476 L14.5426 360.383 Z" fill="#000000" fill-rule="nonzero" fill-opacity="1" /><path clip-path="url(#clip540)" d="M64.9272 337.658 Q64.9272 350.867 46.021 350.867 Q38.5413 350.867 28.3562 345.933 L28.3562 339.631 Q38.5413 344.183 46.1802 344.183 Q59.9619 344.183 59.9619 337.117 Q59.9619 330.655 42.8382 330.655 L42.8382 325.245 Q59.9619 325.245 59.9619 318.783 Q59.9619 311.717 46.1802 311.717 Q38.5413 311.717 28.3562 316.269 L28.3562 309.967 Q38.5413 305.033 46.021 305.033 Q64.9272 305.033 64.9272 318.242 Q64.9272 326.9 55.4105 327.95 Q64.9272 329.255 64.9272 337.658 Z" fill="#000000" fill-rule="nonzero" fill-opacity="1" /><path clip-path="url(#clip540)" d="M14.5426 295.358 L14.5426 290.265 Q22.0542 285.491 29.2474 283.135 Q36.4406 280.748 43.5384 280.748 Q50.668 280.748 57.8931 283.135 Q65.1182 285.491 72.5979 290.265 L72.5979 295.358 Q65.3091 291.124 58.1159 289.056 Q50.8908 286.955 43.5384 286.955 Q36.186 286.955 29.0246 289.056 Q21.8632 291.124 14.5426 295.358 Z" fill="#000000" fill-rule="nonzero" fill-opacity="1" /><polyline clip-path="url(#clip542)" style="stroke:#009af9; stroke-linecap:round; stroke-linejoin:round; stroke-width:8; stroke-opacity:1; fill:none" points="309.539,1384.24 325.159,1363.28 340.779,1308.25 356.398,1229.25 372.018,1134.47 387.638,1030.47 403.258,922.443 418.877,814.459 434.497,709.627 450.117,610.273 465.737,518.075 481.356,434.184 496.976,359.321 512.596,293.862 528.215,237.91 543.835,191.353 559.455,153.915 575.075,125.196 590.694,104.707 606.314,91.8998 621.934,86.1857 637.554,86.9571 653.173,93.6012 668.793,105.512 684.413,122.098 700.033,142.79 715.652,167.048 731.272,194.36 746.892,224.248 762.511,256.269 778.131,290.012 793.751,325.103 809.371,361.202 824.99,397.999 840.61,435.218 856.23,472.612 871.85,509.961 887.469,547.074 903.089,583.782 918.709,619.94 934.328,655.424 949.948,690.129 965.568,723.967 981.188,756.868 996.807,788.774 1012.43,819.642 1028.05,849.437 1043.67,878.139 1059.29,905.734 1074.91,932.217 1090.53,957.591 1106.15,981.861 1121.77,1005.04 1137.38,1027.15 1153,1048.21 1168.62,1068.25 1184.24,1087.29 1199.86,1105.36 1215.48,1122.49 1231.1,1138.71 1246.72,1154.06 1262.34,1168.57 1277.96,1182.28 1293.58,1195.21 1309.2,1207.4 1324.82,1218.89 1340.44,1229.7 1356.06,1239.88 1371.68,1249.44 1387.3,1258.42 1402.92,1266.86 1418.54,1274.77 1434.16,1282.19 1449.78,1289.15 1465.4,1295.66 1481.02,1301.76 1496.64,1307.47 1512.26,1312.8 1527.88,1317.79 1543.5,1322.45 1559.12,1326.8 1574.74,1330.86 1590.36,1334.65 1605.98,1338.18 1621.6,1341.48 1637.22,1344.55 1652.84,1347.41 1668.46,1350.07 1684.08,1352.55 1699.7,1354.86 1715.31,1357 1730.93,1359 1746.55,1360.85 1762.17,1362.58 1777.79,1364.18 1793.41,1365.66 1809.03,1367.04 1824.65,1368.33 1840.27,1369.51 1855.89,1370.62 1871.51,1371.64 1887.13,1372.59 1902.75,1373.47 1918.37,1374.28 1933.99,1375.04 1949.61,1375.74 1965.23,1376.38 1980.85,1376.98 1996.47,1377.54 2012.09,1378.05 2027.71,1378.53 2043.33,1378.97 2058.95,1379.37 2074.57,1379.75 2090.19,1380.1 2105.81,1380.42 2121.43,1380.71 2137.05,1380.99 2152.67,1381.24 2168.29,1381.48 2183.91,1381.69 2199.53,1381.89 2215.15,1382.08 2230.77,1382.25 2246.39,1382.4 2262.01,1382.55 2277.63,1382.68 2293.24,1382.8 "/>
<path clip-path="url(#clip540)" d="M1841.7 196.789 L2282.66 196.789 L2282.66 93.1086 L1841.7 93.1086  Z" fill="#ffffff" fill-rule="evenodd" fill-opacity="1"/>
<polyline clip-path="url(#clip540)" style="stroke:#000000; stroke-linecap:round; stroke-linejoin:round; stroke-width:4; stroke-opacity:1; fill:none" points="1841.7,196.789 2282.66,196.789 2282.66,93.1086 1841.7,93.1086 1841.7,196.789 "/>
<polyline clip-path="url(#clip540)" style="stroke:#009af9; stroke-linecap:round; stroke-linejoin:round; stroke-width:8; stroke-opacity:1; fill:none" points="1865.06,144.949 2005.24,144.949 "/>
<path clip-path="url(#clip540)" d="M2047.03 137.067 L2047.03 141.094 Q2045.23 140.169 2043.28 139.706 Q2041.34 139.243 2039.26 139.243 Q2036.08 139.243 2034.49 140.215 Q2032.91 141.187 2032.91 143.131 Q2032.91 144.613 2034.05 145.469 Q2035.18 146.303 2038.61 147.067 L2040.07 147.391 Q2044.6 148.363 2046.5 150.145 Q2048.42 151.905 2048.42 155.076 Q2048.42 158.687 2045.55 160.793 Q2042.71 162.9 2037.71 162.9 Q2035.62 162.9 2033.35 162.483 Q2031.11 162.09 2028.61 161.28 L2028.61 156.881 Q2030.97 158.108 2033.26 158.733 Q2035.55 159.335 2037.8 159.335 Q2040.81 159.335 2042.43 158.317 Q2044.05 157.275 2044.05 155.4 Q2044.05 153.664 2042.87 152.738 Q2041.71 151.812 2037.75 150.956 L2036.27 150.608 Q2032.31 149.775 2030.55 148.062 Q2028.79 146.326 2028.79 143.317 Q2028.79 139.659 2031.39 137.669 Q2033.98 135.678 2038.75 135.678 Q2041.11 135.678 2043.19 136.025 Q2045.27 136.372 2047.03 137.067 Z" fill="#000000" fill-rule="nonzero" fill-opacity="1" /><path clip-path="url(#clip540)" d="M2076.76 146.581 L2076.76 162.229 L2072.5 162.229 L2072.5 146.719 Q2072.5 143.039 2071.06 141.21 Q2069.63 139.382 2066.76 139.382 Q2063.31 139.382 2061.32 141.581 Q2059.33 143.78 2059.33 147.576 L2059.33 162.229 L2055.04 162.229 L2055.04 126.21 L2059.33 126.21 L2059.33 140.331 Q2060.85 137.993 2062.91 136.835 Q2065 135.678 2067.71 135.678 Q2072.17 135.678 2074.46 138.456 Q2076.76 141.21 2076.76 146.581 Z" fill="#000000" fill-rule="nonzero" fill-opacity="1" /><path clip-path="url(#clip540)" d="M2085.25 136.303 L2089.51 136.303 L2089.51 162.229 L2085.25 162.229 L2085.25 136.303 M2085.25 126.21 L2089.51 126.21 L2089.51 131.604 L2085.25 131.604 L2085.25 126.21 Z" fill="#000000" fill-rule="nonzero" fill-opacity="1" /><path clip-path="url(#clip540)" d="M2119.97 146.581 L2119.97 162.229 L2115.71 162.229 L2115.71 146.719 Q2115.71 143.039 2114.28 141.21 Q2112.84 139.382 2109.97 139.382 Q2106.52 139.382 2104.53 141.581 Q2102.54 143.78 2102.54 147.576 L2102.54 162.229 L2098.26 162.229 L2098.26 136.303 L2102.54 136.303 L2102.54 140.331 Q2104.07 137.993 2106.13 136.835 Q2108.21 135.678 2110.92 135.678 Q2115.39 135.678 2117.68 138.456 Q2119.97 141.21 2119.97 146.581 Z" fill="#000000" fill-rule="nonzero" fill-opacity="1" /><path clip-path="url(#clip540)" d="M2138.51 139.289 Q2135.09 139.289 2133.1 141.974 Q2131.11 144.636 2131.11 149.289 Q2131.11 153.942 2133.08 156.627 Q2135.07 159.289 2138.51 159.289 Q2141.92 159.289 2143.91 156.604 Q2145.9 153.918 2145.9 149.289 Q2145.9 144.682 2143.91 141.997 Q2141.92 139.289 2138.51 139.289 M2138.51 135.678 Q2144.07 135.678 2147.24 139.289 Q2150.41 142.9 2150.41 149.289 Q2150.41 155.655 2147.24 159.289 Q2144.07 162.9 2138.51 162.9 Q2132.94 162.9 2129.76 159.289 Q2126.62 155.655 2126.62 149.289 Q2126.62 142.9 2129.76 139.289 Q2132.94 135.678 2138.51 135.678 Z" fill="#000000" fill-rule="nonzero" fill-opacity="1" /><path clip-path="url(#clip540)" d="M2155.62 136.303 L2175.85 136.303 L2175.85 140.192 L2159.83 158.826 L2175.85 158.826 L2175.85 162.229 L2155.04 162.229 L2155.04 158.34 L2171.06 139.706 L2155.62 139.706 L2155.62 136.303 Z" fill="#000000" fill-rule="nonzero" fill-opacity="1" /><path clip-path="url(#clip540)" d="M2181.92 151.997 L2181.92 136.303 L2186.18 136.303 L2186.18 151.835 Q2186.18 155.516 2187.61 157.368 Q2189.05 159.196 2191.92 159.196 Q2195.37 159.196 2197.36 156.997 Q2199.37 154.798 2199.37 151.002 L2199.37 136.303 L2203.63 136.303 L2203.63 162.229 L2199.37 162.229 L2199.37 158.247 Q2197.82 160.608 2195.76 161.766 Q2193.72 162.9 2191.01 162.9 Q2186.55 162.9 2184.23 160.122 Q2181.92 157.344 2181.92 151.997 M2192.64 135.678 L2192.64 135.678 Z" fill="#000000" fill-rule="nonzero" fill-opacity="1" /><path clip-path="url(#clip540)" d="M2212.24 126.21 L2216.52 126.21 L2216.52 147.483 L2229.23 136.303 L2234.67 136.303 L2220.92 148.432 L2235.25 162.229 L2229.7 162.229 L2216.52 149.567 L2216.52 162.229 L2212.24 162.229 L2212.24 126.21 Z" fill="#000000" fill-rule="nonzero" fill-opacity="1" /><path clip-path="url(#clip540)" d="M2250.81 149.196 Q2245.64 149.196 2243.65 150.377 Q2241.66 151.557 2241.66 154.405 Q2241.66 156.673 2243.14 158.016 Q2244.65 159.335 2247.22 159.335 Q2250.76 159.335 2252.89 156.835 Q2255.04 154.312 2255.04 150.145 L2255.04 149.196 L2250.81 149.196 M2259.3 147.437 L2259.3 162.229 L2255.04 162.229 L2255.04 158.293 Q2253.58 160.655 2251.41 161.789 Q2249.23 162.9 2246.08 162.9 Q2242.1 162.9 2239.74 160.678 Q2237.4 158.432 2237.4 154.682 Q2237.4 150.307 2240.32 148.085 Q2243.26 145.863 2249.07 145.863 L2255.04 145.863 L2255.04 145.446 Q2255.04 142.507 2253.1 140.909 Q2251.18 139.289 2247.68 139.289 Q2245.46 139.289 2243.35 139.821 Q2241.25 140.354 2239.3 141.419 L2239.3 137.483 Q2241.64 136.581 2243.84 136.141 Q2246.04 135.678 2248.12 135.678 Q2253.75 135.678 2256.52 138.594 Q2259.3 141.511 2259.3 147.437 Z" fill="#000000" fill-rule="nonzero" fill-opacity="1" /></svg>
