<?xml version="1.0" encoding="utf-8"?>
<svg xmlns="http://www.w3.org/2000/svg" xmlns:xlink="http://www.w3.org/1999/xlink" width="600" height="400" viewBox="0 0 2400 1600">
<defs>
  <clipPath id="clip360">
    <rect x="0" y="0" width="2400" height="1600"/>
  </clipPath>
</defs>
<path clip-path="url(#clip360)" d="M0 1600 L2400 1600 L2400 0 L0 0  Z" fill="#ffffff" fill-rule="evenodd" fill-opacity="1"/>
<defs>
  <clipPath id="clip361">
    <rect x="480" y="0" width="1681" height="1600"/>
  </clipPath>
</defs>
<path clip-path="url(#clip360)" d="M147.478 1486.45 L2352.76 1486.45 L2352.76 47.2441 L147.478 47.2441  Z" fill="#ffffff" fill-rule="evenodd" fill-opacity="1"/>
<defs>
  <clipPath id="clip362">
    <rect x="147" y="47" width="2206" height="1440"/>
  </clipPath>
</defs>
<polyline clip-path="url(#clip362)" style="stroke:#000000; stroke-linecap:round; stroke-linejoin:round; stroke-width:2; stroke-opacity:0.1; fill:none" points="201.733,1486.45 201.733,47.2441 "/>
<polyline clip-path="url(#clip362)" style="stroke:#000000; stroke-linecap:round; stroke-linejoin:round; stroke-width:2; stroke-opacity:0.1; fill:none" points="528.078,1486.45 528.078,47.2441 "/>
<polyline clip-path="url(#clip362)" style="stroke:#000000; stroke-linecap:round; stroke-linejoin:round; stroke-width:2; stroke-opacity:0.1; fill:none" points="854.423,1486.45 854.423,47.2441 "/>
<polyline clip-path="url(#clip362)" style="stroke:#000000; stroke-linecap:round; stroke-linejoin:round; stroke-width:2; stroke-opacity:0.1; fill:none" points="1180.77,1486.45 1180.77,47.2441 "/>
<polyline clip-path="url(#clip362)" style="stroke:#000000; stroke-linecap:round; stroke-linejoin:round; stroke-width:2; stroke-opacity:0.1; fill:none" points="1507.11,1486.45 1507.11,47.2441 "/>
<polyline clip-path="url(#clip362)" style="stroke:#000000; stroke-linecap:round; stroke-linejoin:round; stroke-width:2; stroke-opacity:0.1; fill:none" points="1833.46,1486.45 1833.46,47.2441 "/>
<polyline clip-path="url(#clip362)" style="stroke:#000000; stroke-linecap:round; stroke-linejoin:round; stroke-width:2; stroke-opacity:0.1; fill:none" points="2159.8,1486.45 2159.8,47.2441 "/>
<polyline clip-path="url(#clip362)" style="stroke:#000000; stroke-linecap:round; stroke-linejoin:round; stroke-width:2; stroke-opacity:0.1; fill:none" points="147.478,1325.17 2352.76,1325.17 "/>
<polyline clip-path="url(#clip362)" style="stroke:#000000; stroke-linecap:round; stroke-linejoin:round; stroke-width:2; stroke-opacity:0.1; fill:none" points="147.478,1064.15 2352.76,1064.15 "/>
<polyline clip-path="url(#clip362)" style="stroke:#000000; stroke-linecap:round; stroke-linejoin:round; stroke-width:2; stroke-opacity:0.1; fill:none" points="147.478,803.137 2352.76,803.137 "/>
<polyline clip-path="url(#clip362)" style="stroke:#000000; stroke-linecap:round; stroke-linejoin:round; stroke-width:2; stroke-opacity:0.1; fill:none" points="147.478,542.122 2352.76,542.122 "/>
<polyline clip-path="url(#clip362)" style="stroke:#000000; stroke-linecap:round; stroke-linejoin:round; stroke-width:2; stroke-opacity:0.1; fill:none" points="147.478,281.107 2352.76,281.107 "/>
<polyline clip-path="url(#clip360)" style="stroke:#000000; stroke-linecap:round; stroke-linejoin:round; stroke-width:4; stroke-opacity:1; fill:none" points="147.478,1486.45 2352.76,1486.45 "/>
<polyline clip-path="url(#clip360)" style="stroke:#000000; stroke-linecap:round; stroke-linejoin:round; stroke-width:4; stroke-opacity:1; fill:none" points="201.733,1486.45 201.733,1467.55 "/>
<polyline clip-path="url(#clip360)" style="stroke:#000000; stroke-linecap:round; stroke-linejoin:round; stroke-width:4; stroke-opacity:1; fill:none" points="528.078,1486.45 528.078,1467.55 "/>
<polyline clip-path="url(#clip360)" style="stroke:#000000; stroke-linecap:round; stroke-linejoin:round; stroke-width:4; stroke-opacity:1; fill:none" points="854.423,1486.45 854.423,1467.55 "/>
<polyline clip-path="url(#clip360)" style="stroke:#000000; stroke-linecap:round; stroke-linejoin:round; stroke-width:4; stroke-opacity:1; fill:none" points="1180.77,1486.45 1180.77,1467.55 "/>
<polyline clip-path="url(#clip360)" style="stroke:#000000; stroke-linecap:round; stroke-linejoin:round; stroke-width:4; stroke-opacity:1; fill:none" points="1507.11,1486.45 1507.11,1467.55 "/>
<polyline clip-path="url(#clip360)" style="stroke:#000000; stroke-linecap:round; stroke-linejoin:round; stroke-width:4; stroke-opacity:1; fill:none" points="1833.46,1486.45 1833.46,1467.55 "/>
<polyline clip-path="url(#clip360)" style="stroke:#000000; stroke-linecap:round; stroke-linejoin:round; stroke-width:4; stroke-opacity:1; fill:none" points="2159.8,1486.45 2159.8,1467.55 "/>
<path clip-path="url(#clip360)" d="M201.733 1517.37 Q198.122 1517.37 196.293 1520.93 Q194.487 1524.47 194.487 1531.6 Q194.487 1538.71 196.293 1542.27 Q198.122 1545.82 201.733 1545.82 Q205.367 1545.82 207.173 1542.27 Q209.001 1538.71 209.001 1531.6 Q209.001 1524.47 207.173 1520.93 Q205.367 1517.37 201.733 1517.37 M201.733 1513.66 Q207.543 1513.66 210.599 1518.27 Q213.677 1522.85 213.677 1531.6 Q213.677 1540.33 210.599 1544.94 Q207.543 1549.52 201.733 1549.52 Q195.923 1549.52 192.844 1544.94 Q189.788 1540.33 189.788 1531.6 Q189.788 1522.85 192.844 1518.27 Q195.923 1513.66 201.733 1513.66 Z" fill="#000000" fill-rule="nonzero" fill-opacity="1" /><path clip-path="url(#clip360)" d="M502.766 1544.91 L510.405 1544.91 L510.405 1518.55 L502.094 1520.21 L502.094 1515.95 L510.358 1514.29 L515.034 1514.29 L515.034 1544.91 L522.673 1544.91 L522.673 1548.85 L502.766 1548.85 L502.766 1544.91 Z" fill="#000000" fill-rule="nonzero" fill-opacity="1" /><path clip-path="url(#clip360)" d="M542.117 1517.37 Q538.506 1517.37 536.678 1520.93 Q534.872 1524.47 534.872 1531.6 Q534.872 1538.71 536.678 1542.27 Q538.506 1545.82 542.117 1545.82 Q545.752 1545.82 547.557 1542.27 Q549.386 1538.71 549.386 1531.6 Q549.386 1524.47 547.557 1520.93 Q545.752 1517.37 542.117 1517.37 M542.117 1513.66 Q547.927 1513.66 550.983 1518.27 Q554.062 1522.85 554.062 1531.6 Q554.062 1540.33 550.983 1544.94 Q547.927 1549.52 542.117 1549.52 Q536.307 1549.52 533.228 1544.94 Q530.173 1540.33 530.173 1531.6 Q530.173 1522.85 533.228 1518.27 Q536.307 1513.66 542.117 1513.66 Z" fill="#000000" fill-rule="nonzero" fill-opacity="1" /><path clip-path="url(#clip360)" d="M833.197 1544.91 L849.516 1544.91 L849.516 1548.85 L827.572 1548.85 L827.572 1544.91 Q830.234 1542.16 834.817 1537.53 Q839.423 1532.88 840.604 1531.53 Q842.849 1529.01 843.729 1527.27 Q844.632 1525.51 844.632 1523.82 Q844.632 1521.07 842.687 1519.33 Q840.766 1517.6 837.664 1517.6 Q835.465 1517.6 833.011 1518.36 Q830.581 1519.13 827.803 1520.68 L827.803 1515.95 Q830.627 1514.82 833.081 1514.24 Q835.535 1513.66 837.572 1513.66 Q842.942 1513.66 846.136 1516.35 Q849.331 1519.03 849.331 1523.52 Q849.331 1525.65 848.521 1527.57 Q847.734 1529.47 845.627 1532.07 Q845.048 1532.74 841.947 1535.95 Q838.845 1539.15 833.197 1544.91 Z" fill="#000000" fill-rule="nonzero" fill-opacity="1" /><path clip-path="url(#clip360)" d="M869.331 1517.37 Q865.72 1517.37 863.891 1520.93 Q862.085 1524.47 862.085 1531.6 Q862.085 1538.71 863.891 1542.27 Q865.72 1545.82 869.331 1545.82 Q872.965 1545.82 874.77 1542.27 Q876.599 1538.71 876.599 1531.6 Q876.599 1524.47 874.77 1520.93 Q872.965 1517.37 869.331 1517.37 M869.331 1513.66 Q875.141 1513.66 878.196 1518.27 Q881.275 1522.85 881.275 1531.6 Q881.275 1540.33 878.196 1544.94 Q875.141 1549.52 869.331 1549.52 Q863.52 1549.52 860.442 1544.94 Q857.386 1540.33 857.386 1531.6 Q857.386 1522.85 860.442 1518.27 Q863.52 1513.66 869.331 1513.66 Z" fill="#000000" fill-rule="nonzero" fill-opacity="1" /><path clip-path="url(#clip360)" d="M1169.61 1530.21 Q1172.97 1530.93 1174.84 1533.2 Q1176.74 1535.47 1176.74 1538.8 Q1176.74 1543.92 1173.22 1546.72 Q1169.7 1549.52 1163.22 1549.52 Q1161.05 1549.52 1158.73 1549.08 Q1156.44 1548.66 1153.99 1547.81 L1153.99 1543.29 Q1155.93 1544.43 1158.25 1545.01 Q1160.56 1545.58 1163.08 1545.58 Q1167.48 1545.58 1169.77 1543.85 Q1172.09 1542.11 1172.09 1538.8 Q1172.09 1535.75 1169.94 1534.03 Q1167.81 1532.3 1163.99 1532.3 L1159.96 1532.3 L1159.96 1528.45 L1164.17 1528.45 Q1167.62 1528.45 1169.45 1527.09 Q1171.28 1525.7 1171.28 1523.11 Q1171.28 1520.45 1169.38 1519.03 Q1167.5 1517.6 1163.99 1517.6 Q1162.06 1517.6 1159.87 1518.01 Q1157.67 1518.43 1155.03 1519.31 L1155.03 1515.14 Q1157.69 1514.4 1160 1514.03 Q1162.34 1513.66 1164.4 1513.66 Q1169.73 1513.66 1172.83 1516.09 Q1175.93 1518.5 1175.93 1522.62 Q1175.93 1525.49 1174.29 1527.48 Q1172.64 1529.45 1169.61 1530.21 Z" fill="#000000" fill-rule="nonzero" fill-opacity="1" /><path clip-path="url(#clip360)" d="M1195.61 1517.37 Q1192 1517.37 1190.17 1520.93 Q1188.36 1524.47 1188.36 1531.6 Q1188.36 1538.71 1190.17 1542.27 Q1192 1545.82 1195.61 1545.82 Q1199.24 1545.82 1201.05 1542.27 Q1202.87 1538.71 1202.87 1531.6 Q1202.87 1524.47 1201.05 1520.93 Q1199.24 1517.37 1195.61 1517.37 M1195.61 1513.66 Q1201.42 1513.66 1204.47 1518.27 Q1207.55 1522.85 1207.55 1531.6 Q1207.55 1540.33 1204.47 1544.94 Q1201.42 1549.52 1195.61 1549.52 Q1189.8 1549.52 1186.72 1544.94 Q1183.66 1540.33 1183.66 1531.6 Q1183.66 1522.85 1186.72 1518.27 Q1189.8 1513.66 1195.61 1513.66 Z" fill="#000000" fill-rule="nonzero" fill-opacity="1" /><path clip-path="url(#clip360)" d="M1495.29 1518.36 L1483.48 1536.81 L1495.29 1536.81 L1495.29 1518.36 M1494.06 1514.29 L1499.94 1514.29 L1499.94 1536.81 L1504.87 1536.81 L1504.87 1540.7 L1499.94 1540.7 L1499.94 1548.85 L1495.29 1548.85 L1495.29 1540.7 L1479.68 1540.7 L1479.68 1536.19 L1494.06 1514.29 Z" fill="#000000" fill-rule="nonzero" fill-opacity="1" /><path clip-path="url(#clip360)" d="M1522.6 1517.37 Q1518.99 1517.37 1517.16 1520.93 Q1515.35 1524.47 1515.35 1531.6 Q1515.35 1538.71 1517.16 1542.27 Q1518.99 1545.82 1522.6 1545.82 Q1526.23 1545.82 1528.04 1542.27 Q1529.87 1538.71 1529.87 1531.6 Q1529.87 1524.47 1528.04 1520.93 Q1526.23 1517.37 1522.6 1517.37 M1522.6 1513.66 Q1528.41 1513.66 1531.47 1518.27 Q1534.54 1522.85 1534.54 1531.6 Q1534.54 1540.33 1531.47 1544.94 Q1528.41 1549.52 1522.6 1549.52 Q1516.79 1549.52 1513.71 1544.94 Q1510.66 1540.33 1510.66 1531.6 Q1510.66 1522.85 1513.71 1518.27 Q1516.79 1513.66 1522.6 1513.66 Z" fill="#000000" fill-rule="nonzero" fill-opacity="1" /><path clip-path="url(#clip360)" d="M1808.16 1514.29 L1826.51 1514.29 L1826.51 1518.22 L1812.44 1518.22 L1812.44 1526.7 Q1813.46 1526.35 1814.48 1526.19 Q1815.5 1526 1816.51 1526 Q1822.3 1526 1825.68 1529.17 Q1829.06 1532.34 1829.06 1537.76 Q1829.06 1543.34 1825.59 1546.44 Q1822.12 1549.52 1815.8 1549.52 Q1813.62 1549.52 1811.35 1549.15 Q1809.11 1548.78 1806.7 1548.04 L1806.7 1543.34 Q1808.78 1544.47 1811.01 1545.03 Q1813.23 1545.58 1815.7 1545.58 Q1819.71 1545.58 1822.05 1543.48 Q1824.39 1541.37 1824.39 1537.76 Q1824.39 1534.15 1822.05 1532.04 Q1819.71 1529.94 1815.7 1529.94 Q1813.83 1529.94 1811.95 1530.35 Q1810.1 1530.77 1808.16 1531.65 L1808.16 1514.29 Z" fill="#000000" fill-rule="nonzero" fill-opacity="1" /><path clip-path="url(#clip360)" d="M1848.27 1517.37 Q1844.66 1517.37 1842.83 1520.93 Q1841.03 1524.47 1841.03 1531.6 Q1841.03 1538.71 1842.83 1542.27 Q1844.66 1545.82 1848.27 1545.82 Q1851.91 1545.82 1853.71 1542.27 Q1855.54 1538.71 1855.54 1531.6 Q1855.54 1524.47 1853.71 1520.93 Q1851.91 1517.37 1848.27 1517.37 M1848.27 1513.66 Q1854.08 1513.66 1857.14 1518.27 Q1860.22 1522.85 1860.22 1531.6 Q1860.22 1540.33 1857.14 1544.94 Q1854.08 1549.52 1848.27 1549.52 Q1842.46 1549.52 1839.38 1544.94 Q1836.33 1540.33 1836.33 1531.6 Q1836.33 1522.85 1839.38 1518.27 Q1842.46 1513.66 1848.27 1513.66 Z" fill="#000000" fill-rule="nonzero" fill-opacity="1" /><path clip-path="url(#clip360)" d="M2145.21 1529.7 Q2142.06 1529.7 2140.21 1531.86 Q2138.38 1534.01 2138.38 1537.76 Q2138.38 1541.49 2140.21 1543.66 Q2142.06 1545.82 2145.21 1545.82 Q2148.36 1545.82 2150.19 1543.66 Q2152.04 1541.49 2152.04 1537.76 Q2152.04 1534.01 2150.19 1531.86 Q2148.36 1529.7 2145.21 1529.7 M2154.49 1515.05 L2154.49 1519.31 Q2152.73 1518.48 2150.93 1518.04 Q2149.14 1517.6 2147.39 1517.6 Q2142.76 1517.6 2140.3 1520.72 Q2137.87 1523.85 2137.52 1530.17 Q2138.89 1528.15 2140.95 1527.09 Q2143.01 1526 2145.49 1526 Q2150.7 1526 2153.7 1529.17 Q2156.74 1532.32 2156.74 1537.76 Q2156.74 1543.08 2153.59 1546.3 Q2150.44 1549.52 2145.21 1549.52 Q2139.21 1549.52 2136.04 1544.94 Q2132.87 1540.33 2132.87 1531.6 Q2132.87 1523.41 2136.76 1518.55 Q2140.65 1513.66 2147.2 1513.66 Q2148.96 1513.66 2150.74 1514.01 Q2152.55 1514.36 2154.49 1515.05 Z" fill="#000000" fill-rule="nonzero" fill-opacity="1" /><path clip-path="url(#clip360)" d="M2174.79 1517.37 Q2171.18 1517.37 2169.35 1520.93 Q2167.55 1524.47 2167.55 1531.6 Q2167.55 1538.71 2169.35 1542.27 Q2171.18 1545.82 2174.79 1545.82 Q2178.43 1545.82 2180.23 1542.27 Q2182.06 1538.71 2182.06 1531.6 Q2182.06 1524.47 2180.23 1520.93 Q2178.43 1517.37 2174.79 1517.37 M2174.79 1513.66 Q2180.6 1513.66 2183.66 1518.27 Q2186.74 1522.85 2186.74 1531.6 Q2186.74 1540.33 2183.66 1544.94 Q2180.6 1549.52 2174.79 1549.52 Q2168.98 1549.52 2165.9 1544.94 Q2162.85 1540.33 2162.85 1531.6 Q2162.85 1522.85 2165.9 1518.27 Q2168.98 1513.66 2174.79 1513.66 Z" fill="#000000" fill-rule="nonzero" fill-opacity="1" /><polyline clip-path="url(#clip360)" style="stroke:#000000; stroke-linecap:round; stroke-linejoin:round; stroke-width:4; stroke-opacity:1; fill:none" points="147.478,1486.45 147.478,47.2441 "/>
<polyline clip-path="url(#clip360)" style="stroke:#000000; stroke-linecap:round; stroke-linejoin:round; stroke-width:4; stroke-opacity:1; fill:none" points="147.478,1325.17 166.376,1325.17 "/>
<polyline clip-path="url(#clip360)" style="stroke:#000000; stroke-linecap:round; stroke-linejoin:round; stroke-width:4; stroke-opacity:1; fill:none" points="147.478,1064.15 166.376,1064.15 "/>
<polyline clip-path="url(#clip360)" style="stroke:#000000; stroke-linecap:round; stroke-linejoin:round; stroke-width:4; stroke-opacity:1; fill:none" points="147.478,803.137 166.376,803.137 "/>
<polyline clip-path="url(#clip360)" style="stroke:#000000; stroke-linecap:round; stroke-linejoin:round; stroke-width:4; stroke-opacity:1; fill:none" points="147.478,542.122 166.376,542.122 "/>
<polyline clip-path="url(#clip360)" style="stroke:#000000; stroke-linecap:round; stroke-linejoin:round; stroke-width:4; stroke-opacity:1; fill:none" points="147.478,281.107 166.376,281.107 "/>
<path clip-path="url(#clip360)" d="M51.3625 1325.62 L81.0383 1325.62 L81.0383 1329.55 L51.3625 1329.55 L51.3625 1325.62 Z" fill="#000000" fill-rule="nonzero" fill-opacity="1" /><path clip-path="url(#clip360)" d="M95.1586 1338.51 L111.478 1338.51 L111.478 1342.45 L89.5336 1342.45 L89.5336 1338.51 Q92.1956 1335.76 96.7789 1331.13 Q101.385 1326.48 102.566 1325.13 Q104.811 1322.61 105.691 1320.87 Q106.594 1319.11 106.594 1317.42 Q106.594 1314.67 104.649 1312.93 Q102.728 1311.2 99.6261 1311.2 Q97.4271 1311.2 94.9734 1311.96 Q92.5428 1312.73 89.7651 1314.28 L89.7651 1309.55 Q92.5891 1308.42 95.0428 1307.84 Q97.4965 1307.26 99.5335 1307.26 Q104.904 1307.26 108.098 1309.95 Q111.293 1312.63 111.293 1317.12 Q111.293 1319.25 110.483 1321.17 Q109.696 1323.07 107.589 1325.67 Q107.01 1326.34 103.909 1329.55 Q100.807 1332.75 95.1586 1338.51 Z" fill="#000000" fill-rule="nonzero" fill-opacity="1" /><path clip-path="url(#clip360)" d="M50.9921 1064.6 L80.6679 1064.6 L80.6679 1068.54 L50.9921 1068.54 L50.9921 1064.6 Z" fill="#000000" fill-rule="nonzero" fill-opacity="1" /><path clip-path="url(#clip360)" d="M91.5706 1077.5 L99.2095 1077.5 L99.2095 1051.13 L90.8993 1052.8 L90.8993 1048.54 L99.1632 1046.87 L103.839 1046.87 L103.839 1077.5 L111.478 1077.5 L111.478 1081.43 L91.5706 1081.43 L91.5706 1077.5 Z" fill="#000000" fill-rule="nonzero" fill-opacity="1" /><path clip-path="url(#clip360)" d="M99.5335 788.936 Q95.9224 788.936 94.0937 792.501 Q92.2882 796.042 92.2882 803.172 Q92.2882 810.278 94.0937 813.843 Q95.9224 817.385 99.5335 817.385 Q103.168 817.385 104.973 813.843 Q106.802 810.278 106.802 803.172 Q106.802 796.042 104.973 792.501 Q103.168 788.936 99.5335 788.936 M99.5335 785.232 Q105.344 785.232 108.399 789.839 Q111.478 794.422 111.478 803.172 Q111.478 811.899 108.399 816.505 Q105.344 821.089 99.5335 821.089 Q93.7234 821.089 90.6447 816.505 Q87.5892 811.899 87.5892 803.172 Q87.5892 794.422 90.6447 789.839 Q93.7234 785.232 99.5335 785.232 Z" fill="#000000" fill-rule="nonzero" fill-opacity="1" /><path clip-path="url(#clip360)" d="M91.5706 555.467 L99.2095 555.467 L99.2095 529.101 L90.8993 530.768 L90.8993 526.509 L99.1632 524.842 L103.839 524.842 L103.839 555.467 L111.478 555.467 L111.478 559.402 L91.5706 559.402 L91.5706 555.467 Z" fill="#000000" fill-rule="nonzero" fill-opacity="1" /><path clip-path="url(#clip360)" d="M95.1586 294.452 L111.478 294.452 L111.478 298.387 L89.5336 298.387 L89.5336 294.452 Q92.1956 291.697 96.7789 287.067 Q101.385 282.415 102.566 281.072 Q104.811 278.549 105.691 276.813 Q106.594 275.054 106.594 273.364 Q106.594 270.609 104.649 268.873 Q102.728 267.137 99.6261 267.137 Q97.4271 267.137 94.9734 267.901 Q92.5428 268.665 89.7651 270.216 L89.7651 265.494 Q92.5891 264.359 95.0428 263.781 Q97.4965 263.202 99.5335 263.202 Q104.904 263.202 108.098 265.887 Q111.293 268.572 111.293 273.063 Q111.293 275.193 110.483 277.114 Q109.696 279.012 107.589 281.605 Q107.01 282.276 103.909 285.493 Q100.807 288.688 95.1586 294.452 Z" fill="#000000" fill-rule="nonzero" fill-opacity="1" /><polyline clip-path="url(#clip362)" style="stroke:#009af9; stroke-linecap:round; stroke-linejoin:round; stroke-width:4; stroke-opacity:1; fill:none" points="209.891,764.174 218.05,650.229 226.209,844.004 234.367,1155.54 242.526,1145.88 250.685,824.64 258.843,576.851 267.002,724.141 275.16,944.175 283.319,1109.6 291.478,1123.5 299.636,1106.81 307.795,1165.35 315.954,909.77 324.112,838.616 332.271,1005.36 340.43,663.914 348.588,372.957 356.747,278.928 364.905,324.938 373.064,543.686 381.223,685.038 389.381,818.775 397.54,937.538 405.699,1228.99 413.857,1027.47 422.016,475.301 430.174,342.454 438.333,702.79 446.492,1152.72 454.65,1178.67 462.809,919.896 470.968,597.243 479.126,529.976 487.285,772.04 495.444,776.313 503.602,685.166 511.761,821.736 519.919,797.302 528.078,703.991 536.237,865.834 544.395,807.46 552.554,779.64 560.713,822.425 568.871,813.358 577.03,791.836 585.188,684.306 593.347,729.896 601.506,733.393 609.664,376.068 617.823,259.648 625.982,422.248 634.14,666.278 642.299,1003.39 650.458,1270 658.616,1418.36 666.775,1445.72 674.933,1326.57 683.092,1155.9 691.251,820.242 699.409,518.192 707.568,692.658 715.727,416.282 723.885,137.778 732.044,475.196 740.202,909.804 748.361,1149.37 756.52,1140.47 764.678,1041.28 772.837,906.003 780.996,913.526 789.154,765.133 797.313,605.824 805.472,796.619 813.63,965.598 821.789,1121.9 829.947,1079.29 838.106,884.139 846.265,786.828 854.423,766.884 862.582,564.752 870.741,499.662 878.899,663.452 887.058,786.826 895.216,859.555 903.375,824.888 911.534,697.387 919.692,688.283 927.851,580.275 936.01,559.103 944.168,847.978 952.327,1347.13 960.486,1311.42 968.644,1082.59 976.803,932.116 984.961,683.958 993.12,441.128 1001.28,267.902 1009.44,165.598 1017.6,639.796 1025.75,946.408 1033.91,1026.79 1042.07,967.889 1050.23,615.957 1058.39,444.639 1066.55,716.646 1074.71,1165.69 1082.86,1138.52 1091.02,966.964 1099.18,814.558 1107.34,1020.8 1115.5,1233.71 1123.66,1062.77 1131.82,840.828 1139.98,649.394 1148.13,666.993 1156.29,840.006 1164.45,946.487 1172.61,817.984 1180.77,712.379 1188.93,809.904 1197.09,626.398 1205.24,266.777 1213.4,258.26 1221.56,523.991 1229.72,799.39 1237.88,947.818 1246.04,905.912 1254.2,753.578 1262.35,926.197 1270.51,1404.94 1278.67,1350.16 1286.83,879.415 1294.99,804.377 1303.15,938.062 1311.31,890.295 1319.47,775.818 1327.62,581.407 1335.78,561.794 1343.94,850.768 1352.1,1067.96 1360.26,1175.69 1368.42,1277.3 1376.58,1035.34 1384.73,958.514 1392.89,892.245 1401.05,634.295 1409.21,605.122 1417.37,864.699 1425.53,884.779 1433.69,685.553 1441.84,595.46 1450,758.71 1458.16,852.549 1466.32,530.63 1474.48,374.556 1482.64,527.163 1490.8,654.494 1498.96,750.044 1507.11,810.67 1515.27,904.304 1523.43,832.612 1531.59,363.86 1539.75,329.946 1547.91,826.487 1556.07,1109.73 1564.22,910.141 1572.38,823.899 1580.54,1073.81 1588.7,1020.06 1596.86,739.892 1605.02,760.629 1613.18,944.769 1621.33,959.296 1629.49,958.265 1637.65,1113.92 1645.81,1126.66 1653.97,599.251 1662.13,455.044 1670.29,723.592 1678.45,890.875 1686.6,805.919 1694.76,684.44 1702.92,376.117 1711.08,87.9763 1719.24,344.676 1727.4,856.415 1735.56,1227.2 1743.71,1303.36 1751.87,1068.27 1760.03,579.046 1768.19,373.923 1776.35,633.087 1784.51,711.255 1792.67,778.534 1800.82,799.17 1808.98,653.122 1817.14,605.579 1825.3,659.562 1833.46,857.241 1841.62,1309.56 1849.78,1263.3 1857.93,858.23 1866.09,632.632 1874.25,622.912 1882.41,759.292 1890.57,705.563 1898.73,804.893 1906.89,947.991 1915.05,913.84 1923.2,740.516 1931.36,651.019 1939.52,502.611 1947.68,564.476 1955.84,747.946 1964,957.211 1972.16,1229.13 1980.31,1348.6 1988.47,1228.66 1996.63,975.793 2004.79,986.792 2012.95,973.759 2021.11,741.945 2029.27,668.049 2037.42,839.973 2045.58,783.579 2053.74,633.142 2061.9,661.504 2070.06,842.451 2078.22,886.546 2086.38,910.232 2094.54,897.82 2102.69,878.868 2110.85,853.933 2119.01,540.369 2127.17,224.103 2135.33,481.097 2143.49,835.048 2151.65,923.415 2159.8,919.089 2167.96,718.508 2176.12,636.091 2184.28,840.062 2192.44,978.925 2200.6,775.575 2208.76,603.815 2216.91,940.641 2225.07,1158.37 2233.23,1052.35 2241.39,831.925 2249.55,633.419 2257.71,319.438 2265.87,199.951 2274.03,686.676 2282.18,906.013 2290.34,881.493 "/>
<path clip-path="url(#clip360)" d="M1925.5 1438.47 L2279.25 1438.47 L2279.25 1334.79 L1925.5 1334.79  Z" fill="#ffffff" fill-rule="evenodd" fill-opacity="1"/>
<polyline clip-path="url(#clip360)" style="stroke:#000000; stroke-linecap:round; stroke-linejoin:round; stroke-width:4; stroke-opacity:1; fill:none" points="1925.5,1438.47 2279.25,1438.47 2279.25,1334.79 1925.5,1334.79 1925.5,1438.47 "/>
<polyline clip-path="url(#clip360)" style="stroke:#009af9; stroke-linecap:round; stroke-linejoin:round; stroke-width:4; stroke-opacity:1; fill:none" points="1950.01,1386.63 2097.02,1386.63 "/>
<path clip-path="url(#clip360)" d="M2139.95 1378.75 L2139.95 1382.78 Q2138.15 1381.85 2136.2 1381.39 Q2134.26 1380.93 2132.17 1380.93 Q2129 1380.93 2127.41 1381.9 Q2125.83 1382.87 2125.83 1384.82 Q2125.83 1386.3 2126.97 1387.16 Q2128.1 1387.99 2131.53 1388.75 L2132.98 1389.08 Q2137.52 1390.05 2139.42 1391.83 Q2141.34 1393.59 2141.34 1396.76 Q2141.34 1400.37 2138.47 1402.48 Q2135.62 1404.59 2130.62 1404.59 Q2128.54 1404.59 2126.27 1404.17 Q2124.03 1403.78 2121.53 1402.97 L2121.53 1398.57 Q2123.89 1399.79 2126.18 1400.42 Q2128.47 1401.02 2130.72 1401.02 Q2133.73 1401.02 2135.35 1400 Q2136.97 1398.96 2136.97 1397.09 Q2136.97 1395.35 2135.79 1394.42 Q2134.63 1393.5 2130.67 1392.64 L2129.19 1392.29 Q2125.23 1391.46 2123.47 1389.75 Q2121.71 1388.01 2121.71 1385 Q2121.71 1381.35 2124.3 1379.35 Q2126.9 1377.36 2131.67 1377.36 Q2134.03 1377.36 2136.11 1377.71 Q2138.19 1378.06 2139.95 1378.75 Z" fill="#000000" fill-rule="nonzero" fill-opacity="1" /><path clip-path="url(#clip360)" d="M2148.12 1377.99 L2152.38 1377.99 L2152.38 1403.91 L2148.12 1403.91 L2148.12 1377.99 M2148.12 1367.9 L2152.38 1367.9 L2152.38 1373.29 L2148.12 1373.29 L2148.12 1367.9 Z" fill="#000000" fill-rule="nonzero" fill-opacity="1" /><path clip-path="url(#clip360)" d="M2178.36 1390.65 Q2178.36 1386.02 2176.43 1383.47 Q2174.54 1380.93 2171.09 1380.93 Q2167.66 1380.93 2165.74 1383.47 Q2163.84 1386.02 2163.84 1390.65 Q2163.84 1395.26 2165.74 1397.8 Q2167.66 1400.35 2171.09 1400.35 Q2174.54 1400.35 2176.43 1397.8 Q2178.36 1395.26 2178.36 1390.65 M2182.61 1400.7 Q2182.61 1407.32 2179.67 1410.53 Q2176.73 1413.78 2170.67 1413.78 Q2168.42 1413.78 2166.43 1413.43 Q2164.44 1413.1 2162.57 1412.41 L2162.57 1408.27 Q2164.44 1409.28 2166.27 1409.77 Q2168.1 1410.26 2170 1410.26 Q2174.19 1410.26 2176.27 1408.06 Q2178.36 1405.88 2178.36 1401.46 L2178.36 1399.35 Q2177.04 1401.65 2174.98 1402.78 Q2172.92 1403.91 2170.04 1403.91 Q2165.28 1403.91 2162.36 1400.28 Q2159.44 1396.65 2159.44 1390.65 Q2159.44 1384.63 2162.36 1381 Q2165.28 1377.36 2170.04 1377.36 Q2172.92 1377.36 2174.98 1378.5 Q2177.04 1379.63 2178.36 1381.92 L2178.36 1377.99 L2182.61 1377.99 L2182.61 1400.7 Z" fill="#000000" fill-rule="nonzero" fill-opacity="1" /><path clip-path="url(#clip360)" d="M2212.94 1388.27 L2212.94 1403.91 L2208.68 1403.91 L2208.68 1388.41 Q2208.68 1384.72 2207.24 1382.9 Q2205.81 1381.07 2202.94 1381.07 Q2199.49 1381.07 2197.5 1383.27 Q2195.51 1385.47 2195.51 1389.26 L2195.51 1403.91 L2191.23 1403.91 L2191.23 1377.99 L2195.51 1377.99 L2195.51 1382.02 Q2197.04 1379.68 2199.1 1378.52 Q2201.18 1377.36 2203.89 1377.36 Q2208.35 1377.36 2210.65 1380.14 Q2212.94 1382.9 2212.94 1388.27 Z" fill="#000000" fill-rule="nonzero" fill-opacity="1" /><path clip-path="url(#clip360)" d="M2233.22 1390.88 Q2228.05 1390.88 2226.06 1392.06 Q2224.07 1393.24 2224.07 1396.09 Q2224.07 1398.36 2225.55 1399.7 Q2227.06 1401.02 2229.63 1401.02 Q2233.17 1401.02 2235.3 1398.52 Q2237.45 1396 2237.45 1391.83 L2237.45 1390.88 L2233.22 1390.88 M2241.71 1389.12 L2241.71 1403.91 L2237.45 1403.91 L2237.45 1399.98 Q2235.99 1402.34 2233.82 1403.47 Q2231.64 1404.59 2228.49 1404.59 Q2224.51 1404.59 2222.15 1402.36 Q2219.81 1400.12 2219.81 1396.37 Q2219.81 1391.99 2222.73 1389.77 Q2225.67 1387.55 2231.48 1387.55 L2237.45 1387.55 L2237.45 1387.13 Q2237.45 1384.19 2235.51 1382.6 Q2233.59 1380.97 2230.09 1380.97 Q2227.87 1380.97 2225.76 1381.51 Q2223.66 1382.04 2221.71 1383.1 L2221.71 1379.17 Q2224.05 1378.27 2226.25 1377.83 Q2228.45 1377.36 2230.53 1377.36 Q2236.16 1377.36 2238.93 1380.28 Q2241.71 1383.2 2241.71 1389.12 Z" fill="#000000" fill-rule="nonzero" fill-opacity="1" /><path clip-path="url(#clip360)" d="M2250.48 1367.9 L2254.74 1367.9 L2254.74 1403.91 L2250.48 1403.91 L2250.48 1367.9 Z" fill="#000000" fill-rule="nonzero" fill-opacity="1" /></svg>
