<?xml version="1.0" encoding="utf-8"?>
<svg xmlns="http://www.w3.org/2000/svg" xmlns:xlink="http://www.w3.org/1999/xlink" width="600" height="400" viewBox="0 0 2400 1600">
<defs>
  <clipPath id="clip660">
    <rect x="0" y="0" width="2400" height="1600"/>
  </clipPath>
</defs>
<path clip-path="url(#clip660)" d="M0 1600 L2400 1600 L2400 0 L0 0  Z" fill="#ffffff" fill-rule="evenodd" fill-opacity="1"/>
<defs>
  <clipPath id="clip661">
    <rect x="480" y="0" width="1681" height="1600"/>
  </clipPath>
</defs>
<path clip-path="url(#clip660)" d="M147.478 1486.45 L2352.76 1486.45 L2352.76 47.2441 L147.478 47.2441  Z" fill="#ffffff" fill-rule="evenodd" fill-opacity="1"/>
<defs>
  <clipPath id="clip662">
    <rect x="147" y="47" width="2206" height="1440"/>
  </clipPath>
</defs>
<polyline clip-path="url(#clip662)" style="stroke:#000000; stroke-linecap:round; stroke-linejoin:round; stroke-width:2; stroke-opacity:0.1; fill:none" points="201.733,1486.45 201.733,47.2441 "/>
<polyline clip-path="url(#clip662)" style="stroke:#000000; stroke-linecap:round; stroke-linejoin:round; stroke-width:2; stroke-opacity:0.1; fill:none" points="528.078,1486.45 528.078,47.2441 "/>
<polyline clip-path="url(#clip662)" style="stroke:#000000; stroke-linecap:round; stroke-linejoin:round; stroke-width:2; stroke-opacity:0.1; fill:none" points="854.423,1486.45 854.423,47.2441 "/>
<polyline clip-path="url(#clip662)" style="stroke:#000000; stroke-linecap:round; stroke-linejoin:round; stroke-width:2; stroke-opacity:0.1; fill:none" points="1180.77,1486.45 1180.77,47.2441 "/>
<polyline clip-path="url(#clip662)" style="stroke:#000000; stroke-linecap:round; stroke-linejoin:round; stroke-width:2; stroke-opacity:0.1; fill:none" points="1507.11,1486.45 1507.11,47.2441 "/>
<polyline clip-path="url(#clip662)" style="stroke:#000000; stroke-linecap:round; stroke-linejoin:round; stroke-width:2; stroke-opacity:0.1; fill:none" points="1833.46,1486.45 1833.46,47.2441 "/>
<polyline clip-path="url(#clip662)" style="stroke:#000000; stroke-linecap:round; stroke-linejoin:round; stroke-width:2; stroke-opacity:0.1; fill:none" points="2159.8,1486.45 2159.8,47.2441 "/>
<polyline clip-path="url(#clip662)" style="stroke:#000000; stroke-linecap:round; stroke-linejoin:round; stroke-width:2; stroke-opacity:0.1; fill:none" points="147.478,1319.68 2352.76,1319.68 "/>
<polyline clip-path="url(#clip662)" style="stroke:#000000; stroke-linecap:round; stroke-linejoin:round; stroke-width:2; stroke-opacity:0.1; fill:none" points="147.478,1087.77 2352.76,1087.77 "/>
<polyline clip-path="url(#clip662)" style="stroke:#000000; stroke-linecap:round; stroke-linejoin:round; stroke-width:2; stroke-opacity:0.1; fill:none" points="147.478,855.855 2352.76,855.855 "/>
<polyline clip-path="url(#clip662)" style="stroke:#000000; stroke-linecap:round; stroke-linejoin:round; stroke-width:2; stroke-opacity:0.1; fill:none" points="147.478,623.941 2352.76,623.941 "/>
<polyline clip-path="url(#clip662)" style="stroke:#000000; stroke-linecap:round; stroke-linejoin:round; stroke-width:2; stroke-opacity:0.1; fill:none" points="147.478,392.028 2352.76,392.028 "/>
<polyline clip-path="url(#clip662)" style="stroke:#000000; stroke-linecap:round; stroke-linejoin:round; stroke-width:2; stroke-opacity:0.1; fill:none" points="147.478,160.114 2352.76,160.114 "/>
<polyline clip-path="url(#clip660)" style="stroke:#000000; stroke-linecap:round; stroke-linejoin:round; stroke-width:4; stroke-opacity:1; fill:none" points="147.478,1486.45 2352.76,1486.45 "/>
<polyline clip-path="url(#clip660)" style="stroke:#000000; stroke-linecap:round; stroke-linejoin:round; stroke-width:4; stroke-opacity:1; fill:none" points="201.733,1486.45 201.733,1467.55 "/>
<polyline clip-path="url(#clip660)" style="stroke:#000000; stroke-linecap:round; stroke-linejoin:round; stroke-width:4; stroke-opacity:1; fill:none" points="528.078,1486.45 528.078,1467.55 "/>
<polyline clip-path="url(#clip660)" style="stroke:#000000; stroke-linecap:round; stroke-linejoin:round; stroke-width:4; stroke-opacity:1; fill:none" points="854.423,1486.45 854.423,1467.55 "/>
<polyline clip-path="url(#clip660)" style="stroke:#000000; stroke-linecap:round; stroke-linejoin:round; stroke-width:4; stroke-opacity:1; fill:none" points="1180.77,1486.45 1180.77,1467.55 "/>
<polyline clip-path="url(#clip660)" style="stroke:#000000; stroke-linecap:round; stroke-linejoin:round; stroke-width:4; stroke-opacity:1; fill:none" points="1507.11,1486.45 1507.11,1467.55 "/>
<polyline clip-path="url(#clip660)" style="stroke:#000000; stroke-linecap:round; stroke-linejoin:round; stroke-width:4; stroke-opacity:1; fill:none" points="1833.46,1486.45 1833.46,1467.55 "/>
<polyline clip-path="url(#clip660)" style="stroke:#000000; stroke-linecap:round; stroke-linejoin:round; stroke-width:4; stroke-opacity:1; fill:none" points="2159.8,1486.45 2159.8,1467.55 "/>
<path clip-path="url(#clip660)" d="M201.733 1517.37 Q198.122 1517.37 196.293 1520.93 Q194.487 1524.47 194.487 1531.6 Q194.487 1538.71 196.293 1542.27 Q198.122 1545.82 201.733 1545.82 Q205.367 1545.82 207.173 1542.27 Q209.001 1538.71 209.001 1531.6 Q209.001 1524.47 207.173 1520.93 Q205.367 1517.37 201.733 1517.37 M201.733 1513.66 Q207.543 1513.66 210.599 1518.27 Q213.677 1522.85 213.677 1531.6 Q213.677 1540.33 210.599 1544.94 Q207.543 1549.52 201.733 1549.52 Q195.923 1549.52 192.844 1544.94 Q189.788 1540.33 189.788 1531.6 Q189.788 1522.85 192.844 1518.27 Q195.923 1513.66 201.733 1513.66 Z" fill="#000000" fill-rule="nonzero" fill-opacity="1" /><path clip-path="url(#clip660)" d="M502.766 1544.91 L510.405 1544.91 L510.405 1518.55 L502.094 1520.21 L502.094 1515.95 L510.358 1514.29 L515.034 1514.29 L515.034 1544.91 L522.673 1544.91 L522.673 1548.85 L502.766 1548.85 L502.766 1544.91 Z" fill="#000000" fill-rule="nonzero" fill-opacity="1" /><path clip-path="url(#clip660)" d="M542.117 1517.37 Q538.506 1517.37 536.678 1520.93 Q534.872 1524.47 534.872 1531.6 Q534.872 1538.71 536.678 1542.27 Q538.506 1545.82 542.117 1545.82 Q545.752 1545.82 547.557 1542.27 Q549.386 1538.71 549.386 1531.6 Q549.386 1524.47 547.557 1520.93 Q545.752 1517.37 542.117 1517.37 M542.117 1513.66 Q547.927 1513.66 550.983 1518.27 Q554.062 1522.85 554.062 1531.6 Q554.062 1540.33 550.983 1544.94 Q547.927 1549.52 542.117 1549.52 Q536.307 1549.52 533.228 1544.94 Q530.173 1540.33 530.173 1531.6 Q530.173 1522.85 533.228 1518.27 Q536.307 1513.66 542.117 1513.66 Z" fill="#000000" fill-rule="nonzero" fill-opacity="1" /><path clip-path="url(#clip660)" d="M833.197 1544.91 L849.516 1544.91 L849.516 1548.85 L827.572 1548.85 L827.572 1544.91 Q830.234 1542.16 834.817 1537.53 Q839.423 1532.88 840.604 1531.53 Q842.849 1529.01 843.729 1527.27 Q844.632 1525.51 844.632 1523.82 Q844.632 1521.07 842.687 1519.33 Q840.766 1517.6 837.664 1517.6 Q835.465 1517.6 833.011 1518.36 Q830.581 1519.13 827.803 1520.68 L827.803 1515.95 Q830.627 1514.82 833.081 1514.24 Q835.535 1513.66 837.572 1513.66 Q842.942 1513.66 846.136 1516.35 Q849.331 1519.03 849.331 1523.52 Q849.331 1525.65 848.521 1527.57 Q847.734 1529.47 845.627 1532.07 Q845.048 1532.74 841.947 1535.95 Q838.845 1539.15 833.197 1544.91 Z" fill="#000000" fill-rule="nonzero" fill-opacity="1" /><path clip-path="url(#clip660)" d="M869.331 1517.37 Q865.72 1517.37 863.891 1520.93 Q862.085 1524.47 862.085 1531.6 Q862.085 1538.71 863.891 1542.27 Q865.72 1545.82 869.331 1545.82 Q872.965 1545.82 874.77 1542.27 Q876.599 1538.71 876.599 1531.6 Q876.599 1524.47 874.77 1520.93 Q872.965 1517.37 869.331 1517.37 M869.331 1513.66 Q875.141 1513.66 878.196 1518.27 Q881.275 1522.85 881.275 1531.6 Q881.275 1540.33 878.196 1544.94 Q875.141 1549.52 869.331 1549.52 Q863.52 1549.52 860.442 1544.94 Q857.386 1540.33 857.386 1531.6 Q857.386 1522.85 860.442 1518.27 Q863.52 1513.66 869.331 1513.66 Z" fill="#000000" fill-rule="nonzero" fill-opacity="1" /><path clip-path="url(#clip660)" d="M1169.61 1530.21 Q1172.97 1530.93 1174.84 1533.2 Q1176.74 1535.47 1176.74 1538.8 Q1176.74 1543.92 1173.22 1546.72 Q1169.7 1549.52 1163.22 1549.52 Q1161.05 1549.52 1158.73 1549.08 Q1156.44 1548.66 1153.99 1547.81 L1153.99 1543.29 Q1155.93 1544.43 1158.25 1545.01 Q1160.56 1545.58 1163.08 1545.58 Q1167.48 1545.58 1169.77 1543.85 Q1172.09 1542.11 1172.09 1538.8 Q1172.09 1535.75 1169.94 1534.03 Q1167.81 1532.3 1163.99 1532.3 L1159.96 1532.3 L1159.96 1528.45 L1164.17 1528.45 Q1167.62 1528.45 1169.45 1527.09 Q1171.28 1525.7 1171.28 1523.11 Q1171.28 1520.45 1169.38 1519.03 Q1167.5 1517.6 1163.99 1517.6 Q1162.06 1517.6 1159.87 1518.01 Q1157.67 1518.43 1155.03 1519.31 L1155.03 1515.14 Q1157.69 1514.4 1160 1514.03 Q1162.34 1513.66 1164.4 1513.66 Q1169.73 1513.66 1172.83 1516.09 Q1175.93 1518.5 1175.93 1522.62 Q1175.93 1525.49 1174.29 1527.48 Q1172.64 1529.45 1169.61 1530.21 Z" fill="#000000" fill-rule="nonzero" fill-opacity="1" /><path clip-path="url(#clip660)" d="M1195.61 1517.37 Q1192 1517.37 1190.17 1520.93 Q1188.36 1524.47 1188.36 1531.6 Q1188.36 1538.71 1190.17 1542.27 Q1192 1545.82 1195.61 1545.82 Q1199.24 1545.82 1201.05 1542.27 Q1202.87 1538.71 1202.87 1531.6 Q1202.87 1524.47 1201.05 1520.93 Q1199.24 1517.37 1195.61 1517.37 M1195.61 1513.66 Q1201.42 1513.66 1204.47 1518.27 Q1207.55 1522.85 1207.55 1531.6 Q1207.55 1540.33 1204.47 1544.94 Q1201.42 1549.52 1195.61 1549.52 Q1189.8 1549.52 1186.72 1544.94 Q1183.66 1540.33 1183.66 1531.6 Q1183.66 1522.85 1186.72 1518.27 Q1189.8 1513.66 1195.61 1513.66 Z" fill="#000000" fill-rule="nonzero" fill-opacity="1" /><path clip-path="url(#clip660)" d="M1495.29 1518.36 L1483.48 1536.81 L1495.29 1536.81 L1495.29 1518.36 M1494.06 1514.29 L1499.94 1514.29 L1499.94 1536.81 L1504.87 1536.81 L1504.87 1540.7 L1499.94 1540.7 L1499.94 1548.85 L1495.29 1548.85 L1495.29 1540.7 L1479.68 1540.7 L1479.68 1536.19 L1494.06 1514.29 Z" fill="#000000" fill-rule="nonzero" fill-opacity="1" /><path clip-path="url(#clip660)" d="M1522.6 1517.37 Q1518.99 1517.37 1517.16 1520.93 Q1515.35 1524.47 1515.35 1531.6 Q1515.35 1538.71 1517.16 1542.27 Q1518.99 1545.82 1522.6 1545.82 Q1526.23 1545.82 1528.04 1542.27 Q1529.87 1538.71 1529.87 1531.6 Q1529.87 1524.47 1528.04 1520.93 Q1526.23 1517.37 1522.6 1517.37 M1522.6 1513.66 Q1528.41 1513.66 1531.47 1518.27 Q1534.54 1522.85 1534.54 1531.6 Q1534.54 1540.33 1531.47 1544.94 Q1528.41 1549.52 1522.6 1549.52 Q1516.79 1549.52 1513.71 1544.94 Q1510.66 1540.33 1510.66 1531.6 Q1510.66 1522.85 1513.71 1518.27 Q1516.79 1513.66 1522.6 1513.66 Z" fill="#000000" fill-rule="nonzero" fill-opacity="1" /><path clip-path="url(#clip660)" d="M1808.16 1514.29 L1826.51 1514.29 L1826.51 1518.22 L1812.44 1518.22 L1812.44 1526.7 Q1813.46 1526.35 1814.48 1526.19 Q1815.5 1526 1816.51 1526 Q1822.3 1526 1825.68 1529.17 Q1829.06 1532.34 1829.06 1537.76 Q1829.06 1543.34 1825.59 1546.44 Q1822.12 1549.52 1815.8 1549.52 Q1813.62 1549.52 1811.35 1549.15 Q1809.11 1548.78 1806.7 1548.04 L1806.7 1543.34 Q1808.78 1544.47 1811.01 1545.03 Q1813.23 1545.58 1815.7 1545.58 Q1819.71 1545.58 1822.05 1543.48 Q1824.39 1541.37 1824.39 1537.76 Q1824.39 1534.15 1822.05 1532.04 Q1819.71 1529.94 1815.7 1529.94 Q1813.83 1529.94 1811.95 1530.35 Q1810.1 1530.77 1808.16 1531.65 L1808.16 1514.29 Z" fill="#000000" fill-rule="nonzero" fill-opacity="1" /><path clip-path="url(#clip660)" d="M1848.27 1517.37 Q1844.66 1517.37 1842.83 1520.93 Q1841.03 1524.47 1841.03 1531.6 Q1841.03 1538.71 1842.83 1542.27 Q1844.66 1545.82 1848.27 1545.82 Q1851.91 1545.82 1853.71 1542.27 Q1855.54 1538.71 1855.54 1531.6 Q1855.54 1524.47 1853.71 1520.93 Q1851.91 1517.37 1848.27 1517.37 M1848.27 1513.66 Q1854.08 1513.66 1857.14 1518.27 Q1860.22 1522.85 1860.22 1531.6 Q1860.22 1540.33 1857.14 1544.94 Q1854.08 1549.52 1848.27 1549.52 Q1842.46 1549.52 1839.38 1544.94 Q1836.33 1540.33 1836.33 1531.6 Q1836.33 1522.85 1839.38 1518.27 Q1842.46 1513.66 1848.27 1513.66 Z" fill="#000000" fill-rule="nonzero" fill-opacity="1" /><path clip-path="url(#clip660)" d="M2145.21 1529.7 Q2142.06 1529.7 2140.21 1531.86 Q2138.38 1534.01 2138.38 1537.76 Q2138.38 1541.49 2140.21 1543.66 Q2142.06 1545.82 2145.21 1545.82 Q2148.36 1545.82 2150.19 1543.66 Q2152.04 1541.49 2152.04 1537.76 Q2152.04 1534.01 2150.19 1531.86 Q2148.36 1529.7 2145.21 1529.7 M2154.49 1515.05 L2154.49 1519.31 Q2152.73 1518.48 2150.93 1518.04 Q2149.14 1517.6 2147.39 1517.6 Q2142.76 1517.6 2140.3 1520.72 Q2137.87 1523.85 2137.52 1530.17 Q2138.89 1528.15 2140.95 1527.09 Q2143.01 1526 2145.49 1526 Q2150.7 1526 2153.7 1529.17 Q2156.74 1532.32 2156.74 1537.76 Q2156.74 1543.08 2153.59 1546.3 Q2150.44 1549.52 2145.21 1549.52 Q2139.21 1549.52 2136.04 1544.94 Q2132.87 1540.33 2132.87 1531.6 Q2132.87 1523.41 2136.76 1518.55 Q2140.65 1513.66 2147.2 1513.66 Q2148.96 1513.66 2150.74 1514.01 Q2152.55 1514.36 2154.49 1515.05 Z" fill="#000000" fill-rule="nonzero" fill-opacity="1" /><path clip-path="url(#clip660)" d="M2174.79 1517.37 Q2171.18 1517.37 2169.35 1520.93 Q2167.55 1524.47 2167.55 1531.6 Q2167.55 1538.71 2169.35 1542.27 Q2171.18 1545.82 2174.79 1545.82 Q2178.43 1545.82 2180.23 1542.27 Q2182.06 1538.71 2182.06 1531.6 Q2182.06 1524.47 2180.23 1520.93 Q2178.43 1517.37 2174.79 1517.37 M2174.79 1513.66 Q2180.6 1513.66 2183.66 1518.27 Q2186.74 1522.85 2186.74 1531.6 Q2186.74 1540.33 2183.66 1544.94 Q2180.6 1549.52 2174.79 1549.52 Q2168.98 1549.52 2165.9 1544.94 Q2162.85 1540.33 2162.85 1531.6 Q2162.85 1522.85 2165.9 1518.27 Q2168.98 1513.66 2174.79 1513.66 Z" fill="#000000" fill-rule="nonzero" fill-opacity="1" /><polyline clip-path="url(#clip660)" style="stroke:#000000; stroke-linecap:round; stroke-linejoin:round; stroke-width:4; stroke-opacity:1; fill:none" points="147.478,1486.45 147.478,47.2441 "/>
<polyline clip-path="url(#clip660)" style="stroke:#000000; stroke-linecap:round; stroke-linejoin:round; stroke-width:4; stroke-opacity:1; fill:none" points="147.478,1319.68 166.376,1319.68 "/>
<polyline clip-path="url(#clip660)" style="stroke:#000000; stroke-linecap:round; stroke-linejoin:round; stroke-width:4; stroke-opacity:1; fill:none" points="147.478,1087.77 166.376,1087.77 "/>
<polyline clip-path="url(#clip660)" style="stroke:#000000; stroke-linecap:round; stroke-linejoin:round; stroke-width:4; stroke-opacity:1; fill:none" points="147.478,855.855 166.376,855.855 "/>
<polyline clip-path="url(#clip660)" style="stroke:#000000; stroke-linecap:round; stroke-linejoin:round; stroke-width:4; stroke-opacity:1; fill:none" points="147.478,623.941 166.376,623.941 "/>
<polyline clip-path="url(#clip660)" style="stroke:#000000; stroke-linecap:round; stroke-linejoin:round; stroke-width:4; stroke-opacity:1; fill:none" points="147.478,392.028 166.376,392.028 "/>
<polyline clip-path="url(#clip660)" style="stroke:#000000; stroke-linecap:round; stroke-linejoin:round; stroke-width:4; stroke-opacity:1; fill:none" points="147.478,160.114 166.376,160.114 "/>
<path clip-path="url(#clip660)" d="M51.3625 1320.13 L81.0383 1320.13 L81.0383 1324.07 L51.3625 1324.07 L51.3625 1320.13 Z" fill="#000000" fill-rule="nonzero" fill-opacity="1" /><path clip-path="url(#clip660)" d="M95.1586 1333.03 L111.478 1333.03 L111.478 1336.96 L89.5336 1336.96 L89.5336 1333.03 Q92.1956 1330.27 96.7789 1325.64 Q101.385 1320.99 102.566 1319.65 Q104.811 1317.12 105.691 1315.39 Q106.594 1313.63 106.594 1311.94 Q106.594 1309.18 104.649 1307.45 Q102.728 1305.71 99.6261 1305.71 Q97.4271 1305.71 94.9734 1306.48 Q92.5428 1307.24 89.7651 1308.79 L89.7651 1304.07 Q92.5891 1302.93 95.0428 1302.36 Q97.4965 1301.78 99.5335 1301.78 Q104.904 1301.78 108.098 1304.46 Q111.293 1307.15 111.293 1311.64 Q111.293 1313.77 110.483 1315.69 Q109.696 1317.59 107.589 1320.18 Q107.01 1320.85 103.909 1324.07 Q100.807 1327.26 95.1586 1333.03 Z" fill="#000000" fill-rule="nonzero" fill-opacity="1" /><path clip-path="url(#clip660)" d="M50.9921 1088.22 L80.6679 1088.22 L80.6679 1092.16 L50.9921 1092.16 L50.9921 1088.22 Z" fill="#000000" fill-rule="nonzero" fill-opacity="1" /><path clip-path="url(#clip660)" d="M91.5706 1101.11 L99.2095 1101.11 L99.2095 1074.75 L90.8993 1076.41 L90.8993 1072.16 L99.1632 1070.49 L103.839 1070.49 L103.839 1101.11 L111.478 1101.11 L111.478 1105.05 L91.5706 1105.05 L91.5706 1101.11 Z" fill="#000000" fill-rule="nonzero" fill-opacity="1" /><path clip-path="url(#clip660)" d="M99.5335 841.654 Q95.9224 841.654 94.0937 845.219 Q92.2882 848.76 92.2882 855.89 Q92.2882 862.996 94.0937 866.561 Q95.9224 870.103 99.5335 870.103 Q103.168 870.103 104.973 866.561 Q106.802 862.996 106.802 855.89 Q106.802 848.76 104.973 845.219 Q103.168 841.654 99.5335 841.654 M99.5335 837.95 Q105.344 837.95 108.399 842.557 Q111.478 847.14 111.478 855.89 Q111.478 864.617 108.399 869.223 Q105.344 873.806 99.5335 873.806 Q93.7234 873.806 90.6447 869.223 Q87.5892 864.617 87.5892 855.89 Q87.5892 847.14 90.6447 842.557 Q93.7234 837.95 99.5335 837.95 Z" fill="#000000" fill-rule="nonzero" fill-opacity="1" /><path clip-path="url(#clip660)" d="M91.5706 637.286 L99.2095 637.286 L99.2095 610.921 L90.8993 612.587 L90.8993 608.328 L99.1632 606.661 L103.839 606.661 L103.839 637.286 L111.478 637.286 L111.478 641.221 L91.5706 641.221 L91.5706 637.286 Z" fill="#000000" fill-rule="nonzero" fill-opacity="1" /><path clip-path="url(#clip660)" d="M95.1586 405.373 L111.478 405.373 L111.478 409.308 L89.5336 409.308 L89.5336 405.373 Q92.1956 402.618 96.7789 397.988 Q101.385 393.336 102.566 391.993 Q104.811 389.47 105.691 387.734 Q106.594 385.974 106.594 384.285 Q106.594 381.53 104.649 379.794 Q102.728 378.058 99.6261 378.058 Q97.4271 378.058 94.9734 378.822 Q92.5428 379.586 89.7651 381.137 L89.7651 376.414 Q92.5891 375.28 95.0428 374.701 Q97.4965 374.123 99.5335 374.123 Q104.904 374.123 108.098 376.808 Q111.293 379.493 111.293 383.984 Q111.293 386.113 110.483 388.035 Q109.696 389.933 107.589 392.525 Q107.01 393.197 103.909 396.414 Q100.807 399.609 95.1586 405.373 Z" fill="#000000" fill-rule="nonzero" fill-opacity="1" /><path clip-path="url(#clip660)" d="M104.348 158.76 Q107.705 159.477 109.58 161.746 Q111.478 164.014 111.478 167.348 Q111.478 172.463 107.959 175.264 Q104.441 178.065 97.9595 178.065 Q95.7836 178.065 93.4688 177.625 Q91.1771 177.209 88.7234 176.352 L88.7234 171.838 Q90.6678 172.973 92.9826 173.551 Q95.2974 174.13 97.8206 174.13 Q102.219 174.13 104.51 172.394 Q106.825 170.658 106.825 167.348 Q106.825 164.292 104.672 162.579 Q102.543 160.843 98.7234 160.843 L94.6956 160.843 L94.6956 157.001 L98.9085 157.001 Q102.358 157.001 104.186 155.635 Q106.015 154.246 106.015 151.653 Q106.015 148.991 104.117 147.579 Q102.242 146.144 98.7234 146.144 Q96.8021 146.144 94.603 146.561 Q92.4039 146.977 89.7651 147.857 L89.7651 143.69 Q92.4271 142.95 94.7419 142.579 Q97.0798 142.209 99.14 142.209 Q104.464 142.209 107.566 144.64 Q110.668 147.047 110.668 151.167 Q110.668 154.038 109.024 156.028 Q107.381 157.996 104.348 158.76 Z" fill="#000000" fill-rule="nonzero" fill-opacity="1" /><polyline clip-path="url(#clip662)" style="stroke:#009af9; stroke-linecap:round; stroke-linejoin:round; stroke-width:4; stroke-opacity:1; fill:none" points="209.891,1022.53 218.05,904.932 226.209,776.81 234.367,952.579 242.526,1206.3 250.685,1039.26 258.843,841.23 267.002,858.899 275.16,839.478 283.319,862.747 291.478,969.704 299.636,954.703 307.795,1032.05 315.954,875.182 324.112,725.774 332.271,646.209 340.43,379.646 348.588,520.659 356.747,800.85 364.905,812.23 373.064,880.032 381.223,1123.65 389.381,701.893 397.54,391.573 405.699,729.203 413.857,857.256 422.016,838.246 430.174,892.813 438.333,945.889 446.492,970.86 454.65,1161.39 462.809,1324.1 470.968,1017.46 479.126,827.451 487.285,903.384 495.444,663.317 503.602,446.414 511.761,601.107 519.919,850.806 528.078,1025.39 536.237,881.626 544.395,768.793 552.554,1040.23 560.713,1301.38 568.871,1435.13 577.03,1172.8 585.188,690.29 593.347,338.083 601.506,87.9763 609.664,339.567 617.823,870.277 625.982,1164.7 634.14,1138.47 642.299,980.587 650.458,885.039 658.616,964.162 666.775,1032.14 674.933,907.902 683.092,1027.19 691.251,947.441 699.409,791.697 707.568,947.041 715.727,1029.94 723.885,791.721 732.044,599.504 740.202,706.748 748.361,887.063 756.52,993.117 764.678,889.302 772.837,731.888 780.996,694.574 789.154,715.235 797.313,623.544 805.472,764.359 813.63,1270.71 821.789,1445.72 829.947,1333.83 838.106,1143.31 846.265,901.061 854.423,884.109 862.582,892.379 870.741,984.44 878.899,871.91 887.058,610.19 895.216,408.043 903.375,550.866 911.534,906.554 919.692,1070.51 927.851,781.983 936.01,607.809 944.168,669.323 952.327,847.771 960.486,708.965 968.644,662.051 976.803,892.777 984.961,950.817 993.12,819.441 1001.28,620.05 1009.44,679.324 1017.6,630.056 1025.75,508.78 1033.91,707.576 1042.07,937.012 1050.23,928.753 1058.39,817.024 1066.55,882.465 1074.71,985.629 1082.86,993.773 1091.02,923.937 1099.18,802.14 1107.34,785.813 1115.5,601.852 1123.66,653.776 1131.82,1023.78 1139.98,1267.48 1148.13,1416.16 1156.29,1332.43 1164.45,884.986 1172.61,434.801 1180.77,480.512 1188.93,603.863 1197.09,752.804 1205.24,651.678 1213.4,521.176 1221.56,595.5 1229.72,722.662 1237.88,931.797 1246.04,1213.75 1254.2,1257.92 1262.35,1155.04 1270.51,1041.8 1278.67,950.635 1286.83,912.7 1294.99,727.804 1303.15,690.64 1311.31,792.085 1319.47,893.357 1327.62,799.386 1335.78,530.489 1343.94,569.163 1352.1,743.783 1360.26,771.786 1368.42,892.888 1376.58,1106.36 1384.73,1233.24 1392.89,1328.84 1401.05,1187.1 1409.21,911.994 1417.37,711.678 1425.53,605.329 1433.69,641.882 1441.84,639.548 1450,806.879 1458.16,961.27 1466.32,1014.85 1474.48,920.084 1482.64,719.493 1490.8,680.221 1498.96,732.525 1507.11,676.216 1515.27,897.552 1523.43,1103.55 1531.59,1127.31 1539.75,1038.54 1547.91,948.186 1556.07,969.507 1564.22,909.599 1572.38,820.868 1580.54,738.028 1588.7,846.515 1596.86,1007.63 1605.02,949.702 1613.18,1113.23 1621.33,1318.84 1629.49,1021.66 1637.65,608.894 1645.81,556.465 1653.97,547.347 1662.13,424.447 1670.29,363.181 1678.45,503.42 1686.6,641.572 1694.76,831.092 1702.92,1125.42 1711.08,988.761 1719.24,723.558 1727.4,753.475 1735.56,949.85 1743.71,1109.82 1751.87,960.729 1760.03,936.129 1768.19,886.749 1776.35,775.278 1784.51,797.122 1792.67,962.674 1800.82,1184.53 1808.98,1055.81 1817.14,678.761 1825.3,558.004 1833.46,703.745 1841.62,853.48 1849.78,922.086 1857.93,797.891 1866.09,767.006 1874.25,709.325 1882.41,700.12 1890.57,843.747 1898.73,1128.17 1906.89,1179 1915.05,1177.18 1923.2,1121.21 1931.36,995.939 1939.52,952.569 1947.68,723.784 1955.84,647.93 1964,846.821 1972.16,972.732 1980.31,1024.88 1988.47,925.319 1996.63,671.972 2004.79,524.419 2012.95,505.839 2021.11,786.16 2029.27,1128.57 2037.42,1187.17 2045.58,927.411 2053.74,797.339 2061.9,951.509 2070.06,916.028 2078.22,659.722 2086.38,393.405 2094.54,569.834 2102.69,1116.79 2110.85,1417.85 2119.01,1279.41 2127.17,786.5 2135.33,433.681 2143.49,683.972 2151.65,1055.15 2159.8,820.427 2167.96,505.442 2176.12,687.137 2184.28,1009.39 2192.44,803.85 2200.6,490.13 2208.76,518.56 2216.91,653.317 2225.07,666.153 2233.23,753.846 2241.39,825.996 2249.55,884.552 2257.71,1073.55 2265.87,1127.71 2274.03,1103.86 2282.18,1163.62 2290.34,1065.51 "/>
<path clip-path="url(#clip660)" d="M1925.5 198.898 L2279.25 198.898 L2279.25 95.2176 L1925.5 95.2176  Z" fill="#ffffff" fill-rule="evenodd" fill-opacity="1"/>
<polyline clip-path="url(#clip660)" style="stroke:#000000; stroke-linecap:round; stroke-linejoin:round; stroke-width:4; stroke-opacity:1; fill:none" points="1925.5,198.898 2279.25,198.898 2279.25,95.2176 1925.5,95.2176 1925.5,198.898 "/>
<polyline clip-path="url(#clip660)" style="stroke:#009af9; stroke-linecap:round; stroke-linejoin:round; stroke-width:4; stroke-opacity:1; fill:none" points="1950.01,147.058 2097.02,147.058 "/>
<path clip-path="url(#clip660)" d="M2139.95 139.176 L2139.95 143.203 Q2138.15 142.277 2136.2 141.815 Q2134.26 141.352 2132.17 141.352 Q2129 141.352 2127.41 142.324 Q2125.83 143.296 2125.83 145.24 Q2125.83 146.722 2126.97 147.578 Q2128.1 148.412 2131.53 149.176 L2132.98 149.5 Q2137.52 150.472 2139.42 152.254 Q2141.34 154.014 2141.34 157.185 Q2141.34 160.796 2138.47 162.902 Q2135.62 165.009 2130.62 165.009 Q2128.54 165.009 2126.27 164.592 Q2124.03 164.199 2121.53 163.388 L2121.53 158.99 Q2123.89 160.217 2126.18 160.842 Q2128.47 161.444 2130.72 161.444 Q2133.73 161.444 2135.35 160.426 Q2136.97 159.384 2136.97 157.509 Q2136.97 155.773 2135.79 154.847 Q2134.63 153.921 2130.67 153.064 L2129.19 152.717 Q2125.23 151.884 2123.47 150.171 Q2121.71 148.435 2121.71 145.426 Q2121.71 141.768 2124.3 139.778 Q2126.9 137.787 2131.67 137.787 Q2134.03 137.787 2136.11 138.134 Q2138.19 138.481 2139.95 139.176 Z" fill="#000000" fill-rule="nonzero" fill-opacity="1" /><path clip-path="url(#clip660)" d="M2148.12 138.412 L2152.38 138.412 L2152.38 164.338 L2148.12 164.338 L2148.12 138.412 M2148.12 128.319 L2152.38 128.319 L2152.38 133.713 L2148.12 133.713 L2148.12 128.319 Z" fill="#000000" fill-rule="nonzero" fill-opacity="1" /><path clip-path="url(#clip660)" d="M2178.36 151.074 Q2178.36 146.444 2176.43 143.898 Q2174.54 141.352 2171.09 141.352 Q2167.66 141.352 2165.74 143.898 Q2163.84 146.444 2163.84 151.074 Q2163.84 155.68 2165.74 158.226 Q2167.66 160.773 2171.09 160.773 Q2174.54 160.773 2176.43 158.226 Q2178.36 155.68 2178.36 151.074 M2182.61 161.12 Q2182.61 167.74 2179.67 170.958 Q2176.73 174.199 2170.67 174.199 Q2168.42 174.199 2166.43 173.851 Q2164.44 173.527 2162.57 172.833 L2162.57 168.689 Q2164.44 169.708 2166.27 170.194 Q2168.1 170.68 2170 170.68 Q2174.19 170.68 2176.27 168.481 Q2178.36 166.305 2178.36 161.884 L2178.36 159.777 Q2177.04 162.069 2174.98 163.203 Q2172.92 164.338 2170.04 164.338 Q2165.28 164.338 2162.36 160.703 Q2159.44 157.069 2159.44 151.074 Q2159.44 145.055 2162.36 141.421 Q2165.28 137.787 2170.04 137.787 Q2172.92 137.787 2174.98 138.921 Q2177.04 140.055 2178.36 142.347 L2178.36 138.412 L2182.61 138.412 L2182.61 161.12 Z" fill="#000000" fill-rule="nonzero" fill-opacity="1" /><path clip-path="url(#clip660)" d="M2212.94 148.689 L2212.94 164.338 L2208.68 164.338 L2208.68 148.828 Q2208.68 145.148 2207.24 143.319 Q2205.81 141.49 2202.94 141.49 Q2199.49 141.49 2197.5 143.69 Q2195.51 145.889 2195.51 149.685 L2195.51 164.338 L2191.23 164.338 L2191.23 138.412 L2195.51 138.412 L2195.51 142.44 Q2197.04 140.102 2199.1 138.944 Q2201.18 137.787 2203.89 137.787 Q2208.35 137.787 2210.65 140.565 Q2212.94 143.319 2212.94 148.689 Z" fill="#000000" fill-rule="nonzero" fill-opacity="1" /><path clip-path="url(#clip660)" d="M2233.22 151.305 Q2228.05 151.305 2226.06 152.486 Q2224.07 153.666 2224.07 156.514 Q2224.07 158.782 2225.55 160.125 Q2227.06 161.444 2229.63 161.444 Q2233.17 161.444 2235.3 158.944 Q2237.45 156.421 2237.45 152.254 L2237.45 151.305 L2233.22 151.305 M2241.71 149.546 L2241.71 164.338 L2237.45 164.338 L2237.45 160.402 Q2235.99 162.763 2233.82 163.898 Q2231.64 165.009 2228.49 165.009 Q2224.51 165.009 2222.15 162.787 Q2219.81 160.541 2219.81 156.791 Q2219.81 152.416 2222.73 150.194 Q2225.67 147.972 2231.48 147.972 L2237.45 147.972 L2237.45 147.555 Q2237.45 144.615 2235.51 143.018 Q2233.59 141.398 2230.09 141.398 Q2227.87 141.398 2225.76 141.93 Q2223.66 142.463 2221.71 143.527 L2221.71 139.592 Q2224.05 138.69 2226.25 138.25 Q2228.45 137.787 2230.53 137.787 Q2236.16 137.787 2238.93 140.703 Q2241.71 143.62 2241.71 149.546 Z" fill="#000000" fill-rule="nonzero" fill-opacity="1" /><path clip-path="url(#clip660)" d="M2250.48 128.319 L2254.74 128.319 L2254.74 164.338 L2250.48 164.338 L2250.48 128.319 Z" fill="#000000" fill-rule="nonzero" fill-opacity="1" /></svg>
