<?xml version="1.0" encoding="utf-8"?>
<svg xmlns="http://www.w3.org/2000/svg" xmlns:xlink="http://www.w3.org/1999/xlink" width="600" height="400" viewBox="0 0 2400 1600">
<defs>
  <clipPath id="clip610">
    <rect x="0" y="0" width="2400" height="1600"/>
  </clipPath>
</defs>
<path clip-path="url(#clip610)" d="M0 1600 L2400 1600 L2400 0 L0 0  Z" fill="#ffffff" fill-rule="evenodd" fill-opacity="1"/>
<defs>
  <clipPath id="clip611">
    <rect x="480" y="0" width="1681" height="1600"/>
  </clipPath>
</defs>
<path clip-path="url(#clip610)" d="M147.478 1486.45 L2352.76 1486.45 L2352.76 47.2441 L147.478 47.2441  Z" fill="#ffffff" fill-rule="evenodd" fill-opacity="1"/>
<defs>
  <clipPath id="clip612">
    <rect x="147" y="47" width="2206" height="1440"/>
  </clipPath>
</defs>
<polyline clip-path="url(#clip612)" style="stroke:#000000; stroke-linecap:round; stroke-linejoin:round; stroke-width:2; stroke-opacity:0.1; fill:none" points="201.733,1486.45 201.733,47.2441 "/>
<polyline clip-path="url(#clip612)" style="stroke:#000000; stroke-linecap:round; stroke-linejoin:round; stroke-width:2; stroke-opacity:0.1; fill:none" points="528.078,1486.45 528.078,47.2441 "/>
<polyline clip-path="url(#clip612)" style="stroke:#000000; stroke-linecap:round; stroke-linejoin:round; stroke-width:2; stroke-opacity:0.1; fill:none" points="854.423,1486.45 854.423,47.2441 "/>
<polyline clip-path="url(#clip612)" style="stroke:#000000; stroke-linecap:round; stroke-linejoin:round; stroke-width:2; stroke-opacity:0.1; fill:none" points="1180.77,1486.45 1180.77,47.2441 "/>
<polyline clip-path="url(#clip612)" style="stroke:#000000; stroke-linecap:round; stroke-linejoin:round; stroke-width:2; stroke-opacity:0.1; fill:none" points="1507.11,1486.45 1507.11,47.2441 "/>
<polyline clip-path="url(#clip612)" style="stroke:#000000; stroke-linecap:round; stroke-linejoin:round; stroke-width:2; stroke-opacity:0.1; fill:none" points="1833.46,1486.45 1833.46,47.2441 "/>
<polyline clip-path="url(#clip612)" style="stroke:#000000; stroke-linecap:round; stroke-linejoin:round; stroke-width:2; stroke-opacity:0.1; fill:none" points="2159.8,1486.45 2159.8,47.2441 "/>
<polyline clip-path="url(#clip612)" style="stroke:#000000; stroke-linecap:round; stroke-linejoin:round; stroke-width:2; stroke-opacity:0.1; fill:none" points="147.478,1338.69 2352.76,1338.69 "/>
<polyline clip-path="url(#clip612)" style="stroke:#000000; stroke-linecap:round; stroke-linejoin:round; stroke-width:2; stroke-opacity:0.1; fill:none" points="147.478,1097.54 2352.76,1097.54 "/>
<polyline clip-path="url(#clip612)" style="stroke:#000000; stroke-linecap:round; stroke-linejoin:round; stroke-width:2; stroke-opacity:0.1; fill:none" points="147.478,856.389 2352.76,856.389 "/>
<polyline clip-path="url(#clip612)" style="stroke:#000000; stroke-linecap:round; stroke-linejoin:round; stroke-width:2; stroke-opacity:0.1; fill:none" points="147.478,615.24 2352.76,615.24 "/>
<polyline clip-path="url(#clip612)" style="stroke:#000000; stroke-linecap:round; stroke-linejoin:round; stroke-width:2; stroke-opacity:0.1; fill:none" points="147.478,374.092 2352.76,374.092 "/>
<polyline clip-path="url(#clip612)" style="stroke:#000000; stroke-linecap:round; stroke-linejoin:round; stroke-width:2; stroke-opacity:0.1; fill:none" points="147.478,132.943 2352.76,132.943 "/>
<polyline clip-path="url(#clip610)" style="stroke:#000000; stroke-linecap:round; stroke-linejoin:round; stroke-width:4; stroke-opacity:1; fill:none" points="147.478,1486.45 2352.76,1486.45 "/>
<polyline clip-path="url(#clip610)" style="stroke:#000000; stroke-linecap:round; stroke-linejoin:round; stroke-width:4; stroke-opacity:1; fill:none" points="201.733,1486.45 201.733,1467.55 "/>
<polyline clip-path="url(#clip610)" style="stroke:#000000; stroke-linecap:round; stroke-linejoin:round; stroke-width:4; stroke-opacity:1; fill:none" points="528.078,1486.45 528.078,1467.55 "/>
<polyline clip-path="url(#clip610)" style="stroke:#000000; stroke-linecap:round; stroke-linejoin:round; stroke-width:4; stroke-opacity:1; fill:none" points="854.423,1486.45 854.423,1467.55 "/>
<polyline clip-path="url(#clip610)" style="stroke:#000000; stroke-linecap:round; stroke-linejoin:round; stroke-width:4; stroke-opacity:1; fill:none" points="1180.77,1486.45 1180.77,1467.55 "/>
<polyline clip-path="url(#clip610)" style="stroke:#000000; stroke-linecap:round; stroke-linejoin:round; stroke-width:4; stroke-opacity:1; fill:none" points="1507.11,1486.45 1507.11,1467.55 "/>
<polyline clip-path="url(#clip610)" style="stroke:#000000; stroke-linecap:round; stroke-linejoin:round; stroke-width:4; stroke-opacity:1; fill:none" points="1833.46,1486.45 1833.46,1467.55 "/>
<polyline clip-path="url(#clip610)" style="stroke:#000000; stroke-linecap:round; stroke-linejoin:round; stroke-width:4; stroke-opacity:1; fill:none" points="2159.8,1486.45 2159.8,1467.55 "/>
<path clip-path="url(#clip610)" d="M201.733 1517.37 Q198.122 1517.37 196.293 1520.93 Q194.487 1524.47 194.487 1531.6 Q194.487 1538.71 196.293 1542.27 Q198.122 1545.82 201.733 1545.82 Q205.367 1545.82 207.173 1542.27 Q209.001 1538.71 209.001 1531.6 Q209.001 1524.47 207.173 1520.93 Q205.367 1517.37 201.733 1517.37 M201.733 1513.66 Q207.543 1513.66 210.599 1518.27 Q213.677 1522.85 213.677 1531.6 Q213.677 1540.33 210.599 1544.94 Q207.543 1549.52 201.733 1549.52 Q195.923 1549.52 192.844 1544.94 Q189.788 1540.33 189.788 1531.6 Q189.788 1522.85 192.844 1518.27 Q195.923 1513.66 201.733 1513.66 Z" fill="#000000" fill-rule="nonzero" fill-opacity="1" /><path clip-path="url(#clip610)" d="M502.766 1544.91 L510.405 1544.91 L510.405 1518.55 L502.094 1520.21 L502.094 1515.95 L510.358 1514.29 L515.034 1514.29 L515.034 1544.91 L522.673 1544.91 L522.673 1548.85 L502.766 1548.85 L502.766 1544.91 Z" fill="#000000" fill-rule="nonzero" fill-opacity="1" /><path clip-path="url(#clip610)" d="M542.117 1517.37 Q538.506 1517.37 536.678 1520.93 Q534.872 1524.47 534.872 1531.6 Q534.872 1538.71 536.678 1542.27 Q538.506 1545.82 542.117 1545.82 Q545.752 1545.82 547.557 1542.27 Q549.386 1538.71 549.386 1531.6 Q549.386 1524.47 547.557 1520.93 Q545.752 1517.37 542.117 1517.37 M542.117 1513.66 Q547.927 1513.66 550.983 1518.27 Q554.062 1522.85 554.062 1531.6 Q554.062 1540.33 550.983 1544.94 Q547.927 1549.52 542.117 1549.52 Q536.307 1549.52 533.228 1544.94 Q530.173 1540.33 530.173 1531.6 Q530.173 1522.85 533.228 1518.27 Q536.307 1513.66 542.117 1513.66 Z" fill="#000000" fill-rule="nonzero" fill-opacity="1" /><path clip-path="url(#clip610)" d="M833.197 1544.91 L849.516 1544.91 L849.516 1548.85 L827.572 1548.85 L827.572 1544.91 Q830.234 1542.16 834.817 1537.53 Q839.423 1532.88 840.604 1531.53 Q842.849 1529.01 843.729 1527.27 Q844.632 1525.51 844.632 1523.82 Q844.632 1521.07 842.687 1519.33 Q840.766 1517.6 837.664 1517.6 Q835.465 1517.6 833.011 1518.36 Q830.581 1519.13 827.803 1520.68 L827.803 1515.95 Q830.627 1514.82 833.081 1514.24 Q835.535 1513.66 837.572 1513.66 Q842.942 1513.66 846.136 1516.35 Q849.331 1519.03 849.331 1523.52 Q849.331 1525.65 848.521 1527.57 Q847.734 1529.47 845.627 1532.07 Q845.048 1532.74 841.947 1535.95 Q838.845 1539.15 833.197 1544.91 Z" fill="#000000" fill-rule="nonzero" fill-opacity="1" /><path clip-path="url(#clip610)" d="M869.331 1517.37 Q865.72 1517.37 863.891 1520.93 Q862.085 1524.47 862.085 1531.6 Q862.085 1538.71 863.891 1542.27 Q865.72 1545.82 869.331 1545.82 Q872.965 1545.82 874.77 1542.27 Q876.599 1538.71 876.599 1531.6 Q876.599 1524.47 874.77 1520.93 Q872.965 1517.37 869.331 1517.37 M869.331 1513.66 Q875.141 1513.66 878.196 1518.27 Q881.275 1522.85 881.275 1531.6 Q881.275 1540.33 878.196 1544.94 Q875.141 1549.52 869.331 1549.52 Q863.52 1549.52 860.442 1544.94 Q857.386 1540.33 857.386 1531.6 Q857.386 1522.85 860.442 1518.27 Q863.52 1513.66 869.331 1513.66 Z" fill="#000000" fill-rule="nonzero" fill-opacity="1" /><path clip-path="url(#clip610)" d="M1169.61 1530.21 Q1172.97 1530.93 1174.84 1533.2 Q1176.74 1535.47 1176.74 1538.8 Q1176.74 1543.92 1173.22 1546.72 Q1169.7 1549.52 1163.22 1549.52 Q1161.05 1549.52 1158.73 1549.08 Q1156.44 1548.66 1153.99 1547.81 L1153.99 1543.29 Q1155.93 1544.43 1158.25 1545.01 Q1160.56 1545.58 1163.08 1545.58 Q1167.48 1545.58 1169.77 1543.85 Q1172.09 1542.11 1172.09 1538.8 Q1172.09 1535.75 1169.94 1534.03 Q1167.81 1532.3 1163.99 1532.3 L1159.96 1532.3 L1159.96 1528.45 L1164.17 1528.45 Q1167.62 1528.45 1169.45 1527.09 Q1171.28 1525.7 1171.28 1523.11 Q1171.28 1520.45 1169.38 1519.03 Q1167.5 1517.6 1163.99 1517.6 Q1162.06 1517.6 1159.87 1518.01 Q1157.67 1518.43 1155.03 1519.31 L1155.03 1515.14 Q1157.69 1514.4 1160 1514.03 Q1162.34 1513.66 1164.4 1513.66 Q1169.73 1513.66 1172.83 1516.09 Q1175.93 1518.5 1175.93 1522.62 Q1175.93 1525.49 1174.29 1527.48 Q1172.64 1529.45 1169.61 1530.21 Z" fill="#000000" fill-rule="nonzero" fill-opacity="1" /><path clip-path="url(#clip610)" d="M1195.61 1517.37 Q1192 1517.37 1190.17 1520.93 Q1188.36 1524.47 1188.36 1531.6 Q1188.36 1538.71 1190.17 1542.27 Q1192 1545.82 1195.61 1545.82 Q1199.24 1545.82 1201.05 1542.27 Q1202.87 1538.71 1202.87 1531.6 Q1202.87 1524.47 1201.05 1520.93 Q1199.24 1517.37 1195.61 1517.37 M1195.61 1513.66 Q1201.42 1513.66 1204.47 1518.27 Q1207.55 1522.85 1207.55 1531.6 Q1207.55 1540.33 1204.47 1544.94 Q1201.42 1549.52 1195.61 1549.52 Q1189.8 1549.52 1186.72 1544.94 Q1183.66 1540.33 1183.66 1531.6 Q1183.66 1522.85 1186.72 1518.27 Q1189.8 1513.66 1195.61 1513.66 Z" fill="#000000" fill-rule="nonzero" fill-opacity="1" /><path clip-path="url(#clip610)" d="M1495.29 1518.36 L1483.48 1536.81 L1495.29 1536.81 L1495.29 1518.36 M1494.06 1514.29 L1499.94 1514.29 L1499.94 1536.81 L1504.87 1536.81 L1504.87 1540.7 L1499.94 1540.7 L1499.94 1548.85 L1495.29 1548.85 L1495.29 1540.7 L1479.68 1540.7 L1479.68 1536.19 L1494.06 1514.29 Z" fill="#000000" fill-rule="nonzero" fill-opacity="1" /><path clip-path="url(#clip610)" d="M1522.6 1517.37 Q1518.99 1517.37 1517.16 1520.93 Q1515.35 1524.47 1515.35 1531.6 Q1515.35 1538.71 1517.16 1542.27 Q1518.99 1545.82 1522.6 1545.82 Q1526.23 1545.82 1528.04 1542.27 Q1529.87 1538.71 1529.87 1531.6 Q1529.87 1524.47 1528.04 1520.93 Q1526.23 1517.37 1522.6 1517.37 M1522.6 1513.66 Q1528.41 1513.66 1531.47 1518.27 Q1534.54 1522.85 1534.54 1531.6 Q1534.54 1540.33 1531.47 1544.94 Q1528.41 1549.52 1522.6 1549.52 Q1516.79 1549.52 1513.71 1544.94 Q1510.66 1540.33 1510.66 1531.6 Q1510.66 1522.85 1513.71 1518.27 Q1516.79 1513.66 1522.6 1513.66 Z" fill="#000000" fill-rule="nonzero" fill-opacity="1" /><path clip-path="url(#clip610)" d="M1808.16 1514.29 L1826.51 1514.29 L1826.51 1518.22 L1812.44 1518.22 L1812.44 1526.7 Q1813.46 1526.35 1814.48 1526.19 Q1815.5 1526 1816.51 1526 Q1822.3 1526 1825.68 1529.17 Q1829.06 1532.34 1829.06 1537.76 Q1829.06 1543.34 1825.59 1546.44 Q1822.12 1549.52 1815.8 1549.52 Q1813.62 1549.52 1811.35 1549.15 Q1809.11 1548.78 1806.7 1548.04 L1806.7 1543.34 Q1808.78 1544.47 1811.01 1545.03 Q1813.23 1545.58 1815.7 1545.58 Q1819.71 1545.58 1822.05 1543.48 Q1824.39 1541.37 1824.39 1537.76 Q1824.39 1534.15 1822.05 1532.04 Q1819.71 1529.94 1815.7 1529.94 Q1813.83 1529.94 1811.95 1530.35 Q1810.1 1530.77 1808.16 1531.65 L1808.16 1514.29 Z" fill="#000000" fill-rule="nonzero" fill-opacity="1" /><path clip-path="url(#clip610)" d="M1848.27 1517.37 Q1844.66 1517.37 1842.83 1520.93 Q1841.03 1524.47 1841.03 1531.6 Q1841.03 1538.71 1842.83 1542.27 Q1844.66 1545.82 1848.27 1545.82 Q1851.91 1545.82 1853.71 1542.27 Q1855.54 1538.71 1855.54 1531.6 Q1855.54 1524.47 1853.71 1520.93 Q1851.91 1517.37 1848.27 1517.37 M1848.27 1513.66 Q1854.08 1513.66 1857.14 1518.27 Q1860.22 1522.85 1860.22 1531.6 Q1860.22 1540.33 1857.14 1544.94 Q1854.08 1549.52 1848.27 1549.52 Q1842.46 1549.52 1839.38 1544.94 Q1836.33 1540.33 1836.33 1531.6 Q1836.33 1522.85 1839.38 1518.27 Q1842.46 1513.66 1848.27 1513.66 Z" fill="#000000" fill-rule="nonzero" fill-opacity="1" /><path clip-path="url(#clip610)" d="M2145.21 1529.7 Q2142.06 1529.7 2140.21 1531.86 Q2138.38 1534.01 2138.38 1537.76 Q2138.38 1541.49 2140.21 1543.66 Q2142.06 1545.82 2145.21 1545.82 Q2148.36 1545.82 2150.19 1543.66 Q2152.04 1541.49 2152.04 1537.76 Q2152.04 1534.01 2150.19 1531.86 Q2148.36 1529.7 2145.21 1529.7 M2154.49 1515.05 L2154.49 1519.31 Q2152.73 1518.48 2150.93 1518.04 Q2149.14 1517.6 2147.39 1517.6 Q2142.76 1517.6 2140.3 1520.72 Q2137.87 1523.85 2137.52 1530.17 Q2138.89 1528.15 2140.95 1527.09 Q2143.01 1526 2145.49 1526 Q2150.7 1526 2153.7 1529.17 Q2156.74 1532.32 2156.74 1537.76 Q2156.74 1543.08 2153.59 1546.3 Q2150.44 1549.52 2145.21 1549.52 Q2139.21 1549.52 2136.04 1544.94 Q2132.87 1540.33 2132.87 1531.6 Q2132.87 1523.41 2136.76 1518.55 Q2140.65 1513.66 2147.2 1513.66 Q2148.96 1513.66 2150.74 1514.01 Q2152.55 1514.36 2154.49 1515.05 Z" fill="#000000" fill-rule="nonzero" fill-opacity="1" /><path clip-path="url(#clip610)" d="M2174.79 1517.37 Q2171.18 1517.37 2169.35 1520.93 Q2167.55 1524.47 2167.55 1531.6 Q2167.55 1538.71 2169.35 1542.27 Q2171.18 1545.82 2174.79 1545.82 Q2178.43 1545.82 2180.23 1542.27 Q2182.06 1538.71 2182.06 1531.6 Q2182.06 1524.47 2180.23 1520.93 Q2178.43 1517.37 2174.79 1517.37 M2174.79 1513.66 Q2180.6 1513.66 2183.66 1518.27 Q2186.74 1522.85 2186.74 1531.6 Q2186.74 1540.33 2183.66 1544.94 Q2180.6 1549.52 2174.79 1549.52 Q2168.98 1549.52 2165.9 1544.94 Q2162.85 1540.33 2162.85 1531.6 Q2162.85 1522.85 2165.9 1518.27 Q2168.98 1513.66 2174.79 1513.66 Z" fill="#000000" fill-rule="nonzero" fill-opacity="1" /><polyline clip-path="url(#clip610)" style="stroke:#000000; stroke-linecap:round; stroke-linejoin:round; stroke-width:4; stroke-opacity:1; fill:none" points="147.478,1486.45 147.478,47.2441 "/>
<polyline clip-path="url(#clip610)" style="stroke:#000000; stroke-linecap:round; stroke-linejoin:round; stroke-width:4; stroke-opacity:1; fill:none" points="147.478,1338.69 166.376,1338.69 "/>
<polyline clip-path="url(#clip610)" style="stroke:#000000; stroke-linecap:round; stroke-linejoin:round; stroke-width:4; stroke-opacity:1; fill:none" points="147.478,1097.54 166.376,1097.54 "/>
<polyline clip-path="url(#clip610)" style="stroke:#000000; stroke-linecap:round; stroke-linejoin:round; stroke-width:4; stroke-opacity:1; fill:none" points="147.478,856.389 166.376,856.389 "/>
<polyline clip-path="url(#clip610)" style="stroke:#000000; stroke-linecap:round; stroke-linejoin:round; stroke-width:4; stroke-opacity:1; fill:none" points="147.478,615.24 166.376,615.24 "/>
<polyline clip-path="url(#clip610)" style="stroke:#000000; stroke-linecap:round; stroke-linejoin:round; stroke-width:4; stroke-opacity:1; fill:none" points="147.478,374.092 166.376,374.092 "/>
<polyline clip-path="url(#clip610)" style="stroke:#000000; stroke-linecap:round; stroke-linejoin:round; stroke-width:4; stroke-opacity:1; fill:none" points="147.478,132.943 166.376,132.943 "/>
<path clip-path="url(#clip610)" d="M51.3625 1339.14 L81.0383 1339.14 L81.0383 1343.07 L51.3625 1343.07 L51.3625 1339.14 Z" fill="#000000" fill-rule="nonzero" fill-opacity="1" /><path clip-path="url(#clip610)" d="M95.1586 1352.03 L111.478 1352.03 L111.478 1355.97 L89.5336 1355.97 L89.5336 1352.03 Q92.1956 1349.28 96.7789 1344.65 Q101.385 1339.99 102.566 1338.65 Q104.811 1336.13 105.691 1334.39 Q106.594 1332.63 106.594 1330.94 Q106.594 1328.19 104.649 1326.45 Q102.728 1324.72 99.6261 1324.72 Q97.4271 1324.72 94.9734 1325.48 Q92.5428 1326.24 89.7651 1327.79 L89.7651 1323.07 Q92.5891 1321.94 95.0428 1321.36 Q97.4965 1320.78 99.5335 1320.78 Q104.904 1320.78 108.098 1323.47 Q111.293 1326.15 111.293 1330.64 Q111.293 1332.77 110.483 1334.69 Q109.696 1336.59 107.589 1339.18 Q107.01 1339.85 103.909 1343.07 Q100.807 1346.27 95.1586 1352.03 Z" fill="#000000" fill-rule="nonzero" fill-opacity="1" /><path clip-path="url(#clip610)" d="M50.9921 1097.99 L80.6679 1097.99 L80.6679 1101.92 L50.9921 1101.92 L50.9921 1097.99 Z" fill="#000000" fill-rule="nonzero" fill-opacity="1" /><path clip-path="url(#clip610)" d="M91.5706 1110.88 L99.2095 1110.88 L99.2095 1084.52 L90.8993 1086.18 L90.8993 1081.92 L99.1632 1080.26 L103.839 1080.26 L103.839 1110.88 L111.478 1110.88 L111.478 1114.82 L91.5706 1114.82 L91.5706 1110.88 Z" fill="#000000" fill-rule="nonzero" fill-opacity="1" /><path clip-path="url(#clip610)" d="M99.5335 842.187 Q95.9224 842.187 94.0937 845.752 Q92.2882 849.294 92.2882 856.423 Q92.2882 863.53 94.0937 867.095 Q95.9224 870.636 99.5335 870.636 Q103.168 870.636 104.973 867.095 Q106.802 863.53 106.802 856.423 Q106.802 849.294 104.973 845.752 Q103.168 842.187 99.5335 842.187 M99.5335 838.484 Q105.344 838.484 108.399 843.09 Q111.478 847.673 111.478 856.423 Q111.478 865.15 108.399 869.757 Q105.344 874.34 99.5335 874.34 Q93.7234 874.34 90.6447 869.757 Q87.5892 865.15 87.5892 856.423 Q87.5892 847.673 90.6447 843.09 Q93.7234 838.484 99.5335 838.484 Z" fill="#000000" fill-rule="nonzero" fill-opacity="1" /><path clip-path="url(#clip610)" d="M91.5706 628.585 L99.2095 628.585 L99.2095 602.219 L90.8993 603.886 L90.8993 599.627 L99.1632 597.96 L103.839 597.96 L103.839 628.585 L111.478 628.585 L111.478 632.52 L91.5706 632.52 L91.5706 628.585 Z" fill="#000000" fill-rule="nonzero" fill-opacity="1" /><path clip-path="url(#clip610)" d="M95.1586 387.436 L111.478 387.436 L111.478 391.372 L89.5336 391.372 L89.5336 387.436 Q92.1956 384.682 96.7789 380.052 Q101.385 375.399 102.566 374.057 Q104.811 371.534 105.691 369.798 Q106.594 368.038 106.594 366.349 Q106.594 363.594 104.649 361.858 Q102.728 360.122 99.6261 360.122 Q97.4271 360.122 94.9734 360.886 Q92.5428 361.65 89.7651 363.2 L89.7651 358.478 Q92.5891 357.344 95.0428 356.765 Q97.4965 356.187 99.5335 356.187 Q104.904 356.187 108.098 358.872 Q111.293 361.557 111.293 366.048 Q111.293 368.177 110.483 370.099 Q109.696 371.997 107.589 374.589 Q107.01 375.261 103.909 378.478 Q100.807 381.673 95.1586 387.436 Z" fill="#000000" fill-rule="nonzero" fill-opacity="1" /><path clip-path="url(#clip610)" d="M104.348 131.589 Q107.705 132.306 109.58 134.575 Q111.478 136.843 111.478 140.177 Q111.478 145.293 107.959 148.093 Q104.441 150.894 97.9595 150.894 Q95.7836 150.894 93.4688 150.455 Q91.1771 150.038 88.7234 149.181 L88.7234 144.668 Q90.6678 145.802 92.9826 146.38 Q95.2974 146.959 97.8206 146.959 Q102.219 146.959 104.51 145.223 Q106.825 143.487 106.825 140.177 Q106.825 137.121 104.672 135.408 Q102.543 133.672 98.7234 133.672 L94.6956 133.672 L94.6956 129.83 L98.9085 129.83 Q102.358 129.83 104.186 128.464 Q106.015 127.075 106.015 124.482 Q106.015 121.82 104.117 120.408 Q102.242 118.973 98.7234 118.973 Q96.8021 118.973 94.603 119.39 Q92.4039 119.807 89.7651 120.686 L89.7651 116.52 Q92.4271 115.779 94.7419 115.408 Q97.0798 115.038 99.14 115.038 Q104.464 115.038 107.566 117.469 Q110.668 119.876 110.668 123.996 Q110.668 126.867 109.024 128.857 Q107.381 130.825 104.348 131.589 Z" fill="#000000" fill-rule="nonzero" fill-opacity="1" /><polyline clip-path="url(#clip612)" style="stroke:#009af9; stroke-linecap:round; stroke-linejoin:round; stroke-width:4; stroke-opacity:1; fill:none" points="209.891,640.61 218.05,611.809 226.209,871.791 234.367,869.91 242.526,612.186 250.685,722.44 258.843,933.725 267.002,935.642 275.16,1120.87 283.319,1163.14 291.478,1058.44 299.636,1084.3 307.795,1042.88 315.954,1034.77 324.112,838.236 332.271,796.301 340.43,718.504 348.588,584.911 356.747,665.858 364.905,736.777 373.064,732.348 381.223,708.353 389.381,563.013 397.54,561.489 405.699,785.222 413.857,869.864 422.016,657.942 430.174,736.927 438.333,1308.01 446.492,1413.24 454.65,977.266 462.809,794.12 470.968,941.669 479.126,1169.47 487.285,1115.41 495.444,1026.17 503.602,1030.47 511.761,873.919 519.919,753.467 528.078,697.072 536.237,589.811 544.395,552.083 552.554,677.967 560.713,1165.32 568.871,1362.33 577.03,1249.64 585.188,1173.83 593.347,878.128 601.506,580.809 609.664,673.285 617.823,893.229 625.982,925.974 634.14,748.618 642.299,682.283 650.458,600.8 658.616,660.715 666.775,955.185 674.933,1018.32 683.092,949.72 691.251,851.535 699.409,957.519 707.568,985.329 715.727,939.768 723.885,918.794 732.044,727.532 740.202,644.199 748.361,777.164 756.52,853.838 764.678,835.971 772.837,744.155 780.996,741.813 789.154,836.374 797.313,1159.99 805.472,1081.21 813.63,902.707 821.789,752.107 829.947,766.375 838.106,787.259 846.265,690.861 854.423,736.475 862.582,963.656 870.741,965.724 878.899,594.077 887.058,611.845 895.216,736.875 903.375,614.152 911.534,619.164 919.692,774.416 927.851,978.073 936.01,1090.38 944.168,1086.91 952.327,1069.92 960.486,1087.88 968.644,979.109 976.803,748.154 984.961,753.836 993.12,1029.62 1001.28,926.304 1009.44,268.445 1017.6,87.9763 1025.75,332.45 1033.91,625.384 1042.07,1161.5 1050.23,1359.07 1058.39,1040.73 1066.55,925.755 1074.71,975.885 1082.86,1028.77 1091.02,960.538 1099.18,830.772 1107.34,937.577 1115.5,1041.72 1123.66,890.659 1131.82,724.429 1139.98,845.718 1148.13,952.959 1156.29,907.752 1164.45,1108.08 1172.61,1264.92 1180.77,1064.9 1188.93,985.488 1197.09,876.195 1205.24,676.113 1213.4,645.715 1221.56,808.066 1229.72,753.724 1237.88,561.223 1246.04,500.776 1254.2,627.355 1262.35,885.225 1270.51,1003.34 1278.67,1133.99 1286.83,1113.1 1294.99,1096.28 1303.15,1070.87 1311.31,889.549 1319.47,670.928 1327.62,536.822 1335.78,566.145 1343.94,879.492 1352.1,1038.41 1360.26,1200.58 1368.42,1380.45 1376.58,1257.76 1384.73,1077.36 1392.89,718.554 1401.05,564.829 1409.21,515.135 1417.37,594.422 1425.53,882.253 1433.69,963.952 1441.84,653.607 1450,340.479 1458.16,346.966 1466.32,469.127 1474.48,722.112 1482.64,972.718 1490.8,888.333 1498.96,704.058 1507.11,983.498 1515.27,1397.55 1523.43,1155.84 1531.59,887.031 1539.75,843.054 1547.91,784.361 1556.07,719.397 1564.22,834.279 1572.38,1103.61 1580.54,1445.72 1588.7,1393.54 1596.86,803.636 1605.02,292.571 1613.18,451.866 1621.33,872.665 1629.49,1041.58 1637.65,839.413 1645.81,689.277 1653.97,806.673 1662.13,722.624 1670.29,851.361 1678.45,1136.93 1686.6,1261.87 1694.76,1181.95 1702.92,722.316 1711.08,431.216 1719.24,500.451 1727.4,662.87 1735.56,921.676 1743.71,1139.71 1751.87,1129.51 1760.03,986.337 1768.19,762.418 1776.35,731.743 1784.51,751.223 1792.67,565.371 1800.82,395.771 1808.98,603.83 1817.14,1012.71 1825.3,1118.63 1833.46,911.707 1841.62,655.887 1849.78,617.672 1857.93,722.845 1866.09,866.279 1874.25,908.675 1882.41,660.68 1890.57,649.339 1898.73,743.457 1906.89,892.257 1915.05,1105.4 1923.2,1037.92 1931.36,922.018 1939.52,842.25 1947.68,869.974 1955.84,921.584 1964,986.424 1972.16,776.305 1980.31,545.55 1988.47,648.413 1996.63,794.957 2004.79,807.944 2012.95,935.215 2021.11,1220.98 2029.27,1348.2 2037.42,1313.44 2045.58,1140.57 2053.74,831.476 2061.9,400.435 2070.06,278.701 2078.22,857.179 2086.38,1372.56 2094.54,1291.97 2102.69,1096.44 2110.85,1159.75 2119.01,1090.09 2127.17,946.223 2135.33,668.51 2143.49,443.49 2151.65,494.627 2159.8,595.202 2167.96,464.083 2176.12,618.523 2184.28,766.269 2192.44,743.475 2200.6,791.314 2208.76,823.318 2216.91,590.195 2225.07,645.733 2233.23,984.178 2241.39,1070.15 2249.55,1169.34 2257.71,1024.01 2265.87,951.702 2274.03,1109.18 2282.18,1034.98 2290.34,815.236 "/>
<path clip-path="url(#clip610)" d="M220.987 198.898 L574.732 198.898 L574.732 95.2176 L220.987 95.2176  Z" fill="#ffffff" fill-rule="evenodd" fill-opacity="1"/>
<polyline clip-path="url(#clip610)" style="stroke:#000000; stroke-linecap:round; stroke-linejoin:round; stroke-width:4; stroke-opacity:1; fill:none" points="220.987,198.898 574.732,198.898 574.732,95.2176 220.987,95.2176 220.987,198.898 "/>
<polyline clip-path="url(#clip610)" style="stroke:#009af9; stroke-linecap:round; stroke-linejoin:round; stroke-width:4; stroke-opacity:1; fill:none" points="245.49,147.058 392.509,147.058 "/>
<path clip-path="url(#clip610)" d="M435.438 139.176 L435.438 143.203 Q433.632 142.277 431.688 141.815 Q429.743 141.352 427.66 141.352 Q424.489 141.352 422.891 142.324 Q421.317 143.296 421.317 145.24 Q421.317 146.722 422.452 147.578 Q423.586 148.412 427.012 149.176 L428.47 149.5 Q433.007 150.472 434.905 152.254 Q436.827 154.014 436.827 157.185 Q436.827 160.796 433.956 162.902 Q431.109 165.009 426.109 165.009 Q424.026 165.009 421.757 164.592 Q419.512 164.199 417.012 163.388 L417.012 158.99 Q419.373 160.217 421.665 160.842 Q423.956 161.444 426.202 161.444 Q429.211 161.444 430.831 160.426 Q432.452 159.384 432.452 157.509 Q432.452 155.773 431.271 154.847 Q430.114 153.921 426.155 153.064 L424.674 152.717 Q420.716 151.884 418.956 150.171 Q417.197 148.435 417.197 145.426 Q417.197 141.768 419.79 139.778 Q422.382 137.787 427.151 137.787 Q429.512 137.787 431.595 138.134 Q433.678 138.481 435.438 139.176 Z" fill="#000000" fill-rule="nonzero" fill-opacity="1" /><path clip-path="url(#clip610)" d="M443.609 138.412 L447.868 138.412 L447.868 164.338 L443.609 164.338 L443.609 138.412 M443.609 128.319 L447.868 128.319 L447.868 133.713 L443.609 133.713 L443.609 128.319 Z" fill="#000000" fill-rule="nonzero" fill-opacity="1" /><path clip-path="url(#clip610)" d="M473.84 151.074 Q473.84 146.444 471.919 143.898 Q470.021 141.352 466.572 141.352 Q463.146 141.352 461.225 143.898 Q459.326 146.444 459.326 151.074 Q459.326 155.68 461.225 158.226 Q463.146 160.773 466.572 160.773 Q470.021 160.773 471.919 158.226 Q473.84 155.68 473.84 151.074 M478.1 161.12 Q478.1 167.74 475.16 170.958 Q472.22 174.199 466.155 174.199 Q463.91 174.199 461.919 173.851 Q459.928 173.527 458.053 172.833 L458.053 168.689 Q459.928 169.708 461.757 170.194 Q463.586 170.68 465.484 170.68 Q469.674 170.68 471.757 168.481 Q473.84 166.305 473.84 161.884 L473.84 159.777 Q472.521 162.069 470.461 163.203 Q468.401 164.338 465.53 164.338 Q460.762 164.338 457.845 160.703 Q454.928 157.069 454.928 151.074 Q454.928 145.055 457.845 141.421 Q460.762 137.787 465.53 137.787 Q468.401 137.787 470.461 138.921 Q472.521 140.055 473.84 142.347 L473.84 138.412 L478.1 138.412 L478.1 161.12 Z" fill="#000000" fill-rule="nonzero" fill-opacity="1" /><path clip-path="url(#clip610)" d="M508.423 148.689 L508.423 164.338 L504.164 164.338 L504.164 148.828 Q504.164 145.148 502.729 143.319 Q501.294 141.49 498.423 141.49 Q494.974 141.49 492.984 143.69 Q490.993 145.889 490.993 149.685 L490.993 164.338 L486.711 164.338 L486.711 138.412 L490.993 138.412 L490.993 142.44 Q492.521 140.102 494.581 138.944 Q496.664 137.787 499.373 137.787 Q503.84 137.787 506.132 140.565 Q508.423 143.319 508.423 148.689 Z" fill="#000000" fill-rule="nonzero" fill-opacity="1" /><path clip-path="url(#clip610)" d="M528.701 151.305 Q523.539 151.305 521.548 152.486 Q519.558 153.666 519.558 156.514 Q519.558 158.782 521.039 160.125 Q522.544 161.444 525.113 161.444 Q528.655 161.444 530.784 158.944 Q532.937 156.421 532.937 152.254 L532.937 151.305 L528.701 151.305 M537.196 149.546 L537.196 164.338 L532.937 164.338 L532.937 160.402 Q531.479 162.763 529.303 163.898 Q527.127 165.009 523.979 165.009 Q519.997 165.009 517.636 162.787 Q515.298 160.541 515.298 156.791 Q515.298 152.416 518.215 150.194 Q521.155 147.972 526.965 147.972 L532.937 147.972 L532.937 147.555 Q532.937 144.615 530.993 143.018 Q529.071 141.398 525.576 141.398 Q523.354 141.398 521.247 141.93 Q519.141 142.463 517.197 143.527 L517.197 139.592 Q519.534 138.69 521.734 138.25 Q523.933 137.787 526.016 137.787 Q531.641 137.787 534.419 140.703 Q537.196 143.62 537.196 149.546 Z" fill="#000000" fill-rule="nonzero" fill-opacity="1" /><path clip-path="url(#clip610)" d="M545.97 128.319 L550.229 128.319 L550.229 164.338 L545.97 164.338 L545.97 128.319 Z" fill="#000000" fill-rule="nonzero" fill-opacity="1" /></svg>
