<?xml version="1.0" encoding="utf-8"?>
<svg xmlns="http://www.w3.org/2000/svg" xmlns:xlink="http://www.w3.org/1999/xlink" width="600" height="400" viewBox="0 0 2400 1600">
<defs>
  <clipPath id="clip040">
    <rect x="0" y="0" width="2400" height="1600"/>
  </clipPath>
</defs>
<path clip-path="url(#clip040)" d="M0 1600 L2400 1600 L2400 0 L0 0  Z" fill="#ffffff" fill-rule="evenodd" fill-opacity="1"/>
<defs>
  <clipPath id="clip041">
    <rect x="480" y="0" width="1681" height="1600"/>
  </clipPath>
</defs>
<path clip-path="url(#clip040)" d="M184.191 1423.18 L2352.76 1423.18 L2352.76 47.2441 L184.191 47.2441  Z" fill="#ffffff" fill-rule="evenodd" fill-opacity="1"/>
<defs>
  <clipPath id="clip042">
    <rect x="184" y="47" width="2170" height="1377"/>
  </clipPath>
</defs>
<polyline clip-path="url(#clip042)" style="stroke:#000000; stroke-linecap:round; stroke-linejoin:round; stroke-width:2; stroke-opacity:0.1; fill:none" points="184.191,1423.18 184.191,47.2441 "/>
<polyline clip-path="url(#clip042)" style="stroke:#000000; stroke-linecap:round; stroke-linejoin:round; stroke-width:2; stroke-opacity:0.1; fill:none" points="617.904,1423.18 617.904,47.2441 "/>
<polyline clip-path="url(#clip042)" style="stroke:#000000; stroke-linecap:round; stroke-linejoin:round; stroke-width:2; stroke-opacity:0.1; fill:none" points="1051.62,1423.18 1051.62,47.2441 "/>
<polyline clip-path="url(#clip042)" style="stroke:#000000; stroke-linecap:round; stroke-linejoin:round; stroke-width:2; stroke-opacity:0.1; fill:none" points="1485.33,1423.18 1485.33,47.2441 "/>
<polyline clip-path="url(#clip042)" style="stroke:#000000; stroke-linecap:round; stroke-linejoin:round; stroke-width:2; stroke-opacity:0.1; fill:none" points="1919.04,1423.18 1919.04,47.2441 "/>
<polyline clip-path="url(#clip042)" style="stroke:#000000; stroke-linecap:round; stroke-linejoin:round; stroke-width:2; stroke-opacity:0.1; fill:none" points="2352.76,1423.18 2352.76,47.2441 "/>
<polyline clip-path="url(#clip042)" style="stroke:#000000; stroke-linecap:round; stroke-linejoin:round; stroke-width:2; stroke-opacity:0.1; fill:none" points="184.191,1423.18 2352.76,1423.18 "/>
<polyline clip-path="url(#clip042)" style="stroke:#000000; stroke-linecap:round; stroke-linejoin:round; stroke-width:2; stroke-opacity:0.1; fill:none" points="184.191,1145.77 2352.76,1145.77 "/>
<polyline clip-path="url(#clip042)" style="stroke:#000000; stroke-linecap:round; stroke-linejoin:round; stroke-width:2; stroke-opacity:0.1; fill:none" points="184.191,868.367 2352.76,868.367 "/>
<polyline clip-path="url(#clip042)" style="stroke:#000000; stroke-linecap:round; stroke-linejoin:round; stroke-width:2; stroke-opacity:0.1; fill:none" points="184.191,590.961 2352.76,590.961 "/>
<polyline clip-path="url(#clip042)" style="stroke:#000000; stroke-linecap:round; stroke-linejoin:round; stroke-width:2; stroke-opacity:0.1; fill:none" points="184.191,313.554 2352.76,313.554 "/>
<polyline clip-path="url(#clip040)" style="stroke:#000000; stroke-linecap:round; stroke-linejoin:round; stroke-width:4; stroke-opacity:1; fill:none" points="184.191,1423.18 2352.76,1423.18 "/>
<polyline clip-path="url(#clip040)" style="stroke:#000000; stroke-linecap:round; stroke-linejoin:round; stroke-width:4; stroke-opacity:1; fill:none" points="184.191,1423.18 184.191,1404.28 "/>
<polyline clip-path="url(#clip040)" style="stroke:#000000; stroke-linecap:round; stroke-linejoin:round; stroke-width:4; stroke-opacity:1; fill:none" points="617.904,1423.18 617.904,1404.28 "/>
<polyline clip-path="url(#clip040)" style="stroke:#000000; stroke-linecap:round; stroke-linejoin:round; stroke-width:4; stroke-opacity:1; fill:none" points="1051.62,1423.18 1051.62,1404.28 "/>
<polyline clip-path="url(#clip040)" style="stroke:#000000; stroke-linecap:round; stroke-linejoin:round; stroke-width:4; stroke-opacity:1; fill:none" points="1485.33,1423.18 1485.33,1404.28 "/>
<polyline clip-path="url(#clip040)" style="stroke:#000000; stroke-linecap:round; stroke-linejoin:round; stroke-width:4; stroke-opacity:1; fill:none" points="1919.04,1423.18 1919.04,1404.28 "/>
<polyline clip-path="url(#clip040)" style="stroke:#000000; stroke-linecap:round; stroke-linejoin:round; stroke-width:4; stroke-opacity:1; fill:none" points="2352.76,1423.18 2352.76,1404.28 "/>
<path clip-path="url(#clip040)" d="M162.073 1454.1 Q158.462 1454.1 156.633 1457.66 Q154.827 1461.2 154.827 1468.33 Q154.827 1475.44 156.633 1479.01 Q158.462 1482.55 162.073 1482.55 Q165.707 1482.55 167.513 1479.01 Q169.341 1475.44 169.341 1468.33 Q169.341 1461.2 167.513 1457.66 Q165.707 1454.1 162.073 1454.1 M162.073 1450.39 Q167.883 1450.39 170.938 1455 Q174.017 1459.58 174.017 1468.33 Q174.017 1477.06 170.938 1481.67 Q167.883 1486.25 162.073 1486.25 Q156.263 1486.25 153.184 1481.67 Q150.128 1477.06 150.128 1468.33 Q150.128 1459.58 153.184 1455 Q156.263 1450.39 162.073 1450.39 Z" fill="#000000" fill-rule="nonzero" fill-opacity="1" /><path clip-path="url(#clip040)" d="M182.235 1479.7 L187.119 1479.7 L187.119 1485.58 L182.235 1485.58 L182.235 1479.7 Z" fill="#000000" fill-rule="nonzero" fill-opacity="1" /><path clip-path="url(#clip040)" d="M197.35 1451.02 L215.707 1451.02 L215.707 1454.96 L201.633 1454.96 L201.633 1463.43 Q202.651 1463.08 203.67 1462.92 Q204.688 1462.73 205.707 1462.73 Q211.494 1462.73 214.873 1465.9 Q218.253 1469.08 218.253 1474.49 Q218.253 1480.07 214.781 1483.17 Q211.309 1486.25 204.989 1486.25 Q202.813 1486.25 200.545 1485.88 Q198.299 1485.51 195.892 1484.77 L195.892 1480.07 Q197.975 1481.2 200.198 1481.76 Q202.42 1482.32 204.897 1482.32 Q208.901 1482.32 211.239 1480.21 Q213.577 1478.1 213.577 1474.49 Q213.577 1470.88 211.239 1468.77 Q208.901 1466.67 204.897 1466.67 Q203.022 1466.67 201.147 1467.08 Q199.295 1467.5 197.35 1468.38 L197.35 1451.02 Z" fill="#000000" fill-rule="nonzero" fill-opacity="1" /><path clip-path="url(#clip040)" d="M595.207 1454.1 Q591.596 1454.1 589.767 1457.66 Q587.962 1461.2 587.962 1468.33 Q587.962 1475.44 589.767 1479.01 Q591.596 1482.55 595.207 1482.55 Q598.841 1482.55 600.647 1479.01 Q602.476 1475.44 602.476 1468.33 Q602.476 1461.2 600.647 1457.66 Q598.841 1454.1 595.207 1454.1 M595.207 1450.39 Q601.017 1450.39 604.073 1455 Q607.151 1459.58 607.151 1468.33 Q607.151 1477.06 604.073 1481.67 Q601.017 1486.25 595.207 1486.25 Q589.397 1486.25 586.318 1481.67 Q583.263 1477.06 583.263 1468.33 Q583.263 1459.58 586.318 1455 Q589.397 1450.39 595.207 1450.39 Z" fill="#000000" fill-rule="nonzero" fill-opacity="1" /><path clip-path="url(#clip040)" d="M615.369 1479.7 L620.253 1479.7 L620.253 1485.58 L615.369 1485.58 L615.369 1479.7 Z" fill="#000000" fill-rule="nonzero" fill-opacity="1" /><path clip-path="url(#clip040)" d="M641.017 1466.44 Q637.869 1466.44 636.017 1468.59 Q634.188 1470.74 634.188 1474.49 Q634.188 1478.22 636.017 1480.39 Q637.869 1482.55 641.017 1482.55 Q644.165 1482.55 645.994 1480.39 Q647.846 1478.22 647.846 1474.49 Q647.846 1470.74 645.994 1468.59 Q644.165 1466.44 641.017 1466.44 M650.299 1451.78 L650.299 1456.04 Q648.54 1455.21 646.735 1454.77 Q644.952 1454.33 643.193 1454.33 Q638.563 1454.33 636.11 1457.45 Q633.679 1460.58 633.332 1466.9 Q634.698 1464.89 636.758 1463.82 Q638.818 1462.73 641.295 1462.73 Q646.503 1462.73 649.512 1465.9 Q652.545 1469.05 652.545 1474.49 Q652.545 1479.82 649.397 1483.03 Q646.248 1486.25 641.017 1486.25 Q635.022 1486.25 631.85 1481.67 Q628.679 1477.06 628.679 1468.33 Q628.679 1460.14 632.568 1455.28 Q636.457 1450.39 643.008 1450.39 Q644.767 1450.39 646.549 1450.74 Q648.355 1451.09 650.299 1451.78 Z" fill="#000000" fill-rule="nonzero" fill-opacity="1" /><path clip-path="url(#clip040)" d="M1029.45 1454.1 Q1025.84 1454.1 1024.01 1457.66 Q1022.21 1461.2 1022.21 1468.33 Q1022.21 1475.44 1024.01 1479.01 Q1025.84 1482.55 1029.45 1482.55 Q1033.09 1482.55 1034.89 1479.01 Q1036.72 1475.44 1036.72 1468.33 Q1036.72 1461.2 1034.89 1457.66 Q1033.09 1454.1 1029.45 1454.1 M1029.45 1450.39 Q1035.26 1450.39 1038.32 1455 Q1041.4 1459.58 1041.4 1468.33 Q1041.4 1477.06 1038.32 1481.67 Q1035.26 1486.25 1029.45 1486.25 Q1023.64 1486.25 1020.56 1481.67 Q1017.51 1477.06 1017.51 1468.33 Q1017.51 1459.58 1020.56 1455 Q1023.64 1450.39 1029.45 1450.39 Z" fill="#000000" fill-rule="nonzero" fill-opacity="1" /><path clip-path="url(#clip040)" d="M1049.61 1479.7 L1054.5 1479.7 L1054.5 1485.58 L1049.61 1485.58 L1049.61 1479.7 Z" fill="#000000" fill-rule="nonzero" fill-opacity="1" /><path clip-path="url(#clip040)" d="M1063.5 1451.02 L1085.73 1451.02 L1085.73 1453.01 L1073.18 1485.58 L1068.29 1485.58 L1080.1 1454.96 L1063.5 1454.96 L1063.5 1451.02 Z" fill="#000000" fill-rule="nonzero" fill-opacity="1" /><path clip-path="url(#clip040)" d="M1462.76 1454.1 Q1459.15 1454.1 1457.32 1457.66 Q1455.52 1461.2 1455.52 1468.33 Q1455.52 1475.44 1457.32 1479.01 Q1459.15 1482.55 1462.76 1482.55 Q1466.39 1482.55 1468.2 1479.01 Q1470.03 1475.44 1470.03 1468.33 Q1470.03 1461.2 1468.2 1457.66 Q1466.39 1454.1 1462.76 1454.1 M1462.76 1450.39 Q1468.57 1450.39 1471.63 1455 Q1474.7 1459.58 1474.7 1468.33 Q1474.7 1477.06 1471.63 1481.67 Q1468.57 1486.25 1462.76 1486.25 Q1456.95 1486.25 1453.87 1481.67 Q1450.82 1477.06 1450.82 1468.33 Q1450.82 1459.58 1453.87 1455 Q1456.95 1450.39 1462.76 1450.39 Z" fill="#000000" fill-rule="nonzero" fill-opacity="1" /><path clip-path="url(#clip040)" d="M1482.92 1479.7 L1487.81 1479.7 L1487.81 1485.58 L1482.92 1485.58 L1482.92 1479.7 Z" fill="#000000" fill-rule="nonzero" fill-opacity="1" /><path clip-path="url(#clip040)" d="M1507.99 1469.17 Q1504.66 1469.17 1502.74 1470.95 Q1500.84 1472.73 1500.84 1475.86 Q1500.84 1478.98 1502.74 1480.77 Q1504.66 1482.55 1507.99 1482.55 Q1511.33 1482.55 1513.25 1480.77 Q1515.17 1478.96 1515.17 1475.86 Q1515.17 1472.73 1513.25 1470.95 Q1511.35 1469.17 1507.99 1469.17 M1503.32 1467.18 Q1500.31 1466.44 1498.62 1464.38 Q1496.95 1462.32 1496.95 1459.35 Q1496.95 1455.21 1499.89 1452.8 Q1502.85 1450.39 1507.99 1450.39 Q1513.15 1450.39 1516.09 1452.8 Q1519.03 1455.21 1519.03 1459.35 Q1519.03 1462.32 1517.34 1464.38 Q1515.68 1466.44 1512.69 1467.18 Q1516.07 1467.96 1517.95 1470.26 Q1519.84 1472.55 1519.84 1475.86 Q1519.84 1480.88 1516.76 1483.57 Q1513.71 1486.25 1507.99 1486.25 Q1502.27 1486.25 1499.2 1483.57 Q1496.14 1480.88 1496.14 1475.86 Q1496.14 1472.55 1498.04 1470.26 Q1499.94 1467.96 1503.32 1467.18 M1501.6 1459.79 Q1501.6 1462.48 1503.27 1463.98 Q1504.96 1465.49 1507.99 1465.49 Q1511 1465.49 1512.69 1463.98 Q1514.4 1462.48 1514.4 1459.79 Q1514.4 1457.11 1512.69 1455.6 Q1511 1454.1 1507.99 1454.1 Q1504.96 1454.1 1503.27 1455.6 Q1501.6 1457.11 1501.6 1459.79 Z" fill="#000000" fill-rule="nonzero" fill-opacity="1" /><path clip-path="url(#clip040)" d="M1896.52 1454.1 Q1892.91 1454.1 1891.08 1457.66 Q1889.27 1461.2 1889.27 1468.33 Q1889.27 1475.44 1891.08 1479.01 Q1892.91 1482.55 1896.52 1482.55 Q1900.15 1482.55 1901.96 1479.01 Q1903.79 1475.44 1903.79 1468.33 Q1903.79 1461.2 1901.96 1457.66 Q1900.15 1454.1 1896.52 1454.1 M1896.52 1450.39 Q1902.33 1450.39 1905.39 1455 Q1908.46 1459.58 1908.46 1468.33 Q1908.46 1477.06 1905.39 1481.67 Q1902.33 1486.25 1896.52 1486.25 Q1890.71 1486.25 1887.63 1481.67 Q1884.58 1477.06 1884.58 1468.33 Q1884.58 1459.58 1887.63 1455 Q1890.71 1450.39 1896.52 1450.39 Z" fill="#000000" fill-rule="nonzero" fill-opacity="1" /><path clip-path="url(#clip040)" d="M1916.68 1479.7 L1921.57 1479.7 L1921.57 1485.58 L1916.68 1485.58 L1916.68 1479.7 Z" fill="#000000" fill-rule="nonzero" fill-opacity="1" /><path clip-path="url(#clip040)" d="M1931.89 1484.86 L1931.89 1480.6 Q1933.65 1481.44 1935.45 1481.88 Q1937.26 1482.32 1939 1482.32 Q1943.63 1482.32 1946.06 1479.21 Q1948.51 1476.09 1948.86 1469.75 Q1947.51 1471.74 1945.45 1472.8 Q1943.39 1473.87 1940.89 1473.87 Q1935.71 1473.87 1932.68 1470.74 Q1929.67 1467.59 1929.67 1462.15 Q1929.67 1456.83 1932.82 1453.61 Q1935.96 1450.39 1941.2 1450.39 Q1947.19 1450.39 1950.34 1455 Q1953.51 1459.58 1953.51 1468.33 Q1953.51 1476.51 1949.62 1481.39 Q1945.76 1486.25 1939.2 1486.25 Q1937.45 1486.25 1935.64 1485.9 Q1933.83 1485.56 1931.89 1484.86 M1941.2 1470.21 Q1944.34 1470.21 1946.17 1468.06 Q1948.02 1465.9 1948.02 1462.15 Q1948.02 1458.43 1946.17 1456.27 Q1944.34 1454.1 1941.2 1454.1 Q1938.05 1454.1 1936.2 1456.27 Q1934.37 1458.43 1934.37 1462.15 Q1934.37 1465.9 1936.2 1468.06 Q1938.05 1470.21 1941.2 1470.21 Z" fill="#000000" fill-rule="nonzero" fill-opacity="1" /><path clip-path="url(#clip040)" d="M2319.91 1481.64 L2327.55 1481.64 L2327.55 1455.28 L2319.24 1456.95 L2319.24 1452.69 L2327.5 1451.02 L2332.18 1451.02 L2332.18 1481.64 L2339.82 1481.64 L2339.82 1485.58 L2319.91 1485.58 L2319.91 1481.64 Z" fill="#000000" fill-rule="nonzero" fill-opacity="1" /><path clip-path="url(#clip040)" d="M2349.26 1479.7 L2354.14 1479.7 L2354.14 1485.58 L2349.26 1485.58 L2349.26 1479.7 Z" fill="#000000" fill-rule="nonzero" fill-opacity="1" /><path clip-path="url(#clip040)" d="M2374.33 1454.1 Q2370.72 1454.1 2368.89 1457.66 Q2367.08 1461.2 2367.08 1468.33 Q2367.08 1475.44 2368.89 1479.01 Q2370.72 1482.55 2374.33 1482.55 Q2377.96 1482.55 2379.77 1479.01 Q2381.6 1475.44 2381.6 1468.33 Q2381.6 1461.2 2379.77 1457.66 Q2377.96 1454.1 2374.33 1454.1 M2374.33 1450.39 Q2380.14 1450.39 2383.2 1455 Q2386.27 1459.58 2386.27 1468.33 Q2386.27 1477.06 2383.2 1481.67 Q2380.14 1486.25 2374.33 1486.25 Q2368.52 1486.25 2365.44 1481.67 Q2362.39 1477.06 2362.39 1468.33 Q2362.39 1459.58 2365.44 1455 Q2368.52 1450.39 2374.33 1450.39 Z" fill="#000000" fill-rule="nonzero" fill-opacity="1" /><path clip-path="url(#clip040)" d="M1258.42 1562.7 L1258.42 1581.6 L1252.53 1581.6 L1252.53 1532.4 L1258.42 1532.4 L1258.42 1537.81 Q1260.26 1534.62 1263.06 1533.1 Q1265.9 1531.54 1269.81 1531.54 Q1276.3 1531.54 1280.35 1536.69 Q1284.42 1541.85 1284.42 1550.25 Q1284.42 1558.65 1280.35 1563.81 Q1276.3 1568.97 1269.81 1568.97 Q1265.9 1568.97 1263.06 1567.44 Q1260.26 1565.88 1258.42 1562.7 M1278.34 1550.25 Q1278.34 1543.79 1275.67 1540.13 Q1273.02 1536.44 1268.38 1536.44 Q1263.73 1536.44 1261.06 1540.13 Q1258.42 1543.79 1258.42 1550.25 Q1258.42 1556.71 1261.06 1560.4 Q1263.73 1564.07 1268.38 1564.07 Q1273.02 1564.07 1275.67 1560.4 Q1278.34 1556.71 1278.34 1550.25 Z" fill="#000000" fill-rule="nonzero" fill-opacity="1" /><polyline clip-path="url(#clip040)" style="stroke:#000000; stroke-linecap:round; stroke-linejoin:round; stroke-width:4; stroke-opacity:1; fill:none" points="184.191,1423.18 184.191,47.2441 "/>
<polyline clip-path="url(#clip040)" style="stroke:#000000; stroke-linecap:round; stroke-linejoin:round; stroke-width:4; stroke-opacity:1; fill:none" points="184.191,1423.18 203.088,1423.18 "/>
<polyline clip-path="url(#clip040)" style="stroke:#000000; stroke-linecap:round; stroke-linejoin:round; stroke-width:4; stroke-opacity:1; fill:none" points="184.191,1145.77 203.088,1145.77 "/>
<polyline clip-path="url(#clip040)" style="stroke:#000000; stroke-linecap:round; stroke-linejoin:round; stroke-width:4; stroke-opacity:1; fill:none" points="184.191,868.367 203.088,868.367 "/>
<polyline clip-path="url(#clip040)" style="stroke:#000000; stroke-linecap:round; stroke-linejoin:round; stroke-width:4; stroke-opacity:1; fill:none" points="184.191,590.961 203.088,590.961 "/>
<polyline clip-path="url(#clip040)" style="stroke:#000000; stroke-linecap:round; stroke-linejoin:round; stroke-width:4; stroke-opacity:1; fill:none" points="184.191,313.554 203.088,313.554 "/>
<path clip-path="url(#clip040)" d="M91.0151 1408.98 Q87.404 1408.98 85.5753 1412.54 Q83.7697 1416.08 83.7697 1423.21 Q83.7697 1430.32 85.5753 1433.89 Q87.404 1437.43 91.0151 1437.43 Q94.6493 1437.43 96.4548 1433.89 Q98.2835 1430.32 98.2835 1423.21 Q98.2835 1416.08 96.4548 1412.54 Q94.6493 1408.98 91.0151 1408.98 M91.0151 1405.27 Q96.8252 1405.27 99.8808 1409.88 Q102.959 1414.46 102.959 1423.21 Q102.959 1431.94 99.8808 1436.55 Q96.8252 1441.13 91.0151 1441.13 Q85.2049 1441.13 82.1262 1436.55 Q79.0707 1431.94 79.0707 1423.21 Q79.0707 1414.46 82.1262 1409.88 Q85.2049 1405.27 91.0151 1405.27 Z" fill="#000000" fill-rule="nonzero" fill-opacity="1" /><path clip-path="url(#clip040)" d="M111.177 1434.58 L116.061 1434.58 L116.061 1440.46 L111.177 1440.46 L111.177 1434.58 Z" fill="#000000" fill-rule="nonzero" fill-opacity="1" /><path clip-path="url(#clip040)" d="M136.246 1408.98 Q132.635 1408.98 130.807 1412.54 Q129.001 1416.08 129.001 1423.21 Q129.001 1430.32 130.807 1433.89 Q132.635 1437.43 136.246 1437.43 Q139.881 1437.43 141.686 1433.89 Q143.515 1430.32 143.515 1423.21 Q143.515 1416.08 141.686 1412.54 Q139.881 1408.98 136.246 1408.98 M136.246 1405.27 Q142.056 1405.27 145.112 1409.88 Q148.191 1414.46 148.191 1423.21 Q148.191 1431.94 145.112 1436.55 Q142.056 1441.13 136.246 1441.13 Q130.436 1441.13 127.357 1436.55 Q124.302 1431.94 124.302 1423.21 Q124.302 1414.46 127.357 1409.88 Q130.436 1405.27 136.246 1405.27 Z" fill="#000000" fill-rule="nonzero" fill-opacity="1" /><path clip-path="url(#clip040)" d="M86.0382 1159.12 L102.358 1159.12 L102.358 1163.05 L80.4133 1163.05 L80.4133 1159.12 Q83.0753 1156.36 87.6586 1151.73 Q92.2651 1147.08 93.4456 1145.74 Q95.691 1143.22 96.5706 1141.48 Q97.4734 1139.72 97.4734 1138.03 Q97.4734 1135.28 95.5289 1133.54 Q93.6076 1131.8 90.5058 1131.8 Q88.3067 1131.8 85.8531 1132.57 Q83.4225 1133.33 80.6447 1134.88 L80.6447 1130.16 Q83.4688 1129.03 85.9225 1128.45 Q88.3762 1127.87 90.4132 1127.87 Q95.7836 1127.87 98.978 1130.55 Q102.172 1133.24 102.172 1137.73 Q102.172 1139.86 101.362 1141.78 Q100.575 1143.68 98.4687 1146.27 Q97.89 1146.94 94.7882 1150.16 Q91.6864 1153.35 86.0382 1159.12 Z" fill="#000000" fill-rule="nonzero" fill-opacity="1" /><path clip-path="url(#clip040)" d="M112.172 1157.17 L117.057 1157.17 L117.057 1163.05 L112.172 1163.05 L112.172 1157.17 Z" fill="#000000" fill-rule="nonzero" fill-opacity="1" /><path clip-path="url(#clip040)" d="M127.288 1128.49 L145.644 1128.49 L145.644 1132.43 L131.57 1132.43 L131.57 1140.9 Q132.589 1140.55 133.607 1140.39 Q134.626 1140.21 135.644 1140.21 Q141.431 1140.21 144.811 1143.38 Q148.191 1146.55 148.191 1151.97 Q148.191 1157.54 144.718 1160.65 Q141.246 1163.72 134.927 1163.72 Q132.751 1163.72 130.482 1163.35 Q128.237 1162.98 125.83 1162.24 L125.83 1157.54 Q127.913 1158.68 130.135 1159.23 Q132.357 1159.79 134.834 1159.79 Q138.839 1159.79 141.177 1157.68 Q143.515 1155.58 143.515 1151.97 Q143.515 1148.35 141.177 1146.25 Q138.839 1144.14 134.834 1144.14 Q132.959 1144.14 131.084 1144.56 Q129.232 1144.97 127.288 1145.85 L127.288 1128.49 Z" fill="#000000" fill-rule="nonzero" fill-opacity="1" /><path clip-path="url(#clip040)" d="M81.0614 851.087 L99.4178 851.087 L99.4178 855.022 L85.3438 855.022 L85.3438 863.494 Q86.3623 863.147 87.3808 862.985 Q88.3993 862.8 89.4178 862.8 Q95.2049 862.8 98.5845 865.971 Q101.964 869.142 101.964 874.559 Q101.964 880.138 98.4919 883.24 Q95.0197 886.318 88.7003 886.318 Q86.5243 886.318 84.2558 885.948 Q82.0105 885.578 79.6031 884.837 L79.6031 880.138 Q81.6864 881.272 83.9086 881.828 Q86.1308 882.383 88.6077 882.383 Q92.6123 882.383 94.9502 880.277 Q97.2882 878.17 97.2882 874.559 Q97.2882 870.948 94.9502 868.842 Q92.6123 866.735 88.6077 866.735 Q86.7327 866.735 84.8577 867.152 Q83.0058 867.568 81.0614 868.448 L81.0614 851.087 Z" fill="#000000" fill-rule="nonzero" fill-opacity="1" /><path clip-path="url(#clip040)" d="M111.177 879.767 L116.061 879.767 L116.061 885.647 L111.177 885.647 L111.177 879.767 Z" fill="#000000" fill-rule="nonzero" fill-opacity="1" /><path clip-path="url(#clip040)" d="M136.246 854.166 Q132.635 854.166 130.807 857.731 Q129.001 861.272 129.001 868.402 Q129.001 875.508 130.807 879.073 Q132.635 882.615 136.246 882.615 Q139.881 882.615 141.686 879.073 Q143.515 875.508 143.515 868.402 Q143.515 861.272 141.686 857.731 Q139.881 854.166 136.246 854.166 M136.246 850.462 Q142.056 850.462 145.112 855.069 Q148.191 859.652 148.191 868.402 Q148.191 877.129 145.112 881.735 Q142.056 886.318 136.246 886.318 Q130.436 886.318 127.357 881.735 Q124.302 877.129 124.302 868.402 Q124.302 859.652 127.357 855.069 Q130.436 850.462 136.246 850.462 Z" fill="#000000" fill-rule="nonzero" fill-opacity="1" /><path clip-path="url(#clip040)" d="M80.8299 573.681 L103.052 573.681 L103.052 575.671 L90.5058 608.241 L85.6216 608.241 L97.4271 577.616 L80.8299 577.616 L80.8299 573.681 Z" fill="#000000" fill-rule="nonzero" fill-opacity="1" /><path clip-path="url(#clip040)" d="M112.172 602.361 L117.057 602.361 L117.057 608.241 L112.172 608.241 L112.172 602.361 Z" fill="#000000" fill-rule="nonzero" fill-opacity="1" /><path clip-path="url(#clip040)" d="M127.288 573.681 L145.644 573.681 L145.644 577.616 L131.57 577.616 L131.57 586.088 Q132.589 585.741 133.607 585.579 Q134.626 585.394 135.644 585.394 Q141.431 585.394 144.811 588.565 Q148.191 591.736 148.191 597.153 Q148.191 602.731 144.718 605.833 Q141.246 608.912 134.927 608.912 Q132.751 608.912 130.482 608.542 Q128.237 608.171 125.83 607.43 L125.83 602.731 Q127.913 603.866 130.135 604.421 Q132.357 604.977 134.834 604.977 Q138.839 604.977 141.177 602.87 Q143.515 600.764 143.515 597.153 Q143.515 593.542 141.177 591.435 Q138.839 589.329 134.834 589.329 Q132.959 589.329 131.084 589.745 Q129.232 590.162 127.288 591.042 L127.288 573.681 Z" fill="#000000" fill-rule="nonzero" fill-opacity="1" /><path clip-path="url(#clip040)" d="M51.6634 326.899 L59.3023 326.899 L59.3023 300.533 L50.9921 302.2 L50.9921 297.941 L59.256 296.274 L63.9319 296.274 L63.9319 326.899 L71.5707 326.899 L71.5707 330.834 L51.6634 330.834 L51.6634 326.899 Z" fill="#000000" fill-rule="nonzero" fill-opacity="1" /><path clip-path="url(#clip040)" d="M91.0151 299.353 Q87.404 299.353 85.5753 302.918 Q83.7697 306.459 83.7697 313.589 Q83.7697 320.695 85.5753 324.26 Q87.404 327.802 91.0151 327.802 Q94.6493 327.802 96.4548 324.26 Q98.2835 320.695 98.2835 313.589 Q98.2835 306.459 96.4548 302.918 Q94.6493 299.353 91.0151 299.353 M91.0151 295.649 Q96.8252 295.649 99.8808 300.256 Q102.959 304.839 102.959 313.589 Q102.959 322.316 99.8808 326.922 Q96.8252 331.506 91.0151 331.506 Q85.2049 331.506 82.1262 326.922 Q79.0707 322.316 79.0707 313.589 Q79.0707 304.839 82.1262 300.256 Q85.2049 295.649 91.0151 295.649 Z" fill="#000000" fill-rule="nonzero" fill-opacity="1" /><path clip-path="url(#clip040)" d="M111.177 324.955 L116.061 324.955 L116.061 330.834 L111.177 330.834 L111.177 324.955 Z" fill="#000000" fill-rule="nonzero" fill-opacity="1" /><path clip-path="url(#clip040)" d="M136.246 299.353 Q132.635 299.353 130.807 302.918 Q129.001 306.459 129.001 313.589 Q129.001 320.695 130.807 324.26 Q132.635 327.802 136.246 327.802 Q139.881 327.802 141.686 324.26 Q143.515 320.695 143.515 313.589 Q143.515 306.459 141.686 302.918 Q139.881 299.353 136.246 299.353 M136.246 295.649 Q142.056 295.649 145.112 300.256 Q148.191 304.839 148.191 313.589 Q148.191 322.316 145.112 326.922 Q142.056 331.506 136.246 331.506 Q130.436 331.506 127.357 326.922 Q124.302 322.316 124.302 313.589 Q124.302 304.839 127.357 300.256 Q130.436 295.649 136.246 295.649 Z" fill="#000000" fill-rule="nonzero" fill-opacity="1" /><path clip-path="url(#clip042)" d="M813.075 1412.08 L813.075 1423.18 L834.76 1423.18 L834.76 1412.08 L813.075 1412.08 L813.075 1412.08  Z" fill="#009af9" fill-rule="evenodd" fill-opacity="1"/>
<polyline clip-path="url(#clip042)" style="stroke:#000000; stroke-linecap:round; stroke-linejoin:round; stroke-width:4; stroke-opacity:1; fill:none" points="813.075,1412.08 813.075,1423.18 834.76,1423.18 834.76,1412.08 813.075,1412.08 "/>
<path clip-path="url(#clip042)" d="M834.76 1417.63 L834.76 1423.18 L856.446 1423.18 L856.446 1417.63 L834.76 1417.63 L834.76 1417.63  Z" fill="#009af9" fill-rule="evenodd" fill-opacity="1"/>
<polyline clip-path="url(#clip042)" style="stroke:#000000; stroke-linecap:round; stroke-linejoin:round; stroke-width:4; stroke-opacity:1; fill:none" points="834.76,1417.63 834.76,1423.18 856.446,1423.18 856.446,1417.63 834.76,1417.63 "/>
<path clip-path="url(#clip042)" d="M856.446 1423.18 L856.446 1423.18 L878.132 1423.18 L878.132 1423.18 L856.446 1423.18 L856.446 1423.18  Z" fill="#009af9" fill-rule="evenodd" fill-opacity="1"/>
<polyline clip-path="url(#clip042)" style="stroke:#000000; stroke-linecap:round; stroke-linejoin:round; stroke-width:4; stroke-opacity:1; fill:none" points="856.446,1423.18 856.446,1423.18 878.132,1423.18 856.446,1423.18 "/>
<path clip-path="url(#clip042)" d="M878.132 1417.63 L878.132 1423.18 L899.817 1423.18 L899.817 1417.63 L878.132 1417.63 L878.132 1417.63  Z" fill="#009af9" fill-rule="evenodd" fill-opacity="1"/>
<polyline clip-path="url(#clip042)" style="stroke:#000000; stroke-linecap:round; stroke-linejoin:round; stroke-width:4; stroke-opacity:1; fill:none" points="878.132,1417.63 878.132,1423.18 899.817,1423.18 899.817,1417.63 878.132,1417.63 "/>
<path clip-path="url(#clip042)" d="M899.817 1406.54 L899.817 1423.18 L921.503 1423.18 L921.503 1406.54 L899.817 1406.54 L899.817 1406.54  Z" fill="#009af9" fill-rule="evenodd" fill-opacity="1"/>
<polyline clip-path="url(#clip042)" style="stroke:#000000; stroke-linecap:round; stroke-linejoin:round; stroke-width:4; stroke-opacity:1; fill:none" points="899.817,1406.54 899.817,1423.18 921.503,1423.18 921.503,1406.54 899.817,1406.54 "/>
<path clip-path="url(#clip042)" d="M921.503 1384.34 L921.503 1423.18 L943.189 1423.18 L943.189 1384.34 L921.503 1384.34 L921.503 1384.34  Z" fill="#009af9" fill-rule="evenodd" fill-opacity="1"/>
<polyline clip-path="url(#clip042)" style="stroke:#000000; stroke-linecap:round; stroke-linejoin:round; stroke-width:4; stroke-opacity:1; fill:none" points="921.503,1384.34 921.503,1423.18 943.189,1423.18 943.189,1384.34 921.503,1384.34 "/>
<path clip-path="url(#clip042)" d="M943.189 1378.79 L943.189 1423.18 L964.874 1423.18 L964.874 1378.79 L943.189 1378.79 L943.189 1378.79  Z" fill="#009af9" fill-rule="evenodd" fill-opacity="1"/>
<polyline clip-path="url(#clip042)" style="stroke:#000000; stroke-linecap:round; stroke-linejoin:round; stroke-width:4; stroke-opacity:1; fill:none" points="943.189,1378.79 943.189,1423.18 964.874,1423.18 964.874,1378.79 943.189,1378.79 "/>
<path clip-path="url(#clip042)" d="M964.874 1334.41 L964.874 1423.18 L986.56 1423.18 L986.56 1334.41 L964.874 1334.41 L964.874 1334.41  Z" fill="#009af9" fill-rule="evenodd" fill-opacity="1"/>
<polyline clip-path="url(#clip042)" style="stroke:#000000; stroke-linecap:round; stroke-linejoin:round; stroke-width:4; stroke-opacity:1; fill:none" points="964.874,1334.41 964.874,1423.18 986.56,1423.18 986.56,1334.41 964.874,1334.41 "/>
<path clip-path="url(#clip042)" d="M986.56 1367.7 L986.56 1423.18 L1008.25 1423.18 L1008.25 1367.7 L986.56 1367.7 L986.56 1367.7  Z" fill="#009af9" fill-rule="evenodd" fill-opacity="1"/>
<polyline clip-path="url(#clip042)" style="stroke:#000000; stroke-linecap:round; stroke-linejoin:round; stroke-width:4; stroke-opacity:1; fill:none" points="986.56,1367.7 986.56,1423.18 1008.25,1423.18 1008.25,1367.7 986.56,1367.7 "/>
<path clip-path="url(#clip042)" d="M1008.25 1362.15 L1008.25 1423.18 L1029.93 1423.18 L1029.93 1362.15 L1008.25 1362.15 L1008.25 1362.15  Z" fill="#009af9" fill-rule="evenodd" fill-opacity="1"/>
<polyline clip-path="url(#clip042)" style="stroke:#000000; stroke-linecap:round; stroke-linejoin:round; stroke-width:4; stroke-opacity:1; fill:none" points="1008.25,1362.15 1008.25,1423.18 1029.93,1423.18 1029.93,1362.15 1008.25,1362.15 "/>
<path clip-path="url(#clip042)" d="M1029.93 1400.99 L1029.93 1423.18 L1051.62 1423.18 L1051.62 1400.99 L1029.93 1400.99 L1029.93 1400.99  Z" fill="#009af9" fill-rule="evenodd" fill-opacity="1"/>
<polyline clip-path="url(#clip042)" style="stroke:#000000; stroke-linecap:round; stroke-linejoin:round; stroke-width:4; stroke-opacity:1; fill:none" points="1029.93,1400.99 1029.93,1423.18 1051.62,1423.18 1051.62,1400.99 1029.93,1400.99 "/>
<path clip-path="url(#clip042)" d="M1051.62 1367.7 L1051.62 1423.18 L1073.3 1423.18 L1073.3 1367.7 L1051.62 1367.7 L1051.62 1367.7  Z" fill="#009af9" fill-rule="evenodd" fill-opacity="1"/>
<polyline clip-path="url(#clip042)" style="stroke:#000000; stroke-linecap:round; stroke-linejoin:round; stroke-width:4; stroke-opacity:1; fill:none" points="1051.62,1367.7 1051.62,1423.18 1073.3,1423.18 1073.3,1367.7 1051.62,1367.7 "/>
<path clip-path="url(#clip042)" d="M1073.3 1362.15 L1073.3 1423.18 L1094.99 1423.18 L1094.99 1362.15 L1073.3 1362.15 L1073.3 1362.15  Z" fill="#009af9" fill-rule="evenodd" fill-opacity="1"/>
<polyline clip-path="url(#clip042)" style="stroke:#000000; stroke-linecap:round; stroke-linejoin:round; stroke-width:4; stroke-opacity:1; fill:none" points="1073.3,1362.15 1073.3,1423.18 1094.99,1423.18 1094.99,1362.15 1073.3,1362.15 "/>
<path clip-path="url(#clip042)" d="M1094.99 1312.22 L1094.99 1423.18 L1116.67 1423.18 L1116.67 1312.22 L1094.99 1312.22 L1094.99 1312.22  Z" fill="#009af9" fill-rule="evenodd" fill-opacity="1"/>
<polyline clip-path="url(#clip042)" style="stroke:#000000; stroke-linecap:round; stroke-linejoin:round; stroke-width:4; stroke-opacity:1; fill:none" points="1094.99,1312.22 1094.99,1423.18 1116.67,1423.18 1116.67,1312.22 1094.99,1312.22 "/>
<path clip-path="url(#clip042)" d="M1116.67 1306.67 L1116.67 1423.18 L1138.36 1423.18 L1138.36 1306.67 L1116.67 1306.67 L1116.67 1306.67  Z" fill="#009af9" fill-rule="evenodd" fill-opacity="1"/>
<polyline clip-path="url(#clip042)" style="stroke:#000000; stroke-linecap:round; stroke-linejoin:round; stroke-width:4; stroke-opacity:1; fill:none" points="1116.67,1306.67 1116.67,1423.18 1138.36,1423.18 1138.36,1306.67 1116.67,1306.67 "/>
<path clip-path="url(#clip042)" d="M1138.36 1278.93 L1138.36 1423.18 L1160.05 1423.18 L1160.05 1278.93 L1138.36 1278.93 L1138.36 1278.93  Z" fill="#009af9" fill-rule="evenodd" fill-opacity="1"/>
<polyline clip-path="url(#clip042)" style="stroke:#000000; stroke-linecap:round; stroke-linejoin:round; stroke-width:4; stroke-opacity:1; fill:none" points="1138.36,1278.93 1138.36,1423.18 1160.05,1423.18 1160.05,1278.93 1138.36,1278.93 "/>
<path clip-path="url(#clip042)" d="M1160.05 1051.46 L1160.05 1423.18 L1181.73 1423.18 L1181.73 1051.46 L1160.05 1051.46 L1160.05 1051.46  Z" fill="#009af9" fill-rule="evenodd" fill-opacity="1"/>
<polyline clip-path="url(#clip042)" style="stroke:#000000; stroke-linecap:round; stroke-linejoin:round; stroke-width:4; stroke-opacity:1; fill:none" points="1160.05,1051.46 1160.05,1423.18 1181.73,1423.18 1181.73,1051.46 1160.05,1051.46 "/>
<path clip-path="url(#clip042)" d="M1181.73 1062.55 L1181.73 1423.18 L1203.42 1423.18 L1203.42 1062.55 L1181.73 1062.55 L1181.73 1062.55  Z" fill="#009af9" fill-rule="evenodd" fill-opacity="1"/>
<polyline clip-path="url(#clip042)" style="stroke:#000000; stroke-linecap:round; stroke-linejoin:round; stroke-width:4; stroke-opacity:1; fill:none" points="1181.73,1062.55 1181.73,1423.18 1203.42,1423.18 1203.42,1062.55 1181.73,1062.55 "/>
<path clip-path="url(#clip042)" d="M1203.42 1051.46 L1203.42 1423.18 L1225.1 1423.18 L1225.1 1051.46 L1203.42 1051.46 L1203.42 1051.46  Z" fill="#009af9" fill-rule="evenodd" fill-opacity="1"/>
<polyline clip-path="url(#clip042)" style="stroke:#000000; stroke-linecap:round; stroke-linejoin:round; stroke-width:4; stroke-opacity:1; fill:none" points="1203.42,1051.46 1203.42,1423.18 1225.1,1423.18 1225.1,1051.46 1203.42,1051.46 "/>
<path clip-path="url(#clip042)" d="M1225.1 1134.68 L1225.1 1423.18 L1246.79 1423.18 L1246.79 1134.68 L1225.1 1134.68 L1225.1 1134.68  Z" fill="#009af9" fill-rule="evenodd" fill-opacity="1"/>
<polyline clip-path="url(#clip042)" style="stroke:#000000; stroke-linecap:round; stroke-linejoin:round; stroke-width:4; stroke-opacity:1; fill:none" points="1225.1,1134.68 1225.1,1423.18 1246.79,1423.18 1246.79,1134.68 1225.1,1134.68 "/>
<path clip-path="url(#clip042)" d="M1246.79 1051.46 L1246.79 1423.18 L1268.47 1423.18 L1268.47 1051.46 L1246.79 1051.46 L1246.79 1051.46  Z" fill="#009af9" fill-rule="evenodd" fill-opacity="1"/>
<polyline clip-path="url(#clip042)" style="stroke:#000000; stroke-linecap:round; stroke-linejoin:round; stroke-width:4; stroke-opacity:1; fill:none" points="1246.79,1051.46 1246.79,1423.18 1268.47,1423.18 1268.47,1051.46 1246.79,1051.46 "/>
<path clip-path="url(#clip042)" d="M1268.47 823.982 L1268.47 1423.18 L1290.16 1423.18 L1290.16 823.982 L1268.47 823.982 L1268.47 823.982  Z" fill="#009af9" fill-rule="evenodd" fill-opacity="1"/>
<polyline clip-path="url(#clip042)" style="stroke:#000000; stroke-linecap:round; stroke-linejoin:round; stroke-width:4; stroke-opacity:1; fill:none" points="1268.47,823.982 1268.47,1423.18 1290.16,1423.18 1290.16,823.982 1268.47,823.982 "/>
<path clip-path="url(#clip042)" d="M1290.16 835.078 L1290.16 1423.18 L1311.84 1423.18 L1311.84 835.078 L1290.16 835.078 L1290.16 835.078  Z" fill="#009af9" fill-rule="evenodd" fill-opacity="1"/>
<polyline clip-path="url(#clip042)" style="stroke:#000000; stroke-linecap:round; stroke-linejoin:round; stroke-width:4; stroke-opacity:1; fill:none" points="1290.16,835.078 1290.16,1423.18 1311.84,1423.18 1311.84,835.078 1290.16,835.078 "/>
<path clip-path="url(#clip042)" d="M1311.84 468.902 L1311.84 1423.18 L1333.53 1423.18 L1333.53 468.902 L1311.84 468.902 L1311.84 468.902  Z" fill="#009af9" fill-rule="evenodd" fill-opacity="1"/>
<polyline clip-path="url(#clip042)" style="stroke:#000000; stroke-linecap:round; stroke-linejoin:round; stroke-width:4; stroke-opacity:1; fill:none" points="1311.84,468.902 1311.84,1423.18 1333.53,1423.18 1333.53,468.902 1311.84,468.902 "/>
<path clip-path="url(#clip042)" d="M1333.53 602.057 L1333.53 1423.18 L1355.22 1423.18 L1355.22 602.057 L1333.53 602.057 L1333.53 602.057  Z" fill="#009af9" fill-rule="evenodd" fill-opacity="1"/>
<polyline clip-path="url(#clip042)" style="stroke:#000000; stroke-linecap:round; stroke-linejoin:round; stroke-width:4; stroke-opacity:1; fill:none" points="1333.53,602.057 1333.53,1423.18 1355.22,1423.18 1355.22,602.057 1333.53,602.057 "/>
<path clip-path="url(#clip042)" d="M1355.22 751.856 L1355.22 1423.18 L1376.9 1423.18 L1376.9 751.856 L1355.22 751.856 L1355.22 751.856  Z" fill="#009af9" fill-rule="evenodd" fill-opacity="1"/>
<polyline clip-path="url(#clip042)" style="stroke:#000000; stroke-linecap:round; stroke-linejoin:round; stroke-width:4; stroke-opacity:1; fill:none" points="1355.22,751.856 1355.22,1423.18 1376.9,1423.18 1376.9,751.856 1355.22,751.856 "/>
<path clip-path="url(#clip042)" d="M1376.9 291.362 L1376.9 1423.18 L1398.59 1423.18 L1398.59 291.362 L1376.9 291.362 L1376.9 291.362  Z" fill="#009af9" fill-rule="evenodd" fill-opacity="1"/>
<polyline clip-path="url(#clip042)" style="stroke:#000000; stroke-linecap:round; stroke-linejoin:round; stroke-width:4; stroke-opacity:1; fill:none" points="1376.9,291.362 1376.9,1423.18 1398.59,1423.18 1398.59,291.362 1376.9,291.362 "/>
<path clip-path="url(#clip042)" d="M1398.59 213.688 L1398.59 1423.18 L1420.27 1423.18 L1420.27 213.688 L1398.59 213.688 L1398.59 213.688  Z" fill="#009af9" fill-rule="evenodd" fill-opacity="1"/>
<polyline clip-path="url(#clip042)" style="stroke:#000000; stroke-linecap:round; stroke-linejoin:round; stroke-width:4; stroke-opacity:1; fill:none" points="1398.59,213.688 1398.59,1423.18 1420.27,1423.18 1420.27,213.688 1398.59,213.688 "/>
<path clip-path="url(#clip042)" d="M1420.27 457.806 L1420.27 1423.18 L1441.96 1423.18 L1441.96 457.806 L1420.27 457.806 L1420.27 457.806  Z" fill="#009af9" fill-rule="evenodd" fill-opacity="1"/>
<polyline clip-path="url(#clip042)" style="stroke:#000000; stroke-linecap:round; stroke-linejoin:round; stroke-width:4; stroke-opacity:1; fill:none" points="1420.27,457.806 1420.27,1423.18 1441.96,1423.18 1441.96,457.806 1420.27,457.806 "/>
<path clip-path="url(#clip042)" d="M1441.96 130.466 L1441.96 1423.18 L1463.64 1423.18 L1463.64 130.466 L1441.96 130.466 L1441.96 130.466  Z" fill="#009af9" fill-rule="evenodd" fill-opacity="1"/>
<polyline clip-path="url(#clip042)" style="stroke:#000000; stroke-linecap:round; stroke-linejoin:round; stroke-width:4; stroke-opacity:1; fill:none" points="1441.96,130.466 1441.96,1423.18 1463.64,1423.18 1463.64,130.466 1441.96,130.466 "/>
<path clip-path="url(#clip042)" d="M1463.64 102.725 L1463.64 1423.18 L1485.33 1423.18 L1485.33 102.725 L1463.64 102.725 L1463.64 102.725  Z" fill="#009af9" fill-rule="evenodd" fill-opacity="1"/>
<polyline clip-path="url(#clip042)" style="stroke:#000000; stroke-linecap:round; stroke-linejoin:round; stroke-width:4; stroke-opacity:1; fill:none" points="1463.64,102.725 1463.64,1423.18 1485.33,1423.18 1485.33,102.725 1463.64,102.725 "/>
<path clip-path="url(#clip042)" d="M1485.33 274.717 L1485.33 1423.18 L1507.02 1423.18 L1507.02 274.717 L1485.33 274.717 L1485.33 274.717  Z" fill="#009af9" fill-rule="evenodd" fill-opacity="1"/>
<polyline clip-path="url(#clip042)" style="stroke:#000000; stroke-linecap:round; stroke-linejoin:round; stroke-width:4; stroke-opacity:1; fill:none" points="1485.33,274.717 1485.33,1423.18 1507.02,1423.18 1507.02,274.717 1485.33,274.717 "/>
<path clip-path="url(#clip042)" d="M1507.02 47.2441 L1507.02 1423.18 L1528.7 1423.18 L1528.7 47.2441 L1507.02 47.2441 L1507.02 47.2441  Z" fill="#009af9" fill-rule="evenodd" fill-opacity="1"/>
<polyline clip-path="url(#clip042)" style="stroke:#000000; stroke-linecap:round; stroke-linejoin:round; stroke-width:4; stroke-opacity:1; fill:none" points="1507.02,47.2441 1507.02,1423.18 1528.7,1423.18 1528.7,47.2441 1507.02,47.2441 "/>
<path clip-path="url(#clip042)" d="M1528.7 341.295 L1528.7 1423.18 L1550.39 1423.18 L1550.39 341.295 L1528.7 341.295 L1528.7 341.295  Z" fill="#009af9" fill-rule="evenodd" fill-opacity="1"/>
<polyline clip-path="url(#clip042)" style="stroke:#000000; stroke-linecap:round; stroke-linejoin:round; stroke-width:4; stroke-opacity:1; fill:none" points="1528.7,341.295 1528.7,1423.18 1550.39,1423.18 1550.39,341.295 1528.7,341.295 "/>
<path clip-path="url(#clip042)" d="M1550.39 696.375 L1550.39 1423.18 L1572.07 1423.18 L1572.07 696.375 L1550.39 696.375 L1550.39 696.375  Z" fill="#009af9" fill-rule="evenodd" fill-opacity="1"/>
<polyline clip-path="url(#clip042)" style="stroke:#000000; stroke-linecap:round; stroke-linejoin:round; stroke-width:4; stroke-opacity:1; fill:none" points="1550.39,696.375 1550.39,1423.18 1572.07,1423.18 1572.07,696.375 1550.39,696.375 "/>
<path clip-path="url(#clip042)" d="M1572.07 346.843 L1572.07 1423.18 L1593.76 1423.18 L1593.76 346.843 L1572.07 346.843 L1572.07 346.843  Z" fill="#009af9" fill-rule="evenodd" fill-opacity="1"/>
<polyline clip-path="url(#clip042)" style="stroke:#000000; stroke-linecap:round; stroke-linejoin:round; stroke-width:4; stroke-opacity:1; fill:none" points="1572.07,346.843 1572.07,1423.18 1593.76,1423.18 1593.76,346.843 1572.07,346.843 "/>
<path clip-path="url(#clip042)" d="M1593.76 590.961 L1593.76 1423.18 L1615.44 1423.18 L1615.44 590.961 L1593.76 590.961 L1593.76 590.961  Z" fill="#009af9" fill-rule="evenodd" fill-opacity="1"/>
<polyline clip-path="url(#clip042)" style="stroke:#000000; stroke-linecap:round; stroke-linejoin:round; stroke-width:4; stroke-opacity:1; fill:none" points="1593.76,590.961 1593.76,1423.18 1615.44,1423.18 1615.44,590.961 1593.76,590.961 "/>
<path clip-path="url(#clip042)" d="M1615.44 557.672 L1615.44 1423.18 L1637.13 1423.18 L1637.13 557.672 L1615.44 557.672 L1615.44 557.672  Z" fill="#009af9" fill-rule="evenodd" fill-opacity="1"/>
<polyline clip-path="url(#clip042)" style="stroke:#000000; stroke-linecap:round; stroke-linejoin:round; stroke-width:4; stroke-opacity:1; fill:none" points="1615.44,557.672 1615.44,1423.18 1637.13,1423.18 1637.13,557.672 1615.44,557.672 "/>
<path clip-path="url(#clip042)" d="M1637.13 590.961 L1637.13 1423.18 L1658.82 1423.18 L1658.82 590.961 L1637.13 590.961 L1637.13 590.961  Z" fill="#009af9" fill-rule="evenodd" fill-opacity="1"/>
<polyline clip-path="url(#clip042)" style="stroke:#000000; stroke-linecap:round; stroke-linejoin:round; stroke-width:4; stroke-opacity:1; fill:none" points="1637.13,590.961 1637.13,1423.18 1658.82,1423.18 1658.82,590.961 1637.13,590.961 "/>
<path clip-path="url(#clip042)" d="M1658.82 1051.46 L1658.82 1423.18 L1680.5 1423.18 L1680.5 1051.46 L1658.82 1051.46 L1658.82 1051.46  Z" fill="#009af9" fill-rule="evenodd" fill-opacity="1"/>
<polyline clip-path="url(#clip042)" style="stroke:#000000; stroke-linecap:round; stroke-linejoin:round; stroke-width:4; stroke-opacity:1; fill:none" points="1658.82,1051.46 1658.82,1423.18 1680.5,1423.18 1680.5,1051.46 1658.82,1051.46 "/>
<path clip-path="url(#clip042)" d="M1680.5 1079.2 L1680.5 1423.18 L1702.19 1423.18 L1702.19 1079.2 L1680.5 1079.2 L1680.5 1079.2  Z" fill="#009af9" fill-rule="evenodd" fill-opacity="1"/>
<polyline clip-path="url(#clip042)" style="stroke:#000000; stroke-linecap:round; stroke-linejoin:round; stroke-width:4; stroke-opacity:1; fill:none" points="1680.5,1079.2 1680.5,1423.18 1702.19,1423.18 1702.19,1079.2 1680.5,1079.2 "/>
<path clip-path="url(#clip042)" d="M1702.19 1140.23 L1702.19 1423.18 L1723.87 1423.18 L1723.87 1140.23 L1702.19 1140.23 L1702.19 1140.23  Z" fill="#009af9" fill-rule="evenodd" fill-opacity="1"/>
<polyline clip-path="url(#clip042)" style="stroke:#000000; stroke-linecap:round; stroke-linejoin:round; stroke-width:4; stroke-opacity:1; fill:none" points="1702.19,1140.23 1702.19,1423.18 1723.87,1423.18 1723.87,1140.23 1702.19,1140.23 "/>
<path clip-path="url(#clip042)" d="M1723.87 995.974 L1723.87 1423.18 L1745.56 1423.18 L1745.56 995.974 L1723.87 995.974 L1723.87 995.974  Z" fill="#009af9" fill-rule="evenodd" fill-opacity="1"/>
<polyline clip-path="url(#clip042)" style="stroke:#000000; stroke-linecap:round; stroke-linejoin:round; stroke-width:4; stroke-opacity:1; fill:none" points="1723.87,995.974 1723.87,1423.18 1745.56,1423.18 1745.56,995.974 1723.87,995.974 "/>
<path clip-path="url(#clip042)" d="M1745.56 1267.83 L1745.56 1423.18 L1767.24 1423.18 L1767.24 1267.83 L1745.56 1267.83 L1745.56 1267.83  Z" fill="#009af9" fill-rule="evenodd" fill-opacity="1"/>
<polyline clip-path="url(#clip042)" style="stroke:#000000; stroke-linecap:round; stroke-linejoin:round; stroke-width:4; stroke-opacity:1; fill:none" points="1745.56,1267.83 1745.56,1423.18 1767.24,1423.18 1767.24,1267.83 1745.56,1267.83 "/>
<path clip-path="url(#clip042)" d="M1767.24 1278.93 L1767.24 1423.18 L1788.93 1423.18 L1788.93 1278.93 L1767.24 1278.93 L1767.24 1278.93  Z" fill="#009af9" fill-rule="evenodd" fill-opacity="1"/>
<polyline clip-path="url(#clip042)" style="stroke:#000000; stroke-linecap:round; stroke-linejoin:round; stroke-width:4; stroke-opacity:1; fill:none" points="1767.24,1278.93 1767.24,1423.18 1788.93,1423.18 1788.93,1278.93 1767.24,1278.93 "/>
<path clip-path="url(#clip042)" d="M1788.93 1284.48 L1788.93 1423.18 L1810.61 1423.18 L1810.61 1284.48 L1788.93 1284.48 L1788.93 1284.48  Z" fill="#009af9" fill-rule="evenodd" fill-opacity="1"/>
<polyline clip-path="url(#clip042)" style="stroke:#000000; stroke-linecap:round; stroke-linejoin:round; stroke-width:4; stroke-opacity:1; fill:none" points="1788.93,1284.48 1788.93,1423.18 1810.61,1423.18 1810.61,1284.48 1788.93,1284.48 "/>
<path clip-path="url(#clip042)" d="M1810.61 1351.05 L1810.61 1423.18 L1832.3 1423.18 L1832.3 1351.05 L1810.61 1351.05 L1810.61 1351.05  Z" fill="#009af9" fill-rule="evenodd" fill-opacity="1"/>
<polyline clip-path="url(#clip042)" style="stroke:#000000; stroke-linecap:round; stroke-linejoin:round; stroke-width:4; stroke-opacity:1; fill:none" points="1810.61,1351.05 1810.61,1423.18 1832.3,1423.18 1832.3,1351.05 1810.61,1351.05 "/>
<path clip-path="url(#clip042)" d="M1832.3 1367.7 L1832.3 1423.18 L1853.99 1423.18 L1853.99 1367.7 L1832.3 1367.7 L1832.3 1367.7  Z" fill="#009af9" fill-rule="evenodd" fill-opacity="1"/>
<polyline clip-path="url(#clip042)" style="stroke:#000000; stroke-linecap:round; stroke-linejoin:round; stroke-width:4; stroke-opacity:1; fill:none" points="1832.3,1367.7 1832.3,1423.18 1853.99,1423.18 1853.99,1367.7 1832.3,1367.7 "/>
<path clip-path="url(#clip042)" d="M1853.99 1389.89 L1853.99 1423.18 L1875.67 1423.18 L1875.67 1389.89 L1853.99 1389.89 L1853.99 1389.89  Z" fill="#009af9" fill-rule="evenodd" fill-opacity="1"/>
<polyline clip-path="url(#clip042)" style="stroke:#000000; stroke-linecap:round; stroke-linejoin:round; stroke-width:4; stroke-opacity:1; fill:none" points="1853.99,1389.89 1853.99,1423.18 1875.67,1423.18 1875.67,1389.89 1853.99,1389.89 "/>
<path clip-path="url(#clip042)" d="M1875.67 1389.89 L1875.67 1423.18 L1897.36 1423.18 L1897.36 1389.89 L1875.67 1389.89 L1875.67 1389.89  Z" fill="#009af9" fill-rule="evenodd" fill-opacity="1"/>
<polyline clip-path="url(#clip042)" style="stroke:#000000; stroke-linecap:round; stroke-linejoin:round; stroke-width:4; stroke-opacity:1; fill:none" points="1875.67,1389.89 1875.67,1423.18 1897.36,1423.18 1897.36,1389.89 1875.67,1389.89 "/>
<path clip-path="url(#clip042)" d="M1897.36 1417.63 L1897.36 1423.18 L1919.04 1423.18 L1919.04 1417.63 L1897.36 1417.63 L1897.36 1417.63  Z" fill="#009af9" fill-rule="evenodd" fill-opacity="1"/>
<polyline clip-path="url(#clip042)" style="stroke:#000000; stroke-linecap:round; stroke-linejoin:round; stroke-width:4; stroke-opacity:1; fill:none" points="1897.36,1417.63 1897.36,1423.18 1919.04,1423.18 1919.04,1417.63 1897.36,1417.63 "/>
<path clip-path="url(#clip042)" d="M1919.04 1389.89 L1919.04 1423.18 L1940.73 1423.18 L1940.73 1389.89 L1919.04 1389.89 L1919.04 1389.89  Z" fill="#009af9" fill-rule="evenodd" fill-opacity="1"/>
<polyline clip-path="url(#clip042)" style="stroke:#000000; stroke-linecap:round; stroke-linejoin:round; stroke-width:4; stroke-opacity:1; fill:none" points="1919.04,1389.89 1919.04,1423.18 1940.73,1423.18 1940.73,1389.89 1919.04,1389.89 "/>
<circle clip-path="url(#clip042)" style="fill:#009af9; stroke:none; fill-opacity:0" cx="823.917" cy="1412.08" r="2"/>
<circle clip-path="url(#clip042)" style="fill:#009af9; stroke:none; fill-opacity:0" cx="845.603" cy="1417.63" r="2"/>
<circle clip-path="url(#clip042)" style="fill:#009af9; stroke:none; fill-opacity:0" cx="867.289" cy="1423.18" r="2"/>
<circle clip-path="url(#clip042)" style="fill:#009af9; stroke:none; fill-opacity:0" cx="888.974" cy="1417.63" r="2"/>
<circle clip-path="url(#clip042)" style="fill:#009af9; stroke:none; fill-opacity:0" cx="910.66" cy="1406.54" r="2"/>
<circle clip-path="url(#clip042)" style="fill:#009af9; stroke:none; fill-opacity:0" cx="932.346" cy="1384.34" r="2"/>
<circle clip-path="url(#clip042)" style="fill:#009af9; stroke:none; fill-opacity:0" cx="954.031" cy="1378.79" r="2"/>
<circle clip-path="url(#clip042)" style="fill:#009af9; stroke:none; fill-opacity:0" cx="975.717" cy="1334.41" r="2"/>
<circle clip-path="url(#clip042)" style="fill:#009af9; stroke:none; fill-opacity:0" cx="997.403" cy="1367.7" r="2"/>
<circle clip-path="url(#clip042)" style="fill:#009af9; stroke:none; fill-opacity:0" cx="1019.09" cy="1362.15" r="2"/>
<circle clip-path="url(#clip042)" style="fill:#009af9; stroke:none; fill-opacity:0" cx="1040.77" cy="1400.99" r="2"/>
<circle clip-path="url(#clip042)" style="fill:#009af9; stroke:none; fill-opacity:0" cx="1062.46" cy="1367.7" r="2"/>
<circle clip-path="url(#clip042)" style="fill:#009af9; stroke:none; fill-opacity:0" cx="1084.15" cy="1362.15" r="2"/>
<circle clip-path="url(#clip042)" style="fill:#009af9; stroke:none; fill-opacity:0" cx="1105.83" cy="1312.22" r="2"/>
<circle clip-path="url(#clip042)" style="fill:#009af9; stroke:none; fill-opacity:0" cx="1127.52" cy="1306.67" r="2"/>
<circle clip-path="url(#clip042)" style="fill:#009af9; stroke:none; fill-opacity:0" cx="1149.2" cy="1278.93" r="2"/>
<circle clip-path="url(#clip042)" style="fill:#009af9; stroke:none; fill-opacity:0" cx="1170.89" cy="1051.46" r="2"/>
<circle clip-path="url(#clip042)" style="fill:#009af9; stroke:none; fill-opacity:0" cx="1192.57" cy="1062.55" r="2"/>
<circle clip-path="url(#clip042)" style="fill:#009af9; stroke:none; fill-opacity:0" cx="1214.26" cy="1051.46" r="2"/>
<circle clip-path="url(#clip042)" style="fill:#009af9; stroke:none; fill-opacity:0" cx="1235.94" cy="1134.68" r="2"/>
<circle clip-path="url(#clip042)" style="fill:#009af9; stroke:none; fill-opacity:0" cx="1257.63" cy="1051.46" r="2"/>
<circle clip-path="url(#clip042)" style="fill:#009af9; stroke:none; fill-opacity:0" cx="1279.32" cy="823.982" r="2"/>
<circle clip-path="url(#clip042)" style="fill:#009af9; stroke:none; fill-opacity:0" cx="1301" cy="835.078" r="2"/>
<circle clip-path="url(#clip042)" style="fill:#009af9; stroke:none; fill-opacity:0" cx="1322.69" cy="468.902" r="2"/>
<circle clip-path="url(#clip042)" style="fill:#009af9; stroke:none; fill-opacity:0" cx="1344.37" cy="602.057" r="2"/>
<circle clip-path="url(#clip042)" style="fill:#009af9; stroke:none; fill-opacity:0" cx="1366.06" cy="751.856" r="2"/>
<circle clip-path="url(#clip042)" style="fill:#009af9; stroke:none; fill-opacity:0" cx="1387.74" cy="291.362" r="2"/>
<circle clip-path="url(#clip042)" style="fill:#009af9; stroke:none; fill-opacity:0" cx="1409.43" cy="213.688" r="2"/>
<circle clip-path="url(#clip042)" style="fill:#009af9; stroke:none; fill-opacity:0" cx="1431.12" cy="457.806" r="2"/>
<circle clip-path="url(#clip042)" style="fill:#009af9; stroke:none; fill-opacity:0" cx="1452.8" cy="130.466" r="2"/>
<circle clip-path="url(#clip042)" style="fill:#009af9; stroke:none; fill-opacity:0" cx="1474.49" cy="102.725" r="2"/>
<circle clip-path="url(#clip042)" style="fill:#009af9; stroke:none; fill-opacity:0" cx="1496.17" cy="274.717" r="2"/>
<circle clip-path="url(#clip042)" style="fill:#009af9; stroke:none; fill-opacity:0" cx="1517.86" cy="47.2441" r="2"/>
<circle clip-path="url(#clip042)" style="fill:#009af9; stroke:none; fill-opacity:0" cx="1539.54" cy="341.295" r="2"/>
<circle clip-path="url(#clip042)" style="fill:#009af9; stroke:none; fill-opacity:0" cx="1561.23" cy="696.375" r="2"/>
<circle clip-path="url(#clip042)" style="fill:#009af9; stroke:none; fill-opacity:0" cx="1582.92" cy="346.843" r="2"/>
<circle clip-path="url(#clip042)" style="fill:#009af9; stroke:none; fill-opacity:0" cx="1604.6" cy="590.961" r="2"/>
<circle clip-path="url(#clip042)" style="fill:#009af9; stroke:none; fill-opacity:0" cx="1626.29" cy="557.672" r="2"/>
<circle clip-path="url(#clip042)" style="fill:#009af9; stroke:none; fill-opacity:0" cx="1647.97" cy="590.961" r="2"/>
<circle clip-path="url(#clip042)" style="fill:#009af9; stroke:none; fill-opacity:0" cx="1669.66" cy="1051.46" r="2"/>
<circle clip-path="url(#clip042)" style="fill:#009af9; stroke:none; fill-opacity:0" cx="1691.34" cy="1079.2" r="2"/>
<circle clip-path="url(#clip042)" style="fill:#009af9; stroke:none; fill-opacity:0" cx="1713.03" cy="1140.23" r="2"/>
<circle clip-path="url(#clip042)" style="fill:#009af9; stroke:none; fill-opacity:0" cx="1734.71" cy="995.974" r="2"/>
<circle clip-path="url(#clip042)" style="fill:#009af9; stroke:none; fill-opacity:0" cx="1756.4" cy="1267.83" r="2"/>
<circle clip-path="url(#clip042)" style="fill:#009af9; stroke:none; fill-opacity:0" cx="1778.09" cy="1278.93" r="2"/>
<circle clip-path="url(#clip042)" style="fill:#009af9; stroke:none; fill-opacity:0" cx="1799.77" cy="1284.48" r="2"/>
<circle clip-path="url(#clip042)" style="fill:#009af9; stroke:none; fill-opacity:0" cx="1821.46" cy="1351.05" r="2"/>
<circle clip-path="url(#clip042)" style="fill:#009af9; stroke:none; fill-opacity:0" cx="1843.14" cy="1367.7" r="2"/>
<circle clip-path="url(#clip042)" style="fill:#009af9; stroke:none; fill-opacity:0" cx="1864.83" cy="1389.89" r="2"/>
<circle clip-path="url(#clip042)" style="fill:#009af9; stroke:none; fill-opacity:0" cx="1886.51" cy="1389.89" r="2"/>
<circle clip-path="url(#clip042)" style="fill:#009af9; stroke:none; fill-opacity:0" cx="1908.2" cy="1417.63" r="2"/>
<circle clip-path="url(#clip042)" style="fill:#009af9; stroke:none; fill-opacity:0" cx="1929.89" cy="1389.89" r="2"/>
<polyline clip-path="url(#clip042)" style="stroke:#e26f46; stroke-linecap:round; stroke-linejoin:round; stroke-width:8; stroke-opacity:1; fill:none" points="-1984.37,1423.18 -1962.58,1423.18 -1940.79,1423.18 -1918.99,1423.18 -1897.2,1423.18 -1875.4,1423.18 -1853.61,1423.18 -1831.81,1423.18 -1810.02,1423.18 -1788.22,1423.18 -1766.43,1423.18 -1744.63,1423.18 -1722.84,1423.18 -1701.04,1423.18 -1679.25,1423.18 -1657.46,1423.18 -1635.66,1423.18 -1613.87,1423.18 -1592.07,1423.18 -1570.28,1423.18 -1548.48,1423.18 -1526.69,1423.18 -1504.89,1423.18 -1483.1,1423.18 -1461.3,1423.18 -1439.51,1423.18 -1417.71,1423.18 -1395.92,1423.18 -1374.13,1423.18 -1352.33,1423.18 -1330.54,1423.18 -1308.74,1423.18 -1286.95,1423.18 -1265.15,1423.18 -1243.36,1423.18 -1221.56,1423.18 -1199.77,1423.18 -1177.97,1423.18 -1156.18,1423.18 -1134.38,1423.18 -1112.59,1423.18 -1090.79,1423.18 -1069,1423.18 -1047.21,1423.18 -1025.41,1423.18 -1003.62,1423.18 -981.822,1423.18 -960.027,1423.18 -938.233,1423.18 -916.438,1423.18 -894.643,1423.18 -872.849,1423.18 -851.054,1423.18 -829.259,1423.18 -807.465,1423.18 -785.67,1423.18 -763.876,1423.18 -742.081,1423.18 -720.286,1423.18 -698.492,1423.18 -676.697,1423.18 -654.902,1423.18 -633.108,1423.18 -611.313,1423.18 -589.519,1423.18 -567.724,1423.18 -545.929,1423.18 -524.135,1423.18 -502.34,1423.18 -480.545,1423.18 -458.751,1423.18 -436.956,1423.18 -415.162,1423.18 -393.367,1423.18 -371.572,1423.18 -349.778,1423.18 -327.983,1423.18 -306.188,1423.18 -284.394,1423.18 -262.599,1423.18 -240.805,1423.18 -219.01,1423.18 -197.215,1423.18 -175.421,1423.18 -153.626,1423.18 -131.831,1423.18 -110.037,1423.18 -88.2421,1423.18 -66.4475,1423.18 -44.6529,1423.18 -22.8583,1423.18 -1.06364,1423.18 20.731,1423.18 42.5256,1423.18 64.3202,1423.18 86.1149,1423.18 107.909,1423.18 129.704,1423.18 151.499,1423.18 173.293,1423.18 195.088,1423.18 216.883,1423.18 238.677,1423.18 260.472,1423.18 282.266,1423.18 304.061,1423.18 325.856,1423.18 347.65,1423.18 369.445,1423.18 391.24,1423.18 413.034,1423.18 434.829,1423.18 456.623,1423.18 478.418,1423.17 500.213,1423.17 522.007,1423.16 543.802,1423.15 565.597,1423.14 587.391,1423.11 609.186,1423.08 630.98,1423.03 652.775,1422.95 674.57,1422.84 696.364,1422.68 718.159,1422.44 739.954,1422.11 761.748,1421.63 783.543,1420.97 805.338,1420.05 827.132,1418.79 848.927,1417.07 870.721,1414.76 892.516,1411.68 914.311,1407.61 936.105,1402.29 957.9,1395.41 979.695,1386.6 1001.49,1375.45 1023.28,1361.48 1045.08,1344.19 1066.87,1323.04 1088.67,1297.45 1110.46,1266.9 1132.26,1230.88 1154.05,1188.98 1175.85,1140.91 1197.64,1086.6 1219.44,1026.18 1241.23,960.072 1263.02,889.055 1284.82,814.255 1306.61,737.183 1328.41,659.721 1350.2,584.082 1372,512.744 1393.79,448.345 1415.59,393.556 1437.38,350.921 1459.18,322.691 1480.97,310.651 1502.77,315.964 1524.56,339.044 1546.35,379.476 1568.15,435.992 1589.94,506.516 1611.74,588.278 1633.53,677.989 1655.33,772.063 1677.12,866.868 1698.92,958.982 1720.71,1045.42 1742.51,1123.82 1764.3,1192.56 1786.1,1250.8 1807.89,1298.42 1829.68,1335.96 1851.48,1364.44 1873.27,1385.19 1895.07,1399.67 1916.86,1409.31 1938.66,1415.41 1960.45,1419.08 1982.25,1421.15 2004.04,1422.24 2025.84,1422.78 2047.63,1423.03 2069.43,1423.13 2091.22,1423.16 2113.02,1423.18 2134.81,1423.18 2156.6,1423.18 2178.4,1423.18 2200.19,1423.18 2221.99,1423.18 2243.78,1423.18 2265.58,1423.18 2287.37,1423.18 2309.17,1423.18 2330.96,1423.18 2352.76,1423.18 "/>
<path clip-path="url(#clip040)" d="M1609.26 248.629 L2280.47 248.629 L2280.47 93.1086 L1609.26 93.1086  Z" fill="#ffffff" fill-rule="evenodd" fill-opacity="1"/>
<polyline clip-path="url(#clip040)" style="stroke:#000000; stroke-linecap:round; stroke-linejoin:round; stroke-width:4; stroke-opacity:1; fill:none" points="1609.26,248.629 2280.47,248.629 2280.47,93.1086 1609.26,93.1086 1609.26,248.629 "/>
<path clip-path="url(#clip040)" d="M1633.36 165.685 L1777.93 165.685 L1777.93 124.213 L1633.36 124.213 L1633.36 165.685  Z" fill="#009af9" fill-rule="evenodd" fill-opacity="1"/>
<polyline clip-path="url(#clip040)" style="stroke:#000000; stroke-linecap:round; stroke-linejoin:round; stroke-width:4; stroke-opacity:1; fill:none" points="1633.36,165.685 1777.93,165.685 1777.93,124.213 1633.36,124.213 1633.36,165.685 "/>
<path clip-path="url(#clip040)" d="M1802.03 127.669 L1808.99 127.669 L1817.81 151.187 L1826.68 127.669 L1833.65 127.669 L1833.65 162.229 L1829.09 162.229 L1829.09 131.882 L1820.17 155.585 L1815.47 155.585 L1806.56 131.882 L1806.56 162.229 L1802.03 162.229 L1802.03 127.669 Z" fill="#000000" fill-rule="nonzero" fill-opacity="1" /><path clip-path="url(#clip040)" d="M1842.93 127.669 L1847.6 127.669 L1847.6 141.835 L1864.59 141.835 L1864.59 127.669 L1869.27 127.669 L1869.27 162.229 L1864.59 162.229 L1864.59 145.77 L1847.6 145.77 L1847.6 162.229 L1842.93 162.229 L1842.93 127.669 Z" fill="#000000" fill-rule="nonzero" fill-opacity="1" /><polyline clip-path="url(#clip040)" style="stroke:#e26f46; stroke-linecap:round; stroke-linejoin:round; stroke-width:8; stroke-opacity:1; fill:none" points="1633.36,196.789 1777.93,196.789 "/>
<path clip-path="url(#clip040)" d="M1815.43 201.036 Q1810.27 201.036 1808.28 202.217 Q1806.29 203.397 1806.29 206.245 Q1806.29 208.513 1807.77 209.856 Q1809.27 211.175 1811.84 211.175 Q1815.38 211.175 1817.51 208.675 Q1819.66 206.152 1819.66 201.985 L1819.66 201.036 L1815.43 201.036 M1823.92 199.277 L1823.92 214.069 L1819.66 214.069 L1819.66 210.133 Q1818.21 212.495 1816.03 213.629 Q1813.85 214.74 1810.71 214.74 Q1806.72 214.74 1804.36 212.518 Q1802.03 210.272 1802.03 206.522 Q1802.03 202.147 1804.94 199.925 Q1807.88 197.703 1813.69 197.703 L1819.66 197.703 L1819.66 197.286 Q1819.66 194.347 1817.72 192.749 Q1815.8 191.129 1812.3 191.129 Q1810.08 191.129 1807.97 191.661 Q1805.87 192.194 1803.92 193.259 L1803.92 189.323 Q1806.26 188.421 1808.46 187.981 Q1810.66 187.518 1812.74 187.518 Q1818.37 187.518 1821.15 190.434 Q1823.92 193.351 1823.92 199.277 Z" fill="#000000" fill-rule="nonzero" fill-opacity="1" /><path clip-path="url(#clip040)" d="M1854.25 198.421 L1854.25 214.069 L1849.99 214.069 L1849.99 198.559 Q1849.99 194.879 1848.55 193.05 Q1847.12 191.222 1844.25 191.222 Q1840.8 191.222 1838.81 193.421 Q1836.82 195.62 1836.82 199.416 L1836.82 214.069 L1832.53 214.069 L1832.53 188.143 L1836.82 188.143 L1836.82 192.171 Q1838.35 189.833 1840.41 188.675 Q1842.49 187.518 1845.2 187.518 Q1849.66 187.518 1851.96 190.296 Q1854.25 193.05 1854.25 198.421 Z" fill="#000000" fill-rule="nonzero" fill-opacity="1" /><path clip-path="url(#clip040)" d="M1874.53 201.036 Q1869.36 201.036 1867.37 202.217 Q1865.38 203.397 1865.38 206.245 Q1865.38 208.513 1866.86 209.856 Q1868.37 211.175 1870.94 211.175 Q1874.48 211.175 1876.61 208.675 Q1878.76 206.152 1878.76 201.985 L1878.76 201.036 L1874.53 201.036 M1883.02 199.277 L1883.02 214.069 L1878.76 214.069 L1878.76 210.133 Q1877.3 212.495 1875.13 213.629 Q1872.95 214.74 1869.8 214.74 Q1865.82 214.74 1863.46 212.518 Q1861.12 210.272 1861.12 206.522 Q1861.12 202.147 1864.04 199.925 Q1866.98 197.703 1872.79 197.703 L1878.76 197.703 L1878.76 197.286 Q1878.76 194.347 1876.82 192.749 Q1874.9 191.129 1871.4 191.129 Q1869.18 191.129 1867.07 191.661 Q1864.97 192.194 1863.02 193.259 L1863.02 189.323 Q1865.36 188.421 1867.56 187.981 Q1869.76 187.518 1871.84 187.518 Q1877.47 187.518 1880.24 190.434 Q1883.02 193.351 1883.02 199.277 Z" fill="#000000" fill-rule="nonzero" fill-opacity="1" /><path clip-path="url(#clip040)" d="M1891.79 178.05 L1896.05 178.05 L1896.05 214.069 L1891.79 214.069 L1891.79 178.05 Z" fill="#000000" fill-rule="nonzero" fill-opacity="1" /><path clip-path="url(#clip040)" d="M1915.75 216.476 Q1913.95 221.106 1912.23 222.518 Q1910.52 223.93 1907.65 223.93 L1904.25 223.93 L1904.25 220.365 L1906.75 220.365 Q1908.51 220.365 1909.48 219.532 Q1910.45 218.698 1911.63 215.596 L1912.4 213.652 L1901.91 188.143 L1906.42 188.143 L1914.53 208.421 L1922.63 188.143 L1927.14 188.143 L1915.75 216.476 Z" fill="#000000" fill-rule="nonzero" fill-opacity="1" /><path clip-path="url(#clip040)" d="M1937.23 180.782 L1937.23 188.143 L1946.01 188.143 L1946.01 191.453 L1937.23 191.453 L1937.23 205.527 Q1937.23 208.698 1938.09 209.601 Q1938.97 210.504 1941.63 210.504 L1946.01 210.504 L1946.01 214.069 L1941.63 214.069 Q1936.7 214.069 1934.83 212.24 Q1932.95 210.388 1932.95 205.527 L1932.95 191.453 L1929.83 191.453 L1929.83 188.143 L1932.95 188.143 L1932.95 180.782 L1937.23 180.782 Z" fill="#000000" fill-rule="nonzero" fill-opacity="1" /><path clip-path="url(#clip040)" d="M1951.61 188.143 L1955.87 188.143 L1955.87 214.069 L1951.61 214.069 L1951.61 188.143 M1951.61 178.05 L1955.87 178.05 L1955.87 183.444 L1951.61 183.444 L1951.61 178.05 Z" fill="#000000" fill-rule="nonzero" fill-opacity="1" /><path clip-path="url(#clip040)" d="M1983.44 189.138 L1983.44 193.12 Q1981.63 192.124 1979.8 191.638 Q1978 191.129 1976.15 191.129 Q1972 191.129 1969.71 193.768 Q1967.42 196.384 1967.42 201.129 Q1967.42 205.874 1969.71 208.513 Q1972 211.129 1976.15 211.129 Q1978 211.129 1979.8 210.643 Q1981.63 210.133 1983.44 209.138 L1983.44 213.073 Q1981.65 213.907 1979.73 214.323 Q1977.84 214.74 1975.68 214.74 Q1969.83 214.74 1966.38 211.059 Q1962.93 207.379 1962.93 201.129 Q1962.93 194.786 1966.4 191.152 Q1969.9 187.518 1975.96 187.518 Q1977.93 187.518 1979.8 187.935 Q1981.68 188.328 1983.44 189.138 Z" fill="#000000" fill-rule="nonzero" fill-opacity="1" /><path clip-path="url(#clip040)" d="M2002.63 201.036 Q1997.46 201.036 1995.47 202.217 Q1993.48 203.397 1993.48 206.245 Q1993.48 208.513 1994.96 209.856 Q1996.47 211.175 1999.04 211.175 Q2002.58 211.175 2004.71 208.675 Q2006.86 206.152 2006.86 201.985 L2006.86 201.036 L2002.63 201.036 M2011.12 199.277 L2011.12 214.069 L2006.86 214.069 L2006.86 210.133 Q2005.4 212.495 2003.23 213.629 Q2001.05 214.74 1997.9 214.74 Q1993.92 214.74 1991.56 212.518 Q1989.22 210.272 1989.22 206.522 Q1989.22 202.147 1992.14 199.925 Q1995.08 197.703 2000.89 197.703 L2006.86 197.703 L2006.86 197.286 Q2006.86 194.347 2004.92 192.749 Q2003 191.129 1999.5 191.129 Q1997.28 191.129 1995.17 191.661 Q1993.07 192.194 1991.12 193.259 L1991.12 189.323 Q1993.46 188.421 1995.66 187.981 Q1997.86 187.518 1999.94 187.518 Q2005.57 187.518 2008.34 190.434 Q2011.12 193.351 2011.12 199.277 Z" fill="#000000" fill-rule="nonzero" fill-opacity="1" /><path clip-path="url(#clip040)" d="M2019.9 178.05 L2024.15 178.05 L2024.15 214.069 L2019.9 214.069 L2019.9 178.05 Z" fill="#000000" fill-rule="nonzero" fill-opacity="1" /><path clip-path="url(#clip040)" d="M2052.26 210.18 L2052.26 223.93 L2047.97 223.93 L2047.97 188.143 L2052.26 188.143 L2052.26 192.078 Q2053.6 189.763 2055.64 188.652 Q2057.7 187.518 2060.54 187.518 Q2065.27 187.518 2068.2 191.268 Q2071.17 195.018 2071.17 201.129 Q2071.17 207.24 2068.2 210.99 Q2065.27 214.74 2060.54 214.74 Q2057.7 214.74 2055.64 213.629 Q2053.6 212.495 2052.26 210.18 M2066.75 201.129 Q2066.75 196.43 2064.8 193.768 Q2062.88 191.083 2059.5 191.083 Q2056.12 191.083 2054.18 193.768 Q2052.26 196.43 2052.26 201.129 Q2052.26 205.828 2054.18 208.513 Q2056.12 211.175 2059.5 211.175 Q2062.88 211.175 2064.8 208.513 Q2066.75 205.828 2066.75 201.129 Z" fill="#000000" fill-rule="nonzero" fill-opacity="1" /><path clip-path="url(#clip040)" d="M2088.27 191.129 Q2084.85 191.129 2082.86 193.814 Q2080.87 196.476 2080.87 201.129 Q2080.87 205.782 2082.83 208.467 Q2084.83 211.129 2088.27 211.129 Q2091.68 211.129 2093.67 208.444 Q2095.66 205.758 2095.66 201.129 Q2095.66 196.522 2093.67 193.837 Q2091.68 191.129 2088.27 191.129 M2088.27 187.518 Q2093.83 187.518 2097 191.129 Q2100.17 194.74 2100.17 201.129 Q2100.17 207.495 2097 211.129 Q2093.83 214.74 2088.27 214.74 Q2082.7 214.74 2079.52 211.129 Q2076.38 207.495 2076.38 201.129 Q2076.38 194.74 2079.52 191.129 Q2082.7 187.518 2088.27 187.518 Z" fill="#000000" fill-rule="nonzero" fill-opacity="1" /><path clip-path="url(#clip040)" d="M2123.76 188.907 L2123.76 192.934 Q2121.95 192.009 2120.01 191.546 Q2118.07 191.083 2115.98 191.083 Q2112.81 191.083 2111.21 192.055 Q2109.64 193.027 2109.64 194.971 Q2109.64 196.453 2110.77 197.309 Q2111.91 198.143 2115.33 198.907 L2116.79 199.231 Q2121.33 200.203 2123.23 201.985 Q2125.15 203.745 2125.15 206.916 Q2125.15 210.527 2122.28 212.633 Q2119.43 214.74 2114.43 214.74 Q2112.35 214.74 2110.08 214.323 Q2107.83 213.93 2105.33 213.12 L2105.33 208.721 Q2107.7 209.948 2109.99 210.573 Q2112.28 211.175 2114.52 211.175 Q2117.53 211.175 2119.15 210.157 Q2120.77 209.115 2120.77 207.24 Q2120.77 205.504 2119.59 204.578 Q2118.44 203.652 2114.48 202.796 L2113 202.448 Q2109.04 201.615 2107.28 199.902 Q2105.52 198.166 2105.52 195.157 Q2105.52 191.499 2108.11 189.509 Q2110.7 187.518 2115.47 187.518 Q2117.83 187.518 2119.92 187.865 Q2122 188.212 2123.76 188.907 Z" fill="#000000" fill-rule="nonzero" fill-opacity="1" /><path clip-path="url(#clip040)" d="M2136.14 180.782 L2136.14 188.143 L2144.92 188.143 L2144.92 191.453 L2136.14 191.453 L2136.14 205.527 Q2136.14 208.698 2137 209.601 Q2137.88 210.504 2140.54 210.504 L2144.92 210.504 L2144.92 214.069 L2140.54 214.069 Q2135.61 214.069 2133.74 212.24 Q2131.86 210.388 2131.86 205.527 L2131.86 191.453 L2128.74 191.453 L2128.74 188.143 L2131.86 188.143 L2131.86 180.782 L2136.14 180.782 Z" fill="#000000" fill-rule="nonzero" fill-opacity="1" /><path clip-path="url(#clip040)" d="M2172.7 200.041 L2172.7 202.124 L2153.11 202.124 Q2153.39 206.522 2155.75 208.837 Q2158.14 211.129 2162.37 211.129 Q2164.82 211.129 2167.12 210.527 Q2169.43 209.925 2171.7 208.721 L2171.7 212.749 Q2169.41 213.721 2167 214.231 Q2164.59 214.74 2162.12 214.74 Q2155.91 214.74 2152.28 211.129 Q2148.67 207.518 2148.67 201.36 Q2148.67 194.995 2152.09 191.268 Q2155.54 187.518 2161.38 187.518 Q2166.61 187.518 2169.64 190.897 Q2172.7 194.254 2172.7 200.041 M2168.44 198.791 Q2168.39 195.296 2166.47 193.212 Q2164.57 191.129 2161.42 191.129 Q2157.86 191.129 2155.7 193.143 Q2153.57 195.157 2153.25 198.814 L2168.44 198.791 Z" fill="#000000" fill-rule="nonzero" fill-opacity="1" /><path clip-path="url(#clip040)" d="M2194.71 192.124 Q2193.99 191.708 2193.13 191.522 Q2192.3 191.314 2191.28 191.314 Q2187.67 191.314 2185.73 193.675 Q2183.81 196.013 2183.81 200.411 L2183.81 214.069 L2179.52 214.069 L2179.52 188.143 L2183.81 188.143 L2183.81 192.171 Q2185.15 189.809 2187.3 188.675 Q2189.45 187.518 2192.53 187.518 Q2192.97 187.518 2193.51 187.587 Q2194.04 187.634 2194.69 187.749 L2194.71 192.124 Z" fill="#000000" fill-rule="nonzero" fill-opacity="1" /><path clip-path="url(#clip040)" d="M2199.18 188.143 L2203.44 188.143 L2203.44 214.069 L2199.18 214.069 L2199.18 188.143 M2199.18 178.05 L2203.44 178.05 L2203.44 183.444 L2199.18 183.444 L2199.18 178.05 Z" fill="#000000" fill-rule="nonzero" fill-opacity="1" /><path clip-path="url(#clip040)" d="M2222.39 191.129 Q2218.97 191.129 2216.98 193.814 Q2214.99 196.476 2214.99 201.129 Q2214.99 205.782 2216.95 208.467 Q2218.94 211.129 2222.39 211.129 Q2225.8 211.129 2227.79 208.444 Q2229.78 205.758 2229.78 201.129 Q2229.78 196.522 2227.79 193.837 Q2225.8 191.129 2222.39 191.129 M2222.39 187.518 Q2227.95 187.518 2231.12 191.129 Q2234.29 194.74 2234.29 201.129 Q2234.29 207.495 2231.12 211.129 Q2227.95 214.74 2222.39 214.74 Q2216.82 214.74 2213.64 211.129 Q2210.5 207.495 2210.5 201.129 Q2210.5 194.74 2213.64 191.129 Q2216.82 187.518 2222.39 187.518 Z" fill="#000000" fill-rule="nonzero" fill-opacity="1" /><path clip-path="url(#clip040)" d="M2256.38 192.124 Q2255.66 191.708 2254.8 191.522 Q2253.97 191.314 2252.95 191.314 Q2249.34 191.314 2247.39 193.675 Q2245.47 196.013 2245.47 200.411 L2245.47 214.069 L2241.19 214.069 L2241.19 188.143 L2245.47 188.143 L2245.47 192.171 Q2246.82 189.809 2248.97 188.675 Q2251.12 187.518 2254.2 187.518 Q2254.64 187.518 2255.17 187.587 Q2255.7 187.634 2256.35 187.749 L2256.38 192.124 Z" fill="#000000" fill-rule="nonzero" fill-opacity="1" /></svg>
