<?xml version="1.0" encoding="utf-8"?>
<svg xmlns="http://www.w3.org/2000/svg" xmlns:xlink="http://www.w3.org/1999/xlink" width="600" height="400" viewBox="0 0 2400 1600">
<defs>
  <clipPath id="clip130">
    <rect x="0" y="0" width="2400" height="1600"/>
  </clipPath>
</defs>
<path clip-path="url(#clip130)" d="M0 1600 L2400 1600 L2400 0 L0 0  Z" fill="#ffffff" fill-rule="evenodd" fill-opacity="1"/>
<defs>
  <clipPath id="clip131">
    <rect x="480" y="0" width="1681" height="1600"/>
  </clipPath>
</defs>
<path clip-path="url(#clip130)" d="M147.478 1486.45 L2352.76 1486.45 L2352.76 47.2441 L147.478 47.2441  Z" fill="#ffffff" fill-rule="evenodd" fill-opacity="1"/>
<defs>
  <clipPath id="clip132">
    <rect x="147" y="47" width="2206" height="1440"/>
  </clipPath>
</defs>
<polyline clip-path="url(#clip132)" style="stroke:#000000; stroke-linecap:round; stroke-linejoin:round; stroke-width:2; stroke-opacity:0.1; fill:none" points="147.478,1486.45 147.478,47.2441 "/>
<polyline clip-path="url(#clip132)" style="stroke:#000000; stroke-linecap:round; stroke-linejoin:round; stroke-width:2; stroke-opacity:0.1; fill:none" points="698.797,1486.45 698.797,47.2441 "/>
<polyline clip-path="url(#clip132)" style="stroke:#000000; stroke-linecap:round; stroke-linejoin:round; stroke-width:2; stroke-opacity:0.1; fill:none" points="1250.12,1486.45 1250.12,47.2441 "/>
<polyline clip-path="url(#clip132)" style="stroke:#000000; stroke-linecap:round; stroke-linejoin:round; stroke-width:2; stroke-opacity:0.1; fill:none" points="1801.44,1486.45 1801.44,47.2441 "/>
<polyline clip-path="url(#clip132)" style="stroke:#000000; stroke-linecap:round; stroke-linejoin:round; stroke-width:2; stroke-opacity:0.1; fill:none" points="2352.76,1486.45 2352.76,47.2441 "/>
<polyline clip-path="url(#clip132)" style="stroke:#000000; stroke-linecap:round; stroke-linejoin:round; stroke-width:2; stroke-opacity:0.1; fill:none" points="147.478,1486.45 2352.76,1486.45 "/>
<polyline clip-path="url(#clip132)" style="stroke:#000000; stroke-linecap:round; stroke-linejoin:round; stroke-width:2; stroke-opacity:0.1; fill:none" points="147.478,1126.65 2352.76,1126.65 "/>
<polyline clip-path="url(#clip132)" style="stroke:#000000; stroke-linecap:round; stroke-linejoin:round; stroke-width:2; stroke-opacity:0.1; fill:none" points="147.478,766.846 2352.76,766.846 "/>
<polyline clip-path="url(#clip132)" style="stroke:#000000; stroke-linecap:round; stroke-linejoin:round; stroke-width:2; stroke-opacity:0.1; fill:none" points="147.478,407.045 2352.76,407.045 "/>
<polyline clip-path="url(#clip132)" style="stroke:#000000; stroke-linecap:round; stroke-linejoin:round; stroke-width:2; stroke-opacity:0.1; fill:none" points="147.478,47.2441 2352.76,47.2441 "/>
<polyline clip-path="url(#clip130)" style="stroke:#000000; stroke-linecap:round; stroke-linejoin:round; stroke-width:4; stroke-opacity:1; fill:none" points="147.478,1486.45 2352.76,1486.45 "/>
<polyline clip-path="url(#clip130)" style="stroke:#000000; stroke-linecap:round; stroke-linejoin:round; stroke-width:4; stroke-opacity:1; fill:none" points="147.478,1486.45 147.478,1467.55 "/>
<polyline clip-path="url(#clip130)" style="stroke:#000000; stroke-linecap:round; stroke-linejoin:round; stroke-width:4; stroke-opacity:1; fill:none" points="698.797,1486.45 698.797,1467.55 "/>
<polyline clip-path="url(#clip130)" style="stroke:#000000; stroke-linecap:round; stroke-linejoin:round; stroke-width:4; stroke-opacity:1; fill:none" points="1250.12,1486.45 1250.12,1467.55 "/>
<polyline clip-path="url(#clip130)" style="stroke:#000000; stroke-linecap:round; stroke-linejoin:round; stroke-width:4; stroke-opacity:1; fill:none" points="1801.44,1486.45 1801.44,1467.55 "/>
<polyline clip-path="url(#clip130)" style="stroke:#000000; stroke-linecap:round; stroke-linejoin:round; stroke-width:4; stroke-opacity:1; fill:none" points="2352.76,1486.45 2352.76,1467.55 "/>
<path clip-path="url(#clip130)" d="M117.42 1532.02 L147.096 1532.02 L147.096 1535.95 L117.42 1535.95 L117.42 1532.02 Z" fill="#000000" fill-rule="nonzero" fill-opacity="1" /><path clip-path="url(#clip130)" d="M161.216 1544.91 L177.536 1544.91 L177.536 1548.85 L155.591 1548.85 L155.591 1544.91 Q158.253 1542.16 162.837 1537.53 Q167.443 1532.88 168.624 1531.53 Q170.869 1529.01 171.749 1527.27 Q172.651 1525.51 172.651 1523.82 Q172.651 1521.07 170.707 1519.33 Q168.786 1517.6 165.684 1517.6 Q163.485 1517.6 161.031 1518.36 Q158.601 1519.13 155.823 1520.68 L155.823 1515.95 Q158.647 1514.82 161.101 1514.24 Q163.554 1513.66 165.591 1513.66 Q170.962 1513.66 174.156 1516.35 Q177.35 1519.03 177.35 1523.52 Q177.35 1525.65 176.54 1527.57 Q175.753 1529.47 173.647 1532.07 Q173.068 1532.74 169.966 1535.95 Q166.864 1539.15 161.216 1544.91 Z" fill="#000000" fill-rule="nonzero" fill-opacity="1" /><path clip-path="url(#clip130)" d="M668.555 1532.02 L698.23 1532.02 L698.23 1535.95 L668.555 1535.95 L668.555 1532.02 Z" fill="#000000" fill-rule="nonzero" fill-opacity="1" /><path clip-path="url(#clip130)" d="M709.133 1544.91 L716.772 1544.91 L716.772 1518.55 L708.462 1520.21 L708.462 1515.95 L716.726 1514.29 L721.401 1514.29 L721.401 1544.91 L729.04 1544.91 L729.04 1548.85 L709.133 1548.85 L709.133 1544.91 Z" fill="#000000" fill-rule="nonzero" fill-opacity="1" /><path clip-path="url(#clip130)" d="M1250.12 1517.37 Q1246.51 1517.37 1244.68 1520.93 Q1242.87 1524.47 1242.87 1531.6 Q1242.87 1538.71 1244.68 1542.27 Q1246.51 1545.82 1250.12 1545.82 Q1253.75 1545.82 1255.56 1542.27 Q1257.39 1538.71 1257.39 1531.6 Q1257.39 1524.47 1255.56 1520.93 Q1253.75 1517.37 1250.12 1517.37 M1250.12 1513.66 Q1255.93 1513.66 1258.98 1518.27 Q1262.06 1522.85 1262.06 1531.6 Q1262.06 1540.33 1258.98 1544.94 Q1255.93 1549.52 1250.12 1549.52 Q1244.31 1549.52 1241.23 1544.94 Q1238.17 1540.33 1238.17 1531.6 Q1238.17 1522.85 1241.23 1518.27 Q1244.31 1513.66 1250.12 1513.66 Z" fill="#000000" fill-rule="nonzero" fill-opacity="1" /><path clip-path="url(#clip130)" d="M1791.82 1544.91 L1799.46 1544.91 L1799.46 1518.55 L1791.15 1520.21 L1791.15 1515.95 L1799.41 1514.29 L1804.09 1514.29 L1804.09 1544.91 L1811.73 1544.91 L1811.73 1548.85 L1791.82 1548.85 L1791.82 1544.91 Z" fill="#000000" fill-rule="nonzero" fill-opacity="1" /><path clip-path="url(#clip130)" d="M2347.41 1544.91 L2363.73 1544.91 L2363.73 1548.85 L2341.78 1548.85 L2341.78 1544.91 Q2344.45 1542.16 2349.03 1537.53 Q2353.64 1532.88 2354.82 1531.53 Q2357.06 1529.01 2357.94 1527.27 Q2358.84 1525.51 2358.84 1523.82 Q2358.84 1521.07 2356.9 1519.33 Q2354.98 1517.6 2351.88 1517.6 Q2349.68 1517.6 2347.22 1518.36 Q2344.79 1519.13 2342.02 1520.68 L2342.02 1515.95 Q2344.84 1514.82 2347.29 1514.24 Q2349.75 1513.66 2351.78 1513.66 Q2357.15 1513.66 2360.35 1516.35 Q2363.54 1519.03 2363.54 1523.52 Q2363.54 1525.65 2362.73 1527.57 Q2361.95 1529.47 2359.84 1532.07 Q2359.26 1532.74 2356.16 1535.95 Q2353.06 1539.15 2347.41 1544.91 Z" fill="#000000" fill-rule="nonzero" fill-opacity="1" /><polyline clip-path="url(#clip130)" style="stroke:#000000; stroke-linecap:round; stroke-linejoin:round; stroke-width:4; stroke-opacity:1; fill:none" points="147.478,1486.45 147.478,47.2441 "/>
<polyline clip-path="url(#clip130)" style="stroke:#000000; stroke-linecap:round; stroke-linejoin:round; stroke-width:4; stroke-opacity:1; fill:none" points="147.478,1486.45 166.376,1486.45 "/>
<polyline clip-path="url(#clip130)" style="stroke:#000000; stroke-linecap:round; stroke-linejoin:round; stroke-width:4; stroke-opacity:1; fill:none" points="147.478,1126.65 166.376,1126.65 "/>
<polyline clip-path="url(#clip130)" style="stroke:#000000; stroke-linecap:round; stroke-linejoin:round; stroke-width:4; stroke-opacity:1; fill:none" points="147.478,766.846 166.376,766.846 "/>
<polyline clip-path="url(#clip130)" style="stroke:#000000; stroke-linecap:round; stroke-linejoin:round; stroke-width:4; stroke-opacity:1; fill:none" points="147.478,407.045 166.376,407.045 "/>
<polyline clip-path="url(#clip130)" style="stroke:#000000; stroke-linecap:round; stroke-linejoin:round; stroke-width:4; stroke-opacity:1; fill:none" points="147.478,47.2441 166.376,47.2441 "/>
<path clip-path="url(#clip130)" d="M51.3625 1486.9 L81.0383 1486.9 L81.0383 1490.83 L51.3625 1490.83 L51.3625 1486.9 Z" fill="#000000" fill-rule="nonzero" fill-opacity="1" /><path clip-path="url(#clip130)" d="M95.1586 1499.79 L111.478 1499.79 L111.478 1503.73 L89.5336 1503.73 L89.5336 1499.79 Q92.1956 1497.04 96.7789 1492.41 Q101.385 1487.76 102.566 1486.41 Q104.811 1483.89 105.691 1482.15 Q106.594 1480.39 106.594 1478.7 Q106.594 1475.95 104.649 1474.21 Q102.728 1472.48 99.6261 1472.48 Q97.4271 1472.48 94.9734 1473.24 Q92.5428 1474.01 89.7651 1475.56 L89.7651 1470.83 Q92.5891 1469.7 95.0428 1469.12 Q97.4965 1468.54 99.5335 1468.54 Q104.904 1468.54 108.098 1471.23 Q111.293 1473.91 111.293 1478.4 Q111.293 1480.53 110.483 1482.45 Q109.696 1484.35 107.589 1486.95 Q107.01 1487.62 103.909 1490.83 Q100.807 1494.03 95.1586 1499.79 Z" fill="#000000" fill-rule="nonzero" fill-opacity="1" /><path clip-path="url(#clip130)" d="M50.9921 1127.1 L80.6679 1127.1 L80.6679 1131.03 L50.9921 1131.03 L50.9921 1127.1 Z" fill="#000000" fill-rule="nonzero" fill-opacity="1" /><path clip-path="url(#clip130)" d="M91.5706 1139.99 L99.2095 1139.99 L99.2095 1113.63 L90.8993 1115.29 L90.8993 1111.03 L99.1632 1109.37 L103.839 1109.37 L103.839 1139.99 L111.478 1139.99 L111.478 1143.93 L91.5706 1143.93 L91.5706 1139.99 Z" fill="#000000" fill-rule="nonzero" fill-opacity="1" /><path clip-path="url(#clip130)" d="M99.5335 752.645 Q95.9224 752.645 94.0937 756.209 Q92.2882 759.751 92.2882 766.881 Q92.2882 773.987 94.0937 777.552 Q95.9224 781.094 99.5335 781.094 Q103.168 781.094 104.973 777.552 Q106.802 773.987 106.802 766.881 Q106.802 759.751 104.973 756.209 Q103.168 752.645 99.5335 752.645 M99.5335 748.941 Q105.344 748.941 108.399 753.547 Q111.478 758.131 111.478 766.881 Q111.478 775.608 108.399 780.214 Q105.344 784.797 99.5335 784.797 Q93.7234 784.797 90.6447 780.214 Q87.5892 775.608 87.5892 766.881 Q87.5892 758.131 90.6447 753.547 Q93.7234 748.941 99.5335 748.941 Z" fill="#000000" fill-rule="nonzero" fill-opacity="1" /><path clip-path="url(#clip130)" d="M91.5706 420.39 L99.2095 420.39 L99.2095 394.024 L90.8993 395.691 L90.8993 391.432 L99.1632 389.765 L103.839 389.765 L103.839 420.39 L111.478 420.39 L111.478 424.325 L91.5706 424.325 L91.5706 420.39 Z" fill="#000000" fill-rule="nonzero" fill-opacity="1" /><path clip-path="url(#clip130)" d="M95.1586 60.5889 L111.478 60.5889 L111.478 64.5241 L89.5336 64.5241 L89.5336 60.5889 Q92.1956 57.8343 96.7789 53.2047 Q101.385 48.552 102.566 47.2094 Q104.811 44.6862 105.691 42.9501 Q106.594 41.1909 106.594 39.5011 Q106.594 36.7465 104.649 35.0104 Q102.728 33.2743 99.6261 33.2743 Q97.4271 33.2743 94.9734 34.0381 Q92.5428 34.802 89.7651 36.3529 L89.7651 31.6308 Q92.5891 30.4965 95.0428 29.9178 Q97.4965 29.3391 99.5335 29.3391 Q104.904 29.3391 108.098 32.0243 Q111.293 34.7094 111.293 39.2002 Q111.293 41.3298 110.483 43.2511 Q109.696 45.1492 107.589 47.7418 Q107.01 48.4131 103.909 51.6306 Q100.807 54.8251 95.1586 60.5889 Z" fill="#000000" fill-rule="nonzero" fill-opacity="1" /><circle clip-path="url(#clip132)" cx="1470.64" cy="622.926" r="14.4" fill="#009af9" fill-rule="evenodd" fill-opacity="1" stroke="#000000" stroke-opacity="1" stroke-width="3.2"/>
<circle clip-path="url(#clip132)" cx="1029.59" cy="910.766" r="14.4" fill="#009af9" fill-rule="evenodd" fill-opacity="1" stroke="#000000" stroke-opacity="1" stroke-width="3.2"/>
<circle clip-path="url(#clip132)" cx="1525.78" cy="586.946" r="14.4" fill="#e26f46" fill-rule="evenodd" fill-opacity="1" stroke="#000000" stroke-opacity="1" stroke-width="3.2"/>
<circle clip-path="url(#clip132)" cx="974.457" cy="946.746" r="14.4" fill="#e26f46" fill-rule="evenodd" fill-opacity="1" stroke="#000000" stroke-opacity="1" stroke-width="3.2"/>
<polyline clip-path="url(#clip132)" style="stroke:#090621; stroke-linecap:round; stroke-linejoin:round; stroke-width:4; stroke-opacity:1; fill:none" points="882.643,1006.71 904.846,1018.92 912.359,1021.25 927.122,1026.84 949.397,1031.18 971.673,1032.56 993.948,1031.75 1016.22,1028.3 1036.41,1021.25 1038.5,1020.68 1060.77,1010.78 1067.25,1006.71 1083.05,993.395 1084.48,992.176 1097.27,977.638 1102.84,963.101 1104.62,948.564 1103.58,934.026 1099.15,919.489 1088.71,904.951 1083.05,899.859 1072.85,890.414 1060.77,882.535 1046.3,875.877 1038.5,872.184 1016.22,865.373 993.948,862.481 971.673,861.799 949.397,862.96 927.122,866.596 904.846,874.944 902.978,875.877 882.571,886.188 876.334,890.414 861.172,904.951 860.295,906.315 849.496,919.489 844.213,934.026 842.966,948.564 845.087,963.101 851.731,977.638 860.295,987.273 863.859,992.176 882.571,1006.67 882.643,1006.71 "/>
<polyline clip-path="url(#clip132)" style="stroke:#1f0c47; stroke-linecap:round; stroke-linejoin:round; stroke-width:4; stroke-opacity:1; fill:none" points="909.41,1006.71 927.122,1014.31 949.397,1018.93 971.673,1020.41 993.948,1019.54 1016.22,1015.87 1038.5,1007.21 1039.46,1006.71 1060.77,994.048 1063.29,992.176 1077.62,977.638 1083.05,965.477 1084.5,963.101 1088.06,948.564 1085.97,934.026 1083.05,928.491 1079.72,919.489 1068.02,904.951 1060.77,899.25 1047.24,890.414 1038.5,885.682 1016.22,878.049 1002.43,875.877 993.948,873.971 971.673,872.607 949.397,874.929 945.756,875.877 927.122,879.42 904.846,888.776 901.978,890.414 882.571,904.325 881.803,904.951 868.542,919.489 862.912,934.026 861.584,948.564 863.844,963.101 870.923,977.638 882.571,989.197 885.595,992.176 904.846,1004.74 909.41,1006.71 "/>
<polyline clip-path="url(#clip132)" style="stroke:#3b0964; stroke-linecap:round; stroke-linejoin:round; stroke-width:4; stroke-opacity:1; fill:none" points="904.846,994.747 900.906,992.176 884.897,977.638 882.571,973.604 875.495,963.101 872.105,948.564 874.098,934.026 882.542,919.489 882.571,919.458 895.613,904.951 904.846,898.598 922.072,890.414 927.122,888.164 949.397,882.052 971.673,880.1 993.948,881.247 1016.22,886.108 1026.7,890.414 1038.5,895.375 1053.17,904.951 1060.77,912.65 1067.37,919.489 1074.82,934.026 1076.58,948.564 1073.59,963.101 1064.22,977.638 1060.77,980.934 1048.23,992.176 1038.5,998.202 1016.27,1006.71 1016.22,1006.73 993.948,1012.24 971.673,1013.54 949.397,1011.33 933.304,1006.71 927.122,1005.19 904.846,994.747 "/>
<polyline clip-path="url(#clip132)" style="stroke:#550f6d; stroke-linecap:round; stroke-linejoin:round; stroke-width:4; stroke-opacity:1; fill:none" points="927.122,998.685 914.339,992.176 904.846,985.981 894.872,977.638 885.575,963.101 882.607,948.564 884.351,934.026 891.744,919.489 904.846,907.606 908.447,904.951 927.122,894.924 943.839,890.414 949.397,888.758 971.673,886.156 993.948,887.685 1004.56,890.414 1016.22,893.02 1038.5,903.622 1040.54,904.951 1056.78,919.489 1060.77,927.099 1064.96,934.026 1067.3,948.564 1063.31,963.101 1060.77,966.728 1053.86,977.638 1038.5,989.826 1034.43,992.176 1016.22,1000.73 993.948,1005.55 971.673,1006.69 949.397,1004.75 927.122,998.685 "/>
<polyline clip-path="url(#clip132)" style="stroke:#6e186e; stroke-linecap:round; stroke-linejoin:round; stroke-width:4; stroke-opacity:1; fill:none" points="927.122,992.176 927.121,992.176 904.846,977.639 904.846,977.638 893.225,963.101 889.515,948.564 891.696,934.026 900.937,919.489 904.846,915.943 919.756,904.951 927.122,900.997 949.397,893.922 971.673,891.663 993.948,892.99 1016.22,898.617 1029.02,904.951 1038.5,911.139 1048.21,919.489 1056.83,934.026 1058.86,948.564 1055.4,963.101 1044.56,977.638 1038.5,982.445 1021.66,992.176 1016.22,994.727 993.948,1000.76 971.673,1002.18 949.397,999.76 927.122,992.176 "/>
<polyline clip-path="url(#clip132)" style="stroke:#88216a; stroke-linecap:round; stroke-linejoin:round; stroke-width:4; stroke-opacity:1; fill:none" points="949.397,994.767 941.786,992.176 927.122,986.741 913.173,977.638 904.846,968.068 900.876,963.101 896.423,948.564 899.04,934.026 904.846,925.608 909.257,919.489 927.122,906.846 931.646,904.951 949.397,898.579 971.673,895.869 993.948,897.462 1016.22,904.213 1017.71,904.951 1038.5,918.516 1039.63,919.489 1049.98,934.026 1052.42,948.564 1048.26,963.101 1038.5,974.685 1035.6,977.638 1016.22,989.297 1006.85,992.176 993.948,995.965 971.673,997.673 949.397,994.767 "/>
<polyline clip-path="url(#clip132)" style="stroke:#a12b61; stroke-linecap:round; stroke-linejoin:round; stroke-width:4; stroke-opacity:1; fill:none" points="971.673,993.164 964.698,992.176 949.397,990.171 927.122,981.307 921.501,977.638 907.918,963.101 904.846,953.115 903.331,948.564 904.846,941.129 906.13,934.026 916.932,919.489 927.122,912.277 944.621,904.951 949.397,903.237 971.673,900.074 993.948,901.933 1003.69,904.951 1016.22,909.297 1031.84,919.489 1038.5,927.667 1043.12,934.026 1045.97,948.564 1041.13,963.101 1038.5,966.218 1027.27,977.638 1016.22,984.289 993.948,991.338 983.065,992.176 971.673,993.164 "/>
<polyline clip-path="url(#clip132)" style="stroke:#ba3655; stroke-linecap:round; stroke-linejoin:round; stroke-width:4; stroke-opacity:1; fill:none" points="993.948,987.336 971.673,989.237 949.397,986.003 930.226,977.638 927.122,975.612 914.305,963.101 909.349,948.564 912.262,934.026 924.606,919.489 927.122,917.709 949.397,907.584 967.182,904.951 971.673,904.28 979.007,904.951 993.948,906.251 1016.22,914.303 1024.17,919.489 1036.51,934.026 1038.5,943.777 1039.53,948.564 1038.5,951.494 1034.47,963.101 1018.95,977.638 1016.22,979.28 993.948,987.336 "/>
<polyline clip-path="url(#clip132)" style="stroke:#d04544; stroke-linecap:round; stroke-linejoin:round; stroke-width:4; stroke-opacity:1; fill:none" points="993.948,983.335 971.673,985.473 949.397,981.834 939.78,977.638 927.122,969.377 920.692,963.101 915.117,948.564 918.393,934.026 927.122,924.152 933.041,919.489 949.397,911.75 971.673,908.113 993.948,910.25 1016.22,919.309 1016.5,919.489 1030.38,934.026 1033.65,948.564 1028.08,963.101 1016.22,973.776 1009.08,977.638 993.948,983.335 "/>
<polyline clip-path="url(#clip132)" style="stroke:#e35832; stroke-linecap:round; stroke-linejoin:round; stroke-width:4; stroke-opacity:1; fill:none" points="993.948,979.333 971.673,981.709 949.397,977.666 949.334,977.638 927.122,963.142 927.079,963.101 920.884,948.564 924.525,934.026 927.122,931.089 941.845,919.489 949.397,915.916 971.673,911.875 993.948,914.25 1006.78,919.489 1016.22,925.652 1024.25,934.026 1027.89,948.564 1021.7,963.101 1016.22,968.029 998.449,977.638 993.948,979.333 "/>
<polyline clip-path="url(#clip132)" style="stroke:#f0701e; stroke-linecap:round; stroke-linejoin:round; stroke-width:4; stroke-opacity:1; fill:none" points="993.948,974.992 974.432,977.638 971.673,977.945 969.983,977.638 949.397,972.888 934.401,963.101 927.122,949.666 926.651,948.564 927.122,946.763 931.177,934.026 949.397,920.246 952.115,919.489 971.673,915.637 993.948,918.249 996.985,919.489 1016.22,932.045 1018.12,934.026 1022.13,948.564 1016.22,961.327 1015.06,963.101 993.948,974.992 "/>
<polyline clip-path="url(#clip132)" style="stroke:#f98c09; stroke-linecap:round; stroke-linejoin:round; stroke-width:4; stroke-opacity:1; fill:none" points="993.948,970.401 971.673,973.672 949.397,968.106 941.728,963.101 933.199,948.564 938.212,934.026 949.397,925.566 971.215,919.489 971.673,919.399 972.421,919.489 993.948,923.013 1010.82,934.026 1016.22,948.075 1016.36,948.564 1016.22,948.863 1006.91,963.101 993.948,970.401 "/>
<polyline clip-path="url(#clip132)" style="stroke:#fbaa0e; stroke-linecap:round; stroke-linejoin:round; stroke-width:4; stroke-opacity:1; fill:none" points="993.948,965.81 971.673,969.354 949.397,963.324 949.056,963.101 939.816,948.564 945.246,934.026 949.397,930.887 971.673,924.178 993.948,928.121 1003,934.026 1009.04,948.564 998.759,963.101 993.948,965.81 "/>
<polyline clip-path="url(#clip132)" style="stroke:#f8c931; stroke-linecap:round; stroke-linejoin:round; stroke-width:4; stroke-opacity:1; fill:none" points="993.948,959.019 983.305,963.101 971.673,965.036 964.551,963.101 949.397,953.211 946.433,948.564 949.397,940.972 955.652,934.026 971.673,928.982 993.948,933.228 995.171,934.026 1001.68,948.564 993.948,959.019 "/>
<polyline clip-path="url(#clip132)" style="stroke:#f1e864; stroke-linecap:round; stroke-linejoin:round; stroke-width:4; stroke-opacity:1; fill:none" points="993.948,949.06 971.673,957.931 957.32,948.564 970.911,934.026 971.673,933.787 972.916,934.026 993.948,947.752 994.316,948.564 993.948,949.06 "/>
<polyline clip-path="url(#clip132)" style="stroke:#090621; stroke-linecap:round; stroke-linejoin:round; stroke-width:4; stroke-opacity:1; fill:none" points="1461.73,661.508 1453.93,657.815 1439.46,651.157 1427.39,643.278 1417.18,633.833 1411.53,628.741 1401.09,614.203 1396.66,599.666 1395.61,585.128 1397.39,570.591 1402.96,556.054 1415.76,541.516 1417.18,540.297 1432.98,526.979 1439.46,522.909 1461.73,513.014 1463.82,512.441 1484.01,505.394 1506.29,501.946 1528.56,501.132 1550.84,502.516 1573.11,506.852 1587.87,512.441 1595.39,514.767 1617.59,526.979 1617.66,527.026 1636.37,541.516 1639.94,546.419 1648.5,556.054 1655.15,570.591 1657.27,585.128 1656.02,599.666 1650.74,614.203 1639.94,627.377 1639.06,628.741 1623.9,643.278 1617.66,647.504 1597.26,657.815 1595.39,658.747 1573.11,667.096 1550.84,670.732 1528.56,671.893 1506.29,671.211 1484.01,668.319 1461.73,661.508 "/>
<polyline clip-path="url(#clip132)" style="stroke:#1f0c47; stroke-linecap:round; stroke-linejoin:round; stroke-width:4; stroke-opacity:1; fill:none" points="1497.8,657.815 1506.29,659.721 1528.56,661.085 1550.84,658.763 1554.48,657.815 1573.11,654.272 1595.39,644.916 1598.26,643.278 1617.66,629.367 1618.43,628.741 1631.69,614.203 1637.32,599.666 1638.65,585.128 1636.39,570.591 1629.31,556.054 1617.66,544.495 1614.64,541.516 1595.39,528.953 1590.82,526.979 1573.11,519.377 1550.84,514.757 1528.56,513.282 1506.29,514.149 1484.01,517.823 1461.73,526.478 1460.77,526.979 1439.46,539.644 1436.95,541.516 1422.61,556.054 1417.18,568.215 1415.73,570.591 1412.17,585.128 1414.26,599.666 1417.18,605.201 1420.51,614.203 1432.21,628.741 1439.46,634.442 1453,643.278 1461.73,648.01 1484.01,655.643 1497.8,657.815 "/>
<polyline clip-path="url(#clip132)" style="stroke:#3b0964; stroke-linecap:round; stroke-linejoin:round; stroke-width:4; stroke-opacity:1; fill:none" points="1484.01,647.584 1473.53,643.278 1461.73,638.317 1447.06,628.741 1439.46,621.042 1432.86,614.203 1425.41,599.666 1423.66,585.128 1426.65,570.591 1436.01,556.054 1439.46,552.758 1452,541.516 1461.73,535.49 1483.96,526.979 1484.01,526.96 1506.29,521.449 1528.56,520.149 1550.84,522.361 1566.93,526.979 1573.11,528.497 1595.39,538.945 1599.33,541.516 1615.34,556.054 1617.66,560.088 1624.74,570.591 1628.13,585.128 1626.14,599.666 1617.69,614.203 1617.66,614.234 1604.62,628.741 1595.39,635.094 1578.16,643.278 1573.11,645.528 1550.84,651.64 1528.56,653.592 1506.29,652.445 1484.01,647.584 "/>
<polyline clip-path="url(#clip132)" style="stroke:#550f6d; stroke-linecap:round; stroke-linejoin:round; stroke-width:4; stroke-opacity:1; fill:none" points="1506.29,646.007 1495.67,643.278 1484.01,640.672 1461.73,630.069 1459.7,628.741 1443.45,614.203 1439.46,606.593 1435.28,599.666 1432.93,585.128 1436.92,570.591 1439.46,566.964 1446.37,556.054 1461.73,543.866 1465.8,541.516 1484.01,532.966 1506.29,528.141 1528.56,527.002 1550.84,528.94 1573.11,535.007 1585.89,541.516 1595.39,547.711 1605.36,556.054 1614.66,570.591 1617.63,585.128 1615.88,599.666 1608.49,614.203 1595.39,626.086 1591.79,628.741 1573.11,638.768 1556.39,643.278 1550.84,644.934 1528.56,647.536 1506.29,646.007 "/>
<polyline clip-path="url(#clip132)" style="stroke:#6e186e; stroke-linecap:round; stroke-linejoin:round; stroke-width:4; stroke-opacity:1; fill:none" points="1528.56,642.029 1506.29,640.702 1484.01,635.075 1471.22,628.741 1461.73,622.553 1452.03,614.203 1443.41,599.666 1441.37,585.128 1444.83,570.591 1455.67,556.054 1461.73,551.247 1478.58,541.516 1484.01,538.965 1506.29,532.934 1528.56,531.511 1550.84,533.932 1573.11,541.516 1573.11,541.516 1595.39,556.053 1595.39,556.054 1607.01,570.591 1610.72,585.128 1608.54,599.666 1599.3,614.203 1595.39,617.749 1580.48,628.741 1573.11,632.695 1550.84,639.77 1528.56,642.029 "/>
<polyline clip-path="url(#clip132)" style="stroke:#88216a; stroke-linecap:round; stroke-linejoin:round; stroke-width:4; stroke-opacity:1; fill:none" points="1528.56,637.823 1506.29,636.23 1484.01,629.479 1482.52,628.741 1461.73,615.176 1460.6,614.203 1450.26,599.666 1447.82,585.128 1451.97,570.591 1461.73,559.007 1464.64,556.054 1484.01,544.395 1493.39,541.516 1506.29,537.727 1528.56,536.019 1550.84,538.925 1558.45,541.516 1573.11,546.951 1587.06,556.054 1595.39,565.624 1599.36,570.591 1603.81,585.128 1601.19,599.666 1595.39,608.083 1590.98,614.203 1573.11,626.846 1568.59,628.741 1550.84,635.113 1528.56,637.823 "/>
<polyline clip-path="url(#clip132)" style="stroke:#a12b61; stroke-linecap:round; stroke-linejoin:round; stroke-width:4; stroke-opacity:1; fill:none" points="1528.56,633.617 1506.29,631.759 1496.54,628.741 1484.01,624.395 1468.39,614.203 1461.73,606.025 1457.11,599.666 1454.26,585.128 1459.11,570.591 1461.73,567.474 1472.96,556.054 1484.01,549.403 1506.29,542.354 1517.17,541.516 1528.56,540.528 1535.54,541.516 1550.84,543.521 1573.11,552.385 1578.73,556.054 1592.32,570.591 1595.39,580.577 1596.9,585.128 1595.39,592.563 1594.1,599.666 1583.3,614.203 1573.11,621.415 1555.61,628.741 1550.84,630.455 1528.56,633.617 "/>
<polyline clip-path="url(#clip132)" style="stroke:#ba3655; stroke-linecap:round; stroke-linejoin:round; stroke-width:4; stroke-opacity:1; fill:none" points="1528.56,629.412 1521.23,628.741 1506.29,627.441 1484.01,619.389 1476.06,614.203 1463.73,599.666 1461.73,589.915 1460.71,585.128 1461.73,582.198 1465.77,570.591 1481.28,556.054 1484.01,554.412 1506.29,546.356 1528.56,544.455 1550.84,547.689 1570.01,556.054 1573.11,558.08 1585.93,570.591 1590.88,585.128 1587.97,599.666 1575.63,614.203 1573.11,615.983 1550.84,626.108 1533.05,628.741 1528.56,629.412 "/>
<polyline clip-path="url(#clip132)" style="stroke:#d04544; stroke-linecap:round; stroke-linejoin:round; stroke-width:4; stroke-opacity:1; fill:none" points="1550.84,621.942 1528.56,625.579 1506.29,623.442 1484.01,614.383 1483.73,614.203 1469.85,599.666 1466.58,585.128 1472.15,570.591 1484.01,559.916 1491.16,556.054 1506.29,550.357 1528.56,548.219 1550.84,551.858 1560.45,556.054 1573.11,564.315 1579.54,570.591 1585.12,585.128 1581.84,599.666 1573.11,609.54 1567.19,614.203 1550.84,621.942 "/>
<polyline clip-path="url(#clip132)" style="stroke:#e35832; stroke-linecap:round; stroke-linejoin:round; stroke-width:4; stroke-opacity:1; fill:none" points="1550.84,617.776 1528.56,621.817 1506.29,619.442 1493.45,614.203 1484.01,608.04 1475.98,599.666 1472.34,585.128 1478.54,570.591 1484.01,565.663 1501.78,556.054 1506.29,554.359 1528.56,551.983 1550.84,556.026 1550.9,556.054 1573.11,570.55 1573.15,570.591 1579.35,585.128 1575.71,599.666 1573.11,602.603 1558.39,614.203 1550.84,617.776 "/>
<polyline clip-path="url(#clip132)" style="stroke:#f0701e; stroke-linecap:round; stroke-linejoin:round; stroke-width:4; stroke-opacity:1; fill:none" points="1550.84,613.446 1548.12,614.203 1528.56,618.055 1506.29,615.443 1503.25,614.203 1484.01,601.647 1482.11,599.666 1478.11,585.128 1484.01,572.365 1485.17,570.591 1506.29,558.7 1525.8,556.054 1528.56,555.747 1530.25,556.054 1550.84,560.804 1565.83,570.591 1573.11,584.026 1573.58,585.128 1573.11,586.929 1569.06,599.666 1550.84,613.446 "/>
<polyline clip-path="url(#clip132)" style="stroke:#f98c09; stroke-linecap:round; stroke-linejoin:round; stroke-width:4; stroke-opacity:1; fill:none" points="1550.84,608.126 1529.02,614.203 1528.56,614.293 1527.81,614.203 1506.29,610.679 1489.41,599.666 1484.01,585.617 1483.87,585.128 1484.01,584.829 1493.32,570.591 1506.29,563.291 1528.56,560.02 1550.84,565.586 1558.51,570.591 1567.03,585.128 1562.02,599.666 1550.84,608.126 "/>
<polyline clip-path="url(#clip132)" style="stroke:#fbaa0e; stroke-linecap:round; stroke-linejoin:round; stroke-width:4; stroke-opacity:1; fill:none" points="1550.84,602.805 1528.56,609.514 1506.29,605.571 1497.24,599.666 1491.2,585.128 1501.48,570.591 1506.29,567.882 1528.56,564.338 1550.84,570.368 1551.18,570.591 1560.42,585.128 1554.99,599.666 1550.84,602.805 "/>
<polyline clip-path="url(#clip132)" style="stroke:#f8c931; stroke-linecap:round; stroke-linejoin:round; stroke-width:4; stroke-opacity:1; fill:none" points="1550.84,592.72 1544.58,599.666 1528.56,604.71 1506.29,600.464 1505.06,599.666 1498.56,585.128 1506.29,574.673 1516.93,570.591 1528.56,568.656 1535.68,570.591 1550.84,580.481 1553.8,585.128 1550.84,592.72 "/>
<polyline clip-path="url(#clip132)" style="stroke:#f1e864; stroke-linecap:round; stroke-linejoin:round; stroke-width:4; stroke-opacity:1; fill:none" points="1542.91,585.128 1529.32,599.666 1528.56,599.905 1527.32,599.666 1506.29,585.94 1505.92,585.128 1506.29,584.632 1528.56,575.761 1542.91,585.128 "/>
<polyline clip-path="url(#clip132)" style="stroke:#090621; stroke-linecap:round; stroke-linejoin:round; stroke-width:4; stroke-opacity:1; fill:none" points="1099.1,875.877 1105.33,879.502 1127.6,890.05 1128.55,890.414 1149.88,898.77 1172.15,904.634 1173.81,904.951 1194.43,909.579 1216.7,912.617 1238.98,914.045 1261.25,914.045 1283.53,912.617 1305.81,909.579 1326.43,904.951 1328.08,904.634 1350.36,898.77 1371.68,890.414 1372.63,890.05 1394.91,879.502 1401.13,875.877 1417.18,865.403 1422.74,861.339 1438.9,846.802 1439.46,846.18 1452.26,832.264 1461.25,817.727 1461.73,816.647 1468.83,803.19 1473.48,788.652 1475.67,774.115 1475.67,759.577 1473.48,745.04 1468.83,730.502 1461.73,717.045 1461.25,715.965 1452.26,701.428 1439.46,687.512 1438.9,686.89 1422.74,672.353 1417.18,668.289 1401.13,657.815 1394.91,654.19 1372.63,643.642 1371.68,643.278 1350.36,634.922 1328.08,629.058 1326.43,628.741 1305.81,624.113 1283.53,621.075 1261.25,619.647 1238.98,619.647 1216.7,621.075 1194.43,624.113 1173.81,628.741 1172.15,629.058 1149.88,634.922 1128.55,643.278 1127.6,643.642 1105.33,654.19 1099.1,657.815 1083.05,668.289 1077.5,672.353 1061.33,686.89 1060.77,687.512 1047.97,701.428 1038.99,715.965 1038.5,717.045 1031.41,730.502 1026.75,745.04 1024.57,759.577 1024.57,774.115 1026.75,788.652 1031.41,803.19 1038.5,816.647 1038.99,817.727 1047.97,832.264 1060.77,846.18 1061.33,846.802 1077.5,861.339 1083.05,865.403 1099.1,875.877 "/>
<polyline clip-path="url(#clip132)" style="stroke:#1f0c47; stroke-linecap:round; stroke-linejoin:round; stroke-width:4; stroke-opacity:1; fill:none" points="1136.93,861.339 1149.88,867.614 1172.15,875.48 1173.69,875.877 1194.43,881.475 1216.7,885.126 1238.98,886.844 1261.25,886.844 1283.53,885.126 1305.81,881.475 1326.54,875.877 1328.08,875.48 1350.36,867.614 1363.3,861.339 1372.63,856.371 1387.29,846.802 1394.91,840.712 1404.52,832.264 1416.58,817.727 1417.18,816.721 1425.76,803.19 1431.36,788.652 1433.99,774.115 1433.99,759.577 1431.36,745.04 1425.76,730.502 1417.18,716.971 1416.58,715.965 1404.52,701.428 1394.91,692.98 1387.29,686.89 1372.63,677.321 1363.3,672.353 1350.36,666.078 1328.08,658.212 1326.54,657.815 1305.81,652.217 1283.53,648.565 1261.25,646.848 1238.98,646.848 1216.7,648.565 1194.43,652.217 1173.69,657.815 1172.15,658.212 1149.88,666.078 1136.93,672.353 1127.6,677.321 1112.94,686.89 1105.33,692.98 1095.71,701.428 1083.66,715.965 1083.05,716.971 1074.47,730.502 1068.88,745.04 1066.25,759.577 1066.25,774.115 1068.88,788.652 1074.47,803.19 1083.05,816.721 1083.66,817.727 1095.71,832.264 1105.33,840.712 1112.94,846.802 1127.6,856.371 1136.93,861.339 "/>
<polyline clip-path="url(#clip132)" style="stroke:#3b0964; stroke-linecap:round; stroke-linejoin:round; stroke-width:4; stroke-opacity:1; fill:none" points="1155.94,846.802 1172.15,854.14 1194.43,861.007 1196.09,861.339 1216.7,865.583 1238.98,867.753 1261.25,867.753 1283.53,865.583 1304.15,861.339 1305.81,861.007 1328.08,854.14 1344.3,846.802 1350.36,843.703 1367.88,832.264 1372.63,828.308 1383.88,817.727 1394.4,803.19 1394.91,802.107 1401.41,788.652 1404.74,774.115 1404.74,759.577 1401.41,745.04 1394.91,731.585 1394.4,730.502 1383.88,715.965 1372.63,705.384 1367.88,701.428 1350.36,689.989 1344.3,686.89 1328.08,679.552 1305.81,672.685 1304.15,672.353 1283.53,668.109 1261.25,665.939 1238.98,665.939 1216.7,668.109 1196.09,672.353 1194.43,672.685 1172.15,679.552 1155.94,686.89 1149.88,689.989 1132.35,701.428 1127.6,705.384 1116.36,715.965 1105.83,730.502 1105.33,731.585 1098.82,745.04 1095.5,759.577 1095.5,774.115 1098.82,788.652 1105.33,802.107 1105.83,803.19 1116.36,817.727 1127.6,828.308 1132.35,832.264 1149.88,843.703 1155.94,846.802 "/>
<polyline clip-path="url(#clip132)" style="stroke:#550f6d; stroke-linecap:round; stroke-linejoin:round; stroke-width:4; stroke-opacity:1; fill:none" points="1172.15,834.783 1167.42,832.264 1149.88,820.813 1146.02,817.727 1132.56,803.19 1127.6,794.583 1124.32,788.652 1120.35,774.115 1120.35,759.577 1124.32,745.04 1127.6,739.109 1132.56,730.502 1146.02,715.965 1149.88,712.879 1167.42,701.428 1172.15,698.909 1194.43,690.124 1207.62,686.89 1216.7,684.75 1238.98,682.159 1261.25,682.159 1283.53,684.75 1292.62,686.89 1305.81,690.124 1328.08,698.909 1332.81,701.428 1350.36,712.879 1354.22,715.965 1367.68,730.502 1372.63,739.109 1375.91,745.04 1379.88,759.577 1379.88,774.115 1375.91,788.652 1372.63,794.583 1367.68,803.19 1354.22,817.727 1350.36,820.813 1332.81,832.264 1328.08,834.783 1305.81,843.568 1292.62,846.802 1283.53,848.942 1261.25,851.533 1238.98,851.533 1216.7,848.942 1207.62,846.802 1194.43,843.568 1172.15,834.783 "/>
<polyline clip-path="url(#clip132)" style="stroke:#6e186e; stroke-linecap:round; stroke-linejoin:round; stroke-width:4; stroke-opacity:1; fill:none" points="1212.92,832.264 1216.7,833.314 1238.98,836.422 1261.25,836.422 1283.53,833.314 1287.32,832.264 1305.81,826.478 1323.33,817.727 1328.08,814.627 1341.49,803.19 1350.36,791.124 1351.97,788.652 1356.73,774.115 1356.73,759.577 1351.97,745.04 1350.36,742.568 1341.49,730.502 1328.08,719.065 1323.33,715.965 1305.81,707.214 1287.32,701.428 1283.53,700.378 1261.25,697.27 1238.98,697.27 1216.7,700.378 1212.92,701.428 1194.43,707.214 1176.9,715.965 1172.15,719.065 1158.74,730.502 1149.88,742.568 1148.27,745.04 1143.51,759.577 1143.51,774.115 1148.27,788.652 1149.88,791.124 1158.74,803.19 1172.15,814.627 1176.9,817.727 1194.43,826.478 1212.92,832.264 "/>
<polyline clip-path="url(#clip132)" style="stroke:#88216a; stroke-linecap:round; stroke-linejoin:round; stroke-width:4; stroke-opacity:1; fill:none" points="1219.74,817.727 1238.98,821.061 1261.25,821.061 1280.5,817.727 1283.53,817.094 1305.81,807.548 1312.48,803.19 1327.11,788.652 1328.08,786.673 1333.19,774.115 1333.19,759.577 1328.08,747.019 1327.11,745.04 1312.48,730.502 1305.81,726.144 1283.53,716.598 1280.5,715.965 1261.25,712.631 1238.98,712.631 1219.74,715.965 1216.7,716.598 1194.43,726.144 1187.75,730.502 1173.12,745.04 1172.15,747.019 1167.04,759.577 1167.04,774.115 1172.15,786.673 1173.12,788.652 1187.75,803.19 1194.43,807.548 1216.7,817.094 1219.74,817.727 "/>
<polyline clip-path="url(#clip132)" style="stroke:#a12b61; stroke-linecap:round; stroke-linejoin:round; stroke-width:4; stroke-opacity:1; fill:none" points="1238.98,803.623 1237.06,803.19 1216.7,796.681 1204.4,788.652 1194.43,775.364 1193.76,774.115 1193.76,759.577 1194.43,758.328 1204.4,745.04 1216.7,737.011 1237.06,730.502 1238.98,730.069 1261.25,730.069 1263.17,730.502 1283.53,737.011 1295.83,745.04 1305.81,758.328 1306.47,759.577 1306.47,774.115 1305.81,775.364 1295.83,788.652 1283.53,796.681 1263.17,803.19 1261.25,803.623 1238.98,803.623 "/>
</svg>
