<?xml version="1.0" encoding="utf-8"?>
<svg xmlns="http://www.w3.org/2000/svg" xmlns:xlink="http://www.w3.org/1999/xlink" width="600" height="400" viewBox="0 0 2400 1600">
<defs>
  <clipPath id="clip860">
    <rect x="0" y="0" width="2400" height="1600"/>
  </clipPath>
</defs>
<path clip-path="url(#clip860)" d="M0 1600 L2400 1600 L2400 0 L0 0  Z" fill="#ffffff" fill-rule="evenodd" fill-opacity="1"/>
<defs>
  <clipPath id="clip861">
    <rect x="480" y="0" width="1681" height="1600"/>
  </clipPath>
</defs>
<path clip-path="url(#clip860)" d="M147.478 1486.45 L2112.76 1486.45 L2112.76 47.2441 L147.478 47.2441  Z" fill="#ffffff" fill-rule="evenodd" fill-opacity="1"/>
<defs>
  <clipPath id="clip862">
    <rect x="147" y="47" width="1966" height="1440"/>
  </clipPath>
</defs>
<polyline clip-path="url(#clip862)" style="stroke:#000000; stroke-linecap:round; stroke-linejoin:round; stroke-width:2; stroke-opacity:0.1; fill:none" points="147.478,1486.45 147.478,47.2441 "/>
<polyline clip-path="url(#clip862)" style="stroke:#000000; stroke-linecap:round; stroke-linejoin:round; stroke-width:2; stroke-opacity:0.1; fill:none" points="638.797,1486.45 638.797,47.2441 "/>
<polyline clip-path="url(#clip862)" style="stroke:#000000; stroke-linecap:round; stroke-linejoin:round; stroke-width:2; stroke-opacity:0.1; fill:none" points="1130.12,1486.45 1130.12,47.2441 "/>
<polyline clip-path="url(#clip862)" style="stroke:#000000; stroke-linecap:round; stroke-linejoin:round; stroke-width:2; stroke-opacity:0.1; fill:none" points="1621.44,1486.45 1621.44,47.2441 "/>
<polyline clip-path="url(#clip862)" style="stroke:#000000; stroke-linecap:round; stroke-linejoin:round; stroke-width:2; stroke-opacity:0.1; fill:none" points="2112.76,1486.45 2112.76,47.2441 "/>
<polyline clip-path="url(#clip862)" style="stroke:#000000; stroke-linecap:round; stroke-linejoin:round; stroke-width:2; stroke-opacity:0.1; fill:none" points="147.478,1486.45 2112.76,1486.45 "/>
<polyline clip-path="url(#clip862)" style="stroke:#000000; stroke-linecap:round; stroke-linejoin:round; stroke-width:2; stroke-opacity:0.1; fill:none" points="147.478,1126.65 2112.76,1126.65 "/>
<polyline clip-path="url(#clip862)" style="stroke:#000000; stroke-linecap:round; stroke-linejoin:round; stroke-width:2; stroke-opacity:0.1; fill:none" points="147.478,766.846 2112.76,766.846 "/>
<polyline clip-path="url(#clip862)" style="stroke:#000000; stroke-linecap:round; stroke-linejoin:round; stroke-width:2; stroke-opacity:0.1; fill:none" points="147.478,407.045 2112.76,407.045 "/>
<polyline clip-path="url(#clip862)" style="stroke:#000000; stroke-linecap:round; stroke-linejoin:round; stroke-width:2; stroke-opacity:0.1; fill:none" points="147.478,47.2441 2112.76,47.2441 "/>
<polyline clip-path="url(#clip860)" style="stroke:#000000; stroke-linecap:round; stroke-linejoin:round; stroke-width:4; stroke-opacity:1; fill:none" points="147.478,1486.45 2112.76,1486.45 "/>
<polyline clip-path="url(#clip860)" style="stroke:#000000; stroke-linecap:round; stroke-linejoin:round; stroke-width:4; stroke-opacity:1; fill:none" points="147.478,1486.45 147.478,1467.55 "/>
<polyline clip-path="url(#clip860)" style="stroke:#000000; stroke-linecap:round; stroke-linejoin:round; stroke-width:4; stroke-opacity:1; fill:none" points="638.797,1486.45 638.797,1467.55 "/>
<polyline clip-path="url(#clip860)" style="stroke:#000000; stroke-linecap:round; stroke-linejoin:round; stroke-width:4; stroke-opacity:1; fill:none" points="1130.12,1486.45 1130.12,1467.55 "/>
<polyline clip-path="url(#clip860)" style="stroke:#000000; stroke-linecap:round; stroke-linejoin:round; stroke-width:4; stroke-opacity:1; fill:none" points="1621.44,1486.45 1621.44,1467.55 "/>
<polyline clip-path="url(#clip860)" style="stroke:#000000; stroke-linecap:round; stroke-linejoin:round; stroke-width:4; stroke-opacity:1; fill:none" points="2112.76,1486.45 2112.76,1467.55 "/>
<path clip-path="url(#clip860)" d="M117.42 1532.02 L147.096 1532.02 L147.096 1535.95 L117.42 1535.95 L117.42 1532.02 Z" fill="#000000" fill-rule="nonzero" fill-opacity="1" /><path clip-path="url(#clip860)" d="M161.216 1544.91 L177.536 1544.91 L177.536 1548.85 L155.591 1548.85 L155.591 1544.91 Q158.253 1542.16 162.837 1537.53 Q167.443 1532.88 168.624 1531.53 Q170.869 1529.01 171.749 1527.27 Q172.651 1525.51 172.651 1523.82 Q172.651 1521.07 170.707 1519.33 Q168.786 1517.6 165.684 1517.6 Q163.485 1517.6 161.031 1518.36 Q158.601 1519.13 155.823 1520.68 L155.823 1515.95 Q158.647 1514.82 161.101 1514.24 Q163.554 1513.66 165.591 1513.66 Q170.962 1513.66 174.156 1516.35 Q177.35 1519.03 177.35 1523.52 Q177.35 1525.65 176.54 1527.57 Q175.753 1529.47 173.647 1532.07 Q173.068 1532.74 169.966 1535.95 Q166.864 1539.15 161.216 1544.91 Z" fill="#000000" fill-rule="nonzero" fill-opacity="1" /><path clip-path="url(#clip860)" d="M608.555 1532.02 L638.23 1532.02 L638.23 1535.95 L608.555 1535.95 L608.555 1532.02 Z" fill="#000000" fill-rule="nonzero" fill-opacity="1" /><path clip-path="url(#clip860)" d="M649.133 1544.91 L656.772 1544.91 L656.772 1518.55 L648.462 1520.21 L648.462 1515.95 L656.726 1514.29 L661.401 1514.29 L661.401 1544.91 L669.04 1544.91 L669.04 1548.85 L649.133 1548.85 L649.133 1544.91 Z" fill="#000000" fill-rule="nonzero" fill-opacity="1" /><path clip-path="url(#clip860)" d="M1130.12 1517.37 Q1126.51 1517.37 1124.68 1520.93 Q1122.87 1524.47 1122.87 1531.6 Q1122.87 1538.71 1124.68 1542.27 Q1126.51 1545.82 1130.12 1545.82 Q1133.75 1545.82 1135.56 1542.27 Q1137.39 1538.71 1137.39 1531.6 Q1137.39 1524.47 1135.56 1520.93 Q1133.75 1517.37 1130.12 1517.37 M1130.12 1513.66 Q1135.93 1513.66 1138.98 1518.27 Q1142.06 1522.85 1142.06 1531.6 Q1142.06 1540.33 1138.98 1544.94 Q1135.93 1549.52 1130.12 1549.52 Q1124.31 1549.52 1121.23 1544.94 Q1118.17 1540.33 1118.17 1531.6 Q1118.17 1522.85 1121.23 1518.27 Q1124.31 1513.66 1130.12 1513.66 Z" fill="#000000" fill-rule="nonzero" fill-opacity="1" /><path clip-path="url(#clip860)" d="M1611.82 1544.91 L1619.46 1544.91 L1619.46 1518.55 L1611.15 1520.21 L1611.15 1515.95 L1619.41 1514.29 L1624.09 1514.29 L1624.09 1544.91 L1631.73 1544.91 L1631.73 1548.85 L1611.82 1548.85 L1611.82 1544.91 Z" fill="#000000" fill-rule="nonzero" fill-opacity="1" /><path clip-path="url(#clip860)" d="M2107.41 1544.91 L2123.73 1544.91 L2123.73 1548.85 L2101.78 1548.85 L2101.78 1544.91 Q2104.45 1542.16 2109.03 1537.53 Q2113.64 1532.88 2114.82 1531.53 Q2117.06 1529.01 2117.94 1527.27 Q2118.84 1525.51 2118.84 1523.82 Q2118.84 1521.07 2116.9 1519.33 Q2114.98 1517.6 2111.88 1517.6 Q2109.68 1517.6 2107.22 1518.36 Q2104.79 1519.13 2102.02 1520.68 L2102.02 1515.95 Q2104.84 1514.82 2107.29 1514.24 Q2109.75 1513.66 2111.78 1513.66 Q2117.15 1513.66 2120.35 1516.35 Q2123.54 1519.03 2123.54 1523.52 Q2123.54 1525.65 2122.73 1527.57 Q2121.95 1529.47 2119.84 1532.07 Q2119.26 1532.74 2116.16 1535.95 Q2113.06 1539.15 2107.41 1544.91 Z" fill="#000000" fill-rule="nonzero" fill-opacity="1" /><polyline clip-path="url(#clip860)" style="stroke:#000000; stroke-linecap:round; stroke-linejoin:round; stroke-width:4; stroke-opacity:1; fill:none" points="147.478,1486.45 147.478,47.2441 "/>
<polyline clip-path="url(#clip860)" style="stroke:#000000; stroke-linecap:round; stroke-linejoin:round; stroke-width:4; stroke-opacity:1; fill:none" points="147.478,1486.45 164.319,1486.45 "/>
<polyline clip-path="url(#clip860)" style="stroke:#000000; stroke-linecap:round; stroke-linejoin:round; stroke-width:4; stroke-opacity:1; fill:none" points="147.478,1126.65 164.319,1126.65 "/>
<polyline clip-path="url(#clip860)" style="stroke:#000000; stroke-linecap:round; stroke-linejoin:round; stroke-width:4; stroke-opacity:1; fill:none" points="147.478,766.846 164.319,766.846 "/>
<polyline clip-path="url(#clip860)" style="stroke:#000000; stroke-linecap:round; stroke-linejoin:round; stroke-width:4; stroke-opacity:1; fill:none" points="147.478,407.045 164.319,407.045 "/>
<polyline clip-path="url(#clip860)" style="stroke:#000000; stroke-linecap:round; stroke-linejoin:round; stroke-width:4; stroke-opacity:1; fill:none" points="147.478,47.2441 164.319,47.2441 "/>
<path clip-path="url(#clip860)" d="M51.3625 1486.9 L81.0383 1486.9 L81.0383 1490.83 L51.3625 1490.83 L51.3625 1486.9 Z" fill="#000000" fill-rule="nonzero" fill-opacity="1" /><path clip-path="url(#clip860)" d="M95.1586 1499.79 L111.478 1499.79 L111.478 1503.73 L89.5336 1503.73 L89.5336 1499.79 Q92.1956 1497.04 96.7789 1492.41 Q101.385 1487.76 102.566 1486.41 Q104.811 1483.89 105.691 1482.15 Q106.594 1480.39 106.594 1478.7 Q106.594 1475.95 104.649 1474.21 Q102.728 1472.48 99.6261 1472.48 Q97.4271 1472.48 94.9734 1473.24 Q92.5428 1474.01 89.7651 1475.56 L89.7651 1470.83 Q92.5891 1469.7 95.0428 1469.12 Q97.4965 1468.54 99.5335 1468.54 Q104.904 1468.54 108.098 1471.23 Q111.293 1473.91 111.293 1478.4 Q111.293 1480.53 110.483 1482.45 Q109.696 1484.35 107.589 1486.95 Q107.01 1487.62 103.909 1490.83 Q100.807 1494.03 95.1586 1499.79 Z" fill="#000000" fill-rule="nonzero" fill-opacity="1" /><path clip-path="url(#clip860)" d="M50.9921 1127.1 L80.6679 1127.1 L80.6679 1131.03 L50.9921 1131.03 L50.9921 1127.1 Z" fill="#000000" fill-rule="nonzero" fill-opacity="1" /><path clip-path="url(#clip860)" d="M91.5706 1139.99 L99.2095 1139.99 L99.2095 1113.63 L90.8993 1115.29 L90.8993 1111.03 L99.1632 1109.37 L103.839 1109.37 L103.839 1139.99 L111.478 1139.99 L111.478 1143.93 L91.5706 1143.93 L91.5706 1139.99 Z" fill="#000000" fill-rule="nonzero" fill-opacity="1" /><path clip-path="url(#clip860)" d="M99.5335 752.645 Q95.9224 752.645 94.0937 756.209 Q92.2882 759.751 92.2882 766.881 Q92.2882 773.987 94.0937 777.552 Q95.9224 781.094 99.5335 781.094 Q103.168 781.094 104.973 777.552 Q106.802 773.987 106.802 766.881 Q106.802 759.751 104.973 756.209 Q103.168 752.645 99.5335 752.645 M99.5335 748.941 Q105.344 748.941 108.399 753.547 Q111.478 758.131 111.478 766.881 Q111.478 775.608 108.399 780.214 Q105.344 784.797 99.5335 784.797 Q93.7234 784.797 90.6447 780.214 Q87.5892 775.608 87.5892 766.881 Q87.5892 758.131 90.6447 753.547 Q93.7234 748.941 99.5335 748.941 Z" fill="#000000" fill-rule="nonzero" fill-opacity="1" /><path clip-path="url(#clip860)" d="M91.5706 420.39 L99.2095 420.39 L99.2095 394.024 L90.8993 395.691 L90.8993 391.432 L99.1632 389.765 L103.839 389.765 L103.839 420.39 L111.478 420.39 L111.478 424.325 L91.5706 424.325 L91.5706 420.39 Z" fill="#000000" fill-rule="nonzero" fill-opacity="1" /><path clip-path="url(#clip860)" d="M95.1586 60.5889 L111.478 60.5889 L111.478 64.5241 L89.5336 64.5241 L89.5336 60.5889 Q92.1956 57.8343 96.7789 53.2047 Q101.385 48.552 102.566 47.2094 Q104.811 44.6862 105.691 42.9501 Q106.594 41.1909 106.594 39.5011 Q106.594 36.7465 104.649 35.0104 Q102.728 33.2743 99.6261 33.2743 Q97.4271 33.2743 94.9734 34.0381 Q92.5428 34.802 89.7651 36.3529 L89.7651 31.6308 Q92.5891 30.4965 95.0428 29.9178 Q97.4965 29.3391 99.5335 29.3391 Q104.904 29.3391 108.098 32.0243 Q111.293 34.7094 111.293 39.2002 Q111.293 41.3298 110.483 43.2511 Q109.696 45.1492 107.589 47.7418 Q107.01 48.4131 103.909 51.6306 Q100.807 54.8251 95.1586 60.5889 Z" fill="#000000" fill-rule="nonzero" fill-opacity="1" /><polyline clip-path="url(#clip862)" style="stroke:#ff0000; stroke-linecap:round; stroke-linejoin:round; stroke-width:4; stroke-opacity:1; fill:none" points="802.636,1006.71 822.422,1018.92 829.117,1021.25 842.273,1026.84 862.124,1031.18 881.976,1032.56 901.827,1031.75 921.678,1028.3 939.668,1021.25 941.53,1020.68 961.381,1010.78 967.152,1006.71 981.232,993.395 982.505,992.176 993.905,977.638 998.871,963.101 1000.46,948.564 999.524,934.026 995.576,919.489 986.274,904.951 981.232,899.859 972.14,890.414 961.381,882.535 948.483,875.877 941.53,872.184 921.678,865.373 901.827,862.481 881.976,861.799 862.124,862.96 842.273,866.596 822.422,874.944 820.757,875.877 802.571,886.188 797.013,890.414 783.501,904.951 782.719,906.315 773.096,919.489 768.387,934.026 767.276,948.564 769.167,963.101 775.087,977.638 782.719,987.273 785.896,992.176 802.571,1006.67 802.636,1006.71 "/>
<polyline clip-path="url(#clip862)" style="stroke:#ff0000; stroke-linecap:round; stroke-linejoin:round; stroke-width:4; stroke-opacity:1; fill:none" points="826.489,1006.71 842.273,1014.31 862.124,1018.93 881.976,1020.41 901.827,1019.54 921.678,1015.87 941.53,1007.21 942.385,1006.71 961.381,994.048 963.618,992.176 976.393,977.638 981.232,965.477 982.527,963.101 985.697,948.564 983.834,934.026 981.232,928.491 978.265,919.489 967.842,904.951 961.381,899.25 949.315,890.414 941.53,885.682 921.678,878.049 909.386,875.877 901.827,873.971 881.976,872.607 862.124,874.929 858.879,875.877 842.273,879.42 822.422,888.776 819.865,890.414 802.571,904.325 801.887,904.951 790.069,919.489 785.052,934.026 783.868,948.564 785.882,963.101 792.191,977.638 802.571,989.197 805.266,992.176 822.422,1004.74 826.489,1006.71 "/>
<polyline clip-path="url(#clip862)" style="stroke:#ff0000; stroke-linecap:round; stroke-linejoin:round; stroke-width:4; stroke-opacity:1; fill:none" points="822.422,994.747 818.91,992.176 804.644,977.638 802.571,973.604 796.265,963.101 793.244,948.564 795.02,934.026 802.545,919.489 802.571,919.458 814.193,904.951 822.422,898.598 837.773,890.414 842.273,888.164 862.124,882.052 881.976,880.1 901.827,881.247 921.678,886.108 931.017,890.414 941.53,895.375 954.606,904.951 961.381,912.65 967.261,919.489 973.898,934.026 975.465,948.564 972.8,963.101 964.454,977.638 961.381,980.934 950.206,992.176 941.53,998.202 921.72,1006.71 921.678,1006.73 901.827,1012.24 881.976,1013.54 862.124,1011.33 847.783,1006.71 842.273,1005.19 822.422,994.747 "/>
<polyline clip-path="url(#clip862)" style="stroke:#ff0000; stroke-linecap:round; stroke-linejoin:round; stroke-width:4; stroke-opacity:1; fill:none" points="842.273,998.685 830.882,992.176 822.422,985.981 813.533,977.638 805.248,963.101 802.603,948.564 804.158,934.026 810.746,919.489 822.422,907.606 825.631,904.951 842.273,894.924 857.171,890.414 862.124,888.758 881.976,886.156 901.827,887.685 911.286,890.414 921.678,893.02 941.53,903.622 943.344,904.951 957.822,919.489 961.381,927.099 965.107,934.026 967.195,948.564 963.642,963.101 961.381,966.728 955.223,977.638 941.53,989.826 937.905,992.176 921.678,1000.73 901.827,1005.55 881.976,1006.69 862.124,1004.75 842.273,998.685 "/>
<polyline clip-path="url(#clip862)" style="stroke:#ff0000; stroke-linecap:round; stroke-linejoin:round; stroke-width:4; stroke-opacity:1; fill:none" points="842.273,992.176 842.273,992.176 822.422,977.639 822.422,977.638 812.066,963.101 808.759,948.564 810.703,934.026 818.938,919.489 822.422,915.943 835.709,904.951 842.273,900.997 862.124,893.922 881.976,891.663 901.827,892.99 921.678,898.617 933.08,904.951 941.53,911.139 950.18,919.489 957.863,934.026 959.676,948.564 956.591,963.101 946.93,977.638 941.53,982.445 926.52,992.176 921.678,994.727 901.827,1000.76 881.976,1002.18 862.124,999.76 842.273,992.176 "/>
<polyline clip-path="url(#clip862)" style="stroke:#ff0000; stroke-linecap:round; stroke-linejoin:round; stroke-width:4; stroke-opacity:1; fill:none" points="862.124,994.767 855.342,992.176 842.273,986.741 829.843,977.638 822.422,968.068 818.884,963.101 814.916,948.564 817.248,934.026 822.422,925.608 826.353,919.489 842.273,906.846 846.306,904.951 862.124,898.579 881.976,895.869 901.827,897.462 921.678,904.213 923.007,904.951 941.53,918.516 942.538,919.489 951.757,934.026 953.933,948.564 950.231,963.101 941.53,974.685 938.943,977.638 921.678,989.297 913.322,992.176 901.827,995.965 881.976,997.673 862.124,994.767 "/>
<polyline clip-path="url(#clip862)" style="stroke:#ff0000; stroke-linecap:round; stroke-linejoin:round; stroke-width:4; stroke-opacity:1; fill:none" points="881.976,993.164 875.76,992.176 862.124,990.171 842.273,981.307 837.264,977.638 825.16,963.101 822.422,953.115 821.072,948.564 822.422,941.129 823.566,934.026 833.192,919.489 842.273,912.277 857.868,904.951 862.124,903.237 881.976,900.074 901.827,901.933 910.511,904.951 921.678,909.297 935.596,919.489 941.53,927.667 945.651,934.026 948.189,948.564 943.871,963.101 941.53,966.218 931.526,977.638 921.678,984.289 901.827,991.338 892.129,992.176 881.976,993.164 "/>
<polyline clip-path="url(#clip862)" style="stroke:#ff0000; stroke-linecap:round; stroke-linejoin:round; stroke-width:4; stroke-opacity:1; fill:none" points="901.827,987.336 881.976,989.237 862.124,986.003 845.04,977.638 842.273,975.612 830.852,963.101 826.435,948.564 829.031,934.026 840.032,919.489 842.273,917.709 862.124,907.584 877.974,904.951 881.976,904.28 888.512,904.951 901.827,906.251 921.678,914.303 928.76,919.489 939.755,934.026 941.53,943.777 942.446,948.564 941.53,951.494 937.935,963.101 924.109,977.638 921.678,979.28 901.827,987.336 "/>
<polyline clip-path="url(#clip862)" style="stroke:#ff0000; stroke-linecap:round; stroke-linejoin:round; stroke-width:4; stroke-opacity:1; fill:none" points="901.827,983.335 881.976,985.473 862.124,981.834 853.554,977.638 842.273,969.377 836.543,963.101 831.575,948.564 834.495,934.026 842.273,924.152 847.548,919.489 862.124,911.75 881.976,908.113 901.827,910.25 921.678,919.309 921.925,919.489 934.294,934.026 937.212,948.564 932.246,963.101 921.678,973.776 915.311,977.638 901.827,983.335 "/>
<polyline clip-path="url(#clip862)" style="stroke:#ff0000; stroke-linecap:round; stroke-linejoin:round; stroke-width:4; stroke-opacity:1; fill:none" points="901.827,979.333 881.976,981.709 862.124,977.666 862.068,977.638 842.273,963.142 842.235,963.101 836.714,948.564 839.959,934.026 842.273,931.089 855.395,919.489 862.124,915.916 881.976,911.875 901.827,914.25 913.263,919.489 921.678,925.652 928.832,934.026 932.075,948.564 926.557,963.101 921.678,968.029 905.838,977.638 901.827,979.333 "/>
<polyline clip-path="url(#clip862)" style="stroke:#ff0000; stroke-linecap:round; stroke-linejoin:round; stroke-width:4; stroke-opacity:1; fill:none" points="901.827,974.992 884.435,977.638 881.976,977.945 880.47,977.638 862.124,972.888 848.76,963.101 842.273,949.666 841.854,948.564 842.273,946.763 845.887,934.026 862.124,920.246 864.547,919.489 881.976,915.637 901.827,918.249 904.533,919.489 921.678,932.045 923.371,934.026 926.938,948.564 921.678,961.327 920.644,963.101 901.827,974.992 "/>
<polyline clip-path="url(#clip862)" style="stroke:#ff0000; stroke-linecap:round; stroke-linejoin:round; stroke-width:4; stroke-opacity:1; fill:none" points="901.827,970.401 881.976,973.672 862.124,968.106 855.29,963.101 847.689,948.564 852.156,934.026 862.124,925.566 881.567,919.489 881.976,919.399 882.643,919.489 901.827,923.013 916.866,934.026 921.678,948.075 921.802,948.564 921.678,948.863 913.379,963.101 901.827,970.401 "/>
<polyline clip-path="url(#clip862)" style="stroke:#ff0000; stroke-linecap:round; stroke-linejoin:round; stroke-width:4; stroke-opacity:1; fill:none" points="901.827,965.81 881.976,969.354 862.124,963.324 861.82,963.101 853.586,948.564 858.425,934.026 862.124,930.887 881.976,924.178 901.827,928.121 909.891,934.026 915.275,948.564 906.114,963.101 901.827,965.81 "/>
<polyline clip-path="url(#clip862)" style="stroke:#ff0000; stroke-linecap:round; stroke-linejoin:round; stroke-width:4; stroke-opacity:1; fill:none" points="901.827,959.019 892.342,963.101 881.976,965.036 875.629,963.101 862.124,953.211 859.483,948.564 862.124,940.972 867.699,934.026 881.976,928.982 901.827,933.228 902.916,934.026 908.715,948.564 901.827,959.019 "/>
<polyline clip-path="url(#clip862)" style="stroke:#ff0000; stroke-linecap:round; stroke-linejoin:round; stroke-width:4; stroke-opacity:1; fill:none" points="901.827,949.06 881.976,957.931 869.185,948.564 881.297,934.026 881.976,933.787 883.084,934.026 901.827,947.752 902.154,948.564 901.827,949.06 "/>
<polyline clip-path="url(#clip862)" style="stroke:#ff0000; stroke-linecap:round; stroke-linejoin:round; stroke-width:4; stroke-opacity:1; fill:none" points="1318.7,661.508 1311.75,657.815 1298.85,651.157 1288.09,643.278 1279,633.833 1273.96,628.741 1264.66,614.203 1260.71,599.666 1259.78,585.128 1261.36,570.591 1266.33,556.054 1277.73,541.516 1279,540.297 1293.08,526.979 1298.85,522.909 1318.7,513.014 1320.57,512.441 1338.56,505.394 1358.41,501.946 1378.26,501.132 1398.11,502.516 1417.96,506.852 1431.12,512.441 1437.81,514.767 1457.6,526.979 1457.66,527.026 1474.34,541.516 1477.51,546.419 1485.15,556.054 1491.07,570.591 1492.96,585.128 1491.85,599.666 1487.14,614.203 1477.51,627.377 1476.73,628.741 1463.22,643.278 1457.66,647.504 1439.48,657.815 1437.81,658.747 1417.96,667.096 1398.11,670.732 1378.26,671.893 1358.41,671.211 1338.56,668.319 1318.7,661.508 "/>
<polyline clip-path="url(#clip862)" style="stroke:#ff0000; stroke-linecap:round; stroke-linejoin:round; stroke-width:4; stroke-opacity:1; fill:none" points="1350.85,657.815 1358.41,659.721 1378.26,661.085 1398.11,658.763 1401.35,657.815 1417.96,654.272 1437.81,644.916 1440.37,643.278 1457.66,629.367 1458.35,628.741 1470.17,614.203 1475.18,599.666 1476.37,585.128 1474.35,570.591 1468.04,556.054 1457.66,544.495 1454.97,541.516 1437.81,528.953 1433.74,526.979 1417.96,519.377 1398.11,514.757 1378.26,513.282 1358.41,514.149 1338.56,517.823 1318.7,526.478 1317.85,526.979 1298.85,539.644 1296.62,541.516 1283.84,556.054 1279,568.215 1277.71,570.591 1274.54,585.128 1276.4,599.666 1279,605.201 1281.97,614.203 1292.39,628.741 1298.85,634.442 1310.92,643.278 1318.7,648.01 1338.56,655.643 1350.85,657.815 "/>
<polyline clip-path="url(#clip862)" style="stroke:#ff0000; stroke-linecap:round; stroke-linejoin:round; stroke-width:4; stroke-opacity:1; fill:none" points="1338.56,647.584 1329.22,643.278 1318.7,638.317 1305.63,628.741 1298.85,621.042 1292.97,614.203 1286.34,599.666 1284.77,585.128 1287.43,570.591 1295.78,556.054 1298.85,552.758 1310.03,541.516 1318.7,535.49 1338.51,526.979 1338.56,526.96 1358.41,521.449 1378.26,520.149 1398.11,522.361 1412.45,526.979 1417.96,528.497 1437.81,538.945 1441.32,541.516 1455.59,556.054 1457.66,560.088 1463.97,570.591 1466.99,585.128 1465.21,599.666 1457.69,614.203 1457.66,614.234 1446.04,628.741 1437.81,635.094 1422.46,643.278 1417.96,645.528 1398.11,651.64 1378.26,653.592 1358.41,652.445 1338.56,647.584 "/>
<polyline clip-path="url(#clip862)" style="stroke:#ff0000; stroke-linecap:round; stroke-linejoin:round; stroke-width:4; stroke-opacity:1; fill:none" points="1358.41,646.007 1348.95,643.278 1338.56,640.672 1318.7,630.069 1316.89,628.741 1302.41,614.203 1298.85,606.593 1295.13,599.666 1293.04,585.128 1296.59,570.591 1298.85,566.964 1305.01,556.054 1318.7,543.866 1322.33,541.516 1338.56,532.966 1358.41,528.141 1378.26,527.002 1398.11,528.94 1417.96,535.007 1429.35,541.516 1437.81,547.711 1446.7,556.054 1454.99,570.591 1457.63,585.128 1456.08,599.666 1449.49,614.203 1437.81,626.086 1434.6,628.741 1417.96,638.768 1403.06,643.278 1398.11,644.934 1378.26,647.536 1358.41,646.007 "/>
<polyline clip-path="url(#clip862)" style="stroke:#ff0000; stroke-linecap:round; stroke-linejoin:round; stroke-width:4; stroke-opacity:1; fill:none" points="1378.26,642.029 1358.41,640.702 1338.56,635.075 1327.15,628.741 1318.7,622.553 1310.05,614.203 1302.37,599.666 1300.56,585.128 1303.64,570.591 1313.3,556.054 1318.7,551.247 1333.71,541.516 1338.56,538.965 1358.41,532.934 1378.26,531.511 1398.11,533.932 1417.96,541.516 1417.96,541.516 1437.81,556.053 1437.81,556.054 1448.17,570.591 1451.47,585.128 1449.53,599.666 1441.3,614.203 1437.81,617.749 1424.52,628.741 1417.96,632.695 1398.11,639.77 1378.26,642.029 "/>
<polyline clip-path="url(#clip862)" style="stroke:#ff0000; stroke-linecap:round; stroke-linejoin:round; stroke-width:4; stroke-opacity:1; fill:none" points="1378.26,637.823 1358.41,636.23 1338.56,629.479 1337.23,628.741 1318.7,615.176 1317.7,614.203 1308.48,599.666 1306.3,585.128 1310,570.591 1318.7,559.007 1321.29,556.054 1338.56,544.395 1346.91,541.516 1358.41,537.727 1378.26,536.019 1398.11,538.925 1404.89,541.516 1417.96,546.951 1430.39,556.054 1437.81,565.624 1441.35,570.591 1445.32,585.128 1442.99,599.666 1437.81,608.083 1433.88,614.203 1417.96,626.846 1413.93,628.741 1398.11,635.113 1378.26,637.823 "/>
<polyline clip-path="url(#clip862)" style="stroke:#ff0000; stroke-linecap:round; stroke-linejoin:round; stroke-width:4; stroke-opacity:1; fill:none" points="1378.26,633.617 1358.41,631.759 1349.72,628.741 1338.56,624.395 1324.64,614.203 1318.7,606.025 1314.58,599.666 1312.04,585.128 1316.36,570.591 1318.7,567.474 1328.71,556.054 1338.56,549.403 1358.41,542.354 1368.11,541.516 1378.26,540.528 1384.47,541.516 1398.11,543.521 1417.96,552.385 1422.97,556.054 1435.07,570.591 1437.81,580.577 1439.16,585.128 1437.81,592.563 1436.67,599.666 1427.04,614.203 1417.96,621.415 1402.37,628.741 1398.11,630.455 1378.26,633.617 "/>
<polyline clip-path="url(#clip862)" style="stroke:#ff0000; stroke-linecap:round; stroke-linejoin:round; stroke-width:4; stroke-opacity:1; fill:none" points="1378.26,629.412 1371.72,628.741 1358.41,627.441 1338.56,619.389 1331.47,614.203 1320.48,599.666 1318.7,589.915 1317.79,585.128 1318.7,582.198 1322.3,570.591 1336.12,556.054 1338.56,554.412 1358.41,546.356 1378.26,544.455 1398.11,547.689 1415.19,556.054 1417.96,558.08 1429.38,570.591 1433.8,585.128 1431.2,599.666 1420.2,614.203 1417.96,615.983 1398.11,626.108 1382.26,628.741 1378.26,629.412 "/>
<polyline clip-path="url(#clip862)" style="stroke:#ff0000; stroke-linecap:round; stroke-linejoin:round; stroke-width:4; stroke-opacity:1; fill:none" points="1398.11,621.942 1378.26,625.579 1358.41,623.442 1338.56,614.383 1338.31,614.203 1325.94,599.666 1323.02,585.128 1327.99,570.591 1338.56,559.916 1344.92,556.054 1358.41,550.357 1378.26,548.219 1398.11,551.858 1406.68,556.054 1417.96,564.315 1423.69,570.591 1428.66,585.128 1425.74,599.666 1417.96,609.54 1412.69,614.203 1398.11,621.942 "/>
<polyline clip-path="url(#clip862)" style="stroke:#ff0000; stroke-linecap:round; stroke-linejoin:round; stroke-width:4; stroke-opacity:1; fill:none" points="1398.11,617.776 1378.26,621.817 1358.41,619.442 1346.97,614.203 1338.56,608.04 1331.4,599.666 1328.16,585.128 1333.68,570.591 1338.56,565.663 1354.4,556.054 1358.41,554.359 1378.26,551.983 1398.11,556.026 1398.17,556.054 1417.96,570.55 1418,570.591 1423.52,585.128 1420.27,599.666 1417.96,602.603 1404.84,614.203 1398.11,617.776 "/>
<polyline clip-path="url(#clip862)" style="stroke:#ff0000; stroke-linecap:round; stroke-linejoin:round; stroke-width:4; stroke-opacity:1; fill:none" points="1398.11,613.446 1395.69,614.203 1378.26,618.055 1358.41,615.443 1355.7,614.203 1338.56,601.647 1336.86,599.666 1333.3,585.128 1338.56,572.365 1339.59,570.591 1358.41,558.7 1375.8,556.054 1378.26,555.747 1379.76,556.054 1398.11,560.804 1411.47,570.591 1417.96,584.026 1418.38,585.128 1417.96,586.929 1414.35,599.666 1398.11,613.446 "/>
<polyline clip-path="url(#clip862)" style="stroke:#ff0000; stroke-linecap:round; stroke-linejoin:round; stroke-width:4; stroke-opacity:1; fill:none" points="1398.11,608.126 1378.67,614.203 1378.26,614.293 1377.59,614.203 1358.41,610.679 1343.37,599.666 1338.56,585.617 1338.43,585.128 1338.56,584.829 1346.85,570.591 1358.41,563.291 1378.26,560.02 1398.11,565.586 1404.94,570.591 1412.54,585.128 1408.08,599.666 1398.11,608.126 "/>
<polyline clip-path="url(#clip862)" style="stroke:#ff0000; stroke-linecap:round; stroke-linejoin:round; stroke-width:4; stroke-opacity:1; fill:none" points="1398.11,602.805 1378.26,609.514 1358.41,605.571 1350.34,599.666 1344.96,585.128 1354.12,570.591 1358.41,567.882 1378.26,564.338 1398.11,570.368 1398.41,570.591 1406.65,585.128 1401.81,599.666 1398.11,602.805 "/>
<polyline clip-path="url(#clip862)" style="stroke:#ff0000; stroke-linecap:round; stroke-linejoin:round; stroke-width:4; stroke-opacity:1; fill:none" points="1398.11,592.72 1392.54,599.666 1378.26,604.71 1358.41,600.464 1357.32,599.666 1351.52,585.128 1358.41,574.673 1367.89,570.591 1378.26,568.656 1384.6,570.591 1398.11,580.481 1400.75,585.128 1398.11,592.72 "/>
<polyline clip-path="url(#clip862)" style="stroke:#ff0000; stroke-linecap:round; stroke-linejoin:round; stroke-width:4; stroke-opacity:1; fill:none" points="1391.05,585.128 1378.94,599.666 1378.26,599.905 1377.15,599.666 1358.41,585.94 1358.08,585.128 1358.41,584.632 1378.26,575.761 1391.05,585.128 "/>
<polyline clip-path="url(#clip862)" style="stroke:#0000ff; stroke-linecap:round; stroke-linejoin:round; stroke-width:4; stroke-opacity:1; fill:none" points="995.535,875.877 1001.08,879.502 1020.93,890.05 1021.78,890.414 1040.79,898.77 1060.64,904.634 1062.11,904.951 1080.49,909.579 1100.34,912.617 1120.19,914.045 1140.04,914.045 1159.89,912.617 1179.75,909.579 1198.12,904.951 1199.6,904.634 1219.45,898.77 1238.45,890.414 1239.3,890.05 1259.15,879.502 1264.7,875.877 1279,865.403 1283.95,861.339 1298.36,846.802 1298.85,846.18 1310.26,832.264 1318.27,817.727 1318.7,816.647 1325.02,803.19 1329.17,788.652 1331.12,774.115 1331.12,759.577 1329.17,745.04 1325.02,730.502 1318.7,717.045 1318.27,715.965 1310.26,701.428 1298.85,687.512 1298.36,686.89 1283.95,672.353 1279,668.289 1264.7,657.815 1259.15,654.19 1239.3,643.642 1238.45,643.278 1219.45,634.922 1199.6,629.058 1198.12,628.741 1179.75,624.113 1159.89,621.075 1140.04,619.647 1120.19,619.647 1100.34,621.075 1080.49,624.113 1062.11,628.741 1060.64,629.058 1040.79,634.922 1021.78,643.278 1020.93,643.642 1001.08,654.19 995.535,657.815 981.232,668.289 976.282,672.353 961.878,686.89 961.381,687.512 949.97,701.428 941.962,715.965 941.53,717.045 935.21,730.502 931.062,745.04 929.112,759.577 929.112,774.115 931.062,788.652 935.21,803.19 941.53,816.647 941.962,817.727 949.97,832.264 961.381,846.18 961.878,846.802 976.282,861.339 981.232,865.403 995.535,875.877 "/>
<polyline clip-path="url(#clip862)" style="stroke:#0000ff; stroke-linecap:round; stroke-linejoin:round; stroke-width:4; stroke-opacity:1; fill:none" points="1029.25,861.339 1040.79,867.614 1060.64,875.48 1062.01,875.877 1080.49,881.475 1100.34,885.126 1120.19,886.844 1140.04,886.844 1159.89,885.126 1179.75,881.475 1198.22,875.877 1199.6,875.48 1219.45,867.614 1230.98,861.339 1239.3,856.371 1252.37,846.802 1259.15,840.712 1267.72,832.264 1278.46,817.727 1279,816.721 1286.65,803.19 1291.63,788.652 1293.98,774.115 1293.98,759.577 1291.63,745.04 1286.65,730.502 1279,716.971 1278.46,715.965 1267.72,701.428 1259.15,692.98 1252.37,686.89 1239.3,677.321 1230.98,672.353 1219.45,666.078 1199.6,658.212 1198.22,657.815 1179.75,652.217 1159.89,648.565 1140.04,646.848 1120.19,646.848 1100.34,648.565 1080.49,652.217 1062.01,657.815 1060.64,658.212 1040.79,666.078 1029.25,672.353 1020.93,677.321 1007.87,686.89 1001.08,692.98 992.515,701.428 981.773,715.965 981.232,716.971 973.588,730.502 968.601,745.04 966.256,759.577 966.256,774.115 968.601,788.652 973.588,803.19 981.232,816.721 981.773,817.727 992.515,832.264 1001.08,840.712 1007.87,846.802 1020.93,856.371 1029.25,861.339 "/>
<polyline clip-path="url(#clip862)" style="stroke:#0000ff; stroke-linecap:round; stroke-linejoin:round; stroke-width:4; stroke-opacity:1; fill:none" points="1046.19,846.802 1060.64,854.14 1080.49,861.007 1081.97,861.339 1100.34,865.583 1120.19,867.753 1140.04,867.753 1159.89,865.583 1178.27,861.339 1179.75,861.007 1199.6,854.14 1214.05,846.802 1219.45,843.703 1235.07,832.264 1239.3,828.308 1249.32,817.727 1258.7,803.19 1259.15,802.107 1264.95,788.652 1267.91,774.115 1267.91,759.577 1264.95,745.04 1259.15,731.585 1258.7,730.502 1249.32,715.965 1239.3,705.384 1235.07,701.428 1219.45,689.989 1214.05,686.89 1199.6,679.552 1179.75,672.685 1178.27,672.353 1159.89,668.109 1140.04,665.939 1120.19,665.939 1100.34,668.109 1081.97,672.353 1080.49,672.685 1060.64,679.552 1046.19,686.89 1040.79,689.989 1025.17,701.428 1020.93,705.384 1010.91,715.965 1001.54,730.502 1001.08,731.585 995.288,745.04 992.326,759.577 992.326,774.115 995.288,788.652 1001.08,802.107 1001.54,803.19 1010.91,817.727 1020.93,828.308 1025.17,832.264 1040.79,843.703 1046.19,846.802 "/>
<polyline clip-path="url(#clip862)" style="stroke:#0000ff; stroke-linecap:round; stroke-linejoin:round; stroke-width:4; stroke-opacity:1; fill:none" points="1060.64,834.783 1056.42,832.264 1040.79,820.813 1037.35,817.727 1025.35,803.19 1020.93,794.583 1018.01,788.652 1014.47,774.115 1014.47,759.577 1018.01,745.04 1020.93,739.109 1025.35,730.502 1037.35,715.965 1040.79,712.879 1056.42,701.428 1060.64,698.909 1080.49,690.124 1092.24,686.89 1100.34,684.75 1120.19,682.159 1140.04,682.159 1159.89,684.75 1167.99,686.89 1179.75,690.124 1199.6,698.909 1203.81,701.428 1219.45,712.879 1222.89,715.965 1234.88,730.502 1239.3,739.109 1242.22,745.04 1245.76,759.577 1245.76,774.115 1242.22,788.652 1239.3,794.583 1234.88,803.19 1222.89,817.727 1219.45,820.813 1203.81,832.264 1199.6,834.783 1179.75,843.568 1167.99,846.802 1159.89,848.942 1140.04,851.533 1120.19,851.533 1100.34,848.942 1092.24,846.802 1080.49,843.568 1060.64,834.783 "/>
<polyline clip-path="url(#clip862)" style="stroke:#0000ff; stroke-linecap:round; stroke-linejoin:round; stroke-width:4; stroke-opacity:1; fill:none" points="1096.96,832.264 1100.34,833.314 1120.19,836.422 1140.04,836.422 1159.89,833.314 1163.27,832.264 1179.75,826.478 1195.36,817.727 1199.6,814.627 1211.55,803.19 1219.45,791.124 1220.88,788.652 1225.12,774.115 1225.12,759.577 1220.88,745.04 1219.45,742.568 1211.55,730.502 1199.6,719.065 1195.36,715.965 1179.75,707.214 1163.27,701.428 1159.89,700.378 1140.04,697.27 1120.19,697.27 1100.34,700.378 1096.96,701.428 1080.49,707.214 1064.87,715.965 1060.64,719.065 1048.69,730.502 1040.79,742.568 1039.35,745.04 1035.11,759.577 1035.11,774.115 1039.35,788.652 1040.79,791.124 1048.69,803.19 1060.64,814.627 1064.87,817.727 1080.49,826.478 1096.96,832.264 "/>
<polyline clip-path="url(#clip862)" style="stroke:#0000ff; stroke-linecap:round; stroke-linejoin:round; stroke-width:4; stroke-opacity:1; fill:none" points="1103.04,817.727 1120.19,821.061 1140.04,821.061 1157.19,817.727 1159.89,817.094 1179.75,807.548 1185.7,803.19 1198.73,788.652 1199.6,786.673 1204.15,774.115 1204.15,759.577 1199.6,747.019 1198.73,745.04 1185.7,730.502 1179.75,726.144 1159.89,716.598 1157.19,715.965 1140.04,712.631 1120.19,712.631 1103.04,715.965 1100.34,716.598 1080.49,726.144 1074.54,730.502 1061.5,745.04 1060.64,747.019 1056.08,759.577 1056.08,774.115 1060.64,786.673 1061.5,788.652 1074.54,803.19 1080.49,807.548 1100.34,817.094 1103.04,817.727 "/>
<polyline clip-path="url(#clip862)" style="stroke:#0000ff; stroke-linecap:round; stroke-linejoin:round; stroke-width:4; stroke-opacity:1; fill:none" points="1120.19,803.623 1118.49,803.19 1100.34,796.681 1089.38,788.652 1080.49,775.364 1079.9,774.115 1079.9,759.577 1080.49,758.328 1089.38,745.04 1100.34,737.011 1118.49,730.502 1120.19,730.069 1140.04,730.069 1141.75,730.502 1159.89,737.011 1170.86,745.04 1179.75,758.328 1180.34,759.577 1180.34,774.115 1179.75,775.364 1170.86,788.652 1159.89,796.681 1141.75,803.19 1140.04,803.623 1120.19,803.623 "/>
<circle clip-path="url(#clip862)" cx="1326.64" cy="622.926" r="14.4" fill="#3da44d" fill-rule="evenodd" fill-opacity="1" stroke="#000000" stroke-opacity="1" stroke-width="3.2"/>
<circle clip-path="url(#clip862)" cx="933.589" cy="910.766" r="14.4" fill="#3da44d" fill-rule="evenodd" fill-opacity="1" stroke="#000000" stroke-opacity="1" stroke-width="3.2"/>
<circle clip-path="url(#clip862)" cx="1375.78" cy="586.946" r="14.4" fill="#c271d2" fill-rule="evenodd" fill-opacity="1" stroke="#000000" stroke-opacity="1" stroke-width="3.2"/>
<circle clip-path="url(#clip862)" cx="884.457" cy="946.746" r="14.4" fill="#c271d2" fill-rule="evenodd" fill-opacity="1" stroke="#000000" stroke-opacity="1" stroke-width="3.2"/>
<defs>
  <clipPath id="clip863">
    <rect x="2160" y="47" width="73" height="1440"/>
  </clipPath>
</defs>
<polyline clip-path="url(#clip863)" style="stroke:#0000ff; stroke-linecap:round; stroke-linejoin:round; stroke-width:4; stroke-opacity:1; fill:none" points="2160.76,1396.5 2232.76,1396.5 "/>
<polyline clip-path="url(#clip863)" style="stroke:#0000ff; stroke-linecap:round; stroke-linejoin:round; stroke-width:4; stroke-opacity:1; fill:none" points="2160.76,1306.55 2232.76,1306.55 "/>
<polyline clip-path="url(#clip863)" style="stroke:#0000ff; stroke-linecap:round; stroke-linejoin:round; stroke-width:4; stroke-opacity:1; fill:none" points="2160.76,1216.6 2232.76,1216.6 "/>
<polyline clip-path="url(#clip863)" style="stroke:#0000ff; stroke-linecap:round; stroke-linejoin:round; stroke-width:4; stroke-opacity:1; fill:none" points="2160.76,1126.65 2232.76,1126.65 "/>
<polyline clip-path="url(#clip863)" style="stroke:#0000ff; stroke-linecap:round; stroke-linejoin:round; stroke-width:4; stroke-opacity:1; fill:none" points="2160.76,1036.7 2232.76,1036.7 "/>
<polyline clip-path="url(#clip863)" style="stroke:#0000ff; stroke-linecap:round; stroke-linejoin:round; stroke-width:4; stroke-opacity:1; fill:none" points="2160.76,946.746 2232.76,946.746 "/>
<polyline clip-path="url(#clip863)" style="stroke:#0000ff; stroke-linecap:round; stroke-linejoin:round; stroke-width:4; stroke-opacity:1; fill:none" points="2160.76,856.796 2232.76,856.796 "/>
<polyline clip-path="url(#clip863)" style="stroke:#0000ff; stroke-linecap:round; stroke-linejoin:round; stroke-width:4; stroke-opacity:1; fill:none" points="2160.76,766.846 2232.76,766.846 "/>
<polyline clip-path="url(#clip863)" style="stroke:#0000ff; stroke-linecap:round; stroke-linejoin:round; stroke-width:4; stroke-opacity:1; fill:none" points="2160.76,676.896 2232.76,676.896 "/>
<polyline clip-path="url(#clip863)" style="stroke:#0000ff; stroke-linecap:round; stroke-linejoin:round; stroke-width:4; stroke-opacity:1; fill:none" points="2160.76,586.946 2232.76,586.946 "/>
<polyline clip-path="url(#clip863)" style="stroke:#0000ff; stroke-linecap:round; stroke-linejoin:round; stroke-width:4; stroke-opacity:1; fill:none" points="2160.76,496.995 2232.76,496.995 "/>
<polyline clip-path="url(#clip863)" style="stroke:#0000ff; stroke-linecap:round; stroke-linejoin:round; stroke-width:4; stroke-opacity:1; fill:none" points="2160.76,407.045 2232.76,407.045 "/>
<polyline clip-path="url(#clip863)" style="stroke:#0000ff; stroke-linecap:round; stroke-linejoin:round; stroke-width:4; stroke-opacity:1; fill:none" points="2160.76,317.095 2232.76,317.095 "/>
<polyline clip-path="url(#clip863)" style="stroke:#0000ff; stroke-linecap:round; stroke-linejoin:round; stroke-width:4; stroke-opacity:1; fill:none" points="2160.76,227.145 2232.76,227.145 "/>
<polyline clip-path="url(#clip863)" style="stroke:#0000ff; stroke-linecap:round; stroke-linejoin:round; stroke-width:4; stroke-opacity:1; fill:none" points="2160.76,137.194 2232.76,137.194 "/>
<path clip-path="url(#clip860)" d="M2269.43 1314.85 L2277.07 1314.85 L2277.07 1288.48 L2268.76 1290.15 L2268.76 1285.89 L2277.02 1284.22 L2281.7 1284.22 L2281.7 1314.85 L2289.33 1314.85 L2289.33 1318.78 L2269.43 1318.78 L2269.43 1314.85 Z" fill="#000000" fill-rule="nonzero" fill-opacity="1" /><polyline clip-path="url(#clip860)" style="stroke:#000000; stroke-linecap:round; stroke-linejoin:round; stroke-width:4; stroke-opacity:1; fill:none" points="2232.76,1305.13 2256.76,1305.13 "/>
<path clip-path="url(#clip860)" d="M2274.38 1133.53 L2290.7 1133.53 L2290.7 1137.46 L2268.76 1137.46 L2268.76 1133.53 Q2271.42 1130.77 2276 1126.14 Q2280.61 1121.49 2281.79 1120.15 Q2284.03 1117.63 2284.91 1115.89 Q2285.82 1114.13 2285.82 1112.44 Q2285.82 1109.69 2283.87 1107.95 Q2281.95 1106.21 2278.85 1106.21 Q2276.65 1106.21 2274.2 1106.98 Q2271.77 1107.74 2268.99 1109.29 L2268.99 1104.57 Q2271.81 1103.44 2274.27 1102.86 Q2276.72 1102.28 2278.76 1102.28 Q2284.13 1102.28 2287.32 1104.96 Q2290.52 1107.65 2290.52 1112.14 Q2290.52 1114.27 2289.7 1116.19 Q2288.92 1118.09 2286.81 1120.68 Q2286.23 1121.35 2283.13 1124.57 Q2280.03 1127.76 2274.38 1133.53 Z" fill="#000000" fill-rule="nonzero" fill-opacity="1" /><polyline clip-path="url(#clip860)" style="stroke:#000000; stroke-linecap:round; stroke-linejoin:round; stroke-width:4; stroke-opacity:1; fill:none" points="2232.76,1123.81 2256.76,1123.81 "/>
<path clip-path="url(#clip860)" d="M2284.38 937.512 Q2287.74 938.23 2289.61 940.498 Q2291.51 942.767 2291.51 946.1 Q2291.51 951.216 2287.99 954.017 Q2284.47 956.818 2277.99 956.818 Q2275.82 956.818 2273.5 956.378 Q2271.21 955.961 2268.76 955.105 L2268.76 950.591 Q2270.7 951.725 2273.02 952.304 Q2275.33 952.882 2277.85 952.882 Q2282.25 952.882 2284.54 951.146 Q2286.86 949.41 2286.86 946.1 Q2286.86 943.045 2284.7 941.332 Q2282.58 939.595 2278.76 939.595 L2274.73 939.595 L2274.73 935.753 L2278.94 935.753 Q2282.39 935.753 2284.22 934.387 Q2286.05 932.998 2286.05 930.406 Q2286.05 927.744 2284.15 926.332 Q2282.27 924.896 2278.76 924.896 Q2276.83 924.896 2274.64 925.313 Q2272.44 925.73 2269.8 926.609 L2269.8 922.443 Q2272.46 921.702 2274.77 921.332 Q2277.11 920.961 2279.17 920.961 Q2284.5 920.961 2287.6 923.392 Q2290.7 925.799 2290.7 929.92 Q2290.7 932.79 2289.06 934.781 Q2287.41 936.748 2284.38 937.512 Z" fill="#000000" fill-rule="nonzero" fill-opacity="1" /><polyline clip-path="url(#clip860)" style="stroke:#000000; stroke-linecap:round; stroke-linejoin:round; stroke-width:4; stroke-opacity:1; fill:none" points="2232.76,942.495 2256.76,942.495 "/>
<path clip-path="url(#clip860)" d="M2284.36 744.343 L2272.55 762.792 L2284.36 762.792 L2284.36 744.343 M2283.13 740.269 L2289.01 740.269 L2289.01 762.792 L2293.94 762.792 L2293.94 766.681 L2289.01 766.681 L2289.01 774.829 L2284.36 774.829 L2284.36 766.681 L2268.76 766.681 L2268.76 762.167 L2283.13 740.269 Z" fill="#000000" fill-rule="nonzero" fill-opacity="1" /><polyline clip-path="url(#clip860)" style="stroke:#000000; stroke-linecap:round; stroke-linejoin:round; stroke-width:4; stroke-opacity:1; fill:none" points="2232.76,761.178 2256.76,761.178 "/>
<path clip-path="url(#clip860)" d="M2270.21 558.951 L2288.57 558.951 L2288.57 562.886 L2274.5 562.886 L2274.5 571.358 Q2275.52 571.011 2276.53 570.849 Q2277.55 570.664 2278.57 570.664 Q2284.36 570.664 2287.74 573.835 Q2291.12 577.007 2291.12 582.423 Q2291.12 588.002 2287.64 591.104 Q2284.17 594.182 2277.85 594.182 Q2275.68 594.182 2273.41 593.812 Q2271.16 593.442 2268.76 592.701 L2268.76 588.002 Q2270.84 589.136 2273.06 589.692 Q2275.28 590.247 2277.76 590.247 Q2281.77 590.247 2284.1 588.141 Q2286.44 586.034 2286.44 582.423 Q2286.44 578.812 2284.1 576.706 Q2281.77 574.599 2277.76 574.599 Q2275.89 574.599 2274.01 575.016 Q2272.16 575.433 2270.21 576.312 L2270.21 558.951 Z" fill="#000000" fill-rule="nonzero" fill-opacity="1" /><polyline clip-path="url(#clip860)" style="stroke:#000000; stroke-linecap:round; stroke-linejoin:round; stroke-width:4; stroke-opacity:1; fill:none" points="2232.76,579.86 2256.76,579.86 "/>
<path clip-path="url(#clip860)" d="M2281.09 393.05 Q2277.95 393.05 2276.09 395.203 Q2274.27 397.356 2274.27 401.106 Q2274.27 404.832 2276.09 407.008 Q2277.95 409.161 2281.09 409.161 Q2284.24 409.161 2286.07 407.008 Q2287.92 404.832 2287.92 401.106 Q2287.92 397.356 2286.07 395.203 Q2284.24 393.05 2281.09 393.05 M2290.38 378.397 L2290.38 382.657 Q2288.62 381.823 2286.81 381.384 Q2285.03 380.944 2283.27 380.944 Q2278.64 380.944 2276.19 384.069 Q2273.76 387.194 2273.41 393.513 Q2274.77 391.499 2276.83 390.434 Q2278.89 389.346 2281.37 389.346 Q2286.58 389.346 2289.59 392.518 Q2292.62 395.666 2292.62 401.106 Q2292.62 406.43 2289.47 409.647 Q2286.33 412.865 2281.09 412.865 Q2275.1 412.865 2271.93 408.282 Q2268.76 403.675 2268.76 394.948 Q2268.76 386.754 2272.64 381.893 Q2276.53 377.009 2283.08 377.009 Q2284.84 377.009 2286.63 377.356 Q2288.43 377.703 2290.38 378.397 Z" fill="#000000" fill-rule="nonzero" fill-opacity="1" /><polyline clip-path="url(#clip860)" style="stroke:#000000; stroke-linecap:round; stroke-linejoin:round; stroke-width:4; stroke-opacity:1; fill:none" points="2232.76,398.542 2256.76,398.542 "/>
<path clip-path="url(#clip860)" d="M2268.76 196.316 L2290.98 196.316 L2290.98 198.307 L2278.43 230.876 L2273.55 230.876 L2285.35 200.251 L2268.76 200.251 L2268.76 196.316 Z" fill="#000000" fill-rule="nonzero" fill-opacity="1" /><polyline clip-path="url(#clip860)" style="stroke:#000000; stroke-linecap:round; stroke-linejoin:round; stroke-width:4; stroke-opacity:1; fill:none" points="2232.76,217.225 2256.76,217.225 "/>
<polyline clip-path="url(#clip860)" style="stroke:#000000; stroke-linecap:round; stroke-linejoin:round; stroke-width:4; stroke-opacity:1; fill:none" points="2232.76,1486.45 2232.76,47.2441 "/>
<path clip-path="url(#clip860)" d="M212.987 250.738 L727.939 250.738 L727.939 95.2176 L212.987 95.2176  Z" fill="#ffffff" fill-rule="evenodd" fill-opacity="1"/>
<polyline clip-path="url(#clip860)" style="stroke:#000000; stroke-linecap:round; stroke-linejoin:round; stroke-width:4; stroke-opacity:1; fill:none" points="212.987,250.738 727.939,250.738 727.939,95.2176 212.987,95.2176 212.987,250.738 "/>
<circle clip-path="url(#clip860)" cx="300.333" cy="147.058" r="20.48" fill="#3da44d" fill-rule="evenodd" fill-opacity="1" stroke="#000000" stroke-opacity="1" stroke-width="4.55111"/>
<path clip-path="url(#clip860)" d="M387.679 129.778 L394.646 129.778 L403.466 153.296 L412.331 129.778 L419.299 129.778 L419.299 164.338 L414.739 164.338 L414.739 133.99 L405.827 157.694 L401.128 157.694 L392.216 133.99 L392.216 164.338 L387.679 164.338 L387.679 129.778 Z" fill="#000000" fill-rule="nonzero" fill-opacity="1" /><path clip-path="url(#clip860)" d="M440.132 134.384 L433.789 151.583 L446.498 151.583 L440.132 134.384 M437.493 129.778 L442.794 129.778 L455.965 164.338 L451.104 164.338 L447.956 155.472 L432.377 155.472 L429.229 164.338 L424.299 164.338 L437.493 129.778 Z" fill="#000000" fill-rule="nonzero" fill-opacity="1" /><path clip-path="url(#clip860)" d="M465.687 133.62 L465.687 146.606 L471.567 146.606 Q474.831 146.606 476.613 144.916 Q478.396 143.227 478.396 140.102 Q478.396 137 476.613 135.31 Q474.831 133.62 471.567 133.62 L465.687 133.62 M461.011 129.778 L471.567 129.778 Q477.377 129.778 480.34 132.416 Q483.326 135.032 483.326 140.102 Q483.326 145.217 480.34 147.833 Q477.377 150.449 471.567 150.449 L465.687 150.449 L465.687 164.338 L461.011 164.338 L461.011 129.778 Z" fill="#000000" fill-rule="nonzero" fill-opacity="1" /><path clip-path="url(#clip860)" d="M526.659 150.31 L526.659 152.393 L507.076 152.393 Q507.354 156.791 509.715 159.106 Q512.099 161.398 516.335 161.398 Q518.789 161.398 521.081 160.796 Q523.395 160.194 525.664 158.99 L525.664 163.018 Q523.372 163.99 520.965 164.5 Q518.557 165.009 516.081 165.009 Q509.877 165.009 506.243 161.398 Q502.632 157.787 502.632 151.629 Q502.632 145.264 506.058 141.537 Q509.507 137.787 515.34 137.787 Q520.571 137.787 523.604 141.166 Q526.659 144.523 526.659 150.31 M522.4 149.06 Q522.354 145.565 520.432 143.481 Q518.534 141.398 515.386 141.398 Q511.821 141.398 509.669 143.412 Q507.539 145.426 507.215 149.083 L522.4 149.06 Z" fill="#000000" fill-rule="nonzero" fill-opacity="1" /><path clip-path="url(#clip860)" d="M550.178 139.176 L550.178 143.203 Q548.372 142.277 546.428 141.815 Q544.483 141.352 542.4 141.352 Q539.229 141.352 537.631 142.324 Q536.057 143.296 536.057 145.24 Q536.057 146.722 537.192 147.578 Q538.326 148.412 541.752 149.176 L543.21 149.5 Q547.747 150.472 549.645 152.254 Q551.567 154.014 551.567 157.185 Q551.567 160.796 548.696 162.902 Q545.849 165.009 540.849 165.009 Q538.766 165.009 536.497 164.592 Q534.252 164.199 531.752 163.388 L531.752 158.99 Q534.113 160.217 536.405 160.842 Q538.696 161.444 540.942 161.444 Q543.951 161.444 545.571 160.426 Q547.192 159.384 547.192 157.509 Q547.192 155.773 546.011 154.847 Q544.854 153.921 540.895 153.064 L539.414 152.717 Q535.456 151.884 533.696 150.171 Q531.937 148.435 531.937 145.426 Q531.937 141.768 534.53 139.778 Q537.122 137.787 541.891 137.787 Q544.252 137.787 546.335 138.134 Q548.418 138.481 550.178 139.176 Z" fill="#000000" fill-rule="nonzero" fill-opacity="1" /><path clip-path="url(#clip860)" d="M562.562 131.051 L562.562 138.412 L571.335 138.412 L571.335 141.722 L562.562 141.722 L562.562 155.796 Q562.562 158.967 563.418 159.87 Q564.298 160.773 566.96 160.773 L571.335 160.773 L571.335 164.338 L566.96 164.338 Q562.029 164.338 560.154 162.509 Q558.279 160.657 558.279 155.796 L558.279 141.722 L555.155 141.722 L555.155 138.412 L558.279 138.412 L558.279 131.051 L562.562 131.051 Z" fill="#000000" fill-rule="nonzero" fill-opacity="1" /><path clip-path="url(#clip860)" d="M576.937 138.412 L581.196 138.412 L581.196 164.338 L576.937 164.338 L576.937 138.412 M576.937 128.319 L581.196 128.319 L581.196 133.713 L576.937 133.713 L576.937 128.319 Z" fill="#000000" fill-rule="nonzero" fill-opacity="1" /><path clip-path="url(#clip860)" d="M610.293 143.389 Q611.89 140.518 614.113 139.153 Q616.335 137.787 619.344 137.787 Q623.395 137.787 625.594 140.634 Q627.793 143.458 627.793 148.689 L627.793 164.338 L623.511 164.338 L623.511 148.828 Q623.511 145.102 622.191 143.296 Q620.872 141.49 618.163 141.49 Q614.853 141.49 612.932 143.69 Q611.011 145.889 611.011 149.685 L611.011 164.338 L606.728 164.338 L606.728 148.828 Q606.728 145.078 605.409 143.296 Q604.089 141.49 601.335 141.49 Q598.071 141.49 596.15 143.713 Q594.228 145.912 594.228 149.685 L594.228 164.338 L589.946 164.338 L589.946 138.412 L594.228 138.412 L594.228 142.44 Q595.687 140.055 597.724 138.921 Q599.761 137.787 602.562 137.787 Q605.386 137.787 607.353 139.222 Q609.344 140.657 610.293 143.389 Z" fill="#000000" fill-rule="nonzero" fill-opacity="1" /><path clip-path="url(#clip860)" d="M648.071 151.305 Q642.909 151.305 640.918 152.486 Q638.927 153.666 638.927 156.514 Q638.927 158.782 640.409 160.125 Q641.913 161.444 644.483 161.444 Q648.024 161.444 650.154 158.944 Q652.307 156.421 652.307 152.254 L652.307 151.305 L648.071 151.305 M656.566 149.546 L656.566 164.338 L652.307 164.338 L652.307 160.402 Q650.848 162.763 648.673 163.898 Q646.497 165.009 643.348 165.009 Q639.367 165.009 637.006 162.787 Q634.668 160.541 634.668 156.791 Q634.668 152.416 637.585 150.194 Q640.524 147.972 646.335 147.972 L652.307 147.972 L652.307 147.555 Q652.307 144.615 650.362 143.018 Q648.441 141.398 644.946 141.398 Q642.723 141.398 640.617 141.93 Q638.511 142.463 636.566 143.527 L636.566 139.592 Q638.904 138.69 641.103 138.25 Q643.302 137.787 645.386 137.787 Q651.01 137.787 653.788 140.703 Q656.566 143.62 656.566 149.546 Z" fill="#000000" fill-rule="nonzero" fill-opacity="1" /><path clip-path="url(#clip860)" d="M669.552 131.051 L669.552 138.412 L678.325 138.412 L678.325 141.722 L669.552 141.722 L669.552 155.796 Q669.552 158.967 670.409 159.87 Q671.288 160.773 673.95 160.773 L678.325 160.773 L678.325 164.338 L673.95 164.338 Q669.02 164.338 667.145 162.509 Q665.27 160.657 665.27 155.796 L665.27 141.722 L662.145 141.722 L662.145 138.412 L665.27 138.412 L665.27 131.051 L669.552 131.051 Z" fill="#000000" fill-rule="nonzero" fill-opacity="1" /><path clip-path="url(#clip860)" d="M706.103 150.31 L706.103 152.393 L686.52 152.393 Q686.797 156.791 689.158 159.106 Q691.543 161.398 695.779 161.398 Q698.232 161.398 700.524 160.796 Q702.839 160.194 705.107 158.99 L705.107 163.018 Q702.816 163.99 700.408 164.5 Q698.001 165.009 695.524 165.009 Q689.32 165.009 685.686 161.398 Q682.075 157.787 682.075 151.629 Q682.075 145.264 685.501 141.537 Q688.95 137.787 694.783 137.787 Q700.015 137.787 703.047 141.166 Q706.103 144.523 706.103 150.31 M701.844 149.06 Q701.797 145.565 699.876 143.481 Q697.978 141.398 694.83 141.398 Q691.265 141.398 689.112 143.412 Q686.983 145.426 686.658 149.083 L701.844 149.06 Z" fill="#000000" fill-rule="nonzero" fill-opacity="1" /><circle clip-path="url(#clip860)" cx="300.333" cy="198.898" r="20.48" fill="#c271d2" fill-rule="evenodd" fill-opacity="1" stroke="#000000" stroke-opacity="1" stroke-width="4.55111"/>
<path clip-path="url(#clip860)" d="M387.679 181.618 L394.646 181.618 L403.466 205.136 L412.331 181.618 L419.299 181.618 L419.299 216.178 L414.739 216.178 L414.739 185.83 L405.827 209.534 L401.128 209.534 L392.216 185.83 L392.216 216.178 L387.679 216.178 L387.679 181.618 Z" fill="#000000" fill-rule="nonzero" fill-opacity="1" /><path clip-path="url(#clip860)" d="M428.581 181.618 L433.257 181.618 L433.257 212.242 L450.086 212.242 L450.086 216.178 L428.581 216.178 L428.581 181.618 Z" fill="#000000" fill-rule="nonzero" fill-opacity="1" /><path clip-path="url(#clip860)" d="M454.993 181.618 L476.845 181.618 L476.845 185.553 L459.669 185.553 L459.669 195.784 L476.127 195.784 L476.127 199.719 L459.669 199.719 L459.669 212.242 L477.261 212.242 L477.261 216.178 L454.993 216.178 L454.993 181.618 Z" fill="#000000" fill-rule="nonzero" fill-opacity="1" /><path clip-path="url(#clip860)" d="M501.289 191.016 L501.289 195.043 Q499.484 194.117 497.539 193.655 Q495.595 193.192 493.511 193.192 Q490.34 193.192 488.743 194.164 Q487.169 195.136 487.169 197.08 Q487.169 198.562 488.303 199.418 Q489.437 200.252 492.863 201.016 L494.322 201.34 Q498.859 202.312 500.757 204.094 Q502.678 205.854 502.678 209.025 Q502.678 212.636 499.808 214.742 Q496.96 216.849 491.96 216.849 Q489.877 216.849 487.609 216.432 Q485.363 216.039 482.863 215.228 L482.863 210.83 Q485.224 212.057 487.516 212.682 Q489.808 213.284 492.053 213.284 Q495.062 213.284 496.683 212.266 Q498.303 211.224 498.303 209.349 Q498.303 207.613 497.122 206.687 Q495.965 205.761 492.007 204.904 L490.525 204.557 Q486.567 203.724 484.808 202.011 Q483.048 200.275 483.048 197.266 Q483.048 193.608 485.641 191.618 Q488.234 189.627 493.002 189.627 Q495.363 189.627 497.446 189.974 Q499.53 190.321 501.289 191.016 Z" fill="#000000" fill-rule="nonzero" fill-opacity="1" /><path clip-path="url(#clip860)" d="M513.673 182.891 L513.673 190.252 L522.446 190.252 L522.446 193.562 L513.673 193.562 L513.673 207.636 Q513.673 210.807 514.53 211.71 Q515.409 212.613 518.071 212.613 L522.446 212.613 L522.446 216.178 L518.071 216.178 Q513.141 216.178 511.266 214.349 Q509.391 212.497 509.391 207.636 L509.391 193.562 L506.266 193.562 L506.266 190.252 L509.391 190.252 L509.391 182.891 L513.673 182.891 Z" fill="#000000" fill-rule="nonzero" fill-opacity="1" /><path clip-path="url(#clip860)" d="M528.048 190.252 L532.307 190.252 L532.307 216.178 L528.048 216.178 L528.048 190.252 M528.048 180.159 L532.307 180.159 L532.307 185.553 L528.048 185.553 L528.048 180.159 Z" fill="#000000" fill-rule="nonzero" fill-opacity="1" /><path clip-path="url(#clip860)" d="M561.404 195.229 Q563.002 192.358 565.224 190.993 Q567.446 189.627 570.455 189.627 Q574.506 189.627 576.705 192.474 Q578.904 195.298 578.904 200.529 L578.904 216.178 L574.622 216.178 L574.622 200.668 Q574.622 196.942 573.303 195.136 Q571.983 193.33 569.275 193.33 Q565.965 193.33 564.043 195.53 Q562.122 197.729 562.122 201.525 L562.122 216.178 L557.84 216.178 L557.84 200.668 Q557.84 196.918 556.52 195.136 Q555.201 193.33 552.446 193.33 Q549.182 193.33 547.261 195.553 Q545.34 197.752 545.34 201.525 L545.34 216.178 L541.057 216.178 L541.057 190.252 L545.34 190.252 L545.34 194.28 Q546.798 191.895 548.835 190.761 Q550.872 189.627 553.673 189.627 Q556.497 189.627 558.465 191.062 Q560.455 192.497 561.404 195.229 Z" fill="#000000" fill-rule="nonzero" fill-opacity="1" /><path clip-path="url(#clip860)" d="M599.182 203.145 Q594.02 203.145 592.029 204.326 Q590.039 205.506 590.039 208.354 Q590.039 210.622 591.52 211.965 Q593.025 213.284 595.594 213.284 Q599.136 213.284 601.265 210.784 Q603.418 208.261 603.418 204.094 L603.418 203.145 L599.182 203.145 M607.677 201.386 L607.677 216.178 L603.418 216.178 L603.418 212.242 Q601.96 214.603 599.784 215.738 Q597.608 216.849 594.46 216.849 Q590.478 216.849 588.117 214.627 Q585.779 212.381 585.779 208.631 Q585.779 204.256 588.696 202.034 Q591.636 199.812 597.446 199.812 L603.418 199.812 L603.418 199.395 Q603.418 196.455 601.474 194.858 Q599.552 193.238 596.057 193.238 Q593.835 193.238 591.728 193.77 Q589.622 194.303 587.677 195.367 L587.677 191.432 Q590.015 190.53 592.214 190.09 Q594.414 189.627 596.497 189.627 Q602.122 189.627 604.9 192.543 Q607.677 195.46 607.677 201.386 Z" fill="#000000" fill-rule="nonzero" fill-opacity="1" /><path clip-path="url(#clip860)" d="M620.663 182.891 L620.663 190.252 L629.437 190.252 L629.437 193.562 L620.663 193.562 L620.663 207.636 Q620.663 210.807 621.52 211.71 Q622.4 212.613 625.062 212.613 L629.437 212.613 L629.437 216.178 L625.062 216.178 Q620.131 216.178 618.256 214.349 Q616.381 212.497 616.381 207.636 L616.381 193.562 L613.256 193.562 L613.256 190.252 L616.381 190.252 L616.381 182.891 L620.663 182.891 Z" fill="#000000" fill-rule="nonzero" fill-opacity="1" /><path clip-path="url(#clip860)" d="M657.214 202.15 L657.214 204.233 L637.631 204.233 Q637.909 208.631 640.27 210.946 Q642.654 213.238 646.89 213.238 Q649.344 213.238 651.635 212.636 Q653.95 212.034 656.219 210.83 L656.219 214.858 Q653.927 215.83 651.52 216.34 Q649.112 216.849 646.636 216.849 Q640.432 216.849 636.798 213.238 Q633.187 209.627 633.187 203.469 Q633.187 197.104 636.612 193.377 Q640.061 189.627 645.895 189.627 Q651.126 189.627 654.159 193.006 Q657.214 196.363 657.214 202.15 M652.955 200.9 Q652.909 197.405 650.987 195.321 Q649.089 193.238 645.941 193.238 Q642.376 193.238 640.223 195.252 Q638.094 197.266 637.77 200.923 L652.955 200.9 Z" fill="#000000" fill-rule="nonzero" fill-opacity="1" /></svg>
