<?xml version="1.0" encoding="utf-8"?>
<svg xmlns="http://www.w3.org/2000/svg" xmlns:xlink="http://www.w3.org/1999/xlink" width="600" height="400" viewBox="0 0 2400 1600">
<defs>
  <clipPath id="clip040">
    <rect x="0" y="0" width="2400" height="1600"/>
  </clipPath>
</defs>
<path clip-path="url(#clip040)" d="M0 1600 L2400 1600 L2400 0 L0 0  Z" fill="#ffffff" fill-rule="evenodd" fill-opacity="1"/>
<defs>
  <clipPath id="clip041">
    <rect x="480" y="0" width="1681" height="1600"/>
  </clipPath>
</defs>
<path clip-path="url(#clip040)" d="M169.121 1423.18 L2352.76 1423.18 L2352.76 47.2441 L169.121 47.2441  Z" fill="#ffffff" fill-rule="evenodd" fill-opacity="1"/>
<defs>
  <clipPath id="clip042">
    <rect x="169" y="47" width="2185" height="1377"/>
  </clipPath>
</defs>
<polyline clip-path="url(#clip042)" style="stroke:#000000; stroke-linecap:round; stroke-linejoin:round; stroke-width:2; stroke-opacity:0.1; fill:none" points="365.438,1423.18 365.438,47.2441 "/>
<polyline clip-path="url(#clip042)" style="stroke:#000000; stroke-linecap:round; stroke-linejoin:round; stroke-width:2; stroke-opacity:0.1; fill:none" points="746.502,1423.18 746.502,47.2441 "/>
<polyline clip-path="url(#clip042)" style="stroke:#000000; stroke-linecap:round; stroke-linejoin:round; stroke-width:2; stroke-opacity:0.1; fill:none" points="1127.57,1423.18 1127.57,47.2441 "/>
<polyline clip-path="url(#clip042)" style="stroke:#000000; stroke-linecap:round; stroke-linejoin:round; stroke-width:2; stroke-opacity:0.1; fill:none" points="1508.63,1423.18 1508.63,47.2441 "/>
<polyline clip-path="url(#clip042)" style="stroke:#000000; stroke-linecap:round; stroke-linejoin:round; stroke-width:2; stroke-opacity:0.1; fill:none" points="1889.69,1423.18 1889.69,47.2441 "/>
<polyline clip-path="url(#clip042)" style="stroke:#000000; stroke-linecap:round; stroke-linejoin:round; stroke-width:2; stroke-opacity:0.1; fill:none" points="2270.76,1423.18 2270.76,47.2441 "/>
<polyline clip-path="url(#clip040)" style="stroke:#000000; stroke-linecap:round; stroke-linejoin:round; stroke-width:4; stroke-opacity:1; fill:none" points="169.121,1423.18 2352.76,1423.18 "/>
<polyline clip-path="url(#clip040)" style="stroke:#000000; stroke-linecap:round; stroke-linejoin:round; stroke-width:4; stroke-opacity:1; fill:none" points="365.438,1423.18 365.438,1404.28 "/>
<polyline clip-path="url(#clip040)" style="stroke:#000000; stroke-linecap:round; stroke-linejoin:round; stroke-width:4; stroke-opacity:1; fill:none" points="746.502,1423.18 746.502,1404.28 "/>
<polyline clip-path="url(#clip040)" style="stroke:#000000; stroke-linecap:round; stroke-linejoin:round; stroke-width:4; stroke-opacity:1; fill:none" points="1127.57,1423.18 1127.57,1404.28 "/>
<polyline clip-path="url(#clip040)" style="stroke:#000000; stroke-linecap:round; stroke-linejoin:round; stroke-width:4; stroke-opacity:1; fill:none" points="1508.63,1423.18 1508.63,1404.28 "/>
<polyline clip-path="url(#clip040)" style="stroke:#000000; stroke-linecap:round; stroke-linejoin:round; stroke-width:4; stroke-opacity:1; fill:none" points="1889.69,1423.18 1889.69,1404.28 "/>
<polyline clip-path="url(#clip040)" style="stroke:#000000; stroke-linecap:round; stroke-linejoin:round; stroke-width:4; stroke-opacity:1; fill:none" points="2270.76,1423.18 2270.76,1404.28 "/>
<path clip-path="url(#clip040)" d="M327.741 1454.1 Q324.13 1454.1 322.302 1457.66 Q320.496 1461.2 320.496 1468.33 Q320.496 1475.44 322.302 1479.01 Q324.13 1482.55 327.741 1482.55 Q331.376 1482.55 333.181 1479.01 Q335.01 1475.44 335.01 1468.33 Q335.01 1461.2 333.181 1457.66 Q331.376 1454.1 327.741 1454.1 M327.741 1450.39 Q333.552 1450.39 336.607 1455 Q339.686 1459.58 339.686 1468.33 Q339.686 1477.06 336.607 1481.67 Q333.552 1486.25 327.741 1486.25 Q321.931 1486.25 318.853 1481.67 Q315.797 1477.06 315.797 1468.33 Q315.797 1459.58 318.853 1455 Q321.931 1450.39 327.741 1450.39 Z" fill="#000000" fill-rule="nonzero" fill-opacity="1" /><path clip-path="url(#clip040)" d="M347.903 1479.7 L352.788 1479.7 L352.788 1485.58 L347.903 1485.58 L347.903 1479.7 Z" fill="#000000" fill-rule="nonzero" fill-opacity="1" /><path clip-path="url(#clip040)" d="M361.792 1451.02 L384.014 1451.02 L384.014 1453.01 L371.468 1485.58 L366.584 1485.58 L378.389 1454.96 L361.792 1454.96 L361.792 1451.02 Z" fill="#000000" fill-rule="nonzero" fill-opacity="1" /><path clip-path="url(#clip040)" d="M403.134 1454.1 Q399.523 1454.1 397.695 1457.66 Q395.889 1461.2 395.889 1468.33 Q395.889 1475.44 397.695 1479.01 Q399.523 1482.55 403.134 1482.55 Q406.769 1482.55 408.574 1479.01 Q410.403 1475.44 410.403 1468.33 Q410.403 1461.2 408.574 1457.66 Q406.769 1454.1 403.134 1454.1 M403.134 1450.39 Q408.945 1450.39 412 1455 Q415.079 1459.58 415.079 1468.33 Q415.079 1477.06 412 1481.67 Q408.945 1486.25 403.134 1486.25 Q397.324 1486.25 394.246 1481.67 Q391.19 1477.06 391.19 1468.33 Q391.19 1459.58 394.246 1455 Q397.324 1450.39 403.134 1450.39 Z" fill="#000000" fill-rule="nonzero" fill-opacity="1" /><path clip-path="url(#clip040)" d="M709.303 1454.1 Q705.692 1454.1 703.863 1457.66 Q702.058 1461.2 702.058 1468.33 Q702.058 1475.44 703.863 1479.01 Q705.692 1482.55 709.303 1482.55 Q712.937 1482.55 714.743 1479.01 Q716.572 1475.44 716.572 1468.33 Q716.572 1461.2 714.743 1457.66 Q712.937 1454.1 709.303 1454.1 M709.303 1450.39 Q715.113 1450.39 718.169 1455 Q721.248 1459.58 721.248 1468.33 Q721.248 1477.06 718.169 1481.67 Q715.113 1486.25 709.303 1486.25 Q703.493 1486.25 700.414 1481.67 Q697.359 1477.06 697.359 1468.33 Q697.359 1459.58 700.414 1455 Q703.493 1450.39 709.303 1450.39 Z" fill="#000000" fill-rule="nonzero" fill-opacity="1" /><path clip-path="url(#clip040)" d="M729.465 1479.7 L734.349 1479.7 L734.349 1485.58 L729.465 1485.58 L729.465 1479.7 Z" fill="#000000" fill-rule="nonzero" fill-opacity="1" /><path clip-path="url(#clip040)" d="M743.354 1451.02 L765.576 1451.02 L765.576 1453.01 L753.03 1485.58 L748.146 1485.58 L759.951 1454.96 L743.354 1454.96 L743.354 1451.02 Z" fill="#000000" fill-rule="nonzero" fill-opacity="1" /><path clip-path="url(#clip040)" d="M774.743 1451.02 L793.099 1451.02 L793.099 1454.96 L779.025 1454.96 L779.025 1463.43 Q780.044 1463.08 781.062 1462.92 Q782.081 1462.73 783.099 1462.73 Q788.886 1462.73 792.266 1465.9 Q795.645 1469.08 795.645 1474.49 Q795.645 1480.07 792.173 1483.17 Q788.701 1486.25 782.381 1486.25 Q780.206 1486.25 777.937 1485.88 Q775.692 1485.51 773.284 1484.77 L773.284 1480.07 Q775.368 1481.2 777.59 1481.76 Q779.812 1482.32 782.289 1482.32 Q786.294 1482.32 788.631 1480.21 Q790.969 1478.1 790.969 1474.49 Q790.969 1470.88 788.631 1468.77 Q786.294 1466.67 782.289 1466.67 Q780.414 1466.67 778.539 1467.08 Q776.687 1467.5 774.743 1468.38 L774.743 1451.02 Z" fill="#000000" fill-rule="nonzero" fill-opacity="1" /><path clip-path="url(#clip040)" d="M1089.87 1454.1 Q1086.26 1454.1 1084.43 1457.66 Q1082.62 1461.2 1082.62 1468.33 Q1082.62 1475.44 1084.43 1479.01 Q1086.26 1482.55 1089.87 1482.55 Q1093.5 1482.55 1095.31 1479.01 Q1097.14 1475.44 1097.14 1468.33 Q1097.14 1461.2 1095.31 1457.66 Q1093.5 1454.1 1089.87 1454.1 M1089.87 1450.39 Q1095.68 1450.39 1098.74 1455 Q1101.81 1459.58 1101.81 1468.33 Q1101.81 1477.06 1098.74 1481.67 Q1095.68 1486.25 1089.87 1486.25 Q1084.06 1486.25 1080.98 1481.67 Q1077.93 1477.06 1077.93 1468.33 Q1077.93 1459.58 1080.98 1455 Q1084.06 1450.39 1089.87 1450.39 Z" fill="#000000" fill-rule="nonzero" fill-opacity="1" /><path clip-path="url(#clip040)" d="M1110.03 1479.7 L1114.92 1479.7 L1114.92 1485.58 L1110.03 1485.58 L1110.03 1479.7 Z" fill="#000000" fill-rule="nonzero" fill-opacity="1" /><path clip-path="url(#clip040)" d="M1135.1 1469.17 Q1131.77 1469.17 1129.85 1470.95 Q1127.95 1472.73 1127.95 1475.86 Q1127.95 1478.98 1129.85 1480.77 Q1131.77 1482.55 1135.1 1482.55 Q1138.43 1482.55 1140.36 1480.77 Q1142.28 1478.96 1142.28 1475.86 Q1142.28 1472.73 1140.36 1470.95 Q1138.46 1469.17 1135.1 1469.17 M1130.42 1467.18 Q1127.42 1466.44 1125.73 1464.38 Q1124.06 1462.32 1124.06 1459.35 Q1124.06 1455.21 1127 1452.8 Q1129.96 1450.39 1135.1 1450.39 Q1140.26 1450.39 1143.2 1452.8 Q1146.14 1455.21 1146.14 1459.35 Q1146.14 1462.32 1144.45 1464.38 Q1142.79 1466.44 1139.8 1467.18 Q1143.18 1467.96 1145.05 1470.26 Q1146.95 1472.55 1146.95 1475.86 Q1146.95 1480.88 1143.87 1483.57 Q1140.82 1486.25 1135.1 1486.25 Q1129.38 1486.25 1126.3 1483.57 Q1123.25 1480.88 1123.25 1475.86 Q1123.25 1472.55 1125.15 1470.26 Q1127.05 1467.96 1130.42 1467.18 M1128.71 1459.79 Q1128.71 1462.48 1130.38 1463.98 Q1132.07 1465.49 1135.1 1465.49 Q1138.11 1465.49 1139.8 1463.98 Q1141.51 1462.48 1141.51 1459.79 Q1141.51 1457.11 1139.8 1455.6 Q1138.11 1454.1 1135.1 1454.1 Q1132.07 1454.1 1130.38 1455.6 Q1128.71 1457.11 1128.71 1459.79 Z" fill="#000000" fill-rule="nonzero" fill-opacity="1" /><path clip-path="url(#clip040)" d="M1165.26 1454.1 Q1161.65 1454.1 1159.82 1457.66 Q1158.02 1461.2 1158.02 1468.33 Q1158.02 1475.44 1159.82 1479.01 Q1161.65 1482.55 1165.26 1482.55 Q1168.9 1482.55 1170.7 1479.01 Q1172.53 1475.44 1172.53 1468.33 Q1172.53 1461.2 1170.7 1457.66 Q1168.9 1454.1 1165.26 1454.1 M1165.26 1450.39 Q1171.07 1450.39 1174.13 1455 Q1177.21 1459.58 1177.21 1468.33 Q1177.21 1477.06 1174.13 1481.67 Q1171.07 1486.25 1165.26 1486.25 Q1159.45 1486.25 1156.37 1481.67 Q1153.32 1477.06 1153.32 1468.33 Q1153.32 1459.58 1156.37 1455 Q1159.45 1450.39 1165.26 1450.39 Z" fill="#000000" fill-rule="nonzero" fill-opacity="1" /><path clip-path="url(#clip040)" d="M1471.43 1454.1 Q1467.82 1454.1 1465.99 1457.66 Q1464.19 1461.2 1464.19 1468.33 Q1464.19 1475.44 1465.99 1479.01 Q1467.82 1482.55 1471.43 1482.55 Q1475.07 1482.55 1476.87 1479.01 Q1478.7 1475.44 1478.7 1468.33 Q1478.7 1461.2 1476.87 1457.66 Q1475.07 1454.1 1471.43 1454.1 M1471.43 1450.39 Q1477.24 1450.39 1480.3 1455 Q1483.38 1459.58 1483.38 1468.33 Q1483.38 1477.06 1480.3 1481.67 Q1477.24 1486.25 1471.43 1486.25 Q1465.62 1486.25 1462.54 1481.67 Q1459.49 1477.06 1459.49 1468.33 Q1459.49 1459.58 1462.54 1455 Q1465.62 1450.39 1471.43 1450.39 Z" fill="#000000" fill-rule="nonzero" fill-opacity="1" /><path clip-path="url(#clip040)" d="M1491.59 1479.7 L1496.48 1479.7 L1496.48 1485.58 L1491.59 1485.58 L1491.59 1479.7 Z" fill="#000000" fill-rule="nonzero" fill-opacity="1" /><path clip-path="url(#clip040)" d="M1516.66 1469.17 Q1513.33 1469.17 1511.41 1470.95 Q1509.51 1472.73 1509.51 1475.86 Q1509.51 1478.98 1511.41 1480.77 Q1513.33 1482.55 1516.66 1482.55 Q1520 1482.55 1521.92 1480.77 Q1523.84 1478.96 1523.84 1475.86 Q1523.84 1472.73 1521.92 1470.95 Q1520.02 1469.17 1516.66 1469.17 M1511.99 1467.18 Q1508.98 1466.44 1507.29 1464.38 Q1505.62 1462.32 1505.62 1459.35 Q1505.62 1455.21 1508.56 1452.8 Q1511.52 1450.39 1516.66 1450.39 Q1521.82 1450.39 1524.76 1452.8 Q1527.7 1455.21 1527.7 1459.35 Q1527.7 1462.32 1526.01 1464.38 Q1524.35 1466.44 1521.36 1467.18 Q1524.74 1467.96 1526.62 1470.26 Q1528.51 1472.55 1528.51 1475.86 Q1528.51 1480.88 1525.44 1483.57 Q1522.38 1486.25 1516.66 1486.25 Q1510.95 1486.25 1507.87 1483.57 Q1504.81 1480.88 1504.81 1475.86 Q1504.81 1472.55 1506.71 1470.26 Q1508.61 1467.96 1511.99 1467.18 M1510.27 1459.79 Q1510.27 1462.48 1511.94 1463.98 Q1513.63 1465.49 1516.66 1465.49 Q1519.67 1465.49 1521.36 1463.98 Q1523.07 1462.48 1523.07 1459.79 Q1523.07 1457.11 1521.36 1455.6 Q1519.67 1454.1 1516.66 1454.1 Q1513.63 1454.1 1511.94 1455.6 Q1510.27 1457.11 1510.27 1459.79 Z" fill="#000000" fill-rule="nonzero" fill-opacity="1" /><path clip-path="url(#clip040)" d="M1536.87 1451.02 L1555.23 1451.02 L1555.23 1454.96 L1541.15 1454.96 L1541.15 1463.43 Q1542.17 1463.08 1543.19 1462.92 Q1544.21 1462.73 1545.23 1462.73 Q1551.01 1462.73 1554.39 1465.9 Q1557.77 1469.08 1557.77 1474.49 Q1557.77 1480.07 1554.3 1483.17 Q1550.83 1486.25 1544.51 1486.25 Q1542.33 1486.25 1540.07 1485.88 Q1537.82 1485.51 1535.41 1484.77 L1535.41 1480.07 Q1537.5 1481.2 1539.72 1481.76 Q1541.94 1482.32 1544.42 1482.32 Q1548.42 1482.32 1550.76 1480.21 Q1553.1 1478.1 1553.1 1474.49 Q1553.1 1470.88 1550.76 1468.77 Q1548.42 1466.67 1544.42 1466.67 Q1542.54 1466.67 1540.67 1467.08 Q1538.82 1467.5 1536.87 1468.38 L1536.87 1451.02 Z" fill="#000000" fill-rule="nonzero" fill-opacity="1" /><path clip-path="url(#clip040)" d="M1852 1454.1 Q1848.39 1454.1 1846.56 1457.66 Q1844.75 1461.2 1844.75 1468.33 Q1844.75 1475.44 1846.56 1479.01 Q1848.39 1482.55 1852 1482.55 Q1855.63 1482.55 1857.44 1479.01 Q1859.27 1475.44 1859.27 1468.33 Q1859.27 1461.2 1857.44 1457.66 Q1855.63 1454.1 1852 1454.1 M1852 1450.39 Q1857.81 1450.39 1860.86 1455 Q1863.94 1459.58 1863.94 1468.33 Q1863.94 1477.06 1860.86 1481.67 Q1857.81 1486.25 1852 1486.25 Q1846.19 1486.25 1843.11 1481.67 Q1840.05 1477.06 1840.05 1468.33 Q1840.05 1459.58 1843.11 1455 Q1846.19 1450.39 1852 1450.39 Z" fill="#000000" fill-rule="nonzero" fill-opacity="1" /><path clip-path="url(#clip040)" d="M1872.16 1479.7 L1877.04 1479.7 L1877.04 1485.58 L1872.16 1485.58 L1872.16 1479.7 Z" fill="#000000" fill-rule="nonzero" fill-opacity="1" /><path clip-path="url(#clip040)" d="M1887.37 1484.86 L1887.37 1480.6 Q1889.13 1481.44 1890.93 1481.88 Q1892.74 1482.32 1894.47 1482.32 Q1899.1 1482.32 1901.53 1479.21 Q1903.99 1476.09 1904.34 1469.75 Q1902.99 1471.74 1900.93 1472.8 Q1898.87 1473.87 1896.37 1473.87 Q1891.19 1473.87 1888.16 1470.74 Q1885.15 1467.59 1885.15 1462.15 Q1885.15 1456.83 1888.29 1453.61 Q1891.44 1450.39 1896.67 1450.39 Q1902.67 1450.39 1905.82 1455 Q1908.99 1459.58 1908.99 1468.33 Q1908.99 1476.51 1905.1 1481.39 Q1901.23 1486.25 1894.68 1486.25 Q1892.92 1486.25 1891.12 1485.9 Q1889.31 1485.56 1887.37 1484.86 M1896.67 1470.21 Q1899.82 1470.21 1901.65 1468.06 Q1903.5 1465.9 1903.5 1462.15 Q1903.5 1458.43 1901.65 1456.27 Q1899.82 1454.1 1896.67 1454.1 Q1893.53 1454.1 1891.67 1456.27 Q1889.84 1458.43 1889.84 1462.15 Q1889.84 1465.9 1891.67 1468.06 Q1893.53 1470.21 1896.67 1470.21 Z" fill="#000000" fill-rule="nonzero" fill-opacity="1" /><path clip-path="url(#clip040)" d="M1927.39 1454.1 Q1923.78 1454.1 1921.95 1457.66 Q1920.15 1461.2 1920.15 1468.33 Q1920.15 1475.44 1921.95 1479.01 Q1923.78 1482.55 1927.39 1482.55 Q1931.03 1482.55 1932.83 1479.01 Q1934.66 1475.44 1934.66 1468.33 Q1934.66 1461.2 1932.83 1457.66 Q1931.03 1454.1 1927.39 1454.1 M1927.39 1450.39 Q1933.2 1450.39 1936.26 1455 Q1939.34 1459.58 1939.34 1468.33 Q1939.34 1477.06 1936.26 1481.67 Q1933.2 1486.25 1927.39 1486.25 Q1921.58 1486.25 1918.5 1481.67 Q1915.45 1477.06 1915.45 1468.33 Q1915.45 1459.58 1918.5 1455 Q1921.58 1450.39 1927.39 1450.39 Z" fill="#000000" fill-rule="nonzero" fill-opacity="1" /><path clip-path="url(#clip040)" d="M2233.56 1454.1 Q2229.95 1454.1 2228.12 1457.66 Q2226.31 1461.2 2226.31 1468.33 Q2226.31 1475.44 2228.12 1479.01 Q2229.95 1482.55 2233.56 1482.55 Q2237.19 1482.55 2239 1479.01 Q2240.83 1475.44 2240.83 1468.33 Q2240.83 1461.2 2239 1457.66 Q2237.19 1454.1 2233.56 1454.1 M2233.56 1450.39 Q2239.37 1450.39 2242.43 1455 Q2245.5 1459.58 2245.5 1468.33 Q2245.5 1477.06 2242.43 1481.67 Q2239.37 1486.25 2233.56 1486.25 Q2227.75 1486.25 2224.67 1481.67 Q2221.62 1477.06 2221.62 1468.33 Q2221.62 1459.58 2224.67 1455 Q2227.75 1450.39 2233.56 1450.39 Z" fill="#000000" fill-rule="nonzero" fill-opacity="1" /><path clip-path="url(#clip040)" d="M2253.72 1479.7 L2258.61 1479.7 L2258.61 1485.58 L2253.72 1485.58 L2253.72 1479.7 Z" fill="#000000" fill-rule="nonzero" fill-opacity="1" /><path clip-path="url(#clip040)" d="M2268.93 1484.86 L2268.93 1480.6 Q2270.69 1481.44 2272.49 1481.88 Q2274.3 1482.32 2276.04 1482.32 Q2280.67 1482.32 2283.1 1479.21 Q2285.55 1476.09 2285.9 1469.75 Q2284.55 1471.74 2282.49 1472.8 Q2280.43 1473.87 2277.93 1473.87 Q2272.75 1473.87 2269.72 1470.74 Q2266.71 1467.59 2266.71 1462.15 Q2266.71 1456.83 2269.86 1453.61 Q2273 1450.39 2278.24 1450.39 Q2284.23 1450.39 2287.38 1455 Q2290.55 1459.58 2290.55 1468.33 Q2290.55 1476.51 2286.66 1481.39 Q2282.8 1486.25 2276.24 1486.25 Q2274.49 1486.25 2272.68 1485.9 Q2270.87 1485.56 2268.93 1484.86 M2278.24 1470.21 Q2281.38 1470.21 2283.21 1468.06 Q2285.06 1465.9 2285.06 1462.15 Q2285.06 1458.43 2283.21 1456.27 Q2281.38 1454.1 2278.24 1454.1 Q2275.09 1454.1 2273.24 1456.27 Q2271.41 1458.43 2271.41 1462.15 Q2271.41 1465.9 2273.24 1468.06 Q2275.09 1470.21 2278.24 1470.21 Z" fill="#000000" fill-rule="nonzero" fill-opacity="1" /><path clip-path="url(#clip040)" d="M2299 1451.02 L2317.36 1451.02 L2317.36 1454.96 L2303.28 1454.96 L2303.28 1463.43 Q2304.3 1463.08 2305.32 1462.92 Q2306.34 1462.73 2307.36 1462.73 Q2313.14 1462.73 2316.52 1465.9 Q2319.9 1469.08 2319.9 1474.49 Q2319.9 1480.07 2316.43 1483.17 Q2312.96 1486.25 2306.64 1486.25 Q2304.46 1486.25 2302.19 1485.88 Q2299.95 1485.51 2297.54 1484.77 L2297.54 1480.07 Q2299.62 1481.2 2301.85 1481.76 Q2304.07 1482.32 2306.55 1482.32 Q2310.55 1482.32 2312.89 1480.21 Q2315.23 1478.1 2315.23 1474.49 Q2315.23 1470.88 2312.89 1468.77 Q2310.55 1466.67 2306.55 1466.67 Q2304.67 1466.67 2302.8 1467.08 Q2300.94 1467.5 2299 1468.38 L2299 1451.02 Z" fill="#000000" fill-rule="nonzero" fill-opacity="1" /><path clip-path="url(#clip040)" d="M1250.88 1562.7 L1250.88 1581.6 L1244.99 1581.6 L1244.99 1532.4 L1250.88 1532.4 L1250.88 1537.81 Q1252.73 1534.62 1255.53 1533.1 Q1258.36 1531.54 1262.28 1531.54 Q1268.77 1531.54 1272.81 1536.69 Q1276.88 1541.85 1276.88 1550.25 Q1276.88 1558.65 1272.81 1563.81 Q1268.77 1568.97 1262.28 1568.97 Q1258.36 1568.97 1255.53 1567.44 Q1252.73 1565.88 1250.88 1562.7 M1270.81 1550.25 Q1270.81 1543.79 1268.13 1540.13 Q1265.49 1536.44 1260.84 1536.44 Q1256.2 1536.44 1253.52 1540.13 Q1250.88 1543.79 1250.88 1550.25 Q1250.88 1556.71 1253.52 1560.4 Q1256.2 1564.07 1260.84 1564.07 Q1265.49 1564.07 1268.13 1560.4 Q1270.81 1556.71 1270.81 1550.25 Z" fill="#000000" fill-rule="nonzero" fill-opacity="1" /><polyline clip-path="url(#clip042)" style="stroke:#000000; stroke-linecap:round; stroke-linejoin:round; stroke-width:2; stroke-opacity:0.1; fill:none" points="169.121,1423.18 2352.76,1423.18 "/>
<polyline clip-path="url(#clip042)" style="stroke:#000000; stroke-linecap:round; stroke-linejoin:round; stroke-width:2; stroke-opacity:0.1; fill:none" points="169.121,1189.18 2352.76,1189.18 "/>
<polyline clip-path="url(#clip042)" style="stroke:#000000; stroke-linecap:round; stroke-linejoin:round; stroke-width:2; stroke-opacity:0.1; fill:none" points="169.121,955.174 2352.76,955.174 "/>
<polyline clip-path="url(#clip042)" style="stroke:#000000; stroke-linecap:round; stroke-linejoin:round; stroke-width:2; stroke-opacity:0.1; fill:none" points="169.121,721.172 2352.76,721.172 "/>
<polyline clip-path="url(#clip042)" style="stroke:#000000; stroke-linecap:round; stroke-linejoin:round; stroke-width:2; stroke-opacity:0.1; fill:none" points="169.121,487.169 2352.76,487.169 "/>
<polyline clip-path="url(#clip042)" style="stroke:#000000; stroke-linecap:round; stroke-linejoin:round; stroke-width:2; stroke-opacity:0.1; fill:none" points="169.121,253.166 2352.76,253.166 "/>
<polyline clip-path="url(#clip040)" style="stroke:#000000; stroke-linecap:round; stroke-linejoin:round; stroke-width:4; stroke-opacity:1; fill:none" points="169.121,1423.18 169.121,47.2441 "/>
<polyline clip-path="url(#clip040)" style="stroke:#000000; stroke-linecap:round; stroke-linejoin:round; stroke-width:4; stroke-opacity:1; fill:none" points="169.121,1423.18 188.019,1423.18 "/>
<polyline clip-path="url(#clip040)" style="stroke:#000000; stroke-linecap:round; stroke-linejoin:round; stroke-width:4; stroke-opacity:1; fill:none" points="169.121,1189.18 188.019,1189.18 "/>
<polyline clip-path="url(#clip040)" style="stroke:#000000; stroke-linecap:round; stroke-linejoin:round; stroke-width:4; stroke-opacity:1; fill:none" points="169.121,955.174 188.019,955.174 "/>
<polyline clip-path="url(#clip040)" style="stroke:#000000; stroke-linecap:round; stroke-linejoin:round; stroke-width:4; stroke-opacity:1; fill:none" points="169.121,721.172 188.019,721.172 "/>
<polyline clip-path="url(#clip040)" style="stroke:#000000; stroke-linecap:round; stroke-linejoin:round; stroke-width:4; stroke-opacity:1; fill:none" points="169.121,487.169 188.019,487.169 "/>
<polyline clip-path="url(#clip040)" style="stroke:#000000; stroke-linecap:round; stroke-linejoin:round; stroke-width:4; stroke-opacity:1; fill:none" points="169.121,253.166 188.019,253.166 "/>
<path clip-path="url(#clip040)" d="M121.177 1408.98 Q117.566 1408.98 115.737 1412.54 Q113.932 1416.08 113.932 1423.21 Q113.932 1430.32 115.737 1433.89 Q117.566 1437.43 121.177 1437.43 Q124.811 1437.43 126.617 1433.89 Q128.445 1430.32 128.445 1423.21 Q128.445 1416.08 126.617 1412.54 Q124.811 1408.98 121.177 1408.98 M121.177 1405.27 Q126.987 1405.27 130.043 1409.88 Q133.121 1414.46 133.121 1423.21 Q133.121 1431.94 130.043 1436.55 Q126.987 1441.13 121.177 1441.13 Q115.367 1441.13 112.288 1436.55 Q109.233 1431.94 109.233 1423.21 Q109.233 1414.46 112.288 1409.88 Q115.367 1405.27 121.177 1405.27 Z" fill="#000000" fill-rule="nonzero" fill-opacity="1" /><path clip-path="url(#clip040)" d="M86.0382 1202.52 L102.358 1202.52 L102.358 1206.46 L80.4133 1206.46 L80.4133 1202.52 Q83.0753 1199.77 87.6586 1195.14 Q92.2651 1190.49 93.4456 1189.14 Q95.691 1186.62 96.5706 1184.88 Q97.4734 1183.12 97.4734 1181.43 Q97.4734 1178.68 95.5289 1176.94 Q93.6076 1175.21 90.5058 1175.21 Q88.3067 1175.21 85.8531 1175.97 Q83.4225 1176.74 80.6447 1178.29 L80.6447 1173.56 Q83.4688 1172.43 85.9225 1171.85 Q88.3762 1171.27 90.4132 1171.27 Q95.7836 1171.27 98.978 1173.96 Q102.172 1176.64 102.172 1181.13 Q102.172 1183.26 101.362 1185.18 Q100.575 1187.08 98.4687 1189.67 Q97.89 1190.35 94.7882 1193.56 Q91.6864 1196.76 86.0382 1202.52 Z" fill="#000000" fill-rule="nonzero" fill-opacity="1" /><path clip-path="url(#clip040)" d="M112.219 1171.9 L130.575 1171.9 L130.575 1175.83 L116.501 1175.83 L116.501 1184.3 Q117.52 1183.96 118.538 1183.8 Q119.557 1183.61 120.575 1183.61 Q126.362 1183.61 129.742 1186.78 Q133.121 1189.95 133.121 1195.37 Q133.121 1200.95 129.649 1204.05 Q126.177 1207.13 119.857 1207.13 Q117.682 1207.13 115.413 1206.76 Q113.168 1206.39 110.76 1205.65 L110.76 1200.95 Q112.844 1202.08 115.066 1202.64 Q117.288 1203.19 119.765 1203.19 Q123.77 1203.19 126.107 1201.09 Q128.445 1198.98 128.445 1195.37 Q128.445 1191.76 126.107 1189.65 Q123.77 1187.55 119.765 1187.55 Q117.89 1187.55 116.015 1187.96 Q114.163 1188.38 112.219 1189.26 L112.219 1171.9 Z" fill="#000000" fill-rule="nonzero" fill-opacity="1" /><path clip-path="url(#clip040)" d="M81.0614 937.894 L99.4178 937.894 L99.4178 941.83 L85.3438 941.83 L85.3438 950.302 Q86.3623 949.955 87.3808 949.793 Q88.3993 949.607 89.4178 949.607 Q95.2049 949.607 98.5845 952.779 Q101.964 955.95 101.964 961.367 Q101.964 966.945 98.4919 970.047 Q95.0197 973.126 88.7003 973.126 Q86.5243 973.126 84.2558 972.755 Q82.0105 972.385 79.6031 971.644 L79.6031 966.945 Q81.6864 968.08 83.9086 968.635 Q86.1308 969.191 88.6077 969.191 Q92.6123 969.191 94.9502 967.084 Q97.2882 964.978 97.2882 961.367 Q97.2882 957.755 94.9502 955.649 Q92.6123 953.543 88.6077 953.543 Q86.7327 953.543 84.8577 953.959 Q83.0058 954.376 81.0614 955.256 L81.0614 937.894 Z" fill="#000000" fill-rule="nonzero" fill-opacity="1" /><path clip-path="url(#clip040)" d="M121.177 940.973 Q117.566 940.973 115.737 944.538 Q113.932 948.08 113.932 955.209 Q113.932 962.316 115.737 965.88 Q117.566 969.422 121.177 969.422 Q124.811 969.422 126.617 965.88 Q128.445 962.316 128.445 955.209 Q128.445 948.08 126.617 944.538 Q124.811 940.973 121.177 940.973 M121.177 937.269 Q126.987 937.269 130.043 941.876 Q133.121 946.459 133.121 955.209 Q133.121 963.936 130.043 968.542 Q126.987 973.126 121.177 973.126 Q115.367 973.126 112.288 968.542 Q109.233 963.936 109.233 955.209 Q109.233 946.459 112.288 941.876 Q115.367 937.269 121.177 937.269 Z" fill="#000000" fill-rule="nonzero" fill-opacity="1" /><path clip-path="url(#clip040)" d="M80.8299 703.892 L103.052 703.892 L103.052 705.883 L90.5058 738.452 L85.6216 738.452 L97.4271 707.827 L80.8299 707.827 L80.8299 703.892 Z" fill="#000000" fill-rule="nonzero" fill-opacity="1" /><path clip-path="url(#clip040)" d="M112.219 703.892 L130.575 703.892 L130.575 707.827 L116.501 707.827 L116.501 716.299 Q117.52 715.952 118.538 715.79 Q119.557 715.605 120.575 715.605 Q126.362 715.605 129.742 718.776 Q133.121 721.947 133.121 727.364 Q133.121 732.943 129.649 736.044 Q126.177 739.123 119.857 739.123 Q117.682 739.123 115.413 738.753 Q113.168 738.382 110.76 737.642 L110.76 732.943 Q112.844 734.077 115.066 734.632 Q117.288 735.188 119.765 735.188 Q123.77 735.188 126.107 733.081 Q128.445 730.975 128.445 727.364 Q128.445 723.753 126.107 721.646 Q123.77 719.54 119.765 719.54 Q117.89 719.54 116.015 719.957 Q114.163 720.373 112.219 721.253 L112.219 703.892 Z" fill="#000000" fill-rule="nonzero" fill-opacity="1" /><path clip-path="url(#clip040)" d="M51.6634 500.514 L59.3023 500.514 L59.3023 474.148 L50.9921 475.815 L50.9921 471.556 L59.256 469.889 L63.9319 469.889 L63.9319 500.514 L71.5707 500.514 L71.5707 504.449 L51.6634 504.449 L51.6634 500.514 Z" fill="#000000" fill-rule="nonzero" fill-opacity="1" /><path clip-path="url(#clip040)" d="M91.0151 472.968 Q87.404 472.968 85.5753 476.533 Q83.7697 480.074 83.7697 487.204 Q83.7697 494.31 85.5753 497.875 Q87.404 501.417 91.0151 501.417 Q94.6493 501.417 96.4548 497.875 Q98.2835 494.31 98.2835 487.204 Q98.2835 480.074 96.4548 476.533 Q94.6493 472.968 91.0151 472.968 M91.0151 469.264 Q96.8252 469.264 99.8808 473.871 Q102.959 478.454 102.959 487.204 Q102.959 495.931 99.8808 500.537 Q96.8252 505.12 91.0151 505.12 Q85.2049 505.12 82.1262 500.537 Q79.0707 495.931 79.0707 487.204 Q79.0707 478.454 82.1262 473.871 Q85.2049 469.264 91.0151 469.264 Z" fill="#000000" fill-rule="nonzero" fill-opacity="1" /><path clip-path="url(#clip040)" d="M121.177 472.968 Q117.566 472.968 115.737 476.533 Q113.932 480.074 113.932 487.204 Q113.932 494.31 115.737 497.875 Q117.566 501.417 121.177 501.417 Q124.811 501.417 126.617 497.875 Q128.445 494.31 128.445 487.204 Q128.445 480.074 126.617 476.533 Q124.811 472.968 121.177 472.968 M121.177 469.264 Q126.987 469.264 130.043 473.871 Q133.121 478.454 133.121 487.204 Q133.121 495.931 130.043 500.537 Q126.987 505.12 121.177 505.12 Q115.367 505.12 112.288 500.537 Q109.233 495.931 109.233 487.204 Q109.233 478.454 112.288 473.871 Q115.367 469.264 121.177 469.264 Z" fill="#000000" fill-rule="nonzero" fill-opacity="1" /><path clip-path="url(#clip040)" d="M52.6588 266.511 L60.2976 266.511 L60.2976 240.146 L51.9875 241.812 L51.9875 237.553 L60.2513 235.886 L64.9272 235.886 L64.9272 266.511 L72.5661 266.511 L72.5661 270.446 L52.6588 270.446 L52.6588 266.511 Z" fill="#000000" fill-rule="nonzero" fill-opacity="1" /><path clip-path="url(#clip040)" d="M86.0382 266.511 L102.358 266.511 L102.358 270.446 L80.4133 270.446 L80.4133 266.511 Q83.0753 263.757 87.6586 259.127 Q92.2651 254.474 93.4456 253.132 Q95.691 250.609 96.5706 248.872 Q97.4734 247.113 97.4734 245.423 Q97.4734 242.669 95.5289 240.933 Q93.6076 239.197 90.5058 239.197 Q88.3067 239.197 85.8531 239.961 Q83.4225 240.724 80.6447 242.275 L80.6447 237.553 Q83.4688 236.419 85.9225 235.84 Q88.3762 235.261 90.4132 235.261 Q95.7836 235.261 98.978 237.947 Q102.172 240.632 102.172 245.123 Q102.172 247.252 101.362 249.173 Q100.575 251.072 98.4687 253.664 Q97.89 254.335 94.7882 257.553 Q91.6864 260.747 86.0382 266.511 Z" fill="#000000" fill-rule="nonzero" fill-opacity="1" /><path clip-path="url(#clip040)" d="M112.219 235.886 L130.575 235.886 L130.575 239.822 L116.501 239.822 L116.501 248.294 Q117.52 247.947 118.538 247.785 Q119.557 247.599 120.575 247.599 Q126.362 247.599 129.742 250.771 Q133.121 253.942 133.121 259.359 Q133.121 264.937 129.649 268.039 Q126.177 271.118 119.857 271.118 Q117.682 271.118 115.413 270.747 Q113.168 270.377 110.76 269.636 L110.76 264.937 Q112.844 266.071 115.066 266.627 Q117.288 267.183 119.765 267.183 Q123.77 267.183 126.107 265.076 Q128.445 262.97 128.445 259.359 Q128.445 255.747 126.107 253.641 Q123.77 251.535 119.765 251.535 Q117.89 251.535 116.015 251.951 Q114.163 252.368 112.219 253.247 L112.219 235.886 Z" fill="#000000" fill-rule="nonzero" fill-opacity="1" /><path clip-path="url(#clip042)" d="M289.225 1385.74 L289.225 1423.18 L327.332 1423.18 L327.332 1385.74 L289.225 1385.74 L289.225 1385.74  Z" fill="#009af9" fill-rule="evenodd" fill-opacity="1"/>
<polyline clip-path="url(#clip042)" style="stroke:#000000; stroke-linecap:round; stroke-linejoin:round; stroke-width:4; stroke-opacity:1; fill:none" points="289.225,1385.74 289.225,1423.18 327.332,1423.18 327.332,1385.74 289.225,1385.74 "/>
<path clip-path="url(#clip042)" d="M327.332 1423.18 L327.332 1423.18 L365.438 1423.18 L365.438 1423.18 L327.332 1423.18 L327.332 1423.18  Z" fill="#009af9" fill-rule="evenodd" fill-opacity="1"/>
<polyline clip-path="url(#clip042)" style="stroke:#000000; stroke-linecap:round; stroke-linejoin:round; stroke-width:4; stroke-opacity:1; fill:none" points="327.332,1423.18 327.332,1423.18 365.438,1423.18 327.332,1423.18 "/>
<path clip-path="url(#clip042)" d="M365.438 1367.02 L365.438 1423.18 L403.544 1423.18 L403.544 1367.02 L365.438 1367.02 L365.438 1367.02  Z" fill="#009af9" fill-rule="evenodd" fill-opacity="1"/>
<polyline clip-path="url(#clip042)" style="stroke:#000000; stroke-linecap:round; stroke-linejoin:round; stroke-width:4; stroke-opacity:1; fill:none" points="365.438,1367.02 365.438,1423.18 403.544,1423.18 403.544,1367.02 365.438,1367.02 "/>
<path clip-path="url(#clip042)" d="M403.544 1423.18 L403.544 1423.18 L441.651 1423.18 L441.651 1423.18 L403.544 1423.18 L403.544 1423.18  Z" fill="#009af9" fill-rule="evenodd" fill-opacity="1"/>
<polyline clip-path="url(#clip042)" style="stroke:#000000; stroke-linecap:round; stroke-linejoin:round; stroke-width:4; stroke-opacity:1; fill:none" points="403.544,1423.18 403.544,1423.18 441.651,1423.18 403.544,1423.18 "/>
<path clip-path="url(#clip042)" d="M441.651 1423.18 L441.651 1423.18 L479.757 1423.18 L479.757 1423.18 L441.651 1423.18 L441.651 1423.18  Z" fill="#009af9" fill-rule="evenodd" fill-opacity="1"/>
<polyline clip-path="url(#clip042)" style="stroke:#000000; stroke-linecap:round; stroke-linejoin:round; stroke-width:4; stroke-opacity:1; fill:none" points="441.651,1423.18 441.651,1423.18 479.757,1423.18 441.651,1423.18 "/>
<path clip-path="url(#clip042)" d="M479.757 1367.02 L479.757 1423.18 L517.864 1423.18 L517.864 1367.02 L479.757 1367.02 L479.757 1367.02  Z" fill="#009af9" fill-rule="evenodd" fill-opacity="1"/>
<polyline clip-path="url(#clip042)" style="stroke:#000000; stroke-linecap:round; stroke-linejoin:round; stroke-width:4; stroke-opacity:1; fill:none" points="479.757,1367.02 479.757,1423.18 517.864,1423.18 517.864,1367.02 479.757,1367.02 "/>
<path clip-path="url(#clip042)" d="M517.864 1217.26 L517.864 1423.18 L555.97 1423.18 L555.97 1217.26 L517.864 1217.26 L517.864 1217.26  Z" fill="#009af9" fill-rule="evenodd" fill-opacity="1"/>
<polyline clip-path="url(#clip042)" style="stroke:#000000; stroke-linecap:round; stroke-linejoin:round; stroke-width:4; stroke-opacity:1; fill:none" points="517.864,1217.26 517.864,1423.18 555.97,1423.18 555.97,1217.26 517.864,1217.26 "/>
<path clip-path="url(#clip042)" d="M555.97 1385.74 L555.97 1423.18 L594.076 1423.18 L594.076 1385.74 L555.97 1385.74 L555.97 1385.74  Z" fill="#009af9" fill-rule="evenodd" fill-opacity="1"/>
<polyline clip-path="url(#clip042)" style="stroke:#000000; stroke-linecap:round; stroke-linejoin:round; stroke-width:4; stroke-opacity:1; fill:none" points="555.97,1385.74 555.97,1423.18 594.076,1423.18 594.076,1385.74 555.97,1385.74 "/>
<path clip-path="url(#clip042)" d="M594.076 1423.18 L594.076 1423.18 L632.183 1423.18 L632.183 1423.18 L594.076 1423.18 L594.076 1423.18  Z" fill="#009af9" fill-rule="evenodd" fill-opacity="1"/>
<polyline clip-path="url(#clip042)" style="stroke:#000000; stroke-linecap:round; stroke-linejoin:round; stroke-width:4; stroke-opacity:1; fill:none" points="594.076,1423.18 594.076,1423.18 632.183,1423.18 594.076,1423.18 "/>
<path clip-path="url(#clip042)" d="M632.183 1385.74 L632.183 1423.18 L670.289 1423.18 L670.289 1385.74 L632.183 1385.74 L632.183 1385.74  Z" fill="#009af9" fill-rule="evenodd" fill-opacity="1"/>
<polyline clip-path="url(#clip042)" style="stroke:#000000; stroke-linecap:round; stroke-linejoin:round; stroke-width:4; stroke-opacity:1; fill:none" points="632.183,1385.74 632.183,1423.18 670.289,1423.18 670.289,1385.74 632.183,1385.74 "/>
<path clip-path="url(#clip042)" d="M670.289 1320.22 L670.289 1423.18 L708.396 1423.18 L708.396 1320.22 L670.289 1320.22 L670.289 1320.22  Z" fill="#009af9" fill-rule="evenodd" fill-opacity="1"/>
<polyline clip-path="url(#clip042)" style="stroke:#000000; stroke-linecap:round; stroke-linejoin:round; stroke-width:4; stroke-opacity:1; fill:none" points="670.289,1320.22 670.289,1423.18 708.396,1423.18 708.396,1320.22 670.289,1320.22 "/>
<path clip-path="url(#clip042)" d="M708.396 1385.74 L708.396 1423.18 L746.502 1423.18 L746.502 1385.74 L708.396 1385.74 L708.396 1385.74  Z" fill="#009af9" fill-rule="evenodd" fill-opacity="1"/>
<polyline clip-path="url(#clip042)" style="stroke:#000000; stroke-linecap:round; stroke-linejoin:round; stroke-width:4; stroke-opacity:1; fill:none" points="708.396,1385.74 708.396,1423.18 746.502,1423.18 746.502,1385.74 708.396,1385.74 "/>
<path clip-path="url(#clip042)" d="M746.502 1395.1 L746.502 1423.18 L784.608 1423.18 L784.608 1395.1 L746.502 1395.1 L746.502 1395.1  Z" fill="#009af9" fill-rule="evenodd" fill-opacity="1"/>
<polyline clip-path="url(#clip042)" style="stroke:#000000; stroke-linecap:round; stroke-linejoin:round; stroke-width:4; stroke-opacity:1; fill:none" points="746.502,1395.1 746.502,1423.18 784.608,1423.18 784.608,1395.1 746.502,1395.1 "/>
<path clip-path="url(#clip042)" d="M784.608 1235.98 L784.608 1423.18 L822.715 1423.18 L822.715 1235.98 L784.608 1235.98 L784.608 1235.98  Z" fill="#009af9" fill-rule="evenodd" fill-opacity="1"/>
<polyline clip-path="url(#clip042)" style="stroke:#000000; stroke-linecap:round; stroke-linejoin:round; stroke-width:4; stroke-opacity:1; fill:none" points="784.608,1235.98 784.608,1423.18 822.715,1423.18 822.715,1235.98 784.608,1235.98 "/>
<path clip-path="url(#clip042)" d="M822.715 1235.98 L822.715 1423.18 L860.821 1423.18 L860.821 1235.98 L822.715 1235.98 L822.715 1235.98  Z" fill="#009af9" fill-rule="evenodd" fill-opacity="1"/>
<polyline clip-path="url(#clip042)" style="stroke:#000000; stroke-linecap:round; stroke-linejoin:round; stroke-width:4; stroke-opacity:1; fill:none" points="822.715,1235.98 822.715,1423.18 860.821,1423.18 860.821,1235.98 822.715,1235.98 "/>
<path clip-path="url(#clip042)" d="M860.821 1151.74 L860.821 1423.18 L898.928 1423.18 L898.928 1151.74 L860.821 1151.74 L860.821 1151.74  Z" fill="#009af9" fill-rule="evenodd" fill-opacity="1"/>
<polyline clip-path="url(#clip042)" style="stroke:#000000; stroke-linecap:round; stroke-linejoin:round; stroke-width:4; stroke-opacity:1; fill:none" points="860.821,1151.74 860.821,1423.18 898.928,1423.18 898.928,1151.74 860.821,1151.74 "/>
<path clip-path="url(#clip042)" d="M898.928 1217.26 L898.928 1423.18 L937.034 1423.18 L937.034 1217.26 L898.928 1217.26 L898.928 1217.26  Z" fill="#009af9" fill-rule="evenodd" fill-opacity="1"/>
<polyline clip-path="url(#clip042)" style="stroke:#000000; stroke-linecap:round; stroke-linejoin:round; stroke-width:4; stroke-opacity:1; fill:none" points="898.928,1217.26 898.928,1423.18 937.034,1423.18 937.034,1217.26 898.928,1217.26 "/>
<path clip-path="url(#clip042)" d="M937.034 1179.82 L937.034 1423.18 L975.141 1423.18 L975.141 1179.82 L937.034 1179.82 L937.034 1179.82  Z" fill="#009af9" fill-rule="evenodd" fill-opacity="1"/>
<polyline clip-path="url(#clip042)" style="stroke:#000000; stroke-linecap:round; stroke-linejoin:round; stroke-width:4; stroke-opacity:1; fill:none" points="937.034,1179.82 937.034,1423.18 975.141,1423.18 975.141,1179.82 937.034,1179.82 "/>
<path clip-path="url(#clip042)" d="M975.141 1245.34 L975.141 1423.18 L1013.25 1423.18 L1013.25 1245.34 L975.141 1245.34 L975.141 1245.34  Z" fill="#009af9" fill-rule="evenodd" fill-opacity="1"/>
<polyline clip-path="url(#clip042)" style="stroke:#000000; stroke-linecap:round; stroke-linejoin:round; stroke-width:4; stroke-opacity:1; fill:none" points="975.141,1245.34 975.141,1423.18 1013.25,1423.18 1013.25,1245.34 975.141,1245.34 "/>
<path clip-path="url(#clip042)" d="M1013.25 917.734 L1013.25 1423.18 L1051.35 1423.18 L1051.35 917.734 L1013.25 917.734 L1013.25 917.734  Z" fill="#009af9" fill-rule="evenodd" fill-opacity="1"/>
<polyline clip-path="url(#clip042)" style="stroke:#000000; stroke-linecap:round; stroke-linejoin:round; stroke-width:4; stroke-opacity:1; fill:none" points="1013.25,917.734 1013.25,1423.18 1051.35,1423.18 1051.35,917.734 1013.25,917.734 "/>
<path clip-path="url(#clip042)" d="M1051.35 608.851 L1051.35 1423.18 L1089.46 1423.18 L1089.46 608.851 L1051.35 608.851 L1051.35 608.851  Z" fill="#009af9" fill-rule="evenodd" fill-opacity="1"/>
<polyline clip-path="url(#clip042)" style="stroke:#000000; stroke-linecap:round; stroke-linejoin:round; stroke-width:4; stroke-opacity:1; fill:none" points="1051.35,608.851 1051.35,1423.18 1089.46,1423.18 1089.46,608.851 1051.35,608.851 "/>
<path clip-path="url(#clip042)" d="M1089.46 1048.78 L1089.46 1423.18 L1127.57 1423.18 L1127.57 1048.78 L1089.46 1048.78 L1089.46 1048.78  Z" fill="#009af9" fill-rule="evenodd" fill-opacity="1"/>
<polyline clip-path="url(#clip042)" style="stroke:#000000; stroke-linecap:round; stroke-linejoin:round; stroke-width:4; stroke-opacity:1; fill:none" points="1089.46,1048.78 1089.46,1423.18 1127.57,1423.18 1127.57,1048.78 1089.46,1048.78 "/>
<path clip-path="url(#clip042)" d="M1127.57 842.853 L1127.57 1423.18 L1165.67 1423.18 L1165.67 842.853 L1127.57 842.853 L1127.57 842.853  Z" fill="#009af9" fill-rule="evenodd" fill-opacity="1"/>
<polyline clip-path="url(#clip042)" style="stroke:#000000; stroke-linecap:round; stroke-linejoin:round; stroke-width:4; stroke-opacity:1; fill:none" points="1127.57,842.853 1127.57,1423.18 1165.67,1423.18 1165.67,842.853 1127.57,842.853 "/>
<path clip-path="url(#clip042)" d="M1165.67 571.41 L1165.67 1423.18 L1203.78 1423.18 L1203.78 571.41 L1165.67 571.41 L1165.67 571.41  Z" fill="#009af9" fill-rule="evenodd" fill-opacity="1"/>
<polyline clip-path="url(#clip042)" style="stroke:#000000; stroke-linecap:round; stroke-linejoin:round; stroke-width:4; stroke-opacity:1; fill:none" points="1165.67,571.41 1165.67,1423.18 1203.78,1423.18 1203.78,571.41 1165.67,571.41 "/>
<path clip-path="url(#clip042)" d="M1203.78 627.571 L1203.78 1423.18 L1241.89 1423.18 L1241.89 627.571 L1203.78 627.571 L1203.78 627.571  Z" fill="#009af9" fill-rule="evenodd" fill-opacity="1"/>
<polyline clip-path="url(#clip042)" style="stroke:#000000; stroke-linecap:round; stroke-linejoin:round; stroke-width:4; stroke-opacity:1; fill:none" points="1203.78,627.571 1203.78,1423.18 1241.89,1423.18 1241.89,627.571 1203.78,627.571 "/>
<path clip-path="url(#clip042)" d="M1241.89 599.49 L1241.89 1423.18 L1279.99 1423.18 L1279.99 599.49 L1241.89 599.49 L1241.89 599.49  Z" fill="#009af9" fill-rule="evenodd" fill-opacity="1"/>
<polyline clip-path="url(#clip042)" style="stroke:#000000; stroke-linecap:round; stroke-linejoin:round; stroke-width:4; stroke-opacity:1; fill:none" points="1241.89,599.49 1241.89,1423.18 1279.99,1423.18 1279.99,599.49 1241.89,599.49 "/>
<path clip-path="url(#clip042)" d="M1279.99 440.369 L1279.99 1423.18 L1318.1 1423.18 L1318.1 440.369 L1279.99 440.369 L1279.99 440.369  Z" fill="#009af9" fill-rule="evenodd" fill-opacity="1"/>
<polyline clip-path="url(#clip042)" style="stroke:#000000; stroke-linecap:round; stroke-linejoin:round; stroke-width:4; stroke-opacity:1; fill:none" points="1279.99,440.369 1279.99,1423.18 1318.1,1423.18 1318.1,440.369 1279.99,440.369 "/>
<path clip-path="url(#clip042)" d="M1318.1 178.286 L1318.1 1423.18 L1356.2 1423.18 L1356.2 178.286 L1318.1 178.286 L1318.1 178.286  Z" fill="#009af9" fill-rule="evenodd" fill-opacity="1"/>
<polyline clip-path="url(#clip042)" style="stroke:#000000; stroke-linecap:round; stroke-linejoin:round; stroke-width:4; stroke-opacity:1; fill:none" points="1318.1,178.286 1318.1,1423.18 1356.2,1423.18 1356.2,178.286 1318.1,178.286 "/>
<path clip-path="url(#clip042)" d="M1356.2 702.452 L1356.2 1423.18 L1394.31 1423.18 L1394.31 702.452 L1356.2 702.452 L1356.2 702.452  Z" fill="#009af9" fill-rule="evenodd" fill-opacity="1"/>
<polyline clip-path="url(#clip042)" style="stroke:#000000; stroke-linecap:round; stroke-linejoin:round; stroke-width:4; stroke-opacity:1; fill:none" points="1356.2,702.452 1356.2,1423.18 1394.31,1423.18 1394.31,702.452 1356.2,702.452 "/>
<path clip-path="url(#clip042)" d="M1394.31 459.089 L1394.31 1423.18 L1432.42 1423.18 L1432.42 459.089 L1394.31 459.089 L1394.31 459.089  Z" fill="#009af9" fill-rule="evenodd" fill-opacity="1"/>
<polyline clip-path="url(#clip042)" style="stroke:#000000; stroke-linecap:round; stroke-linejoin:round; stroke-width:4; stroke-opacity:1; fill:none" points="1394.31,459.089 1394.31,1423.18 1432.42,1423.18 1432.42,459.089 1394.31,459.089 "/>
<path clip-path="url(#clip042)" d="M1432.42 533.97 L1432.42 1423.18 L1470.52 1423.18 L1470.52 533.97 L1432.42 533.97 L1432.42 533.97  Z" fill="#009af9" fill-rule="evenodd" fill-opacity="1"/>
<polyline clip-path="url(#clip042)" style="stroke:#000000; stroke-linecap:round; stroke-linejoin:round; stroke-width:4; stroke-opacity:1; fill:none" points="1432.42,533.97 1432.42,1423.18 1470.52,1423.18 1470.52,533.97 1432.42,533.97 "/>
<path clip-path="url(#clip042)" d="M1470.52 47.2441 L1470.52 1423.18 L1508.63 1423.18 L1508.63 47.2441 L1470.52 47.2441 L1470.52 47.2441  Z" fill="#009af9" fill-rule="evenodd" fill-opacity="1"/>
<polyline clip-path="url(#clip042)" style="stroke:#000000; stroke-linecap:round; stroke-linejoin:round; stroke-width:4; stroke-opacity:1; fill:none" points="1470.52,47.2441 1470.52,1423.18 1508.63,1423.18 1508.63,47.2441 1470.52,47.2441 "/>
<path clip-path="url(#clip042)" d="M1508.63 758.612 L1508.63 1423.18 L1546.74 1423.18 L1546.74 758.612 L1508.63 758.612 L1508.63 758.612  Z" fill="#009af9" fill-rule="evenodd" fill-opacity="1"/>
<polyline clip-path="url(#clip042)" style="stroke:#000000; stroke-linecap:round; stroke-linejoin:round; stroke-width:4; stroke-opacity:1; fill:none" points="1508.63,758.612 1508.63,1423.18 1546.74,1423.18 1546.74,758.612 1508.63,758.612 "/>
<path clip-path="url(#clip042)" d="M1546.74 674.371 L1546.74 1423.18 L1584.84 1423.18 L1584.84 674.371 L1546.74 674.371 L1546.74 674.371  Z" fill="#009af9" fill-rule="evenodd" fill-opacity="1"/>
<polyline clip-path="url(#clip042)" style="stroke:#000000; stroke-linecap:round; stroke-linejoin:round; stroke-width:4; stroke-opacity:1; fill:none" points="1546.74,674.371 1546.74,1423.18 1584.84,1423.18 1584.84,674.371 1546.74,674.371 "/>
<path clip-path="url(#clip042)" d="M1584.84 777.332 L1584.84 1423.18 L1622.95 1423.18 L1622.95 777.332 L1584.84 777.332 L1584.84 777.332  Z" fill="#009af9" fill-rule="evenodd" fill-opacity="1"/>
<polyline clip-path="url(#clip042)" style="stroke:#000000; stroke-linecap:round; stroke-linejoin:round; stroke-width:4; stroke-opacity:1; fill:none" points="1584.84,777.332 1584.84,1423.18 1622.95,1423.18 1622.95,777.332 1584.84,777.332 "/>
<path clip-path="url(#clip042)" d="M1622.95 758.612 L1622.95 1423.18 L1661.06 1423.18 L1661.06 758.612 L1622.95 758.612 L1622.95 758.612  Z" fill="#009af9" fill-rule="evenodd" fill-opacity="1"/>
<polyline clip-path="url(#clip042)" style="stroke:#000000; stroke-linecap:round; stroke-linejoin:round; stroke-width:4; stroke-opacity:1; fill:none" points="1622.95,758.612 1622.95,1423.18 1661.06,1423.18 1661.06,758.612 1622.95,758.612 "/>
<path clip-path="url(#clip042)" d="M1661.06 842.853 L1661.06 1423.18 L1699.16 1423.18 L1699.16 842.853 L1661.06 842.853 L1661.06 842.853  Z" fill="#009af9" fill-rule="evenodd" fill-opacity="1"/>
<polyline clip-path="url(#clip042)" style="stroke:#000000; stroke-linecap:round; stroke-linejoin:round; stroke-width:4; stroke-opacity:1; fill:none" points="1661.06,842.853 1661.06,1423.18 1699.16,1423.18 1699.16,842.853 1661.06,842.853 "/>
<path clip-path="url(#clip042)" d="M1699.16 796.053 L1699.16 1423.18 L1737.27 1423.18 L1737.27 796.053 L1699.16 796.053 L1699.16 796.053  Z" fill="#009af9" fill-rule="evenodd" fill-opacity="1"/>
<polyline clip-path="url(#clip042)" style="stroke:#000000; stroke-linecap:round; stroke-linejoin:round; stroke-width:4; stroke-opacity:1; fill:none" points="1699.16,796.053 1699.16,1423.18 1737.27,1423.18 1737.27,796.053 1699.16,796.053 "/>
<path clip-path="url(#clip042)" d="M1737.27 964.535 L1737.27 1423.18 L1775.38 1423.18 L1775.38 964.535 L1737.27 964.535 L1737.27 964.535  Z" fill="#009af9" fill-rule="evenodd" fill-opacity="1"/>
<polyline clip-path="url(#clip042)" style="stroke:#000000; stroke-linecap:round; stroke-linejoin:round; stroke-width:4; stroke-opacity:1; fill:none" points="1737.27,964.535 1737.27,1423.18 1775.38,1423.18 1775.38,964.535 1737.27,964.535 "/>
<path clip-path="url(#clip042)" d="M1775.38 824.133 L1775.38 1423.18 L1813.48 1423.18 L1813.48 824.133 L1775.38 824.133 L1775.38 824.133  Z" fill="#009af9" fill-rule="evenodd" fill-opacity="1"/>
<polyline clip-path="url(#clip042)" style="stroke:#000000; stroke-linecap:round; stroke-linejoin:round; stroke-width:4; stroke-opacity:1; fill:none" points="1775.38,824.133 1775.38,1423.18 1813.48,1423.18 1813.48,824.133 1775.38,824.133 "/>
<path clip-path="url(#clip042)" d="M1813.48 1142.38 L1813.48 1423.18 L1851.59 1423.18 L1851.59 1142.38 L1813.48 1142.38 L1813.48 1142.38  Z" fill="#009af9" fill-rule="evenodd" fill-opacity="1"/>
<polyline clip-path="url(#clip042)" style="stroke:#000000; stroke-linecap:round; stroke-linejoin:round; stroke-width:4; stroke-opacity:1; fill:none" points="1813.48,1142.38 1813.48,1423.18 1851.59,1423.18 1851.59,1142.38 1813.48,1142.38 "/>
<path clip-path="url(#clip042)" d="M1851.59 1245.34 L1851.59 1423.18 L1889.69 1423.18 L1889.69 1245.34 L1851.59 1245.34 L1851.59 1245.34  Z" fill="#009af9" fill-rule="evenodd" fill-opacity="1"/>
<polyline clip-path="url(#clip042)" style="stroke:#000000; stroke-linecap:round; stroke-linejoin:round; stroke-width:4; stroke-opacity:1; fill:none" points="1851.59,1245.34 1851.59,1423.18 1889.69,1423.18 1889.69,1245.34 1851.59,1245.34 "/>
<path clip-path="url(#clip042)" d="M1889.69 1282.78 L1889.69 1423.18 L1927.8 1423.18 L1927.8 1282.78 L1889.69 1282.78 L1889.69 1282.78  Z" fill="#009af9" fill-rule="evenodd" fill-opacity="1"/>
<polyline clip-path="url(#clip042)" style="stroke:#000000; stroke-linecap:round; stroke-linejoin:round; stroke-width:4; stroke-opacity:1; fill:none" points="1889.69,1282.78 1889.69,1423.18 1927.8,1423.18 1927.8,1282.78 1889.69,1282.78 "/>
<path clip-path="url(#clip042)" d="M1927.8 1245.34 L1927.8 1423.18 L1965.91 1423.18 L1965.91 1245.34 L1927.8 1245.34 L1927.8 1245.34  Z" fill="#009af9" fill-rule="evenodd" fill-opacity="1"/>
<polyline clip-path="url(#clip042)" style="stroke:#000000; stroke-linecap:round; stroke-linejoin:round; stroke-width:4; stroke-opacity:1; fill:none" points="1927.8,1245.34 1927.8,1423.18 1965.91,1423.18 1965.91,1245.34 1927.8,1245.34 "/>
<path clip-path="url(#clip042)" d="M1965.91 1376.38 L1965.91 1423.18 L2004.01 1423.18 L2004.01 1376.38 L1965.91 1376.38 L1965.91 1376.38  Z" fill="#009af9" fill-rule="evenodd" fill-opacity="1"/>
<polyline clip-path="url(#clip042)" style="stroke:#000000; stroke-linecap:round; stroke-linejoin:round; stroke-width:4; stroke-opacity:1; fill:none" points="1965.91,1376.38 1965.91,1423.18 2004.01,1423.18 2004.01,1376.38 1965.91,1376.38 "/>
<path clip-path="url(#clip042)" d="M2004.01 1357.66 L2004.01 1423.18 L2042.12 1423.18 L2042.12 1357.66 L2004.01 1357.66 L2004.01 1357.66  Z" fill="#009af9" fill-rule="evenodd" fill-opacity="1"/>
<polyline clip-path="url(#clip042)" style="stroke:#000000; stroke-linecap:round; stroke-linejoin:round; stroke-width:4; stroke-opacity:1; fill:none" points="2004.01,1357.66 2004.01,1423.18 2042.12,1423.18 2042.12,1357.66 2004.01,1357.66 "/>
<path clip-path="url(#clip042)" d="M2042.12 1385.74 L2042.12 1423.18 L2080.23 1423.18 L2080.23 1385.74 L2042.12 1385.74 L2042.12 1385.74  Z" fill="#009af9" fill-rule="evenodd" fill-opacity="1"/>
<polyline clip-path="url(#clip042)" style="stroke:#000000; stroke-linecap:round; stroke-linejoin:round; stroke-width:4; stroke-opacity:1; fill:none" points="2042.12,1385.74 2042.12,1423.18 2080.23,1423.18 2080.23,1385.74 2042.12,1385.74 "/>
<path clip-path="url(#clip042)" d="M2080.23 1423.18 L2080.23 1423.18 L2118.33 1423.18 L2118.33 1423.18 L2080.23 1423.18 L2080.23 1423.18  Z" fill="#009af9" fill-rule="evenodd" fill-opacity="1"/>
<polyline clip-path="url(#clip042)" style="stroke:#000000; stroke-linecap:round; stroke-linejoin:round; stroke-width:4; stroke-opacity:1; fill:none" points="2080.23,1423.18 2080.23,1423.18 2118.33,1423.18 2080.23,1423.18 "/>
<path clip-path="url(#clip042)" d="M2118.33 1423.18 L2118.33 1423.18 L2156.44 1423.18 L2156.44 1423.18 L2118.33 1423.18 L2118.33 1423.18  Z" fill="#009af9" fill-rule="evenodd" fill-opacity="1"/>
<polyline clip-path="url(#clip042)" style="stroke:#000000; stroke-linecap:round; stroke-linejoin:round; stroke-width:4; stroke-opacity:1; fill:none" points="2118.33,1423.18 2118.33,1423.18 2156.44,1423.18 2118.33,1423.18 "/>
<path clip-path="url(#clip042)" d="M2156.44 1423.18 L2156.44 1423.18 L2194.55 1423.18 L2194.55 1423.18 L2156.44 1423.18 L2156.44 1423.18  Z" fill="#009af9" fill-rule="evenodd" fill-opacity="1"/>
<polyline clip-path="url(#clip042)" style="stroke:#000000; stroke-linecap:round; stroke-linejoin:round; stroke-width:4; stroke-opacity:1; fill:none" points="2156.44,1423.18 2156.44,1423.18 2194.55,1423.18 2156.44,1423.18 "/>
<path clip-path="url(#clip042)" d="M2194.55 1413.82 L2194.55 1423.18 L2232.65 1423.18 L2232.65 1413.82 L2194.55 1413.82 L2194.55 1413.82  Z" fill="#009af9" fill-rule="evenodd" fill-opacity="1"/>
<polyline clip-path="url(#clip042)" style="stroke:#000000; stroke-linecap:round; stroke-linejoin:round; stroke-width:4; stroke-opacity:1; fill:none" points="2194.55,1413.82 2194.55,1423.18 2232.65,1423.18 2232.65,1413.82 2194.55,1413.82 "/>
<circle clip-path="url(#clip042)" style="fill:#009af9; stroke:none; fill-opacity:0" cx="308.278" cy="1385.74" r="2"/>
<circle clip-path="url(#clip042)" style="fill:#009af9; stroke:none; fill-opacity:0" cx="346.385" cy="1423.18" r="2"/>
<circle clip-path="url(#clip042)" style="fill:#009af9; stroke:none; fill-opacity:0" cx="384.491" cy="1367.02" r="2"/>
<circle clip-path="url(#clip042)" style="fill:#009af9; stroke:none; fill-opacity:0" cx="422.598" cy="1423.18" r="2"/>
<circle clip-path="url(#clip042)" style="fill:#009af9; stroke:none; fill-opacity:0" cx="460.704" cy="1423.18" r="2"/>
<circle clip-path="url(#clip042)" style="fill:#009af9; stroke:none; fill-opacity:0" cx="498.81" cy="1367.02" r="2"/>
<circle clip-path="url(#clip042)" style="fill:#009af9; stroke:none; fill-opacity:0" cx="536.917" cy="1217.26" r="2"/>
<circle clip-path="url(#clip042)" style="fill:#009af9; stroke:none; fill-opacity:0" cx="575.023" cy="1385.74" r="2"/>
<circle clip-path="url(#clip042)" style="fill:#009af9; stroke:none; fill-opacity:0" cx="613.13" cy="1423.18" r="2"/>
<circle clip-path="url(#clip042)" style="fill:#009af9; stroke:none; fill-opacity:0" cx="651.236" cy="1385.74" r="2"/>
<circle clip-path="url(#clip042)" style="fill:#009af9; stroke:none; fill-opacity:0" cx="689.342" cy="1320.22" r="2"/>
<circle clip-path="url(#clip042)" style="fill:#009af9; stroke:none; fill-opacity:0" cx="727.449" cy="1385.74" r="2"/>
<circle clip-path="url(#clip042)" style="fill:#009af9; stroke:none; fill-opacity:0" cx="765.555" cy="1395.1" r="2"/>
<circle clip-path="url(#clip042)" style="fill:#009af9; stroke:none; fill-opacity:0" cx="803.662" cy="1235.98" r="2"/>
<circle clip-path="url(#clip042)" style="fill:#009af9; stroke:none; fill-opacity:0" cx="841.768" cy="1235.98" r="2"/>
<circle clip-path="url(#clip042)" style="fill:#009af9; stroke:none; fill-opacity:0" cx="879.874" cy="1151.74" r="2"/>
<circle clip-path="url(#clip042)" style="fill:#009af9; stroke:none; fill-opacity:0" cx="917.981" cy="1217.26" r="2"/>
<circle clip-path="url(#clip042)" style="fill:#009af9; stroke:none; fill-opacity:0" cx="956.087" cy="1179.82" r="2"/>
<circle clip-path="url(#clip042)" style="fill:#009af9; stroke:none; fill-opacity:0" cx="994.194" cy="1245.34" r="2"/>
<circle clip-path="url(#clip042)" style="fill:#009af9; stroke:none; fill-opacity:0" cx="1032.3" cy="917.734" r="2"/>
<circle clip-path="url(#clip042)" style="fill:#009af9; stroke:none; fill-opacity:0" cx="1070.41" cy="608.851" r="2"/>
<circle clip-path="url(#clip042)" style="fill:#009af9; stroke:none; fill-opacity:0" cx="1108.51" cy="1048.78" r="2"/>
<circle clip-path="url(#clip042)" style="fill:#009af9; stroke:none; fill-opacity:0" cx="1146.62" cy="842.853" r="2"/>
<circle clip-path="url(#clip042)" style="fill:#009af9; stroke:none; fill-opacity:0" cx="1184.73" cy="571.41" r="2"/>
<circle clip-path="url(#clip042)" style="fill:#009af9; stroke:none; fill-opacity:0" cx="1222.83" cy="627.571" r="2"/>
<circle clip-path="url(#clip042)" style="fill:#009af9; stroke:none; fill-opacity:0" cx="1260.94" cy="599.49" r="2"/>
<circle clip-path="url(#clip042)" style="fill:#009af9; stroke:none; fill-opacity:0" cx="1299.05" cy="440.369" r="2"/>
<circle clip-path="url(#clip042)" style="fill:#009af9; stroke:none; fill-opacity:0" cx="1337.15" cy="178.286" r="2"/>
<circle clip-path="url(#clip042)" style="fill:#009af9; stroke:none; fill-opacity:0" cx="1375.26" cy="702.452" r="2"/>
<circle clip-path="url(#clip042)" style="fill:#009af9; stroke:none; fill-opacity:0" cx="1413.36" cy="459.089" r="2"/>
<circle clip-path="url(#clip042)" style="fill:#009af9; stroke:none; fill-opacity:0" cx="1451.47" cy="533.97" r="2"/>
<circle clip-path="url(#clip042)" style="fill:#009af9; stroke:none; fill-opacity:0" cx="1489.58" cy="47.2441" r="2"/>
<circle clip-path="url(#clip042)" style="fill:#009af9; stroke:none; fill-opacity:0" cx="1527.68" cy="758.612" r="2"/>
<circle clip-path="url(#clip042)" style="fill:#009af9; stroke:none; fill-opacity:0" cx="1565.79" cy="674.371" r="2"/>
<circle clip-path="url(#clip042)" style="fill:#009af9; stroke:none; fill-opacity:0" cx="1603.9" cy="777.332" r="2"/>
<circle clip-path="url(#clip042)" style="fill:#009af9; stroke:none; fill-opacity:0" cx="1642" cy="758.612" r="2"/>
<circle clip-path="url(#clip042)" style="fill:#009af9; stroke:none; fill-opacity:0" cx="1680.11" cy="842.853" r="2"/>
<circle clip-path="url(#clip042)" style="fill:#009af9; stroke:none; fill-opacity:0" cx="1718.22" cy="796.053" r="2"/>
<circle clip-path="url(#clip042)" style="fill:#009af9; stroke:none; fill-opacity:0" cx="1756.32" cy="964.535" r="2"/>
<circle clip-path="url(#clip042)" style="fill:#009af9; stroke:none; fill-opacity:0" cx="1794.43" cy="824.133" r="2"/>
<circle clip-path="url(#clip042)" style="fill:#009af9; stroke:none; fill-opacity:0" cx="1832.53" cy="1142.38" r="2"/>
<circle clip-path="url(#clip042)" style="fill:#009af9; stroke:none; fill-opacity:0" cx="1870.64" cy="1245.34" r="2"/>
<circle clip-path="url(#clip042)" style="fill:#009af9; stroke:none; fill-opacity:0" cx="1908.75" cy="1282.78" r="2"/>
<circle clip-path="url(#clip042)" style="fill:#009af9; stroke:none; fill-opacity:0" cx="1946.85" cy="1245.34" r="2"/>
<circle clip-path="url(#clip042)" style="fill:#009af9; stroke:none; fill-opacity:0" cx="1984.96" cy="1376.38" r="2"/>
<circle clip-path="url(#clip042)" style="fill:#009af9; stroke:none; fill-opacity:0" cx="2023.07" cy="1357.66" r="2"/>
<circle clip-path="url(#clip042)" style="fill:#009af9; stroke:none; fill-opacity:0" cx="2061.17" cy="1385.74" r="2"/>
<circle clip-path="url(#clip042)" style="fill:#009af9; stroke:none; fill-opacity:0" cx="2099.28" cy="1423.18" r="2"/>
<circle clip-path="url(#clip042)" style="fill:#009af9; stroke:none; fill-opacity:0" cx="2137.39" cy="1423.18" r="2"/>
<circle clip-path="url(#clip042)" style="fill:#009af9; stroke:none; fill-opacity:0" cx="2175.49" cy="1423.18" r="2"/>
<circle clip-path="url(#clip042)" style="fill:#009af9; stroke:none; fill-opacity:0" cx="2213.6" cy="1413.82" r="2"/>
<path clip-path="url(#clip040)" d="M1994.36 196.789 L2279.97 196.789 L2279.97 93.1086 L1994.36 93.1086  Z" fill="#ffffff" fill-rule="evenodd" fill-opacity="1"/>
<polyline clip-path="url(#clip040)" style="stroke:#000000; stroke-linecap:round; stroke-linejoin:round; stroke-width:4; stroke-opacity:1; fill:none" points="1994.36,196.789 2279.97,196.789 2279.97,93.1086 1994.36,93.1086 1994.36,196.789 "/>
<path clip-path="url(#clip040)" d="M2018.62 165.685 L2164.2 165.685 L2164.2 124.213 L2018.62 124.213 L2018.62 165.685  Z" fill="#009af9" fill-rule="evenodd" fill-opacity="1"/>
<polyline clip-path="url(#clip040)" style="stroke:#000000; stroke-linecap:round; stroke-linejoin:round; stroke-width:4; stroke-opacity:1; fill:none" points="2018.62,165.685 2164.2,165.685 2164.2,124.213 2018.62,124.213 2018.62,165.685 "/>
<path clip-path="url(#clip040)" d="M2188.46 127.669 L2195.43 127.669 L2204.25 151.187 L2213.11 127.669 L2220.08 127.669 L2220.08 162.229 L2215.52 162.229 L2215.52 131.882 L2206.61 155.585 L2201.91 155.585 L2193 131.882 L2193 162.229 L2188.46 162.229 L2188.46 127.669 Z" fill="#000000" fill-rule="nonzero" fill-opacity="1" /><path clip-path="url(#clip040)" d="M2229.36 127.669 L2234.04 127.669 L2234.04 141.835 L2251.03 141.835 L2251.03 127.669 L2255.71 127.669 L2255.71 162.229 L2251.03 162.229 L2251.03 145.77 L2234.04 145.77 L2234.04 162.229 L2229.36 162.229 L2229.36 127.669 Z" fill="#000000" fill-rule="nonzero" fill-opacity="1" /></svg>
