<?xml version="1.0" encoding="utf-8"?>
<svg xmlns="http://www.w3.org/2000/svg" xmlns:xlink="http://www.w3.org/1999/xlink" width="600" height="400" viewBox="0 0 2400 1600">
<defs>
  <clipPath id="clip320">
    <rect x="0" y="0" width="2400" height="1600"/>
  </clipPath>
</defs>
<path clip-path="url(#clip320)" d="M0 1600 L2400 1600 L2400 0 L0 0  Z" fill="#ffffff" fill-rule="evenodd" fill-opacity="1"/>
<defs>
  <clipPath id="clip321">
    <rect x="480" y="0" width="1681" height="1600"/>
  </clipPath>
</defs>
<path clip-path="url(#clip320)" d="M138.959 1423.18 L2352.76 1423.18 L2352.76 47.2441 L138.959 47.2441  Z" fill="#ffffff" fill-rule="evenodd" fill-opacity="1"/>
<defs>
  <clipPath id="clip322">
    <rect x="138" y="47" width="2215" height="1377"/>
  </clipPath>
</defs>
<polyline clip-path="url(#clip322)" style="stroke:#000000; stroke-linecap:round; stroke-linejoin:round; stroke-width:2; stroke-opacity:0.1; fill:none" points="138.959,1423.18 138.959,47.2441 "/>
<polyline clip-path="url(#clip322)" style="stroke:#000000; stroke-linecap:round; stroke-linejoin:round; stroke-width:2; stroke-opacity:0.1; fill:none" points="581.719,1423.18 581.719,47.2441 "/>
<polyline clip-path="url(#clip322)" style="stroke:#000000; stroke-linecap:round; stroke-linejoin:round; stroke-width:2; stroke-opacity:0.1; fill:none" points="1024.48,1423.18 1024.48,47.2441 "/>
<polyline clip-path="url(#clip322)" style="stroke:#000000; stroke-linecap:round; stroke-linejoin:round; stroke-width:2; stroke-opacity:0.1; fill:none" points="1467.24,1423.18 1467.24,47.2441 "/>
<polyline clip-path="url(#clip322)" style="stroke:#000000; stroke-linecap:round; stroke-linejoin:round; stroke-width:2; stroke-opacity:0.1; fill:none" points="1910,1423.18 1910,47.2441 "/>
<polyline clip-path="url(#clip322)" style="stroke:#000000; stroke-linecap:round; stroke-linejoin:round; stroke-width:2; stroke-opacity:0.1; fill:none" points="2352.76,1423.18 2352.76,47.2441 "/>
<polyline clip-path="url(#clip320)" style="stroke:#000000; stroke-linecap:round; stroke-linejoin:round; stroke-width:4; stroke-opacity:1; fill:none" points="138.959,1423.18 2352.76,1423.18 "/>
<polyline clip-path="url(#clip320)" style="stroke:#000000; stroke-linecap:round; stroke-linejoin:round; stroke-width:4; stroke-opacity:1; fill:none" points="138.959,1423.18 138.959,1404.28 "/>
<polyline clip-path="url(#clip320)" style="stroke:#000000; stroke-linecap:round; stroke-linejoin:round; stroke-width:4; stroke-opacity:1; fill:none" points="581.719,1423.18 581.719,1404.28 "/>
<polyline clip-path="url(#clip320)" style="stroke:#000000; stroke-linecap:round; stroke-linejoin:round; stroke-width:4; stroke-opacity:1; fill:none" points="1024.48,1423.18 1024.48,1404.28 "/>
<polyline clip-path="url(#clip320)" style="stroke:#000000; stroke-linecap:round; stroke-linejoin:round; stroke-width:4; stroke-opacity:1; fill:none" points="1467.24,1423.18 1467.24,1404.28 "/>
<polyline clip-path="url(#clip320)" style="stroke:#000000; stroke-linecap:round; stroke-linejoin:round; stroke-width:4; stroke-opacity:1; fill:none" points="1910,1423.18 1910,1404.28 "/>
<polyline clip-path="url(#clip320)" style="stroke:#000000; stroke-linecap:round; stroke-linejoin:round; stroke-width:4; stroke-opacity:1; fill:none" points="2352.76,1423.18 2352.76,1404.28 "/>
<path clip-path="url(#clip320)" d="M116.842 1454.1 Q113.23 1454.1 111.402 1457.66 Q109.596 1461.2 109.596 1468.33 Q109.596 1475.44 111.402 1479.01 Q113.23 1482.55 116.842 1482.55 Q120.476 1482.55 122.281 1479.01 Q124.11 1475.44 124.11 1468.33 Q124.11 1461.2 122.281 1457.66 Q120.476 1454.1 116.842 1454.1 M116.842 1450.39 Q122.652 1450.39 125.707 1455 Q128.786 1459.58 128.786 1468.33 Q128.786 1477.06 125.707 1481.67 Q122.652 1486.25 116.842 1486.25 Q111.031 1486.25 107.953 1481.67 Q104.897 1477.06 104.897 1468.33 Q104.897 1459.58 107.953 1455 Q111.031 1450.39 116.842 1450.39 Z" fill="#000000" fill-rule="nonzero" fill-opacity="1" /><path clip-path="url(#clip320)" d="M137.003 1479.7 L141.888 1479.7 L141.888 1485.58 L137.003 1485.58 L137.003 1479.7 Z" fill="#000000" fill-rule="nonzero" fill-opacity="1" /><path clip-path="url(#clip320)" d="M152.119 1451.02 L170.475 1451.02 L170.475 1454.96 L156.401 1454.96 L156.401 1463.43 Q157.42 1463.08 158.439 1462.92 Q159.457 1462.73 160.476 1462.73 Q166.263 1462.73 169.642 1465.9 Q173.022 1469.08 173.022 1474.49 Q173.022 1480.07 169.55 1483.17 Q166.077 1486.25 159.758 1486.25 Q157.582 1486.25 155.314 1485.88 Q153.068 1485.51 150.661 1484.77 L150.661 1480.07 Q152.744 1481.2 154.966 1481.76 Q157.189 1482.32 159.665 1482.32 Q163.67 1482.32 166.008 1480.21 Q168.346 1478.1 168.346 1474.49 Q168.346 1470.88 166.008 1468.77 Q163.67 1466.67 159.665 1466.67 Q157.79 1466.67 155.915 1467.08 Q154.064 1467.5 152.119 1468.38 L152.119 1451.02 Z" fill="#000000" fill-rule="nonzero" fill-opacity="1" /><path clip-path="url(#clip320)" d="M559.022 1454.1 Q555.411 1454.1 553.582 1457.66 Q551.777 1461.2 551.777 1468.33 Q551.777 1475.44 553.582 1479.01 Q555.411 1482.55 559.022 1482.55 Q562.656 1482.55 564.462 1479.01 Q566.291 1475.44 566.291 1468.33 Q566.291 1461.2 564.462 1457.66 Q562.656 1454.1 559.022 1454.1 M559.022 1450.39 Q564.832 1450.39 567.888 1455 Q570.966 1459.58 570.966 1468.33 Q570.966 1477.06 567.888 1481.67 Q564.832 1486.25 559.022 1486.25 Q553.212 1486.25 550.133 1481.67 Q547.078 1477.06 547.078 1468.33 Q547.078 1459.58 550.133 1455 Q553.212 1450.39 559.022 1450.39 Z" fill="#000000" fill-rule="nonzero" fill-opacity="1" /><path clip-path="url(#clip320)" d="M579.184 1479.7 L584.068 1479.7 L584.068 1485.58 L579.184 1485.58 L579.184 1479.7 Z" fill="#000000" fill-rule="nonzero" fill-opacity="1" /><path clip-path="url(#clip320)" d="M604.832 1466.44 Q601.684 1466.44 599.832 1468.59 Q598.003 1470.74 598.003 1474.49 Q598.003 1478.22 599.832 1480.39 Q601.684 1482.55 604.832 1482.55 Q607.98 1482.55 609.809 1480.39 Q611.661 1478.22 611.661 1474.49 Q611.661 1470.74 609.809 1468.59 Q607.98 1466.44 604.832 1466.44 M614.114 1451.78 L614.114 1456.04 Q612.355 1455.21 610.55 1454.77 Q608.767 1454.33 607.008 1454.33 Q602.378 1454.33 599.925 1457.45 Q597.494 1460.58 597.147 1466.9 Q598.513 1464.89 600.573 1463.82 Q602.633 1462.73 605.11 1462.73 Q610.318 1462.73 613.327 1465.9 Q616.36 1469.05 616.36 1474.49 Q616.36 1479.82 613.212 1483.03 Q610.063 1486.25 604.832 1486.25 Q598.837 1486.25 595.665 1481.67 Q592.494 1477.06 592.494 1468.33 Q592.494 1460.14 596.383 1455.28 Q600.272 1450.39 606.823 1450.39 Q608.582 1450.39 610.364 1450.74 Q612.17 1451.09 614.114 1451.78 Z" fill="#000000" fill-rule="nonzero" fill-opacity="1" /><path clip-path="url(#clip320)" d="M1002.31 1454.1 Q998.703 1454.1 996.874 1457.66 Q995.068 1461.2 995.068 1468.33 Q995.068 1475.44 996.874 1479.01 Q998.703 1482.55 1002.31 1482.55 Q1005.95 1482.55 1007.75 1479.01 Q1009.58 1475.44 1009.58 1468.33 Q1009.58 1461.2 1007.75 1457.66 Q1005.95 1454.1 1002.31 1454.1 M1002.31 1450.39 Q1008.12 1450.39 1011.18 1455 Q1014.26 1459.58 1014.26 1468.33 Q1014.26 1477.06 1011.18 1481.67 Q1008.12 1486.25 1002.31 1486.25 Q996.504 1486.25 993.425 1481.67 Q990.369 1477.06 990.369 1468.33 Q990.369 1459.58 993.425 1455 Q996.504 1450.39 1002.31 1450.39 Z" fill="#000000" fill-rule="nonzero" fill-opacity="1" /><path clip-path="url(#clip320)" d="M1022.48 1479.7 L1027.36 1479.7 L1027.36 1485.58 L1022.48 1485.58 L1022.48 1479.7 Z" fill="#000000" fill-rule="nonzero" fill-opacity="1" /><path clip-path="url(#clip320)" d="M1036.36 1451.02 L1058.59 1451.02 L1058.59 1453.01 L1046.04 1485.58 L1041.16 1485.58 L1052.96 1454.96 L1036.36 1454.96 L1036.36 1451.02 Z" fill="#000000" fill-rule="nonzero" fill-opacity="1" /><path clip-path="url(#clip320)" d="M1444.67 1454.1 Q1441.06 1454.1 1439.23 1457.66 Q1437.42 1461.2 1437.42 1468.33 Q1437.42 1475.44 1439.23 1479.01 Q1441.06 1482.55 1444.67 1482.55 Q1448.3 1482.55 1450.11 1479.01 Q1451.94 1475.44 1451.94 1468.33 Q1451.94 1461.2 1450.11 1457.66 Q1448.3 1454.1 1444.67 1454.1 M1444.67 1450.39 Q1450.48 1450.39 1453.53 1455 Q1456.61 1459.58 1456.61 1468.33 Q1456.61 1477.06 1453.53 1481.67 Q1450.48 1486.25 1444.67 1486.25 Q1438.86 1486.25 1435.78 1481.67 Q1432.72 1477.06 1432.72 1468.33 Q1432.72 1459.58 1435.78 1455 Q1438.86 1450.39 1444.67 1450.39 Z" fill="#000000" fill-rule="nonzero" fill-opacity="1" /><path clip-path="url(#clip320)" d="M1464.83 1479.7 L1469.71 1479.7 L1469.71 1485.58 L1464.83 1485.58 L1464.83 1479.7 Z" fill="#000000" fill-rule="nonzero" fill-opacity="1" /><path clip-path="url(#clip320)" d="M1489.9 1469.17 Q1486.57 1469.17 1484.64 1470.95 Q1482.75 1472.73 1482.75 1475.86 Q1482.75 1478.98 1484.64 1480.77 Q1486.57 1482.55 1489.9 1482.55 Q1493.23 1482.55 1495.15 1480.77 Q1497.08 1478.96 1497.08 1475.86 Q1497.08 1472.73 1495.15 1470.95 Q1493.26 1469.17 1489.9 1469.17 M1485.22 1467.18 Q1482.21 1466.44 1480.52 1464.38 Q1478.86 1462.32 1478.86 1459.35 Q1478.86 1455.21 1481.8 1452.8 Q1484.76 1450.39 1489.9 1450.39 Q1495.06 1450.39 1498 1452.8 Q1500.94 1455.21 1500.94 1459.35 Q1500.94 1462.32 1499.25 1464.38 Q1497.58 1466.44 1494.6 1467.18 Q1497.98 1467.96 1499.85 1470.26 Q1501.75 1472.55 1501.75 1475.86 Q1501.75 1480.88 1498.67 1483.57 Q1495.62 1486.25 1489.9 1486.25 Q1484.18 1486.25 1481.1 1483.57 Q1478.05 1480.88 1478.05 1475.86 Q1478.05 1472.55 1479.95 1470.26 Q1481.84 1467.96 1485.22 1467.18 M1483.51 1459.79 Q1483.51 1462.48 1485.18 1463.98 Q1486.87 1465.49 1489.9 1465.49 Q1492.91 1465.49 1494.6 1463.98 Q1496.31 1462.48 1496.31 1459.79 Q1496.31 1457.11 1494.6 1455.6 Q1492.91 1454.1 1489.9 1454.1 Q1486.87 1454.1 1485.18 1455.6 Q1483.51 1457.11 1483.51 1459.79 Z" fill="#000000" fill-rule="nonzero" fill-opacity="1" /><path clip-path="url(#clip320)" d="M1887.47 1454.1 Q1883.86 1454.1 1882.03 1457.66 Q1880.23 1461.2 1880.23 1468.33 Q1880.23 1475.44 1882.03 1479.01 Q1883.86 1482.55 1887.47 1482.55 Q1891.11 1482.55 1892.91 1479.01 Q1894.74 1475.44 1894.74 1468.33 Q1894.74 1461.2 1892.91 1457.66 Q1891.11 1454.1 1887.47 1454.1 M1887.47 1450.39 Q1893.28 1450.39 1896.34 1455 Q1899.42 1459.58 1899.42 1468.33 Q1899.42 1477.06 1896.34 1481.67 Q1893.28 1486.25 1887.47 1486.25 Q1881.66 1486.25 1878.58 1481.67 Q1875.53 1477.06 1875.53 1468.33 Q1875.53 1459.58 1878.58 1455 Q1881.66 1450.39 1887.47 1450.39 Z" fill="#000000" fill-rule="nonzero" fill-opacity="1" /><path clip-path="url(#clip320)" d="M1907.64 1479.7 L1912.52 1479.7 L1912.52 1485.58 L1907.64 1485.58 L1907.64 1479.7 Z" fill="#000000" fill-rule="nonzero" fill-opacity="1" /><path clip-path="url(#clip320)" d="M1922.84 1484.86 L1922.84 1480.6 Q1924.6 1481.44 1926.41 1481.88 Q1928.21 1482.32 1929.95 1482.32 Q1934.58 1482.32 1937.01 1479.21 Q1939.46 1476.09 1939.81 1469.75 Q1938.47 1471.74 1936.41 1472.8 Q1934.35 1473.87 1931.85 1473.87 Q1926.66 1473.87 1923.63 1470.74 Q1920.62 1467.59 1920.62 1462.15 Q1920.62 1456.83 1923.77 1453.61 Q1926.92 1450.39 1932.15 1450.39 Q1938.14 1450.39 1941.29 1455 Q1944.46 1459.58 1944.46 1468.33 Q1944.46 1476.51 1940.58 1481.39 Q1936.71 1486.25 1930.16 1486.25 Q1928.4 1486.25 1926.59 1485.9 Q1924.79 1485.56 1922.84 1484.86 M1932.15 1470.21 Q1935.3 1470.21 1937.13 1468.06 Q1938.98 1465.9 1938.98 1462.15 Q1938.98 1458.43 1937.13 1456.27 Q1935.3 1454.1 1932.15 1454.1 Q1929 1454.1 1927.15 1456.27 Q1925.32 1458.43 1925.32 1462.15 Q1925.32 1465.9 1927.15 1468.06 Q1929 1470.21 1932.15 1470.21 Z" fill="#000000" fill-rule="nonzero" fill-opacity="1" /><path clip-path="url(#clip320)" d="M2319.91 1481.64 L2327.55 1481.64 L2327.55 1455.28 L2319.24 1456.95 L2319.24 1452.69 L2327.5 1451.02 L2332.18 1451.02 L2332.18 1481.64 L2339.82 1481.64 L2339.82 1485.58 L2319.91 1485.58 L2319.91 1481.64 Z" fill="#000000" fill-rule="nonzero" fill-opacity="1" /><path clip-path="url(#clip320)" d="M2349.26 1479.7 L2354.14 1479.7 L2354.14 1485.58 L2349.26 1485.58 L2349.26 1479.7 Z" fill="#000000" fill-rule="nonzero" fill-opacity="1" /><path clip-path="url(#clip320)" d="M2374.33 1454.1 Q2370.72 1454.1 2368.89 1457.66 Q2367.08 1461.2 2367.08 1468.33 Q2367.08 1475.44 2368.89 1479.01 Q2370.72 1482.55 2374.33 1482.55 Q2377.96 1482.55 2379.77 1479.01 Q2381.6 1475.44 2381.6 1468.33 Q2381.6 1461.2 2379.77 1457.66 Q2377.96 1454.1 2374.33 1454.1 M2374.33 1450.39 Q2380.14 1450.39 2383.2 1455 Q2386.27 1459.58 2386.27 1468.33 Q2386.27 1477.06 2383.2 1481.67 Q2380.14 1486.25 2374.33 1486.25 Q2368.52 1486.25 2365.44 1481.67 Q2362.39 1477.06 2362.39 1468.33 Q2362.39 1459.58 2365.44 1455 Q2368.52 1450.39 2374.33 1450.39 Z" fill="#000000" fill-rule="nonzero" fill-opacity="1" /><path clip-path="url(#clip320)" d="M1235.8 1562.7 L1235.8 1581.6 L1229.91 1581.6 L1229.91 1532.4 L1235.8 1532.4 L1235.8 1537.81 Q1237.65 1534.62 1240.45 1533.1 Q1243.28 1531.54 1247.19 1531.54 Q1253.69 1531.54 1257.73 1536.69 Q1261.8 1541.85 1261.8 1550.25 Q1261.8 1558.65 1257.73 1563.81 Q1253.69 1568.97 1247.19 1568.97 Q1243.28 1568.97 1240.45 1567.44 Q1237.65 1565.88 1235.8 1562.7 M1255.72 1550.25 Q1255.72 1543.79 1253.05 1540.13 Q1250.41 1536.44 1245.76 1536.44 Q1241.12 1536.44 1238.44 1540.13 Q1235.8 1543.79 1235.8 1550.25 Q1235.8 1556.71 1238.44 1560.4 Q1241.12 1564.07 1245.76 1564.07 Q1250.41 1564.07 1253.05 1560.4 Q1255.72 1556.71 1255.72 1550.25 Z" fill="#000000" fill-rule="nonzero" fill-opacity="1" /><polyline clip-path="url(#clip322)" style="stroke:#000000; stroke-linecap:round; stroke-linejoin:round; stroke-width:2; stroke-opacity:0.1; fill:none" points="138.959,1423.18 2352.76,1423.18 "/>
<polyline clip-path="url(#clip322)" style="stroke:#000000; stroke-linecap:round; stroke-linejoin:round; stroke-width:2; stroke-opacity:0.1; fill:none" points="138.959,1220.84 2352.76,1220.84 "/>
<polyline clip-path="url(#clip322)" style="stroke:#000000; stroke-linecap:round; stroke-linejoin:round; stroke-width:2; stroke-opacity:0.1; fill:none" points="138.959,1018.49 2352.76,1018.49 "/>
<polyline clip-path="url(#clip322)" style="stroke:#000000; stroke-linecap:round; stroke-linejoin:round; stroke-width:2; stroke-opacity:0.1; fill:none" points="138.959,816.149 2352.76,816.149 "/>
<polyline clip-path="url(#clip322)" style="stroke:#000000; stroke-linecap:round; stroke-linejoin:round; stroke-width:2; stroke-opacity:0.1; fill:none" points="138.959,613.806 2352.76,613.806 "/>
<polyline clip-path="url(#clip322)" style="stroke:#000000; stroke-linecap:round; stroke-linejoin:round; stroke-width:2; stroke-opacity:0.1; fill:none" points="138.959,411.462 2352.76,411.462 "/>
<polyline clip-path="url(#clip322)" style="stroke:#000000; stroke-linecap:round; stroke-linejoin:round; stroke-width:2; stroke-opacity:0.1; fill:none" points="138.959,209.119 2352.76,209.119 "/>
<polyline clip-path="url(#clip320)" style="stroke:#000000; stroke-linecap:round; stroke-linejoin:round; stroke-width:4; stroke-opacity:1; fill:none" points="138.959,1423.18 138.959,47.2441 "/>
<polyline clip-path="url(#clip320)" style="stroke:#000000; stroke-linecap:round; stroke-linejoin:round; stroke-width:4; stroke-opacity:1; fill:none" points="138.959,1423.18 157.857,1423.18 "/>
<polyline clip-path="url(#clip320)" style="stroke:#000000; stroke-linecap:round; stroke-linejoin:round; stroke-width:4; stroke-opacity:1; fill:none" points="138.959,1220.84 157.857,1220.84 "/>
<polyline clip-path="url(#clip320)" style="stroke:#000000; stroke-linecap:round; stroke-linejoin:round; stroke-width:4; stroke-opacity:1; fill:none" points="138.959,1018.49 157.857,1018.49 "/>
<polyline clip-path="url(#clip320)" style="stroke:#000000; stroke-linecap:round; stroke-linejoin:round; stroke-width:4; stroke-opacity:1; fill:none" points="138.959,816.149 157.857,816.149 "/>
<polyline clip-path="url(#clip320)" style="stroke:#000000; stroke-linecap:round; stroke-linejoin:round; stroke-width:4; stroke-opacity:1; fill:none" points="138.959,613.806 157.857,613.806 "/>
<polyline clip-path="url(#clip320)" style="stroke:#000000; stroke-linecap:round; stroke-linejoin:round; stroke-width:4; stroke-opacity:1; fill:none" points="138.959,411.462 157.857,411.462 "/>
<polyline clip-path="url(#clip320)" style="stroke:#000000; stroke-linecap:round; stroke-linejoin:round; stroke-width:4; stroke-opacity:1; fill:none" points="138.959,209.119 157.857,209.119 "/>
<path clip-path="url(#clip320)" d="M91.0151 1408.98 Q87.404 1408.98 85.5753 1412.54 Q83.7697 1416.08 83.7697 1423.21 Q83.7697 1430.32 85.5753 1433.89 Q87.404 1437.43 91.0151 1437.43 Q94.6493 1437.43 96.4548 1433.89 Q98.2835 1430.32 98.2835 1423.21 Q98.2835 1416.08 96.4548 1412.54 Q94.6493 1408.98 91.0151 1408.98 M91.0151 1405.27 Q96.8252 1405.27 99.8808 1409.88 Q102.959 1414.46 102.959 1423.21 Q102.959 1431.94 99.8808 1436.55 Q96.8252 1441.13 91.0151 1441.13 Q85.2049 1441.13 82.1262 1436.55 Q79.0707 1431.94 79.0707 1423.21 Q79.0707 1414.46 82.1262 1409.88 Q85.2049 1405.27 91.0151 1405.27 Z" fill="#000000" fill-rule="nonzero" fill-opacity="1" /><path clip-path="url(#clip320)" d="M86.6401 1234.18 L102.959 1234.18 L102.959 1238.12 L81.0151 1238.12 L81.0151 1234.18 Q83.6771 1231.43 88.2604 1226.8 Q92.8669 1222.14 94.0475 1220.8 Q96.2928 1218.28 97.1724 1216.54 Q98.0752 1214.78 98.0752 1213.09 Q98.0752 1210.34 96.1308 1208.6 Q94.2095 1206.87 91.1077 1206.87 Q88.9086 1206.87 86.4549 1207.63 Q84.0244 1208.39 81.2466 1209.95 L81.2466 1205.22 Q84.0707 1204.09 86.5243 1203.51 Q88.978 1202.93 91.0151 1202.93 Q96.3854 1202.93 99.5798 1205.62 Q102.774 1208.3 102.774 1212.79 Q102.774 1214.92 101.964 1216.84 Q101.177 1218.74 99.0706 1221.33 Q98.4919 1222.01 95.39 1225.22 Q92.2882 1228.42 86.6401 1234.18 Z" fill="#000000" fill-rule="nonzero" fill-opacity="1" /><path clip-path="url(#clip320)" d="M93.3762 1005.29 L81.5707 1023.74 L93.3762 1023.74 L93.3762 1005.29 M92.1493 1001.21 L98.0289 1001.21 L98.0289 1023.74 L102.959 1023.74 L102.959 1027.62 L98.0289 1027.62 L98.0289 1035.77 L93.3762 1035.77 L93.3762 1027.62 L77.7744 1027.62 L77.7744 1023.11 L92.1493 1001.21 Z" fill="#000000" fill-rule="nonzero" fill-opacity="1" /><path clip-path="url(#clip320)" d="M91.4317 814.286 Q88.2836 814.286 86.4318 816.439 Q84.6031 818.591 84.6031 822.341 Q84.6031 826.068 86.4318 828.244 Q88.2836 830.397 91.4317 830.397 Q94.5799 830.397 96.4085 828.244 Q98.2604 826.068 98.2604 822.341 Q98.2604 818.591 96.4085 816.439 Q94.5799 814.286 91.4317 814.286 M100.714 799.633 L100.714 803.892 Q98.9548 803.059 97.1493 802.619 Q95.3669 802.18 93.6076 802.18 Q88.978 802.18 86.5243 805.305 Q84.0938 808.429 83.7466 814.749 Q85.1123 812.735 87.1725 811.67 Q89.2327 810.582 91.7095 810.582 Q96.9178 810.582 99.927 813.754 Q102.959 816.902 102.959 822.341 Q102.959 827.666 99.8113 830.883 Q96.6632 834.101 91.4317 834.101 Q85.4364 834.101 82.2651 829.517 Q79.0938 824.911 79.0938 816.184 Q79.0938 807.99 82.9827 803.129 Q86.8716 798.244 93.4225 798.244 Q95.1817 798.244 96.9641 798.592 Q98.7696 798.939 100.714 799.633 Z" fill="#000000" fill-rule="nonzero" fill-opacity="1" /><path clip-path="url(#clip320)" d="M91.1077 614.674 Q87.7743 614.674 85.8531 616.456 Q83.9549 618.239 83.9549 621.364 Q83.9549 624.489 85.8531 626.271 Q87.7743 628.053 91.1077 628.053 Q94.441 628.053 96.3623 626.271 Q98.2835 624.466 98.2835 621.364 Q98.2835 618.239 96.3623 616.456 Q94.4641 614.674 91.1077 614.674 M86.4318 612.683 Q83.4225 611.942 81.7327 609.882 Q80.066 607.822 80.066 604.859 Q80.066 600.716 83.0058 598.308 Q85.9688 595.901 91.1077 595.901 Q96.2697 595.901 99.2095 598.308 Q102.149 600.716 102.149 604.859 Q102.149 607.822 100.459 609.882 Q98.7928 611.942 95.8067 612.683 Q99.1863 613.47 101.061 615.762 Q102.959 618.054 102.959 621.364 Q102.959 626.387 99.8808 629.072 Q96.8252 631.757 91.1077 631.757 Q85.3901 631.757 82.3114 629.072 Q79.2559 626.387 79.2559 621.364 Q79.2559 618.054 81.154 615.762 Q83.0521 613.47 86.4318 612.683 M84.7188 605.299 Q84.7188 607.984 86.3855 609.489 Q88.0753 610.993 91.1077 610.993 Q94.1169 610.993 95.8067 609.489 Q97.5197 607.984 97.5197 605.299 Q97.5197 602.614 95.8067 601.109 Q94.1169 599.605 91.1077 599.605 Q88.0753 599.605 86.3855 601.109 Q84.7188 602.614 84.7188 605.299 Z" fill="#000000" fill-rule="nonzero" fill-opacity="1" /><path clip-path="url(#clip320)" d="M51.6634 424.807 L59.3023 424.807 L59.3023 398.442 L50.9921 400.108 L50.9921 395.849 L59.256 394.182 L63.9319 394.182 L63.9319 424.807 L71.5707 424.807 L71.5707 428.742 L51.6634 428.742 L51.6634 424.807 Z" fill="#000000" fill-rule="nonzero" fill-opacity="1" /><path clip-path="url(#clip320)" d="M91.0151 397.261 Q87.404 397.261 85.5753 400.826 Q83.7697 404.368 83.7697 411.497 Q83.7697 418.604 85.5753 422.168 Q87.404 425.71 91.0151 425.71 Q94.6493 425.71 96.4548 422.168 Q98.2835 418.604 98.2835 411.497 Q98.2835 404.368 96.4548 400.826 Q94.6493 397.261 91.0151 397.261 M91.0151 393.557 Q96.8252 393.557 99.8808 398.164 Q102.959 402.747 102.959 411.497 Q102.959 420.224 99.8808 424.83 Q96.8252 429.414 91.0151 429.414 Q85.2049 429.414 82.1262 424.83 Q79.0707 420.224 79.0707 411.497 Q79.0707 402.747 82.1262 398.164 Q85.2049 393.557 91.0151 393.557 Z" fill="#000000" fill-rule="nonzero" fill-opacity="1" /><path clip-path="url(#clip320)" d="M53.2606 222.464 L60.8995 222.464 L60.8995 196.098 L52.5893 197.765 L52.5893 193.506 L60.8532 191.839 L65.5291 191.839 L65.5291 222.464 L73.1679 222.464 L73.1679 226.399 L53.2606 226.399 L53.2606 222.464 Z" fill="#000000" fill-rule="nonzero" fill-opacity="1" /><path clip-path="url(#clip320)" d="M86.6401 222.464 L102.959 222.464 L102.959 226.399 L81.0151 226.399 L81.0151 222.464 Q83.6771 219.709 88.2604 215.08 Q92.8669 210.427 94.0475 209.084 Q96.2928 206.561 97.1724 204.825 Q98.0752 203.066 98.0752 201.376 Q98.0752 198.621 96.1308 196.885 Q94.2095 195.149 91.1077 195.149 Q88.9086 195.149 86.4549 195.913 Q84.0244 196.677 81.2466 198.228 L81.2466 193.506 Q84.0707 192.371 86.5243 191.793 Q88.978 191.214 91.0151 191.214 Q96.3854 191.214 99.5798 193.899 Q102.774 196.584 102.774 201.075 Q102.774 203.205 101.964 205.126 Q101.177 207.024 99.0706 209.617 Q98.4919 210.288 95.39 213.505 Q92.2882 216.7 86.6401 222.464 Z" fill="#000000" fill-rule="nonzero" fill-opacity="1" /><path clip-path="url(#clip322)" d="M958.064 1408 L958.064 1423.18 L980.202 1423.18 L980.202 1408 L958.064 1408 L958.064 1408  Z" fill="#009af9" fill-rule="evenodd" fill-opacity="1"/>
<polyline clip-path="url(#clip322)" style="stroke:#000000; stroke-linecap:round; stroke-linejoin:round; stroke-width:4; stroke-opacity:1; fill:none" points="958.064,1408 958.064,1423.18 980.202,1423.18 980.202,1408 958.064,1408 "/>
<path clip-path="url(#clip322)" d="M980.202 1402.95 L980.202 1423.18 L1002.34 1423.18 L1002.34 1402.95 L980.202 1402.95 L980.202 1402.95  Z" fill="#009af9" fill-rule="evenodd" fill-opacity="1"/>
<polyline clip-path="url(#clip322)" style="stroke:#000000; stroke-linecap:round; stroke-linejoin:round; stroke-width:4; stroke-opacity:1; fill:none" points="980.202,1402.95 980.202,1423.18 1002.34,1423.18 1002.34,1402.95 980.202,1402.95 "/>
<path clip-path="url(#clip322)" d="M1002.34 1423.18 L1002.34 1423.18 L1024.48 1423.18 L1024.48 1423.18 L1002.34 1423.18 L1002.34 1423.18  Z" fill="#009af9" fill-rule="evenodd" fill-opacity="1"/>
<polyline clip-path="url(#clip322)" style="stroke:#000000; stroke-linecap:round; stroke-linejoin:round; stroke-width:4; stroke-opacity:1; fill:none" points="1002.34,1423.18 1002.34,1423.18 1024.48,1423.18 1002.34,1423.18 "/>
<path clip-path="url(#clip322)" d="M1024.48 1392.83 L1024.48 1423.18 L1046.62 1423.18 L1046.62 1392.83 L1024.48 1392.83 L1024.48 1392.83  Z" fill="#009af9" fill-rule="evenodd" fill-opacity="1"/>
<polyline clip-path="url(#clip322)" style="stroke:#000000; stroke-linecap:round; stroke-linejoin:round; stroke-width:4; stroke-opacity:1; fill:none" points="1024.48,1392.83 1024.48,1423.18 1046.62,1423.18 1046.62,1392.83 1024.48,1392.83 "/>
<path clip-path="url(#clip322)" d="M1046.62 1423.18 L1046.62 1423.18 L1068.75 1423.18 L1068.75 1423.18 L1046.62 1423.18 L1046.62 1423.18  Z" fill="#009af9" fill-rule="evenodd" fill-opacity="1"/>
<polyline clip-path="url(#clip322)" style="stroke:#000000; stroke-linecap:round; stroke-linejoin:round; stroke-width:4; stroke-opacity:1; fill:none" points="1046.62,1423.18 1046.62,1423.18 1068.75,1423.18 1046.62,1423.18 "/>
<path clip-path="url(#clip322)" d="M1068.75 1423.18 L1068.75 1423.18 L1090.89 1423.18 L1090.89 1423.18 L1068.75 1423.18 L1068.75 1423.18  Z" fill="#009af9" fill-rule="evenodd" fill-opacity="1"/>
<polyline clip-path="url(#clip322)" style="stroke:#000000; stroke-linecap:round; stroke-linejoin:round; stroke-width:4; stroke-opacity:1; fill:none" points="1068.75,1423.18 1068.75,1423.18 1090.89,1423.18 1068.75,1423.18 "/>
<path clip-path="url(#clip322)" d="M1090.89 1392.83 L1090.89 1423.18 L1113.03 1423.18 L1113.03 1392.83 L1090.89 1392.83 L1090.89 1392.83  Z" fill="#009af9" fill-rule="evenodd" fill-opacity="1"/>
<polyline clip-path="url(#clip322)" style="stroke:#000000; stroke-linecap:round; stroke-linejoin:round; stroke-width:4; stroke-opacity:1; fill:none" points="1090.89,1392.83 1090.89,1423.18 1113.03,1423.18 1113.03,1392.83 1090.89,1392.83 "/>
<path clip-path="url(#clip322)" d="M1113.03 1291.66 L1113.03 1423.18 L1135.17 1423.18 L1135.17 1291.66 L1113.03 1291.66 L1113.03 1291.66  Z" fill="#009af9" fill-rule="evenodd" fill-opacity="1"/>
<polyline clip-path="url(#clip322)" style="stroke:#000000; stroke-linecap:round; stroke-linejoin:round; stroke-width:4; stroke-opacity:1; fill:none" points="1113.03,1291.66 1113.03,1423.18 1135.17,1423.18 1135.17,1291.66 1113.03,1291.66 "/>
<path clip-path="url(#clip322)" d="M1135.17 1397.89 L1135.17 1423.18 L1157.31 1423.18 L1157.31 1397.89 L1135.17 1397.89 L1135.17 1397.89  Z" fill="#009af9" fill-rule="evenodd" fill-opacity="1"/>
<polyline clip-path="url(#clip322)" style="stroke:#000000; stroke-linecap:round; stroke-linejoin:round; stroke-width:4; stroke-opacity:1; fill:none" points="1135.17,1397.89 1135.17,1423.18 1157.31,1423.18 1157.31,1397.89 1135.17,1397.89 "/>
<path clip-path="url(#clip322)" d="M1157.31 1377.65 L1157.31 1423.18 L1179.44 1423.18 L1179.44 1377.65 L1157.31 1377.65 L1157.31 1377.65  Z" fill="#009af9" fill-rule="evenodd" fill-opacity="1"/>
<polyline clip-path="url(#clip322)" style="stroke:#000000; stroke-linecap:round; stroke-linejoin:round; stroke-width:4; stroke-opacity:1; fill:none" points="1157.31,1377.65 1157.31,1423.18 1179.44,1423.18 1179.44,1377.65 1157.31,1377.65 "/>
<path clip-path="url(#clip322)" d="M1179.44 1402.95 L1179.44 1423.18 L1201.58 1423.18 L1201.58 1402.95 L1179.44 1402.95 L1179.44 1402.95  Z" fill="#009af9" fill-rule="evenodd" fill-opacity="1"/>
<polyline clip-path="url(#clip322)" style="stroke:#000000; stroke-linecap:round; stroke-linejoin:round; stroke-width:4; stroke-opacity:1; fill:none" points="1179.44,1402.95 1179.44,1423.18 1201.58,1423.18 1201.58,1402.95 1179.44,1402.95 "/>
<path clip-path="url(#clip322)" d="M1201.58 1362.48 L1201.58 1423.18 L1223.72 1423.18 L1223.72 1362.48 L1201.58 1362.48 L1201.58 1362.48  Z" fill="#009af9" fill-rule="evenodd" fill-opacity="1"/>
<polyline clip-path="url(#clip322)" style="stroke:#000000; stroke-linecap:round; stroke-linejoin:round; stroke-width:4; stroke-opacity:1; fill:none" points="1201.58,1362.48 1201.58,1423.18 1223.72,1423.18 1223.72,1362.48 1201.58,1362.48 "/>
<path clip-path="url(#clip322)" d="M1223.72 1387.77 L1223.72 1423.18 L1245.86 1423.18 L1245.86 1387.77 L1223.72 1387.77 L1223.72 1387.77  Z" fill="#009af9" fill-rule="evenodd" fill-opacity="1"/>
<polyline clip-path="url(#clip322)" style="stroke:#000000; stroke-linecap:round; stroke-linejoin:round; stroke-width:4; stroke-opacity:1; fill:none" points="1223.72,1387.77 1223.72,1423.18 1245.86,1423.18 1245.86,1387.77 1223.72,1387.77 "/>
<path clip-path="url(#clip322)" d="M1245.86 1327.07 L1245.86 1423.18 L1268 1423.18 L1268 1327.07 L1245.86 1327.07 L1245.86 1327.07  Z" fill="#009af9" fill-rule="evenodd" fill-opacity="1"/>
<polyline clip-path="url(#clip322)" style="stroke:#000000; stroke-linecap:round; stroke-linejoin:round; stroke-width:4; stroke-opacity:1; fill:none" points="1245.86,1327.07 1245.86,1423.18 1268,1423.18 1268,1327.07 1245.86,1327.07 "/>
<path clip-path="url(#clip322)" d="M1268 1261.31 L1268 1423.18 L1290.13 1423.18 L1290.13 1261.31 L1268 1261.31 L1268 1261.31  Z" fill="#009af9" fill-rule="evenodd" fill-opacity="1"/>
<polyline clip-path="url(#clip322)" style="stroke:#000000; stroke-linecap:round; stroke-linejoin:round; stroke-width:4; stroke-opacity:1; fill:none" points="1268,1261.31 1268,1423.18 1290.13,1423.18 1290.13,1261.31 1268,1261.31 "/>
<path clip-path="url(#clip322)" d="M1290.13 1306.83 L1290.13 1423.18 L1312.27 1423.18 L1312.27 1306.83 L1290.13 1306.83 L1290.13 1306.83  Z" fill="#009af9" fill-rule="evenodd" fill-opacity="1"/>
<polyline clip-path="url(#clip322)" style="stroke:#000000; stroke-linecap:round; stroke-linejoin:round; stroke-width:4; stroke-opacity:1; fill:none" points="1290.13,1306.83 1290.13,1423.18 1312.27,1423.18 1312.27,1306.83 1290.13,1306.83 "/>
<path clip-path="url(#clip322)" d="M1312.27 1195.54 L1312.27 1423.18 L1334.41 1423.18 L1334.41 1195.54 L1312.27 1195.54 L1312.27 1195.54  Z" fill="#009af9" fill-rule="evenodd" fill-opacity="1"/>
<polyline clip-path="url(#clip322)" style="stroke:#000000; stroke-linecap:round; stroke-linejoin:round; stroke-width:4; stroke-opacity:1; fill:none" points="1312.27,1195.54 1312.27,1423.18 1334.41,1423.18 1334.41,1195.54 1312.27,1195.54 "/>
<path clip-path="url(#clip322)" d="M1334.41 1246.13 L1334.41 1423.18 L1356.55 1423.18 L1356.55 1246.13 L1334.41 1246.13 L1334.41 1246.13  Z" fill="#009af9" fill-rule="evenodd" fill-opacity="1"/>
<polyline clip-path="url(#clip322)" style="stroke:#000000; stroke-linecap:round; stroke-linejoin:round; stroke-width:4; stroke-opacity:1; fill:none" points="1334.41,1246.13 1334.41,1423.18 1356.55,1423.18 1356.55,1246.13 1334.41,1246.13 "/>
<path clip-path="url(#clip322)" d="M1356.55 1069.08 L1356.55 1423.18 L1378.69 1423.18 L1378.69 1069.08 L1356.55 1069.08 L1356.55 1069.08  Z" fill="#009af9" fill-rule="evenodd" fill-opacity="1"/>
<polyline clip-path="url(#clip322)" style="stroke:#000000; stroke-linecap:round; stroke-linejoin:round; stroke-width:4; stroke-opacity:1; fill:none" points="1356.55,1069.08 1356.55,1423.18 1378.69,1423.18 1378.69,1069.08 1356.55,1069.08 "/>
<path clip-path="url(#clip322)" d="M1378.69 1205.66 L1378.69 1423.18 L1400.82 1423.18 L1400.82 1205.66 L1378.69 1205.66 L1378.69 1205.66  Z" fill="#009af9" fill-rule="evenodd" fill-opacity="1"/>
<polyline clip-path="url(#clip322)" style="stroke:#000000; stroke-linecap:round; stroke-linejoin:round; stroke-width:4; stroke-opacity:1; fill:none" points="1378.69,1205.66 1378.69,1423.18 1400.82,1423.18 1400.82,1205.66 1378.69,1205.66 "/>
<path clip-path="url(#clip322)" d="M1400.82 790.856 L1400.82 1423.18 L1422.96 1423.18 L1422.96 790.856 L1400.82 790.856 L1400.82 790.856  Z" fill="#009af9" fill-rule="evenodd" fill-opacity="1"/>
<polyline clip-path="url(#clip322)" style="stroke:#000000; stroke-linecap:round; stroke-linejoin:round; stroke-width:4; stroke-opacity:1; fill:none" points="1400.82,790.856 1400.82,1423.18 1422.96,1423.18 1422.96,790.856 1400.82,790.856 "/>
<path clip-path="url(#clip322)" d="M1422.96 836.384 L1422.96 1423.18 L1445.1 1423.18 L1445.1 836.384 L1422.96 836.384 L1422.96 836.384  Z" fill="#009af9" fill-rule="evenodd" fill-opacity="1"/>
<polyline clip-path="url(#clip322)" style="stroke:#000000; stroke-linecap:round; stroke-linejoin:round; stroke-width:4; stroke-opacity:1; fill:none" points="1422.96,836.384 1422.96,1423.18 1445.1,1423.18 1445.1,836.384 1422.96,836.384 "/>
<path clip-path="url(#clip322)" d="M1445.1 1003.32 L1445.1 1423.18 L1467.24 1423.18 L1467.24 1003.32 L1445.1 1003.32 L1445.1 1003.32  Z" fill="#009af9" fill-rule="evenodd" fill-opacity="1"/>
<polyline clip-path="url(#clip322)" style="stroke:#000000; stroke-linecap:round; stroke-linejoin:round; stroke-width:4; stroke-opacity:1; fill:none" points="1445.1,1003.32 1445.1,1423.18 1467.24,1423.18 1467.24,1003.32 1445.1,1003.32 "/>
<path clip-path="url(#clip322)" d="M1467.24 593.572 L1467.24 1423.18 L1489.38 1423.18 L1489.38 593.572 L1467.24 593.572 L1467.24 593.572  Z" fill="#009af9" fill-rule="evenodd" fill-opacity="1"/>
<polyline clip-path="url(#clip322)" style="stroke:#000000; stroke-linecap:round; stroke-linejoin:round; stroke-width:4; stroke-opacity:1; fill:none" points="1467.24,593.572 1467.24,1423.18 1489.38,1423.18 1489.38,593.572 1467.24,593.572 "/>
<path clip-path="url(#clip322)" d="M1489.38 532.868 L1489.38 1423.18 L1511.51 1423.18 L1511.51 532.868 L1489.38 532.868 L1489.38 532.868  Z" fill="#009af9" fill-rule="evenodd" fill-opacity="1"/>
<polyline clip-path="url(#clip322)" style="stroke:#000000; stroke-linecap:round; stroke-linejoin:round; stroke-width:4; stroke-opacity:1; fill:none" points="1489.38,532.868 1489.38,1423.18 1511.51,1423.18 1511.51,532.868 1489.38,532.868 "/>
<path clip-path="url(#clip322)" d="M1511.51 421.58 L1511.51 1423.18 L1533.65 1423.18 L1533.65 421.58 L1511.51 421.58 L1511.51 421.58  Z" fill="#009af9" fill-rule="evenodd" fill-opacity="1"/>
<polyline clip-path="url(#clip322)" style="stroke:#000000; stroke-linecap:round; stroke-linejoin:round; stroke-width:4; stroke-opacity:1; fill:none" points="1511.51,421.58 1511.51,1423.18 1533.65,1423.18 1533.65,421.58 1511.51,421.58 "/>
<path clip-path="url(#clip322)" d="M1533.65 578.396 L1533.65 1423.18 L1555.79 1423.18 L1555.79 578.396 L1533.65 578.396 L1533.65 578.396  Z" fill="#009af9" fill-rule="evenodd" fill-opacity="1"/>
<polyline clip-path="url(#clip322)" style="stroke:#000000; stroke-linecap:round; stroke-linejoin:round; stroke-width:4; stroke-opacity:1; fill:none" points="1533.65,578.396 1533.65,1423.18 1555.79,1423.18 1555.79,578.396 1533.65,578.396 "/>
<path clip-path="url(#clip322)" d="M1555.79 97.83 L1555.79 1423.18 L1577.93 1423.18 L1577.93 97.83 L1555.79 97.83 L1555.79 97.83  Z" fill="#009af9" fill-rule="evenodd" fill-opacity="1"/>
<polyline clip-path="url(#clip322)" style="stroke:#000000; stroke-linecap:round; stroke-linejoin:round; stroke-width:4; stroke-opacity:1; fill:none" points="1555.79,97.83 1555.79,1423.18 1577.93,1423.18 1577.93,97.83 1555.79,97.83 "/>
<path clip-path="url(#clip322)" d="M1577.93 47.2441 L1577.93 1423.18 L1600.07 1423.18 L1600.07 47.2441 L1577.93 47.2441 L1577.93 47.2441  Z" fill="#009af9" fill-rule="evenodd" fill-opacity="1"/>
<polyline clip-path="url(#clip322)" style="stroke:#000000; stroke-linecap:round; stroke-linejoin:round; stroke-width:4; stroke-opacity:1; fill:none" points="1577.93,47.2441 1577.93,1423.18 1600.07,1423.18 1600.07,47.2441 1577.93,47.2441 "/>
<path clip-path="url(#clip322)" d="M1600.07 396.287 L1600.07 1423.18 L1622.2 1423.18 L1622.2 396.287 L1600.07 396.287 L1600.07 396.287  Z" fill="#009af9" fill-rule="evenodd" fill-opacity="1"/>
<polyline clip-path="url(#clip322)" style="stroke:#000000; stroke-linecap:round; stroke-linejoin:round; stroke-width:4; stroke-opacity:1; fill:none" points="1600.07,396.287 1600.07,1423.18 1622.2,1423.18 1622.2,396.287 1600.07,396.287 "/>
<path clip-path="url(#clip322)" d="M1622.2 467.107 L1622.2 1423.18 L1644.34 1423.18 L1644.34 467.107 L1622.2 467.107 L1622.2 467.107  Z" fill="#009af9" fill-rule="evenodd" fill-opacity="1"/>
<polyline clip-path="url(#clip322)" style="stroke:#000000; stroke-linecap:round; stroke-linejoin:round; stroke-width:4; stroke-opacity:1; fill:none" points="1622.2,467.107 1622.2,1423.18 1644.34,1423.18 1644.34,467.107 1622.2,467.107 "/>
<path clip-path="url(#clip322)" d="M1644.34 345.701 L1644.34 1423.18 L1666.48 1423.18 L1666.48 345.701 L1644.34 345.701 L1644.34 345.701  Z" fill="#009af9" fill-rule="evenodd" fill-opacity="1"/>
<polyline clip-path="url(#clip322)" style="stroke:#000000; stroke-linecap:round; stroke-linejoin:round; stroke-width:4; stroke-opacity:1; fill:none" points="1644.34,345.701 1644.34,1423.18 1666.48,1423.18 1666.48,345.701 1644.34,345.701 "/>
<path clip-path="url(#clip322)" d="M1666.48 118.064 L1666.48 1423.18 L1688.62 1423.18 L1688.62 118.064 L1666.48 118.064 L1666.48 118.064  Z" fill="#009af9" fill-rule="evenodd" fill-opacity="1"/>
<polyline clip-path="url(#clip322)" style="stroke:#000000; stroke-linecap:round; stroke-linejoin:round; stroke-width:4; stroke-opacity:1; fill:none" points="1666.48,118.064 1666.48,1423.18 1688.62,1423.18 1688.62,118.064 1666.48,118.064 "/>
<path clip-path="url(#clip322)" d="M1688.62 654.275 L1688.62 1423.18 L1710.75 1423.18 L1710.75 654.275 L1688.62 654.275 L1688.62 654.275  Z" fill="#009af9" fill-rule="evenodd" fill-opacity="1"/>
<polyline clip-path="url(#clip322)" style="stroke:#000000; stroke-linecap:round; stroke-linejoin:round; stroke-width:4; stroke-opacity:1; fill:none" points="1688.62,654.275 1688.62,1423.18 1710.75,1423.18 1710.75,654.275 1688.62,654.275 "/>
<path clip-path="url(#clip322)" d="M1710.75 507.576 L1710.75 1423.18 L1732.89 1423.18 L1732.89 507.576 L1710.75 507.576 L1710.75 507.576  Z" fill="#009af9" fill-rule="evenodd" fill-opacity="1"/>
<polyline clip-path="url(#clip322)" style="stroke:#000000; stroke-linecap:round; stroke-linejoin:round; stroke-width:4; stroke-opacity:1; fill:none" points="1710.75,507.576 1710.75,1423.18 1732.89,1423.18 1732.89,507.576 1710.75,507.576 "/>
<path clip-path="url(#clip322)" d="M1732.89 654.275 L1732.89 1423.18 L1755.03 1423.18 L1755.03 654.275 L1732.89 654.275 L1732.89 654.275  Z" fill="#009af9" fill-rule="evenodd" fill-opacity="1"/>
<polyline clip-path="url(#clip322)" style="stroke:#000000; stroke-linecap:round; stroke-linejoin:round; stroke-width:4; stroke-opacity:1; fill:none" points="1732.89,654.275 1732.89,1423.18 1755.03,1423.18 1755.03,654.275 1732.89,654.275 "/>
<path clip-path="url(#clip322)" d="M1755.03 775.681 L1755.03 1423.18 L1777.17 1423.18 L1777.17 775.681 L1755.03 775.681 L1755.03 775.681  Z" fill="#009af9" fill-rule="evenodd" fill-opacity="1"/>
<polyline clip-path="url(#clip322)" style="stroke:#000000; stroke-linecap:round; stroke-linejoin:round; stroke-width:4; stroke-opacity:1; fill:none" points="1755.03,775.681 1755.03,1423.18 1777.17,1423.18 1777.17,775.681 1755.03,775.681 "/>
<path clip-path="url(#clip322)" d="M1777.17 886.97 L1777.17 1423.18 L1799.31 1423.18 L1799.31 886.97 L1777.17 886.97 L1777.17 886.97  Z" fill="#009af9" fill-rule="evenodd" fill-opacity="1"/>
<polyline clip-path="url(#clip322)" style="stroke:#000000; stroke-linecap:round; stroke-linejoin:round; stroke-width:4; stroke-opacity:1; fill:none" points="1777.17,886.97 1777.17,1423.18 1799.31,1423.18 1799.31,886.97 1777.17,886.97 "/>
<path clip-path="url(#clip322)" d="M1799.31 679.568 L1799.31 1423.18 L1821.44 1423.18 L1821.44 679.568 L1799.31 679.568 L1799.31 679.568  Z" fill="#009af9" fill-rule="evenodd" fill-opacity="1"/>
<polyline clip-path="url(#clip322)" style="stroke:#000000; stroke-linecap:round; stroke-linejoin:round; stroke-width:4; stroke-opacity:1; fill:none" points="1799.31,679.568 1799.31,1423.18 1821.44,1423.18 1821.44,679.568 1799.31,679.568 "/>
<path clip-path="url(#clip322)" d="M1821.44 957.79 L1821.44 1423.18 L1843.58 1423.18 L1843.58 957.79 L1821.44 957.79 L1821.44 957.79  Z" fill="#009af9" fill-rule="evenodd" fill-opacity="1"/>
<polyline clip-path="url(#clip322)" style="stroke:#000000; stroke-linecap:round; stroke-linejoin:round; stroke-width:4; stroke-opacity:1; fill:none" points="1821.44,957.79 1821.44,1423.18 1843.58,1423.18 1843.58,957.79 1821.44,957.79 "/>
<path clip-path="url(#clip322)" d="M1843.58 856.618 L1843.58 1423.18 L1865.72 1423.18 L1865.72 856.618 L1843.58 856.618 L1843.58 856.618  Z" fill="#009af9" fill-rule="evenodd" fill-opacity="1"/>
<polyline clip-path="url(#clip322)" style="stroke:#000000; stroke-linecap:round; stroke-linejoin:round; stroke-width:4; stroke-opacity:1; fill:none" points="1843.58,856.618 1843.58,1423.18 1865.72,1423.18 1865.72,856.618 1843.58,856.618 "/>
<path clip-path="url(#clip322)" d="M1865.72 1215.78 L1865.72 1423.18 L1887.86 1423.18 L1887.86 1215.78 L1865.72 1215.78 L1865.72 1215.78  Z" fill="#009af9" fill-rule="evenodd" fill-opacity="1"/>
<polyline clip-path="url(#clip322)" style="stroke:#000000; stroke-linecap:round; stroke-linejoin:round; stroke-width:4; stroke-opacity:1; fill:none" points="1865.72,1215.78 1865.72,1423.18 1887.86,1423.18 1887.86,1215.78 1865.72,1215.78 "/>
<path clip-path="url(#clip322)" d="M1887.86 1286.6 L1887.86 1423.18 L1910 1423.18 L1910 1286.6 L1887.86 1286.6 L1887.86 1286.6  Z" fill="#009af9" fill-rule="evenodd" fill-opacity="1"/>
<polyline clip-path="url(#clip322)" style="stroke:#000000; stroke-linecap:round; stroke-linejoin:round; stroke-width:4; stroke-opacity:1; fill:none" points="1887.86,1286.6 1887.86,1423.18 1910,1423.18 1910,1286.6 1887.86,1286.6 "/>
<path clip-path="url(#clip322)" d="M1910 1311.89 L1910 1423.18 L1932.13 1423.18 L1932.13 1311.89 L1910 1311.89 L1910 1311.89  Z" fill="#009af9" fill-rule="evenodd" fill-opacity="1"/>
<polyline clip-path="url(#clip322)" style="stroke:#000000; stroke-linecap:round; stroke-linejoin:round; stroke-width:4; stroke-opacity:1; fill:none" points="1910,1311.89 1910,1423.18 1932.13,1423.18 1932.13,1311.89 1910,1311.89 "/>
<path clip-path="url(#clip322)" d="M1932.13 1286.6 L1932.13 1423.18 L1954.27 1423.18 L1954.27 1286.6 L1932.13 1286.6 L1932.13 1286.6  Z" fill="#009af9" fill-rule="evenodd" fill-opacity="1"/>
<polyline clip-path="url(#clip322)" style="stroke:#000000; stroke-linecap:round; stroke-linejoin:round; stroke-width:4; stroke-opacity:1; fill:none" points="1932.13,1286.6 1932.13,1423.18 1954.27,1423.18 1954.27,1286.6 1932.13,1286.6 "/>
<path clip-path="url(#clip322)" d="M1954.27 1347.3 L1954.27 1423.18 L1976.41 1423.18 L1976.41 1347.3 L1954.27 1347.3 L1954.27 1347.3  Z" fill="#009af9" fill-rule="evenodd" fill-opacity="1"/>
<polyline clip-path="url(#clip322)" style="stroke:#000000; stroke-linecap:round; stroke-linejoin:round; stroke-width:4; stroke-opacity:1; fill:none" points="1954.27,1347.3 1954.27,1423.18 1976.41,1423.18 1976.41,1347.3 1954.27,1347.3 "/>
<path clip-path="url(#clip322)" d="M1976.41 1352.36 L1976.41 1423.18 L1998.55 1423.18 L1998.55 1352.36 L1976.41 1352.36 L1976.41 1352.36  Z" fill="#009af9" fill-rule="evenodd" fill-opacity="1"/>
<polyline clip-path="url(#clip322)" style="stroke:#000000; stroke-linecap:round; stroke-linejoin:round; stroke-width:4; stroke-opacity:1; fill:none" points="1976.41,1352.36 1976.41,1423.18 1998.55,1423.18 1998.55,1352.36 1976.41,1352.36 "/>
<path clip-path="url(#clip322)" d="M1998.55 1402.95 L1998.55 1423.18 L2020.69 1423.18 L2020.69 1402.95 L1998.55 1402.95 L1998.55 1402.95  Z" fill="#009af9" fill-rule="evenodd" fill-opacity="1"/>
<polyline clip-path="url(#clip322)" style="stroke:#000000; stroke-linecap:round; stroke-linejoin:round; stroke-width:4; stroke-opacity:1; fill:none" points="1998.55,1402.95 1998.55,1423.18 2020.69,1423.18 2020.69,1402.95 1998.55,1402.95 "/>
<path clip-path="url(#clip322)" d="M2020.69 1408 L2020.69 1423.18 L2042.82 1423.18 L2042.82 1408 L2020.69 1408 L2020.69 1408  Z" fill="#009af9" fill-rule="evenodd" fill-opacity="1"/>
<polyline clip-path="url(#clip322)" style="stroke:#000000; stroke-linecap:round; stroke-linejoin:round; stroke-width:4; stroke-opacity:1; fill:none" points="2020.69,1408 2020.69,1423.18 2042.82,1423.18 2042.82,1408 2020.69,1408 "/>
<path clip-path="url(#clip322)" d="M2042.82 1418.12 L2042.82 1423.18 L2064.96 1423.18 L2064.96 1418.12 L2042.82 1418.12 L2042.82 1418.12  Z" fill="#009af9" fill-rule="evenodd" fill-opacity="1"/>
<polyline clip-path="url(#clip322)" style="stroke:#000000; stroke-linecap:round; stroke-linejoin:round; stroke-width:4; stroke-opacity:1; fill:none" points="2042.82,1418.12 2042.82,1423.18 2064.96,1423.18 2064.96,1418.12 2042.82,1418.12 "/>
<path clip-path="url(#clip322)" d="M2064.96 1423.18 L2064.96 1423.18 L2087.1 1423.18 L2087.1 1423.18 L2064.96 1423.18 L2064.96 1423.18  Z" fill="#009af9" fill-rule="evenodd" fill-opacity="1"/>
<polyline clip-path="url(#clip322)" style="stroke:#000000; stroke-linecap:round; stroke-linejoin:round; stroke-width:4; stroke-opacity:1; fill:none" points="2064.96,1423.18 2064.96,1423.18 2087.1,1423.18 2064.96,1423.18 "/>
<path clip-path="url(#clip322)" d="M2087.1 1418.12 L2087.1 1423.18 L2109.24 1423.18 L2109.24 1418.12 L2087.1 1418.12 L2087.1 1418.12  Z" fill="#009af9" fill-rule="evenodd" fill-opacity="1"/>
<polyline clip-path="url(#clip322)" style="stroke:#000000; stroke-linecap:round; stroke-linejoin:round; stroke-width:4; stroke-opacity:1; fill:none" points="2087.1,1418.12 2087.1,1423.18 2109.24,1423.18 2109.24,1418.12 2087.1,1418.12 "/>
<circle clip-path="url(#clip322)" style="fill:#009af9; stroke:none; fill-opacity:0" cx="969.133" cy="1408" r="2"/>
<circle clip-path="url(#clip322)" style="fill:#009af9; stroke:none; fill-opacity:0" cx="991.271" cy="1402.95" r="2"/>
<circle clip-path="url(#clip322)" style="fill:#009af9; stroke:none; fill-opacity:0" cx="1013.41" cy="1423.18" r="2"/>
<circle clip-path="url(#clip322)" style="fill:#009af9; stroke:none; fill-opacity:0" cx="1035.55" cy="1392.83" r="2"/>
<circle clip-path="url(#clip322)" style="fill:#009af9; stroke:none; fill-opacity:0" cx="1057.68" cy="1423.18" r="2"/>
<circle clip-path="url(#clip322)" style="fill:#009af9; stroke:none; fill-opacity:0" cx="1079.82" cy="1423.18" r="2"/>
<circle clip-path="url(#clip322)" style="fill:#009af9; stroke:none; fill-opacity:0" cx="1101.96" cy="1392.83" r="2"/>
<circle clip-path="url(#clip322)" style="fill:#009af9; stroke:none; fill-opacity:0" cx="1124.1" cy="1291.66" r="2"/>
<circle clip-path="url(#clip322)" style="fill:#009af9; stroke:none; fill-opacity:0" cx="1146.24" cy="1397.89" r="2"/>
<circle clip-path="url(#clip322)" style="fill:#009af9; stroke:none; fill-opacity:0" cx="1168.37" cy="1377.65" r="2"/>
<circle clip-path="url(#clip322)" style="fill:#009af9; stroke:none; fill-opacity:0" cx="1190.51" cy="1402.95" r="2"/>
<circle clip-path="url(#clip322)" style="fill:#009af9; stroke:none; fill-opacity:0" cx="1212.65" cy="1362.48" r="2"/>
<circle clip-path="url(#clip322)" style="fill:#009af9; stroke:none; fill-opacity:0" cx="1234.79" cy="1387.77" r="2"/>
<circle clip-path="url(#clip322)" style="fill:#009af9; stroke:none; fill-opacity:0" cx="1256.93" cy="1327.07" r="2"/>
<circle clip-path="url(#clip322)" style="fill:#009af9; stroke:none; fill-opacity:0" cx="1279.06" cy="1261.31" r="2"/>
<circle clip-path="url(#clip322)" style="fill:#009af9; stroke:none; fill-opacity:0" cx="1301.2" cy="1306.83" r="2"/>
<circle clip-path="url(#clip322)" style="fill:#009af9; stroke:none; fill-opacity:0" cx="1323.34" cy="1195.54" r="2"/>
<circle clip-path="url(#clip322)" style="fill:#009af9; stroke:none; fill-opacity:0" cx="1345.48" cy="1246.13" r="2"/>
<circle clip-path="url(#clip322)" style="fill:#009af9; stroke:none; fill-opacity:0" cx="1367.62" cy="1069.08" r="2"/>
<circle clip-path="url(#clip322)" style="fill:#009af9; stroke:none; fill-opacity:0" cx="1389.75" cy="1205.66" r="2"/>
<circle clip-path="url(#clip322)" style="fill:#009af9; stroke:none; fill-opacity:0" cx="1411.89" cy="790.856" r="2"/>
<circle clip-path="url(#clip322)" style="fill:#009af9; stroke:none; fill-opacity:0" cx="1434.03" cy="836.384" r="2"/>
<circle clip-path="url(#clip322)" style="fill:#009af9; stroke:none; fill-opacity:0" cx="1456.17" cy="1003.32" r="2"/>
<circle clip-path="url(#clip322)" style="fill:#009af9; stroke:none; fill-opacity:0" cx="1478.31" cy="593.572" r="2"/>
<circle clip-path="url(#clip322)" style="fill:#009af9; stroke:none; fill-opacity:0" cx="1500.44" cy="532.868" r="2"/>
<circle clip-path="url(#clip322)" style="fill:#009af9; stroke:none; fill-opacity:0" cx="1522.58" cy="421.58" r="2"/>
<circle clip-path="url(#clip322)" style="fill:#009af9; stroke:none; fill-opacity:0" cx="1544.72" cy="578.396" r="2"/>
<circle clip-path="url(#clip322)" style="fill:#009af9; stroke:none; fill-opacity:0" cx="1566.86" cy="97.83" r="2"/>
<circle clip-path="url(#clip322)" style="fill:#009af9; stroke:none; fill-opacity:0" cx="1589" cy="47.2441" r="2"/>
<circle clip-path="url(#clip322)" style="fill:#009af9; stroke:none; fill-opacity:0" cx="1611.13" cy="396.287" r="2"/>
<circle clip-path="url(#clip322)" style="fill:#009af9; stroke:none; fill-opacity:0" cx="1633.27" cy="467.107" r="2"/>
<circle clip-path="url(#clip322)" style="fill:#009af9; stroke:none; fill-opacity:0" cx="1655.41" cy="345.701" r="2"/>
<circle clip-path="url(#clip322)" style="fill:#009af9; stroke:none; fill-opacity:0" cx="1677.55" cy="118.064" r="2"/>
<circle clip-path="url(#clip322)" style="fill:#009af9; stroke:none; fill-opacity:0" cx="1699.69" cy="654.275" r="2"/>
<circle clip-path="url(#clip322)" style="fill:#009af9; stroke:none; fill-opacity:0" cx="1721.82" cy="507.576" r="2"/>
<circle clip-path="url(#clip322)" style="fill:#009af9; stroke:none; fill-opacity:0" cx="1743.96" cy="654.275" r="2"/>
<circle clip-path="url(#clip322)" style="fill:#009af9; stroke:none; fill-opacity:0" cx="1766.1" cy="775.681" r="2"/>
<circle clip-path="url(#clip322)" style="fill:#009af9; stroke:none; fill-opacity:0" cx="1788.24" cy="886.97" r="2"/>
<circle clip-path="url(#clip322)" style="fill:#009af9; stroke:none; fill-opacity:0" cx="1810.38" cy="679.568" r="2"/>
<circle clip-path="url(#clip322)" style="fill:#009af9; stroke:none; fill-opacity:0" cx="1832.51" cy="957.79" r="2"/>
<circle clip-path="url(#clip322)" style="fill:#009af9; stroke:none; fill-opacity:0" cx="1854.65" cy="856.618" r="2"/>
<circle clip-path="url(#clip322)" style="fill:#009af9; stroke:none; fill-opacity:0" cx="1876.79" cy="1215.78" r="2"/>
<circle clip-path="url(#clip322)" style="fill:#009af9; stroke:none; fill-opacity:0" cx="1898.93" cy="1286.6" r="2"/>
<circle clip-path="url(#clip322)" style="fill:#009af9; stroke:none; fill-opacity:0" cx="1921.07" cy="1311.89" r="2"/>
<circle clip-path="url(#clip322)" style="fill:#009af9; stroke:none; fill-opacity:0" cx="1943.2" cy="1286.6" r="2"/>
<circle clip-path="url(#clip322)" style="fill:#009af9; stroke:none; fill-opacity:0" cx="1965.34" cy="1347.3" r="2"/>
<circle clip-path="url(#clip322)" style="fill:#009af9; stroke:none; fill-opacity:0" cx="1987.48" cy="1352.36" r="2"/>
<circle clip-path="url(#clip322)" style="fill:#009af9; stroke:none; fill-opacity:0" cx="2009.62" cy="1402.95" r="2"/>
<circle clip-path="url(#clip322)" style="fill:#009af9; stroke:none; fill-opacity:0" cx="2031.76" cy="1408" r="2"/>
<circle clip-path="url(#clip322)" style="fill:#009af9; stroke:none; fill-opacity:0" cx="2053.89" cy="1418.12" r="2"/>
<circle clip-path="url(#clip322)" style="fill:#009af9; stroke:none; fill-opacity:0" cx="2076.03" cy="1423.18" r="2"/>
<circle clip-path="url(#clip322)" style="fill:#009af9; stroke:none; fill-opacity:0" cx="2098.17" cy="1418.12" r="2"/>
<polyline clip-path="url(#clip322)" style="stroke:#e26f46; stroke-linecap:round; stroke-linejoin:round; stroke-width:8; stroke-opacity:1; fill:none" points="-2074.84,1423.18 -2052.59,1423.18 -2030.34,1423.18 -2008.09,1423.18 -1985.84,1423.18 -1963.59,1423.18 -1941.34,1423.18 -1919.09,1423.18 -1896.84,1423.18 -1874.59,1423.18 -1852.34,1423.18 -1830.1,1423.18 -1807.85,1423.18 -1785.6,1423.18 -1763.35,1423.18 -1741.1,1423.18 -1718.85,1423.18 -1696.6,1423.18 -1674.35,1423.18 -1652.1,1423.18 -1629.85,1423.18 -1607.6,1423.18 -1585.35,1423.18 -1563.11,1423.18 -1540.86,1423.18 -1518.61,1423.18 -1496.36,1423.18 -1474.11,1423.18 -1451.86,1423.18 -1429.61,1423.18 -1407.36,1423.18 -1385.11,1423.18 -1362.86,1423.18 -1340.61,1423.18 -1318.36,1423.18 -1296.11,1423.18 -1273.87,1423.18 -1251.62,1423.18 -1229.37,1423.18 -1207.12,1423.18 -1184.87,1423.18 -1162.62,1423.18 -1140.37,1423.18 -1118.12,1423.18 -1095.87,1423.18 -1073.62,1423.18 -1051.37,1423.18 -1029.12,1423.18 -1006.87,1423.18 -984.626,1423.18 -962.376,1423.18 -940.127,1423.18 -917.878,1423.18 -895.629,1423.18 -873.38,1423.18 -851.13,1423.18 -828.881,1423.18 -806.632,1423.18 -784.383,1423.18 -762.134,1423.18 -739.884,1423.18 -717.635,1423.18 -695.386,1423.18 -673.137,1423.18 -650.888,1423.18 -628.638,1423.18 -606.389,1423.18 -584.14,1423.18 -561.891,1423.18 -539.641,1423.18 -517.392,1423.18 -495.143,1423.18 -472.894,1423.18 -450.645,1423.18 -428.395,1423.18 -406.146,1423.18 -383.897,1423.18 -361.648,1423.18 -339.399,1423.18 -317.149,1423.18 -294.9,1423.18 -272.651,1423.18 -250.402,1423.18 -228.153,1423.18 -205.903,1423.18 -183.654,1423.18 -161.405,1423.18 -139.156,1423.18 -116.906,1423.18 -94.6573,1423.18 -72.4081,1423.18 -50.1589,1423.18 -27.9096,1423.18 -5.66043,1423.18 16.5888,1423.18 38.838,1423.18 61.0872,1423.18 83.3364,1423.18 105.586,1423.18 127.835,1423.18 150.084,1423.18 172.333,1423.18 194.582,1423.18 216.832,1423.18 239.081,1423.18 261.33,1423.18 283.579,1423.18 305.829,1423.18 328.078,1423.18 350.327,1423.18 372.576,1423.18 394.825,1423.18 417.075,1423.18 439.324,1423.18 461.573,1423.18 483.822,1423.18 506.071,1423.18 528.321,1423.18 550.57,1423.18 572.819,1423.18 595.068,1423.18 617.317,1423.18 639.567,1423.17 661.816,1423.17 684.065,1423.17 706.314,1423.16 728.564,1423.15 750.813,1423.13 773.062,1423.1 795.311,1423.06 817.56,1423 839.81,1422.91 862.059,1422.78 884.308,1422.59 906.557,1422.32 928.806,1421.92 951.056,1421.36 973.305,1420.57 995.554,1419.48 1017.8,1417.97 1040.05,1415.91 1062.3,1413.13 1084.55,1409.4 1106.8,1404.46 1129.05,1397.98 1151.3,1389.58 1173.55,1378.81 1195.8,1365.13 1218.05,1347.99 1240.3,1326.74 1262.54,1300.75 1284.79,1269.37 1307.04,1231.97 1329.29,1188.07 1351.54,1137.28 1373.79,1079.48 1396.04,1014.83 1418.29,943.852 1440.54,867.519 1462.79,787.276 1485.04,705.079 1507.29,623.375 1529.54,545.044 1551.78,473.293 1574.03,411.496 1596.28,362.982 1618.53,330.795 1640.78,317.432 1663.03,324.579 1685.28,352.903 1707.53,401.887 1729.78,469.781 1752.03,553.653 1774.28,649.575 1796.53,752.909 1818.77,858.699 1841.02,962.093 1863.27,1058.77 1885.52,1145.3 1907.77,1219.38 1930.02,1279.95 1952.27,1327.14 1974.52,1362.05 1996.77,1386.46 2019.02,1402.52 2041.27,1412.38 2063.52,1417.99 2085.77,1420.92 2108.01,1422.3 2130.26,1422.88 2152.51,1423.09 2174.76,1423.16 2197.01,1423.18 2219.26,1423.18 2241.51,1423.18 2263.76,1423.18 2286.01,1423.18 2308.26,1423.18 2330.51,1423.18 2352.76,1423.18 "/>
<path clip-path="url(#clip320)" d="M1603.23 248.629 L2278.96 248.629 L2278.96 93.1086 L1603.23 93.1086  Z" fill="#ffffff" fill-rule="evenodd" fill-opacity="1"/>
<polyline clip-path="url(#clip320)" style="stroke:#000000; stroke-linecap:round; stroke-linejoin:round; stroke-width:4; stroke-opacity:1; fill:none" points="1603.23,248.629 2278.96,248.629 2278.96,93.1086 1603.23,93.1086 1603.23,248.629 "/>
<path clip-path="url(#clip320)" d="M1627.83 165.685 L1775.42 165.685 L1775.42 124.213 L1627.83 124.213 L1627.83 165.685  Z" fill="#009af9" fill-rule="evenodd" fill-opacity="1"/>
<polyline clip-path="url(#clip320)" style="stroke:#000000; stroke-linecap:round; stroke-linejoin:round; stroke-width:4; stroke-opacity:1; fill:none" points="1627.83,165.685 1775.42,165.685 1775.42,124.213 1627.83,124.213 1627.83,165.685 "/>
<path clip-path="url(#clip320)" d="M1800.02 127.669 L1806.98 127.669 L1815.8 151.187 L1824.67 127.669 L1831.64 127.669 L1831.64 162.229 L1827.08 162.229 L1827.08 131.882 L1818.16 155.585 L1813.46 155.585 L1804.55 131.882 L1804.55 162.229 L1800.02 162.229 L1800.02 127.669 Z" fill="#000000" fill-rule="nonzero" fill-opacity="1" /><path clip-path="url(#clip320)" d="M1840.92 127.669 L1845.59 127.669 L1845.59 141.835 L1862.58 141.835 L1862.58 127.669 L1867.26 127.669 L1867.26 162.229 L1862.58 162.229 L1862.58 145.77 L1845.59 145.77 L1845.59 162.229 L1840.92 162.229 L1840.92 127.669 Z" fill="#000000" fill-rule="nonzero" fill-opacity="1" /><polyline clip-path="url(#clip320)" style="stroke:#e26f46; stroke-linecap:round; stroke-linejoin:round; stroke-width:8; stroke-opacity:1; fill:none" points="1627.83,196.789 1775.42,196.789 "/>
<path clip-path="url(#clip320)" d="M1813.42 201.036 Q1808.26 201.036 1806.27 202.217 Q1804.27 203.397 1804.27 206.245 Q1804.27 208.513 1805.76 209.856 Q1807.26 211.175 1809.83 211.175 Q1813.37 211.175 1815.5 208.675 Q1817.65 206.152 1817.65 201.985 L1817.65 201.036 L1813.42 201.036 M1821.91 199.277 L1821.91 214.069 L1817.65 214.069 L1817.65 210.133 Q1816.2 212.495 1814.02 213.629 Q1811.84 214.74 1808.7 214.74 Q1804.71 214.74 1802.35 212.518 Q1800.02 210.272 1800.02 206.522 Q1800.02 202.147 1802.93 199.925 Q1805.87 197.703 1811.68 197.703 L1817.65 197.703 L1817.65 197.286 Q1817.65 194.347 1815.71 192.749 Q1813.79 191.129 1810.29 191.129 Q1808.07 191.129 1805.96 191.661 Q1803.86 192.194 1801.91 193.259 L1801.91 189.323 Q1804.25 188.421 1806.45 187.981 Q1808.65 187.518 1810.73 187.518 Q1816.36 187.518 1819.14 190.434 Q1821.91 193.351 1821.91 199.277 Z" fill="#000000" fill-rule="nonzero" fill-opacity="1" /><path clip-path="url(#clip320)" d="M1852.24 198.421 L1852.24 214.069 L1847.98 214.069 L1847.98 198.559 Q1847.98 194.879 1846.54 193.05 Q1845.11 191.222 1842.24 191.222 Q1838.79 191.222 1836.8 193.421 Q1834.81 195.62 1834.81 199.416 L1834.81 214.069 L1830.52 214.069 L1830.52 188.143 L1834.81 188.143 L1834.81 192.171 Q1836.33 189.833 1838.39 188.675 Q1840.48 187.518 1843.19 187.518 Q1847.65 187.518 1849.95 190.296 Q1852.24 193.05 1852.24 198.421 Z" fill="#000000" fill-rule="nonzero" fill-opacity="1" /><path clip-path="url(#clip320)" d="M1872.52 201.036 Q1867.35 201.036 1865.36 202.217 Q1863.37 203.397 1863.37 206.245 Q1863.37 208.513 1864.85 209.856 Q1866.36 211.175 1868.93 211.175 Q1872.47 211.175 1874.6 208.675 Q1876.75 206.152 1876.75 201.985 L1876.75 201.036 L1872.52 201.036 M1881.01 199.277 L1881.01 214.069 L1876.75 214.069 L1876.75 210.133 Q1875.29 212.495 1873.12 213.629 Q1870.94 214.74 1867.79 214.74 Q1863.81 214.74 1861.45 212.518 Q1859.11 210.272 1859.11 206.522 Q1859.11 202.147 1862.03 199.925 Q1864.97 197.703 1870.78 197.703 L1876.75 197.703 L1876.75 197.286 Q1876.75 194.347 1874.81 192.749 Q1872.89 191.129 1869.39 191.129 Q1867.17 191.129 1865.06 191.661 Q1862.96 192.194 1861.01 193.259 L1861.01 189.323 Q1863.35 188.421 1865.55 187.981 Q1867.75 187.518 1869.83 187.518 Q1875.45 187.518 1878.23 190.434 Q1881.01 193.351 1881.01 199.277 Z" fill="#000000" fill-rule="nonzero" fill-opacity="1" /><path clip-path="url(#clip320)" d="M1889.78 178.05 L1894.04 178.05 L1894.04 214.069 L1889.78 214.069 L1889.78 178.05 Z" fill="#000000" fill-rule="nonzero" fill-opacity="1" /><path clip-path="url(#clip320)" d="M1913.74 216.476 Q1911.94 221.106 1910.22 222.518 Q1908.51 223.93 1905.64 223.93 L1902.24 223.93 L1902.24 220.365 L1904.74 220.365 Q1906.5 220.365 1907.47 219.532 Q1908.44 218.698 1909.62 215.596 L1910.39 213.652 L1899.9 188.143 L1904.41 188.143 L1912.51 208.421 L1920.62 188.143 L1925.13 188.143 L1913.74 216.476 Z" fill="#000000" fill-rule="nonzero" fill-opacity="1" /><path clip-path="url(#clip320)" d="M1935.22 180.782 L1935.22 188.143 L1944 188.143 L1944 191.453 L1935.22 191.453 L1935.22 205.527 Q1935.22 208.698 1936.08 209.601 Q1936.96 210.504 1939.62 210.504 L1944 210.504 L1944 214.069 L1939.62 214.069 Q1934.69 214.069 1932.82 212.24 Q1930.94 210.388 1930.94 205.527 L1930.94 191.453 L1927.82 191.453 L1927.82 188.143 L1930.94 188.143 L1930.94 180.782 L1935.22 180.782 Z" fill="#000000" fill-rule="nonzero" fill-opacity="1" /><path clip-path="url(#clip320)" d="M1949.6 188.143 L1953.86 188.143 L1953.86 214.069 L1949.6 214.069 L1949.6 188.143 M1949.6 178.05 L1953.86 178.05 L1953.86 183.444 L1949.6 183.444 L1949.6 178.05 Z" fill="#000000" fill-rule="nonzero" fill-opacity="1" /><path clip-path="url(#clip320)" d="M1981.43 189.138 L1981.43 193.12 Q1979.62 192.124 1977.79 191.638 Q1975.99 191.129 1974.13 191.129 Q1969.99 191.129 1967.7 193.768 Q1965.41 196.384 1965.41 201.129 Q1965.41 205.874 1967.7 208.513 Q1969.99 211.129 1974.13 211.129 Q1975.99 211.129 1977.79 210.643 Q1979.62 210.133 1981.43 209.138 L1981.43 213.073 Q1979.64 213.907 1977.72 214.323 Q1975.82 214.74 1973.67 214.74 Q1967.82 214.74 1964.37 211.059 Q1960.92 207.379 1960.92 201.129 Q1960.92 194.786 1964.39 191.152 Q1967.89 187.518 1973.95 187.518 Q1975.92 187.518 1977.79 187.935 Q1979.67 188.328 1981.43 189.138 Z" fill="#000000" fill-rule="nonzero" fill-opacity="1" /><path clip-path="url(#clip320)" d="M2000.62 201.036 Q1995.45 201.036 1993.46 202.217 Q1991.47 203.397 1991.47 206.245 Q1991.47 208.513 1992.95 209.856 Q1994.46 211.175 1997.03 211.175 Q2000.57 211.175 2002.7 208.675 Q2004.85 206.152 2004.85 201.985 L2004.85 201.036 L2000.62 201.036 M2009.11 199.277 L2009.11 214.069 L2004.85 214.069 L2004.85 210.133 Q2003.39 212.495 2001.22 213.629 Q1999.04 214.74 1995.89 214.74 Q1991.91 214.74 1989.55 212.518 Q1987.21 210.272 1987.21 206.522 Q1987.21 202.147 1990.13 199.925 Q1993.07 197.703 1998.88 197.703 L2004.85 197.703 L2004.85 197.286 Q2004.85 194.347 2002.91 192.749 Q2000.99 191.129 1997.49 191.129 Q1995.27 191.129 1993.16 191.661 Q1991.06 192.194 1989.11 193.259 L1989.11 189.323 Q1991.45 188.421 1993.65 187.981 Q1995.85 187.518 1997.93 187.518 Q2003.56 187.518 2006.33 190.434 Q2009.11 193.351 2009.11 199.277 Z" fill="#000000" fill-rule="nonzero" fill-opacity="1" /><path clip-path="url(#clip320)" d="M2017.88 178.05 L2022.14 178.05 L2022.14 214.069 L2017.88 214.069 L2017.88 178.05 Z" fill="#000000" fill-rule="nonzero" fill-opacity="1" /><path clip-path="url(#clip320)" d="M2050.25 210.18 L2050.25 223.93 L2045.96 223.93 L2045.96 188.143 L2050.25 188.143 L2050.25 192.078 Q2051.59 189.763 2053.63 188.652 Q2055.69 187.518 2058.53 187.518 Q2063.25 187.518 2066.19 191.268 Q2069.16 195.018 2069.16 201.129 Q2069.16 207.24 2066.19 210.99 Q2063.25 214.74 2058.53 214.74 Q2055.69 214.74 2053.63 213.629 Q2051.59 212.495 2050.25 210.18 M2064.74 201.129 Q2064.74 196.43 2062.79 193.768 Q2060.87 191.083 2057.49 191.083 Q2054.11 191.083 2052.17 193.768 Q2050.25 196.43 2050.25 201.129 Q2050.25 205.828 2052.17 208.513 Q2054.11 211.175 2057.49 211.175 Q2060.87 211.175 2062.79 208.513 Q2064.74 205.828 2064.74 201.129 Z" fill="#000000" fill-rule="nonzero" fill-opacity="1" /><path clip-path="url(#clip320)" d="M2086.26 191.129 Q2082.84 191.129 2080.85 193.814 Q2078.86 196.476 2078.86 201.129 Q2078.86 205.782 2080.82 208.467 Q2082.81 211.129 2086.26 211.129 Q2089.67 211.129 2091.66 208.444 Q2093.65 205.758 2093.65 201.129 Q2093.65 196.522 2091.66 193.837 Q2089.67 191.129 2086.26 191.129 M2086.26 187.518 Q2091.82 187.518 2094.99 191.129 Q2098.16 194.74 2098.16 201.129 Q2098.16 207.495 2094.99 211.129 Q2091.82 214.74 2086.26 214.74 Q2080.69 214.74 2077.51 211.129 Q2074.37 207.495 2074.37 201.129 Q2074.37 194.74 2077.51 191.129 Q2080.69 187.518 2086.26 187.518 Z" fill="#000000" fill-rule="nonzero" fill-opacity="1" /><path clip-path="url(#clip320)" d="M2121.75 188.907 L2121.75 192.934 Q2119.94 192.009 2118 191.546 Q2116.06 191.083 2113.97 191.083 Q2110.8 191.083 2109.2 192.055 Q2107.63 193.027 2107.63 194.971 Q2107.63 196.453 2108.76 197.309 Q2109.9 198.143 2113.32 198.907 L2114.78 199.231 Q2119.32 200.203 2121.22 201.985 Q2123.14 203.745 2123.14 206.916 Q2123.14 210.527 2120.27 212.633 Q2117.42 214.74 2112.42 214.74 Q2110.34 214.74 2108.07 214.323 Q2105.82 213.93 2103.32 213.12 L2103.32 208.721 Q2105.69 209.948 2107.98 210.573 Q2110.27 211.175 2112.51 211.175 Q2115.52 211.175 2117.14 210.157 Q2118.76 209.115 2118.76 207.24 Q2118.76 205.504 2117.58 204.578 Q2116.43 203.652 2112.47 202.796 L2110.99 202.448 Q2107.03 201.615 2105.27 199.902 Q2103.51 198.166 2103.51 195.157 Q2103.51 191.499 2106.1 189.509 Q2108.69 187.518 2113.46 187.518 Q2115.82 187.518 2117.91 187.865 Q2119.99 188.212 2121.75 188.907 Z" fill="#000000" fill-rule="nonzero" fill-opacity="1" /><path clip-path="url(#clip320)" d="M2134.13 180.782 L2134.13 188.143 L2142.91 188.143 L2142.91 191.453 L2134.13 191.453 L2134.13 205.527 Q2134.13 208.698 2134.99 209.601 Q2135.87 210.504 2138.53 210.504 L2142.91 210.504 L2142.91 214.069 L2138.53 214.069 Q2133.6 214.069 2131.73 212.24 Q2129.85 210.388 2129.85 205.527 L2129.85 191.453 L2126.73 191.453 L2126.73 188.143 L2129.85 188.143 L2129.85 180.782 L2134.13 180.782 Z" fill="#000000" fill-rule="nonzero" fill-opacity="1" /><path clip-path="url(#clip320)" d="M2170.68 200.041 L2170.68 202.124 L2151.1 202.124 Q2151.38 206.522 2153.74 208.837 Q2156.12 211.129 2160.36 211.129 Q2162.81 211.129 2165.11 210.527 Q2167.42 209.925 2169.69 208.721 L2169.69 212.749 Q2167.4 213.721 2164.99 214.231 Q2162.58 214.74 2160.11 214.74 Q2153.9 214.74 2150.27 211.129 Q2146.66 207.518 2146.66 201.36 Q2146.66 194.995 2150.08 191.268 Q2153.53 187.518 2159.37 187.518 Q2164.6 187.518 2167.63 190.897 Q2170.68 194.254 2170.68 200.041 M2166.43 198.791 Q2166.38 195.296 2164.46 193.212 Q2162.56 191.129 2159.41 191.129 Q2155.85 191.129 2153.69 193.143 Q2151.56 195.157 2151.24 198.814 L2166.43 198.791 Z" fill="#000000" fill-rule="nonzero" fill-opacity="1" /><path clip-path="url(#clip320)" d="M2192.7 192.124 Q2191.98 191.708 2191.12 191.522 Q2190.29 191.314 2189.27 191.314 Q2185.66 191.314 2183.72 193.675 Q2181.8 196.013 2181.8 200.411 L2181.8 214.069 L2177.51 214.069 L2177.51 188.143 L2181.8 188.143 L2181.8 192.171 Q2183.14 189.809 2185.29 188.675 Q2187.44 187.518 2190.52 187.518 Q2190.96 187.518 2191.49 187.587 Q2192.03 187.634 2192.68 187.749 L2192.7 192.124 Z" fill="#000000" fill-rule="nonzero" fill-opacity="1" /><path clip-path="url(#clip320)" d="M2197.17 188.143 L2201.43 188.143 L2201.43 214.069 L2197.17 214.069 L2197.17 188.143 M2197.17 178.05 L2201.43 178.05 L2201.43 183.444 L2197.17 183.444 L2197.17 178.05 Z" fill="#000000" fill-rule="nonzero" fill-opacity="1" /><path clip-path="url(#clip320)" d="M2220.38 191.129 Q2216.96 191.129 2214.97 193.814 Q2212.98 196.476 2212.98 201.129 Q2212.98 205.782 2214.94 208.467 Q2216.93 211.129 2220.38 211.129 Q2223.79 211.129 2225.78 208.444 Q2227.77 205.758 2227.77 201.129 Q2227.77 196.522 2225.78 193.837 Q2223.79 191.129 2220.38 191.129 M2220.38 187.518 Q2225.94 187.518 2229.11 191.129 Q2232.28 194.74 2232.28 201.129 Q2232.28 207.495 2229.11 211.129 Q2225.94 214.74 2220.38 214.74 Q2214.8 214.74 2211.63 211.129 Q2208.49 207.495 2208.49 201.129 Q2208.49 194.74 2211.63 191.129 Q2214.8 187.518 2220.38 187.518 Z" fill="#000000" fill-rule="nonzero" fill-opacity="1" /><path clip-path="url(#clip320)" d="M2254.36 192.124 Q2253.65 191.708 2252.79 191.522 Q2251.96 191.314 2250.94 191.314 Q2247.33 191.314 2245.38 193.675 Q2243.46 196.013 2243.46 200.411 L2243.46 214.069 L2239.18 214.069 L2239.18 188.143 L2243.46 188.143 L2243.46 192.171 Q2244.8 189.809 2246.96 188.675 Q2249.11 187.518 2252.19 187.518 Q2252.63 187.518 2253.16 187.587 Q2253.69 187.634 2254.34 187.749 L2254.36 192.124 Z" fill="#000000" fill-rule="nonzero" fill-opacity="1" /></svg>
