<?xml version="1.0" encoding="utf-8"?>
<svg xmlns="http://www.w3.org/2000/svg" xmlns:xlink="http://www.w3.org/1999/xlink" width="600" height="400" viewBox="0 0 2400 1600">
<defs>
  <clipPath id="clip340">
    <rect x="0" y="0" width="2400" height="1600"/>
  </clipPath>
</defs>
<path clip-path="url(#clip340)" d="M0 1600 L2400 1600 L2400 0 L0 0  Z" fill="#ffffff" fill-rule="evenodd" fill-opacity="1"/>
<defs>
  <clipPath id="clip341">
    <rect x="480" y="0" width="1681" height="1600"/>
  </clipPath>
</defs>
<path clip-path="url(#clip340)" d="M148.057 1486.45 L2352.76 1486.45 L2352.76 47.2441 L148.057 47.2441  Z" fill="#ffffff" fill-rule="evenodd" fill-opacity="1"/>
<defs>
  <clipPath id="clip342">
    <rect x="148" y="47" width="2206" height="1440"/>
  </clipPath>
</defs>
<polyline clip-path="url(#clip342)" style="stroke:#000000; stroke-linecap:round; stroke-linejoin:round; stroke-width:2; stroke-opacity:0.1; fill:none" points="202.297,1486.45 202.297,47.2441 "/>
<polyline clip-path="url(#clip342)" style="stroke:#000000; stroke-linecap:round; stroke-linejoin:round; stroke-width:2; stroke-opacity:0.1; fill:none" points="528.557,1486.45 528.557,47.2441 "/>
<polyline clip-path="url(#clip342)" style="stroke:#000000; stroke-linecap:round; stroke-linejoin:round; stroke-width:2; stroke-opacity:0.1; fill:none" points="854.816,1486.45 854.816,47.2441 "/>
<polyline clip-path="url(#clip342)" style="stroke:#000000; stroke-linecap:round; stroke-linejoin:round; stroke-width:2; stroke-opacity:0.1; fill:none" points="1181.08,1486.45 1181.08,47.2441 "/>
<polyline clip-path="url(#clip342)" style="stroke:#000000; stroke-linecap:round; stroke-linejoin:round; stroke-width:2; stroke-opacity:0.1; fill:none" points="1507.34,1486.45 1507.34,47.2441 "/>
<polyline clip-path="url(#clip342)" style="stroke:#000000; stroke-linecap:round; stroke-linejoin:round; stroke-width:2; stroke-opacity:0.1; fill:none" points="1833.6,1486.45 1833.6,47.2441 "/>
<polyline clip-path="url(#clip342)" style="stroke:#000000; stroke-linecap:round; stroke-linejoin:round; stroke-width:2; stroke-opacity:0.1; fill:none" points="2159.85,1486.45 2159.85,47.2441 "/>
<polyline clip-path="url(#clip342)" style="stroke:#000000; stroke-linecap:round; stroke-linejoin:round; stroke-width:2; stroke-opacity:0.1; fill:none" points="148.057,1351.42 2352.76,1351.42 "/>
<polyline clip-path="url(#clip342)" style="stroke:#000000; stroke-linecap:round; stroke-linejoin:round; stroke-width:2; stroke-opacity:0.1; fill:none" points="148.057,1145.41 2352.76,1145.41 "/>
<polyline clip-path="url(#clip342)" style="stroke:#000000; stroke-linecap:round; stroke-linejoin:round; stroke-width:2; stroke-opacity:0.1; fill:none" points="148.057,939.404 2352.76,939.404 "/>
<polyline clip-path="url(#clip342)" style="stroke:#000000; stroke-linecap:round; stroke-linejoin:round; stroke-width:2; stroke-opacity:0.1; fill:none" points="148.057,733.395 2352.76,733.395 "/>
<polyline clip-path="url(#clip342)" style="stroke:#000000; stroke-linecap:round; stroke-linejoin:round; stroke-width:2; stroke-opacity:0.1; fill:none" points="148.057,527.387 2352.76,527.387 "/>
<polyline clip-path="url(#clip342)" style="stroke:#000000; stroke-linecap:round; stroke-linejoin:round; stroke-width:2; stroke-opacity:0.1; fill:none" points="148.057,321.379 2352.76,321.379 "/>
<polyline clip-path="url(#clip342)" style="stroke:#000000; stroke-linecap:round; stroke-linejoin:round; stroke-width:2; stroke-opacity:0.1; fill:none" points="148.057,115.371 2352.76,115.371 "/>
<polyline clip-path="url(#clip340)" style="stroke:#000000; stroke-linecap:round; stroke-linejoin:round; stroke-width:4; stroke-opacity:1; fill:none" points="148.057,1486.45 2352.76,1486.45 "/>
<polyline clip-path="url(#clip340)" style="stroke:#000000; stroke-linecap:round; stroke-linejoin:round; stroke-width:4; stroke-opacity:1; fill:none" points="202.297,1486.45 202.297,1467.55 "/>
<polyline clip-path="url(#clip340)" style="stroke:#000000; stroke-linecap:round; stroke-linejoin:round; stroke-width:4; stroke-opacity:1; fill:none" points="528.557,1486.45 528.557,1467.55 "/>
<polyline clip-path="url(#clip340)" style="stroke:#000000; stroke-linecap:round; stroke-linejoin:round; stroke-width:4; stroke-opacity:1; fill:none" points="854.816,1486.45 854.816,1467.55 "/>
<polyline clip-path="url(#clip340)" style="stroke:#000000; stroke-linecap:round; stroke-linejoin:round; stroke-width:4; stroke-opacity:1; fill:none" points="1181.08,1486.45 1181.08,1467.55 "/>
<polyline clip-path="url(#clip340)" style="stroke:#000000; stroke-linecap:round; stroke-linejoin:round; stroke-width:4; stroke-opacity:1; fill:none" points="1507.34,1486.45 1507.34,1467.55 "/>
<polyline clip-path="url(#clip340)" style="stroke:#000000; stroke-linecap:round; stroke-linejoin:round; stroke-width:4; stroke-opacity:1; fill:none" points="1833.6,1486.45 1833.6,1467.55 "/>
<polyline clip-path="url(#clip340)" style="stroke:#000000; stroke-linecap:round; stroke-linejoin:round; stroke-width:4; stroke-opacity:1; fill:none" points="2159.85,1486.45 2159.85,1467.55 "/>
<path clip-path="url(#clip340)" d="M202.297 1517.37 Q198.686 1517.37 196.857 1520.93 Q195.052 1524.47 195.052 1531.6 Q195.052 1538.71 196.857 1542.27 Q198.686 1545.82 202.297 1545.82 Q205.932 1545.82 207.737 1542.27 Q209.566 1538.71 209.566 1531.6 Q209.566 1524.47 207.737 1520.93 Q205.932 1517.37 202.297 1517.37 M202.297 1513.66 Q208.107 1513.66 211.163 1518.27 Q214.242 1522.85 214.242 1531.6 Q214.242 1540.33 211.163 1544.94 Q208.107 1549.52 202.297 1549.52 Q196.487 1549.52 193.408 1544.94 Q190.353 1540.33 190.353 1531.6 Q190.353 1522.85 193.408 1518.27 Q196.487 1513.66 202.297 1513.66 Z" fill="#000000" fill-rule="nonzero" fill-opacity="1" /><path clip-path="url(#clip340)" d="M503.245 1544.91 L510.883 1544.91 L510.883 1518.55 L502.573 1520.21 L502.573 1515.95 L510.837 1514.29 L515.513 1514.29 L515.513 1544.91 L523.152 1544.91 L523.152 1548.85 L503.245 1548.85 L503.245 1544.91 Z" fill="#000000" fill-rule="nonzero" fill-opacity="1" /><path clip-path="url(#clip340)" d="M542.596 1517.37 Q538.985 1517.37 537.156 1520.93 Q535.351 1524.47 535.351 1531.6 Q535.351 1538.71 537.156 1542.27 Q538.985 1545.82 542.596 1545.82 Q546.23 1545.82 548.036 1542.27 Q549.865 1538.71 549.865 1531.6 Q549.865 1524.47 548.036 1520.93 Q546.23 1517.37 542.596 1517.37 M542.596 1513.66 Q548.406 1513.66 551.462 1518.27 Q554.541 1522.85 554.541 1531.6 Q554.541 1540.33 551.462 1544.94 Q548.406 1549.52 542.596 1549.52 Q536.786 1549.52 533.707 1544.94 Q530.652 1540.33 530.652 1531.6 Q530.652 1522.85 533.707 1518.27 Q536.786 1513.66 542.596 1513.66 Z" fill="#000000" fill-rule="nonzero" fill-opacity="1" /><path clip-path="url(#clip340)" d="M833.59 1544.91 L849.909 1544.91 L849.909 1548.85 L827.965 1548.85 L827.965 1544.91 Q830.627 1542.16 835.21 1537.53 Q839.817 1532.88 840.997 1531.53 Q843.242 1529.01 844.122 1527.27 Q845.025 1525.51 845.025 1523.82 Q845.025 1521.07 843.08 1519.33 Q841.159 1517.6 838.057 1517.6 Q835.858 1517.6 833.405 1518.36 Q830.974 1519.13 828.196 1520.68 L828.196 1515.95 Q831.02 1514.82 833.474 1514.24 Q835.928 1513.66 837.965 1513.66 Q843.335 1513.66 846.529 1516.35 Q849.724 1519.03 849.724 1523.52 Q849.724 1525.65 848.914 1527.57 Q848.127 1529.47 846.02 1532.07 Q845.442 1532.74 842.34 1535.95 Q839.238 1539.15 833.59 1544.91 Z" fill="#000000" fill-rule="nonzero" fill-opacity="1" /><path clip-path="url(#clip340)" d="M869.724 1517.37 Q866.113 1517.37 864.284 1520.93 Q862.478 1524.47 862.478 1531.6 Q862.478 1538.71 864.284 1542.27 Q866.113 1545.82 869.724 1545.82 Q873.358 1545.82 875.164 1542.27 Q876.992 1538.71 876.992 1531.6 Q876.992 1524.47 875.164 1520.93 Q873.358 1517.37 869.724 1517.37 M869.724 1513.66 Q875.534 1513.66 878.59 1518.27 Q881.668 1522.85 881.668 1531.6 Q881.668 1540.33 878.59 1544.94 Q875.534 1549.52 869.724 1549.52 Q863.914 1549.52 860.835 1544.94 Q857.779 1540.33 857.779 1531.6 Q857.779 1522.85 860.835 1518.27 Q863.914 1513.66 869.724 1513.66 Z" fill="#000000" fill-rule="nonzero" fill-opacity="1" /><path clip-path="url(#clip340)" d="M1169.92 1530.21 Q1173.28 1530.93 1175.15 1533.2 Q1177.05 1535.47 1177.05 1538.8 Q1177.05 1543.92 1173.53 1546.72 Q1170.01 1549.52 1163.53 1549.52 Q1161.35 1549.52 1159.04 1549.08 Q1156.75 1548.66 1154.29 1547.81 L1154.29 1543.29 Q1156.24 1544.43 1158.55 1545.01 Q1160.87 1545.58 1163.39 1545.58 Q1167.79 1545.58 1170.08 1543.85 Q1172.4 1542.11 1172.4 1538.8 Q1172.4 1535.75 1170.24 1534.03 Q1168.11 1532.3 1164.29 1532.3 L1160.27 1532.3 L1160.27 1528.45 L1164.48 1528.45 Q1167.93 1528.45 1169.76 1527.09 Q1171.59 1525.7 1171.59 1523.11 Q1171.59 1520.45 1169.69 1519.03 Q1167.81 1517.6 1164.29 1517.6 Q1162.37 1517.6 1160.17 1518.01 Q1157.97 1518.43 1155.34 1519.31 L1155.34 1515.14 Q1158 1514.4 1160.31 1514.03 Q1162.65 1513.66 1164.71 1513.66 Q1170.03 1513.66 1173.14 1516.09 Q1176.24 1518.5 1176.24 1522.62 Q1176.24 1525.49 1174.59 1527.48 Q1172.95 1529.45 1169.92 1530.21 Z" fill="#000000" fill-rule="nonzero" fill-opacity="1" /><path clip-path="url(#clip340)" d="M1195.91 1517.37 Q1192.3 1517.37 1190.47 1520.93 Q1188.67 1524.47 1188.67 1531.6 Q1188.67 1538.71 1190.47 1542.27 Q1192.3 1545.82 1195.91 1545.82 Q1199.55 1545.82 1201.35 1542.27 Q1203.18 1538.71 1203.18 1531.6 Q1203.18 1524.47 1201.35 1520.93 Q1199.55 1517.37 1195.91 1517.37 M1195.91 1513.66 Q1201.72 1513.66 1204.78 1518.27 Q1207.86 1522.85 1207.86 1531.6 Q1207.86 1540.33 1204.78 1544.94 Q1201.72 1549.52 1195.91 1549.52 Q1190.1 1549.52 1187.03 1544.94 Q1183.97 1540.33 1183.97 1531.6 Q1183.97 1522.85 1187.03 1518.27 Q1190.1 1513.66 1195.91 1513.66 Z" fill="#000000" fill-rule="nonzero" fill-opacity="1" /><path clip-path="url(#clip340)" d="M1495.51 1518.36 L1483.7 1536.81 L1495.51 1536.81 L1495.51 1518.36 M1494.28 1514.29 L1500.16 1514.29 L1500.16 1536.81 L1505.09 1536.81 L1505.09 1540.7 L1500.16 1540.7 L1500.16 1548.85 L1495.51 1548.85 L1495.51 1540.7 L1479.91 1540.7 L1479.91 1536.19 L1494.28 1514.29 Z" fill="#000000" fill-rule="nonzero" fill-opacity="1" /><path clip-path="url(#clip340)" d="M1522.82 1517.37 Q1519.21 1517.37 1517.38 1520.93 Q1515.58 1524.47 1515.58 1531.6 Q1515.58 1538.71 1517.38 1542.27 Q1519.21 1545.82 1522.82 1545.82 Q1526.46 1545.82 1528.26 1542.27 Q1530.09 1538.71 1530.09 1531.6 Q1530.09 1524.47 1528.26 1520.93 Q1526.46 1517.37 1522.82 1517.37 M1522.82 1513.66 Q1528.63 1513.66 1531.69 1518.27 Q1534.77 1522.85 1534.77 1531.6 Q1534.77 1540.33 1531.69 1544.94 Q1528.63 1549.52 1522.82 1549.52 Q1517.01 1549.52 1513.93 1544.94 Q1510.88 1540.33 1510.88 1531.6 Q1510.88 1522.85 1513.93 1518.27 Q1517.01 1513.66 1522.82 1513.66 Z" fill="#000000" fill-rule="nonzero" fill-opacity="1" /><path clip-path="url(#clip340)" d="M1808.29 1514.29 L1826.65 1514.29 L1826.65 1518.22 L1812.58 1518.22 L1812.58 1526.7 Q1813.6 1526.35 1814.61 1526.19 Q1815.63 1526 1816.65 1526 Q1822.44 1526 1825.82 1529.17 Q1829.2 1532.34 1829.2 1537.76 Q1829.2 1543.34 1825.72 1546.44 Q1822.25 1549.52 1815.93 1549.52 Q1813.76 1549.52 1811.49 1549.15 Q1809.24 1548.78 1806.84 1548.04 L1806.84 1543.34 Q1808.92 1544.47 1811.14 1545.03 Q1813.36 1545.58 1815.84 1545.58 Q1819.85 1545.58 1822.18 1543.48 Q1824.52 1541.37 1824.52 1537.76 Q1824.52 1534.15 1822.18 1532.04 Q1819.85 1529.94 1815.84 1529.94 Q1813.97 1529.94 1812.09 1530.35 Q1810.24 1530.77 1808.29 1531.65 L1808.29 1514.29 Z" fill="#000000" fill-rule="nonzero" fill-opacity="1" /><path clip-path="url(#clip340)" d="M1848.41 1517.37 Q1844.8 1517.37 1842.97 1520.93 Q1841.16 1524.47 1841.16 1531.6 Q1841.16 1538.71 1842.97 1542.27 Q1844.8 1545.82 1848.41 1545.82 Q1852.04 1545.82 1853.85 1542.27 Q1855.68 1538.71 1855.68 1531.6 Q1855.68 1524.47 1853.85 1520.93 Q1852.04 1517.37 1848.41 1517.37 M1848.41 1513.66 Q1854.22 1513.66 1857.28 1518.27 Q1860.35 1522.85 1860.35 1531.6 Q1860.35 1540.33 1857.28 1544.94 Q1854.22 1549.52 1848.41 1549.52 Q1842.6 1549.52 1839.52 1544.94 Q1836.47 1540.33 1836.47 1531.6 Q1836.47 1522.85 1839.52 1518.27 Q1842.6 1513.66 1848.41 1513.66 Z" fill="#000000" fill-rule="nonzero" fill-opacity="1" /><path clip-path="url(#clip340)" d="M2145.26 1529.7 Q2142.11 1529.7 2140.26 1531.86 Q2138.43 1534.01 2138.43 1537.76 Q2138.43 1541.49 2140.26 1543.66 Q2142.11 1545.82 2145.26 1545.82 Q2148.41 1545.82 2150.24 1543.66 Q2152.09 1541.49 2152.09 1537.76 Q2152.09 1534.01 2150.24 1531.86 Q2148.41 1529.7 2145.26 1529.7 M2154.54 1515.05 L2154.54 1519.31 Q2152.78 1518.48 2150.98 1518.04 Q2149.2 1517.6 2147.44 1517.6 Q2142.81 1517.6 2140.35 1520.72 Q2137.92 1523.85 2137.57 1530.17 Q2138.94 1528.15 2141 1527.09 Q2143.06 1526 2145.54 1526 Q2150.75 1526 2153.76 1529.17 Q2156.79 1532.32 2156.79 1537.76 Q2156.79 1543.08 2153.64 1546.3 Q2150.49 1549.52 2145.26 1549.52 Q2139.26 1549.52 2136.09 1544.94 Q2132.92 1540.33 2132.92 1531.6 Q2132.92 1523.41 2136.81 1518.55 Q2140.7 1513.66 2147.25 1513.66 Q2149.01 1513.66 2150.79 1514.01 Q2152.6 1514.36 2154.54 1515.05 Z" fill="#000000" fill-rule="nonzero" fill-opacity="1" /><path clip-path="url(#clip340)" d="M2174.84 1517.37 Q2171.23 1517.37 2169.4 1520.93 Q2167.6 1524.47 2167.6 1531.6 Q2167.6 1538.71 2169.4 1542.27 Q2171.23 1545.82 2174.84 1545.82 Q2178.48 1545.82 2180.28 1542.27 Q2182.11 1538.71 2182.11 1531.6 Q2182.11 1524.47 2180.28 1520.93 Q2178.48 1517.37 2174.84 1517.37 M2174.84 1513.66 Q2180.65 1513.66 2183.71 1518.27 Q2186.79 1522.85 2186.79 1531.6 Q2186.79 1540.33 2183.71 1544.94 Q2180.65 1549.52 2174.84 1549.52 Q2169.03 1549.52 2165.95 1544.94 Q2162.9 1540.33 2162.9 1531.6 Q2162.9 1522.85 2165.95 1518.27 Q2169.03 1513.66 2174.84 1513.66 Z" fill="#000000" fill-rule="nonzero" fill-opacity="1" /><polyline clip-path="url(#clip340)" style="stroke:#000000; stroke-linecap:round; stroke-linejoin:round; stroke-width:4; stroke-opacity:1; fill:none" points="148.057,1486.45 148.057,47.2441 "/>
<polyline clip-path="url(#clip340)" style="stroke:#000000; stroke-linecap:round; stroke-linejoin:round; stroke-width:4; stroke-opacity:1; fill:none" points="148.057,1351.42 166.954,1351.42 "/>
<polyline clip-path="url(#clip340)" style="stroke:#000000; stroke-linecap:round; stroke-linejoin:round; stroke-width:4; stroke-opacity:1; fill:none" points="148.057,1145.41 166.954,1145.41 "/>
<polyline clip-path="url(#clip340)" style="stroke:#000000; stroke-linecap:round; stroke-linejoin:round; stroke-width:4; stroke-opacity:1; fill:none" points="148.057,939.404 166.954,939.404 "/>
<polyline clip-path="url(#clip340)" style="stroke:#000000; stroke-linecap:round; stroke-linejoin:round; stroke-width:4; stroke-opacity:1; fill:none" points="148.057,733.395 166.954,733.395 "/>
<polyline clip-path="url(#clip340)" style="stroke:#000000; stroke-linecap:round; stroke-linejoin:round; stroke-width:4; stroke-opacity:1; fill:none" points="148.057,527.387 166.954,527.387 "/>
<polyline clip-path="url(#clip340)" style="stroke:#000000; stroke-linecap:round; stroke-linejoin:round; stroke-width:4; stroke-opacity:1; fill:none" points="148.057,321.379 166.954,321.379 "/>
<polyline clip-path="url(#clip340)" style="stroke:#000000; stroke-linecap:round; stroke-linejoin:round; stroke-width:4; stroke-opacity:1; fill:none" points="148.057,115.371 166.954,115.371 "/>
<path clip-path="url(#clip340)" d="M50.9921 1351.87 L80.6679 1351.87 L80.6679 1355.81 L50.9921 1355.81 L50.9921 1351.87 Z" fill="#000000" fill-rule="nonzero" fill-opacity="1" /><path clip-path="url(#clip340)" d="M104.927 1350.07 Q108.283 1350.78 110.158 1353.05 Q112.057 1355.32 112.057 1358.65 Q112.057 1363.77 108.538 1366.57 Q105.02 1369.37 98.5382 1369.37 Q96.3623 1369.37 94.0475 1368.93 Q91.7558 1368.51 89.3021 1367.66 L89.3021 1363.14 Q91.2465 1364.28 93.5613 1364.86 Q95.8761 1365.44 98.3993 1365.44 Q102.797 1365.44 105.089 1363.7 Q107.404 1361.96 107.404 1358.65 Q107.404 1355.6 105.251 1353.89 Q103.121 1352.15 99.3021 1352.15 L95.2743 1352.15 L95.2743 1348.31 L99.4872 1348.31 Q102.936 1348.31 104.765 1346.94 Q106.594 1345.55 106.594 1342.96 Q106.594 1340.3 104.696 1338.89 Q102.821 1337.45 99.3021 1337.45 Q97.3808 1337.45 95.1817 1337.87 Q92.9826 1338.28 90.3438 1339.16 L90.3438 1335 Q93.0058 1334.26 95.3206 1333.89 Q97.6585 1333.52 99.7187 1333.52 Q105.043 1333.52 108.145 1335.95 Q111.246 1338.35 111.246 1342.47 Q111.246 1345.34 109.603 1347.33 Q107.959 1349.3 104.927 1350.07 Z" fill="#000000" fill-rule="nonzero" fill-opacity="1" /><path clip-path="url(#clip340)" d="M51.9412 1145.86 L81.617 1145.86 L81.617 1149.8 L51.9412 1149.8 L51.9412 1145.86 Z" fill="#000000" fill-rule="nonzero" fill-opacity="1" /><path clip-path="url(#clip340)" d="M95.7373 1158.76 L112.057 1158.76 L112.057 1162.69 L90.1123 1162.69 L90.1123 1158.76 Q92.7743 1156 97.3576 1151.37 Q101.964 1146.72 103.145 1145.38 Q105.39 1142.85 106.27 1141.12 Q107.172 1139.36 107.172 1137.67 Q107.172 1134.91 105.228 1133.18 Q103.307 1131.44 100.205 1131.44 Q98.0058 1131.44 95.5521 1132.21 Q93.1215 1132.97 90.3438 1134.52 L90.3438 1129.8 Q93.1678 1128.66 95.6215 1128.09 Q98.0752 1127.51 100.112 1127.51 Q105.483 1127.51 108.677 1130.19 Q111.871 1132.88 111.871 1137.37 Q111.871 1139.5 111.061 1141.42 Q110.274 1143.32 108.168 1145.91 Q107.589 1146.58 104.487 1149.8 Q101.385 1152.99 95.7373 1158.76 Z" fill="#000000" fill-rule="nonzero" fill-opacity="1" /><path clip-path="url(#clip340)" d="M51.5708 939.855 L81.2466 939.855 L81.2466 943.79 L51.5708 943.79 L51.5708 939.855 Z" fill="#000000" fill-rule="nonzero" fill-opacity="1" /><path clip-path="url(#clip340)" d="M92.1493 952.748 L99.7882 952.748 L99.7882 926.383 L91.478 928.049 L91.478 923.79 L99.7419 922.124 L104.418 922.124 L104.418 952.748 L112.057 952.748 L112.057 956.684 L92.1493 956.684 L92.1493 952.748 Z" fill="#000000" fill-rule="nonzero" fill-opacity="1" /><path clip-path="url(#clip340)" d="M100.112 719.194 Q96.5011 719.194 94.6724 722.759 Q92.8669 726.3 92.8669 733.43 Q92.8669 740.536 94.6724 744.101 Q96.5011 747.643 100.112 747.643 Q103.746 747.643 105.552 744.101 Q107.381 740.536 107.381 733.43 Q107.381 726.3 105.552 722.759 Q103.746 719.194 100.112 719.194 M100.112 715.49 Q105.922 715.49 108.978 720.097 Q112.057 724.68 112.057 733.43 Q112.057 742.157 108.978 746.763 Q105.922 751.347 100.112 751.347 Q94.3021 751.347 91.2234 746.763 Q88.1679 742.157 88.1679 733.43 Q88.1679 724.68 91.2234 720.097 Q94.3021 715.49 100.112 715.49 Z" fill="#000000" fill-rule="nonzero" fill-opacity="1" /><path clip-path="url(#clip340)" d="M92.1493 540.732 L99.7882 540.732 L99.7882 514.366 L91.478 516.033 L91.478 511.774 L99.7419 510.107 L104.418 510.107 L104.418 540.732 L112.057 540.732 L112.057 544.667 L92.1493 544.667 L92.1493 540.732 Z" fill="#000000" fill-rule="nonzero" fill-opacity="1" /><path clip-path="url(#clip340)" d="M95.7373 334.724 L112.057 334.724 L112.057 338.659 L90.1123 338.659 L90.1123 334.724 Q92.7743 331.969 97.3576 327.339 Q101.964 322.687 103.145 321.344 Q105.39 318.821 106.27 317.085 Q107.172 315.326 107.172 313.636 Q107.172 310.881 105.228 309.145 Q103.307 307.409 100.205 307.409 Q98.0058 307.409 95.5521 308.173 Q93.1215 308.937 90.3438 310.488 L90.3438 305.765 Q93.1678 304.631 95.6215 304.053 Q98.0752 303.474 100.112 303.474 Q105.483 303.474 108.677 306.159 Q111.871 308.844 111.871 313.335 Q111.871 315.465 111.061 317.386 Q110.274 319.284 108.168 321.877 Q107.589 322.548 104.487 325.765 Q101.385 328.96 95.7373 334.724 Z" fill="#000000" fill-rule="nonzero" fill-opacity="1" /><path clip-path="url(#clip340)" d="M104.927 114.016 Q108.283 114.734 110.158 117.003 Q112.057 119.271 112.057 122.604 Q112.057 127.72 108.538 130.521 Q105.02 133.322 98.5382 133.322 Q96.3623 133.322 94.0475 132.882 Q91.7558 132.465 89.3021 131.609 L89.3021 127.095 Q91.2465 128.229 93.5613 128.808 Q95.8761 129.387 98.3993 129.387 Q102.797 129.387 105.089 127.651 Q107.404 125.915 107.404 122.604 Q107.404 119.549 105.251 117.836 Q103.121 116.1 99.3021 116.1 L95.2743 116.1 L95.2743 112.257 L99.4872 112.257 Q102.936 112.257 104.765 110.891 Q106.594 109.503 106.594 106.91 Q106.594 104.248 104.696 102.836 Q102.821 101.401 99.3021 101.401 Q97.3808 101.401 95.1817 101.817 Q92.9826 102.234 90.3438 103.114 L90.3438 98.9471 Q93.0058 98.2063 95.3206 97.836 Q97.6585 97.4656 99.7187 97.4656 Q105.043 97.4656 108.145 99.8961 Q111.246 102.304 111.246 106.424 Q111.246 109.294 109.603 111.285 Q107.959 113.253 104.927 114.016 Z" fill="#000000" fill-rule="nonzero" fill-opacity="1" /><polyline clip-path="url(#clip342)" style="stroke:#009af9; stroke-linecap:round; stroke-linejoin:round; stroke-width:4; stroke-opacity:1; fill:none" points="210.454,545.637 218.61,488.834 226.767,655.116 234.923,599.268 243.08,478.819 251.236,554.266 259.393,522.982 267.549,536.706 275.706,653.663 283.862,718.434 292.019,733.142 300.175,971.115 308.332,1094.36 316.488,898.661 324.645,691.716 332.801,671.237 340.958,724.097 349.114,859.935 357.271,998.755 365.427,954.218 373.584,769.401 381.74,715.063 389.897,777.281 398.053,576.933 406.21,411.053 414.366,417.363 422.523,661.16 430.679,843.367 438.835,708.655 446.992,588.719 455.148,670.147 463.305,952.815 471.461,1034.98 479.618,780.249 487.774,622.196 495.931,508.872 504.087,544.995 512.244,455.52 520.4,591.857 528.557,996.573 536.713,936.178 544.87,598.454 553.026,519.159 561.183,729.238 569.339,704.985 577.496,791.62 585.652,1097.94 593.809,1260.43 601.965,1147.94 610.122,1023.48 618.278,836.468 626.435,672.774 634.591,677.605 642.748,601.524 650.904,590.634 659.061,602.358 667.217,513.232 675.374,355.314 683.53,410.097 691.687,637.783 699.843,809 708,753.706 716.156,658.656 724.313,632.269 732.469,689.922 740.626,919.44 748.782,989.767 756.939,794.162 765.095,736.808 773.252,899.536 781.408,802.473 789.565,850.577 797.721,859.206 805.878,709.501 814.034,596.284 822.191,592.884 830.347,822.673 838.504,1026.01 846.66,840.739 854.816,871.724 862.973,1193.68 871.129,942.985 879.286,601.927 887.442,590.625 895.599,572.51 903.755,583.436 911.912,690.086 920.068,696.475 928.225,755.813 936.381,713.752 944.538,524.772 952.694,624.162 960.851,533.502 969.007,317.08 977.164,485.063 985.32,775.145 993.477,864.748 1001.63,826.486 1009.79,890.933 1017.95,872.079 1026.1,686.754 1034.26,513.948 1042.42,334.02 1050.57,343.061 1058.73,598.435 1066.89,893.56 1075.04,1036.47 1083.2,932.506 1091.35,712.511 1099.51,659.327 1107.67,960.346 1115.82,1199.6 1123.98,989.266 1132.14,603.568 1140.29,402.587 1148.45,628.284 1156.61,794.229 1164.76,645.671 1172.92,439.017 1181.08,457.05 1189.23,652.534 1197.39,914.86 1205.55,1106.05 1213.7,1021.94 1221.86,975.12 1230.02,1044.31 1238.17,1093.04 1246.33,1053 1254.48,645.779 1262.64,369.726 1270.8,436.851 1278.95,668.495 1287.11,695.159 1295.27,682.325 1303.42,929.431 1311.58,802.778 1319.74,604.957 1327.89,734.155 1336.05,911.105 1344.21,1017.98 1352.36,793.565 1360.52,326.613 1368.68,87.9763 1376.83,390.445 1384.99,812.338 1393.14,895.327 1401.3,807.007 1409.46,784.336 1417.61,830.162 1425.77,849.968 1433.93,732.473 1442.08,585.627 1450.24,797.25 1458.4,780.675 1466.55,612.737 1474.71,620.313 1482.87,758.354 1491.02,761.811 1499.18,650.862 1507.34,606.766 1515.49,534.782 1523.65,706.355 1531.81,1153.96 1539.96,1387.42 1548.12,1181.68 1556.27,811.807 1564.43,620.69 1572.59,497.712 1580.74,487.2 1588.9,782.156 1597.06,957.727 1605.21,887.979 1613.37,702.705 1621.53,474.069 1629.68,420.296 1637.84,571.343 1646,780.422 1654.15,869.025 1662.31,791.441 1670.47,765.446 1678.62,768.658 1686.78,791.144 1694.93,605.591 1703.09,611.48 1711.25,711.111 1719.4,768.169 1727.56,890.331 1735.72,971.732 1743.87,822.848 1752.03,635.26 1760.19,463.92 1768.34,485.619 1776.5,710.242 1784.66,867.114 1792.81,728.122 1800.97,535.05 1809.13,592.903 1817.28,782.161 1825.44,708.178 1833.6,595.794 1841.75,684.37 1849.91,767.055 1858.06,762.537 1866.22,576.622 1874.38,535.492 1882.53,786.935 1890.69,865.592 1898.85,841.711 1907,866.268 1915.16,755.803 1923.32,790.821 1931.47,717.182 1939.63,741.823 1947.79,793.115 1955.94,628.245 1964.1,496.952 1972.26,397.949 1980.41,502.634 1988.57,724.527 1996.73,656.416 2004.88,503.357 2013.04,591.224 2021.19,719.414 2029.35,811.245 2037.51,799.249 2045.66,823.727 2053.82,782.11 2061.98,524.79 2070.13,590.965 2078.29,685.911 2086.45,787.375 2094.6,1173.01 2102.76,1445.72 2110.92,1289.93 2119.07,915.668 2127.23,637.427 2135.39,527.518 2143.54,414.8 2151.7,386.369 2159.85,639.71 2168.01,868.662 2176.17,832.043 2184.32,819.811 2192.48,801.722 2200.64,871.886 2208.79,830.766 2216.95,637.095 2225.11,459.578 2233.26,553.131 2241.42,615.493 2249.58,738.042 2257.73,1021.65 2265.89,1155.85 2274.05,1095.22 2282.2,1012.75 2290.36,793.914 "/>
<path clip-path="url(#clip340)" d="M221.547 198.898 L575.233 198.898 L575.233 95.2176 L221.547 95.2176  Z" fill="#ffffff" fill-rule="evenodd" fill-opacity="1"/>
<polyline clip-path="url(#clip340)" style="stroke:#000000; stroke-linecap:round; stroke-linejoin:round; stroke-width:4; stroke-opacity:1; fill:none" points="221.547,198.898 575.233,198.898 575.233,95.2176 221.547,95.2176 221.547,198.898 "/>
<polyline clip-path="url(#clip340)" style="stroke:#009af9; stroke-linecap:round; stroke-linejoin:round; stroke-width:4; stroke-opacity:1; fill:none" points="246.043,147.058 393.023,147.058 "/>
<path clip-path="url(#clip340)" d="M435.946 139.176 L435.946 143.203 Q434.14 142.277 432.196 141.815 Q430.251 141.352 428.168 141.352 Q424.997 141.352 423.399 142.324 Q421.825 143.296 421.825 145.24 Q421.825 146.722 422.96 147.578 Q424.094 148.412 427.52 149.176 L428.978 149.5 Q433.515 150.472 435.413 152.254 Q437.335 154.014 437.335 157.185 Q437.335 160.796 434.464 162.902 Q431.617 165.009 426.617 165.009 Q424.534 165.009 422.265 164.592 Q420.02 164.199 417.52 163.388 L417.52 158.99 Q419.881 160.217 422.173 160.842 Q424.464 161.444 426.71 161.444 Q429.719 161.444 431.339 160.426 Q432.96 159.384 432.96 157.509 Q432.96 155.773 431.779 154.847 Q430.622 153.921 426.663 153.064 L425.182 152.717 Q421.224 151.884 419.464 150.171 Q417.705 148.435 417.705 145.426 Q417.705 141.768 420.298 139.778 Q422.89 137.787 427.659 137.787 Q430.02 137.787 432.103 138.134 Q434.186 138.481 435.946 139.176 Z" fill="#000000" fill-rule="nonzero" fill-opacity="1" /><path clip-path="url(#clip340)" d="M444.117 138.412 L448.376 138.412 L448.376 164.338 L444.117 164.338 L444.117 138.412 M444.117 128.319 L448.376 128.319 L448.376 133.713 L444.117 133.713 L444.117 128.319 Z" fill="#000000" fill-rule="nonzero" fill-opacity="1" /><path clip-path="url(#clip340)" d="M474.348 151.074 Q474.348 146.444 472.427 143.898 Q470.529 141.352 467.08 141.352 Q463.654 141.352 461.733 143.898 Q459.834 146.444 459.834 151.074 Q459.834 155.68 461.733 158.226 Q463.654 160.773 467.08 160.773 Q470.529 160.773 472.427 158.226 Q474.348 155.68 474.348 151.074 M478.607 161.12 Q478.607 167.74 475.668 170.958 Q472.728 174.199 466.663 174.199 Q464.418 174.199 462.427 173.851 Q460.436 173.527 458.561 172.833 L458.561 168.689 Q460.436 169.708 462.265 170.194 Q464.094 170.68 465.992 170.68 Q470.182 170.68 472.265 168.481 Q474.348 166.305 474.348 161.884 L474.348 159.777 Q473.029 162.069 470.969 163.203 Q468.908 164.338 466.038 164.338 Q461.27 164.338 458.353 160.703 Q455.436 157.069 455.436 151.074 Q455.436 145.055 458.353 141.421 Q461.27 137.787 466.038 137.787 Q468.908 137.787 470.969 138.921 Q473.029 140.055 474.348 142.347 L474.348 138.412 L478.607 138.412 L478.607 161.12 Z" fill="#000000" fill-rule="nonzero" fill-opacity="1" /><path clip-path="url(#clip340)" d="M508.931 148.689 L508.931 164.338 L504.672 164.338 L504.672 148.828 Q504.672 145.148 503.237 143.319 Q501.802 141.49 498.931 141.49 Q495.482 141.49 493.492 143.69 Q491.501 145.889 491.501 149.685 L491.501 164.338 L487.219 164.338 L487.219 138.412 L491.501 138.412 L491.501 142.44 Q493.029 140.102 495.089 138.944 Q497.172 137.787 499.881 137.787 Q504.348 137.787 506.64 140.565 Q508.931 143.319 508.931 148.689 Z" fill="#000000" fill-rule="nonzero" fill-opacity="1" /><path clip-path="url(#clip340)" d="M529.209 151.305 Q524.047 151.305 522.056 152.486 Q520.066 153.666 520.066 156.514 Q520.066 158.782 521.547 160.125 Q523.052 161.444 525.621 161.444 Q529.163 161.444 531.292 158.944 Q533.445 156.421 533.445 152.254 L533.445 151.305 L529.209 151.305 M537.704 149.546 L537.704 164.338 L533.445 164.338 L533.445 160.402 Q531.987 162.763 529.811 163.898 Q527.635 165.009 524.487 165.009 Q520.505 165.009 518.144 162.787 Q515.806 160.541 515.806 156.791 Q515.806 152.416 518.723 150.194 Q521.663 147.972 527.473 147.972 L533.445 147.972 L533.445 147.555 Q533.445 144.615 531.501 143.018 Q529.579 141.398 526.084 141.398 Q523.862 141.398 521.755 141.93 Q519.649 142.463 517.705 143.527 L517.705 139.592 Q520.042 138.69 522.242 138.25 Q524.441 137.787 526.524 137.787 Q532.149 137.787 534.927 140.703 Q537.704 143.62 537.704 149.546 Z" fill="#000000" fill-rule="nonzero" fill-opacity="1" /><path clip-path="url(#clip340)" d="M546.478 128.319 L550.737 128.319 L550.737 164.338 L546.478 164.338 L546.478 128.319 Z" fill="#000000" fill-rule="nonzero" fill-opacity="1" /></svg>
