<?xml version="1.0" encoding="utf-8"?>
<svg xmlns="http://www.w3.org/2000/svg" xmlns:xlink="http://www.w3.org/1999/xlink" width="600" height="400" viewBox="0 0 2400 1600">
<defs>
  <clipPath id="clip290">
    <rect x="0" y="0" width="2400" height="1600"/>
  </clipPath>
</defs>
<path clip-path="url(#clip290)" d="M0 1600 L2400 1600 L2400 0 L0 0  Z" fill="#ffffff" fill-rule="evenodd" fill-opacity="1"/>
<defs>
  <clipPath id="clip291">
    <rect x="480" y="0" width="1681" height="1600"/>
  </clipPath>
</defs>
<path clip-path="url(#clip290)" d="M288.969 1410.9 L2352.76 1410.9 L2352.76 47.2441 L288.969 47.2441  Z" fill="#ffffff" fill-rule="evenodd" fill-opacity="1"/>
<defs>
  <clipPath id="clip292">
    <rect x="288" y="47" width="2065" height="1365"/>
  </clipPath>
</defs>
<polyline clip-path="url(#clip292)" style="stroke:#000000; stroke-linecap:round; stroke-linejoin:round; stroke-width:2; stroke-opacity:0.1; fill:none" points="347.378,1410.9 347.378,47.2441 "/>
<polyline clip-path="url(#clip292)" style="stroke:#000000; stroke-linecap:round; stroke-linejoin:round; stroke-width:2; stroke-opacity:0.1; fill:none" points="1320.86,1410.9 1320.86,47.2441 "/>
<polyline clip-path="url(#clip292)" style="stroke:#000000; stroke-linecap:round; stroke-linejoin:round; stroke-width:2; stroke-opacity:0.1; fill:none" points="2294.35,1410.9 2294.35,47.2441 "/>
<polyline clip-path="url(#clip292)" style="stroke:#000000; stroke-linecap:round; stroke-linejoin:round; stroke-width:2; stroke-opacity:0.05; fill:none" points="302.834,1410.9 302.834,47.2441 "/>
<polyline clip-path="url(#clip292)" style="stroke:#000000; stroke-linecap:round; stroke-linejoin:round; stroke-width:2; stroke-opacity:0.05; fill:none" points="640.426,1410.9 640.426,47.2441 "/>
<polyline clip-path="url(#clip292)" style="stroke:#000000; stroke-linecap:round; stroke-linejoin:round; stroke-width:2; stroke-opacity:0.05; fill:none" points="811.848,1410.9 811.848,47.2441 "/>
<polyline clip-path="url(#clip292)" style="stroke:#000000; stroke-linecap:round; stroke-linejoin:round; stroke-width:2; stroke-opacity:0.05; fill:none" points="933.474,1410.9 933.474,47.2441 "/>
<polyline clip-path="url(#clip292)" style="stroke:#000000; stroke-linecap:round; stroke-linejoin:round; stroke-width:2; stroke-opacity:0.05; fill:none" points="1027.81,1410.9 1027.81,47.2441 "/>
<polyline clip-path="url(#clip292)" style="stroke:#000000; stroke-linecap:round; stroke-linejoin:round; stroke-width:2; stroke-opacity:0.05; fill:none" points="1104.9,1410.9 1104.9,47.2441 "/>
<polyline clip-path="url(#clip292)" style="stroke:#000000; stroke-linecap:round; stroke-linejoin:round; stroke-width:2; stroke-opacity:0.05; fill:none" points="1170.07,1410.9 1170.07,47.2441 "/>
<polyline clip-path="url(#clip292)" style="stroke:#000000; stroke-linecap:round; stroke-linejoin:round; stroke-width:2; stroke-opacity:0.05; fill:none" points="1226.52,1410.9 1226.52,47.2441 "/>
<polyline clip-path="url(#clip292)" style="stroke:#000000; stroke-linecap:round; stroke-linejoin:round; stroke-width:2; stroke-opacity:0.05; fill:none" points="1276.32,1410.9 1276.32,47.2441 "/>
<polyline clip-path="url(#clip292)" style="stroke:#000000; stroke-linecap:round; stroke-linejoin:round; stroke-width:2; stroke-opacity:0.05; fill:none" points="1613.91,1410.9 1613.91,47.2441 "/>
<polyline clip-path="url(#clip292)" style="stroke:#000000; stroke-linecap:round; stroke-linejoin:round; stroke-width:2; stroke-opacity:0.05; fill:none" points="1785.33,1410.9 1785.33,47.2441 "/>
<polyline clip-path="url(#clip292)" style="stroke:#000000; stroke-linecap:round; stroke-linejoin:round; stroke-width:2; stroke-opacity:0.05; fill:none" points="1906.96,1410.9 1906.96,47.2441 "/>
<polyline clip-path="url(#clip292)" style="stroke:#000000; stroke-linecap:round; stroke-linejoin:round; stroke-width:2; stroke-opacity:0.05; fill:none" points="2001.3,1410.9 2001.3,47.2441 "/>
<polyline clip-path="url(#clip292)" style="stroke:#000000; stroke-linecap:round; stroke-linejoin:round; stroke-width:2; stroke-opacity:0.05; fill:none" points="2078.38,1410.9 2078.38,47.2441 "/>
<polyline clip-path="url(#clip292)" style="stroke:#000000; stroke-linecap:round; stroke-linejoin:round; stroke-width:2; stroke-opacity:0.05; fill:none" points="2143.55,1410.9 2143.55,47.2441 "/>
<polyline clip-path="url(#clip292)" style="stroke:#000000; stroke-linecap:round; stroke-linejoin:round; stroke-width:2; stroke-opacity:0.05; fill:none" points="2200.01,1410.9 2200.01,47.2441 "/>
<polyline clip-path="url(#clip292)" style="stroke:#000000; stroke-linecap:round; stroke-linejoin:round; stroke-width:2; stroke-opacity:0.05; fill:none" points="2249.8,1410.9 2249.8,47.2441 "/>
<polyline clip-path="url(#clip290)" style="stroke:#000000; stroke-linecap:round; stroke-linejoin:round; stroke-width:4; stroke-opacity:1; fill:none" points="288.969,1410.9 2352.76,1410.9 "/>
<polyline clip-path="url(#clip290)" style="stroke:#000000; stroke-linecap:round; stroke-linejoin:round; stroke-width:4; stroke-opacity:1; fill:none" points="347.378,1410.9 347.378,1392 "/>
<polyline clip-path="url(#clip290)" style="stroke:#000000; stroke-linecap:round; stroke-linejoin:round; stroke-width:4; stroke-opacity:1; fill:none" points="1320.86,1410.9 1320.86,1392 "/>
<polyline clip-path="url(#clip290)" style="stroke:#000000; stroke-linecap:round; stroke-linejoin:round; stroke-width:4; stroke-opacity:1; fill:none" points="2294.35,1410.9 2294.35,1392 "/>
<polyline clip-path="url(#clip290)" style="stroke:#000000; stroke-linecap:round; stroke-linejoin:round; stroke-width:4; stroke-opacity:1; fill:none" points="302.834,1410.9 302.834,1401.45 "/>
<polyline clip-path="url(#clip290)" style="stroke:#000000; stroke-linecap:round; stroke-linejoin:round; stroke-width:4; stroke-opacity:1; fill:none" points="640.426,1410.9 640.426,1401.45 "/>
<polyline clip-path="url(#clip290)" style="stroke:#000000; stroke-linecap:round; stroke-linejoin:round; stroke-width:4; stroke-opacity:1; fill:none" points="811.848,1410.9 811.848,1401.45 "/>
<polyline clip-path="url(#clip290)" style="stroke:#000000; stroke-linecap:round; stroke-linejoin:round; stroke-width:4; stroke-opacity:1; fill:none" points="933.474,1410.9 933.474,1401.45 "/>
<polyline clip-path="url(#clip290)" style="stroke:#000000; stroke-linecap:round; stroke-linejoin:round; stroke-width:4; stroke-opacity:1; fill:none" points="1027.81,1410.9 1027.81,1401.45 "/>
<polyline clip-path="url(#clip290)" style="stroke:#000000; stroke-linecap:round; stroke-linejoin:round; stroke-width:4; stroke-opacity:1; fill:none" points="1104.9,1410.9 1104.9,1401.45 "/>
<polyline clip-path="url(#clip290)" style="stroke:#000000; stroke-linecap:round; stroke-linejoin:round; stroke-width:4; stroke-opacity:1; fill:none" points="1170.07,1410.9 1170.07,1401.45 "/>
<polyline clip-path="url(#clip290)" style="stroke:#000000; stroke-linecap:round; stroke-linejoin:round; stroke-width:4; stroke-opacity:1; fill:none" points="1226.52,1410.9 1226.52,1401.45 "/>
<polyline clip-path="url(#clip290)" style="stroke:#000000; stroke-linecap:round; stroke-linejoin:round; stroke-width:4; stroke-opacity:1; fill:none" points="1276.32,1410.9 1276.32,1401.45 "/>
<polyline clip-path="url(#clip290)" style="stroke:#000000; stroke-linecap:round; stroke-linejoin:round; stroke-width:4; stroke-opacity:1; fill:none" points="1613.91,1410.9 1613.91,1401.45 "/>
<polyline clip-path="url(#clip290)" style="stroke:#000000; stroke-linecap:round; stroke-linejoin:round; stroke-width:4; stroke-opacity:1; fill:none" points="1785.33,1410.9 1785.33,1401.45 "/>
<polyline clip-path="url(#clip290)" style="stroke:#000000; stroke-linecap:round; stroke-linejoin:round; stroke-width:4; stroke-opacity:1; fill:none" points="1906.96,1410.9 1906.96,1401.45 "/>
<polyline clip-path="url(#clip290)" style="stroke:#000000; stroke-linecap:round; stroke-linejoin:round; stroke-width:4; stroke-opacity:1; fill:none" points="2001.3,1410.9 2001.3,1401.45 "/>
<polyline clip-path="url(#clip290)" style="stroke:#000000; stroke-linecap:round; stroke-linejoin:round; stroke-width:4; stroke-opacity:1; fill:none" points="2078.38,1410.9 2078.38,1401.45 "/>
<polyline clip-path="url(#clip290)" style="stroke:#000000; stroke-linecap:round; stroke-linejoin:round; stroke-width:4; stroke-opacity:1; fill:none" points="2143.55,1410.9 2143.55,1401.45 "/>
<polyline clip-path="url(#clip290)" style="stroke:#000000; stroke-linecap:round; stroke-linejoin:round; stroke-width:4; stroke-opacity:1; fill:none" points="2200.01,1410.9 2200.01,1401.45 "/>
<polyline clip-path="url(#clip290)" style="stroke:#000000; stroke-linecap:round; stroke-linejoin:round; stroke-width:4; stroke-opacity:1; fill:none" points="2249.8,1410.9 2249.8,1401.45 "/>
<path clip-path="url(#clip290)" d="M313.151 1485.02 L320.79 1485.02 L320.79 1458.66 L312.479 1460.32 L312.479 1456.06 L320.743 1454.4 L325.419 1454.4 L325.419 1485.02 L333.058 1485.02 L333.058 1488.96 L313.151 1488.96 L313.151 1485.02 Z" fill="#000000" fill-rule="nonzero" fill-opacity="1" /><path clip-path="url(#clip290)" d="M352.502 1457.48 Q348.891 1457.48 347.063 1461.04 Q345.257 1464.58 345.257 1471.71 Q345.257 1478.82 347.063 1482.38 Q348.891 1485.92 352.502 1485.92 Q356.137 1485.92 357.942 1482.38 Q359.771 1478.82 359.771 1471.71 Q359.771 1464.58 357.942 1461.04 Q356.137 1457.48 352.502 1457.48 M352.502 1453.77 Q358.313 1453.77 361.368 1458.38 Q364.447 1462.96 364.447 1471.71 Q364.447 1480.44 361.368 1485.04 Q358.313 1489.63 352.502 1489.63 Q346.692 1489.63 343.614 1485.04 Q340.558 1480.44 340.558 1471.71 Q340.558 1462.96 343.614 1458.38 Q346.692 1453.77 352.502 1453.77 Z" fill="#000000" fill-rule="nonzero" fill-opacity="1" /><path clip-path="url(#clip290)" d="M369.017 1458.35 L382.277 1458.35 L382.277 1461.55 L364.447 1461.55 L364.447 1458.35 Q366.61 1456.11 370.334 1452.35 Q374.076 1448.57 375.036 1447.48 Q376.86 1445.43 377.575 1444.02 Q378.308 1442.59 378.308 1441.22 Q378.308 1438.98 376.728 1437.57 Q375.167 1436.16 372.647 1436.16 Q370.86 1436.16 368.867 1436.78 Q366.892 1437.4 364.635 1438.66 L364.635 1434.82 Q366.929 1433.9 368.923 1433.43 Q370.917 1432.96 372.572 1432.96 Q376.935 1432.96 379.531 1435.14 Q382.126 1437.32 382.126 1440.97 Q382.126 1442.7 381.468 1444.26 Q380.828 1445.8 379.117 1447.91 Q378.647 1448.46 376.126 1451.07 Q373.606 1453.67 369.017 1458.35 Z" fill="#000000" fill-rule="nonzero" fill-opacity="1" /><path clip-path="url(#clip290)" d="M1286.31 1485.02 L1293.94 1485.02 L1293.94 1458.66 L1285.63 1460.32 L1285.63 1456.06 L1293.9 1454.4 L1298.57 1454.4 L1298.57 1485.02 L1306.21 1485.02 L1306.21 1488.96 L1286.31 1488.96 L1286.31 1485.02 Z" fill="#000000" fill-rule="nonzero" fill-opacity="1" /><path clip-path="url(#clip290)" d="M1325.66 1457.48 Q1322.05 1457.48 1320.22 1461.04 Q1318.41 1464.58 1318.41 1471.71 Q1318.41 1478.82 1320.22 1482.38 Q1322.05 1485.92 1325.66 1485.92 Q1329.29 1485.92 1331.1 1482.38 Q1332.93 1478.82 1332.93 1471.71 Q1332.93 1464.58 1331.1 1461.04 Q1329.29 1457.48 1325.66 1457.48 M1325.66 1453.77 Q1331.47 1453.77 1334.52 1458.38 Q1337.6 1462.96 1337.6 1471.71 Q1337.6 1480.44 1334.52 1485.04 Q1331.47 1489.63 1325.66 1489.63 Q1319.85 1489.63 1316.77 1485.04 Q1313.71 1480.44 1313.71 1471.71 Q1313.71 1462.96 1316.77 1458.38 Q1319.85 1453.77 1325.66 1453.77 Z" fill="#000000" fill-rule="nonzero" fill-opacity="1" /><path clip-path="url(#clip290)" d="M1350.3 1446.41 Q1353.02 1446.99 1354.55 1448.83 Q1356.09 1450.68 1356.09 1453.38 Q1356.09 1457.54 1353.23 1459.82 Q1350.37 1462.09 1345.11 1462.09 Q1343.34 1462.09 1341.46 1461.73 Q1339.6 1461.4 1337.6 1460.7 L1337.6 1457.03 Q1339.18 1457.95 1341.06 1458.42 Q1342.94 1458.89 1344.99 1458.89 Q1348.57 1458.89 1350.43 1457.48 Q1352.31 1456.07 1352.31 1453.38 Q1352.31 1450.9 1350.56 1449.51 Q1348.83 1448.1 1345.73 1448.1 L1342.45 1448.1 L1342.45 1444.98 L1345.88 1444.98 Q1348.68 1444.98 1350.17 1443.87 Q1351.65 1442.74 1351.65 1440.63 Q1351.65 1438.47 1350.11 1437.32 Q1348.59 1436.16 1345.73 1436.16 Q1344.17 1436.16 1342.38 1436.49 Q1340.59 1436.83 1338.45 1437.55 L1338.45 1434.16 Q1340.61 1433.56 1342.49 1433.26 Q1344.39 1432.96 1346.07 1432.96 Q1350.39 1432.96 1352.91 1434.93 Q1355.43 1436.89 1355.43 1440.24 Q1355.43 1442.57 1354.1 1444.19 Q1352.76 1445.79 1350.3 1446.41 Z" fill="#000000" fill-rule="nonzero" fill-opacity="1" /><path clip-path="url(#clip290)" d="M2258.8 1485.02 L2266.44 1485.02 L2266.44 1458.66 L2258.13 1460.32 L2258.13 1456.06 L2266.4 1454.4 L2271.07 1454.4 L2271.07 1485.02 L2278.71 1485.02 L2278.71 1488.96 L2258.8 1488.96 L2258.8 1485.02 Z" fill="#000000" fill-rule="nonzero" fill-opacity="1" /><path clip-path="url(#clip290)" d="M2298.15 1457.48 Q2294.54 1457.48 2292.71 1461.04 Q2290.91 1464.58 2290.91 1471.71 Q2290.91 1478.82 2292.71 1482.38 Q2294.54 1485.92 2298.15 1485.92 Q2301.79 1485.92 2303.59 1482.38 Q2305.42 1478.82 2305.42 1471.71 Q2305.42 1464.58 2303.59 1461.04 Q2301.79 1457.48 2298.15 1457.48 M2298.15 1453.77 Q2303.96 1453.77 2307.02 1458.38 Q2310.1 1462.96 2310.1 1471.71 Q2310.1 1480.44 2307.02 1485.04 Q2303.96 1489.63 2298.15 1489.63 Q2292.34 1489.63 2289.27 1485.04 Q2286.21 1480.44 2286.21 1471.71 Q2286.21 1462.96 2289.27 1458.38 Q2292.34 1453.77 2298.15 1453.77 Z" fill="#000000" fill-rule="nonzero" fill-opacity="1" /><path clip-path="url(#clip290)" d="M2322.78 1436.78 L2313.18 1451.77 L2322.78 1451.77 L2322.78 1436.78 M2321.78 1433.47 L2326.56 1433.47 L2326.56 1451.77 L2330.56 1451.77 L2330.56 1454.93 L2326.56 1454.93 L2326.56 1461.55 L2322.78 1461.55 L2322.78 1454.93 L2310.1 1454.93 L2310.1 1451.26 L2321.78 1433.47 Z" fill="#000000" fill-rule="nonzero" fill-opacity="1" /><path clip-path="url(#clip290)" d="M990.116 1552.67 L990.116 1574.19 L984.26 1574.19 L984.26 1552.86 Q984.26 1547.8 982.286 1545.29 Q980.313 1542.77 976.366 1542.77 Q971.624 1542.77 968.887 1545.79 Q966.149 1548.82 966.149 1554.04 L966.149 1574.19 L960.261 1574.19 L960.261 1538.54 L966.149 1538.54 L966.149 1544.08 Q968.25 1540.86 971.083 1539.27 Q973.947 1537.68 977.671 1537.68 Q983.814 1537.68 986.965 1541.5 Q990.116 1545.29 990.116 1552.67 Z" fill="#000000" fill-rule="nonzero" fill-opacity="1" /><path clip-path="url(#clip290)" d="M1001.19 1560.12 L1001.19 1538.54 L1007.05 1538.54 L1007.05 1559.89 Q1007.05 1564.96 1009.02 1567.5 Q1011 1570.02 1014.94 1570.02 Q1019.68 1570.02 1022.42 1566.99 Q1025.19 1563.97 1025.19 1558.75 L1025.19 1538.54 L1031.05 1538.54 L1031.05 1574.19 L1025.19 1574.19 L1025.19 1568.71 Q1023.06 1571.96 1020.23 1573.55 Q1017.43 1575.11 1013.7 1575.11 Q1007.56 1575.11 1004.38 1571.29 Q1001.19 1567.47 1001.19 1560.12 M1015.93 1537.68 L1015.93 1537.68 Z" fill="#000000" fill-rule="nonzero" fill-opacity="1" /><path clip-path="url(#clip290)" d="M1070.87 1545.38 Q1073.06 1541.43 1076.12 1539.56 Q1079.17 1537.68 1083.31 1537.68 Q1088.88 1537.68 1091.9 1541.59 Q1094.93 1545.48 1094.93 1552.67 L1094.93 1574.19 L1089.04 1574.19 L1089.04 1552.86 Q1089.04 1547.74 1087.23 1545.25 Q1085.41 1542.77 1081.69 1542.77 Q1077.14 1542.77 1074.49 1545.79 Q1071.85 1548.82 1071.85 1554.04 L1071.85 1574.19 L1065.96 1574.19 L1065.96 1552.86 Q1065.96 1547.7 1064.15 1545.25 Q1062.34 1542.77 1058.55 1542.77 Q1054.06 1542.77 1051.42 1545.83 Q1048.78 1548.85 1048.78 1554.04 L1048.78 1574.19 L1042.89 1574.19 L1042.89 1538.54 L1048.78 1538.54 L1048.78 1544.08 Q1050.78 1540.8 1053.58 1539.24 Q1056.38 1537.68 1060.23 1537.68 Q1064.12 1537.68 1066.82 1539.65 Q1069.56 1541.62 1070.87 1545.38 Z" fill="#000000" fill-rule="nonzero" fill-opacity="1" /><path clip-path="url(#clip290)" d="M1132.2 1556.39 Q1132.2 1549.93 1129.53 1546.27 Q1126.88 1542.58 1122.24 1542.58 Q1117.59 1542.58 1114.92 1546.27 Q1112.27 1549.93 1112.27 1556.39 Q1112.27 1562.85 1114.92 1566.55 Q1117.59 1570.21 1122.24 1570.21 Q1126.88 1570.21 1129.53 1566.55 Q1132.2 1562.85 1132.2 1556.39 M1112.27 1543.95 Q1114.12 1540.77 1116.92 1539.24 Q1119.75 1537.68 1123.67 1537.68 Q1130.16 1537.68 1134.2 1542.83 Q1138.28 1547.99 1138.28 1556.39 Q1138.28 1564.8 1134.2 1569.95 Q1130.16 1575.11 1123.67 1575.11 Q1119.75 1575.11 1116.92 1573.58 Q1114.12 1572.02 1112.27 1568.84 L1112.27 1574.19 L1106.39 1574.19 L1106.39 1524.66 L1112.27 1524.66 L1112.27 1543.95 Z" fill="#000000" fill-rule="nonzero" fill-opacity="1" /><path clip-path="url(#clip290)" d="M1178.48 1554.9 L1178.48 1557.76 L1151.55 1557.76 Q1151.93 1563.81 1155.18 1566.99 Q1158.46 1570.14 1164.28 1570.14 Q1167.66 1570.14 1170.81 1569.32 Q1173.99 1568.49 1177.11 1566.83 L1177.11 1572.37 Q1173.96 1573.71 1170.65 1574.41 Q1167.34 1575.11 1163.93 1575.11 Q1155.4 1575.11 1150.4 1570.14 Q1145.44 1565.18 1145.44 1556.71 Q1145.44 1547.96 1150.15 1542.83 Q1154.89 1537.68 1162.91 1537.68 Q1170.11 1537.68 1174.28 1542.33 Q1178.48 1546.94 1178.48 1554.9 M1172.62 1553.18 Q1172.56 1548.37 1169.92 1545.51 Q1167.31 1542.64 1162.98 1542.64 Q1158.08 1542.64 1155.12 1545.41 Q1152.19 1548.18 1151.74 1553.21 L1172.62 1553.18 Z" fill="#000000" fill-rule="nonzero" fill-opacity="1" /><path clip-path="url(#clip290)" d="M1208.75 1544.01 Q1207.76 1543.44 1206.58 1543.18 Q1205.44 1542.9 1204.04 1542.9 Q1199.07 1542.9 1196.4 1546.14 Q1193.76 1549.36 1193.76 1555.41 L1193.76 1574.19 L1187.87 1574.19 L1187.87 1538.54 L1193.76 1538.54 L1193.76 1544.08 Q1195.6 1540.83 1198.56 1539.27 Q1201.52 1537.68 1205.75 1537.68 Q1206.36 1537.68 1207.09 1537.77 Q1207.82 1537.84 1208.71 1538 L1208.75 1544.01 Z" fill="#000000" fill-rule="nonzero" fill-opacity="1" /><path clip-path="url(#clip290)" d="M1249.42 1542.64 Q1244.71 1542.64 1241.98 1546.34 Q1239.24 1550 1239.24 1556.39 Q1239.24 1562.79 1241.94 1566.48 Q1244.68 1570.14 1249.42 1570.14 Q1254.1 1570.14 1256.84 1566.45 Q1259.58 1562.76 1259.58 1556.39 Q1259.58 1550.06 1256.84 1546.37 Q1254.1 1542.64 1249.42 1542.64 M1249.42 1537.68 Q1257.06 1537.68 1261.42 1542.64 Q1265.78 1547.61 1265.78 1556.39 Q1265.78 1565.15 1261.42 1570.14 Q1257.06 1575.11 1249.42 1575.11 Q1241.75 1575.11 1237.39 1570.14 Q1233.06 1565.15 1233.06 1556.39 Q1233.06 1547.61 1237.39 1542.64 Q1241.75 1537.68 1249.42 1537.68 Z" fill="#000000" fill-rule="nonzero" fill-opacity="1" /><path clip-path="url(#clip290)" d="M1293.54 1524.66 L1293.54 1529.53 L1287.94 1529.53 Q1284.78 1529.53 1283.54 1530.8 Q1282.33 1532.08 1282.33 1535.39 L1282.33 1538.54 L1291.98 1538.54 L1291.98 1543.09 L1282.33 1543.09 L1282.33 1574.19 L1276.45 1574.19 L1276.45 1543.09 L1270.84 1543.09 L1270.84 1538.54 L1276.45 1538.54 L1276.45 1536.05 Q1276.45 1530.1 1279.21 1527.4 Q1281.98 1524.66 1288 1524.66 L1293.54 1524.66 Z" fill="#000000" fill-rule="nonzero" fill-opacity="1" /><path clip-path="url(#clip290)" d="M1342.62 1543.95 L1342.62 1524.66 L1348.47 1524.66 L1348.47 1574.19 L1342.62 1574.19 L1342.62 1568.84 Q1340.77 1572.02 1337.94 1573.58 Q1335.14 1575.11 1331.19 1575.11 Q1324.73 1575.11 1320.66 1569.95 Q1316.61 1564.8 1316.61 1556.39 Q1316.61 1547.99 1320.66 1542.83 Q1324.73 1537.68 1331.19 1537.68 Q1335.14 1537.68 1337.94 1539.24 Q1340.77 1540.77 1342.62 1543.95 M1322.66 1556.39 Q1322.66 1562.85 1325.3 1566.55 Q1327.98 1570.21 1332.62 1570.21 Q1337.27 1570.21 1339.94 1566.55 Q1342.62 1562.85 1342.62 1556.39 Q1342.62 1549.93 1339.94 1546.27 Q1337.27 1542.58 1332.62 1542.58 Q1327.98 1542.58 1325.3 1546.27 Q1322.66 1549.93 1322.66 1556.39 Z" fill="#000000" fill-rule="nonzero" fill-opacity="1" /><path clip-path="url(#clip290)" d="M1360.54 1538.54 L1366.39 1538.54 L1366.39 1574.19 L1360.54 1574.19 L1360.54 1538.54 M1360.54 1524.66 L1366.39 1524.66 L1366.39 1532.08 L1360.54 1532.08 L1360.54 1524.66 Z" fill="#000000" fill-rule="nonzero" fill-opacity="1" /><path clip-path="url(#clip290)" d="M1406.4 1545.38 Q1408.6 1541.43 1411.65 1539.56 Q1414.71 1537.68 1418.85 1537.68 Q1424.42 1537.68 1427.44 1541.59 Q1430.46 1545.48 1430.46 1552.67 L1430.46 1574.19 L1424.58 1574.19 L1424.58 1552.86 Q1424.58 1547.74 1422.76 1545.25 Q1420.95 1542.77 1417.22 1542.77 Q1412.67 1542.77 1410.03 1545.79 Q1407.39 1548.82 1407.39 1554.04 L1407.39 1574.19 L1401.5 1574.19 L1401.5 1552.86 Q1401.5 1547.7 1399.69 1545.25 Q1397.87 1542.77 1394.08 1542.77 Q1389.6 1542.77 1386.95 1545.83 Q1384.31 1548.85 1384.31 1554.04 L1384.31 1574.19 L1378.42 1574.19 L1378.42 1538.54 L1384.31 1538.54 L1384.31 1544.08 Q1386.32 1540.8 1389.12 1539.24 Q1391.92 1537.68 1395.77 1537.68 Q1399.65 1537.68 1402.36 1539.65 Q1405.1 1541.62 1406.4 1545.38 Z" fill="#000000" fill-rule="nonzero" fill-opacity="1" /><path clip-path="url(#clip290)" d="M1472.64 1554.9 L1472.64 1557.76 L1445.71 1557.76 Q1446.09 1563.81 1449.34 1566.99 Q1452.62 1570.14 1458.44 1570.14 Q1461.82 1570.14 1464.97 1569.32 Q1468.15 1568.49 1471.27 1566.83 L1471.27 1572.37 Q1468.12 1573.71 1464.81 1574.41 Q1461.5 1575.11 1458.09 1575.11 Q1449.56 1575.11 1444.56 1570.14 Q1439.6 1565.18 1439.6 1556.71 Q1439.6 1547.96 1444.31 1542.83 Q1449.05 1537.68 1457.07 1537.68 Q1464.27 1537.68 1468.44 1542.33 Q1472.64 1546.94 1472.64 1554.9 M1466.78 1553.18 Q1466.72 1548.37 1464.07 1545.51 Q1461.46 1542.64 1457.14 1542.64 Q1452.23 1542.64 1449.27 1545.41 Q1446.35 1548.18 1445.9 1553.21 L1466.78 1553.18 Z" fill="#000000" fill-rule="nonzero" fill-opacity="1" /><path clip-path="url(#clip290)" d="M1511.88 1552.67 L1511.88 1574.19 L1506.02 1574.19 L1506.02 1552.86 Q1506.02 1547.8 1504.05 1545.29 Q1502.08 1542.77 1498.13 1542.77 Q1493.39 1542.77 1490.65 1545.79 Q1487.91 1548.82 1487.91 1554.04 L1487.91 1574.19 L1482.03 1574.19 L1482.03 1538.54 L1487.91 1538.54 L1487.91 1544.08 Q1490.02 1540.86 1492.85 1539.27 Q1495.71 1537.68 1499.44 1537.68 Q1505.58 1537.68 1508.73 1541.5 Q1511.88 1545.29 1511.88 1552.67 Z" fill="#000000" fill-rule="nonzero" fill-opacity="1" /><path clip-path="url(#clip290)" d="M1546.29 1539.59 L1546.29 1545.13 Q1543.81 1543.85 1541.13 1543.22 Q1538.46 1542.58 1535.59 1542.58 Q1531.23 1542.58 1529.04 1543.92 Q1526.87 1545.25 1526.87 1547.93 Q1526.87 1549.96 1528.43 1551.14 Q1529.99 1552.29 1534.7 1553.34 L1536.71 1553.78 Q1542.95 1555.12 1545.56 1557.57 Q1548.2 1559.99 1548.2 1564.35 Q1548.2 1569.32 1544.25 1572.21 Q1540.34 1575.11 1533.46 1575.11 Q1530.6 1575.11 1527.48 1574.54 Q1524.39 1573.99 1520.95 1572.88 L1520.95 1566.83 Q1524.2 1568.52 1527.35 1569.38 Q1530.5 1570.21 1533.59 1570.21 Q1537.73 1570.21 1539.95 1568.81 Q1542.18 1567.37 1542.18 1564.8 Q1542.18 1562.41 1540.56 1561.14 Q1538.97 1559.86 1533.52 1558.68 L1531.49 1558.21 Q1526.05 1557.06 1523.63 1554.71 Q1521.21 1552.32 1521.21 1548.18 Q1521.21 1543.15 1524.77 1540.42 Q1528.34 1537.68 1534.89 1537.68 Q1538.14 1537.68 1541 1538.16 Q1543.87 1538.63 1546.29 1539.59 Z" fill="#000000" fill-rule="nonzero" fill-opacity="1" /><path clip-path="url(#clip290)" d="M1557.52 1538.54 L1563.38 1538.54 L1563.38 1574.19 L1557.52 1574.19 L1557.52 1538.54 M1557.52 1524.66 L1563.38 1524.66 L1563.38 1532.08 L1557.52 1532.08 L1557.52 1524.66 Z" fill="#000000" fill-rule="nonzero" fill-opacity="1" /><path clip-path="url(#clip290)" d="M1589.45 1542.64 Q1584.74 1542.64 1582 1546.34 Q1579.26 1550 1579.26 1556.39 Q1579.26 1562.79 1581.97 1566.48 Q1584.71 1570.14 1589.45 1570.14 Q1594.13 1570.14 1596.86 1566.45 Q1599.6 1562.76 1599.6 1556.39 Q1599.6 1550.06 1596.86 1546.37 Q1594.13 1542.64 1589.45 1542.64 M1589.45 1537.68 Q1597.09 1537.68 1601.45 1542.64 Q1605.81 1547.61 1605.81 1556.39 Q1605.81 1565.15 1601.45 1570.14 Q1597.09 1575.11 1589.45 1575.11 Q1581.78 1575.11 1577.42 1570.14 Q1573.09 1565.15 1573.09 1556.39 Q1573.09 1547.61 1577.42 1542.64 Q1581.78 1537.68 1589.45 1537.68 Z" fill="#000000" fill-rule="nonzero" fill-opacity="1" /><path clip-path="url(#clip290)" d="M1645.15 1552.67 L1645.15 1574.19 L1639.29 1574.19 L1639.29 1552.86 Q1639.29 1547.8 1637.32 1545.29 Q1635.34 1542.77 1631.4 1542.77 Q1626.66 1542.77 1623.92 1545.79 Q1621.18 1548.82 1621.18 1554.04 L1621.18 1574.19 L1615.29 1574.19 L1615.29 1538.54 L1621.18 1538.54 L1621.18 1544.08 Q1623.28 1540.86 1626.11 1539.27 Q1628.98 1537.68 1632.7 1537.68 Q1638.85 1537.68 1642 1541.5 Q1645.15 1545.29 1645.15 1552.67 Z" fill="#000000" fill-rule="nonzero" fill-opacity="1" /><path clip-path="url(#clip290)" d="M1679.55 1539.59 L1679.55 1545.13 Q1677.07 1543.85 1674.4 1543.22 Q1671.72 1542.58 1668.86 1542.58 Q1664.5 1542.58 1662.3 1543.92 Q1660.14 1545.25 1660.14 1547.93 Q1660.14 1549.96 1661.7 1551.14 Q1663.26 1552.29 1667.97 1553.34 L1669.97 1553.78 Q1676.21 1555.12 1678.82 1557.57 Q1681.46 1559.99 1681.46 1564.35 Q1681.46 1569.32 1677.52 1572.21 Q1673.6 1575.11 1666.73 1575.11 Q1663.86 1575.11 1660.74 1574.54 Q1657.66 1573.99 1654.22 1572.88 L1654.22 1566.83 Q1657.47 1568.52 1660.62 1569.38 Q1663.77 1570.21 1666.85 1570.21 Q1670.99 1570.21 1673.22 1568.81 Q1675.45 1567.37 1675.45 1564.8 Q1675.45 1562.41 1673.82 1561.14 Q1672.23 1559.86 1666.79 1558.68 L1664.75 1558.21 Q1659.31 1557.06 1656.89 1554.71 Q1654.47 1552.32 1654.47 1548.18 Q1654.47 1543.15 1658.04 1540.42 Q1661.6 1537.68 1668.16 1537.68 Q1671.41 1537.68 1674.27 1538.16 Q1677.14 1538.63 1679.55 1539.59 Z" fill="#000000" fill-rule="nonzero" fill-opacity="1" /><polyline clip-path="url(#clip292)" style="stroke:#000000; stroke-linecap:round; stroke-linejoin:round; stroke-width:2; stroke-opacity:0.1; fill:none" points="288.969,1080.37 2352.76,1080.37 "/>
<polyline clip-path="url(#clip292)" style="stroke:#000000; stroke-linecap:round; stroke-linejoin:round; stroke-width:2; stroke-opacity:0.1; fill:none" points="288.969,549.022 2352.76,549.022 "/>
<polyline clip-path="url(#clip290)" style="stroke:#000000; stroke-linecap:round; stroke-linejoin:round; stroke-width:4; stroke-opacity:1; fill:none" points="288.969,1410.9 288.969,47.2441 "/>
<polyline clip-path="url(#clip290)" style="stroke:#000000; stroke-linecap:round; stroke-linejoin:round; stroke-width:4; stroke-opacity:1; fill:none" points="288.969,1080.37 307.867,1080.37 "/>
<polyline clip-path="url(#clip290)" style="stroke:#000000; stroke-linecap:round; stroke-linejoin:round; stroke-width:4; stroke-opacity:1; fill:none" points="288.969,549.022 307.867,549.022 "/>
<path clip-path="url(#clip290)" d="M116.079 1100.16 L123.718 1100.16 L123.718 1073.79 L115.407 1075.46 L115.407 1071.2 L123.671 1069.54 L128.347 1069.54 L128.347 1100.16 L135.986 1100.16 L135.986 1104.1 L116.079 1104.1 L116.079 1100.16 Z" fill="#000000" fill-rule="nonzero" fill-opacity="1" /><path clip-path="url(#clip290)" d="M155.43 1072.61 Q151.819 1072.61 149.991 1076.18 Q148.185 1079.72 148.185 1086.85 Q148.185 1093.96 149.991 1097.52 Q151.819 1101.06 155.43 1101.06 Q159.065 1101.06 160.87 1097.52 Q162.699 1093.96 162.699 1086.85 Q162.699 1079.72 160.87 1076.18 Q159.065 1072.61 155.43 1072.61 M155.43 1068.91 Q161.241 1068.91 164.296 1073.52 Q167.375 1078.1 167.375 1086.85 Q167.375 1095.58 164.296 1100.18 Q161.241 1104.77 155.43 1104.77 Q149.62 1104.77 146.542 1100.18 Q143.486 1095.58 143.486 1086.85 Q143.486 1078.1 146.542 1073.52 Q149.62 1068.91 155.43 1068.91 Z" fill="#000000" fill-rule="nonzero" fill-opacity="1" /><path clip-path="url(#clip290)" d="M167.375 1063.01 L191.486 1063.01 L191.486 1066.21 L167.375 1066.21 L167.375 1063.01 Z" fill="#000000" fill-rule="nonzero" fill-opacity="1" /><path clip-path="url(#clip290)" d="M210.125 1051.91 L200.533 1066.9 L210.125 1066.9 L210.125 1051.91 M209.128 1048.6 L213.905 1048.6 L213.905 1066.9 L217.911 1066.9 L217.911 1070.06 L213.905 1070.06 L213.905 1076.68 L210.125 1076.68 L210.125 1070.06 L197.448 1070.06 L197.448 1066.4 L209.128 1048.6 Z" fill="#000000" fill-rule="nonzero" fill-opacity="1" /><path clip-path="url(#clip290)" d="M224.193 1071.91 L228.161 1071.91 L228.161 1076.68 L224.193 1076.68 L224.193 1071.91 Z" fill="#000000" fill-rule="nonzero" fill-opacity="1" /><path clip-path="url(#clip290)" d="M239.709 1073.49 L252.969 1073.49 L252.969 1076.68 L235.139 1076.68 L235.139 1073.49 Q237.302 1071.25 241.026 1067.49 Q244.769 1063.71 245.728 1062.62 Q247.552 1060.57 248.267 1059.16 Q249 1057.73 249 1056.35 Q249 1054.12 247.421 1052.7 Q245.86 1051.29 243.339 1051.29 Q241.553 1051.29 239.559 1051.91 Q237.584 1052.54 235.327 1053.8 L235.327 1049.96 Q237.622 1049.04 239.615 1048.57 Q241.609 1048.1 243.264 1048.1 Q247.627 1048.1 250.223 1050.28 Q252.818 1052.46 252.818 1056.11 Q252.818 1057.84 252.16 1059.4 Q251.521 1060.94 249.809 1063.05 Q249.339 1063.59 246.819 1066.21 Q244.299 1068.8 239.709 1073.49 Z" fill="#000000" fill-rule="nonzero" fill-opacity="1" /><path clip-path="url(#clip290)" d="M114.931 568.814 L122.57 568.814 L122.57 542.449 L114.26 544.115 L114.26 539.856 L122.524 538.189 L127.2 538.189 L127.2 568.814 L134.839 568.814 L134.839 572.749 L114.931 572.749 L114.931 568.814 Z" fill="#000000" fill-rule="nonzero" fill-opacity="1" /><path clip-path="url(#clip290)" d="M154.283 541.268 Q150.672 541.268 148.843 544.833 Q147.038 548.374 147.038 555.504 Q147.038 562.61 148.843 566.175 Q150.672 569.717 154.283 569.717 Q157.917 569.717 159.723 566.175 Q161.552 562.61 161.552 555.504 Q161.552 548.374 159.723 544.833 Q157.917 541.268 154.283 541.268 M154.283 537.564 Q160.093 537.564 163.149 542.171 Q166.227 546.754 166.227 555.504 Q166.227 564.231 163.149 568.837 Q160.093 573.421 154.283 573.421 Q148.473 573.421 145.394 568.837 Q142.339 564.231 142.339 555.504 Q142.339 546.754 145.394 542.171 Q148.473 537.564 154.283 537.564 Z" fill="#000000" fill-rule="nonzero" fill-opacity="1" /><path clip-path="url(#clip290)" d="M166.227 531.666 L190.339 531.666 L190.339 534.863 L166.227 534.863 L166.227 531.666 Z" fill="#000000" fill-rule="nonzero" fill-opacity="1" /><path clip-path="url(#clip290)" d="M210.05 530.199 Q212.777 530.782 214.3 532.625 Q215.842 534.468 215.842 537.176 Q215.842 541.333 212.984 543.609 Q210.125 545.884 204.859 545.884 Q203.091 545.884 201.21 545.527 Q199.348 545.188 197.354 544.493 L197.354 540.825 Q198.934 541.747 200.815 542.217 Q202.696 542.687 204.746 542.687 Q208.319 542.687 210.181 541.276 Q212.062 539.866 212.062 537.176 Q212.062 534.694 210.313 533.302 Q208.583 531.891 205.479 531.891 L202.207 531.891 L202.207 528.769 L205.63 528.769 Q208.432 528.769 209.918 527.66 Q211.404 526.531 211.404 524.425 Q211.404 522.262 209.861 521.114 Q208.338 519.948 205.479 519.948 Q203.918 519.948 202.132 520.287 Q200.345 520.625 198.201 521.34 L198.201 517.955 Q200.364 517.353 202.244 517.052 Q204.144 516.751 205.818 516.751 Q210.144 516.751 212.664 518.726 Q215.184 520.682 215.184 524.03 Q215.184 526.362 213.849 527.979 Q212.513 529.578 210.05 530.199 Z" fill="#000000" fill-rule="nonzero" fill-opacity="1" /><path clip-path="url(#clip290)" d="M223.046 540.562 L227.014 540.562 L227.014 545.339 L223.046 545.339 L223.046 540.562 Z" fill="#000000" fill-rule="nonzero" fill-opacity="1" /><path clip-path="url(#clip290)" d="M235.402 544.756 L235.402 541.295 Q236.832 541.972 238.299 542.33 Q239.766 542.687 241.176 542.687 Q244.938 542.687 246.913 540.167 Q248.906 537.628 249.189 532.474 Q248.098 534.092 246.424 534.957 Q244.75 535.822 242.719 535.822 Q238.506 535.822 236.042 533.283 Q233.597 530.725 233.597 526.305 Q233.597 521.98 236.155 519.365 Q238.713 516.751 242.963 516.751 Q247.834 516.751 250.392 520.494 Q252.969 524.218 252.969 531.327 Q252.969 537.966 249.809 541.935 Q246.668 545.884 241.346 545.884 Q239.916 545.884 238.449 545.602 Q236.982 545.32 235.402 544.756 M242.963 532.851 Q245.521 532.851 247.007 531.101 Q248.511 529.352 248.511 526.305 Q248.511 523.277 247.007 521.528 Q245.521 519.76 242.963 519.76 Q240.405 519.76 238.901 521.528 Q237.415 523.277 237.415 526.305 Q237.415 529.352 238.901 531.101 Q240.405 532.851 242.963 532.851 Z" fill="#000000" fill-rule="nonzero" fill-opacity="1" /><path clip-path="url(#clip290)" d="M58.657 753.005 L77.5631 753.005 L77.5631 758.894 L28.3562 758.894 L28.3562 753.005 L33.7671 753.005 Q30.5842 751.159 29.0564 748.358 Q27.4968 745.526 27.4968 741.611 Q27.4968 735.118 32.6531 731.076 Q37.8093 727.002 46.212 727.002 Q54.6147 727.002 59.771 731.076 Q64.9272 735.118 64.9272 741.611 Q64.9272 745.526 63.3994 748.358 Q61.8398 751.159 58.657 753.005 M46.212 733.081 Q39.7508 733.081 36.0905 735.754 Q32.3984 738.396 32.3984 743.043 Q32.3984 747.69 36.0905 750.364 Q39.7508 753.005 46.212 753.005 Q52.6732 753.005 56.3653 750.364 Q60.0256 747.69 60.0256 743.043 Q60.0256 738.396 56.3653 735.754 Q52.6732 733.081 46.212 733.081 Z" fill="#000000" fill-rule="nonzero" fill-opacity="1" /><path clip-path="url(#clip290)" d="M14.479 699.247 L19.3487 699.247 L19.3487 704.849 Q19.3487 708 20.6219 709.241 Q21.895 710.451 25.2052 710.451 L28.3562 710.451 L28.3562 700.807 L32.9077 700.807 L32.9077 710.451 L64.0042 710.451 L64.0042 716.339 L32.9077 716.339 L32.9077 721.941 L28.3562 721.941 L28.3562 716.339 L25.8736 716.339 Q19.9216 716.339 17.2162 713.57 Q14.479 710.801 14.479 704.785 L14.479 699.247 Z" fill="#000000" fill-rule="nonzero" fill-opacity="1" /><path clip-path="url(#clip292)" d="M347.378 85.838 L640.426 312.061 L1027.81 154.202 L1320.86 172.333 L1613.91 233.637 L2001.3 245.576 L2294.35 223.767 L2294.35 1338.94 L2001.3 1372.3 L1613.91 1326.63 L1320.86 1359.93 L1027.81 1349.87 L640.426 1319.01 L347.378 1314.51  Z" fill="#009af9" fill-rule="evenodd" fill-opacity="0.2"/>
<polyline clip-path="url(#clip292)" style="stroke:#009af9; stroke-linecap:round; stroke-linejoin:round; stroke-width:4; stroke-opacity:0.2; fill:none" points="347.378,85.838 640.426,312.061 1027.81,154.202 1320.86,172.333 1613.91,233.637 2001.3,245.576 2294.35,223.767 "/>
<path clip-path="url(#clip292)" d="M347.378 414.252 L640.426 421.064 L1027.81 403.685 L1320.86 409.587 L1613.91 427.595 L2001.3 443.985 L2294.35 499.223 L2294.35 1028.92 L2001.3 1095.3 L1613.91 1004.81 L1320.86 1076.64 L1027.81 1058.22 L640.426 1049.79 L347.378 1085.27  Z" fill="#e26f46" fill-rule="evenodd" fill-opacity="0.2"/>
<polyline clip-path="url(#clip292)" style="stroke:#e26f46; stroke-linecap:round; stroke-linejoin:round; stroke-width:4; stroke-opacity:0.2; fill:none" points="347.378,414.252 640.426,421.064 1027.81,403.685 1320.86,409.587 1613.91,427.595 2001.3,443.985 2294.35,499.223 "/>
<path clip-path="url(#clip292)" d="M347.378 414.143 L640.426 340.124 L1027.81 410.097 L1320.86 391.294 L1613.91 358.431 L2001.3 391.516 L2294.35 405.584 L2294.35 1046.79 L2001.3 1094.67 L1613.91 1083.28 L1320.86 1073.72 L1027.81 1038.42 L640.426 1126.01 L347.378 1100.84  Z" fill="#3da44d" fill-rule="evenodd" fill-opacity="0.2"/>
<polyline clip-path="url(#clip292)" style="stroke:#3da44d; stroke-linecap:round; stroke-linejoin:round; stroke-width:4; stroke-opacity:0.2; fill:none" points="347.378,414.143 640.426,340.124 1027.81,410.097 1320.86,391.294 1613.91,358.431 2001.3,391.516 2294.35,405.584 "/>
<circle clip-path="url(#clip292)" cx="347.378" cy="660.392" r="14.4" fill="#009af9" fill-rule="evenodd" fill-opacity="1" stroke="#000000" stroke-opacity="1" stroke-width="3.2"/>
<circle clip-path="url(#clip292)" cx="640.426" cy="734.002" r="14.4" fill="#009af9" fill-rule="evenodd" fill-opacity="1" stroke="#000000" stroke-opacity="1" stroke-width="3.2"/>
<circle clip-path="url(#clip292)" cx="1027.81" cy="675.144" r="14.4" fill="#009af9" fill-rule="evenodd" fill-opacity="1" stroke="#000000" stroke-opacity="1" stroke-width="3.2"/>
<circle clip-path="url(#clip292)" cx="1320.86" cy="692.362" r="14.4" fill="#009af9" fill-rule="evenodd" fill-opacity="1" stroke="#000000" stroke-opacity="1" stroke-width="3.2"/>
<circle clip-path="url(#clip292)" cx="1613.91" cy="713.666" r="14.4" fill="#009af9" fill-rule="evenodd" fill-opacity="1" stroke="#000000" stroke-opacity="1" stroke-width="3.2"/>
<circle clip-path="url(#clip292)" cx="2001.3" cy="719.413" r="14.4" fill="#009af9" fill-rule="evenodd" fill-opacity="1" stroke="#000000" stroke-opacity="1" stroke-width="3.2"/>
<circle clip-path="url(#clip292)" cx="2294.35" cy="652.8" r="14.4" fill="#009af9" fill-rule="evenodd" fill-opacity="1" stroke="#000000" stroke-opacity="1" stroke-width="3.2"/>
<circle clip-path="url(#clip292)" cx="347.378" cy="723.271" r="14.4" fill="#e26f46" fill-rule="evenodd" fill-opacity="1" stroke="#000000" stroke-opacity="1" stroke-width="3.2"/>
<circle clip-path="url(#clip292)" cx="640.426" cy="710.249" r="14.4" fill="#e26f46" fill-rule="evenodd" fill-opacity="1" stroke="#000000" stroke-opacity="1" stroke-width="3.2"/>
<circle clip-path="url(#clip292)" cx="1027.81" cy="703.189" r="14.4" fill="#e26f46" fill-rule="evenodd" fill-opacity="1" stroke="#000000" stroke-opacity="1" stroke-width="3.2"/>
<circle clip-path="url(#clip292)" cx="1320.86" cy="727.228" r="14.4" fill="#e26f46" fill-rule="evenodd" fill-opacity="1" stroke="#000000" stroke-opacity="1" stroke-width="3.2"/>
<circle clip-path="url(#clip292)" cx="1613.91" cy="691.117" r="14.4" fill="#e26f46" fill-rule="evenodd" fill-opacity="1" stroke="#000000" stroke-opacity="1" stroke-width="3.2"/>
<circle clip-path="url(#clip292)" cx="2001.3" cy="729.328" r="14.4" fill="#e26f46" fill-rule="evenodd" fill-opacity="1" stroke="#000000" stroke-opacity="1" stroke-width="3.2"/>
<circle clip-path="url(#clip292)" cx="2294.35" cy="742.695" r="14.4" fill="#e26f46" fill-rule="evenodd" fill-opacity="1" stroke="#000000" stroke-opacity="1" stroke-width="3.2"/>
<circle clip-path="url(#clip292)" cx="347.378" cy="706.401" r="14.4" fill="#3da44d" fill-rule="evenodd" fill-opacity="1" stroke="#000000" stroke-opacity="1" stroke-width="3.2"/>
<circle clip-path="url(#clip292)" cx="640.426" cy="701.573" r="14.4" fill="#3da44d" fill-rule="evenodd" fill-opacity="1" stroke="#000000" stroke-opacity="1" stroke-width="3.2"/>
<circle clip-path="url(#clip292)" cx="1027.81" cy="714.24" r="14.4" fill="#3da44d" fill-rule="evenodd" fill-opacity="1" stroke="#000000" stroke-opacity="1" stroke-width="3.2"/>
<circle clip-path="url(#clip292)" cx="1320.86" cy="726.589" r="14.4" fill="#3da44d" fill-rule="evenodd" fill-opacity="1" stroke="#000000" stroke-opacity="1" stroke-width="3.2"/>
<circle clip-path="url(#clip292)" cx="1613.91" cy="717.218" r="14.4" fill="#3da44d" fill-rule="evenodd" fill-opacity="1" stroke="#000000" stroke-opacity="1" stroke-width="3.2"/>
<circle clip-path="url(#clip292)" cx="2001.3" cy="720.408" r="14.4" fill="#3da44d" fill-rule="evenodd" fill-opacity="1" stroke="#000000" stroke-opacity="1" stroke-width="3.2"/>
<circle clip-path="url(#clip292)" cx="2294.35" cy="732.805" r="14.4" fill="#3da44d" fill-rule="evenodd" fill-opacity="1" stroke="#000000" stroke-opacity="1" stroke-width="3.2"/>
<polyline clip-path="url(#clip292)" style="stroke:#c271d2; stroke-linecap:round; stroke-linejoin:round; stroke-width:8; stroke-opacity:1; fill:none" points="347.378,726.137 640.426,726.137 1027.81,726.137 1320.86,726.137 1613.91,726.137 2001.3,726.137 2294.35,726.137 "/>
<path clip-path="url(#clip290)" d="M1805.92 1365.44 L2283.96 1365.44 L2283.96 1106.24 L1805.92 1106.24  Z" fill="#ffffff" fill-rule="evenodd" fill-opacity="1"/>
<polyline clip-path="url(#clip290)" style="stroke:#000000; stroke-linecap:round; stroke-linejoin:round; stroke-width:4; stroke-opacity:1; fill:none" points="1805.92,1365.44 2283.96,1365.44 2283.96,1106.24 1805.92,1106.24 1805.92,1365.44 "/>
<path clip-path="url(#clip290)" d="M1828.85 1178.82 L1966.44 1178.82 L1966.44 1137.35 L1828.85 1137.35 L1828.85 1178.82  Z" fill="#009af9" fill-rule="evenodd" fill-opacity="0.2"/>
<polyline clip-path="url(#clip290)" style="stroke:#009af9; stroke-linecap:round; stroke-linejoin:round; stroke-width:4; stroke-opacity:0.2; fill:none" points="1828.85,1137.35 1966.44,1137.35 "/>
<path clip-path="url(#clip290)" d="M2011.61 1141.94 L2011.61 1146.5 Q2008.95 1145.22 2006.59 1144.6 Q2004.23 1143.97 2002.03 1143.97 Q1998.21 1143.97 1996.13 1145.45 Q1994.07 1146.94 1994.07 1149.67 Q1994.07 1151.96 1995.43 1153.14 Q1996.82 1154.3 2000.66 1155.01 L2003.49 1155.59 Q2008.72 1156.59 2011.2 1159.11 Q2013.7 1161.61 2013.7 1165.82 Q2013.7 1170.85 2010.32 1173.44 Q2006.96 1176.03 2000.45 1176.03 Q1998 1176.03 1995.22 1175.48 Q1992.47 1174.92 1989.51 1173.83 L1989.51 1169.02 Q1992.35 1170.62 1995.08 1171.43 Q1997.82 1172.24 2000.45 1172.24 Q2004.46 1172.24 2006.64 1170.66 Q2008.81 1169.09 2008.81 1166.17 Q2008.81 1163.63 2007.24 1162.19 Q2005.69 1160.76 2002.12 1160.04 L1999.27 1159.48 Q1994.04 1158.44 1991.7 1156.22 Q1989.37 1154 1989.37 1150.04 Q1989.37 1145.45 1992.58 1142.82 Q1995.83 1140.18 2001.5 1140.18 Q2003.93 1140.18 2006.45 1140.62 Q2008.97 1141.06 2011.61 1141.94 Z" fill="#000000" fill-rule="nonzero" fill-opacity="1" /><path clip-path="url(#clip290)" d="M2020.36 1165.13 L2020.36 1149.44 L2024.62 1149.44 L2024.62 1164.97 Q2024.62 1168.65 2026.06 1170.5 Q2027.49 1172.33 2030.36 1172.33 Q2033.81 1172.33 2035.8 1170.13 Q2037.82 1167.93 2037.82 1164.13 L2037.82 1149.44 L2042.07 1149.44 L2042.07 1175.36 L2037.82 1175.36 L2037.82 1171.38 Q2036.26 1173.74 2034.2 1174.9 Q2032.17 1176.03 2029.46 1176.03 Q2024.99 1176.03 2022.68 1173.26 Q2020.36 1170.48 2020.36 1165.13 M2031.08 1148.81 L2031.08 1148.81 Z" fill="#000000" fill-rule="nonzero" fill-opacity="1" /><path clip-path="url(#clip290)" d="M2069.46 1162.42 Q2069.46 1157.72 2067.51 1155.06 Q2065.59 1152.38 2062.21 1152.38 Q2058.83 1152.38 2056.89 1155.06 Q2054.97 1157.72 2054.97 1162.42 Q2054.97 1167.12 2056.89 1169.81 Q2058.83 1172.47 2062.21 1172.47 Q2065.59 1172.47 2067.51 1169.81 Q2069.46 1167.12 2069.46 1162.42 M2054.97 1153.37 Q2056.31 1151.06 2058.35 1149.95 Q2060.41 1148.81 2063.26 1148.81 Q2067.98 1148.81 2070.92 1152.56 Q2073.88 1156.31 2073.88 1162.42 Q2073.88 1168.53 2070.92 1172.28 Q2067.98 1176.03 2063.26 1176.03 Q2060.41 1176.03 2058.35 1174.92 Q2056.31 1173.79 2054.97 1171.47 L2054.97 1175.36 L2050.69 1175.36 L2050.69 1139.34 L2054.97 1139.34 L2054.97 1153.37 Z" fill="#000000" fill-rule="nonzero" fill-opacity="1" /><path clip-path="url(#clip290)" d="M2101.84 1141.94 L2101.84 1146.5 Q2099.18 1145.22 2096.82 1144.6 Q2094.46 1143.97 2092.26 1143.97 Q2088.44 1143.97 2086.36 1145.45 Q2084.3 1146.94 2084.3 1149.67 Q2084.3 1151.96 2085.66 1153.14 Q2087.05 1154.3 2090.89 1155.01 L2093.72 1155.59 Q2098.95 1156.59 2101.43 1159.11 Q2103.93 1161.61 2103.93 1165.82 Q2103.93 1170.85 2100.55 1173.44 Q2097.19 1176.03 2090.69 1176.03 Q2088.23 1176.03 2085.45 1175.48 Q2082.7 1174.92 2079.74 1173.83 L2079.74 1169.02 Q2082.58 1170.62 2085.32 1171.43 Q2088.05 1172.24 2090.69 1172.24 Q2094.69 1172.24 2096.87 1170.66 Q2099.04 1169.09 2099.04 1166.17 Q2099.04 1163.63 2097.47 1162.19 Q2095.92 1160.76 2092.35 1160.04 L2089.51 1159.48 Q2084.27 1158.44 2081.94 1156.22 Q2079.6 1154 2079.6 1150.04 Q2079.6 1145.45 2082.82 1142.82 Q2086.06 1140.18 2091.73 1140.18 Q2094.16 1140.18 2096.68 1140.62 Q2099.2 1141.06 2101.84 1141.94 Z" fill="#000000" fill-rule="nonzero" fill-opacity="1" /><path clip-path="url(#clip290)" d="M2133.21 1161.33 L2133.21 1163.42 L2113.63 1163.42 Q2113.9 1167.82 2116.26 1170.13 Q2118.65 1172.42 2122.88 1172.42 Q2125.34 1172.42 2127.63 1171.82 Q2129.94 1171.22 2132.21 1170.01 L2132.21 1174.04 Q2129.92 1175.01 2127.51 1175.52 Q2125.11 1176.03 2122.63 1176.03 Q2116.43 1176.03 2112.79 1172.42 Q2109.18 1168.81 2109.18 1162.65 Q2109.18 1156.29 2112.61 1152.56 Q2116.06 1148.81 2121.89 1148.81 Q2127.12 1148.81 2130.15 1152.19 Q2133.21 1155.55 2133.21 1161.33 M2128.95 1160.08 Q2128.9 1156.59 2126.98 1154.51 Q2125.08 1152.42 2121.94 1152.42 Q2118.37 1152.42 2116.22 1154.44 Q2114.09 1156.45 2113.76 1160.11 L2128.95 1160.08 Z" fill="#000000" fill-rule="nonzero" fill-opacity="1" /><path clip-path="url(#clip290)" d="M2144.41 1142.07 L2144.41 1149.44 L2153.19 1149.44 L2153.19 1152.75 L2144.41 1152.75 L2144.41 1166.82 Q2144.41 1169.99 2145.27 1170.89 Q2146.15 1171.8 2148.81 1171.8 L2153.19 1171.8 L2153.19 1175.36 L2148.81 1175.36 Q2143.88 1175.36 2142 1173.53 Q2140.13 1171.68 2140.13 1166.82 L2140.13 1152.75 L2137 1152.75 L2137 1149.44 L2140.13 1149.44 L2140.13 1142.07 L2144.41 1142.07 Z" fill="#000000" fill-rule="nonzero" fill-opacity="1" /><path clip-path="url(#clip290)" d="M2156.63 1160.48 L2169.11 1160.48 L2169.11 1164.27 L2156.63 1164.27 L2156.63 1160.48 Z" fill="#000000" fill-rule="nonzero" fill-opacity="1" /><path clip-path="url(#clip290)" d="M2176.08 1140.8 L2183.05 1140.8 L2191.87 1164.32 L2200.73 1140.8 L2207.7 1140.8 L2207.7 1175.36 L2203.14 1175.36 L2203.14 1145.01 L2194.23 1168.72 L2189.53 1168.72 L2180.62 1145.01 L2180.62 1175.36 L2176.08 1175.36 L2176.08 1140.8 Z" fill="#000000" fill-rule="nonzero" fill-opacity="1" /><path clip-path="url(#clip290)" d="M2216.98 1140.8 L2221.66 1140.8 L2221.66 1154.97 L2238.65 1154.97 L2238.65 1140.8 L2243.32 1140.8 L2243.32 1175.36 L2238.65 1175.36 L2238.65 1158.9 L2221.66 1158.9 L2221.66 1175.36 L2216.98 1175.36 L2216.98 1140.8 Z" fill="#000000" fill-rule="nonzero" fill-opacity="1" /><path clip-path="url(#clip290)" d="M1828.85 1230.66 L1966.44 1230.66 L1966.44 1189.19 L1828.85 1189.19 L1828.85 1230.66  Z" fill="#e26f46" fill-rule="evenodd" fill-opacity="0.2"/>
<polyline clip-path="url(#clip290)" style="stroke:#e26f46; stroke-linecap:round; stroke-linejoin:round; stroke-width:4; stroke-opacity:0.2; fill:none" points="1828.85,1189.19 1966.44,1189.19 "/>
<path clip-path="url(#clip290)" d="M2011.61 1193.78 L2011.61 1198.34 Q2008.95 1197.06 2006.59 1196.44 Q2004.23 1195.81 2002.03 1195.81 Q1998.21 1195.81 1996.13 1197.29 Q1994.07 1198.78 1994.07 1201.51 Q1994.07 1203.8 1995.43 1204.98 Q1996.82 1206.14 2000.66 1206.85 L2003.49 1207.43 Q2008.72 1208.43 2011.2 1210.95 Q2013.7 1213.45 2013.7 1217.66 Q2013.7 1222.69 2010.32 1225.28 Q2006.96 1227.87 2000.45 1227.87 Q1998 1227.87 1995.22 1227.32 Q1992.47 1226.76 1989.51 1225.67 L1989.51 1220.86 Q1992.35 1222.46 1995.08 1223.27 Q1997.82 1224.08 2000.45 1224.08 Q2004.46 1224.08 2006.64 1222.5 Q2008.81 1220.93 2008.81 1218.01 Q2008.81 1215.47 2007.24 1214.03 Q2005.69 1212.6 2002.12 1211.88 L1999.27 1211.32 Q1994.04 1210.28 1991.7 1208.06 Q1989.37 1205.84 1989.37 1201.88 Q1989.37 1197.29 1992.58 1194.66 Q1995.83 1192.02 2001.5 1192.02 Q2003.93 1192.02 2006.45 1192.46 Q2008.97 1192.9 2011.61 1193.78 Z" fill="#000000" fill-rule="nonzero" fill-opacity="1" /><path clip-path="url(#clip290)" d="M2020.36 1216.97 L2020.36 1201.28 L2024.62 1201.28 L2024.62 1216.81 Q2024.62 1220.49 2026.06 1222.34 Q2027.49 1224.17 2030.36 1224.17 Q2033.81 1224.17 2035.8 1221.97 Q2037.82 1219.77 2037.82 1215.97 L2037.82 1201.28 L2042.07 1201.28 L2042.07 1227.2 L2037.82 1227.2 L2037.82 1223.22 Q2036.26 1225.58 2034.2 1226.74 Q2032.17 1227.87 2029.46 1227.87 Q2024.99 1227.87 2022.68 1225.1 Q2020.36 1222.32 2020.36 1216.97 M2031.08 1200.65 L2031.08 1200.65 Z" fill="#000000" fill-rule="nonzero" fill-opacity="1" /><path clip-path="url(#clip290)" d="M2069.46 1214.26 Q2069.46 1209.56 2067.51 1206.9 Q2065.59 1204.22 2062.21 1204.22 Q2058.83 1204.22 2056.89 1206.9 Q2054.97 1209.56 2054.97 1214.26 Q2054.97 1218.96 2056.89 1221.65 Q2058.83 1224.31 2062.21 1224.31 Q2065.59 1224.31 2067.51 1221.65 Q2069.46 1218.96 2069.46 1214.26 M2054.97 1205.21 Q2056.31 1202.9 2058.35 1201.79 Q2060.41 1200.65 2063.26 1200.65 Q2067.98 1200.65 2070.92 1204.4 Q2073.88 1208.15 2073.88 1214.26 Q2073.88 1220.37 2070.92 1224.12 Q2067.98 1227.87 2063.26 1227.87 Q2060.41 1227.87 2058.35 1226.76 Q2056.31 1225.63 2054.97 1223.31 L2054.97 1227.2 L2050.69 1227.2 L2050.69 1191.18 L2054.97 1191.18 L2054.97 1205.21 Z" fill="#000000" fill-rule="nonzero" fill-opacity="1" /><path clip-path="url(#clip290)" d="M2101.84 1193.78 L2101.84 1198.34 Q2099.18 1197.06 2096.82 1196.44 Q2094.46 1195.81 2092.26 1195.81 Q2088.44 1195.81 2086.36 1197.29 Q2084.3 1198.78 2084.3 1201.51 Q2084.3 1203.8 2085.66 1204.98 Q2087.05 1206.14 2090.89 1206.85 L2093.72 1207.43 Q2098.95 1208.43 2101.43 1210.95 Q2103.93 1213.45 2103.93 1217.66 Q2103.93 1222.69 2100.55 1225.28 Q2097.19 1227.87 2090.69 1227.87 Q2088.23 1227.87 2085.45 1227.32 Q2082.7 1226.76 2079.74 1225.67 L2079.74 1220.86 Q2082.58 1222.46 2085.32 1223.27 Q2088.05 1224.08 2090.69 1224.08 Q2094.69 1224.08 2096.87 1222.5 Q2099.04 1220.93 2099.04 1218.01 Q2099.04 1215.47 2097.47 1214.03 Q2095.92 1212.6 2092.35 1211.88 L2089.51 1211.32 Q2084.27 1210.28 2081.94 1208.06 Q2079.6 1205.84 2079.6 1201.88 Q2079.6 1197.29 2082.82 1194.66 Q2086.06 1192.02 2091.73 1192.02 Q2094.16 1192.02 2096.68 1192.46 Q2099.2 1192.9 2101.84 1193.78 Z" fill="#000000" fill-rule="nonzero" fill-opacity="1" /><path clip-path="url(#clip290)" d="M2133.21 1213.17 L2133.21 1215.26 L2113.63 1215.26 Q2113.9 1219.66 2116.26 1221.97 Q2118.65 1224.26 2122.88 1224.26 Q2125.34 1224.26 2127.63 1223.66 Q2129.94 1223.06 2132.21 1221.85 L2132.21 1225.88 Q2129.92 1226.85 2127.51 1227.36 Q2125.11 1227.87 2122.63 1227.87 Q2116.43 1227.87 2112.79 1224.26 Q2109.18 1220.65 2109.18 1214.49 Q2109.18 1208.13 2112.61 1204.4 Q2116.06 1200.65 2121.89 1200.65 Q2127.12 1200.65 2130.15 1204.03 Q2133.21 1207.39 2133.21 1213.17 M2128.95 1211.92 Q2128.9 1208.43 2126.98 1206.35 Q2125.08 1204.26 2121.94 1204.26 Q2118.37 1204.26 2116.22 1206.28 Q2114.09 1208.29 2113.76 1211.95 L2128.95 1211.92 Z" fill="#000000" fill-rule="nonzero" fill-opacity="1" /><path clip-path="url(#clip290)" d="M2144.41 1193.91 L2144.41 1201.28 L2153.19 1201.28 L2153.19 1204.59 L2144.41 1204.59 L2144.41 1218.66 Q2144.41 1221.83 2145.27 1222.73 Q2146.15 1223.64 2148.81 1223.64 L2153.19 1223.64 L2153.19 1227.2 L2148.81 1227.2 Q2143.88 1227.2 2142 1225.37 Q2140.13 1223.52 2140.13 1218.66 L2140.13 1204.59 L2137 1204.59 L2137 1201.28 L2140.13 1201.28 L2140.13 1193.91 L2144.41 1193.91 Z" fill="#000000" fill-rule="nonzero" fill-opacity="1" /><path clip-path="url(#clip290)" d="M2156.63 1212.32 L2169.11 1212.32 L2169.11 1216.11 L2156.63 1216.11 L2156.63 1212.32 Z" fill="#000000" fill-rule="nonzero" fill-opacity="1" /><path clip-path="url(#clip290)" d="M2201.96 1195.3 L2201.96 1200.23 Q2199.6 1198.04 2196.91 1196.95 Q2194.25 1195.86 2191.24 1195.86 Q2185.31 1195.86 2182.17 1199.49 Q2179.02 1203.1 2179.02 1209.96 Q2179.02 1216.78 2182.17 1220.42 Q2185.31 1224.03 2191.24 1224.03 Q2194.25 1224.03 2196.91 1222.94 Q2199.6 1221.85 2201.96 1219.66 L2201.96 1224.54 Q2199.5 1226.21 2196.75 1227.04 Q2194.02 1227.87 2190.96 1227.87 Q2183.12 1227.87 2178.6 1223.08 Q2174.09 1218.27 2174.09 1209.96 Q2174.09 1201.62 2178.6 1196.83 Q2183.12 1192.02 2190.96 1192.02 Q2194.06 1192.02 2196.8 1192.85 Q2199.55 1193.66 2201.96 1195.3 Z" fill="#000000" fill-rule="nonzero" fill-opacity="1" /><path clip-path="url(#clip290)" d="M2229.9 1193.78 L2229.9 1198.34 Q2227.24 1197.06 2224.87 1196.44 Q2222.51 1195.81 2220.31 1195.81 Q2216.5 1195.81 2214.41 1197.29 Q2212.35 1198.78 2212.35 1201.51 Q2212.35 1203.8 2213.72 1204.98 Q2215.11 1206.14 2218.95 1206.85 L2221.77 1207.43 Q2227 1208.43 2229.48 1210.95 Q2231.98 1213.45 2231.98 1217.66 Q2231.98 1222.69 2228.6 1225.28 Q2225.25 1227.87 2218.74 1227.87 Q2216.29 1227.87 2213.51 1227.32 Q2210.75 1226.76 2207.79 1225.67 L2207.79 1220.86 Q2210.64 1222.46 2213.37 1223.27 Q2216.1 1224.08 2218.74 1224.08 Q2222.75 1224.08 2224.92 1222.5 Q2227.1 1220.93 2227.1 1218.01 Q2227.1 1215.47 2225.52 1214.03 Q2223.97 1212.6 2220.41 1211.88 L2217.56 1211.32 Q2212.33 1210.28 2209.99 1208.06 Q2207.65 1205.84 2207.65 1201.88 Q2207.65 1197.29 2210.87 1194.66 Q2214.11 1192.02 2219.78 1192.02 Q2222.21 1192.02 2224.74 1192.46 Q2227.26 1192.9 2229.9 1193.78 Z" fill="#000000" fill-rule="nonzero" fill-opacity="1" /><path clip-path="url(#clip290)" d="M1828.85 1282.5 L1966.44 1282.5 L1966.44 1241.03 L1828.85 1241.03 L1828.85 1282.5  Z" fill="#3da44d" fill-rule="evenodd" fill-opacity="0.2"/>
<polyline clip-path="url(#clip290)" style="stroke:#3da44d; stroke-linecap:round; stroke-linejoin:round; stroke-width:4; stroke-opacity:0.2; fill:none" points="1828.85,1241.03 1966.44,1241.03 "/>
<path clip-path="url(#clip290)" d="M2011.61 1245.62 L2011.61 1250.18 Q2008.95 1248.9 2006.59 1248.28 Q2004.23 1247.65 2002.03 1247.65 Q1998.21 1247.65 1996.13 1249.13 Q1994.07 1250.62 1994.07 1253.35 Q1994.07 1255.64 1995.43 1256.82 Q1996.82 1257.98 2000.66 1258.69 L2003.49 1259.27 Q2008.72 1260.27 2011.2 1262.79 Q2013.7 1265.29 2013.7 1269.5 Q2013.7 1274.53 2010.32 1277.12 Q2006.96 1279.71 2000.45 1279.71 Q1998 1279.71 1995.22 1279.16 Q1992.47 1278.6 1989.51 1277.51 L1989.51 1272.7 Q1992.35 1274.3 1995.08 1275.11 Q1997.82 1275.92 2000.45 1275.92 Q2004.46 1275.92 2006.64 1274.34 Q2008.81 1272.77 2008.81 1269.85 Q2008.81 1267.31 2007.24 1265.87 Q2005.69 1264.44 2002.12 1263.72 L1999.27 1263.16 Q1994.04 1262.12 1991.7 1259.9 Q1989.37 1257.68 1989.37 1253.72 Q1989.37 1249.13 1992.58 1246.5 Q1995.83 1243.86 2001.5 1243.86 Q2003.93 1243.86 2006.45 1244.3 Q2008.97 1244.74 2011.61 1245.62 Z" fill="#000000" fill-rule="nonzero" fill-opacity="1" /><path clip-path="url(#clip290)" d="M2020.36 1268.81 L2020.36 1253.12 L2024.62 1253.12 L2024.62 1268.65 Q2024.62 1272.33 2026.06 1274.18 Q2027.49 1276.01 2030.36 1276.01 Q2033.81 1276.01 2035.8 1273.81 Q2037.82 1271.61 2037.82 1267.81 L2037.82 1253.12 L2042.07 1253.12 L2042.07 1279.04 L2037.82 1279.04 L2037.82 1275.06 Q2036.26 1277.42 2034.2 1278.58 Q2032.17 1279.71 2029.46 1279.71 Q2024.99 1279.71 2022.68 1276.94 Q2020.36 1274.16 2020.36 1268.81 M2031.08 1252.49 L2031.08 1252.49 Z" fill="#000000" fill-rule="nonzero" fill-opacity="1" /><path clip-path="url(#clip290)" d="M2069.46 1266.1 Q2069.46 1261.4 2067.51 1258.74 Q2065.59 1256.06 2062.21 1256.06 Q2058.83 1256.06 2056.89 1258.74 Q2054.97 1261.4 2054.97 1266.1 Q2054.97 1270.8 2056.89 1273.49 Q2058.83 1276.15 2062.21 1276.15 Q2065.59 1276.15 2067.51 1273.49 Q2069.46 1270.8 2069.46 1266.1 M2054.97 1257.05 Q2056.31 1254.74 2058.35 1253.63 Q2060.41 1252.49 2063.26 1252.49 Q2067.98 1252.49 2070.92 1256.24 Q2073.88 1259.99 2073.88 1266.1 Q2073.88 1272.21 2070.92 1275.96 Q2067.98 1279.71 2063.26 1279.71 Q2060.41 1279.71 2058.35 1278.6 Q2056.31 1277.47 2054.97 1275.15 L2054.97 1279.04 L2050.69 1279.04 L2050.69 1243.02 L2054.97 1243.02 L2054.97 1257.05 Z" fill="#000000" fill-rule="nonzero" fill-opacity="1" /><path clip-path="url(#clip290)" d="M2101.84 1245.62 L2101.84 1250.18 Q2099.18 1248.9 2096.82 1248.28 Q2094.46 1247.65 2092.26 1247.65 Q2088.44 1247.65 2086.36 1249.13 Q2084.3 1250.62 2084.3 1253.35 Q2084.3 1255.64 2085.66 1256.82 Q2087.05 1257.98 2090.89 1258.69 L2093.72 1259.27 Q2098.95 1260.27 2101.43 1262.79 Q2103.93 1265.29 2103.93 1269.5 Q2103.93 1274.53 2100.55 1277.12 Q2097.19 1279.71 2090.69 1279.71 Q2088.23 1279.71 2085.45 1279.16 Q2082.7 1278.6 2079.74 1277.51 L2079.74 1272.7 Q2082.58 1274.3 2085.32 1275.11 Q2088.05 1275.92 2090.69 1275.92 Q2094.69 1275.92 2096.87 1274.34 Q2099.04 1272.77 2099.04 1269.85 Q2099.04 1267.31 2097.47 1265.87 Q2095.92 1264.44 2092.35 1263.72 L2089.51 1263.16 Q2084.27 1262.12 2081.94 1259.9 Q2079.6 1257.68 2079.6 1253.72 Q2079.6 1249.13 2082.82 1246.5 Q2086.06 1243.86 2091.73 1243.86 Q2094.16 1243.86 2096.68 1244.3 Q2099.2 1244.74 2101.84 1245.62 Z" fill="#000000" fill-rule="nonzero" fill-opacity="1" /><path clip-path="url(#clip290)" d="M2133.21 1265.01 L2133.21 1267.1 L2113.63 1267.1 Q2113.9 1271.5 2116.26 1273.81 Q2118.65 1276.1 2122.88 1276.1 Q2125.34 1276.1 2127.63 1275.5 Q2129.94 1274.9 2132.21 1273.69 L2132.21 1277.72 Q2129.92 1278.69 2127.51 1279.2 Q2125.11 1279.71 2122.63 1279.71 Q2116.43 1279.71 2112.79 1276.1 Q2109.18 1272.49 2109.18 1266.33 Q2109.18 1259.97 2112.61 1256.24 Q2116.06 1252.49 2121.89 1252.49 Q2127.12 1252.49 2130.15 1255.87 Q2133.21 1259.23 2133.21 1265.01 M2128.95 1263.76 Q2128.9 1260.27 2126.98 1258.19 Q2125.08 1256.1 2121.94 1256.1 Q2118.37 1256.1 2116.22 1258.12 Q2114.09 1260.13 2113.76 1263.79 L2128.95 1263.76 Z" fill="#000000" fill-rule="nonzero" fill-opacity="1" /><path clip-path="url(#clip290)" d="M2144.41 1245.75 L2144.41 1253.12 L2153.19 1253.12 L2153.19 1256.43 L2144.41 1256.43 L2144.41 1270.5 Q2144.41 1273.67 2145.27 1274.57 Q2146.15 1275.48 2148.81 1275.48 L2153.19 1275.48 L2153.19 1279.04 L2148.81 1279.04 Q2143.88 1279.04 2142 1277.21 Q2140.13 1275.36 2140.13 1270.5 L2140.13 1256.43 L2137 1256.43 L2137 1253.12 L2140.13 1253.12 L2140.13 1245.75 L2144.41 1245.75 Z" fill="#000000" fill-rule="nonzero" fill-opacity="1" /><path clip-path="url(#clip290)" d="M2156.63 1264.16 L2169.11 1264.16 L2169.11 1267.95 L2156.63 1267.95 L2156.63 1264.16 Z" fill="#000000" fill-rule="nonzero" fill-opacity="1" /><path clip-path="url(#clip290)" d="M2187.68 1266.01 Q2182.51 1266.01 2180.52 1267.19 Q2178.53 1268.37 2178.53 1271.22 Q2178.53 1273.49 2180.01 1274.83 Q2181.52 1276.15 2184.09 1276.15 Q2187.63 1276.15 2189.76 1273.65 Q2191.91 1271.12 2191.91 1266.96 L2191.91 1266.01 L2187.68 1266.01 M2196.17 1264.25 L2196.17 1279.04 L2191.91 1279.04 L2191.91 1275.11 Q2190.45 1277.47 2188.28 1278.6 Q2186.1 1279.71 2182.95 1279.71 Q2178.97 1279.71 2176.61 1277.49 Q2174.27 1275.25 2174.27 1271.5 Q2174.27 1267.12 2177.19 1264.9 Q2180.13 1262.68 2185.94 1262.68 L2191.91 1262.68 L2191.91 1262.26 Q2191.91 1259.32 2189.97 1257.72 Q2188.05 1256.1 2184.55 1256.1 Q2182.33 1256.1 2180.22 1256.63 Q2178.12 1257.17 2176.17 1258.23 L2176.17 1254.3 Q2178.51 1253.39 2180.71 1252.95 Q2182.91 1252.49 2184.99 1252.49 Q2190.62 1252.49 2193.39 1255.41 Q2196.17 1258.32 2196.17 1264.25 Z" fill="#000000" fill-rule="nonzero" fill-opacity="1" /><path clip-path="url(#clip290)" d="M2231.01 1247.14 L2231.01 1252.07 Q2228.65 1249.88 2225.96 1248.79 Q2223.3 1247.7 2220.29 1247.7 Q2214.37 1247.7 2211.22 1251.33 Q2208.07 1254.94 2208.07 1261.8 Q2208.07 1268.62 2211.22 1272.26 Q2214.37 1275.87 2220.29 1275.87 Q2223.3 1275.87 2225.96 1274.78 Q2228.65 1273.69 2231.01 1271.5 L2231.01 1276.38 Q2228.56 1278.05 2225.8 1278.88 Q2223.07 1279.71 2220.01 1279.71 Q2212.17 1279.71 2207.65 1274.92 Q2203.14 1270.11 2203.14 1261.8 Q2203.14 1253.46 2207.65 1248.67 Q2212.17 1243.86 2220.01 1243.86 Q2223.12 1243.86 2225.85 1244.69 Q2228.6 1245.5 2231.01 1247.14 Z" fill="#000000" fill-rule="nonzero" fill-opacity="1" /><path clip-path="url(#clip290)" d="M2258.95 1245.62 L2258.95 1250.18 Q2256.29 1248.9 2253.93 1248.28 Q2251.56 1247.65 2249.37 1247.65 Q2245.55 1247.65 2243.46 1249.13 Q2241.4 1250.62 2241.4 1253.35 Q2241.4 1255.64 2242.77 1256.82 Q2244.16 1257.98 2248 1258.69 L2250.82 1259.27 Q2256.06 1260.27 2258.53 1262.79 Q2261.03 1265.29 2261.03 1269.5 Q2261.03 1274.53 2257.65 1277.12 Q2254.3 1279.71 2247.79 1279.71 Q2245.34 1279.71 2242.56 1279.16 Q2239.81 1278.6 2236.84 1277.51 L2236.84 1272.7 Q2239.69 1274.3 2242.42 1275.11 Q2245.15 1275.92 2247.79 1275.92 Q2251.8 1275.92 2253.97 1274.34 Q2256.15 1272.77 2256.15 1269.85 Q2256.15 1267.31 2254.57 1265.87 Q2253.02 1264.44 2249.46 1263.72 L2246.61 1263.16 Q2241.38 1262.12 2239.04 1259.9 Q2236.7 1257.68 2236.7 1253.72 Q2236.7 1249.13 2239.92 1246.5 Q2243.16 1243.86 2248.83 1243.86 Q2251.26 1243.86 2253.79 1244.3 Q2256.31 1244.74 2258.95 1245.62 Z" fill="#000000" fill-rule="nonzero" fill-opacity="1" /><polyline clip-path="url(#clip290)" style="stroke:#c271d2; stroke-linecap:round; stroke-linejoin:round; stroke-width:8; stroke-opacity:1; fill:none" points="1828.85,1313.6 1966.44,1313.6 "/>
<path clip-path="url(#clip290)" d="M1996.77 1297.59 L1996.77 1304.96 L2005.55 1304.96 L2005.55 1308.27 L1996.77 1308.27 L1996.77 1322.34 Q1996.77 1325.51 1997.63 1326.41 Q1998.51 1327.32 2001.17 1327.32 L2005.55 1327.32 L2005.55 1330.88 L2001.17 1330.88 Q1996.24 1330.88 1994.37 1329.05 Q1992.49 1327.2 1992.49 1322.34 L1992.49 1308.27 L1989.37 1308.27 L1989.37 1304.96 L1992.49 1304.96 L1992.49 1297.59 L1996.77 1297.59 Z" fill="#000000" fill-rule="nonzero" fill-opacity="1" /><path clip-path="url(#clip290)" d="M2022.93 1317.85 Q2017.77 1317.85 2015.78 1319.03 Q2013.79 1320.21 2013.79 1323.06 Q2013.79 1325.33 2015.27 1326.67 Q2016.77 1327.99 2019.34 1327.99 Q2022.89 1327.99 2025.01 1325.49 Q2027.17 1322.96 2027.17 1318.8 L2027.17 1317.85 L2022.93 1317.85 M2031.43 1316.09 L2031.43 1330.88 L2027.17 1330.88 L2027.17 1326.95 Q2025.71 1329.31 2023.53 1330.44 Q2021.36 1331.55 2018.21 1331.55 Q2014.23 1331.55 2011.87 1329.33 Q2009.53 1327.09 2009.53 1323.34 Q2009.53 1318.96 2012.45 1316.74 Q2015.39 1314.52 2021.2 1314.52 L2027.17 1314.52 L2027.17 1314.1 Q2027.17 1311.16 2025.22 1309.56 Q2023.3 1307.94 2019.81 1307.94 Q2017.58 1307.94 2015.48 1308.47 Q2013.37 1309.01 2011.43 1310.07 L2011.43 1306.14 Q2013.76 1305.23 2015.96 1304.79 Q2018.16 1304.33 2020.25 1304.33 Q2025.87 1304.33 2028.65 1307.25 Q2031.43 1310.16 2031.43 1316.09 Z" fill="#000000" fill-rule="nonzero" fill-opacity="1" /><path clip-path="url(#clip290)" d="M2055.22 1308.94 Q2054.51 1308.52 2053.65 1308.34 Q2052.82 1308.13 2051.8 1308.13 Q2048.19 1308.13 2046.24 1310.49 Q2044.32 1312.83 2044.32 1317.22 L2044.32 1330.88 L2040.04 1330.88 L2040.04 1304.96 L2044.32 1304.96 L2044.32 1308.98 Q2045.66 1306.62 2047.82 1305.49 Q2049.97 1304.33 2053.05 1304.33 Q2053.49 1304.33 2054.02 1304.4 Q2054.55 1304.45 2055.2 1304.56 L2055.22 1308.94 Z" fill="#000000" fill-rule="nonzero" fill-opacity="1" /><path clip-path="url(#clip290)" d="M2075.92 1317.62 Q2075.92 1312.99 2074 1310.44 Q2072.1 1307.9 2068.65 1307.9 Q2065.22 1307.9 2063.3 1310.44 Q2061.4 1312.99 2061.4 1317.62 Q2061.4 1322.22 2063.3 1324.77 Q2065.22 1327.32 2068.65 1327.32 Q2072.1 1327.32 2074 1324.77 Q2075.92 1322.22 2075.92 1317.62 M2080.18 1327.66 Q2080.18 1334.28 2077.24 1337.5 Q2074.3 1340.74 2068.23 1340.74 Q2065.99 1340.74 2064 1340.4 Q2062.01 1340.07 2060.13 1339.38 L2060.13 1335.23 Q2062.01 1336.25 2063.83 1336.74 Q2065.66 1337.22 2067.56 1337.22 Q2071.75 1337.22 2073.83 1335.03 Q2075.92 1332.85 2075.92 1328.43 L2075.92 1326.32 Q2074.6 1328.61 2072.54 1329.75 Q2070.48 1330.88 2067.61 1330.88 Q2062.84 1330.88 2059.92 1327.25 Q2057.01 1323.61 2057.01 1317.62 Q2057.01 1311.6 2059.92 1307.97 Q2062.84 1304.33 2067.61 1304.33 Q2070.48 1304.33 2072.54 1305.47 Q2074.6 1306.6 2075.92 1308.89 L2075.92 1304.96 L2080.18 1304.96 L2080.18 1327.66 Z" fill="#000000" fill-rule="nonzero" fill-opacity="1" /><path clip-path="url(#clip290)" d="M2111.13 1316.85 L2111.13 1318.94 L2091.54 1318.94 Q2091.82 1323.34 2094.18 1325.65 Q2096.57 1327.94 2100.8 1327.94 Q2103.26 1327.94 2105.55 1327.34 Q2107.86 1326.74 2110.13 1325.53 L2110.13 1329.56 Q2107.84 1330.53 2105.43 1331.04 Q2103.02 1331.55 2100.55 1331.55 Q2094.34 1331.55 2090.71 1327.94 Q2087.1 1324.33 2087.1 1318.17 Q2087.1 1311.81 2090.52 1308.08 Q2093.97 1304.33 2099.81 1304.33 Q2105.04 1304.33 2108.07 1307.71 Q2111.13 1311.07 2111.13 1316.85 M2106.87 1315.6 Q2106.82 1312.11 2104.9 1310.03 Q2103 1307.94 2099.85 1307.94 Q2096.29 1307.94 2094.13 1309.96 Q2092.01 1311.97 2091.68 1315.63 L2106.87 1315.6 Z" fill="#000000" fill-rule="nonzero" fill-opacity="1" /><path clip-path="url(#clip290)" d="M2122.33 1297.59 L2122.33 1304.96 L2131.1 1304.96 L2131.1 1308.27 L2122.33 1308.27 L2122.33 1322.34 Q2122.33 1325.51 2123.19 1326.41 Q2124.07 1327.32 2126.73 1327.32 L2131.1 1327.32 L2131.1 1330.88 L2126.73 1330.88 Q2121.8 1330.88 2119.92 1329.05 Q2118.05 1327.2 2118.05 1322.34 L2118.05 1308.27 L2114.92 1308.27 L2114.92 1304.96 L2118.05 1304.96 L2118.05 1297.59 L2122.33 1297.59 Z" fill="#000000" fill-rule="nonzero" fill-opacity="1" /><path clip-path="url(#clip290)" d="M2155.89 1326.99 L2155.89 1340.74 L2151.61 1340.74 L2151.61 1304.96 L2155.89 1304.96 L2155.89 1308.89 Q2157.24 1306.58 2159.27 1305.47 Q2161.33 1304.33 2164.18 1304.33 Q2168.9 1304.33 2171.84 1308.08 Q2174.81 1311.83 2174.81 1317.94 Q2174.81 1324.05 2171.84 1327.8 Q2168.9 1331.55 2164.18 1331.55 Q2161.33 1331.55 2159.27 1330.44 Q2157.24 1329.31 2155.89 1326.99 M2170.38 1317.94 Q2170.38 1313.24 2168.44 1310.58 Q2166.52 1307.9 2163.14 1307.9 Q2159.76 1307.9 2157.81 1310.58 Q2155.89 1313.24 2155.89 1317.94 Q2155.89 1322.64 2157.81 1325.33 Q2159.76 1327.99 2163.14 1327.99 Q2166.52 1327.99 2168.44 1325.33 Q2170.38 1322.64 2170.38 1317.94 Z" fill="#000000" fill-rule="nonzero" fill-opacity="1" /><path clip-path="url(#clip290)" d="M2194.99 1294.86 L2194.99 1298.4 L2190.92 1298.4 Q2188.63 1298.4 2187.72 1299.33 Q2186.84 1300.26 2186.84 1302.66 L2186.84 1304.96 L2193.86 1304.96 L2193.86 1308.27 L2186.84 1308.27 L2186.84 1330.88 L2182.56 1330.88 L2182.56 1308.27 L2178.49 1308.27 L2178.49 1304.96 L2182.56 1304.96 L2182.56 1303.15 Q2182.56 1298.82 2184.57 1296.85 Q2186.59 1294.86 2190.96 1294.86 L2194.99 1294.86 Z" fill="#000000" fill-rule="nonzero" fill-opacity="1" /></svg>
