<?xml version="1.0" encoding="utf-8"?>
<svg xmlns="http://www.w3.org/2000/svg" xmlns:xlink="http://www.w3.org/1999/xlink" width="600" height="400" viewBox="0 0 2400 1600">
<defs>
  <clipPath id="clip760">
    <rect x="0" y="0" width="2400" height="1600"/>
  </clipPath>
</defs>
<path clip-path="url(#clip760)" d="M0 1600 L2400 1600 L2400 0 L0 0  Z" fill="#ffffff" fill-rule="evenodd" fill-opacity="1"/>
<defs>
  <clipPath id="clip761">
    <rect x="480" y="0" width="1681" height="1600"/>
  </clipPath>
</defs>
<path clip-path="url(#clip760)" d="M252.764 1410.9 L2352.76 1410.9 L2352.76 47.2441 L252.764 47.2441  Z" fill="#ffffff" fill-rule="evenodd" fill-opacity="1"/>
<defs>
  <clipPath id="clip762">
    <rect x="252" y="47" width="2101" height="1365"/>
  </clipPath>
</defs>
<polyline clip-path="url(#clip762)" style="stroke:#000000; stroke-linecap:round; stroke-linejoin:round; stroke-width:2; stroke-opacity:0.1; fill:none" points="312.198,1410.9 312.198,47.2441 "/>
<polyline clip-path="url(#clip762)" style="stroke:#000000; stroke-linecap:round; stroke-linejoin:round; stroke-width:2; stroke-opacity:0.1; fill:none" points="1302.76,1410.9 1302.76,47.2441 "/>
<polyline clip-path="url(#clip762)" style="stroke:#000000; stroke-linecap:round; stroke-linejoin:round; stroke-width:2; stroke-opacity:0.1; fill:none" points="2293.32,1410.9 2293.32,47.2441 "/>
<polyline clip-path="url(#clip762)" style="stroke:#000000; stroke-linecap:round; stroke-linejoin:round; stroke-width:2; stroke-opacity:0.05; fill:none" points="266.872,1410.9 266.872,47.2441 "/>
<polyline clip-path="url(#clip762)" style="stroke:#000000; stroke-linecap:round; stroke-linejoin:round; stroke-width:2; stroke-opacity:0.05; fill:none" points="610.387,1410.9 610.387,47.2441 "/>
<polyline clip-path="url(#clip762)" style="stroke:#000000; stroke-linecap:round; stroke-linejoin:round; stroke-width:2; stroke-opacity:0.05; fill:none" points="784.816,1410.9 784.816,47.2441 "/>
<polyline clip-path="url(#clip762)" style="stroke:#000000; stroke-linecap:round; stroke-linejoin:round; stroke-width:2; stroke-opacity:0.05; fill:none" points="908.576,1410.9 908.576,47.2441 "/>
<polyline clip-path="url(#clip762)" style="stroke:#000000; stroke-linecap:round; stroke-linejoin:round; stroke-width:2; stroke-opacity:0.05; fill:none" points="1004.57,1410.9 1004.57,47.2441 "/>
<polyline clip-path="url(#clip762)" style="stroke:#000000; stroke-linecap:round; stroke-linejoin:round; stroke-width:2; stroke-opacity:0.05; fill:none" points="1083,1410.9 1083,47.2441 "/>
<polyline clip-path="url(#clip762)" style="stroke:#000000; stroke-linecap:round; stroke-linejoin:round; stroke-width:2; stroke-opacity:0.05; fill:none" points="1149.32,1410.9 1149.32,47.2441 "/>
<polyline clip-path="url(#clip762)" style="stroke:#000000; stroke-linecap:round; stroke-linejoin:round; stroke-width:2; stroke-opacity:0.05; fill:none" points="1206.76,1410.9 1206.76,47.2441 "/>
<polyline clip-path="url(#clip762)" style="stroke:#000000; stroke-linecap:round; stroke-linejoin:round; stroke-width:2; stroke-opacity:0.05; fill:none" points="1257.43,1410.9 1257.43,47.2441 "/>
<polyline clip-path="url(#clip762)" style="stroke:#000000; stroke-linecap:round; stroke-linejoin:round; stroke-width:2; stroke-opacity:0.05; fill:none" points="1600.95,1410.9 1600.95,47.2441 "/>
<polyline clip-path="url(#clip762)" style="stroke:#000000; stroke-linecap:round; stroke-linejoin:round; stroke-width:2; stroke-opacity:0.05; fill:none" points="1775.38,1410.9 1775.38,47.2441 "/>
<polyline clip-path="url(#clip762)" style="stroke:#000000; stroke-linecap:round; stroke-linejoin:round; stroke-width:2; stroke-opacity:0.05; fill:none" points="1899.14,1410.9 1899.14,47.2441 "/>
<polyline clip-path="url(#clip762)" style="stroke:#000000; stroke-linecap:round; stroke-linejoin:round; stroke-width:2; stroke-opacity:0.05; fill:none" points="1995.13,1410.9 1995.13,47.2441 "/>
<polyline clip-path="url(#clip762)" style="stroke:#000000; stroke-linecap:round; stroke-linejoin:round; stroke-width:2; stroke-opacity:0.05; fill:none" points="2073.57,1410.9 2073.57,47.2441 "/>
<polyline clip-path="url(#clip762)" style="stroke:#000000; stroke-linecap:round; stroke-linejoin:round; stroke-width:2; stroke-opacity:0.05; fill:none" points="2139.88,1410.9 2139.88,47.2441 "/>
<polyline clip-path="url(#clip762)" style="stroke:#000000; stroke-linecap:round; stroke-linejoin:round; stroke-width:2; stroke-opacity:0.05; fill:none" points="2197.33,1410.9 2197.33,47.2441 "/>
<polyline clip-path="url(#clip762)" style="stroke:#000000; stroke-linecap:round; stroke-linejoin:round; stroke-width:2; stroke-opacity:0.05; fill:none" points="2248,1410.9 2248,47.2441 "/>
<polyline clip-path="url(#clip760)" style="stroke:#000000; stroke-linecap:round; stroke-linejoin:round; stroke-width:4; stroke-opacity:1; fill:none" points="252.764,1410.9 2352.76,1410.9 "/>
<polyline clip-path="url(#clip760)" style="stroke:#000000; stroke-linecap:round; stroke-linejoin:round; stroke-width:4; stroke-opacity:1; fill:none" points="312.198,1410.9 312.198,1392 "/>
<polyline clip-path="url(#clip760)" style="stroke:#000000; stroke-linecap:round; stroke-linejoin:round; stroke-width:4; stroke-opacity:1; fill:none" points="1302.76,1410.9 1302.76,1392 "/>
<polyline clip-path="url(#clip760)" style="stroke:#000000; stroke-linecap:round; stroke-linejoin:round; stroke-width:4; stroke-opacity:1; fill:none" points="2293.32,1410.9 2293.32,1392 "/>
<polyline clip-path="url(#clip760)" style="stroke:#000000; stroke-linecap:round; stroke-linejoin:round; stroke-width:4; stroke-opacity:1; fill:none" points="266.872,1410.9 266.872,1401.45 "/>
<polyline clip-path="url(#clip760)" style="stroke:#000000; stroke-linecap:round; stroke-linejoin:round; stroke-width:4; stroke-opacity:1; fill:none" points="610.387,1410.9 610.387,1401.45 "/>
<polyline clip-path="url(#clip760)" style="stroke:#000000; stroke-linecap:round; stroke-linejoin:round; stroke-width:4; stroke-opacity:1; fill:none" points="784.816,1410.9 784.816,1401.45 "/>
<polyline clip-path="url(#clip760)" style="stroke:#000000; stroke-linecap:round; stroke-linejoin:round; stroke-width:4; stroke-opacity:1; fill:none" points="908.576,1410.9 908.576,1401.45 "/>
<polyline clip-path="url(#clip760)" style="stroke:#000000; stroke-linecap:round; stroke-linejoin:round; stroke-width:4; stroke-opacity:1; fill:none" points="1004.57,1410.9 1004.57,1401.45 "/>
<polyline clip-path="url(#clip760)" style="stroke:#000000; stroke-linecap:round; stroke-linejoin:round; stroke-width:4; stroke-opacity:1; fill:none" points="1083,1410.9 1083,1401.45 "/>
<polyline clip-path="url(#clip760)" style="stroke:#000000; stroke-linecap:round; stroke-linejoin:round; stroke-width:4; stroke-opacity:1; fill:none" points="1149.32,1410.9 1149.32,1401.45 "/>
<polyline clip-path="url(#clip760)" style="stroke:#000000; stroke-linecap:round; stroke-linejoin:round; stroke-width:4; stroke-opacity:1; fill:none" points="1206.76,1410.9 1206.76,1401.45 "/>
<polyline clip-path="url(#clip760)" style="stroke:#000000; stroke-linecap:round; stroke-linejoin:round; stroke-width:4; stroke-opacity:1; fill:none" points="1257.43,1410.9 1257.43,1401.45 "/>
<polyline clip-path="url(#clip760)" style="stroke:#000000; stroke-linecap:round; stroke-linejoin:round; stroke-width:4; stroke-opacity:1; fill:none" points="1600.95,1410.9 1600.95,1401.45 "/>
<polyline clip-path="url(#clip760)" style="stroke:#000000; stroke-linecap:round; stroke-linejoin:round; stroke-width:4; stroke-opacity:1; fill:none" points="1775.38,1410.9 1775.38,1401.45 "/>
<polyline clip-path="url(#clip760)" style="stroke:#000000; stroke-linecap:round; stroke-linejoin:round; stroke-width:4; stroke-opacity:1; fill:none" points="1899.14,1410.9 1899.14,1401.45 "/>
<polyline clip-path="url(#clip760)" style="stroke:#000000; stroke-linecap:round; stroke-linejoin:round; stroke-width:4; stroke-opacity:1; fill:none" points="1995.13,1410.9 1995.13,1401.45 "/>
<polyline clip-path="url(#clip760)" style="stroke:#000000; stroke-linecap:round; stroke-linejoin:round; stroke-width:4; stroke-opacity:1; fill:none" points="2073.57,1410.9 2073.57,1401.45 "/>
<polyline clip-path="url(#clip760)" style="stroke:#000000; stroke-linecap:round; stroke-linejoin:round; stroke-width:4; stroke-opacity:1; fill:none" points="2139.88,1410.9 2139.88,1401.45 "/>
<polyline clip-path="url(#clip760)" style="stroke:#000000; stroke-linecap:round; stroke-linejoin:round; stroke-width:4; stroke-opacity:1; fill:none" points="2197.33,1410.9 2197.33,1401.45 "/>
<polyline clip-path="url(#clip760)" style="stroke:#000000; stroke-linecap:round; stroke-linejoin:round; stroke-width:4; stroke-opacity:1; fill:none" points="2248,1410.9 2248,1401.45 "/>
<path clip-path="url(#clip760)" d="M277.97 1485.02 L285.609 1485.02 L285.609 1458.66 L277.299 1460.32 L277.299 1456.06 L285.563 1454.4 L290.239 1454.4 L290.239 1485.02 L297.878 1485.02 L297.878 1488.96 L277.97 1488.96 L277.97 1485.02 Z" fill="#000000" fill-rule="nonzero" fill-opacity="1" /><path clip-path="url(#clip760)" d="M317.322 1457.48 Q313.711 1457.48 311.882 1461.04 Q310.077 1464.58 310.077 1471.71 Q310.077 1478.82 311.882 1482.38 Q313.711 1485.92 317.322 1485.92 Q320.956 1485.92 322.762 1482.38 Q324.591 1478.82 324.591 1471.71 Q324.591 1464.58 322.762 1461.04 Q320.956 1457.48 317.322 1457.48 M317.322 1453.77 Q323.132 1453.77 326.188 1458.38 Q329.266 1462.96 329.266 1471.71 Q329.266 1480.44 326.188 1485.04 Q323.132 1489.63 317.322 1489.63 Q311.512 1489.63 308.433 1485.04 Q305.378 1480.44 305.378 1471.71 Q305.378 1462.96 308.433 1458.38 Q311.512 1453.77 317.322 1453.77 Z" fill="#000000" fill-rule="nonzero" fill-opacity="1" /><path clip-path="url(#clip760)" d="M333.837 1458.35 L347.096 1458.35 L347.096 1461.55 L329.266 1461.55 L329.266 1458.35 Q331.429 1456.11 335.153 1452.35 Q338.896 1448.57 339.855 1447.48 Q341.68 1445.43 342.394 1444.02 Q343.128 1442.59 343.128 1441.22 Q343.128 1438.98 341.548 1437.57 Q339.987 1436.16 337.467 1436.16 Q335.68 1436.16 333.686 1436.78 Q331.711 1437.4 329.455 1438.66 L329.455 1434.82 Q331.749 1433.9 333.743 1433.43 Q335.736 1432.96 337.391 1432.96 Q341.755 1432.96 344.35 1435.14 Q346.946 1437.32 346.946 1440.97 Q346.946 1442.7 346.287 1444.26 Q345.648 1445.8 343.937 1447.91 Q343.466 1448.46 340.946 1451.07 Q338.426 1453.67 333.837 1458.35 Z" fill="#000000" fill-rule="nonzero" fill-opacity="1" /><path clip-path="url(#clip760)" d="M1268.2 1485.02 L1275.84 1485.02 L1275.84 1458.66 L1267.53 1460.32 L1267.53 1456.06 L1275.8 1454.4 L1280.47 1454.4 L1280.47 1485.02 L1288.11 1485.02 L1288.11 1488.96 L1268.2 1488.96 L1268.2 1485.02 Z" fill="#000000" fill-rule="nonzero" fill-opacity="1" /><path clip-path="url(#clip760)" d="M1307.56 1457.48 Q1303.94 1457.48 1302.12 1461.04 Q1300.31 1464.58 1300.31 1471.71 Q1300.31 1478.82 1302.12 1482.38 Q1303.94 1485.92 1307.56 1485.92 Q1311.19 1485.92 1312.99 1482.38 Q1314.82 1478.82 1314.82 1471.71 Q1314.82 1464.58 1312.99 1461.04 Q1311.19 1457.48 1307.56 1457.48 M1307.56 1453.77 Q1313.37 1453.77 1316.42 1458.38 Q1319.5 1462.96 1319.5 1471.71 Q1319.5 1480.44 1316.42 1485.04 Q1313.37 1489.63 1307.56 1489.63 Q1301.75 1489.63 1298.67 1485.04 Q1295.61 1480.44 1295.61 1471.71 Q1295.61 1462.96 1298.67 1458.38 Q1301.75 1453.77 1307.56 1453.77 Z" fill="#000000" fill-rule="nonzero" fill-opacity="1" /><path clip-path="url(#clip760)" d="M1332.19 1446.41 Q1334.92 1446.99 1336.45 1448.83 Q1337.99 1450.68 1337.99 1453.38 Q1337.99 1457.54 1335.13 1459.82 Q1332.27 1462.09 1327 1462.09 Q1325.24 1462.09 1323.36 1461.73 Q1321.49 1461.4 1319.5 1460.7 L1319.5 1457.03 Q1321.08 1457.95 1322.96 1458.42 Q1324.84 1458.89 1326.89 1458.89 Q1330.46 1458.89 1332.33 1457.48 Q1334.21 1456.07 1334.21 1453.38 Q1334.21 1450.9 1332.46 1449.51 Q1330.73 1448.1 1327.62 1448.1 L1324.35 1448.1 L1324.35 1444.98 L1327.77 1444.98 Q1330.58 1444.98 1332.06 1443.87 Q1333.55 1442.74 1333.55 1440.63 Q1333.55 1438.47 1332.01 1437.32 Q1330.48 1436.16 1327.62 1436.16 Q1326.06 1436.16 1324.28 1436.49 Q1322.49 1436.83 1320.35 1437.55 L1320.35 1434.16 Q1322.51 1433.56 1324.39 1433.26 Q1326.29 1432.96 1327.96 1432.96 Q1332.29 1432.96 1334.81 1434.93 Q1337.33 1436.89 1337.33 1440.24 Q1337.33 1442.57 1335.99 1444.19 Q1334.66 1445.79 1332.19 1446.41 Z" fill="#000000" fill-rule="nonzero" fill-opacity="1" /><path clip-path="url(#clip760)" d="M2257.78 1485.02 L2265.42 1485.02 L2265.42 1458.66 L2257.11 1460.32 L2257.11 1456.06 L2265.37 1454.4 L2270.05 1454.4 L2270.05 1485.02 L2277.69 1485.02 L2277.69 1488.96 L2257.78 1488.96 L2257.78 1485.02 Z" fill="#000000" fill-rule="nonzero" fill-opacity="1" /><path clip-path="url(#clip760)" d="M2297.13 1457.48 Q2293.52 1457.48 2291.69 1461.04 Q2289.88 1464.58 2289.88 1471.71 Q2289.88 1478.82 2291.69 1482.38 Q2293.52 1485.92 2297.13 1485.92 Q2300.76 1485.92 2302.57 1482.38 Q2304.4 1478.82 2304.4 1471.71 Q2304.4 1464.58 2302.57 1461.04 Q2300.76 1457.48 2297.13 1457.48 M2297.13 1453.77 Q2302.94 1453.77 2306 1458.38 Q2309.07 1462.96 2309.07 1471.71 Q2309.07 1480.44 2306 1485.04 Q2302.94 1489.63 2297.13 1489.63 Q2291.32 1489.63 2288.24 1485.04 Q2285.19 1480.44 2285.19 1471.71 Q2285.19 1462.96 2288.24 1458.38 Q2291.32 1453.77 2297.13 1453.77 Z" fill="#000000" fill-rule="nonzero" fill-opacity="1" /><path clip-path="url(#clip760)" d="M2321.75 1436.78 L2312.16 1451.77 L2321.75 1451.77 L2321.75 1436.78 M2320.75 1433.47 L2325.53 1433.47 L2325.53 1451.77 L2329.54 1451.77 L2329.54 1454.93 L2325.53 1454.93 L2325.53 1461.55 L2321.75 1461.55 L2321.75 1454.93 L2309.07 1454.93 L2309.07 1451.26 L2320.75 1433.47 Z" fill="#000000" fill-rule="nonzero" fill-opacity="1" /><path clip-path="url(#clip760)" d="M1045.08 1539.59 L1045.08 1545.13 Q1042.59 1543.85 1039.92 1543.22 Q1037.25 1542.58 1034.38 1542.58 Q1030.02 1542.58 1027.83 1543.92 Q1025.66 1545.25 1025.66 1547.93 Q1025.66 1549.96 1027.22 1551.14 Q1028.78 1552.29 1033.49 1553.34 L1035.5 1553.78 Q1041.73 1555.12 1044.34 1557.57 Q1046.99 1559.99 1046.99 1564.35 Q1046.99 1569.32 1043.04 1572.21 Q1039.12 1575.11 1032.25 1575.11 Q1029.38 1575.11 1026.27 1574.54 Q1023.18 1573.99 1019.74 1572.88 L1019.74 1566.83 Q1022.99 1568.52 1026.14 1569.38 Q1029.29 1570.21 1032.38 1570.21 Q1036.51 1570.21 1038.74 1568.81 Q1040.97 1567.37 1040.97 1564.8 Q1040.97 1562.41 1039.35 1561.14 Q1037.76 1559.86 1032.31 1558.68 L1030.28 1558.21 Q1024.83 1557.06 1022.41 1554.71 Q1020 1552.32 1020 1548.18 Q1020 1543.15 1023.56 1540.42 Q1027.12 1537.68 1033.68 1537.68 Q1036.93 1537.68 1039.79 1538.16 Q1042.66 1538.63 1045.08 1539.59 Z" fill="#000000" fill-rule="nonzero" fill-opacity="1" /><path clip-path="url(#clip760)" d="M1072.51 1556.27 Q1065.41 1556.27 1062.68 1557.89 Q1059.94 1559.51 1059.94 1563.43 Q1059.94 1566.55 1061.98 1568.39 Q1064.05 1570.21 1067.58 1570.21 Q1072.45 1570.21 1075.38 1566.77 Q1078.34 1563.3 1078.34 1557.57 L1078.34 1556.27 L1072.51 1556.27 M1084.19 1553.85 L1084.19 1574.19 L1078.34 1574.19 L1078.34 1568.77 Q1076.33 1572.02 1073.34 1573.58 Q1070.35 1575.11 1066.02 1575.11 Q1060.54 1575.11 1057.3 1572.05 Q1054.08 1568.97 1054.08 1563.81 Q1054.08 1557.79 1058.09 1554.74 Q1062.14 1551.68 1070.13 1551.68 L1078.34 1551.68 L1078.34 1551.11 Q1078.34 1547.07 1075.66 1544.87 Q1073.02 1542.64 1068.22 1542.64 Q1065.16 1542.64 1062.26 1543.38 Q1059.37 1544.11 1056.69 1545.57 L1056.69 1540.16 Q1059.91 1538.92 1062.93 1538.31 Q1065.96 1537.68 1068.82 1537.68 Q1076.55 1537.68 1080.37 1541.69 Q1084.19 1545.7 1084.19 1553.85 Z" fill="#000000" fill-rule="nonzero" fill-opacity="1" /><path clip-path="url(#clip760)" d="M1124.01 1545.38 Q1126.21 1541.43 1129.26 1539.56 Q1132.32 1537.68 1136.46 1537.68 Q1142.03 1537.68 1145.05 1541.59 Q1148.07 1545.48 1148.07 1552.67 L1148.07 1574.19 L1142.18 1574.19 L1142.18 1552.86 Q1142.18 1547.74 1140.37 1545.25 Q1138.56 1542.77 1134.83 1542.77 Q1130.28 1542.77 1127.64 1545.79 Q1125 1548.82 1125 1554.04 L1125 1574.19 L1119.11 1574.19 L1119.11 1552.86 Q1119.11 1547.7 1117.3 1545.25 Q1115.48 1542.77 1111.69 1542.77 Q1107.21 1542.77 1104.56 1545.83 Q1101.92 1548.85 1101.92 1554.04 L1101.92 1574.19 L1096.03 1574.19 L1096.03 1538.54 L1101.92 1538.54 L1101.92 1544.08 Q1103.93 1540.8 1106.73 1539.24 Q1109.53 1537.68 1113.38 1537.68 Q1117.26 1537.68 1119.97 1539.65 Q1122.71 1541.62 1124.01 1545.38 Z" fill="#000000" fill-rule="nonzero" fill-opacity="1" /><path clip-path="url(#clip760)" d="M1165.42 1568.84 L1165.42 1587.74 L1159.53 1587.74 L1159.53 1538.54 L1165.42 1538.54 L1165.42 1543.95 Q1167.27 1540.77 1170.07 1539.24 Q1172.9 1537.68 1176.81 1537.68 Q1183.31 1537.68 1187.35 1542.83 Q1191.42 1547.99 1191.42 1556.39 Q1191.42 1564.8 1187.35 1569.95 Q1183.31 1575.11 1176.81 1575.11 Q1172.9 1575.11 1170.07 1573.58 Q1167.27 1572.02 1165.42 1568.84 M1185.34 1556.39 Q1185.34 1549.93 1182.67 1546.27 Q1180.03 1542.58 1175.38 1542.58 Q1170.74 1542.58 1168.06 1546.27 Q1165.42 1549.93 1165.42 1556.39 Q1165.42 1562.85 1168.06 1566.55 Q1170.74 1570.21 1175.38 1570.21 Q1180.03 1570.21 1182.67 1566.55 Q1185.34 1562.85 1185.34 1556.39 Z" fill="#000000" fill-rule="nonzero" fill-opacity="1" /><path clip-path="url(#clip760)" d="M1201.13 1524.66 L1206.99 1524.66 L1206.99 1574.19 L1201.13 1574.19 L1201.13 1524.66 Z" fill="#000000" fill-rule="nonzero" fill-opacity="1" /><path clip-path="url(#clip760)" d="M1249.73 1554.9 L1249.73 1557.76 L1222.81 1557.76 Q1223.19 1563.81 1226.44 1566.99 Q1229.71 1570.14 1235.54 1570.14 Q1238.91 1570.14 1242.06 1569.32 Q1245.25 1568.49 1248.36 1566.83 L1248.36 1572.37 Q1245.21 1573.71 1241.9 1574.41 Q1238.59 1575.11 1235.19 1575.11 Q1226.66 1575.11 1221.66 1570.14 Q1216.7 1565.18 1216.7 1556.71 Q1216.7 1547.96 1221.41 1542.83 Q1226.15 1537.68 1234.17 1537.68 Q1241.36 1537.68 1245.53 1542.33 Q1249.73 1546.94 1249.73 1554.9 M1243.88 1553.18 Q1243.81 1548.37 1241.17 1545.51 Q1238.56 1542.64 1234.23 1542.64 Q1229.33 1542.64 1226.37 1545.41 Q1223.44 1548.18 1223 1553.21 L1243.88 1553.18 Z" fill="#000000" fill-rule="nonzero" fill-opacity="1" /><path clip-path="url(#clip760)" d="M1282.07 1539.59 L1282.07 1545.13 Q1279.59 1543.85 1276.92 1543.22 Q1274.24 1542.58 1271.38 1542.58 Q1267.02 1542.58 1264.82 1543.92 Q1262.66 1545.25 1262.66 1547.93 Q1262.66 1549.96 1264.22 1551.14 Q1265.78 1552.29 1270.49 1553.34 L1272.49 1553.78 Q1278.73 1555.12 1281.34 1557.57 Q1283.98 1559.99 1283.98 1564.35 Q1283.98 1569.32 1280.03 1572.21 Q1276.12 1575.11 1269.24 1575.11 Q1266.38 1575.11 1263.26 1574.54 Q1260.17 1573.99 1256.74 1572.88 L1256.74 1566.83 Q1259.98 1568.52 1263.13 1569.38 Q1266.28 1570.21 1269.37 1570.21 Q1273.51 1570.21 1275.74 1568.81 Q1277.97 1567.37 1277.97 1564.8 Q1277.97 1562.41 1276.34 1561.14 Q1274.75 1559.86 1269.31 1558.68 L1267.27 1558.21 Q1261.83 1557.06 1259.41 1554.71 Q1256.99 1552.32 1256.99 1548.18 Q1256.99 1543.15 1260.56 1540.42 Q1264.12 1537.68 1270.68 1537.68 Q1273.92 1537.68 1276.79 1538.16 Q1279.65 1538.63 1282.07 1539.59 Z" fill="#000000" fill-rule="nonzero" fill-opacity="1" /><path clip-path="url(#clip760)" d="M1319.69 1568.84 L1319.69 1587.74 L1313.8 1587.74 L1313.8 1538.54 L1319.69 1538.54 L1319.69 1543.95 Q1321.54 1540.77 1324.34 1539.24 Q1327.17 1537.68 1331.09 1537.68 Q1337.58 1537.68 1341.62 1542.83 Q1345.7 1547.99 1345.7 1556.39 Q1345.7 1564.8 1341.62 1569.95 Q1337.58 1575.11 1331.09 1575.11 Q1327.17 1575.11 1324.34 1573.58 Q1321.54 1572.02 1319.69 1568.84 M1339.62 1556.39 Q1339.62 1549.93 1336.94 1546.27 Q1334.3 1542.58 1329.66 1542.58 Q1325.01 1542.58 1322.33 1546.27 Q1319.69 1549.93 1319.69 1556.39 Q1319.69 1562.85 1322.33 1566.55 Q1325.01 1570.21 1329.66 1570.21 Q1334.3 1570.21 1336.94 1566.55 Q1339.62 1562.85 1339.62 1556.39 Z" fill="#000000" fill-rule="nonzero" fill-opacity="1" /><path clip-path="url(#clip760)" d="M1385.9 1554.9 L1385.9 1557.76 L1358.97 1557.76 Q1359.35 1563.81 1362.6 1566.99 Q1365.88 1570.14 1371.7 1570.14 Q1375.07 1570.14 1378.23 1569.32 Q1381.41 1568.49 1384.53 1566.83 L1384.53 1572.37 Q1381.38 1573.71 1378.07 1574.41 Q1374.76 1575.11 1371.35 1575.11 Q1362.82 1575.11 1357.82 1570.14 Q1352.86 1565.18 1352.86 1556.71 Q1352.86 1547.96 1357.57 1542.83 Q1362.31 1537.68 1370.33 1537.68 Q1377.53 1537.68 1381.69 1542.33 Q1385.9 1546.94 1385.9 1554.9 M1380.04 1553.18 Q1379.98 1548.37 1377.33 1545.51 Q1374.72 1542.64 1370.4 1542.64 Q1365.49 1542.64 1362.53 1545.41 Q1359.61 1548.18 1359.16 1553.21 L1380.04 1553.18 Z" fill="#000000" fill-rule="nonzero" fill-opacity="1" /><path clip-path="url(#clip760)" d="M1416.16 1544.01 Q1415.18 1543.44 1414 1543.18 Q1412.85 1542.9 1411.45 1542.9 Q1406.49 1542.9 1403.82 1546.14 Q1401.17 1549.36 1401.17 1555.41 L1401.17 1574.19 L1395.29 1574.19 L1395.29 1538.54 L1401.17 1538.54 L1401.17 1544.08 Q1403.02 1540.83 1405.98 1539.27 Q1408.94 1537.68 1413.17 1537.68 Q1413.78 1537.68 1414.51 1537.77 Q1415.24 1537.84 1416.13 1538 L1416.16 1544.01 Z" fill="#000000" fill-rule="nonzero" fill-opacity="1" /><path clip-path="url(#clip760)" d="M1443.03 1524.66 L1448.88 1524.66 L1448.88 1574.19 L1443.03 1574.19 L1443.03 1524.66 Z" fill="#000000" fill-rule="nonzero" fill-opacity="1" /><path clip-path="url(#clip760)" d="M1491.63 1554.9 L1491.63 1557.76 L1464.7 1557.76 Q1465.09 1563.81 1468.33 1566.99 Q1471.61 1570.14 1477.43 1570.14 Q1480.81 1570.14 1483.96 1569.32 Q1487.14 1568.49 1490.26 1566.83 L1490.26 1572.37 Q1487.11 1573.71 1483.8 1574.41 Q1480.49 1575.11 1477.08 1575.11 Q1468.55 1575.11 1463.56 1570.14 Q1458.59 1565.18 1458.59 1556.71 Q1458.59 1547.96 1463.3 1542.83 Q1468.05 1537.68 1476.07 1537.68 Q1483.26 1537.68 1487.43 1542.33 Q1491.63 1546.94 1491.63 1554.9 M1485.77 1553.18 Q1485.71 1548.37 1483.07 1545.51 Q1480.46 1542.64 1476.13 1542.64 Q1471.23 1542.64 1468.27 1545.41 Q1465.34 1548.18 1464.89 1553.21 L1485.77 1553.18 Z" fill="#000000" fill-rule="nonzero" fill-opacity="1" /><path clip-path="url(#clip760)" d="M1497.04 1538.54 L1503.25 1538.54 L1514.39 1568.46 L1525.53 1538.54 L1531.73 1538.54 L1518.37 1574.19 L1510.41 1574.19 L1497.04 1538.54 Z" fill="#000000" fill-rule="nonzero" fill-opacity="1" /><path clip-path="url(#clip760)" d="M1570.31 1554.9 L1570.31 1557.76 L1543.38 1557.76 Q1543.77 1563.81 1547.01 1566.99 Q1550.29 1570.14 1556.12 1570.14 Q1559.49 1570.14 1562.64 1569.32 Q1565.82 1568.49 1568.94 1566.83 L1568.94 1572.37 Q1565.79 1573.71 1562.48 1574.41 Q1559.17 1575.11 1555.76 1575.11 Q1547.23 1575.11 1542.24 1570.14 Q1537.27 1565.18 1537.27 1556.71 Q1537.27 1547.96 1541.98 1542.83 Q1546.73 1537.68 1554.75 1537.68 Q1561.94 1537.68 1566.11 1542.33 Q1570.31 1546.94 1570.31 1554.9 M1564.45 1553.18 Q1564.39 1548.37 1561.75 1545.51 Q1559.14 1542.64 1554.81 1542.64 Q1549.91 1542.64 1546.95 1545.41 Q1544.02 1548.18 1543.57 1553.21 L1564.45 1553.18 Z" fill="#000000" fill-rule="nonzero" fill-opacity="1" /><path clip-path="url(#clip760)" d="M1579.92 1524.66 L1585.78 1524.66 L1585.78 1574.19 L1579.92 1574.19 L1579.92 1524.66 Z" fill="#000000" fill-rule="nonzero" fill-opacity="1" /><polyline clip-path="url(#clip762)" style="stroke:#000000; stroke-linecap:round; stroke-linejoin:round; stroke-width:2; stroke-opacity:0.1; fill:none" points="252.764,1202.43 2352.76,1202.43 "/>
<polyline clip-path="url(#clip762)" style="stroke:#000000; stroke-linecap:round; stroke-linejoin:round; stroke-width:2; stroke-opacity:0.1; fill:none" points="252.764,755.245 2352.76,755.245 "/>
<polyline clip-path="url(#clip762)" style="stroke:#000000; stroke-linecap:round; stroke-linejoin:round; stroke-width:2; stroke-opacity:0.1; fill:none" points="252.764,308.059 2352.76,308.059 "/>
<polyline clip-path="url(#clip762)" style="stroke:#000000; stroke-linecap:round; stroke-linejoin:round; stroke-width:2; stroke-opacity:0.05; fill:none" points="252.764,1380.39 2352.76,1380.39 "/>
<polyline clip-path="url(#clip762)" style="stroke:#000000; stroke-linecap:round; stroke-linejoin:round; stroke-width:2; stroke-opacity:0.05; fill:none" points="252.764,1337.05 2352.76,1337.05 "/>
<polyline clip-path="url(#clip762)" style="stroke:#000000; stroke-linecap:round; stroke-linejoin:round; stroke-width:2; stroke-opacity:0.05; fill:none" points="252.764,1301.64 2352.76,1301.64 "/>
<polyline clip-path="url(#clip762)" style="stroke:#000000; stroke-linecap:round; stroke-linejoin:round; stroke-width:2; stroke-opacity:0.05; fill:none" points="252.764,1271.7 2352.76,1271.7 "/>
<polyline clip-path="url(#clip762)" style="stroke:#000000; stroke-linecap:round; stroke-linejoin:round; stroke-width:2; stroke-opacity:0.05; fill:none" points="252.764,1245.77 2352.76,1245.77 "/>
<polyline clip-path="url(#clip762)" style="stroke:#000000; stroke-linecap:round; stroke-linejoin:round; stroke-width:2; stroke-opacity:0.05; fill:none" points="252.764,1222.89 2352.76,1222.89 "/>
<polyline clip-path="url(#clip762)" style="stroke:#000000; stroke-linecap:round; stroke-linejoin:round; stroke-width:2; stroke-opacity:0.05; fill:none" points="252.764,1067.82 2352.76,1067.82 "/>
<polyline clip-path="url(#clip762)" style="stroke:#000000; stroke-linecap:round; stroke-linejoin:round; stroke-width:2; stroke-opacity:0.05; fill:none" points="252.764,989.07 2352.76,989.07 "/>
<polyline clip-path="url(#clip762)" style="stroke:#000000; stroke-linecap:round; stroke-linejoin:round; stroke-width:2; stroke-opacity:0.05; fill:none" points="252.764,933.199 2352.76,933.199 "/>
<polyline clip-path="url(#clip762)" style="stroke:#000000; stroke-linecap:round; stroke-linejoin:round; stroke-width:2; stroke-opacity:0.05; fill:none" points="252.764,889.862 2352.76,889.862 "/>
<polyline clip-path="url(#clip762)" style="stroke:#000000; stroke-linecap:round; stroke-linejoin:round; stroke-width:2; stroke-opacity:0.05; fill:none" points="252.764,854.453 2352.76,854.453 "/>
<polyline clip-path="url(#clip762)" style="stroke:#000000; stroke-linecap:round; stroke-linejoin:round; stroke-width:2; stroke-opacity:0.05; fill:none" points="252.764,824.516 2352.76,824.516 "/>
<polyline clip-path="url(#clip762)" style="stroke:#000000; stroke-linecap:round; stroke-linejoin:round; stroke-width:2; stroke-opacity:0.05; fill:none" points="252.764,798.582 2352.76,798.582 "/>
<polyline clip-path="url(#clip762)" style="stroke:#000000; stroke-linecap:round; stroke-linejoin:round; stroke-width:2; stroke-opacity:0.05; fill:none" points="252.764,775.708 2352.76,775.708 "/>
<polyline clip-path="url(#clip762)" style="stroke:#000000; stroke-linecap:round; stroke-linejoin:round; stroke-width:2; stroke-opacity:0.05; fill:none" points="252.764,620.629 2352.76,620.629 "/>
<polyline clip-path="url(#clip762)" style="stroke:#000000; stroke-linecap:round; stroke-linejoin:round; stroke-width:2; stroke-opacity:0.05; fill:none" points="252.764,541.883 2352.76,541.883 "/>
<polyline clip-path="url(#clip762)" style="stroke:#000000; stroke-linecap:round; stroke-linejoin:round; stroke-width:2; stroke-opacity:0.05; fill:none" points="252.764,486.012 2352.76,486.012 "/>
<polyline clip-path="url(#clip762)" style="stroke:#000000; stroke-linecap:round; stroke-linejoin:round; stroke-width:2; stroke-opacity:0.05; fill:none" points="252.764,442.675 2352.76,442.675 "/>
<polyline clip-path="url(#clip762)" style="stroke:#000000; stroke-linecap:round; stroke-linejoin:round; stroke-width:2; stroke-opacity:0.05; fill:none" points="252.764,407.266 2352.76,407.266 "/>
<polyline clip-path="url(#clip762)" style="stroke:#000000; stroke-linecap:round; stroke-linejoin:round; stroke-width:2; stroke-opacity:0.05; fill:none" points="252.764,377.329 2352.76,377.329 "/>
<polyline clip-path="url(#clip762)" style="stroke:#000000; stroke-linecap:round; stroke-linejoin:round; stroke-width:2; stroke-opacity:0.05; fill:none" points="252.764,351.395 2352.76,351.395 "/>
<polyline clip-path="url(#clip762)" style="stroke:#000000; stroke-linecap:round; stroke-linejoin:round; stroke-width:2; stroke-opacity:0.05; fill:none" points="252.764,328.521 2352.76,328.521 "/>
<polyline clip-path="url(#clip762)" style="stroke:#000000; stroke-linecap:round; stroke-linejoin:round; stroke-width:2; stroke-opacity:0.05; fill:none" points="252.764,173.442 2352.76,173.442 "/>
<polyline clip-path="url(#clip762)" style="stroke:#000000; stroke-linecap:round; stroke-linejoin:round; stroke-width:2; stroke-opacity:0.05; fill:none" points="252.764,94.6961 2352.76,94.6961 "/>
<polyline clip-path="url(#clip760)" style="stroke:#000000; stroke-linecap:round; stroke-linejoin:round; stroke-width:4; stroke-opacity:1; fill:none" points="252.764,1410.9 252.764,47.2441 "/>
<polyline clip-path="url(#clip760)" style="stroke:#000000; stroke-linecap:round; stroke-linejoin:round; stroke-width:4; stroke-opacity:1; fill:none" points="252.764,1202.43 271.662,1202.43 "/>
<polyline clip-path="url(#clip760)" style="stroke:#000000; stroke-linecap:round; stroke-linejoin:round; stroke-width:4; stroke-opacity:1; fill:none" points="252.764,755.245 271.662,755.245 "/>
<polyline clip-path="url(#clip760)" style="stroke:#000000; stroke-linecap:round; stroke-linejoin:round; stroke-width:4; stroke-opacity:1; fill:none" points="252.764,308.059 271.662,308.059 "/>
<polyline clip-path="url(#clip760)" style="stroke:#000000; stroke-linecap:round; stroke-linejoin:round; stroke-width:4; stroke-opacity:1; fill:none" points="252.764,1380.39 262.213,1380.39 "/>
<polyline clip-path="url(#clip760)" style="stroke:#000000; stroke-linecap:round; stroke-linejoin:round; stroke-width:4; stroke-opacity:1; fill:none" points="252.764,1337.05 262.213,1337.05 "/>
<polyline clip-path="url(#clip760)" style="stroke:#000000; stroke-linecap:round; stroke-linejoin:round; stroke-width:4; stroke-opacity:1; fill:none" points="252.764,1301.64 262.213,1301.64 "/>
<polyline clip-path="url(#clip760)" style="stroke:#000000; stroke-linecap:round; stroke-linejoin:round; stroke-width:4; stroke-opacity:1; fill:none" points="252.764,1271.7 262.213,1271.7 "/>
<polyline clip-path="url(#clip760)" style="stroke:#000000; stroke-linecap:round; stroke-linejoin:round; stroke-width:4; stroke-opacity:1; fill:none" points="252.764,1245.77 262.213,1245.77 "/>
<polyline clip-path="url(#clip760)" style="stroke:#000000; stroke-linecap:round; stroke-linejoin:round; stroke-width:4; stroke-opacity:1; fill:none" points="252.764,1222.89 262.213,1222.89 "/>
<polyline clip-path="url(#clip760)" style="stroke:#000000; stroke-linecap:round; stroke-linejoin:round; stroke-width:4; stroke-opacity:1; fill:none" points="252.764,1067.82 262.213,1067.82 "/>
<polyline clip-path="url(#clip760)" style="stroke:#000000; stroke-linecap:round; stroke-linejoin:round; stroke-width:4; stroke-opacity:1; fill:none" points="252.764,989.07 262.213,989.07 "/>
<polyline clip-path="url(#clip760)" style="stroke:#000000; stroke-linecap:round; stroke-linejoin:round; stroke-width:4; stroke-opacity:1; fill:none" points="252.764,933.199 262.213,933.199 "/>
<polyline clip-path="url(#clip760)" style="stroke:#000000; stroke-linecap:round; stroke-linejoin:round; stroke-width:4; stroke-opacity:1; fill:none" points="252.764,889.862 262.213,889.862 "/>
<polyline clip-path="url(#clip760)" style="stroke:#000000; stroke-linecap:round; stroke-linejoin:round; stroke-width:4; stroke-opacity:1; fill:none" points="252.764,854.453 262.213,854.453 "/>
<polyline clip-path="url(#clip760)" style="stroke:#000000; stroke-linecap:round; stroke-linejoin:round; stroke-width:4; stroke-opacity:1; fill:none" points="252.764,824.516 262.213,824.516 "/>
<polyline clip-path="url(#clip760)" style="stroke:#000000; stroke-linecap:round; stroke-linejoin:round; stroke-width:4; stroke-opacity:1; fill:none" points="252.764,798.582 262.213,798.582 "/>
<polyline clip-path="url(#clip760)" style="stroke:#000000; stroke-linecap:round; stroke-linejoin:round; stroke-width:4; stroke-opacity:1; fill:none" points="252.764,775.708 262.213,775.708 "/>
<polyline clip-path="url(#clip760)" style="stroke:#000000; stroke-linecap:round; stroke-linejoin:round; stroke-width:4; stroke-opacity:1; fill:none" points="252.764,620.629 262.213,620.629 "/>
<polyline clip-path="url(#clip760)" style="stroke:#000000; stroke-linecap:round; stroke-linejoin:round; stroke-width:4; stroke-opacity:1; fill:none" points="252.764,541.883 262.213,541.883 "/>
<polyline clip-path="url(#clip760)" style="stroke:#000000; stroke-linecap:round; stroke-linejoin:round; stroke-width:4; stroke-opacity:1; fill:none" points="252.764,486.012 262.213,486.012 "/>
<polyline clip-path="url(#clip760)" style="stroke:#000000; stroke-linecap:round; stroke-linejoin:round; stroke-width:4; stroke-opacity:1; fill:none" points="252.764,442.675 262.213,442.675 "/>
<polyline clip-path="url(#clip760)" style="stroke:#000000; stroke-linecap:round; stroke-linejoin:round; stroke-width:4; stroke-opacity:1; fill:none" points="252.764,407.266 262.213,407.266 "/>
<polyline clip-path="url(#clip760)" style="stroke:#000000; stroke-linecap:round; stroke-linejoin:round; stroke-width:4; stroke-opacity:1; fill:none" points="252.764,377.329 262.213,377.329 "/>
<polyline clip-path="url(#clip760)" style="stroke:#000000; stroke-linecap:round; stroke-linejoin:round; stroke-width:4; stroke-opacity:1; fill:none" points="252.764,351.395 262.213,351.395 "/>
<polyline clip-path="url(#clip760)" style="stroke:#000000; stroke-linecap:round; stroke-linejoin:round; stroke-width:4; stroke-opacity:1; fill:none" points="252.764,328.521 262.213,328.521 "/>
<polyline clip-path="url(#clip760)" style="stroke:#000000; stroke-linecap:round; stroke-linejoin:round; stroke-width:4; stroke-opacity:1; fill:none" points="252.764,173.442 262.213,173.442 "/>
<polyline clip-path="url(#clip760)" style="stroke:#000000; stroke-linecap:round; stroke-linejoin:round; stroke-width:4; stroke-opacity:1; fill:none" points="252.764,94.6961 262.213,94.6961 "/>
<path clip-path="url(#clip760)" d="M116.135 1222.22 L123.774 1222.22 L123.774 1195.86 L115.464 1197.53 L115.464 1193.27 L123.728 1191.6 L128.404 1191.6 L128.404 1222.22 L136.042 1222.22 L136.042 1226.16 L116.135 1226.16 L116.135 1222.22 Z" fill="#000000" fill-rule="nonzero" fill-opacity="1" /><path clip-path="url(#clip760)" d="M155.487 1194.68 Q151.876 1194.68 150.047 1198.24 Q148.241 1201.79 148.241 1208.91 Q148.241 1216.02 150.047 1219.59 Q151.876 1223.13 155.487 1223.13 Q159.121 1223.13 160.927 1219.59 Q162.755 1216.02 162.755 1208.91 Q162.755 1201.79 160.927 1198.24 Q159.121 1194.68 155.487 1194.68 M155.487 1190.98 Q161.297 1190.98 164.352 1195.58 Q167.431 1200.16 167.431 1208.91 Q167.431 1217.64 164.352 1222.25 Q161.297 1226.83 155.487 1226.83 Q149.677 1226.83 146.598 1222.25 Q143.542 1217.64 143.542 1208.91 Q143.542 1200.16 146.598 1195.58 Q149.677 1190.98 155.487 1190.98 Z" fill="#000000" fill-rule="nonzero" fill-opacity="1" /><path clip-path="url(#clip760)" d="M167.431 1185.08 L191.543 1185.08 L191.543 1188.27 L167.431 1188.27 L167.431 1185.08 Z" fill="#000000" fill-rule="nonzero" fill-opacity="1" /><path clip-path="url(#clip760)" d="M199.781 1170.67 L214.695 1170.67 L214.695 1173.87 L203.26 1173.87 L203.26 1180.75 Q204.088 1180.47 204.915 1180.34 Q205.743 1180.19 206.57 1180.19 Q211.272 1180.19 214.018 1182.76 Q216.764 1185.34 216.764 1189.74 Q216.764 1194.27 213.943 1196.79 Q211.122 1199.3 205.987 1199.3 Q204.219 1199.3 202.376 1198.99 Q200.552 1198.69 198.596 1198.09 L198.596 1194.27 Q200.288 1195.2 202.094 1195.65 Q203.899 1196.1 205.912 1196.1 Q209.166 1196.1 211.065 1194.39 Q212.965 1192.67 212.965 1189.74 Q212.965 1186.81 211.065 1185.1 Q209.166 1183.38 205.912 1183.38 Q204.388 1183.38 202.865 1183.72 Q201.36 1184.06 199.781 1184.78 L199.781 1170.67 Z" fill="#000000" fill-rule="nonzero" fill-opacity="1" /><path clip-path="url(#clip760)" d="M114.931 775.038 L122.57 775.038 L122.57 748.672 L114.26 750.339 L114.26 746.08 L122.524 744.413 L127.2 744.413 L127.2 775.038 L134.839 775.038 L134.839 778.973 L114.931 778.973 L114.931 775.038 Z" fill="#000000" fill-rule="nonzero" fill-opacity="1" /><path clip-path="url(#clip760)" d="M154.283 747.492 Q150.672 747.492 148.843 751.057 Q147.038 754.598 147.038 761.728 Q147.038 768.834 148.843 772.399 Q150.672 775.941 154.283 775.941 Q157.917 775.941 159.723 772.399 Q161.552 768.834 161.552 761.728 Q161.552 754.598 159.723 751.057 Q157.917 747.492 154.283 747.492 M154.283 743.788 Q160.093 743.788 163.149 748.395 Q166.227 752.978 166.227 761.728 Q166.227 770.455 163.149 775.061 Q160.093 779.644 154.283 779.644 Q148.473 779.644 145.394 775.061 Q142.339 770.455 142.339 761.728 Q142.339 752.978 145.394 748.395 Q148.473 743.788 154.283 743.788 Z" fill="#000000" fill-rule="nonzero" fill-opacity="1" /><path clip-path="url(#clip760)" d="M166.227 737.889 L190.339 737.889 L190.339 741.087 L166.227 741.087 L166.227 737.889 Z" fill="#000000" fill-rule="nonzero" fill-opacity="1" /><path clip-path="url(#clip760)" d="M208.978 726.793 L199.386 741.783 L208.978 741.783 L208.978 726.793 M207.981 723.483 L212.758 723.483 L212.758 741.783 L216.764 741.783 L216.764 744.942 L212.758 744.942 L212.758 751.563 L208.978 751.563 L208.978 744.942 L196.301 744.942 L196.301 741.275 L207.981 723.483 Z" fill="#000000" fill-rule="nonzero" fill-opacity="1" /><path clip-path="url(#clip760)" d="M115.853 327.851 L123.492 327.851 L123.492 301.485 L115.182 303.152 L115.182 298.893 L123.446 297.226 L128.121 297.226 L128.121 327.851 L135.76 327.851 L135.76 331.786 L115.853 331.786 L115.853 327.851 Z" fill="#000000" fill-rule="nonzero" fill-opacity="1" /><path clip-path="url(#clip760)" d="M155.205 300.305 Q151.594 300.305 149.765 303.87 Q147.959 307.411 147.959 314.541 Q147.959 321.647 149.765 325.212 Q151.594 328.754 155.205 328.754 Q158.839 328.754 160.644 325.212 Q162.473 321.647 162.473 314.541 Q162.473 307.411 160.644 303.87 Q158.839 300.305 155.205 300.305 M155.205 296.601 Q161.015 296.601 164.07 301.208 Q167.149 305.791 167.149 314.541 Q167.149 323.268 164.07 327.874 Q161.015 332.457 155.205 332.457 Q149.395 332.457 146.316 327.874 Q143.26 323.268 143.26 314.541 Q143.26 305.791 146.316 301.208 Q149.395 296.601 155.205 296.601 Z" fill="#000000" fill-rule="nonzero" fill-opacity="1" /><path clip-path="url(#clip760)" d="M167.149 290.702 L191.261 290.702 L191.261 293.9 L167.149 293.9 L167.149 290.702 Z" fill="#000000" fill-rule="nonzero" fill-opacity="1" /><path clip-path="url(#clip760)" d="M210.971 289.235 Q213.698 289.818 215.222 291.662 Q216.764 293.505 216.764 296.213 Q216.764 300.37 213.905 302.645 Q211.046 304.921 205.78 304.921 Q204.012 304.921 202.132 304.564 Q200.27 304.225 198.276 303.529 L198.276 299.862 Q199.856 300.783 201.737 301.254 Q203.617 301.724 205.667 301.724 Q209.241 301.724 211.103 300.313 Q212.984 298.903 212.984 296.213 Q212.984 293.731 211.234 292.339 Q209.504 290.928 206.401 290.928 L203.128 290.928 L203.128 287.806 L206.551 287.806 Q209.354 287.806 210.84 286.696 Q212.325 285.568 212.325 283.461 Q212.325 281.299 210.783 280.151 Q209.26 278.985 206.401 278.985 Q204.84 278.985 203.053 279.324 Q201.266 279.662 199.122 280.377 L199.122 276.992 Q201.285 276.39 203.166 276.089 Q205.066 275.788 206.739 275.788 Q211.065 275.788 213.585 277.763 Q216.106 279.719 216.106 283.067 Q216.106 285.399 214.77 287.016 Q213.435 288.615 210.971 289.235 Z" fill="#000000" fill-rule="nonzero" fill-opacity="1" /><path clip-path="url(#clip760)" d="M58.657 753.005 L77.5631 753.005 L77.5631 758.894 L28.3562 758.894 L28.3562 753.005 L33.7671 753.005 Q30.5842 751.159 29.0564 748.358 Q27.4968 745.526 27.4968 741.611 Q27.4968 735.118 32.6531 731.076 Q37.8093 727.002 46.212 727.002 Q54.6147 727.002 59.771 731.076 Q64.9272 735.118 64.9272 741.611 Q64.9272 745.526 63.3994 748.358 Q61.8398 751.159 58.657 753.005 M46.212 733.081 Q39.7508 733.081 36.0905 735.754 Q32.3984 738.396 32.3984 743.043 Q32.3984 747.69 36.0905 750.364 Q39.7508 753.005 46.212 753.005 Q52.6732 753.005 56.3653 750.364 Q60.0256 747.69 60.0256 743.043 Q60.0256 738.396 56.3653 735.754 Q52.6732 733.081 46.212 733.081 Z" fill="#000000" fill-rule="nonzero" fill-opacity="1" /><path clip-path="url(#clip760)" d="M14.479 699.247 L19.3487 699.247 L19.3487 704.849 Q19.3487 708 20.6219 709.241 Q21.895 710.451 25.2052 710.451 L28.3562 710.451 L28.3562 700.807 L32.9077 700.807 L32.9077 710.451 L64.0042 710.451 L64.0042 716.339 L32.9077 716.339 L32.9077 721.941 L28.3562 721.941 L28.3562 716.339 L25.8736 716.339 Q19.9216 716.339 17.2162 713.57 Q14.479 710.801 14.479 704.785 L14.479 699.247 Z" fill="#000000" fill-rule="nonzero" fill-opacity="1" /><path clip-path="url(#clip762)" d="M312.198 85.838 L610.387 442.19 L1004.57 504.569 L1302.76 579.107 L1600.95 582.159 L1995.13 672.356 L2293.32 697.027 L2293.32 833.178 L1995.13 838.792 L1600.95 909.544 L1302.76 924.511 L1004.57 992.592 L610.387 1167.43 L312.198 1372.3  Z" fill="#009af9" fill-rule="evenodd" fill-opacity="0.2"/>
<polyline clip-path="url(#clip762)" style="stroke:#009af9; stroke-linecap:round; stroke-linejoin:round; stroke-width:4; stroke-opacity:0.2; fill:none" points="312.198,85.838 610.387,442.19 1004.57,504.569 1302.76,579.107 1600.95,582.159 1995.13,672.356 2293.32,697.027 "/>
<path clip-path="url(#clip762)" d="M312.198 422.758 L610.387 570.554 L1004.57 549 L1302.76 642.616 L1600.95 678.73 L1995.13 706.062 L2293.32 722.505 L2293.32 798.746 L1995.13 809.24 L1600.95 845.7 L1302.76 884.284 L1004.57 933.067 L610.387 1038.88 L312.198 1091.68  Z" fill="#e26f46" fill-rule="evenodd" fill-opacity="0.2"/>
<polyline clip-path="url(#clip762)" style="stroke:#e26f46; stroke-linecap:round; stroke-linejoin:round; stroke-width:4; stroke-opacity:0.2; fill:none" points="312.198,422.758 610.387,570.554 1004.57,549 1302.76,642.616 1600.95,678.73 1995.13,706.062 2293.32,722.505 "/>
<path clip-path="url(#clip762)" d="M312.198 273.258 L610.387 500.331 L1004.57 607.989 L1302.76 636.006 L1600.95 665.795 L1995.13 715.889 L2293.32 716.408 L2293.32 792.321 L1995.13 806.926 L1600.95 861.041 L1302.76 861.006 L1004.57 960.414 L610.387 1051.86 L312.198 1160.26  Z" fill="#3da44d" fill-rule="evenodd" fill-opacity="0.2"/>
<polyline clip-path="url(#clip762)" style="stroke:#3da44d; stroke-linecap:round; stroke-linejoin:round; stroke-width:4; stroke-opacity:0.2; fill:none" points="312.198,273.258 610.387,500.331 1004.57,607.989 1302.76,636.006 1600.95,665.795 1995.13,715.889 2293.32,716.408 "/>
<circle clip-path="url(#clip762)" cx="312.198" cy="517.706" r="14.4" fill="#009af9" fill-rule="evenodd" fill-opacity="1" stroke="#000000" stroke-opacity="1" stroke-width="3.2"/>
<circle clip-path="url(#clip762)" cx="610.387" cy="704.056" r="14.4" fill="#009af9" fill-rule="evenodd" fill-opacity="1" stroke="#000000" stroke-opacity="1" stroke-width="3.2"/>
<circle clip-path="url(#clip762)" cx="1004.57" cy="737.374" r="14.4" fill="#009af9" fill-rule="evenodd" fill-opacity="1" stroke="#000000" stroke-opacity="1" stroke-width="3.2"/>
<circle clip-path="url(#clip762)" cx="1302.76" cy="752.333" r="14.4" fill="#009af9" fill-rule="evenodd" fill-opacity="1" stroke="#000000" stroke-opacity="1" stroke-width="3.2"/>
<circle clip-path="url(#clip762)" cx="1600.95" cy="746.761" r="14.4" fill="#009af9" fill-rule="evenodd" fill-opacity="1" stroke="#000000" stroke-opacity="1" stroke-width="3.2"/>
<circle clip-path="url(#clip762)" cx="1995.13" cy="753.442" r="14.4" fill="#009af9" fill-rule="evenodd" fill-opacity="1" stroke="#000000" stroke-opacity="1" stroke-width="3.2"/>
<circle clip-path="url(#clip762)" cx="2293.32" cy="756.45" r="14.4" fill="#009af9" fill-rule="evenodd" fill-opacity="1" stroke="#000000" stroke-opacity="1" stroke-width="3.2"/>
<circle clip-path="url(#clip762)" cx="312.198" cy="691.113" r="14.4" fill="#e26f46" fill-rule="evenodd" fill-opacity="1" stroke="#000000" stroke-opacity="1" stroke-width="3.2"/>
<circle clip-path="url(#clip762)" cx="610.387" cy="756.745" r="14.4" fill="#e26f46" fill-rule="evenodd" fill-opacity="1" stroke="#000000" stroke-opacity="1" stroke-width="3.2"/>
<circle clip-path="url(#clip762)" cx="1004.57" cy="733.408" r="14.4" fill="#e26f46" fill-rule="evenodd" fill-opacity="1" stroke="#000000" stroke-opacity="1" stroke-width="3.2"/>
<circle clip-path="url(#clip762)" cx="1302.76" cy="748.077" r="14.4" fill="#e26f46" fill-rule="evenodd" fill-opacity="1" stroke="#000000" stroke-opacity="1" stroke-width="3.2"/>
<circle clip-path="url(#clip762)" cx="1600.95" cy="745.014" r="14.4" fill="#e26f46" fill-rule="evenodd" fill-opacity="1" stroke="#000000" stroke-opacity="1" stroke-width="3.2"/>
<circle clip-path="url(#clip762)" cx="1995.13" cy="751.844" r="14.4" fill="#e26f46" fill-rule="evenodd" fill-opacity="1" stroke="#000000" stroke-opacity="1" stroke-width="3.2"/>
<circle clip-path="url(#clip762)" cx="2293.32" cy="753.771" r="14.4" fill="#e26f46" fill-rule="evenodd" fill-opacity="1" stroke="#000000" stroke-opacity="1" stroke-width="3.2"/>
<circle clip-path="url(#clip762)" cx="312.198" cy="632.218" r="14.4" fill="#3da44d" fill-rule="evenodd" fill-opacity="1" stroke="#000000" stroke-opacity="1" stroke-width="3.2"/>
<circle clip-path="url(#clip762)" cx="610.387" cy="712.764" r="14.4" fill="#3da44d" fill-rule="evenodd" fill-opacity="1" stroke="#000000" stroke-opacity="1" stroke-width="3.2"/>
<circle clip-path="url(#clip762)" cx="1004.57" cy="748.802" r="14.4" fill="#3da44d" fill-rule="evenodd" fill-opacity="1" stroke="#000000" stroke-opacity="1" stroke-width="3.2"/>
<circle clip-path="url(#clip762)" cx="1302.76" cy="739.452" r="14.4" fill="#3da44d" fill-rule="evenodd" fill-opacity="1" stroke="#000000" stroke-opacity="1" stroke-width="3.2"/>
<circle clip-path="url(#clip762)" cx="1600.95" cy="752.992" r="14.4" fill="#3da44d" fill-rule="evenodd" fill-opacity="1" stroke="#000000" stroke-opacity="1" stroke-width="3.2"/>
<circle clip-path="url(#clip762)" cx="1995.13" cy="756.949" r="14.4" fill="#3da44d" fill-rule="evenodd" fill-opacity="1" stroke="#000000" stroke-opacity="1" stroke-width="3.2"/>
<circle clip-path="url(#clip762)" cx="2293.32" cy="752.438" r="14.4" fill="#3da44d" fill-rule="evenodd" fill-opacity="1" stroke="#000000" stroke-opacity="1" stroke-width="3.2"/>
<circle clip-path="url(#clip762)" cx="312.198" cy="632.218" r="14.4" fill="#3da44d" fill-rule="evenodd" fill-opacity="1" stroke="#000000" stroke-opacity="1" stroke-width="3.2"/>
<circle clip-path="url(#clip762)" cx="610.387" cy="712.764" r="14.4" fill="#3da44d" fill-rule="evenodd" fill-opacity="1" stroke="#000000" stroke-opacity="1" stroke-width="3.2"/>
<circle clip-path="url(#clip762)" cx="1004.57" cy="748.802" r="14.4" fill="#3da44d" fill-rule="evenodd" fill-opacity="1" stroke="#000000" stroke-opacity="1" stroke-width="3.2"/>
<circle clip-path="url(#clip762)" cx="1302.76" cy="739.452" r="14.4" fill="#3da44d" fill-rule="evenodd" fill-opacity="1" stroke="#000000" stroke-opacity="1" stroke-width="3.2"/>
<circle clip-path="url(#clip762)" cx="1600.95" cy="752.992" r="14.4" fill="#3da44d" fill-rule="evenodd" fill-opacity="1" stroke="#000000" stroke-opacity="1" stroke-width="3.2"/>
<circle clip-path="url(#clip762)" cx="1995.13" cy="756.949" r="14.4" fill="#3da44d" fill-rule="evenodd" fill-opacity="1" stroke="#000000" stroke-opacity="1" stroke-width="3.2"/>
<circle clip-path="url(#clip762)" cx="2293.32" cy="752.438" r="14.4" fill="#3da44d" fill-rule="evenodd" fill-opacity="1" stroke="#000000" stroke-opacity="1" stroke-width="3.2"/>
<polyline clip-path="url(#clip762)" style="stroke:#c271d2; stroke-linecap:round; stroke-linejoin:round; stroke-width:8; stroke-opacity:1; fill:none" points="312.198,755.245 610.387,755.245 1004.57,755.245 1302.76,755.245 1600.95,755.245 1995.13,755.245 2293.32,755.245 "/>
<path clip-path="url(#clip760)" d="M1801.09 1365.44 L2282.76 1365.44 L2282.76 1106.24 L1801.09 1106.24  Z" fill="#ffffff" fill-rule="evenodd" fill-opacity="1"/>
<polyline clip-path="url(#clip760)" style="stroke:#000000; stroke-linecap:round; stroke-linejoin:round; stroke-width:4; stroke-opacity:1; fill:none" points="1801.09,1365.44 2282.76,1365.44 2282.76,1106.24 1801.09,1106.24 1801.09,1365.44 "/>
<path clip-path="url(#clip760)" d="M1824.43 1178.82 L1964.42 1178.82 L1964.42 1137.35 L1824.43 1137.35 L1824.43 1178.82  Z" fill="#009af9" fill-rule="evenodd" fill-opacity="0.2"/>
<polyline clip-path="url(#clip760)" style="stroke:#009af9; stroke-linecap:round; stroke-linejoin:round; stroke-width:4; stroke-opacity:0.2; fill:none" points="1824.43,1137.35 1964.42,1137.35 "/>
<path clip-path="url(#clip760)" d="M2010 1141.94 L2010 1146.5 Q2007.34 1145.22 2004.98 1144.6 Q2002.62 1143.97 2000.42 1143.97 Q1996.6 1143.97 1994.52 1145.45 Q1992.46 1146.94 1992.46 1149.67 Q1992.46 1151.96 1993.82 1153.14 Q1995.21 1154.3 1999.05 1155.01 L2001.88 1155.59 Q2007.11 1156.59 2009.59 1159.11 Q2012.09 1161.61 2012.09 1165.82 Q2012.09 1170.85 2008.71 1173.44 Q2005.35 1176.03 1998.85 1176.03 Q1996.39 1176.03 1993.61 1175.48 Q1990.86 1174.92 1987.9 1173.83 L1987.9 1169.02 Q1990.74 1170.62 1993.48 1171.43 Q1996.21 1172.24 1998.85 1172.24 Q2002.85 1172.24 2005.03 1170.66 Q2007.2 1169.09 2007.2 1166.17 Q2007.2 1163.63 2005.63 1162.19 Q2004.08 1160.76 2000.51 1160.04 L1997.67 1159.48 Q1992.43 1158.44 1990.1 1156.22 Q1987.76 1154 1987.76 1150.04 Q1987.76 1145.45 1990.98 1142.82 Q1994.22 1140.18 1999.89 1140.18 Q2002.32 1140.18 2004.84 1140.62 Q2007.36 1141.06 2010 1141.94 Z" fill="#000000" fill-rule="nonzero" fill-opacity="1" /><path clip-path="url(#clip760)" d="M2018.75 1165.13 L2018.75 1149.44 L2023.01 1149.44 L2023.01 1164.97 Q2023.01 1168.65 2024.45 1170.5 Q2025.88 1172.33 2028.75 1172.33 Q2032.2 1172.33 2034.19 1170.13 Q2036.21 1167.93 2036.21 1164.13 L2036.21 1149.44 L2040.47 1149.44 L2040.47 1175.36 L2036.21 1175.36 L2036.21 1171.38 Q2034.66 1173.74 2032.6 1174.9 Q2030.56 1176.03 2027.85 1176.03 Q2023.38 1176.03 2021.07 1173.26 Q2018.75 1170.48 2018.75 1165.13 M2029.47 1148.81 L2029.47 1148.81 Z" fill="#000000" fill-rule="nonzero" fill-opacity="1" /><path clip-path="url(#clip760)" d="M2067.85 1162.42 Q2067.85 1157.72 2065.91 1155.06 Q2063.98 1152.38 2060.6 1152.38 Q2057.22 1152.38 2055.28 1155.06 Q2053.36 1157.72 2053.36 1162.42 Q2053.36 1167.12 2055.28 1169.81 Q2057.22 1172.47 2060.6 1172.47 Q2063.98 1172.47 2065.91 1169.81 Q2067.85 1167.12 2067.85 1162.42 M2053.36 1153.37 Q2054.7 1151.06 2056.74 1149.95 Q2058.8 1148.81 2061.65 1148.81 Q2066.37 1148.81 2069.31 1152.56 Q2072.27 1156.31 2072.27 1162.42 Q2072.27 1168.53 2069.31 1172.28 Q2066.37 1176.03 2061.65 1176.03 Q2058.8 1176.03 2056.74 1174.92 Q2054.7 1173.79 2053.36 1171.47 L2053.36 1175.36 L2049.08 1175.36 L2049.08 1139.34 L2053.36 1139.34 L2053.36 1153.37 Z" fill="#000000" fill-rule="nonzero" fill-opacity="1" /><path clip-path="url(#clip760)" d="M2100.23 1141.94 L2100.23 1146.5 Q2097.57 1145.22 2095.21 1144.6 Q2092.85 1143.97 2090.65 1143.97 Q2086.83 1143.97 2084.75 1145.45 Q2082.69 1146.94 2082.69 1149.67 Q2082.69 1151.96 2084.05 1153.14 Q2085.44 1154.3 2089.28 1155.01 L2092.11 1155.59 Q2097.34 1156.59 2099.82 1159.11 Q2102.32 1161.61 2102.32 1165.82 Q2102.32 1170.85 2098.94 1173.44 Q2095.58 1176.03 2089.08 1176.03 Q2086.62 1176.03 2083.85 1175.48 Q2081.09 1174.92 2078.13 1173.83 L2078.13 1169.02 Q2080.97 1170.62 2083.71 1171.43 Q2086.44 1172.24 2089.08 1172.24 Q2093.08 1172.24 2095.26 1170.66 Q2097.43 1169.09 2097.43 1166.17 Q2097.43 1163.63 2095.86 1162.19 Q2094.31 1160.76 2090.74 1160.04 L2087.9 1159.48 Q2082.66 1158.44 2080.33 1156.22 Q2077.99 1154 2077.99 1150.04 Q2077.99 1145.45 2081.21 1142.82 Q2084.45 1140.18 2090.12 1140.18 Q2092.55 1140.18 2095.07 1140.62 Q2097.6 1141.06 2100.23 1141.94 Z" fill="#000000" fill-rule="nonzero" fill-opacity="1" /><path clip-path="url(#clip760)" d="M2131.6 1161.33 L2131.6 1163.42 L2112.02 1163.42 Q2112.29 1167.82 2114.66 1170.13 Q2117.04 1172.42 2121.28 1172.42 Q2123.73 1172.42 2126.02 1171.82 Q2128.34 1171.22 2130.6 1170.01 L2130.6 1174.04 Q2128.31 1175.01 2125.91 1175.52 Q2123.5 1176.03 2121.02 1176.03 Q2114.82 1176.03 2111.18 1172.42 Q2107.57 1168.81 2107.57 1162.65 Q2107.57 1156.29 2111 1152.56 Q2114.45 1148.81 2120.28 1148.81 Q2125.51 1148.81 2128.54 1152.19 Q2131.6 1155.55 2131.6 1161.33 M2127.34 1160.08 Q2127.29 1156.59 2125.37 1154.51 Q2123.47 1152.42 2120.33 1152.42 Q2116.76 1152.42 2114.61 1154.44 Q2112.48 1156.45 2112.16 1160.11 L2127.34 1160.08 Z" fill="#000000" fill-rule="nonzero" fill-opacity="1" /><path clip-path="url(#clip760)" d="M2142.8 1142.07 L2142.8 1149.44 L2151.58 1149.44 L2151.58 1152.75 L2142.8 1152.75 L2142.8 1166.82 Q2142.8 1169.99 2143.66 1170.89 Q2144.54 1171.8 2147.2 1171.8 L2151.58 1171.8 L2151.58 1175.36 L2147.2 1175.36 Q2142.27 1175.36 2140.4 1173.53 Q2138.52 1171.68 2138.52 1166.82 L2138.52 1152.75 L2135.4 1152.75 L2135.4 1149.44 L2138.52 1149.44 L2138.52 1142.07 L2142.8 1142.07 Z" fill="#000000" fill-rule="nonzero" fill-opacity="1" /><path clip-path="url(#clip760)" d="M2155.03 1160.48 L2167.5 1160.48 L2167.5 1164.27 L2155.03 1164.27 L2155.03 1160.48 Z" fill="#000000" fill-rule="nonzero" fill-opacity="1" /><path clip-path="url(#clip760)" d="M2174.47 1140.8 L2181.44 1140.8 L2190.26 1164.32 L2199.12 1140.8 L2206.09 1140.8 L2206.09 1175.36 L2201.53 1175.36 L2201.53 1145.01 L2192.62 1168.72 L2187.92 1168.72 L2179.01 1145.01 L2179.01 1175.36 L2174.47 1175.36 L2174.47 1140.8 Z" fill="#000000" fill-rule="nonzero" fill-opacity="1" /><path clip-path="url(#clip760)" d="M2215.37 1140.8 L2220.05 1140.8 L2220.05 1154.97 L2237.04 1154.97 L2237.04 1140.8 L2241.71 1140.8 L2241.71 1175.36 L2237.04 1175.36 L2237.04 1158.9 L2220.05 1158.9 L2220.05 1175.36 L2215.37 1175.36 L2215.37 1140.8 Z" fill="#000000" fill-rule="nonzero" fill-opacity="1" /><path clip-path="url(#clip760)" d="M1824.43 1230.66 L1964.42 1230.66 L1964.42 1189.19 L1824.43 1189.19 L1824.43 1230.66  Z" fill="#e26f46" fill-rule="evenodd" fill-opacity="0.2"/>
<polyline clip-path="url(#clip760)" style="stroke:#e26f46; stroke-linecap:round; stroke-linejoin:round; stroke-width:4; stroke-opacity:0.2; fill:none" points="1824.43,1189.19 1964.42,1189.19 "/>
<path clip-path="url(#clip760)" d="M2010 1193.78 L2010 1198.34 Q2007.34 1197.06 2004.98 1196.44 Q2002.62 1195.81 2000.42 1195.81 Q1996.6 1195.81 1994.52 1197.29 Q1992.46 1198.78 1992.46 1201.51 Q1992.46 1203.8 1993.82 1204.98 Q1995.21 1206.14 1999.05 1206.85 L2001.88 1207.43 Q2007.11 1208.43 2009.59 1210.95 Q2012.09 1213.45 2012.09 1217.66 Q2012.09 1222.69 2008.71 1225.28 Q2005.35 1227.87 1998.85 1227.87 Q1996.39 1227.87 1993.61 1227.32 Q1990.86 1226.76 1987.9 1225.67 L1987.9 1220.86 Q1990.74 1222.46 1993.48 1223.27 Q1996.21 1224.08 1998.85 1224.08 Q2002.85 1224.08 2005.03 1222.5 Q2007.2 1220.93 2007.2 1218.01 Q2007.2 1215.47 2005.63 1214.03 Q2004.08 1212.6 2000.51 1211.88 L1997.67 1211.32 Q1992.43 1210.28 1990.1 1208.06 Q1987.76 1205.84 1987.76 1201.88 Q1987.76 1197.29 1990.98 1194.66 Q1994.22 1192.02 1999.89 1192.02 Q2002.32 1192.02 2004.84 1192.46 Q2007.36 1192.9 2010 1193.78 Z" fill="#000000" fill-rule="nonzero" fill-opacity="1" /><path clip-path="url(#clip760)" d="M2018.75 1216.97 L2018.75 1201.28 L2023.01 1201.28 L2023.01 1216.81 Q2023.01 1220.49 2024.45 1222.34 Q2025.88 1224.17 2028.75 1224.17 Q2032.2 1224.17 2034.19 1221.97 Q2036.21 1219.77 2036.21 1215.97 L2036.21 1201.28 L2040.47 1201.28 L2040.47 1227.2 L2036.21 1227.2 L2036.21 1223.22 Q2034.66 1225.58 2032.6 1226.74 Q2030.56 1227.87 2027.85 1227.87 Q2023.38 1227.87 2021.07 1225.1 Q2018.75 1222.32 2018.75 1216.97 M2029.47 1200.65 L2029.47 1200.65 Z" fill="#000000" fill-rule="nonzero" fill-opacity="1" /><path clip-path="url(#clip760)" d="M2067.85 1214.26 Q2067.85 1209.56 2065.91 1206.9 Q2063.98 1204.22 2060.6 1204.22 Q2057.22 1204.22 2055.28 1206.9 Q2053.36 1209.56 2053.36 1214.26 Q2053.36 1218.96 2055.28 1221.65 Q2057.22 1224.31 2060.6 1224.31 Q2063.98 1224.31 2065.91 1221.65 Q2067.85 1218.96 2067.85 1214.26 M2053.36 1205.21 Q2054.7 1202.9 2056.74 1201.79 Q2058.8 1200.65 2061.65 1200.65 Q2066.37 1200.65 2069.31 1204.4 Q2072.27 1208.15 2072.27 1214.26 Q2072.27 1220.37 2069.31 1224.12 Q2066.37 1227.87 2061.65 1227.87 Q2058.8 1227.87 2056.74 1226.76 Q2054.7 1225.63 2053.36 1223.31 L2053.36 1227.2 L2049.08 1227.2 L2049.08 1191.18 L2053.36 1191.18 L2053.36 1205.21 Z" fill="#000000" fill-rule="nonzero" fill-opacity="1" /><path clip-path="url(#clip760)" d="M2100.23 1193.78 L2100.23 1198.34 Q2097.57 1197.06 2095.21 1196.44 Q2092.85 1195.81 2090.65 1195.81 Q2086.83 1195.81 2084.75 1197.29 Q2082.69 1198.78 2082.69 1201.51 Q2082.69 1203.8 2084.05 1204.98 Q2085.44 1206.14 2089.28 1206.85 L2092.11 1207.43 Q2097.34 1208.43 2099.82 1210.95 Q2102.32 1213.45 2102.32 1217.66 Q2102.32 1222.69 2098.94 1225.28 Q2095.58 1227.87 2089.08 1227.87 Q2086.62 1227.87 2083.85 1227.32 Q2081.09 1226.76 2078.13 1225.67 L2078.13 1220.86 Q2080.97 1222.46 2083.71 1223.27 Q2086.44 1224.08 2089.08 1224.08 Q2093.08 1224.08 2095.26 1222.5 Q2097.43 1220.93 2097.43 1218.01 Q2097.43 1215.47 2095.86 1214.03 Q2094.31 1212.6 2090.74 1211.88 L2087.9 1211.32 Q2082.66 1210.28 2080.33 1208.06 Q2077.99 1205.84 2077.99 1201.88 Q2077.99 1197.29 2081.21 1194.66 Q2084.45 1192.02 2090.12 1192.02 Q2092.55 1192.02 2095.07 1192.46 Q2097.6 1192.9 2100.23 1193.78 Z" fill="#000000" fill-rule="nonzero" fill-opacity="1" /><path clip-path="url(#clip760)" d="M2131.6 1213.17 L2131.6 1215.26 L2112.02 1215.26 Q2112.29 1219.66 2114.66 1221.97 Q2117.04 1224.26 2121.28 1224.26 Q2123.73 1224.26 2126.02 1223.66 Q2128.34 1223.06 2130.6 1221.85 L2130.6 1225.88 Q2128.31 1226.85 2125.91 1227.36 Q2123.5 1227.87 2121.02 1227.87 Q2114.82 1227.87 2111.18 1224.26 Q2107.57 1220.65 2107.57 1214.49 Q2107.57 1208.13 2111 1204.4 Q2114.45 1200.65 2120.28 1200.65 Q2125.51 1200.65 2128.54 1204.03 Q2131.6 1207.39 2131.6 1213.17 M2127.34 1211.92 Q2127.29 1208.43 2125.37 1206.35 Q2123.47 1204.26 2120.33 1204.26 Q2116.76 1204.26 2114.61 1206.28 Q2112.48 1208.29 2112.16 1211.95 L2127.34 1211.92 Z" fill="#000000" fill-rule="nonzero" fill-opacity="1" /><path clip-path="url(#clip760)" d="M2142.8 1193.91 L2142.8 1201.28 L2151.58 1201.28 L2151.58 1204.59 L2142.8 1204.59 L2142.8 1218.66 Q2142.8 1221.83 2143.66 1222.73 Q2144.54 1223.64 2147.2 1223.64 L2151.58 1223.64 L2151.58 1227.2 L2147.2 1227.2 Q2142.27 1227.2 2140.4 1225.37 Q2138.52 1223.52 2138.52 1218.66 L2138.52 1204.59 L2135.4 1204.59 L2135.4 1201.28 L2138.52 1201.28 L2138.52 1193.91 L2142.8 1193.91 Z" fill="#000000" fill-rule="nonzero" fill-opacity="1" /><path clip-path="url(#clip760)" d="M2155.03 1212.32 L2167.5 1212.32 L2167.5 1216.11 L2155.03 1216.11 L2155.03 1212.32 Z" fill="#000000" fill-rule="nonzero" fill-opacity="1" /><path clip-path="url(#clip760)" d="M2200.35 1195.3 L2200.35 1200.23 Q2197.99 1198.04 2195.3 1196.95 Q2192.64 1195.86 2189.63 1195.86 Q2183.71 1195.86 2180.56 1199.49 Q2177.41 1203.1 2177.41 1209.96 Q2177.41 1216.78 2180.56 1220.42 Q2183.71 1224.03 2189.63 1224.03 Q2192.64 1224.03 2195.3 1222.94 Q2197.99 1221.85 2200.35 1219.66 L2200.35 1224.54 Q2197.9 1226.21 2195.14 1227.04 Q2192.41 1227.87 2189.35 1227.87 Q2181.51 1227.87 2176.99 1223.08 Q2172.48 1218.27 2172.48 1209.96 Q2172.48 1201.62 2176.99 1196.83 Q2181.51 1192.02 2189.35 1192.02 Q2192.46 1192.02 2195.19 1192.85 Q2197.94 1193.66 2200.35 1195.3 Z" fill="#000000" fill-rule="nonzero" fill-opacity="1" /><path clip-path="url(#clip760)" d="M2228.29 1193.78 L2228.29 1198.34 Q2225.63 1197.06 2223.27 1196.44 Q2220.9 1195.81 2218.71 1195.81 Q2214.89 1195.81 2212.8 1197.29 Q2210.74 1198.78 2210.74 1201.51 Q2210.74 1203.8 2212.11 1204.98 Q2213.5 1206.14 2217.34 1206.85 L2220.16 1207.43 Q2225.4 1208.43 2227.87 1210.95 Q2230.37 1213.45 2230.37 1217.66 Q2230.37 1222.69 2226.99 1225.28 Q2223.64 1227.87 2217.13 1227.87 Q2214.68 1227.87 2211.9 1227.32 Q2209.15 1226.76 2206.18 1225.67 L2206.18 1220.86 Q2209.03 1222.46 2211.76 1223.27 Q2214.49 1224.08 2217.13 1224.08 Q2221.14 1224.08 2223.31 1222.5 Q2225.49 1220.93 2225.49 1218.01 Q2225.49 1215.47 2223.91 1214.03 Q2222.36 1212.6 2218.8 1211.88 L2215.95 1211.32 Q2210.72 1210.28 2208.38 1208.06 Q2206.04 1205.84 2206.04 1201.88 Q2206.04 1197.29 2209.26 1194.66 Q2212.5 1192.02 2218.17 1192.02 Q2220.6 1192.02 2223.13 1192.46 Q2225.65 1192.9 2228.29 1193.78 Z" fill="#000000" fill-rule="nonzero" fill-opacity="1" /><path clip-path="url(#clip760)" d="M1824.43 1282.5 L1964.42 1282.5 L1964.42 1241.03 L1824.43 1241.03 L1824.43 1282.5  Z" fill="#3da44d" fill-rule="evenodd" fill-opacity="0.2"/>
<polyline clip-path="url(#clip760)" style="stroke:#3da44d; stroke-linecap:round; stroke-linejoin:round; stroke-width:4; stroke-opacity:0.2; fill:none" points="1824.43,1241.03 1964.42,1241.03 "/>
<path clip-path="url(#clip760)" d="M2010 1245.62 L2010 1250.18 Q2007.34 1248.9 2004.98 1248.28 Q2002.62 1247.65 2000.42 1247.65 Q1996.6 1247.65 1994.52 1249.13 Q1992.46 1250.62 1992.46 1253.35 Q1992.46 1255.64 1993.82 1256.82 Q1995.21 1257.98 1999.05 1258.69 L2001.88 1259.27 Q2007.11 1260.27 2009.59 1262.79 Q2012.09 1265.29 2012.09 1269.5 Q2012.09 1274.53 2008.71 1277.12 Q2005.35 1279.71 1998.85 1279.71 Q1996.39 1279.71 1993.61 1279.16 Q1990.86 1278.6 1987.9 1277.51 L1987.9 1272.7 Q1990.74 1274.3 1993.48 1275.11 Q1996.21 1275.92 1998.85 1275.92 Q2002.85 1275.92 2005.03 1274.34 Q2007.2 1272.77 2007.2 1269.85 Q2007.2 1267.31 2005.63 1265.87 Q2004.08 1264.44 2000.51 1263.72 L1997.67 1263.16 Q1992.43 1262.12 1990.1 1259.9 Q1987.76 1257.68 1987.76 1253.72 Q1987.76 1249.13 1990.98 1246.5 Q1994.22 1243.86 1999.89 1243.86 Q2002.32 1243.86 2004.84 1244.3 Q2007.36 1244.74 2010 1245.62 Z" fill="#000000" fill-rule="nonzero" fill-opacity="1" /><path clip-path="url(#clip760)" d="M2018.75 1268.81 L2018.75 1253.12 L2023.01 1253.12 L2023.01 1268.65 Q2023.01 1272.33 2024.45 1274.18 Q2025.88 1276.01 2028.75 1276.01 Q2032.2 1276.01 2034.19 1273.81 Q2036.21 1271.61 2036.21 1267.81 L2036.21 1253.12 L2040.47 1253.12 L2040.47 1279.04 L2036.21 1279.04 L2036.21 1275.06 Q2034.66 1277.42 2032.6 1278.58 Q2030.56 1279.71 2027.85 1279.71 Q2023.38 1279.71 2021.07 1276.94 Q2018.75 1274.16 2018.75 1268.81 M2029.47 1252.49 L2029.47 1252.49 Z" fill="#000000" fill-rule="nonzero" fill-opacity="1" /><path clip-path="url(#clip760)" d="M2067.85 1266.1 Q2067.85 1261.4 2065.91 1258.74 Q2063.98 1256.06 2060.6 1256.06 Q2057.22 1256.06 2055.28 1258.74 Q2053.36 1261.4 2053.36 1266.1 Q2053.36 1270.8 2055.28 1273.49 Q2057.22 1276.15 2060.6 1276.15 Q2063.98 1276.15 2065.91 1273.49 Q2067.85 1270.8 2067.85 1266.1 M2053.36 1257.05 Q2054.7 1254.74 2056.74 1253.63 Q2058.8 1252.49 2061.65 1252.49 Q2066.37 1252.49 2069.31 1256.24 Q2072.27 1259.99 2072.27 1266.1 Q2072.27 1272.21 2069.31 1275.96 Q2066.37 1279.71 2061.65 1279.71 Q2058.8 1279.71 2056.74 1278.6 Q2054.7 1277.47 2053.36 1275.15 L2053.36 1279.04 L2049.08 1279.04 L2049.08 1243.02 L2053.36 1243.02 L2053.36 1257.05 Z" fill="#000000" fill-rule="nonzero" fill-opacity="1" /><path clip-path="url(#clip760)" d="M2100.23 1245.62 L2100.23 1250.18 Q2097.57 1248.9 2095.21 1248.28 Q2092.85 1247.65 2090.65 1247.65 Q2086.83 1247.65 2084.75 1249.13 Q2082.69 1250.62 2082.69 1253.35 Q2082.69 1255.64 2084.05 1256.82 Q2085.44 1257.98 2089.28 1258.69 L2092.11 1259.27 Q2097.34 1260.27 2099.82 1262.79 Q2102.32 1265.29 2102.32 1269.5 Q2102.32 1274.53 2098.94 1277.12 Q2095.58 1279.71 2089.08 1279.71 Q2086.62 1279.71 2083.85 1279.16 Q2081.09 1278.6 2078.13 1277.51 L2078.13 1272.7 Q2080.97 1274.3 2083.71 1275.11 Q2086.44 1275.92 2089.08 1275.92 Q2093.08 1275.92 2095.26 1274.34 Q2097.43 1272.77 2097.43 1269.85 Q2097.43 1267.31 2095.86 1265.87 Q2094.31 1264.44 2090.74 1263.72 L2087.9 1263.16 Q2082.66 1262.12 2080.33 1259.9 Q2077.99 1257.68 2077.99 1253.72 Q2077.99 1249.13 2081.21 1246.5 Q2084.45 1243.86 2090.12 1243.86 Q2092.55 1243.86 2095.07 1244.3 Q2097.6 1244.74 2100.23 1245.62 Z" fill="#000000" fill-rule="nonzero" fill-opacity="1" /><path clip-path="url(#clip760)" d="M2131.6 1265.01 L2131.6 1267.1 L2112.02 1267.1 Q2112.29 1271.5 2114.66 1273.81 Q2117.04 1276.1 2121.28 1276.1 Q2123.73 1276.1 2126.02 1275.5 Q2128.34 1274.9 2130.6 1273.69 L2130.6 1277.72 Q2128.31 1278.69 2125.91 1279.2 Q2123.5 1279.71 2121.02 1279.71 Q2114.82 1279.71 2111.18 1276.1 Q2107.57 1272.49 2107.57 1266.33 Q2107.57 1259.97 2111 1256.24 Q2114.45 1252.49 2120.28 1252.49 Q2125.51 1252.49 2128.54 1255.87 Q2131.6 1259.23 2131.6 1265.01 M2127.34 1263.76 Q2127.29 1260.27 2125.37 1258.19 Q2123.47 1256.1 2120.33 1256.1 Q2116.76 1256.1 2114.61 1258.12 Q2112.48 1260.13 2112.16 1263.79 L2127.34 1263.76 Z" fill="#000000" fill-rule="nonzero" fill-opacity="1" /><path clip-path="url(#clip760)" d="M2142.8 1245.75 L2142.8 1253.12 L2151.58 1253.12 L2151.58 1256.43 L2142.8 1256.43 L2142.8 1270.5 Q2142.8 1273.67 2143.66 1274.57 Q2144.54 1275.48 2147.2 1275.48 L2151.58 1275.48 L2151.58 1279.04 L2147.2 1279.04 Q2142.27 1279.04 2140.4 1277.21 Q2138.52 1275.36 2138.52 1270.5 L2138.52 1256.43 L2135.4 1256.43 L2135.4 1253.12 L2138.52 1253.12 L2138.52 1245.75 L2142.8 1245.75 Z" fill="#000000" fill-rule="nonzero" fill-opacity="1" /><path clip-path="url(#clip760)" d="M2155.03 1264.16 L2167.5 1264.16 L2167.5 1267.95 L2155.03 1267.95 L2155.03 1264.16 Z" fill="#000000" fill-rule="nonzero" fill-opacity="1" /><path clip-path="url(#clip760)" d="M2186.07 1266.01 Q2180.9 1266.01 2178.91 1267.19 Q2176.92 1268.37 2176.92 1271.22 Q2176.92 1273.49 2178.4 1274.83 Q2179.91 1276.15 2182.48 1276.15 Q2186.02 1276.15 2188.15 1273.65 Q2190.3 1271.12 2190.3 1266.96 L2190.3 1266.01 L2186.07 1266.01 M2194.56 1264.25 L2194.56 1279.04 L2190.3 1279.04 L2190.3 1275.11 Q2188.84 1277.47 2186.67 1278.6 Q2184.49 1279.71 2181.34 1279.71 Q2177.36 1279.71 2175 1277.49 Q2172.66 1275.25 2172.66 1271.5 Q2172.66 1267.12 2175.58 1264.9 Q2178.52 1262.68 2184.33 1262.68 L2190.3 1262.68 L2190.3 1262.26 Q2190.3 1259.32 2188.36 1257.72 Q2186.44 1256.1 2182.94 1256.1 Q2180.72 1256.1 2178.61 1256.63 Q2176.51 1257.17 2174.56 1258.23 L2174.56 1254.3 Q2176.9 1253.39 2179.1 1252.95 Q2181.3 1252.49 2183.38 1252.49 Q2189.01 1252.49 2191.78 1255.41 Q2194.56 1258.32 2194.56 1264.25 Z" fill="#000000" fill-rule="nonzero" fill-opacity="1" /><path clip-path="url(#clip760)" d="M2229.4 1247.14 L2229.4 1252.07 Q2227.04 1249.88 2224.35 1248.79 Q2221.69 1247.7 2218.68 1247.7 Q2212.76 1247.7 2209.61 1251.33 Q2206.46 1254.94 2206.46 1261.8 Q2206.46 1268.62 2209.61 1272.26 Q2212.76 1275.87 2218.68 1275.87 Q2221.69 1275.87 2224.35 1274.78 Q2227.04 1273.69 2229.4 1271.5 L2229.4 1276.38 Q2226.95 1278.05 2224.19 1278.88 Q2221.46 1279.71 2218.4 1279.71 Q2210.56 1279.71 2206.04 1274.92 Q2201.53 1270.11 2201.53 1261.8 Q2201.53 1253.46 2206.04 1248.67 Q2210.56 1243.86 2218.4 1243.86 Q2221.51 1243.86 2224.24 1244.69 Q2226.99 1245.5 2229.4 1247.14 Z" fill="#000000" fill-rule="nonzero" fill-opacity="1" /><path clip-path="url(#clip760)" d="M2257.34 1245.62 L2257.34 1250.18 Q2254.68 1248.9 2252.32 1248.28 Q2249.96 1247.65 2247.76 1247.65 Q2243.94 1247.65 2241.85 1249.13 Q2239.79 1250.62 2239.79 1253.35 Q2239.79 1255.64 2241.16 1256.82 Q2242.55 1257.98 2246.39 1258.69 L2249.21 1259.27 Q2254.45 1260.27 2256.92 1262.79 Q2259.42 1265.29 2259.42 1269.5 Q2259.42 1274.53 2256.04 1277.12 Q2252.69 1279.71 2246.18 1279.71 Q2243.73 1279.71 2240.95 1279.16 Q2238.2 1278.6 2235.23 1277.51 L2235.23 1272.7 Q2238.08 1274.3 2240.81 1275.11 Q2243.54 1275.92 2246.18 1275.92 Q2250.19 1275.92 2252.36 1274.34 Q2254.54 1272.77 2254.54 1269.85 Q2254.54 1267.31 2252.96 1265.87 Q2251.41 1264.44 2247.85 1263.72 L2245 1263.16 Q2239.77 1262.12 2237.43 1259.9 Q2235.09 1257.68 2235.09 1253.72 Q2235.09 1249.13 2238.31 1246.5 Q2241.55 1243.86 2247.22 1243.86 Q2249.65 1243.86 2252.18 1244.3 Q2254.7 1244.74 2257.34 1245.62 Z" fill="#000000" fill-rule="nonzero" fill-opacity="1" /><polyline clip-path="url(#clip760)" style="stroke:#c271d2; stroke-linecap:round; stroke-linejoin:round; stroke-width:8; stroke-opacity:1; fill:none" points="1824.43,1313.6 1964.42,1313.6 "/>
<path clip-path="url(#clip760)" d="M1995.17 1297.59 L1995.17 1304.96 L2003.94 1304.96 L2003.94 1308.27 L1995.17 1308.27 L1995.17 1322.34 Q1995.17 1325.51 1996.02 1326.41 Q1996.9 1327.32 1999.56 1327.32 L2003.94 1327.32 L2003.94 1330.88 L1999.56 1330.88 Q1994.63 1330.88 1992.76 1329.05 Q1990.88 1327.2 1990.88 1322.34 L1990.88 1308.27 L1987.76 1308.27 L1987.76 1304.96 L1990.88 1304.96 L1990.88 1297.59 L1995.17 1297.59 Z" fill="#000000" fill-rule="nonzero" fill-opacity="1" /><path clip-path="url(#clip760)" d="M2021.32 1317.85 Q2016.16 1317.85 2014.17 1319.03 Q2012.18 1320.21 2012.18 1323.06 Q2012.18 1325.33 2013.66 1326.67 Q2015.16 1327.99 2017.73 1327.99 Q2021.28 1327.99 2023.41 1325.49 Q2025.56 1322.96 2025.56 1318.8 L2025.56 1317.85 L2021.32 1317.85 M2029.82 1316.09 L2029.82 1330.88 L2025.56 1330.88 L2025.56 1326.95 Q2024.1 1329.31 2021.92 1330.44 Q2019.75 1331.55 2016.6 1331.55 Q2012.62 1331.55 2010.26 1329.33 Q2007.92 1327.09 2007.92 1323.34 Q2007.92 1318.96 2010.84 1316.74 Q2013.78 1314.52 2019.59 1314.52 L2025.56 1314.52 L2025.56 1314.1 Q2025.56 1311.16 2023.61 1309.56 Q2021.69 1307.94 2018.2 1307.94 Q2015.98 1307.94 2013.87 1308.47 Q2011.76 1309.01 2009.82 1310.07 L2009.82 1306.14 Q2012.16 1305.23 2014.35 1304.79 Q2016.55 1304.33 2018.64 1304.33 Q2024.26 1304.33 2027.04 1307.25 Q2029.82 1310.16 2029.82 1316.09 Z" fill="#000000" fill-rule="nonzero" fill-opacity="1" /><path clip-path="url(#clip760)" d="M2053.61 1308.94 Q2052.9 1308.52 2052.04 1308.34 Q2051.21 1308.13 2050.19 1308.13 Q2046.58 1308.13 2044.63 1310.49 Q2042.71 1312.83 2042.71 1317.22 L2042.71 1330.88 L2038.43 1330.88 L2038.43 1304.96 L2042.71 1304.96 L2042.71 1308.98 Q2044.05 1306.62 2046.21 1305.49 Q2048.36 1304.33 2051.44 1304.33 Q2051.88 1304.33 2052.41 1304.4 Q2052.94 1304.45 2053.59 1304.56 L2053.61 1308.94 Z" fill="#000000" fill-rule="nonzero" fill-opacity="1" /><path clip-path="url(#clip760)" d="M2074.31 1317.62 Q2074.31 1312.99 2072.39 1310.44 Q2070.49 1307.9 2067.04 1307.9 Q2063.61 1307.9 2061.69 1310.44 Q2059.79 1312.99 2059.79 1317.62 Q2059.79 1322.22 2061.69 1324.77 Q2063.61 1327.32 2067.04 1327.32 Q2070.49 1327.32 2072.39 1324.77 Q2074.31 1322.22 2074.31 1317.62 M2078.57 1327.66 Q2078.57 1334.28 2075.63 1337.5 Q2072.69 1340.74 2066.62 1340.74 Q2064.38 1340.74 2062.39 1340.4 Q2060.4 1340.07 2058.52 1339.38 L2058.52 1335.23 Q2060.4 1336.25 2062.22 1336.74 Q2064.05 1337.22 2065.95 1337.22 Q2070.14 1337.22 2072.22 1335.03 Q2074.31 1332.85 2074.31 1328.43 L2074.31 1326.32 Q2072.99 1328.61 2070.93 1329.75 Q2068.87 1330.88 2066 1330.88 Q2061.23 1330.88 2058.31 1327.25 Q2055.4 1323.61 2055.4 1317.62 Q2055.4 1311.6 2058.31 1307.97 Q2061.23 1304.33 2066 1304.33 Q2068.87 1304.33 2070.93 1305.47 Q2072.99 1306.6 2074.31 1308.89 L2074.31 1304.96 L2078.57 1304.96 L2078.57 1327.66 Z" fill="#000000" fill-rule="nonzero" fill-opacity="1" /><path clip-path="url(#clip760)" d="M2109.52 1316.85 L2109.52 1318.94 L2089.93 1318.94 Q2090.21 1323.34 2092.57 1325.65 Q2094.96 1327.94 2099.19 1327.94 Q2101.65 1327.94 2103.94 1327.34 Q2106.25 1326.74 2108.52 1325.53 L2108.52 1329.56 Q2106.23 1330.53 2103.82 1331.04 Q2101.41 1331.55 2098.94 1331.55 Q2092.73 1331.55 2089.1 1327.94 Q2085.49 1324.33 2085.49 1318.17 Q2085.49 1311.81 2088.91 1308.08 Q2092.36 1304.33 2098.2 1304.33 Q2103.43 1304.33 2106.46 1307.71 Q2109.52 1311.07 2109.52 1316.85 M2105.26 1315.6 Q2105.21 1312.11 2103.29 1310.03 Q2101.39 1307.94 2098.24 1307.94 Q2094.68 1307.94 2092.53 1309.96 Q2090.4 1311.97 2090.07 1315.63 L2105.26 1315.6 Z" fill="#000000" fill-rule="nonzero" fill-opacity="1" /><path clip-path="url(#clip760)" d="M2120.72 1297.59 L2120.72 1304.96 L2129.49 1304.96 L2129.49 1308.27 L2120.72 1308.27 L2120.72 1322.34 Q2120.72 1325.51 2121.58 1326.41 Q2122.46 1327.32 2125.12 1327.32 L2129.49 1327.32 L2129.49 1330.88 L2125.12 1330.88 Q2120.19 1330.88 2118.31 1329.05 Q2116.44 1327.2 2116.44 1322.34 L2116.44 1308.27 L2113.31 1308.27 L2113.31 1304.96 L2116.44 1304.96 L2116.44 1297.59 L2120.72 1297.59 Z" fill="#000000" fill-rule="nonzero" fill-opacity="1" /><path clip-path="url(#clip760)" d="M2154.28 1326.99 L2154.28 1340.74 L2150 1340.74 L2150 1304.96 L2154.28 1304.96 L2154.28 1308.89 Q2155.63 1306.58 2157.66 1305.47 Q2159.72 1304.33 2162.57 1304.33 Q2167.29 1304.33 2170.23 1308.08 Q2173.2 1311.83 2173.2 1317.94 Q2173.2 1324.05 2170.23 1327.8 Q2167.29 1331.55 2162.57 1331.55 Q2159.72 1331.55 2157.66 1330.44 Q2155.63 1329.31 2154.28 1326.99 M2168.78 1317.94 Q2168.78 1313.24 2166.83 1310.58 Q2164.91 1307.9 2161.53 1307.9 Q2158.15 1307.9 2156.21 1310.58 Q2154.28 1313.24 2154.28 1317.94 Q2154.28 1322.64 2156.21 1325.33 Q2158.15 1327.99 2161.53 1327.99 Q2164.91 1327.99 2166.83 1325.33 Q2168.78 1322.64 2168.78 1317.94 Z" fill="#000000" fill-rule="nonzero" fill-opacity="1" /><path clip-path="url(#clip760)" d="M2193.38 1294.86 L2193.38 1298.4 L2189.31 1298.4 Q2187.02 1298.4 2186.11 1299.33 Q2185.23 1300.26 2185.23 1302.66 L2185.23 1304.96 L2192.25 1304.96 L2192.25 1308.27 L2185.23 1308.27 L2185.23 1330.88 L2180.95 1330.88 L2180.95 1308.27 L2176.88 1308.27 L2176.88 1304.96 L2180.95 1304.96 L2180.95 1303.15 Q2180.95 1298.82 2182.97 1296.85 Q2184.98 1294.86 2189.35 1294.86 L2193.38 1294.86 Z" fill="#000000" fill-rule="nonzero" fill-opacity="1" /></svg>
